<svg xmlns="http://www.w3.org/2000/svg" width="120.25" height="120.25" viewBox="0 0 120.25 120.25"><path fill="#F7F7F7" d="M61.084 3.334c-31.614 0-57.334 25.72-57.334 57.334 0 31.613 25.72 57.333 57.334 57.333 31.613 0 57.333-25.72 57.333-57.333 0-31.614-25.72-57.334-57.333-57.334z"/><path d="M25.203 84.449h-5.467l-.961 4.145h-5.286l5.947-19.521h6.247l5.946 19.521h-5.466l-.96-4.145zm-.932-3.993l-.33-1.353c-.24-.94-.48-1.961-.721-3.063-.24-1.102-.48-2.143-.721-3.125h-.12c-.221 1.002-.446 2.049-.676 3.141-.23 1.09-.466 2.106-.706 3.047l-.33 1.353h3.604zm7.719-11.383h5.767c1.481 0 2.838.179 4.069.54s2.288.932 3.169 1.712c.881.782 1.566 1.782 2.058 3.004.49 1.222.735 2.692.735 4.415 0 1.722-.24 3.204-.721 4.443-.48 1.242-1.156 2.265-2.027 3.063-.871.801-1.902 1.392-3.094 1.772-1.191.379-2.487.569-3.889.569h-6.067v-19.518zm5.467 15.376c.7 0 1.361-.084 1.981-.256.621-.168 1.156-.465 1.607-.885.45-.42.806-1.002 1.066-1.742.26-.741.39-1.682.39-2.823s-.13-2.072-.39-2.794c-.261-.721-.616-1.28-1.066-1.682-.451-.4-.986-.676-1.607-.826-.62-.15-1.281-.226-1.981-.226h-.301v11.232l.301.002zm12.313-15.376h5.767c1.481 0 2.838.179 4.069.54s2.289.932 3.169 1.712c.881.782 1.565 1.782 2.058 3.004.489 1.222.735 2.692.735 4.415 0 1.722-.24 3.204-.721 4.443-.48 1.242-1.156 2.265-2.027 3.063-.871.801-1.902 1.392-3.094 1.772-1.191.379-2.487.569-3.889.569h-6.067v-19.518zm5.466 15.376c.7 0 1.361-.084 1.981-.256.621-.168 1.156-.465 1.607-.885.45-.42.806-1.002 1.066-1.742.26-.741.39-1.682.39-2.823s-.13-2.072-.39-2.794c-.261-.721-.616-1.28-1.066-1.682-.451-.4-.986-.676-1.607-.826-.62-.15-1.281-.226-1.981-.226h-.301v11.232l.301.002zm23.847 4.505c-1.362 0-2.599-.229-3.709-.69s-2.063-1.127-2.854-1.996c-.791-.871-1.406-1.942-1.847-3.215-.44-1.271-.661-2.707-.661-4.31s.221-3.028.661-4.28c.44-1.251 1.056-2.302 1.847-3.152.791-.852 1.742-1.498 2.854-1.938s2.347-.66 3.709-.66c1.341 0 2.571.22 3.694.66 1.121.44 2.076 1.092 2.867 1.952.791.861 1.406 1.912 1.848 3.152.439 1.242.66 2.664.66 4.267s-.221 3.038-.66 4.31c-.439 1.272-1.057 2.344-1.848 3.215-.791.869-1.746 1.535-2.867 1.996-1.123.46-2.353.689-3.694.689zm0-4.445c1.183 0 2.106-.515 2.778-1.546.67-1.031 1.006-2.438 1.006-4.22s-.336-3.158-1.006-4.13c-.672-.971-1.598-1.457-2.778-1.457s-2.106.486-2.778 1.457c-.671.972-1.006 2.348-1.006 4.13s.335 3.188 1.006 4.22c.672 1.032 1.595 1.546 2.778 1.546zm11.052-15.436h5.286l4.325 8.708 1.861 4.385h.121c-.062-.52-.131-1.091-.211-1.711-.08-.622-.15-1.257-.211-1.907-.061-.649-.115-1.302-.164-1.952-.052-.65-.076-1.277-.076-1.879v-5.645h4.927v19.521h-5.286l-4.325-8.739-1.862-4.355h-.12c.119 1.123.261 2.343.42 3.665.16 1.321.24 2.583.24 3.784v5.646h-4.926v-19.521z" fill="#3D6092"/><path fill="#91A8D1" d="M55.483 45.756h-16.18v-11.158h16.18v-16.738h11.531v16.737h16.178v11.159h-16.178v16.737h-11.53l-.001-16.737z"/></svg>