<svg xmlns="http://www.w3.org/2000/svg" width="120.25" height="120.25" viewBox="0 0 120.25 120.25"><path fill="#F7F7F7" d="M59.834 2.083c-31.614 0-57.334 25.721-57.334 57.335 0 31.613 25.72 57.333 57.334 57.333 31.613 0 57.333-25.72 57.333-57.333 0-31.614-25.72-57.335-57.333-57.335zm35.416 98.304c12-9.961 18.792-24.615 18.792-40.969 0-1.407-.133-2.797-.237-4.177l-18.555-18.491v63.637z"/><linearGradient id="a" gradientUnits="userSpaceOnUse" x1="219.191" y1="-218.158" x2="288.783" y2="-218.158" gradientTransform="matrix(1 0 0 -1 -147.6 -149.59)"><stop offset="0" stop-opacity=".3"/><stop offset=".995" stop-color="#fff" stop-opacity="0"/></linearGradient><path fill="url(#a)" d="M95.25 100.387c12-9.961 18.792-24.615 18.792-40.969 0-1.407-.133-2.797-.237-4.177l-18.555-18.491v63.637z"/><path fill="#fff" d="M23.25 37v62.811c3 2.736 7 5.131 10 7.133v-57.944h3v59.493c7 3.368 15.105 5.258 23.459 5.258 5.221 0 10.2-.751 14.979-2.126 7.72-2.221 14.563-6.102 20.563-11.238v-63.387h-72.001zm19 16h38v3h-38v-3zm0 10h24v3h-24v-3zm0 10h31v3h-31v-3zm24 23h-24v-3h24v3zm14-10h-38v-3h38.236-.236v3z"/><path fill="#91A8D1" d="M42.25 53h38v3h-38zm-9-4v57.943c1 .545 2 1.064 3 1.55v-59.493h-3zm9 14h24v3h-24zm0 10h31v3h-31zm0 10v3h37.257l.979-3zm38 0h.236l-.979 3h.743zm-38 10h24v3h-24z"/></svg>