<svg xmlns="http://www.w3.org/2000/svg" width="177.75" height="130.75" viewBox="0 0 177.75 130.75"><path d="M130.398 4h-60.648v7.283c10 3.012 19.749 8.874 27.061 16.717h29.939v11h-21.822c2.5 4.353 4.469 9.047 5.813 14h43.01v11h-41.114c.118 1.542.198 3.096.198 4.668 0 3.176-.254 6.291-.731 9.332h41.647v11h-44.476c-1.817 5.018-4.299 9.713-7.321 14h51.797v11h-61.812c-6.438 5.514-14.189 9.672-22.189 12.053v1.947h104v-84.25l-43.352-39.75zm-79.119 51.54c-2.92 0-5.52 1.683-7.805 5.046-2.281 3.364-3.423 7.178-3.423 11.439 0 2.684.659 4.895 1.979 6.637 1.318 1.74 2.986 2.611 5 2.611 3.006 0 5.716-1.674 8.129-5.029 2.411-3.354 3.616-7.127 3.616-11.326 0-2.811-.686-5.078-2.062-6.798-1.369-1.721-3.184-2.58-5.434-2.58zm1.555-36.206c-27.246 0-49.334 22.088-49.334 49.334s22.088 49.333 49.334 49.333 49.333-22.087 49.333-49.333-22.087-49.334-49.333-49.334zm23.855 73.843c-3.006 2.392-6.289 3.992-9.847 5.107-3.56 1.112-7.688 1.597-12.384 1.597-10.188 0-18.209-2.617-24.063-7.777-5.852-5.162-8.777-12.25-8.777-21.227 0-6.209 1.444-12.014 4.332-17.388 2.889-5.378 6.706-9.384 11.457-12.011 4.75-2.63 10.238-3.947 16.468-3.947 8.048 0 14.69 2.389 19.927 7.171 5.235 4.78 7.854 10.849 7.854 18.204 0 3.83-.93 7.544-2.79 11.146-1.86 3.604-4.317 6.502-7.368 8.696-3.052 2.196-6.199 3.295-9.443 3.295-2.188 0-3.738-.396-4.656-1.185-.92-.791-1.477-2.191-1.671-4.202-1.427 1.688-3.009 2.997-4.739 3.925-1.73.934-3.449 1.396-5.158 1.396-3.355 0-6.15-1.383-8.393-4.153-2.238-2.769-3.357-6.209-3.357-10.319 0-3.396.803-6.707 2.403-9.932 1.601-3.224 3.707-5.819 6.327-7.788 2.615-1.969 5.311-2.953 8.08-2.953 4.155 0 7.412 2.12 9.77 6.101l1.134-4.933h5.869l-5.22 23.952c-.306 1.385-.452 2.229-.452 2.659 0 .609.215 1.088.648 1.511.432.422.96.616 1.588.616 1.409 0 3.209-.912 5.404-2.717 2.193-1.81 3.927-4.078 5.193-6.805 1.264-2.726 1.898-5.561 1.898-8.506 0-5.841-2.208-10.716-6.623-14.618-4.412-3.908-9.929-5.858-16.55-5.858-7.81 0-14.273 2.642-19.39 7.933-5.118 5.293-7.676 11.982-7.676 20.072 0 7.876 2.461 13.988 7.385 18.336 4.922 4.349 11.83 6.521 20.719 6.521 5.236 0 9.802-.887 13.695-2.66 1.471-.692 2.998-1.272 4.574-2.342 1.583-1.071 3.055-3.094 4.418-4.094h5.841c-1.277 3-3.418 4.786-6.427 7.177z" fill="#A6A6A6"/></svg>