<svg xmlns="http://www.w3.org/2000/svg" viewBox="0 0 64 64"><path fill="#FFF" stroke="#4C5C68" stroke-linecap="round" stroke-linejoin="round" stroke-miterlimit="10" d="M16.31 48.327v-37.5h29v37.5z"/><path fill="#CEE8FA" d="M42.7 14.7v29.7c0 .2-.2.3-.3.3h-23.1c-.2 0-.3-.2-.3-.3v-29.7c0-.2.2-.3.3-.3h23.1c.2-.1.3.1.3.3z"/><path fill="#FFF" stroke="#4C5C68" stroke-linecap="round" stroke-linejoin="round" stroke-miterlimit="10" d="M27.2 46.3h5.2m-3.1-33.3h2m-20.3 37.3v-14.9l3.5-4.7h5.4s1.1 1.1-.4 2.9c0 0-3 .4-3.4 2.3-.3 1.9 2.1 2.4 2.6 3.8s1.4 6.8-1.2 10.8l-6.5-.2z"/><path fill="#FEBD2E" stroke="#4C5C68" stroke-linecap="round" stroke-linejoin="round" stroke-miterlimit="10" d="M10 57.9v-7.5h14.3v7.5"/><path fill="#4C5C68" d="M38.8 20.6l-8.5-2.4h-.4l-8.1 2.4c-.3.1-.5.4-.5.7v11.7c0 2.6 1.6 4.9 4 5.8l4.5 2.1.3.1c.1 0 .2 0 .3-.1l4.8-2.1c2.4-.9 4-3.2 4-5.8v-11.7c.1-.3-.1-.6-.4-.7z"/><path fill="#FFF" d="M38.3 33.2c0 2.1-1.3 3.9-3.3 4.6l-4.9 2.1-4.5-2.1c-2-.7-3.3-2.5-3.3-4.6v-11.5l7.8-2.3 8.2 2.3v11.5z"/><text transform="translate(26.526 35.04)" fill="#286090" font-family="'Montserrat-Regular'" font-size="17.284">?</text><g fill="#FFF"><path d="M54 42.6v-4.4c-2.1-2-4.2.1-4.2.1l.7 2.2-12.3-.5c-2.1-3.1-4-.2-4-.2v8.6l6.2 5.7v3.6l11.4-.1v-3.5c0-.8 2.1-4.1 2.1-4.1v-4.1"/><path stroke="#4C5C68" stroke-linecap="round" stroke-linejoin="round" stroke-miterlimit="10" d="M51.9 57.8v-3.5c0-.8 2.1-4.1 2.1-4.1v-4.1m0-3.5v-4.4c-2.1-2-4.2.1-4.2.1l.7 2.2-12.3-.5c-2.1-3.1-4-.2-4-.2v8.6l6.2 5.7v3.6"/><path d="M39.5 38.5l2.3-2.3 2.1-.5 2.1.9 1.5-.5 1.8.4-.2 1 3.2 3.3-4.1 2.5h-7.6l-1.5-1"/><path stroke="#4C5C68" stroke-linecap="round" stroke-linejoin="round" stroke-miterlimit="10" d="M38.4 46.4v-19s-.5-1.9 1.5-1.9c2.1 0 1.6 1.7 1.6 1.7v10.9m.3-2s1.8-1.8 3.9.2v1.8m.7-1s1.3-2.1 3.4-.1v2.2"/></g></svg>