<svg xmlns="http://www.w3.org/2000/svg" viewBox="0 0 24 24" enable-background="new 0 0 24 24"><style type="text/css">.st0{fill:#9ECFEF;} .st1{fill:#FFFFFF;stroke:#333333;stroke-width:0.25;stroke-miterlimit:10;} .st2{fill:#97C9E8;} .st3{fill:#595959;} .st4{fill:#595959;stroke:#595959;stroke-width:0.25;stroke-miterlimit:10;} .st5{fill:#FFFFFF;} .st6{fill:none;} .st7{fill:none;stroke:#9ECFEF;stroke-miterlimit:10;} .st8{fill:#595959;stroke:#595959;stroke-width:0.5;stroke-miterlimit:10;} .st9{fill:none;stroke:#595959;stroke-miterlimit:10;} .st10{fill:#9ECFEF;stroke:#595959;stroke-miterlimit:10;} .st11{fill:#9ECFEF;stroke:#595959;stroke-linejoin:round;stroke-miterlimit:10;} .st12{fill:none;stroke:#2C3251;stroke-width:0.75;stroke-miterlimit:10;} .st13{fill:none;stroke:#595959;stroke-width:0.5;stroke-miterlimit:10;} .st14{fill:none;stroke:#595959;stroke-width:0.75;stroke-miterlimit:10;} .st15{fill:#9ECFEF;stroke:#595959;stroke-width:0.25;stroke-miterlimit:10;} .st16{fill:#CA589D;} .st17{opacity:0.2;fill:#CA589D;} .st18{fill:#3CAF85;}</style><path class="st16" d="M16.386 3.735v15.386h-13.902v-2.968h.489v2.483h12.928v-14.416h-12.928v2.483h-.489v-2.968zm5.551 6.587h-3.938v8.798h3.032v-.005c1.086 0 1.969-.884 1.969-1.97 0-.813-.495-1.513-1.2-1.814h.137v-5.009zm-.296 2.736v.906h-3.345v-.906h3.345zm-3.345-.313v-.906h3.345v.906h-3.345zm3.345 1.515v.906h-3.345v-.906h3.345zm-3.345 2.126v-.906h1.681c-.34.215-.609.532-.766.906h-.915zm.818.296c-.036.148-.055.303-.055.463 0 .156.019.31.055.46h-.818v-.923h.818zm1.917 2.13v-.004h-.122c-.437-.032-.846-.236-1.138-.571-.264-.304-.41-.692-.41-1.092 0-.891.703-1.622 1.584-1.665h.167c.881.044 1.584.774 1.584 1.665.001.919-.746 1.666-1.665 1.667zm-2.735-.004v-.906h.915c.081.193.192.374.332.534.127.146.272.271.432.372h-1.679zm3.345-8.189v.923h-3.345v-.923h3.345z"/><ellipse transform="matrix(.838 -.545 .545 .838 -4.001 10.509)" class="st16" cx="15.719" cy="12.001" rx="1.25" ry="1.25"/><path class="st16" d="M10.98 12.602l2.273 3.496 7.227-4.699-2.273-3.496-7.227 4.699zm9.09-1.283l-6.74 4.383-1.963-3.018 6.74-4.383 1.963 3.018z"/><path class="st5" d="M11.367 12.684l1.963 3.018 6.74-4.383-1.963-3.018-6.74 4.383zm5.033.365c-.578.376-1.353.212-1.729-.367-.376-.578-.212-1.353.367-1.729.578-.376 1.353-.212 1.729.367.376.578.212 1.353-.367 1.729z"/><path class="st17" d="M11.82 12.793l6.203-4.034 1.602 2.464-6.203 4.034z"/><ellipse transform="matrix(.838 -.545 .545 .838 -4.001 10.509)" class="st5" cx="15.719" cy="12.001" rx="1.25" ry="1.25"/><path class="st17" d="M16.253 12.823c-.444.289-1.053.16-1.347-.293-.289-.444-.16-1.053.284-1.342.453-.294 1.061-.165 1.35.279.295.453.166 1.061-.287 1.356z"/><path class="st5" d="M18.1 9.798l.228-.148-.379-.583-.81.527.148.228.582-.379zm.828.775l-.227.149.23.354-.582.379.148.227.81-.526zm-6.413 2.352l.583-.379-.148-.228-.823.535.378.582.241-.156zm1.644 1.254l-.582.378-.23-.354-.241.156.379.583.823-.535z"/><circle class="st16" cx="15.72" cy="14.63" r="1.25"/><path class="st16" d="M11.42 12.55v4.17h8.62v-4.17h-8.62zm8.32 3.88h-8.04v-3.6h8.04v3.6z"/><path class="st5" d="M11.7 12.83v3.6h8.04v-3.6h-8.04zm4.02 3.05c-.69 0-1.25-.56-1.25-1.25s.56-1.25 1.25-1.25 1.25.56 1.25 1.25-.56 1.25-1.25 1.25z"/><path class="st17" d="M12.02 13.17h7.4v2.939h-7.4z"/><circle class="st5" cx="15.72" cy="14.63" r="1.25"/><path class="st17" d="M15.72 15.61c-.53 0-.97-.44-.97-.98 0-.53.44-.97.97-.97.54 0 .98.44.98.97 0 .54-.44.98-.98.98z"/><path class="st5" d="M18.917 14.081h.272v-.695h-.966v.272h.694zm.272 1.102h-.272v.422h-.694v.272h.966zm-6.658-1.525h.695v-.272h-.982v.695h.287zm.695 1.947h-.695v-.422h-.287v.694h.982zm-9.163-10.385h10.839v12.416h-10.839z"/><path class="st16" d="M14.431 17.151h-10.368v.485h10.839v-12.416h-10.839v.513h10.368zm-1.786-5.715c0-1.766-1.437-3.203-3.203-3.203s-3.204 1.437-3.204 3.203 1.437 3.203 3.203 3.203 3.204-1.437 3.204-3.203zm-5.91 0c0-1.492 1.214-2.707 2.707-2.707 1.492 0 2.707 1.214 2.707 2.707 0 1.492-1.214 2.707-2.707 2.707-1.493-.001-2.707-1.215-2.707-2.707z"/><circle class="st5" cx="9.441" cy="11.442" r="2.2"/><path class="st16" d="M9.692 13.426v-.774c.489-.101.873-.49.968-.981h.76v-.486h-.762c-.099-.484-.481-.866-.965-.966v-.761h-.513v.764c-.479.103-.856.483-.954.963h-.774v.486h.77c.094.487.474.874.957.978v.776h.513zm-.996-1.99c0-.411.334-.745.745-.745s.745.334.745.745-.334.745-.745.745c-.41 0-.745-.335-.745-.745z"/><path class="st5" d="M1.674 7.438h2.053v1.575h-2.053zm0 6.406h2.053v1.575h-2.053z"/><path class="st16" d="M4.482 9.7v-2.997h-3.482v2.997h1.484v3.482h-1.484v2.972h3.482v-2.972h-1.509v-3.482h1.509zm-.51 3.97v1.994h-2.483v-1.994h2.483zm-2.483-4.48v-1.973h2.483v1.973h-2.483z"/></svg>