<svg xmlns="http://www.w3.org/2000/svg" viewBox="0 0 50 50" enable-background="new 0 0 50 50"><path fill="#D1D1D0" d="M45.7 38.4h-42.6c-.9 0-1.6-.7-1.6-1.6 0-.9.7-1.6 1.6-1.6h42.6c.9 0 1.6.7 1.6 1.6 0 .8-.7 1.6-1.6 1.6z"/><path fill="#fff" stroke="#3B3E43" stroke-linecap="round" stroke-linejoin="round" stroke-miterlimit="10" d="M27.2 12.1h10v23.8h-23.8v-23.8h3.1"/><path fill="#89C33D" stroke="#3B3E43" stroke-linecap="round" stroke-linejoin="round" stroke-miterlimit="10" d="M13.4 33.8h7.5v2.1h-7.5zM29.7 12.2h7.3v1.7h-7.3z"/><path fill="#fff" stroke="#3B3E43" stroke-linecap="round" stroke-linejoin="round" stroke-miterlimit="10" d="M16.7 5.5h10.5v15.1h-10.5z"/><path stroke="#3B3E43" stroke-linecap="round" stroke-linejoin="round" stroke-miterlimit="10" d="M18.8 20.3v-14.4" fill="none"/><path stroke="#3E3E3E" stroke-linecap="round" stroke-linejoin="round" stroke-miterlimit="10" d="M25.5 18v-1.8" fill="none"/><path stroke="#3B3E43" stroke-linecap="round" stroke-linejoin="round" stroke-miterlimit="10" d="M25.5 15.1v-1.2M25.5 12.2v-1.2" fill="none"/><circle fill="#89C33D" cx="22.5" cy="8.6" r="1.5"/><circle stroke="#89C33D" stroke-miterlimit="10" cx="22.5" cy="10.8" r="1.5" fill="none"/><path stroke="#3B3E43" stroke-linecap="round" stroke-linejoin="round" stroke-miterlimit="10" d="M28 12.9l3.4 3.7v5.6l-.9 2.7v5.2h-6.9v-2.1s-2.1-2.8-1.9-5.2" fill="none"/><path fill="#fff" stroke="#3B3E43" stroke-linecap="round" stroke-linejoin="round" stroke-miterlimit="10" d="M28.2 19.2l-3.7-3.7s-2.2-1.1-2.2 2.2l3.3 3.3s-.3 3.1 2.3 5.6"/><path fill="#89C33D" stroke="#3B3E43" stroke-linecap="round" stroke-linejoin="round" stroke-miterlimit="10" d="M22.2 36.6v-6.5h9.9v6.5"/></svg>