<svg xmlns="http://www.w3.org/2000/svg" xmlns:xlink="http://www.w3.org/1999/xlink" viewBox="0 0 24 24" enable-background="new 0 0 24 24"><style type="text/css">.st0{fill:#9ECFEF;} .st1{fill:#595959;} .st2{fill:#FFFFFF;} .st3{fill:#595959;stroke:#FFFFFF;stroke-width:0.25;stroke-miterlimit:10;} .st4{fill:#FFFFFF;stroke:#333333;stroke-width:0.25;stroke-miterlimit:10;} .st5{fill:#97C9E8;} .st6{fill:#595959;stroke:#595959;stroke-width:0.25;stroke-miterlimit:10;} .st7{fill:none;} .st8{fill:#595959;stroke:#FFFFFF;stroke-width:0.1916;stroke-miterlimit:10;} .st9{fill:#595959;stroke:#595959;stroke-width:0.2196;stroke-miterlimit:10;} .st10{fill:#FFFFFF;stroke:#595959;stroke-width:0.2196;stroke-miterlimit:10;} .st11{fill:#9ECFEF;stroke:#595959;stroke-width:0.25;stroke-miterlimit:10;} .st12{fill:#CA589D;} .st13{opacity:0.2;fill:#CA589D;} .st14{fill:#3CAF85;} .st15{fill:none;stroke:#2C3251;stroke-width:0.75;stroke-miterlimit:10;} .st16{fill:#595959;stroke:#FFFFFF;stroke-width:0.2467;stroke-miterlimit:10;} .st17{fill:#9ECFEF;stroke:#595959;stroke-width:0.5;stroke-miterlimit:10;} .st18{fill:#595959;stroke:#FFFFFF;stroke-width:0.4959;stroke-miterlimit:10;} .st19{fill:#595959;stroke:#595959;stroke-width:0.2246;stroke-miterlimit:10;} .st20{fill:none;stroke:#595959;stroke-width:0.7572;stroke-miterlimit:10;} .st21{fill:#595959;stroke:#595959;stroke-width:0.5;stroke-miterlimit:10;} .st22{fill:#595959;stroke:#595959;stroke-width:0.2986;stroke-miterlimit:10;} .st23{fill:#9ECFEF;stroke:#595959;stroke-width:0.75;stroke-miterlimit:10;} .st24{fill:#9ECEEE;stroke:#9ECEEE;stroke-width:0.75;stroke-miterlimit:10;} .st25{fill-rule:evenodd;clip-rule:evenodd;fill:#9ECFEF;} .st26{fill:none;stroke:#595959;stroke-miterlimit:10;} .st27{fill:none;stroke:#595959;stroke-width:0.9161;stroke-miterlimit:10;} .st28{fill:#B3B3B3;} .st29{fill:none;stroke:#324044;stroke-width:0.75;stroke-miterlimit:10;} .st30{fill:none;stroke:#FFFFFF;stroke-width:0.75;stroke-miterlimit:10;} .st31{fill:#FFFFFF;stroke:#FFFFFF;stroke-width:0.25;stroke-miterlimit:10;} .st32{fill:none;stroke:#2C3251;stroke-width:0.4222;stroke-miterlimit:10;} .st33{fill-rule:evenodd;clip-rule:evenodd;fill:#595959;stroke:#595959;stroke-width:0.5781;stroke-miterlimit:10;} .st34{fill:#595959;stroke:#595959;stroke-width:0.1786;stroke-miterlimit:10;} .st35{fill:#FFFFFF;stroke:#FFFFFF;stroke-width:0.2467;stroke-miterlimit:10;} .st36{fill-rule:evenodd;clip-rule:evenodd;fill:#595959;} .st37{fill-rule:evenodd;clip-rule:evenodd;fill:#FFFFFF;} .st38{clip-path:url(#SVGID_2_);} .st39{clip-path:url(#SVGID_4_);fill:#9ECFEF;} .st40{clip-path:url(#SVGID_6_);} .st41{clip-path:url(#SVGID_8_);fill:#9ECFEF;} .st42{clip-path:url(#SVGID_10_);} .st43{clip-path:url(#SVGID_12_);fill:#595959;} .st44{clip-path:url(#SVGID_14_);} .st45{clip-path:url(#SVGID_16_);fill:#595959;} .st46{clip-path:url(#SVGID_18_);} .st47{clip-path:url(#SVGID_20_);fill:#595959;} .st48{fill:none;stroke:#324044;stroke-width:0.7863;stroke-miterlimit:10;} .st49{fill:#FFFFFF;stroke:#FFFFFF;stroke-width:0.1017;stroke-linecap:round;stroke-linejoin:round;stroke-miterlimit:10;} .st50{fill:none;stroke:#FFFFFF;stroke-width:0.4;stroke-linecap:round;stroke-linejoin:round;stroke-miterlimit:10;} .st51{fill:#FFFFFF;stroke:#FFFFFF;stroke-width:0.1017;stroke-miterlimit:10;} .st52{fill:#FFFFFF;stroke:#FFFFFF;stroke-width:0.2937;stroke-miterlimit:10;}</style><path class="st2" d="M7.831 3.306c-.032-.109.002-.212.055-.272.057-.064.107-.049.124-.046l1.583.456c.354.104.721-.056.916-.392l.886-1.53c.033-.056.076-.087.123-.088h.001c.045 0 .088.03.121.084l.917 1.52c.212.352.616.497.978.353l.663-.261c.02-.008.067-.027.128.036.063.065.103.189.083.255l-.848 1.186h-4.618l-1.112-1.301zm1.753 2.05h5.53c.285 0 .516.231.516.516 0 .285-.231.516-.516.516h-8.061c-.285 0-.516-.231-.516-.516 0-.284.231-.516.516-.516h2.5309999999999997zm6.063 16.869h-9.746c-.91 0-1.651-.741-1.651-1.651v-11.675c0-.91.741-1.65 1.651-1.65h10.365c.91 0 1.651.74 1.651 1.65v3.752h.75v-3.752c0-1.324-1.077-2.4-2.401-2.4h-.076c.11-.188.19-.394.19-.626 0-.698-.568-1.266-1.266-1.266h-.74l.61-.857c.154-.356.082-.778-.181-1.049-.229-.238-.558-.31-.854-.192l-.663.261c-.066.027-.126-.022-.159-.077l-.917-1.52c-.154-.255-.413-.407-.694-.407h-.007c-.285.002-.545.16-.696.422l-.884 1.529c-.031.053-.09.098-.152.084l-1.582-.455c-.299-.088-.601.006-.812.246-.241.275-.301.675-.153 1.019l.843.996h-1.02c-.698 0-1.266.568-1.266 1.266 0 .233.08.439.19.626h-.076c-1.324 0-2.401 1.077-2.401 2.4v11.675c0 1.324 1.077 2.401 2.401 2.401h9.746v-.75z"/><ellipse class="st30" cx="11.084" cy="14.937" rx="2.956" ry="2.943"/><path class="st31" d="M19.797 18.412h.162v-5.538c0-.145-.118-.263-.263-.263h-4.036c-.145 0-.263.118-.263.263v9.663c0 .145.118.263.263.263h3.245c.637 0 1.204-.255 1.609-.672.417-.417.671-.984.671-1.609.002-.949-.566-1.76-1.388-2.107zm-4.052-5.453h3.867v1.065h-3.867v-1.065zm0 1.412h3.867v1.042h-3.867v-1.042zm0 1.413h3.867v1.042h-3.867v-1.042zm0 1.389h3.867v1.054h-3.867v-1.054zm0 1.413h1.945c-.394.255-.706.614-.892 1.054h-1.054v-1.054zm0 1.389h.938c-.035.174-.058.359-.058.544 0 .174.023.359.058.533h-.938v-1.077zm0 2.466v-1.054h1.054c.093.232.22.44.382.625.151.162.324.313.509.428h-1.945zm3.161 0h-.139c-.509-.035-.984-.278-1.32-.66-.301-.359-.475-.799-.475-1.262 0-1.042.822-1.887 1.841-1.933h.185c1.019.046 1.841.892 1.841 1.933 0 1.054-.868 1.922-1.933 1.922z"/><circle class="st2" cx="18.906" cy="20.513" r="1.322"/><defs><path id="SVGID_1_" d="M6.5-21h11c.276 0 .5-.224.5-.5v-17c0-.276-.224-.5-.5-.5h-11c-.276 0-.5.224-.5.5v17c0 .276.224.5.5.5z"/></defs><clipPath id="SVGID_2_"><use xlink:href="#SVGID_1_" overflow="visible"/></clipPath><g class="st38"><defs><path id="SVGID_3_" d="M-10-301h320v697h-320z"/></defs><clipPath id="SVGID_4_"><use xlink:href="#SVGID_3_" overflow="visible"/></clipPath></g><defs><circle id="SVGID_5_" cx="12" cy="-30" r="3"/></defs><use xlink:href="#SVGID_5_" overflow="visible" fill-rule="evenodd" clip-rule="evenodd" fill="#9ECFEF"/><clipPath id="SVGID_6_"><use xlink:href="#SVGID_5_" overflow="visible"/></clipPath><g class="st40"><defs><path id="SVGID_7_" d="M-10-301h320v697h-320z"/></defs><use xlink:href="#SVGID_7_" overflow="visible" fill="#9ECFEF"/><clipPath id="SVGID_8_"><use xlink:href="#SVGID_7_" overflow="visible"/></clipPath></g><defs><path id="SVGID_9_" d="M21.875-29.795c-2.036 3.36-5.82 5.447-9.875 5.447s-7.839-2.087-9.875-5.447l-.125-.205.125-.205c2.036-3.36 5.82-5.447 9.875-5.447s7.839 2.087 9.875 5.447l.125.205-.125.205zm-4.909-.205c0-2.671-2.228-4.845-4.966-4.845s-4.966 2.174-4.966 4.845 2.228 4.845 4.966 4.845 4.966-2.174 4.966-4.845zm-14.001 0c1.194 1.865 2.978 3.286 5.043 4.093-1.11-1.03-1.802-2.484-1.802-4.093s.693-3.063 1.802-4.093c-2.065.807-3.849 2.228-5.043 4.093zm13.027-4.093c1.11 1.03 1.802 2.484 1.802 4.093s-.693 3.063-1.802 4.093c2.065-.807 3.849-2.228 5.043-4.093-1.194-1.865-2.978-3.286-5.043-4.093z"/></defs><clipPath id="SVGID_10_"><use xlink:href="#SVGID_9_" overflow="visible"/></clipPath><g class="st42"><defs><path id="SVGID_11_" d="M-10-301h320v697h-320z"/></defs><clipPath id="SVGID_12_"><use xlink:href="#SVGID_11_" overflow="visible"/></clipPath></g><defs><path id="SVGID_13_" d="M5.43-20.214c0 .223.183.404.409.404h10.267v-1.215c0-.672.554-1.22 1.234-1.22h1.23v-2.841h.821v2.911c0 .325-.128.631-.36.86l-1.984 1.961c-.233.229-.542.356-.87.356h-10.338c-.679 0-1.23-.546-1.23-1.216v-4.871h.821v4.871zm12.559-1.219h-.649c-.228 0-.413.183-.413.408v.642l1.062-1.05z"/></defs><clipPath id="SVGID_14_"><use xlink:href="#SVGID_13_" overflow="visible"/></clipPath><g class="st44"><defs><path id="SVGID_15_" d="M-10-299.998h320v697h-320z"/></defs><clipPath id="SVGID_16_"><use xlink:href="#SVGID_15_" overflow="visible"/></clipPath></g><defs><path id="SVGID_17_" d="M18.57-39.793c0-.216-.184-.393-.409-.393h-12.322c-.226 0-.409.176-.409.393v3.167h-.821v-3.167c0-.651.552-1.181 1.23-1.181h12.322c.679 0 1.23.53 1.23 1.181v3.166h-.821v-3.166"/></defs><clipPath id="SVGID_18_"><use xlink:href="#SVGID_17_" overflow="visible"/></clipPath><g class="st46"><defs><path id="SVGID_19_" d="M-10-301.974h320v697h-320z"/></defs><clipPath id="SVGID_20_"><use xlink:href="#SVGID_19_" overflow="visible"/></clipPath></g></svg>