<svg xmlns="http://www.w3.org/2000/svg" viewBox="0 0 50 50" enable-background="new 0 0 50 50"><path fill="#D1D1D0" d="M45.7 38.4h-42.6c-.9 0-1.6-.7-1.6-1.6 0-.9.7-1.6 1.6-1.6h42.6c.9 0 1.6.7 1.6 1.6 0 .8-.7 1.6-1.6 1.6z"/><circle fill="#89C33D" stroke="#3B3E43" stroke-miterlimit="10" cx="12" cy="27.4" r="7.2"/><path fill="#fff" stroke="#3B3E43" stroke-linecap="round" stroke-linejoin="round" stroke-miterlimit="10" d="M9.3 23.5c.1-.1.1-.1.2-.1.7-.5 1.6-.7 2.5-.7 2.6 0 4.7 2.1 4.7 4.7s-2.1 4.6-4.7 4.6-4.7-2.1-4.7-4.7c0-.6.1-1.2.3-1.8"/><path fill="#005B8B" d="M11.9 29.4c-.9 0-1.3-.4-1.3-.7 0-.2.2-.5.4-.5s.3.3.9.4v-.9c-.6-.2-1.1-.5-1.1-1.2s.6-1.1 1.1-1.1v-.2c0-.1 0-.2.2-.2.1 0 .2.1.2.2v.2c.3 0 1 .1 1 .5 0 .2-.1.5-.3.5-.2 0-.4-.2-.7-.2v.9c.6.2 1.1.5 1.1 1.2s-.5 1.1-1.1 1.2v.1c0 .1-.1.2-.2.2s-.2-.1-.2-.2v-.2zm0-2.6v-.7c-.3.1-.3.2-.3.3-.1.1 0 .2.3.4zm.3 1v.8c.3-.1.3-.2.3-.3 0-.3 0-.4-.3-.5z"/><path fill="#fff" stroke="#3B3E43" stroke-linecap="round" stroke-linejoin="round" stroke-miterlimit="10" d="M38.9 21.2h3.3v8.6h-3.3zM15.8 15h25.4v21.3h-25.4zM42.3 29.9h-9c-1.4 0-2.5-1.4-2.5-2.8v.1c0-1.4 1.1-2.6 2.5-2.6h9v5.3z"/><path fill="#89C33D" d="M41.4 29.2h-7.9c-1.1 0-1.9-1.1-1.9-2.1v.1c0-1.1.8-2 1.9-2h7.9v4z"/><path stroke="#3B3E43" stroke-linecap="round" stroke-linejoin="round" stroke-miterlimit="10" stroke-dasharray="0.673,2.0191" d="M17.7 21.8h22.1M16.5 33.8h25.1" fill="none"/><circle stroke="#fff" stroke-linecap="round" stroke-linejoin="round" stroke-miterlimit="10" cx="34.4" cy="26.3" r=".9" fill="none"/><path fill="#fff" stroke="#3B3E43" stroke-linecap="round" stroke-linejoin="round" stroke-miterlimit="10" d="M41.2 16.6h-23.5c-1.1 0-2-.9-2-2s.9-2 2-2l23.4-.1v4.1"/><path fill="#fff" stroke="#3B3E43" stroke-linecap="round" stroke-linejoin="round" stroke-miterlimit="10" d="M19.1 8.1h11.5v8.6h-11.5z"/><path fill="#89C33D" d="M19.3 8.3h4v8h-4z"/><path fill="#fff" stroke="#3B3E43" stroke-linecap="round" stroke-linejoin="round" stroke-miterlimit="10" d="M23.3 16.4v-5.3h12.6v5.3"/></svg>