<svg xmlns="http://www.w3.org/2000/svg" viewBox="0 0 50 50" enable-background="new 0 0 50 50"><path fill="#fff" stroke="#3B3E43" stroke-linecap="round" stroke-linejoin="round" stroke-miterlimit="10" d="M23.1 27.3l6.5-2s.8-.3 1.2.4c.4.7-.3 1.2-1 1.6-.8.4-8.6 4.5-8.6 4.5s-1.1.7-2.1.5c-1-.3-6.3-2.5-6.3-2.5h-2.4M10.4 24.3h3.5l4.7 1.6h3.5s.9 0 .9.8c0 0 .1 1-.7 1.1h-4.6l-1 .6"/><path fill="#89C33D" stroke="#3B3E43" stroke-linecap="round" stroke-linejoin="round" stroke-miterlimit="10" d="M5.1 22.9h5.2v8.3h-5.2"/><path fill="#fff" stroke="#3B3E43" stroke-linecap="round" stroke-linejoin="round" stroke-miterlimit="10" d="M22 12.4l4.1-3.8h5l2.4.8h4.7v6.2h-1.9s-2.4 2-5.5 1.7"/><path fill="#fff" stroke="#3B3E43" stroke-linecap="round" stroke-linejoin="round" stroke-miterlimit="10" d="M12.5 13.7h18.4v9.4h-18.4z"/><path fill="#01B8C4" d="M12.3 14.6h17.4v7.1h-17.4z"/><path fill="#fff" stroke="#3B3E43" stroke-linecap="round" stroke-linejoin="round" stroke-miterlimit="10" d="M12.1 12.4h17.7v9.4h-17.7z"/><path fill="#89C33D" stroke="#3B3E43" stroke-width=".4" stroke-linecap="round" stroke-linejoin="round" stroke-miterlimit="10" d="M27.9 17.7c-.2.1-.3.2-.5.2-.5 0-.9-.4-.9-.9s.4-.9.9-.9.9.4.9.9c0 .1 0 .2-.1.3"/><path fill="#fff" stroke="#3B3E43" stroke-linecap="round" stroke-linejoin="round" stroke-miterlimit="10" d="M28.4 11.5l-3.3 3.3s-.9 2 2 2l3-3s2.8.2 5-2.1"/><path fill="#89C33D" stroke="#3B3E43" stroke-linecap="round" stroke-linejoin="round" stroke-miterlimit="10" d="M44.2 16.9h-5.9v-8.9h5.9"/><circle fill="#fff" stroke="#3B3E43" stroke-width=".4" stroke-linecap="round" stroke-linejoin="round" stroke-miterlimit="10" cx="20.9" cy="17" r="2.2"/><path fill="#fff" stroke="#3B3E43" stroke-width=".4" stroke-linecap="round" stroke-linejoin="round" stroke-miterlimit="10" d="M20.1 15.8c.3-.2.5-.3.8-.3.8 0 1.4.6 1.4 1.4 0 .8-.6 1.4-1.4 1.4-.8 0-1.4-.6-1.4-1.4l.1-.5"/><path fill="#3B3E43" d="M20.9 17.6c-.3 0-.4-.1-.4-.2l.1-.2s.1.1.3.1v-.2c-.2-.1-.3-.1-.3-.3s.2-.3.3-.3v-.1s0-.1.1-.1.1 0 .1.1v.1c.1 0 .3.1.3.2l-.1.1-.2-.1v.2c.2.1.3.1.3.3-.1.2-.2.3-.5.4.1.1.1.1 0 .1v-.1zm0-.8v-.2c-.1 0-.1.1-.1.1s0 .1.1.1zm.1.3v.2c.1 0 .1-.1.1-.1s0-.1-.1-.1z"/><path fill="#89C33D" stroke="#3B3E43" stroke-width=".4" stroke-linecap="round" stroke-linejoin="round" stroke-miterlimit="10" d="M15 17.7c-.2.1-.3.2-.5.2-.5 0-.9-.4-.9-.9s.4-.9.9-.9.9.4.9.9c0 .1 0 .2-.1.3"/><path fill="#D1D1D0" d="M45.7 38.4h-42.6c-.9 0-1.6-.7-1.6-1.6 0-.9.7-1.6 1.6-1.6h42.6c.9 0 1.6.7 1.6 1.6 0 .8-.7 1.6-1.6 1.6z"/></svg>