<svg id="Layer_1" data-name="Layer 1" xmlns="http://www.w3.org/2000/svg" xmlns:xlink="http://www.w3.org/1999/xlink" viewBox="0 0 50 50"><defs><style>.cls-1,.cls-2{fill:none;}.cls-1,.cls-3{clip-rule:evenodd;}.cls-17,.cls-3,.cls-7{fill:#9ecfef;}.cls-4{clip-path:url(#clip-path);}.cls-5{clip-path:url(#clip-path-2);}.cls-6{clip-path:url(#clip-path-3);}.cls-8{clip-path:url(#clip-path-4);}.cls-9{clip-path:url(#clip-path-6);}.cls-10{clip-path:url(#clip-path-7);}.cls-11{fill:#414042;}.cls-12{clip-path:url(#clip-path-9);}.cls-13{clip-path:url(#clip-path-10);}.cls-14{clip-path:url(#clip-path-11);}.cls-15{clip-path:url(#clip-path-12);}.cls-16{fill:#f77c4b;}.cls-17{fill-rule:evenodd;}.cls-18{clip-path:url(#clip-path-13);}.cls-19{fill:#fff;}.cls-20{clip-path:url(#clip-path-15);}.cls-21{clip-path:url(#clip-path-16);}.cls-22{clip-path:url(#clip-path-17);}.cls-23{clip-path:url(#clip-path-19);}.cls-24{clip-path:url(#clip-path-21);}.cls-25{clip-path:url(#clip-path-23);}.cls-26{clip-path:url(#clip-path-25);}.cls-27{clip-path:url(#clip-path-27);}.cls-28{clip-path:url(#clip-path-29);}.cls-29{clip-path:url(#clip-path-31);}.cls-30{clip-path:url(#clip-path-33);}.cls-31{clip-path:url(#clip-path-35);}</style><clipPath id="clip-path"><path class="cls-1" d="M15,18.21v.31a4.23,4.23,0,0,0,1.21-.31Z"/></clipPath><clipPath id="clip-path-2"><path class="cls-1" d="M14.35,17.23h3L17.7,17V15.67a1.35,1.35,0,0,0-1.35-1.35h-2a2,2,0,0,0,.87-.21,1.89,1.89,0,0,0,1-1.65,1.87,1.87,0,1,0-2.71,1.66,1.83,1.83,0,0,0,.84.2h-2A1.34,1.34,0,0,0,11,15.67V17a5.07,5.07,0,0,0,3,1.21v-.6a.38.38,0,0,1,.39-.38"/></clipPath><clipPath id="clip-path-3"><rect class="cls-2" x="-297.27" y="-106.98" width="416.1" height="501.39"/></clipPath><clipPath id="clip-path-4"><rect class="cls-2" x="11" y="14.26" width="26.91" height="27.87"/></clipPath><clipPath id="clip-path-6"><rect class="cls-2" x="11" y="14.25" width="27.11" height="28.02"/></clipPath><clipPath id="clip-path-7"><path class="cls-1" d="M11.79,25.52l12.42,9.57,0,0h.08l0,0h.18l0,0h.09l0,0,12.43-9.57V37.6H30.87a.4.4,0,0,0-.4.4.39.39,0,0,0,.4.39h6.25v.81H30.87a.4.4,0,1,0,0,.79h6.25v1.35H11.79V40h3.53a.4.4,0,1,0,0-.79H11.79V25.81H11V41.74a.38.38,0,0,0,.39.39H37.51a.39.39,0,0,0,.4-.39v-17h0v0h0v0h0v0h0v0h0v0h-.09l-2.22-1.71a5.05,5.05,0,0,1-1.16.15l-.42,0V27l-9.5,7.32L15,27V18.35H27.73l-.19-.28a11.83,11.83,0,0,1,.72-1l-3.57-2.75h0l0,0h-.43l0,0h0L20,17.56H14.56a.38.38,0,0,0-.39.39v4.13l-3,2.32h-.1v0h0v0h0v0h0v0h0v1.49h.79Zm23-2.44,2.12,1.64-2.12,1.63ZM24.45,15.16l3.12,2.4H21.34ZM14.17,23.08v3.27L12,24.72Z"/></clipPath><clipPath id="clip-path-9"><rect class="cls-2" x="11" y="28.87" width="0.91" height="1.22"/></clipPath><clipPath id="clip-path-10"><rect class="cls-2" x="11" y="31.01" width="0.91" height="1.22"/></clipPath><clipPath id="clip-path-11"><path class="cls-1" d="M20.13,26.13a4.27,4.27,0,1,0,4.27-4.26A4.27,4.27,0,0,0,20.13,26.13Z"/></clipPath><clipPath id="clip-path-12"><rect class="cls-2" x="2.16" y="6.64" width="44.78" height="35.34"/></clipPath><clipPath id="clip-path-13"><path class="cls-3" d="M26.18,24.72l-2.65,2.63L22,25.83a.39.39,0,0,0-.55,0,.38.38,0,0,0,0,.54l1.8,1.78h0a.39.39,0,0,0,.16.1l.11,0h0a.34.34,0,0,0,.24-.11l2.91-2.89a.38.38,0,0,0-.54-.54"/></clipPath><clipPath id="clip-path-15"><path class="cls-1" d="M9.24,39.75v-.58h.58a.4.4,0,1,0,0-.79H9.24V37.8a.4.4,0,0,0-.79,0v.58H7.87a.4.4,0,1,0,0,.79h.58v.58a.4.4,0,1,0,.79,0"/></clipPath><clipPath id="clip-path-16"><rect class="cls-2" x="7.47" y="6.94" width="44.78" height="35.34"/></clipPath><clipPath id="clip-path-17"><path class="cls-1" d="M2.86,19.13H4.21a.47.47,0,0,0,0-.92H2.86a.47.47,0,0,0,0,.92"/></clipPath><clipPath id="clip-path-19"><path class="cls-1" d="M6.32,17.91a.44.44,0,0,0,.41-.46A.43.43,0,0,0,6.32,17H4.7a.43.43,0,0,0-.41.45.44.44,0,0,0,.41.46Z"/></clipPath><clipPath id="clip-path-21"><path class="cls-1" d="M27.64,18.34c.69,1,3.2,4.14,6.24,4.42a3,3,0,0,0,.42,0,5.06,5.06,0,0,0,1.17-.14c3.22-.8,5.68-4.58,5.68-4.58s-3.07-4.72-6.85-4.72c-2.68,0-5,2.37-6.13,3.75-.46.57-.73,1-.73,1l.2.28m6.66-2.93a2.65,2.65,0,1,1-2.68,2.65,2.67,2.67,0,0,1,2.68-2.65"/></clipPath><clipPath id="clip-path-23"><path class="cls-1" d="M34.3,18.21a.15.15,0,0,0,.15-.15.15.15,0,0,0-.15-.15.15.15,0,0,0-.15.15.14.14,0,0,0,.15.15"/></clipPath><clipPath id="clip-path-25"><path class="cls-1" d="M34.45,21a2.75,2.75,0,1,0-2.74-2.75A2.75,2.75,0,0,0,34.45,21m0-3.76a1,1,0,1,1-1,1,1,1,0,0,1,1-1"/></clipPath><clipPath id="clip-path-27"><path class="cls-1" d="M34.3,19.13a1.07,1.07,0,1,0-1.07-1.07,1.06,1.06,0,0,0,1.07,1.07m0-1.28a.21.21,0,0,1,.21.21.21.21,0,1,1-.42,0,.21.21,0,0,1,.21-.21"/></clipPath><clipPath id="clip-path-29"><path class="cls-1" d="M25.7,8.55h.75V9.3a.39.39,0,0,0,.77,0V8.55H28a.39.39,0,0,0,.39-.39A.38.38,0,0,0,28,7.78h-.75V7a.39.39,0,0,0-.77,0v.76H25.7a.38.38,0,0,0-.39.38.39.39,0,0,0,.39.39"/></clipPath><clipPath id="clip-path-31"><path class="cls-1" d="M44.89,21.64h.45v.45a.38.38,0,1,0,.76,0v-.45h.46a.38.38,0,0,0,0-.76H46.1v-.46a.38.38,0,0,0-.76,0v.46h-.45a.38.38,0,1,0,0,.76"/></clipPath><clipPath id="clip-path-33"><path class="cls-1" d="M46.94,37.86a.44.44,0,0,0-.41-.46H43.69a.46.46,0,0,0,0,.92h2.84a.44.44,0,0,0,.41-.46"/></clipPath><clipPath id="clip-path-35"><path class="cls-1" d="M34.53,10.6H36.2a.47.47,0,0,0,0-.92H34.53a.47.47,0,0,0,0,.92"/></clipPath></defs><title>1</title><g class="cls-5"><g class="cls-6"><rect class="cls-7" x="9.47" y="9.08" width="9.75" height="10.66"/></g></g><g class="cls-8"><g class="cls-6"><g class="cls-9"><g class="cls-10"><g class="cls-9"><rect class="cls-11" x="9.47" y="12.74" width="29.96" height="30.92"/></g></g></g></g><rect class="cls-11" x="11" y="25.51" width="0.79" height="1.83"/></g><g class="cls-14"><g class="cls-15"><rect class="cls-16" x="18.61" y="20.35" width="11.58" height="11.58"/></g></g><path class="cls-17" d="M26.18,24.72l-2.65,2.63L22,25.83a.39.39,0,0,0-.55,0,.38.38,0,0,0,0,.54l1.8,1.78h0a.39.39,0,0,0,.16.1l.11,0h0a.34.34,0,0,0,.24-.11l2.91-2.89a.38.38,0,0,0-.54-.54"/><g class="cls-18"><g class="cls-15"><rect class="cls-19" x="19.83" y="23.09" width="8.53" height="6.7"/></g></g><g class="cls-20"><g class="cls-21"><rect class="cls-11" x="5.95" y="35.88" width="5.79" height="5.79"/></g></g><g class="cls-22"><g class="cls-15"><rect class="cls-11" x="0.94" y="16.69" width="5.18" height="3.96"/></g></g><g class="cls-23"><g class="cls-15"><rect class="cls-11" x="2.77" y="15.47" width="5.48" height="3.96"/></g></g><g class="cls-24"><g class="cls-15"><rect class="cls-16" x="25.92" y="11.82" width="16.75" height="12.49"/></g></g><g class="cls-25"><g class="cls-15"><rect class="cls-19" x="32.62" y="16.39" width="3.35" height="3.35"/></g></g><g class="cls-26"><g class="cls-15"><rect class="cls-19" x="30.19" y="13.95" width="8.53" height="8.53"/></g></g><g class="cls-27"><g class="cls-15"><rect class="cls-11" x="31.71" y="15.47" width="5.18" height="5.18"/></g></g><g class="cls-28"><g class="cls-15"><rect class="cls-11" x="23.79" y="5.12" width="6.09" height="6.09"/></g></g><g class="cls-29"><g class="cls-15"><rect class="cls-11" x="42.98" y="18.52" width="5.48" height="5.48"/></g></g><g class="cls-30"><g class="cls-15"><rect class="cls-11" x="41.76" y="35.88" width="6.7" height="3.96"/></g></g><g class="cls-31"><g class="cls-15"><rect class="cls-11" x="32.62" y="8.16" width="5.48" height="3.96"/></g></g></svg>