<svg xmlns="http://www.w3.org/2000/svg" xmlns:xlink="http://www.w3.org/1999/xlink" width="50" height="50" viewBox="0 0 50 50"><style type="text/css">.st0{fill:#FFFFFF;} .st1{fill:#414042;} .st2{fill:#9ECFEF;} .st3{fill:#FFCE44;} .st4{fill:#FFE167;} .st5{fill:#F5CC73;} .st6{clip-path:url(#SVGID_2_);} .st7{clip-path:url(#SVGID_4_);} .st8{clip-path:url(#SVGID_6_);} .st9{clip-path:url(#SVGID_8_);} .st10{clip-path:url(#SVGID_10_);} .st11{clip-path:url(#SVGID_12_);} .st12{clip-path:url(#SVGID_14_);} .st13{clip-path:url(#SVGID_16_);} .st14{clip-path:url(#SVGID_18_);} .st15{clip-path:url(#SVGID_20_);} .st16{clip-path:url(#SVGID_22_);} .st17{clip-path:url(#SVGID_24_);} .st18{clip-path:url(#SVGID_26_);} .st19{clip-path:url(#SVGID_28_);} .st20{clip-path:url(#SVGID_30_);} .st21{clip-path:url(#SVGID_34_);} .st22{clip-path:url(#SVGID_36_);fill:#9ECFEF;} .st23{clip-path:url(#SVGID_38_);} .st24{clip-path:url(#SVGID_40_);} .st25{clip-path:url(#SVGID_42_);} .st26{clip-path:url(#SVGID_44_);} .st27{clip-path:url(#SVGID_46_);fill:#414042;} .st28{clip-path:url(#SVGID_38_);fill-rule:evenodd;clip-rule:evenodd;fill:#414042;} .st29{clip-path:url(#SVGID_48_);} .st30{clip-path:url(#SVGID_52_);} .st31{clip-path:url(#SVGID_56_);} .st32{clip-path:url(#SVGID_58_);fill:#F77C4B;} .st33{clip-path:url(#SVGID_60_);} .st34{clip-path:url(#SVGID_62_);fill:#FFFFFF;} .st35{clip-path:url(#SVGID_64_);} .st36{clip-path:url(#SVGID_66_);fill:#414042;} .st37{clip-path:url(#SVGID_68_);} .st38{clip-path:url(#SVGID_70_);fill:#414042;} .st39{clip-path:url(#SVGID_72_);} .st40{clip-path:url(#SVGID_74_);fill:#414042;} .st41{clip-path:url(#SVGID_76_);} .st42{clip-path:url(#SVGID_78_);fill:#F77C4B;} .st43{clip-path:url(#SVGID_80_);} .st44{clip-path:url(#SVGID_82_);fill:#FFFFFF;} .st45{clip-path:url(#SVGID_84_);} .st46{clip-path:url(#SVGID_86_);fill:#FFFFFF;} .st47{clip-path:url(#SVGID_88_);} .st48{clip-path:url(#SVGID_90_);fill:#414042;} .st49{clip-path:url(#SVGID_92_);} .st50{clip-path:url(#SVGID_94_);fill:#414042;} .st51{clip-path:url(#SVGID_96_);} .st52{clip-path:url(#SVGID_98_);fill:#414042;} .st53{clip-path:url(#SVGID_100_);} .st54{clip-path:url(#SVGID_102_);fill:#414042;} .st55{clip-path:url(#SVGID_104_);} .st56{clip-path:url(#SVGID_106_);fill:#414042;} .st57{fill:#41464B;} .st58{fill:#4CBED8;} .st59{fill:#FF7443;} .st60{fill:none;stroke:#359CDB;stroke-width:0.393;stroke-linecap:round;stroke-linejoin:round;stroke-miterlimit:10;} .st61{fill:#AFAFAF;} .st62{fill:#FED65C;} .st63{clip-path:url(#SVGID_108_);} .st64{clip-path:url(#SVGID_110_);} .st65{clip-path:url(#SVGID_112_);} .st66{clip-path:url(#SVGID_114_);} .st67{clip-path:url(#SVGID_116_);} .st68{clip-path:url(#SVGID_118_);} .st69{clip-path:url(#SVGID_120_);} .st70{clip-path:url(#SVGID_122_);} .st71{clip-path:url(#SVGID_124_);} .st72{clip-path:url(#SVGID_126_);} .st73{clip-path:url(#SVGID_128_);} .st74{clip-path:url(#SVGID_130_);} .st75{clip-path:url(#SVGID_132_);} .st76{clip-path:url(#SVGID_134_);}</style><path class="st0" d="M31.891 39.522v-.614c0-.298-.242-.54-.54-.54h-12.6c-.298 0-.54.242-.54.54v.614h13.68z"/><path class="st1" d="M31.892 39.685h-13.68c-.09 0-.164-.073-.164-.164v-.614c0-.388.315-.703.703-.703h12.6c.388 0 .704.315.704.703v.614c0 .091-.073.164-.163.164zm-13.517-.327h13.353v-.45c0-.207-.169-.376-.376-.376h-12.6c-.207 0-.376.169-.376.376v.45zM31.892 39.785h-13.68c-.146 0-.264-.118-.264-.264v-.614c0-.443.36-.803.803-.803h12.6c.443 0 .804.36.804.803v.614c0 .146-.118.264-.263.264zm-13.141-1.48c-.333 0-.603.271-.603.603v.614l.063.063h13.68l.063-.063v-.614c0-.333-.271-.603-.604-.603h-12.599zm13.077 1.153h-13.553v-.55c0-.262.213-.476.476-.476h12.6c.263 0 .477.214.477.476v.55zm-13.352-.2h13.152v-.35c0-.152-.124-.276-.276-.276h-12.6c-.152 0-.276.124-.276.276v.35z"/><path class="st0" d="M21.722 35.576h6.659v2.792h-6.659z"/><path class="st1" d="M28.381 38.532h-6.659c-.09 0-.164-.073-.164-.164v-2.792c0-.09.073-.164.164-.164h6.659c.09 0 .164.073.164.164v2.792c-.001.09-.074.164-.164.164zm-6.495-.327h6.332v-2.465h-6.332v2.465zM28.381 38.632h-6.659c-.146 0-.264-.118-.264-.264v-2.792c0-.146.118-.264.264-.264h6.659c.146 0 .264.118.264.264v2.792c0 .146-.119.264-.264.264zm-6.659-3.119l-.063.063v2.792l.063.063h6.659l.063-.063v-2.792l-.063-.063h-6.659zm6.595 2.792h-6.532v-2.665h6.532v2.665zm-6.331-.201h6.131v-2.264h-6.131v2.264z"/><path class="st0" d="M9.921 32.258v2.536c0 .432.35.782.782.782h28.697c.432 0 .782-.35.782-.782v-2.536h-30.261zM40.182 17.171v-.75c0-.432-.35-.782-.782-.782h-28.697c-.432 0-.782.35-.782.782v.75h30.261z"/><path class="st2" d="M9.921 17.171h30.261v15.086h-30.261z"/><path class="st1" d="M39.4 35.74h-28.697c-.521 0-.946-.424-.946-.946v-2.537c0-.09.073-.164.164-.164h30.261c.09 0 .164.073.164.164v2.537c0 .521-.425.946-.946.946zm-29.316-3.319v2.373c0 .341.277.619.619.619h28.697c.341 0 .619-.277.619-.619v-2.373h-29.935zM39.4 35.84h-28.697c-.577 0-1.046-.469-1.046-1.046v-2.537c0-.146.118-.264.264-.264h30.261c.146 0 .264.118.264.264v2.537c0 .577-.469 1.046-1.046 1.046zm-29.479-3.646l-.063.063v2.537c0 .466.379.846.846.846h28.696c.466 0 .846-.379.846-.846v-2.537l-.063-.063h-30.262zm29.479 3.319h-28.697c-.396 0-.719-.322-.719-.719v-2.473h30.134v2.473c.001.396-.322.719-.718.719zm-29.215-2.992v2.273c0 .286.232.519.519.519h28.696c.286 0 .519-.232.519-.519v-2.273h-29.734zM40.182 32.421h-30.261c-.09 0-.164-.073-.164-.164v-15.086c0-.09.073-.164.164-.164h30.261c.09 0 .164.073.164.164v15.086c0 .091-.074.164-.164.164zm-30.098-.327h29.934v-14.759h-29.934v14.759zM40.182 32.521h-30.261c-.146 0-.264-.118-.264-.264v-15.086c0-.146.118-.264.264-.264h30.261c.146 0 .264.118.264.264v15.086c0 .146-.118.264-.264.264zm-30.261-15.413l-.063.063v15.086l.063.063h30.261l.063-.063v-15.086l-.063-.063h-30.261zm30.198 15.086h-30.135v-14.959h30.134v14.959zm-29.934-.2h29.734v-14.559h-29.734v14.559zM40.182 17.335h-30.261c-.09 0-.164-.073-.164-.164v-.75c0-.521.424-.946.946-.946h28.697c.521 0 .946.424.946.946v.75c0 .091-.074.164-.164.164zm-30.098-.327h29.934v-.586c0-.341-.277-.619-.619-.619h-28.696c-.341 0-.619.277-.619.619v.586zM40.182 17.435h-30.261c-.146 0-.264-.118-.264-.264v-.75c0-.577.469-1.046 1.046-1.046h28.697c.577 0 1.046.469 1.046 1.046v.75c0 .146-.118.264-.264.264zm-29.479-1.859c-.466 0-.846.379-.846.846v.75l.063.063h30.261l.063-.063v-.75c0-.466-.379-.846-.846-.846h-28.695zm29.416 1.532h-30.135v-.687c0-.396.322-.719.719-.719h28.697c.396 0 .719.322.719.719v.687zm-29.934-.2h29.734v-.486c0-.286-.232-.519-.519-.519h-28.697c-.286 0-.519.232-.519.519v.486z"/><path class="st0" d="M33.792 30.039h-17.481c-.09 0-.164-.073-.164-.164v-2.748c0-.09.073-.164.164-.164h17.481c.09 0 .164.073.164.164v2.748c0 .091-.073.164-.164.164zm-17.317-.327h17.154v-2.421h-17.154v2.421zM17.849 28.947c-.056 0-.111-.029-.142-.082-.045-.079-.019-.179.06-.224l.977-.564c.078-.047.178-.019.224.06.045.079.019.179-.06.224l-.977.564-.082.022zM18.337 29.229c-.09 0-.164-.073-.164-.164v-1.127c0-.09.073-.164.164-.164s.164.073.164.164v1.127c-.001.091-.074.164-.164.164zM18.825 28.947l-.082-.022-.977-.564c-.078-.045-.105-.145-.06-.224.045-.079.146-.106.224-.06l.977.564c.078.045.105.145.06.224-.03.053-.086.082-.142.082zM20.535 28.947c-.056 0-.111-.029-.142-.082-.045-.079-.019-.179.06-.224l.976-.564c.078-.047.178-.019.224.06.045.079.019.179-.06.224l-.976.564-.082.022zM21.023 29.229c-.09 0-.164-.073-.164-.164v-1.127c0-.09.073-.164.164-.164s.164.073.164.164v1.127c0 .091-.074.164-.164.164zM21.511 28.947l-.082-.022-.976-.564c-.078-.045-.105-.145-.06-.224s.145-.106.224-.06l.976.564c.078.045.105.146.06.224-.031.053-.086.082-.142.082zM23.22 28.947c-.056 0-.111-.029-.142-.082-.045-.079-.019-.179.06-.224l.977-.564c.078-.047.178-.019.224.06s.019.179-.06.224l-.977.564-.082.022zM23.708 29.229c-.09 0-.164-.073-.164-.164v-1.127c0-.09.073-.164.164-.164s.164.073.164.164v1.127c0 .091-.073.164-.164.164zM24.197 28.947l-.082-.022-.977-.564c-.078-.045-.105-.145-.06-.224s.145-.106.224-.06l.977.564c.078.045.105.145.06.224-.031.053-.086.082-.142.082zM25.906 28.947c-.056 0-.111-.029-.142-.082-.045-.079-.019-.179.06-.224l.977-.564c.078-.047.179-.019.224.06.045.079.019.179-.06.224l-.977.564-.082.022zM26.395 29.229c-.09 0-.164-.073-.164-.164v-1.127c0-.09.073-.164.164-.164s.164.073.164.164v1.127c-.001.091-.074.164-.164.164zM26.883 28.947l-.082-.022-.977-.564c-.078-.045-.105-.145-.06-.224.045-.079.146-.106.224-.06l.977.564c.078.045.105.145.06.224-.031.053-.086.082-.142.082zM28.592 28.947c-.056 0-.111-.029-.142-.082-.045-.079-.019-.179.06-.224l.977-.564c.079-.047.178-.019.224.06s.019.179-.06.224l-.977.564-.082.022zM29.081 29.229c-.09 0-.164-.073-.164-.164v-1.127c0-.09.073-.164.164-.164s.164.073.164.164v1.127c-.001.091-.074.164-.164.164zM29.569 28.947l-.082-.022-.977-.564c-.078-.045-.105-.145-.06-.224.045-.079.145-.106.224-.06l.977.564c.078.045.105.145.06.224-.031.053-.086.082-.142.082zM31.278 28.947c-.056 0-.111-.029-.142-.082-.045-.079-.019-.179.06-.224l.976-.564c.078-.047.178-.019.224.06s.019.179-.06.224l-.976.564-.082.022zM31.767 29.229c-.09 0-.164-.073-.164-.164v-1.127c0-.09.073-.164.164-.164s.164.073.164.164v1.127c-.001.091-.074.164-.164.164zM32.254 28.947l-.082-.022-.976-.564c-.078-.045-.105-.145-.06-.224.045-.079.146-.106.224-.06l.976.564c.078.045.105.146.06.224-.03.053-.085.082-.142.082zM25.052 10.252c-3.489 2.154-7.284 2.535-7.284 2.535v9.9c0 3.68 7.284 6.284 7.284 6.284s7.284-2.603 7.284-6.284v-9.9s-3.796-.382-7.284-2.535z"/><path class="st2" d="M25.052 27.65c-2.216-.878-6.05-2.979-6.05-4.964v-8.843c1.34-.255 3.7-.851 6.049-2.16 2.349 1.309 4.71 1.905 6.049 2.16v8.843c.001 1.992-3.832 4.09-6.048 4.964z"/><path class="st1" d="M25.052 29.133l-.055-.009c-.302-.108-7.392-2.686-7.392-6.438v-9.9c0-.084.063-.154.147-.163.038-.004 3.8-.403 7.214-2.511.053-.033.119-.033.172 0 3.417 2.109 7.177 2.507 7.214 2.511.084.008.147.079.147.163v9.9c0 3.752-7.09 6.33-7.392 6.438l-.055.009zm-7.12-16.202v9.755c0 3.359 6.452 5.86 7.12 6.109.668-.25 7.12-2.752 7.12-6.109v-9.755c-.731-.097-4.049-.62-7.12-2.488-3.071 1.868-6.389 2.391-7.12 2.488zM25.052 29.233l-.088-.015c-.305-.109-7.459-2.711-7.459-6.532v-9.9c0-.136.102-.249.237-.262.037-.004 3.799-.415 7.171-2.497.084-.054.191-.054.278 0 3.362 2.076 7.017 2.48 7.171 2.496.135.014.237.126.237.262v9.9c0 3.821-7.154 6.423-7.458 6.532l-.089.016zm0-19.045l-.033.009c-3.412 2.106-7.219 2.522-7.257 2.526l-.057.063v9.9c0 3.682 7.026 6.237 7.326 6.344l.021.003.022-.003c.299-.107 7.325-2.662 7.325-6.344v-9.9l-.057-.063c-.156-.017-3.855-.426-7.257-2.526l-.033-.009zm0 18.714l-.035-.013c-.735-.275-7.185-2.783-7.185-6.203v-9.843l.087-.011c.643-.085 4.007-.604 7.082-2.474l.052-.032.052.032c3.075 1.87 6.438 2.389 7.082 2.474l.087.011v9.843c0 3.415-6.45 5.928-7.185 6.203l-.037.013zm-7.02-15.883v9.667c0 3.238 6.15 5.674 7.02 6.002.87-.329 7.02-2.77 7.02-6.002v-9.667c-.819-.116-4.045-.665-7.02-2.458-2.975 1.793-6.201 2.342-7.02 2.458z"/><circle class="st3" cx="25.052" cy="18.986" r="4.099"/><circle class="st4" cx="25.052" cy="18.986" r="3.102"/><path class="st5" d="M25.052 22.088c-1.711 0-3.102-1.392-3.102-3.102 0-1.711 1.392-3.102 3.102-3.102 1.711 0 3.102 1.392 3.102 3.102s-1.392 3.102-3.102 3.102z"/><path class="st1" d="M25.052 23.249c-2.351 0-4.263-1.913-4.263-4.263s1.913-4.263 4.263-4.263 4.263 1.912 4.263 4.263-1.913 4.263-4.263 4.263zm0-8.199c-2.17 0-3.936 1.766-3.936 3.936s1.766 3.936 3.936 3.936 3.936-1.766 3.936-3.936c-.001-2.17-1.766-3.936-3.936-3.936zM25.052 23.349c-2.406 0-4.363-1.958-4.363-4.363s1.958-4.363 4.363-4.363 4.363 1.957 4.363 4.363-1.957 4.363-4.363 4.363zm0-8.526c-2.295 0-4.163 1.867-4.163 4.163s1.868 4.163 4.163 4.163 4.163-1.868 4.163-4.163-1.868-4.163-4.163-4.163zm0 8.199c-2.226 0-4.036-1.811-4.036-4.036 0-2.225 1.811-4.036 4.036-4.036 2.225 0 4.036 1.811 4.036 4.036-.001 2.225-1.811 4.036-4.036 4.036zm0-7.872c-2.115 0-3.836 1.721-3.836 3.835 0 2.115 1.721 3.836 3.836 3.836 2.115 0 3.835-1.721 3.835-3.836 0-2.114-1.72-3.835-3.835-3.835zM25.052 22.251c-1.801 0-3.266-1.465-3.266-3.266s1.465-3.266 3.266-3.266 3.266 1.465 3.266 3.266-1.465 3.266-3.266 3.266zm0-6.204c-1.621 0-2.939 1.318-2.939 2.938s1.318 2.938 2.939 2.938c1.62 0 2.938-1.318 2.938-2.938s-1.318-2.938-2.938-2.938zM25.052 22.352c-1.856 0-3.366-1.51-3.366-3.366s1.51-3.366 3.366-3.366 3.366 1.51 3.366 3.366-1.51 3.366-3.366 3.366zm0-6.532c-1.746 0-3.166 1.42-3.166 3.166s1.42 3.166 3.166 3.166 3.166-1.42 3.166-3.166-1.421-3.166-3.166-3.166zm0 6.204c-1.676 0-3.039-1.363-3.039-3.039s1.363-3.039 3.039-3.039c1.675 0 3.039 1.363 3.039 3.039s-1.364 3.039-3.039 3.039zm0-5.877c-1.565 0-2.839 1.273-2.839 2.838s1.273 2.838 2.839 2.838c1.565 0 2.838-1.273 2.838-2.838s-1.273-2.838-2.838-2.838zM25.068 20.435c-.438-.004-.807-.223-1.039-.406-.071-.056-.083-.159-.027-.229.057-.071.16-.083.229-.027.192.151.494.333.838.336.208 0 .403-.059.548-.166.116-.083.187-.207.191-.331.003-.11-.045-.209-.139-.287-.163-.133-.382-.177-.614-.224l-.21-.045c-.504-.123-.789-.398-.783-.757.007-.409.403-.703.781-.75.417-.054.832.076 1.114.344.065.062.068.166.006.231s-.167.067-.231.006c-.208-.198-.529-.295-.847-.256-.205.026-.49.19-.495.432-.004.28.407.402.533.433l.198.043c.249.05.531.107.756.292.174.142.266.337.259.55-.007.225-.128.443-.325.585-.2.145-.464.226-.743.226zM25.068 20.535c-.468-.005-.856-.235-1.101-.428-.055-.043-.09-.106-.099-.176-.008-.07.011-.139.055-.194.044-.056.107-.091.178-.099.069-.005.138.012.192.056.18.141.46.311.776.314.186 0 .36-.052.488-.146.092-.066.147-.16.15-.253.002-.079-.032-.148-.103-.207-.144-.117-.351-.159-.57-.203l-.031-.006-.183-.04c-.553-.135-.866-.447-.86-.855.008-.463.448-.795.868-.848.445-.06.891.081 1.195.371.105.1.109.267.01.373-.1.106-.266.11-.373.01-.185-.177-.48-.261-.766-.23-.167.021-.404.159-.407.334-.002.163.245.282.457.333l.173.038c.281.057.576.116.821.317.198.162.304.385.296.63-.008.255-.145.503-.367.663-.215.158-.499.246-.799.246zm-.937-.698h-.007l-.044.024-.013.046.024.042c.22.173.567.38.977.385.257 0 .5-.074.684-.209.172-.124.278-.313.284-.507.006-.181-.073-.348-.222-.469-.207-.169-.476-.224-.713-.271l-.202-.044c-.144-.035-.614-.178-.609-.531.006-.312.351-.5.582-.529.353-.042.698.063.929.283l.09-.002-.002-.09c-.261-.248-.644-.366-1.032-.317-.336.042-.687.298-.693.653-.005.307.252.547.707.658l.176.039.03.006c.244.049.476.096.658.245.118.097.18.228.176.367-.005.155-.092.308-.233.409-.161.119-.377.185-.606.185-.373-.004-.695-.196-.9-.357l-.041-.016zM25.052 17.864c-.09 0-.164-.073-.164-.164v-.373c0-.09.073-.164.164-.164s.164.073.164.164v.373c-.001.091-.074.164-.164.164zM25.052 17.964c-.146 0-.264-.118-.264-.264v-.373c0-.146.118-.264.264-.264s.264.118.264.264v.373c-.001.146-.119.264-.264.264zm0-.7l-.063.063v.373c0 .07.127.07.127 0v-.373l-.064-.063zM25.052 20.808c-.09 0-.164-.073-.164-.164v-.373c0-.09.073-.164.164-.164s.164.073.164.164v.373c-.001.09-.074.164-.164.164zM25.052 20.908c-.146 0-.264-.118-.264-.264v-.373c0-.146.118-.264.264-.264s.264.118.264.264v.373c-.001.146-.119.264-.264.264zm0-.7l-.063.063v.373c0 .07.127.07.127 0v-.373l-.064-.063z"/><path class="st3" d="M46.393 36.539v1.491h-9.894v-1.491z"/><path class="st1" d="M38.399 38.194c-.09 0-.164-.073-.164-.164v-1.491c0-.09.073-.164.164-.164s.164.073.164.164v1.491c0 .091-.073.164-.164.164zM38.399 38.294c-.146 0-.264-.118-.264-.264v-1.491c0-.146.118-.264.264-.264s.264.118.264.264v1.491c0 .146-.118.264-.264.264zm0-1.818l-.063.063v1.491c0 .07.127.07.127 0v-1.491l-.064-.063zM44.626 38.194c-.09 0-.164-.073-.164-.164v-1.491c0-.09.073-.164.164-.164s.164.073.164.164v1.491c0 .091-.073.164-.164.164zM44.626 38.294c-.146 0-.264-.118-.264-.264v-1.491c0-.146.118-.264.264-.264s.264.118.264.264v1.491c0 .146-.118.264-.264.264zm0-1.818l-.063.063v1.491c0 .07.127.07.127 0v-1.491l-.064-.063zM43.516 38.194c-.09 0-.164-.073-.164-.164v-1.491c0-.09.073-.164.164-.164s.164.073.164.164v1.491c0 .091-.074.164-.164.164zM43.516 38.294c-.146 0-.264-.118-.264-.264v-1.491c0-.146.118-.264.264-.264s.264.118.264.264v1.491c0 .146-.118.264-.264.264zm0-1.818l-.063.063v1.491c0 .07.127.07.127 0v-1.491l-.064-.063zM46.394 38.194h-9.894c-.09 0-.164-.073-.164-.164v-1.491c0-.09.073-.164.164-.164h9.894c.09 0 .164.073.164.164v1.491c-.001.091-.074.164-.164.164zm-9.731-.327h9.567v-1.164h-9.567v1.164zM46.394 38.294h-9.894c-.146 0-.264-.118-.264-.264v-1.491c0-.146.118-.264.264-.264h9.894c.146 0 .264.118.264.264v1.491c-.001.146-.119.264-.264.264zm-9.894-1.818l-.063.063v1.491l.063.063h9.894l.063-.063v-1.491l-.063-.063h-9.894zm9.83 1.491h-9.767v-1.364h9.767v1.364zm-9.567-.2h9.367v-.964h-9.367v.964z"/><path class="st3" d="M44.604 35.048v1.491h-9.894v-1.491z"/><path class="st1" d="M36.609 36.703c-.09 0-.164-.073-.164-.164v-1.491c0-.09.073-.164.164-.164s.164.073.164.164v1.491c-.001.09-.074.164-.164.164zM36.609 36.803c-.146 0-.264-.118-.264-.264v-1.491c0-.146.118-.264.264-.264s.264.118.264.264v1.491c0 .146-.119.264-.264.264zm0-1.818l-.063.063v1.491c0 .07.127.07.127 0v-1.491l-.064-.063zM42.836 36.703c-.09 0-.164-.073-.164-.164v-1.491c0-.09.073-.164.164-.164s.164.074.164.164v1.491c0 .09-.074.164-.164.164zM42.836 36.803c-.146 0-.264-.118-.264-.264v-1.491c0-.146.118-.264.264-.264s.264.118.264.264v1.491c0 .146-.119.264-.264.264zm0-1.818l-.063.063v1.491c0 .07.127.07.127 0v-1.491l-.064-.063zM41.726 36.703c-.09 0-.164-.073-.164-.164v-1.491c0-.09.073-.164.164-.164s.164.073.164.164v1.491c-.001.09-.074.164-.164.164zM41.726 36.803c-.146 0-.264-.118-.264-.264v-1.491c0-.146.118-.264.264-.264s.264.118.264.264v1.491c-.001.146-.119.264-.264.264zm0-1.818l-.063.063v1.491c0 .07.127.07.127 0v-1.491l-.064-.063zM44.603 36.703h-9.894c-.09 0-.164-.073-.164-.164v-1.491c0-.09.073-.164.164-.164h9.894c.09 0 .164.073.164.164v1.491c0 .09-.074.164-.164.164zm-9.73-.328h9.567v-1.164h-9.567v1.164zM44.603 36.803h-9.894c-.146 0-.264-.118-.264-.264v-1.491c0-.146.118-.264.264-.264h9.894c.146 0 .264.118.264.264v1.491c0 .146-.118.264-.264.264zm-9.894-1.818l-.063.063v1.491l.063.063h9.894l.063-.063v-1.491l-.063-.063h-9.894zm9.831 1.491h-9.767v-1.364h9.767v1.364zm-9.567-.201h9.367v-.963h-9.367v.963z"/><path class="st3" d="M45.414 38.03v1.491h-9.894v-1.491z"/><path class="st1" d="M37.42 39.685c-.09 0-.164-.073-.164-.164v-1.491c0-.09.073-.164.164-.164s.164.073.164.164v1.491c-.001.091-.074.164-.164.164zM37.42 39.785c-.146 0-.264-.118-.264-.264v-1.491c0-.146.118-.264.264-.264s.264.118.264.264v1.491c0 .146-.119.264-.264.264zm0-1.818l-.063.063v1.491c0 .07.127.07.127 0v-1.491l-.064-.063zM43.647 39.685c-.09 0-.164-.073-.164-.164v-1.491c0-.09.073-.164.164-.164s.164.073.164.164v1.491c0 .091-.074.164-.164.164zM43.647 39.785c-.146 0-.264-.118-.264-.264v-1.491c0-.146.118-.264.264-.264s.264.118.264.264v1.491c0 .146-.119.264-.264.264zm0-1.818l-.063.063v1.491c0 .07.127.07.127 0v-1.491l-.064-.063zM42.536 39.685c-.09 0-.164-.073-.164-.164v-1.491c0-.09.073-.164.164-.164s.164.074.164.164v1.491c0 .091-.074.164-.164.164zM42.536 39.785c-.146 0-.264-.118-.264-.264v-1.491c0-.146.118-.264.264-.264s.264.119.264.264v1.491c0 .146-.118.264-.264.264zm0-1.818l-.063.063v1.491c0 .07.127.07.127 0v-1.491l-.064-.063zM45.414 39.685h-9.894c-.09 0-.164-.073-.164-.164v-1.491c0-.09.073-.164.164-.164h9.895c.09 0 .164.073.164.164v1.491c-.001.091-.075.164-.165.164zm-9.731-.327h9.567v-1.164h-9.567v1.164zM45.414 39.785h-9.894c-.146 0-.264-.118-.264-.264v-1.491c0-.146.118-.264.264-.264h9.895c.146 0 .264.118.264.264v1.491c-.001.146-.119.264-.265.264zm-9.894-1.818l-.063.063v1.491l.063.063h9.895l.063-.063v-1.491l-.063-.063h-9.895zm9.831 1.491h-9.768v-1.364h9.768v1.364zm-9.568-.2h9.367v-.964h-9.367v.964z"/><path class="st0" d="M5.748 39.033c0 .27.219.488.488.488h7.37c.27 0 .488-.219.488-.488v-1.161h-8.346v1.161zM14.094 25.341c0-.27-.219-.488-.488-.488h-7.37c-.27 0-.488.219-.488.488v1.161h8.346v-1.161z"/><path class="st1" d="M9.921 26.078c-.221 0-.401-.18-.401-.401 0-.221.18-.4.401-.4s.401.18.401.4c0 .221-.18.401-.401.401zm0-.547c-.081 0-.146.065-.146.146 0 .081.065.146.146.146s.146-.065.146-.146c0-.08-.066-.146-.146-.146z"/><path class="st2" d="M14.094 26.501h-8.346v11.372h8.346v-6.816z"/><path class="st1" d="M13.606 39.685h-7.37c-.359 0-.651-.292-.651-.652v-1.16c0-.09.073-.164.164-.164h8.346c.09 0 .164.073.164.164v1.16c-.001.36-.294.652-.653.652zm-7.694-1.648v.997c0 .179.146.325.324.325h7.37c.179 0 .325-.146.325-.325v-.997h-8.019zM13.606 39.785h-7.37c-.414 0-.751-.337-.751-.752v-1.16c0-.146.118-.264.264-.264h8.346c.146 0 .264.118.264.264v1.16c-.001.415-.338.752-.753.752zm-7.858-1.975l-.063.063v1.16c0 .304.247.552.551.552h7.37c.304 0 .552-.248.552-.552v-1.16l-.063-.063h-8.347zm7.858 1.648h-7.37c-.234 0-.424-.19-.424-.425v-1.097h8.219v1.097c0 .235-.191.425-.425.425zm-7.594-1.321v.896c0 .124.101.225.224.225h7.37c.124 0 .225-.101.225-.225v-.896h-7.819zM14.094 26.665h-8.346c-.09 0-.164-.073-.164-.164v-1.16c0-.359.292-.652.651-.652h7.37c.359 0 .652.292.652.652v1.16c.001.09-.072.164-.163.164zm-8.182-.328h8.019v-.997c0-.179-.146-.325-.325-.325h-7.37c-.179 0-.324.146-.324.325v.997zM14.094 26.765h-8.346c-.146 0-.264-.118-.264-.264v-1.16c0-.415.337-.752.751-.752h7.37c.415 0 .752.337.752.752v1.16c.001.145-.117.264-.263.264zm-7.858-1.976c-.304 0-.551.248-.551.552v1.16l.063.063h8.346l.063-.063v-1.16c0-.304-.248-.552-.552-.552h-7.369zm7.795 1.649h-8.219v-1.097c0-.234.19-.425.424-.425h7.37c.234 0 .425.19.425.425v1.097zm-8.019-.201h7.819v-.896c0-.124-.101-.225-.225-.225h-7.37c-.124 0-.224.101-.224.225v.896zM14.094 38.037h-8.346c-.09 0-.164-.073-.164-.164v-11.372c0-.09.073-.164.164-.164h8.346c.09 0 .164.073.164.164v11.372c0 .09-.073.164-.164.164zm-8.182-.328h8.019v-11.044h-8.019v11.044zM14.094 38.137h-8.346c-.146 0-.264-.118-.264-.264v-11.372c0-.146.118-.264.264-.264h8.346c.146 0 .264.118.264.264v11.372c0 .146-.118.264-.264.264zm-8.346-11.699l-.063.063v11.372l.063.063h8.346l.063-.063v-11.372l-.063-.063h-8.346zm8.283 11.372h-8.219v-11.246h8.219v11.246zm-8.019-.201h7.819v-10.844h-7.819v10.844z"/><path class="st0" d="M9.921 34.53l-.049-.008c-.091-.033-2.226-.809-2.226-1.974v-2.893c0-.075.057-.137.131-.145.011-.001 1.09-.117 2.067-.72.047-.028.106-.028.153 0 .978.604 2.057.719 2.067.72.074.007.131.07.131.145v2.893c0 1.165-2.135 1.941-2.226 1.974l-.048.008zm-1.983-4.748v2.766c0 .775 1.387 1.458 1.983 1.682.597-.224 1.983-.907 1.983-1.682v-2.766c-.319-.048-1.165-.214-1.983-.698-.818.484-1.664.65-1.983.698zM9.933 32.731c-.334-.003-.613-.169-.789-.308-.063-.05-.074-.141-.024-.205.05-.063.141-.073.205-.024.14.11.359.243.609.245.149 0 .29-.042.394-.119.081-.058.13-.143.133-.228.002-.075-.031-.142-.095-.194-.117-.096-.278-.128-.449-.163l-.156-.033c-.387-.095-.606-.309-.602-.587.006-.317.311-.545.603-.583.32-.039.635.059.849.263.058.056.06.148.005.206-.057.057-.147.06-.206.005-.151-.145-.38-.212-.612-.185-.144.018-.345.132-.348.298-.003.19.29.277.379.299l.144.031c.189.038.403.082.576.223.135.111.207.263.202.429-.006.174-.1.344-.252.454-.152.113-.353.176-.566.176zM9.921 30.816c-.081 0-.146-.065-.146-.146v-.277c0-.081.065-.146.146-.146s.146.065.146.146v.277c-.001.081-.066.146-.146.146zM9.921 33.008c-.081 0-.146-.065-.146-.146v-.277c0-.081.065-.146.146-.146s.146.065.146.146v.277c-.001.081-.066.146-.146.146zM45.979 34.948h-8.628c-.298 0-.539-.242-.539-.539v-4.649c0-.298.242-.539.539-.539h8.628c.298 0 .539.242.539.539v4.649c0 .298-.241.539-.539.539z"/><path class="st1" d="M45.979 35.112h-8.628c-.388 0-.703-.315-.703-.703v-4.649c0-.388.315-.703.703-.703h8.628c.388 0 .703.315.703.703v4.649c0 .387-.315.703-.703.703zm-8.628-5.729c-.207 0-.376.169-.376.376v4.649c0 .207.169.376.376.376h8.628c.207 0 .375-.169.375-.376v-4.649c0-.207-.168-.376-.375-.376h-8.628zM45.979 35.212h-8.628c-.443 0-.803-.36-.803-.803v-4.649c0-.443.36-.803.803-.803h8.628c.442 0 .803.36.803.803v4.649c0 .443-.361.803-.803.803zm-8.628-6.056c-.333 0-.603.271-.603.603v4.649c0 .333.271.603.603.603h8.628c.333 0 .603-.271.603-.603v-4.649c0-.333-.27-.603-.603-.603h-8.628zm8.628 5.729h-8.628c-.263 0-.476-.213-.476-.476v-4.649c0-.263.213-.476.476-.476h8.628c.262 0 .476.213.476.476v4.649c0 .262-.214.476-.476.476zm-8.628-5.402c-.152 0-.276.124-.276.276v4.649c0 .152.124.276.276.276h8.628c.152 0 .275-.124.275-.276v-4.649c0-.152-.124-.276-.275-.276h-8.628z"/><path class="st2" d="M36.811 30.456h9.707v1.479h-9.707z"/><path class="st1" d="M46.518 32.099h-9.707c-.09 0-.164-.073-.164-.164v-1.479c0-.09.073-.164.164-.164h9.707c.09 0 .164.073.164.164v1.479c0 .091-.074.164-.164.164zm-9.543-.327h9.38v-1.152h-9.38v1.152zM43.224 33.111h-5.528c-.09 0-.164-.073-.164-.164s.073-.164.164-.164h5.528c.09 0 .164.073.164.164s-.074.164-.164.164zM43.224 33.211h-5.528c-.146 0-.264-.118-.264-.264s.118-.264.264-.264h5.528c.146 0 .264.118.264.264s-.118.264-.264.264zm-5.528-.327l-.063.063.063.063h5.528l.063-.063-.063-.063h-5.528zM41.963 34.087h-2.583c-.09 0-.164-.073-.164-.164s.073-.164.164-.164h2.583c.09 0 .164.073.164.164s-.073.164-.164.164zM41.963 34.188h-2.583c-.146 0-.264-.118-.264-.264s.118-.264.264-.264h2.583c.146 0 .264.118.264.264s-.118.264-.264.264zm-2.582-.328l-.063.063.063.063h2.583l.063-.063-.063-.063h-2.583zM38.672 34.087h-.976c-.09 0-.164-.073-.164-.164s.073-.164.164-.164h.976c.09 0 .164.073.164.164s-.074.164-.164.164zM38.672 34.188h-.976c-.146 0-.264-.118-.264-.264s.118-.264.264-.264h.976c.146 0 .264.118.264.264s-.119.264-.264.264zm-.976-.328l-.063.063.063.063h.976l.063-.063-.063-.063h-.976z"/><defs><path id="SVGID_1_" d="M4.688 41.869v-.582h.582c.218 0 .394-.177.394-.394 0-.218-.177-.394-.394-.394h-.582v-.582c0-.218-.177-.394-.394-.394-.218 0-.394.177-.394.394v.582h-.583c-.218 0-.394.177-.394.394 0 .218.177.394.394.394h.582v.582c0 .218.177.394.394.394.219 0 .395-.177.395-.394"/></defs><clipPath id="SVGID_2_"><use xlink:href="#SVGID_1_" overflow="visible"/></clipPath><g class="st6"><defs><path id="SVGID_3_" d="M2.923 9.06h44.778v35.335h-44.778z"/></defs><clipPath id="SVGID_4_"><use xlink:href="#SVGID_3_" overflow="visible"/></clipPath><path class="st1" d="M1.4 37.998h5.788v5.788h-5.788z"/></g><defs><path id="SVGID_5_" d="M2.856 19.127h1.353c.215 0 .39-.205.39-.457s-.174-.457-.39-.457h-1.353c-.215 0-.39.205-.39.457 0 .253.175.457.39.457"/></defs><clipPath id="SVGID_6_"><use xlink:href="#SVGID_5_" overflow="visible"/></clipPath><g class="st8"><defs><path id="SVGID_7_" d="M2.161 6.638h44.778v35.335h-44.778z"/></defs><clipPath id="SVGID_8_"><use xlink:href="#SVGID_7_" overflow="visible"/></clipPath><path class="st1" d="M.943 16.69h5.178v3.96h-5.178z"/></g><defs><path id="SVGID_9_" d="M6.319 17.909c.227 0 .411-.205.411-.457s-.184-.457-.411-.457h-1.614c-.227 0-.411.205-.411.457s.184.457.411.457h1.614z"/></defs><clipPath id="SVGID_10_"><use xlink:href="#SVGID_9_" overflow="visible"/></clipPath><g class="st10"><defs><path id="SVGID_11_" d="M2.161 6.638h44.778v35.335h-44.778z"/></defs><clipPath id="SVGID_12_"><use xlink:href="#SVGID_11_" overflow="visible"/></clipPath><path class="st1" d="M2.771 15.472h5.483v3.96h-5.483z"/></g><defs><path id="SVGID_13_" d="M25.698 8.547h.751v.751c0 .213.173.386.386.386.213 0 .386-.173.386-.386v-.751h.751c.213 0 .386-.173.386-.386 0-.213-.173-.386-.386-.386h-.751v-.751c0-.213-.173-.386-.386-.386-.213 0-.386.173-.386.386v.751h-.751c-.213 0-.386.173-.386.386 0 .214.173.386.386.386"/></defs><clipPath id="SVGID_14_"><use xlink:href="#SVGID_13_" overflow="visible"/></clipPath><g class="st12"><defs><path id="SVGID_15_" d="M2.161 6.638h44.778v35.335h-44.778z"/></defs><clipPath id="SVGID_16_"><use xlink:href="#SVGID_15_" overflow="visible"/></clipPath><path class="st1" d="M23.789 5.115h6.092v6.092h-6.092z"/></g><defs><path id="SVGID_17_" d="M44.886 21.643h.451v.451c0 .212.172.384.384.384.212 0 .384-.172.384-.384v-.451h.451c.212 0 .384-.172.384-.383 0-.212-.172-.383-.384-.383h-.451v-.451c0-.212-.172-.383-.384-.383-.212 0-.384.172-.384.383v.451h-.451c-.212 0-.384.172-.384.383.001.211.173.383.384.383"/></defs><clipPath id="SVGID_18_"><use xlink:href="#SVGID_17_" overflow="visible"/></clipPath><g class="st14"><defs><path id="SVGID_19_" d="M2.161 6.638h44.778v35.335h-44.778z"/></defs><clipPath id="SVGID_20_"><use xlink:href="#SVGID_19_" overflow="visible"/></clipPath><path class="st1" d="M42.98 18.518h5.483v5.483h-5.483z"/></g><defs><path id="SVGID_21_" d="M48.221 28.055c0-.252-.183-.457-.408-.457h-2.84c-.225 0-.408.205-.408.457s.183.457.408.457h2.84c.226 0 .408-.204.408-.457"/></defs><clipPath id="SVGID_22_"><use xlink:href="#SVGID_21_" overflow="visible"/></clipPath><g class="st16"><defs><path id="SVGID_23_" d="M3.443-3.167h44.778v35.335h-44.778z"/></defs><clipPath id="SVGID_24_"><use xlink:href="#SVGID_23_" overflow="visible"/></clipPath><path class="st1" d="M43.043 26.075h6.702v3.96h-6.702z"/></g><defs><path id="SVGID_25_" d="M34.532 10.598h1.665c.213 0 .386-.205.386-.457s-.173-.457-.386-.457h-1.665c-.213 0-.386.205-.386.457 0 .253.173.457.386.457"/></defs><clipPath id="SVGID_26_"><use xlink:href="#SVGID_25_" overflow="visible"/></clipPath><g class="st18"><defs><path id="SVGID_27_" d="M2.161 6.638h44.778v35.335h-44.778z"/></defs><clipPath id="SVGID_28_"><use xlink:href="#SVGID_27_" overflow="visible"/></clipPath><path class="st1" d="M32.623 8.161h5.483v3.96h-5.483z"/></g><defs><path id="SVGID_29_" d="M84.955 18.214v.305c.421-.042.829-.145 1.218-.305h-1.218z"/></defs><clipPath id="SVGID_30_"><use xlink:href="#SVGID_29_" overflow="visible"/></clipPath><g class="st20"><defs><path id="SVGID_31_" d="M-227.274-106.983h416.103v501.394h-416.103z"/></defs><clipPath id="SVGID_32_"><use xlink:href="#SVGID_31_" overflow="visible"/></clipPath></g><defs><path id="SVGID_33_" d="M84.346 17.226h3.047l.304-.242v-1.318c0-.743-.604-1.345-1.349-1.345h-2.019c.315 0 .612-.078.873-.216.592-.312.995-.932.995-1.646 0-1.029-.836-1.862-1.868-1.862s-1.868.834-1.868 1.862c0 .727.418 1.357 1.028 1.663.252.127.538.198.84.198h-1.985c-.745 0-1.349.602-1.349 1.345v1.329c.809.691 1.837 1.136 2.965 1.218v-.603c0-.211.173-.383.386-.383"/></defs><clipPath id="SVGID_34_"><use xlink:href="#SVGID_33_" overflow="visible"/></clipPath><g class="st21"><defs><path id="SVGID_35_" d="M-227.274-106.983h416.103v501.394h-416.103z"/></defs><clipPath id="SVGID_36_"><use xlink:href="#SVGID_35_" overflow="visible"/></clipPath></g><defs><path id="SVGID_37_" d="M80.997 14.259h26.91v27.875h-26.91z"/></defs><clipPath id="SVGID_38_"><use xlink:href="#SVGID_37_" overflow="visible"/></clipPath><g class="st23"><defs><path id="SVGID_39_" d="M-227.274-106.983h416.103v501.394h-416.103z"/></defs><clipPath id="SVGID_40_"><use xlink:href="#SVGID_39_" overflow="visible"/></clipPath></g></svg>