<?xml version="1.0" encoding="utf-8"?>
<!-- Generator: Adobe Illustrator 22.0.1, SVG Export Plug-In . SVG Version: 6.00 Build 0)  -->
<svg version="1.1" id="Layer_1" xmlns="http://www.w3.org/2000/svg" xmlns:xlink="http://www.w3.org/1999/xlink" x="0px" y="0px"
	 viewBox="0 0 50 50" style="enable-background:new 0 0 50 50;" xml:space="preserve">
<style type="text/css">
	.st0{fill:#FFFFFF;}
	.st1{fill:#414042;}
	.st2{fill:#9ECFEF;}
	.st3{fill:#FFCE44;}
	.st4{fill:#FFE167;}
	.st5{fill:#F5CC73;}
	.st6{clip-path:url(#SVGID_2_);}
	.st7{clip-path:url(#SVGID_4_);}
	.st8{clip-path:url(#SVGID_6_);}
	.st9{clip-path:url(#SVGID_8_);}
	.st10{clip-path:url(#SVGID_10_);}
	.st11{clip-path:url(#SVGID_12_);}
	.st12{clip-path:url(#SVGID_14_);}
	.st13{clip-path:url(#SVGID_16_);}
	.st14{clip-path:url(#SVGID_18_);}
	.st15{clip-path:url(#SVGID_20_);}
	.st16{clip-path:url(#SVGID_22_);}
	.st17{clip-path:url(#SVGID_24_);}
	.st18{clip-path:url(#SVGID_26_);}
	.st19{clip-path:url(#SVGID_28_);}
	.st20{clip-path:url(#SVGID_30_);}
	.st21{clip-path:url(#SVGID_34_);}
	.st22{clip-path:url(#SVGID_36_);fill:#9ECFEF;}
	.st23{clip-path:url(#SVGID_38_);}
	.st24{clip-path:url(#SVGID_40_);}
	.st25{clip-path:url(#SVGID_42_);}
	.st26{clip-path:url(#SVGID_44_);}
	.st27{clip-path:url(#SVGID_46_);fill:#414042;}
	.st28{clip-path:url(#SVGID_38_);fill-rule:evenodd;clip-rule:evenodd;fill:#414042;}
	.st29{clip-path:url(#SVGID_48_);}
	.st30{clip-path:url(#SVGID_52_);}
	.st31{clip-path:url(#SVGID_56_);}
	.st32{clip-path:url(#SVGID_58_);fill:#F77C4B;}
	.st33{clip-path:url(#SVGID_60_);}
	.st34{clip-path:url(#SVGID_62_);fill:#FFFFFF;}
	.st35{clip-path:url(#SVGID_64_);}
	.st36{clip-path:url(#SVGID_66_);fill:#414042;}
	.st37{clip-path:url(#SVGID_68_);}
	.st38{clip-path:url(#SVGID_70_);fill:#414042;}
	.st39{clip-path:url(#SVGID_72_);}
	.st40{clip-path:url(#SVGID_74_);fill:#414042;}
	.st41{clip-path:url(#SVGID_76_);}
	.st42{clip-path:url(#SVGID_78_);fill:#F77C4B;}
	.st43{clip-path:url(#SVGID_80_);}
	.st44{clip-path:url(#SVGID_82_);fill:#FFFFFF;}
	.st45{clip-path:url(#SVGID_84_);}
	.st46{clip-path:url(#SVGID_86_);fill:#FFFFFF;}
	.st47{clip-path:url(#SVGID_88_);}
	.st48{clip-path:url(#SVGID_90_);fill:#414042;}
	.st49{clip-path:url(#SVGID_92_);}
	.st50{clip-path:url(#SVGID_94_);fill:#414042;}
	.st51{clip-path:url(#SVGID_96_);}
	.st52{clip-path:url(#SVGID_98_);fill:#414042;}
	.st53{clip-path:url(#SVGID_100_);}
	.st54{clip-path:url(#SVGID_102_);fill:#414042;}
	.st55{clip-path:url(#SVGID_104_);}
	.st56{clip-path:url(#SVGID_106_);fill:#414042;}
	.st57{fill:#41464B;}
	.st58{fill:#4CBED8;}
	.st59{fill:#FF7443;}
	.st60{fill:none;stroke:#359CDB;stroke-width:0.393;stroke-linecap:round;stroke-linejoin:round;stroke-miterlimit:10;}
	.st61{fill:#AFAFAF;}
	.st62{fill:#FED65C;}
	.st63{clip-path:url(#SVGID_108_);}
	.st64{fill:#4CBDD8;}
	.st65{fill:#F9D264;}
	.st66{fill:#F9BB7D;}
	.st67{fill:#41464B;stroke:#414042;stroke-width:0.4;stroke-linecap:round;stroke-linejoin:round;stroke-miterlimit:10;}
	.st68{clip-path:url(#SVGID_110_);}
	.st69{clip-path:url(#SVGID_112_);}
	.st70{clip-path:url(#SVGID_114_);}
	.st71{clip-path:url(#SVGID_116_);}
	.st72{clip-path:url(#SVGID_118_);}
	.st73{clip-path:url(#SVGID_120_);}
	.st74{clip-path:url(#SVGID_122_);}
	.st75{clip-path:url(#SVGID_124_);fill:#414042;}
	.st76{clip-path:url(#SVGID_126_);}
	.st77{clip-path:url(#SVGID_128_);}
	.st78{clip-path:url(#SVGID_130_);}
	.st79{clip-path:url(#SVGID_132_);}
	.st80{clip-path:url(#SVGID_134_);}
	.st81{clip-path:url(#SVGID_136_);}
	.st82{clip-path:url(#SVGID_138_);}
	.st83{clip-path:url(#SVGID_140_);}
	.st84{clip-path:url(#SVGID_142_);}
	.st85{clip-path:url(#SVGID_144_);}
	.st86{clip-path:url(#SVGID_146_);}
	.st87{clip-path:url(#SVGID_148_);}
	.st88{clip-path:url(#SVGID_150_);}
	.st89{clip-path:url(#SVGID_152_);fill:#FFFFFF;}
	.st90{clip-path:url(#SVGID_154_);}
	.st91{clip-path:url(#SVGID_156_);}
	.st92{clip-path:url(#SVGID_158_);}
	.st93{clip-path:url(#SVGID_160_);}
	.st94{clip-path:url(#SVGID_162_);}
	.st95{clip-path:url(#SVGID_164_);}
	.st96{clip-path:url(#SVGID_166_);}
	.st97{clip-path:url(#SVGID_168_);}
	.st98{clip-path:url(#SVGID_170_);}
	.st99{clip-path:url(#SVGID_172_);}
	.st100{clip-path:url(#SVGID_174_);}
	.st101{clip-path:url(#SVGID_176_);}
	.st102{clip-path:url(#SVGID_178_);}
	.st103{clip-path:url(#SVGID_180_);fill:#414042;}
	.st104{clip-path:url(#SVGID_182_);}
	.st105{clip-path:url(#SVGID_184_);}
	.st106{clip-path:url(#SVGID_186_);}
	.st107{clip-path:url(#SVGID_188_);}
	.st108{clip-path:url(#SVGID_190_);}
	.st109{clip-path:url(#SVGID_192_);}
	.st110{fill:#41464B;stroke:#41464B;stroke-width:0.2;stroke-miterlimit:10;}
	.st111{clip-path:url(#SVGID_194_);}
	.st112{clip-path:url(#SVGID_196_);}
	.st113{clip-path:url(#SVGID_198_);}
	.st114{clip-path:url(#SVGID_200_);}
	.st115{clip-path:url(#SVGID_202_);}
	.st116{clip-path:url(#SVGID_204_);}
	.st117{clip-path:url(#SVGID_206_);}
	.st118{clip-path:url(#SVGID_208_);fill:#414042;}
	.st119{clip-path:url(#SVGID_210_);}
	.st120{clip-path:url(#SVGID_212_);}
	.st121{clip-path:url(#SVGID_214_);}
	.st122{clip-path:url(#SVGID_216_);}
	.st123{clip-path:url(#SVGID_218_);}
	.st124{clip-path:url(#SVGID_220_);}
	.st125{fill:#FFD15D;}
	.st126{fill:#475059;}
	.st127{fill:#41464B;stroke:#41464B;stroke-width:0.223;stroke-linecap:round;stroke-linejoin:round;stroke-miterlimit:10;}
	.st128{fill:#41464B;stroke:#41464B;stroke-width:0.223;stroke-miterlimit:10;}
	.st129{fill:#41464B;stroke:#41464B;stroke-width:0.212;stroke-miterlimit:10;}
	.st130{fill:#5FE0ED;}
	.st131{fill:#48515A;}
	.st132{fill:#41464B;stroke:#41464B;stroke-width:0.2104;stroke-miterlimit:10;}
	.st133{fill:#41464B;stroke:#41464B;stroke-width:0.21;stroke-linecap:round;stroke-linejoin:round;stroke-miterlimit:10;}
	.st134{fill:#41464B;stroke:#41464B;stroke-width:0.2086;stroke-linecap:round;stroke-linejoin:round;stroke-miterlimit:10;}
	.st135{fill:#FDBE11;}
	.st136{fill:#41464B;stroke:#41464B;stroke-width:0.2513;stroke-miterlimit:10;}
	.st137{clip-path:url(#SVGID_222_);}
	.st138{clip-path:url(#SVGID_224_);}
	.st139{clip-path:url(#SVGID_226_);}
	.st140{clip-path:url(#SVGID_228_);}
	.st141{clip-path:url(#SVGID_230_);}
	.st142{clip-path:url(#SVGID_232_);}
	.st143{clip-path:url(#SVGID_234_);}
	.st144{clip-path:url(#SVGID_236_);fill:#414042;}
	.st145{clip-path:url(#SVGID_238_);}
	.st146{clip-path:url(#SVGID_240_);}
	.st147{clip-path:url(#SVGID_242_);}
	.st148{clip-path:url(#SVGID_244_);}
	.st149{clip-path:url(#SVGID_246_);}
	.st150{clip-path:url(#SVGID_248_);}
	.st151{clip-path:url(#SVGID_250_);}
	.st152{clip-path:url(#SVGID_252_);}
	.st153{clip-path:url(#SVGID_254_);}
	.st154{clip-path:url(#SVGID_256_);}
	.st155{clip-path:url(#SVGID_258_);}
	.st156{clip-path:url(#SVGID_260_);}
	.st157{clip-path:url(#SVGID_262_);}
	.st158{clip-path:url(#SVGID_264_);fill:#414042;}
	.st159{clip-path:url(#SVGID_266_);}
	.st160{clip-path:url(#SVGID_268_);}
	.st161{clip-path:url(#SVGID_270_);}
	.st162{clip-path:url(#SVGID_272_);}
	.st163{clip-path:url(#SVGID_274_);}
	.st164{clip-path:url(#SVGID_276_);}
	.st165{fill:#DEDEDD;}
	.st166{fill:#41464B;stroke:#41464B;stroke-width:0.2327;stroke-miterlimit:10;}
	.st167{fill:#41464B;stroke:#41464B;stroke-width:0.2327;stroke-linecap:round;stroke-linejoin:round;stroke-miterlimit:10;}
	.st168{fill:#F58E70;}
	.st169{clip-path:url(#SVGID_278_);}
	.st170{fill:#41464B;stroke:#41464B;stroke-width:0.2316;stroke-miterlimit:10;}
	.st171{fill:#FFB936;}
	.st172{fill:#E6E7E8;}
	.st173{clip-path:url(#SVGID_280_);}
	.st174{clip-path:url(#SVGID_282_);}
	.st175{clip-path:url(#SVGID_284_);}
	.st176{clip-path:url(#SVGID_286_);}
	.st177{clip-path:url(#SVGID_288_);}
	.st178{clip-path:url(#SVGID_290_);}
	.st179{clip-path:url(#SVGID_292_);}
	.st180{clip-path:url(#SVGID_294_);fill:#FFFFFF;}
	.st181{clip-path:url(#SVGID_296_);}
	.st182{clip-path:url(#SVGID_298_);}
	.st183{clip-path:url(#SVGID_300_);}
	.st184{clip-path:url(#SVGID_302_);}
	.st185{clip-path:url(#SVGID_304_);}
	.st186{clip-path:url(#SVGID_306_);}
	.st187{clip-path:url(#SVGID_308_);}
	.st188{clip-path:url(#SVGID_310_);}
	.st189{clip-path:url(#SVGID_312_);}
	.st190{clip-path:url(#SVGID_314_);}
	.st191{clip-path:url(#SVGID_316_);}
	.st192{clip-path:url(#SVGID_318_);}
	.st193{clip-path:url(#SVGID_320_);}
	.st194{clip-path:url(#SVGID_322_);fill:#FFFFFF;}
	.st195{clip-path:url(#SVGID_324_);}
	.st196{clip-path:url(#SVGID_326_);}
	.st197{clip-path:url(#SVGID_328_);}
	.st198{clip-path:url(#SVGID_330_);}
	.st199{clip-path:url(#SVGID_332_);}
	.st200{clip-path:url(#SVGID_334_);}
</style>
<g>
	<defs>
		<path id="SVGID_137_" d="M4.688,41.869v-0.582H5.27c0.218,0,0.394-0.177,0.394-0.394c0-0.218-0.177-0.394-0.394-0.394H4.688
			v-0.582c0-0.218-0.177-0.394-0.394-0.394c-0.218,0-0.394,0.177-0.394,0.394v0.582H3.317c-0.218,0-0.394,0.177-0.394,0.394
			c0,0.218,0.177,0.394,0.394,0.394h0.582v0.582c0,0.218,0.177,0.394,0.394,0.394C4.512,42.263,4.688,42.086,4.688,41.869"/>
	</defs>
	<use xlink:href="#SVGID_137_"  style="overflow:visible;fill-rule:evenodd;clip-rule:evenodd;fill:#FFFFFF;"/>
	<clipPath id="SVGID_2_">
		<use xlink:href="#SVGID_137_"  style="overflow:visible;"/>
	</clipPath>
	<g class="st6">
		<defs>
			<rect id="SVGID_139_" x="2.923" y="9.06" width="44.778" height="35.335"/>
		</defs>
		<use xlink:href="#SVGID_139_"  style="overflow:visible;fill:#FFFFFF;"/>
		<clipPath id="SVGID_4_">
			<use xlink:href="#SVGID_139_"  style="overflow:visible;"/>
		</clipPath>
		<g class="st7">
			<rect x="1.4" y="37.998" class="st0" width="5.788" height="5.788"/>
		</g>
	</g>
</g>
<g>
	<defs>
		<path id="SVGID_141_" d="M2.856,12.002h1.353c0.215,0,0.39-0.205,0.39-0.457c0-0.252-0.174-0.457-0.39-0.457H2.856
			c-0.215,0-0.39,0.205-0.39,0.457C2.466,11.798,2.641,12.002,2.856,12.002"/>
	</defs>
	<use xlink:href="#SVGID_141_"  style="overflow:visible;fill-rule:evenodd;clip-rule:evenodd;fill:#FFFFFF;"/>
	<clipPath id="SVGID_6_">
		<use xlink:href="#SVGID_141_"  style="overflow:visible;"/>
	</clipPath>
	<g class="st8">
		<defs>
			<rect id="SVGID_143_" x="2.161" y="-0.487" width="44.778" height="35.335"/>
		</defs>
		<use xlink:href="#SVGID_143_"  style="overflow:visible;fill:#FFFFFF;"/>
		<clipPath id="SVGID_8_">
			<use xlink:href="#SVGID_143_"  style="overflow:visible;"/>
		</clipPath>
		<g class="st9">
			<rect x="0.943" y="9.565" class="st0" width="5.178" height="3.96"/>
		</g>
	</g>
</g>
<g>
	<defs>
		<path id="SVGID_145_" d="M6.319,10.784c0.227,0,0.411-0.205,0.411-0.457c0-0.252-0.184-0.457-0.411-0.457H4.705
			c-0.227,0-0.411,0.205-0.411,0.457c0,0.252,0.184,0.457,0.411,0.457H6.319z"/>
	</defs>
	<use xlink:href="#SVGID_145_"  style="overflow:visible;fill-rule:evenodd;clip-rule:evenodd;fill:#FFFFFF;"/>
	<clipPath id="SVGID_10_">
		<use xlink:href="#SVGID_145_"  style="overflow:visible;"/>
	</clipPath>
	<g class="st10">
		<defs>
			<rect id="SVGID_147_" x="2.161" y="-0.487" width="44.778" height="35.335"/>
		</defs>
		<use xlink:href="#SVGID_147_"  style="overflow:visible;fill:#FFFFFF;"/>
		<clipPath id="SVGID_12_">
			<use xlink:href="#SVGID_147_"  style="overflow:visible;"/>
		</clipPath>
		<g class="st11">
			<rect x="2.771" y="8.347" class="st0" width="5.483" height="3.96"/>
		</g>
	</g>
</g>
<g>
	<defs>
		<path id="SVGID_149_" d="M25.698,8.547h0.751v0.751c0,0.213,0.173,0.386,0.386,0.386c0.213,0,0.386-0.173,0.386-0.386V8.547h0.751
			c0.213,0,0.386-0.173,0.386-0.386c0-0.213-0.173-0.386-0.386-0.386h-0.751V7.024c0-0.213-0.173-0.386-0.386-0.386
			c-0.213,0-0.386,0.173-0.386,0.386v0.751h-0.751c-0.213,0-0.386,0.173-0.386,0.386C25.312,8.375,25.485,8.547,25.698,8.547"/>
	</defs>
	<use xlink:href="#SVGID_149_"  style="overflow:visible;fill-rule:evenodd;clip-rule:evenodd;fill:#FFFFFF;"/>
	<clipPath id="SVGID_14_">
		<use xlink:href="#SVGID_149_"  style="overflow:visible;"/>
	</clipPath>
	<g class="st12">
		<defs>
			<rect id="SVGID_151_" x="2.161" y="6.638" width="44.778" height="35.335"/>
		</defs>
		<use xlink:href="#SVGID_151_"  style="overflow:visible;fill:#FFFFFF;"/>
		<clipPath id="SVGID_16_">
			<use xlink:href="#SVGID_151_"  style="overflow:visible;"/>
		</clipPath>
		<rect x="23.789" y="5.115" style="clip-path:url(#SVGID_16_);fill:#FFFFFF;" width="6.092" height="6.092"/>
	</g>
</g>
<g>
	<defs>
		<path id="SVGID_153_" d="M44.886,18.643h0.451v0.451c0,0.212,0.172,0.384,0.384,0.384c0.212,0,0.384-0.172,0.384-0.384v-0.451
			h0.451c0.212,0,0.384-0.172,0.384-0.383c0-0.212-0.172-0.383-0.384-0.383h-0.451v-0.451c0-0.212-0.172-0.383-0.384-0.383
			c-0.212,0-0.384,0.172-0.384,0.383v0.451h-0.451c-0.212,0-0.384,0.172-0.384,0.383C44.503,18.471,44.675,18.643,44.886,18.643"/>
	</defs>
	<use xlink:href="#SVGID_153_"  style="overflow:visible;fill-rule:evenodd;clip-rule:evenodd;fill:#FFFFFF;"/>
	<clipPath id="SVGID_18_">
		<use xlink:href="#SVGID_153_"  style="overflow:visible;"/>
	</clipPath>
	<g class="st14">
		<defs>
			<rect id="SVGID_155_" x="2.161" y="3.638" width="44.778" height="35.335"/>
		</defs>
		<use xlink:href="#SVGID_155_"  style="overflow:visible;fill:#FFFFFF;"/>
		<clipPath id="SVGID_20_">
			<use xlink:href="#SVGID_155_"  style="overflow:visible;"/>
		</clipPath>
		<g class="st15">
			<rect x="42.98" y="15.518" class="st0" width="5.483" height="5.483"/>
		</g>
	</g>
</g>
<g>
	<defs>
		<path id="SVGID_157_" d="M48.221,42.133c0-0.252-0.183-0.457-0.408-0.457h-2.84c-0.225,0-0.408,0.205-0.408,0.457
			s0.183,0.457,0.408,0.457h2.84C48.039,42.59,48.221,42.386,48.221,42.133"/>
	</defs>
	<use xlink:href="#SVGID_157_"  style="overflow:visible;fill-rule:evenodd;clip-rule:evenodd;fill:#FFFFFF;"/>
	<clipPath id="SVGID_22_">
		<use xlink:href="#SVGID_157_"  style="overflow:visible;"/>
	</clipPath>
	<g class="st16">
		<defs>
			<rect id="SVGID_159_" x="3.443" y="10.911" width="44.778" height="35.335"/>
		</defs>
		<use xlink:href="#SVGID_159_"  style="overflow:visible;fill:#FFFFFF;"/>
		<clipPath id="SVGID_24_">
			<use xlink:href="#SVGID_159_"  style="overflow:visible;"/>
		</clipPath>
		<g class="st17">
			<rect x="43.043" y="40.153" class="st0" width="6.702" height="3.96"/>
		</g>
	</g>
</g>
<g>
	<defs>
		<path id="SVGID_161_" d="M34.532,10.598h1.665c0.213,0,0.386-0.205,0.386-0.457c0-0.252-0.173-0.457-0.386-0.457h-1.665
			c-0.213,0-0.386,0.205-0.386,0.457C34.146,10.394,34.319,10.598,34.532,10.598"/>
	</defs>
	<use xlink:href="#SVGID_161_"  style="overflow:visible;fill-rule:evenodd;clip-rule:evenodd;fill:#FFFFFF;"/>
	<clipPath id="SVGID_26_">
		<use xlink:href="#SVGID_161_"  style="overflow:visible;"/>
	</clipPath>
	<g class="st18">
		<defs>
			<rect id="SVGID_163_" x="2.161" y="6.638" width="44.778" height="35.335"/>
		</defs>
		<use xlink:href="#SVGID_163_"  style="overflow:visible;fill:#FFFFFF;"/>
		<clipPath id="SVGID_28_">
			<use xlink:href="#SVGID_163_"  style="overflow:visible;"/>
		</clipPath>
		<g class="st19">
			<rect x="32.623" y="8.161" class="st0" width="5.483" height="3.96"/>
		</g>
	</g>
</g>
<g>
	<g>
		<g>
			<g>
				<g>
					<rect x="7.629" y="33.853" class="st0" width="31.852" height="1.795"/>
					<path class="st110" d="M39.7,35.867H7.41v-2.233H39.7V35.867z M7.848,35.429h31.414v-1.357H7.848V35.429z"/>
				</g>
			</g>
			<g>
				<g>
					<path class="st0" d="M37.959,33.853V15.706c0-0.372-0.302-0.674-0.674-0.674H9.825c-0.372,0-0.674,0.302-0.674,0.674v18.147
						H37.959z"/>
					<path class="st110" d="M38.178,34.072H8.931V15.706c0-0.492,0.401-0.893,0.893-0.893h27.46c0.493,0,0.893,0.401,0.893,0.893
						V34.072z M9.37,33.634H37.74V15.706c0-0.251-0.204-0.455-0.455-0.455H9.825c-0.251,0-0.455,0.204-0.455,0.455V33.634z"/>
				</g>
			</g>
			<g>
				<rect x="10.603" y="16.484" class="st0" width="25.904" height="17.369"/>
				<path class="st110" d="M36.726,34.072H10.384V16.265h26.342V34.072z M10.822,33.634h25.465v-16.93H10.822V33.634z"/>
			</g>
			<g>
				<g>
					<defs>
						<polygon id="SVGID_277_" points="35.977,20.107 25.2,22.743 21.04,26.24 15.503,24.875 11.465,27.804 11.465,33.634 
							35.977,33.634 						"/>
					</defs>
					<use xlink:href="#SVGID_277_"  style="overflow:visible;fill:#4CBED8;"/>
					<clipPath id="SVGID_30_">
						<use xlink:href="#SVGID_277_"  style="overflow:visible;"/>
					</clipPath>
					<g class="st20">
						<rect x="11.436" y="20.594" class="st64" width="1.314" height="12.812"/>
						<rect x="14.064" y="20.594" class="st64" width="1.314" height="12.812"/>
						<rect x="16.691" y="20.594" class="st64" width="1.314" height="12.812"/>
						<rect x="19.319" y="20.594" class="st64" width="1.314" height="12.812"/>
						<rect x="21.947" y="20.594" class="st64" width="1.314" height="12.812"/>
						<rect x="24.574" y="20.594" class="st64" width="1.314" height="12.812"/>
						<rect x="27.202" y="20.594" class="st64" width="1.314" height="12.812"/>
						<rect x="29.829" y="20.594" class="st64" width="1.314" height="12.812"/>
						<rect x="32.525" y="20.594" class="st64" width="1.314" height="12.812"/>
						<rect x="35.152" y="19.89" class="st64" width="1.314" height="13.516"/>
					</g>
				</g>
				<g>
					<path class="st65" d="M11.465,27.988c-0.059,0-0.117-0.024-0.156-0.071c-0.067-0.08-0.052-0.195,0.034-0.257l4.038-2.929
						c0.049-0.035,0.112-0.047,0.172-0.033l5.433,1.339l4.081-3.431c0.021-0.018,0.046-0.031,0.073-0.039l10.58-2.81
						c0.104-0.03,0.215,0.024,0.247,0.12c0.033,0.097-0.025,0.2-0.129,0.23l-10.538,2.798l-4.128,3.471
						c-0.049,0.042-0.118,0.057-0.183,0.041l-5.442-1.342l-3.961,2.873C11.551,27.975,11.508,27.988,11.465,27.988z"/>
				</g>
				<path class="st58" d="M33.682,18.093c0,0.181-0.144,0.327-0.323,0.327s-0.323-0.146-0.323-0.327s0.144-0.327,0.323-0.327
					S33.682,17.912,33.682,18.093z"/>
				<path class="st58" d="M34.767,18.093c0,0.181-0.144,0.327-0.323,0.327s-0.323-0.146-0.323-0.327s0.144-0.327,0.323-0.327
					S34.767,17.912,34.767,18.093z"/>
				<path class="st58" d="M35.852,18.093c0,0.181-0.144,0.327-0.323,0.327c-0.178,0-0.323-0.146-0.323-0.327
					s0.144-0.327,0.323-0.327C35.708,17.766,35.852,17.912,35.852,18.093z"/>
				<circle class="st66" cx="11.465" cy="27.804" r="0.581"/>
				<circle class="st66" cx="15.503" cy="24.875" r="0.581"/>
				<ellipse transform="matrix(1 -0.0059 0.0059 1 -0.1555 0.1255)" class="st66" cx="21.04" cy="26.24" rx="0.581" ry="0.581"/>
				<ellipse transform="matrix(1 -0.0059 0.0059 1 -0.135 0.1506)" class="st66" cx="25.271" cy="22.792" rx="0.581" ry="0.581"/>
				<ellipse transform="matrix(1 -0.0059 0.0059 1 -0.124 0.1896)" class="st66" cx="31.843" cy="20.97" rx="0.581" ry="0.581"/>
			</g>
		</g>
	</g>
	<g>
		<g>
			<g>
				<path class="st125" d="M8.513,18.771v3.355v1.278c0,1.248,0.777,2.364,1.948,2.796c0.034,0.012,0.069,0.022,0.103,0.033v1.057
					c-0.034,0.011-0.069,0.021-0.103,0.033c-1.171,0.432-1.948,1.548-1.948,2.796v1.278v3.355h5.851v-3.355v-1.278
					c0-1.248-0.777-2.363-1.948-2.796c-0.028-0.011-0.057-0.018-0.085-0.027v-1.069c0.028-0.01,0.057-0.017,0.084-0.027
					c1.171-0.432,1.948-1.548,1.948-2.796v-1.278v-3.355H8.513z"/>
				<path class="st110" d="M14.364,34.97H8.513c-0.121,0-0.219-0.098-0.219-0.219v-4.633c0-1.319,0.822-2.513,2.051-2.986V26.39
					c-1.229-0.473-2.051-1.667-2.051-2.986v-4.633c0-0.121,0.098-0.219,0.219-0.219h5.851c0.121,0,0.219,0.098,0.219,0.219v4.633
					c0,1.313-0.814,2.502-2.032,2.979v0.757c1.218,0.476,2.032,1.666,2.032,2.979v4.633C14.583,34.872,14.485,34.97,14.364,34.97z
					 M8.732,34.532h5.413v-4.414c0-1.151-0.725-2.192-1.804-2.59c-0.014-0.006-0.027-0.009-0.04-0.013l-0.039-0.012
					c-0.089-0.03-0.15-0.113-0.15-0.208v-1.068c0-0.094,0.06-0.177,0.148-0.207l0.042-0.013c0.012-0.004,0.025-0.007,0.037-0.012
					c1.08-0.398,1.805-1.439,1.805-2.59V18.99H8.732v4.414c0,1.151,0.725,2.192,1.805,2.59c0.017,0.006,0.035,0.012,0.053,0.017
					l0.042,0.013c0.09,0.029,0.151,0.113,0.151,0.208v1.057c0,0.095-0.061,0.179-0.152,0.208l-0.041,0.013
					c-0.018,0.006-0.037,0.011-0.055,0.018c-1.079,0.398-1.804,1.439-1.804,2.59V34.532z"/>
			</g>
			<g>
				<rect x="7.776" y="17.874" class="st0" width="7.325" height="0.896"/>
				<path class="st110" d="M15.32,18.99H7.557v-1.335h7.763V18.99z M7.995,18.551h6.887v-0.458H7.995V18.551z"/>
			</g>
			<g>
				<rect x="7.776" y="34.751" class="st0" width="7.325" height="0.897"/>
				<path class="st110" d="M15.32,35.867H7.557v-1.335h7.763V35.867z M7.995,35.429h6.887V34.97H7.995V35.429z"/>
			</g>
			<g>
				<g>
					<path class="st0" d="M10.556,23.18c0,0.158-0.129,0.287-0.287,0.287c-0.158,0-0.287-0.129-0.287-0.287
						c0-0.159,0.129-0.287,0.287-0.287C10.427,22.893,10.556,23.021,10.556,23.18z"/>
					<path class="st0" d="M11.636,23.18c0,0.158-0.129,0.287-0.287,0.287c-0.158,0-0.287-0.129-0.287-0.287
						c0-0.159,0.129-0.287,0.287-0.287C11.507,22.893,11.636,23.021,11.636,23.18z"/>
					<path class="st0" d="M12.716,23.18c0,0.158-0.128,0.287-0.287,0.287c-0.158,0-0.287-0.129-0.287-0.287
						c0-0.159,0.129-0.287,0.287-0.287C12.588,22.893,12.716,23.021,12.716,23.18z"/>
				</g>
				<g>
					<path class="st0" d="M11.636,25.107c0,0.159-0.129,0.287-0.287,0.287c-0.158,0-0.287-0.128-0.287-0.287
						c0-0.159,0.129-0.287,0.287-0.287C11.507,24.82,11.636,24.948,11.636,25.107z"/>
				</g>
				<g>
					<path class="st0" d="M13.154,22.217c0,0.159-0.128,0.287-0.287,0.287c-0.158,0-0.287-0.128-0.287-0.287
						c0-0.159,0.129-0.288,0.287-0.288C13.026,21.929,13.154,22.058,13.154,22.217z"/>
					<path class="st0" d="M10.117,22.217c0,0.159-0.128,0.287-0.287,0.287c-0.158,0-0.287-0.128-0.287-0.287
						c0-0.159,0.129-0.288,0.287-0.288C9.989,21.929,10.117,22.058,10.117,22.217z"/>
					<path class="st0" d="M11.13,22.217c0,0.159-0.128,0.287-0.287,0.287c-0.157,0-0.287-0.128-0.287-0.287
						c0-0.159,0.129-0.288,0.287-0.288C11.001,21.929,11.13,22.058,11.13,22.217z"/>
					<path class="st0" d="M12.142,22.217c0,0.159-0.129,0.287-0.287,0.287c-0.159,0-0.287-0.128-0.287-0.287
						c0-0.159,0.128-0.288,0.287-0.288C12.013,21.929,12.142,22.058,12.142,22.217z"/>
				</g>
				<g>
					<path class="st0" d="M13.154,24.143c0,0.159-0.128,0.288-0.287,0.288c-0.158,0-0.287-0.129-0.287-0.288
						c0-0.159,0.129-0.287,0.287-0.287C13.026,23.856,13.154,23.984,13.154,24.143z"/>
					<path class="st0" d="M10.117,24.143c0,0.159-0.128,0.288-0.287,0.288c-0.158,0-0.287-0.129-0.287-0.288
						c0-0.159,0.129-0.287,0.287-0.287C9.989,23.856,10.117,23.984,10.117,24.143z"/>
					<path class="st0" d="M11.13,24.143c0,0.159-0.128,0.288-0.287,0.288c-0.157,0-0.287-0.129-0.287-0.288
						c0-0.159,0.129-0.287,0.287-0.287C11.001,23.856,11.13,23.984,11.13,24.143z"/>
					<path class="st0" d="M12.142,24.143c0,0.159-0.129,0.288-0.287,0.288c-0.159,0-0.287-0.129-0.287-0.288
						c0-0.159,0.128-0.287,0.287-0.287C12.013,23.856,12.142,23.984,12.142,24.143z"/>
				</g>
			</g>
			<g>
				<g>
					<path class="st0" d="M10.556,32.977c0-0.158-0.129-0.286-0.287-0.286c-0.158,0-0.287,0.128-0.287,0.286
						c0,0.159,0.129,0.287,0.287,0.287C10.427,33.264,10.556,33.135,10.556,32.977z"/>
					<path class="st0" d="M11.636,32.977c0-0.158-0.129-0.286-0.287-0.286c-0.158,0-0.287,0.128-0.287,0.286
						c0,0.159,0.129,0.287,0.287,0.287C11.507,33.264,11.636,33.135,11.636,32.977z"/>
					<path class="st0" d="M12.716,32.977c0-0.158-0.128-0.286-0.287-0.286c-0.158,0-0.287,0.128-0.287,0.286
						c0,0.159,0.129,0.287,0.287,0.287C12.588,33.264,12.716,33.135,12.716,32.977z"/>
				</g>
				<g>
					<path class="st0" d="M11.636,31.05c0-0.159-0.129-0.287-0.287-0.287c-0.158,0-0.287,0.128-0.287,0.287
						c0,0.158,0.129,0.287,0.287,0.287C11.507,31.337,11.636,31.208,11.636,31.05z"/>
				</g>
				<g>
					<path class="st0" d="M13.154,33.94c0-0.159-0.128-0.287-0.287-0.287c-0.158,0-0.287,0.129-0.287,0.287
						c0,0.159,0.129,0.287,0.287,0.287C13.026,34.227,13.154,34.099,13.154,33.94z"/>
					<path class="st0" d="M10.117,33.94c0-0.159-0.128-0.287-0.287-0.287c-0.158,0-0.287,0.129-0.287,0.287
						c0,0.159,0.129,0.287,0.287,0.287C9.989,34.227,10.117,34.099,10.117,33.94z"/>
					<path class="st0" d="M11.13,33.94c0-0.159-0.128-0.287-0.287-0.287c-0.157,0-0.287,0.129-0.287,0.287
						c0,0.159,0.129,0.287,0.287,0.287C11.001,34.227,11.13,34.099,11.13,33.94z"/>
					<path class="st0" d="M12.142,33.94c0-0.159-0.129-0.287-0.287-0.287c-0.159,0-0.287,0.129-0.287,0.287
						c0,0.159,0.128,0.287,0.287,0.287C12.013,34.227,12.142,34.099,12.142,33.94z"/>
				</g>
				<g>
					<path class="st0" d="M13.154,32.014c0-0.158-0.128-0.287-0.287-0.287c-0.158,0-0.287,0.129-0.287,0.287
						c0,0.159,0.129,0.287,0.287,0.287C13.026,32.3,13.154,32.172,13.154,32.014z"/>
					<path class="st0" d="M10.117,32.014c0-0.158-0.128-0.287-0.287-0.287c-0.158,0-0.287,0.129-0.287,0.287
						c0,0.159,0.129,0.287,0.287,0.287C9.989,32.3,10.117,32.172,10.117,32.014z"/>
					<path class="st0" d="M11.13,32.014c0-0.158-0.128-0.287-0.287-0.287c-0.157,0-0.287,0.129-0.287,0.287
						c0,0.159,0.129,0.287,0.287,0.287C11.001,32.3,11.13,32.172,11.13,32.014z"/>
					<path class="st0" d="M12.142,32.014c0-0.158-0.129-0.287-0.287-0.287c-0.159,0-0.287,0.129-0.287,0.287
						c0,0.159,0.128,0.287,0.287,0.287C12.013,32.3,12.142,32.172,12.142,32.014z"/>
				</g>
			</g>
		</g>
	</g>
</g>
<g>
	<path class="st58" d="M41.933,37.429c0,0.44-0.36,0.8-0.8,0.8H29.926c-0.44,0-0.8-0.36-0.8-0.8v-6.404c0-0.44,0.36-0.8,0.8-0.8
		h11.207c0.44,0,0.8,0.36,0.8,0.8V37.429z"/>
	<rect x="29.125" y="31.506" class="st0" width="12.808" height="2.401"/>
	<path class="st110" d="M28.845,37.429v-6.404c0-0.596,0.485-1.081,1.081-1.081h11.207c0.596,0,1.081,0.485,1.081,1.081v6.404
		c0,0.596-0.485,1.081-1.081,1.081H29.926C29.33,38.51,28.845,38.025,28.845,37.429z M41.653,31.025c0-0.287-0.233-0.52-0.52-0.52
		H29.926c-0.287,0-0.52,0.233-0.52,0.52v6.404c0,0.287,0.233,0.52,0.52,0.52h11.207c0.287,0,0.52-0.233,0.52-0.52V31.025z"/>
	<g>
		<rect x="30.686" y="35.088" class="st57" width="2.401" height="0.56"/>
		<rect x="30.686" y="36.209" class="st57" width="4.803" height="0.56"/>
	</g>
	<g>
		<rect x="39.812" y="35.088" class="st57" width="0.56" height="0.56"/>
		<rect x="38.691" y="35.088" class="st57" width="0.56" height="0.56"/>
		<rect x="37.571" y="35.088" class="st57" width="0.56" height="0.56"/>
	</g>
</g>
<g>
	<circle class="st0" cx="22.824" cy="15.286" r="3.782"/>
	<path class="st59" d="M22.88,19.194c-2.174,0-3.943-1.769-3.943-3.943s1.769-3.943,3.943-3.943s3.943,1.769,3.943,3.943
		S25.054,19.194,22.88,19.194 M22.88,11.623c-2,0-3.628,1.627-3.628,3.628s1.627,3.628,3.628,3.628s3.628-1.627,3.628-3.628
		S24.88,11.623,22.88,11.623"/>
	<path class="st131" d="M26.04,15.41h-0.631c-0.087,0-0.158-0.071-0.158-0.158s0.071-0.158,0.158-0.158h0.631
		c0.087,0,0.158,0.071,0.158,0.158S26.127,15.41,26.04,15.41"/>
	<path class="st131" d="M26.04,15.41h-0.631c-0.087,0-0.158-0.071-0.158-0.158s0.071-0.158,0.158-0.158h0.631
		c0.087,0,0.158,0.071,0.158,0.158S26.127,15.41,26.04,15.41"/>
	<path class="st131" d="M24.476,18.166c-0.055,0-0.108-0.028-0.137-0.079l-0.28-0.486c-0.044-0.076-0.018-0.172,0.058-0.215
		c0.075-0.044,0.172-0.018,0.215,0.058l0.28,0.486c0.044,0.076,0.018,0.172-0.058,0.215C24.53,18.16,24.502,18.166,24.476,18.166"/>
	<path class="st131" d="M25.11,14.077c-0.055,0-0.108-0.028-0.137-0.079c-0.044-0.076-0.018-0.172,0.058-0.215l0.486-0.28
		c0.076-0.044,0.172-0.018,0.215,0.058c0.044,0.075,0.018,0.172-0.058,0.215l-0.486,0.28C25.164,14.07,25.137,14.077,25.11,14.077"
		/>
	<path class="st131" d="M25.648,16.956c-0.027,0-0.054-0.007-0.079-0.021l-0.486-0.28c-0.076-0.044-0.101-0.14-0.058-0.215
		c0.044-0.076,0.14-0.101,0.215-0.058l0.486,0.281c0.075,0.044,0.101,0.14,0.058,0.215C25.755,16.928,25.702,16.956,25.648,16.956"
		/>
	<path class="st131" d="M24.152,13.097c-0.027,0-0.054-0.007-0.079-0.021c-0.076-0.044-0.101-0.14-0.058-0.215l0.28-0.486
		c0.044-0.076,0.14-0.102,0.215-0.058c0.075,0.044,0.101,0.14,0.058,0.215l-0.28,0.486C24.26,13.069,24.207,13.097,24.152,13.097"/>
	<polygon class="st131" points="23.043,17.145 22.727,17.145 22.727,14.937 24.305,14.937 24.305,15.253 23.043,15.253 	"/>
	<path class="st131" d="M22.885,12.729c-0.087,0-0.158-0.071-0.158-0.158v-0.473c0-0.087,0.071-0.158,0.158-0.158
		s0.158,0.071,0.158,0.158v0.473C23.043,12.658,22.972,12.729,22.885,12.729"/>
	<path class="st131" d="M22.885,18.565c-0.087,0-0.158-0.071-0.158-0.158v-0.473c0-0.087,0.071-0.158,0.158-0.158
		s0.158,0.071,0.158,0.158v0.473C23.043,18.494,22.972,18.565,22.885,18.565"/>
	<path class="st131" d="M20.361,15.41H19.73c-0.087,0-0.158-0.071-0.158-0.158s0.071-0.158,0.158-0.158h0.631
		c0.087,0,0.158,0.071,0.158,0.158S20.448,15.41,20.361,15.41"/>
	<path class="st131" d="M22.885,12.729c-0.087,0-0.158-0.071-0.158-0.158v-0.473c0-0.087,0.071-0.158,0.158-0.158
		s0.158,0.071,0.158,0.158v0.473C23.043,12.658,22.972,12.729,22.885,12.729"/>
	<path class="st131" d="M22.885,18.565c-0.087,0-0.158-0.071-0.158-0.158v-0.473c0-0.087,0.071-0.158,0.158-0.158
		s0.158,0.071,0.158,0.158v0.473C23.043,18.494,22.972,18.565,22.885,18.565"/>
	<path class="st131" d="M20.361,15.41H19.73c-0.087,0-0.158-0.071-0.158-0.158s0.071-0.158,0.158-0.158h0.631
		c0.087,0,0.158,0.071,0.158,0.158S20.448,15.41,20.361,15.41"/>
	<path class="st131" d="M21.277,18.166c-0.027,0-0.054-0.007-0.079-0.021c-0.076-0.044-0.101-0.14-0.058-0.215l0.28-0.486
		c0.044-0.076,0.14-0.101,0.215-0.058c0.075,0.044,0.101,0.14,0.058,0.215l-0.28,0.486C21.384,18.138,21.331,18.166,21.277,18.166"
		/>
	<path class="st131" d="M20.643,14.077c-0.027,0-0.054-0.007-0.079-0.021l-0.486-0.28c-0.075-0.044-0.101-0.14-0.058-0.215
		c0.044-0.075,0.14-0.101,0.215-0.058l0.486,0.28c0.075,0.044,0.101,0.14,0.058,0.215C20.75,14.048,20.697,14.077,20.643,14.077"/>
	<path class="st131" d="M20.105,16.956c-0.055,0-0.108-0.028-0.137-0.079c-0.044-0.076-0.018-0.172,0.058-0.215l0.486-0.281
		c0.075-0.044,0.172-0.018,0.215,0.058c0.044,0.075,0.018,0.172-0.058,0.215l-0.486,0.28C20.159,16.949,20.131,16.956,20.105,16.956
		"/>
	<path class="st131" d="M21.601,13.097c-0.055,0-0.108-0.028-0.137-0.079l-0.28-0.486c-0.044-0.076-0.018-0.172,0.058-0.215
		c0.075-0.044,0.172-0.018,0.215,0.058l0.28,0.486c0.044,0.076,0.018,0.172-0.058,0.215C21.654,13.09,21.627,13.097,21.601,13.097"
		/>
</g>
</svg>
