<?xml version="1.0" encoding="utf-8"?>
<!-- Generator: Adobe Illustrator 22.0.1, SVG Export Plug-In . SVG Version: 6.00 Build 0)  -->
<svg version="1.1" id="Layer_1" xmlns="http://www.w3.org/2000/svg" xmlns:xlink="http://www.w3.org/1999/xlink" x="0px" y="0px"
	 viewBox="0 0 50 50" style="enable-background:new 0 0 50 50;" xml:space="preserve">
<style type="text/css">
	.st0{fill:#FFFFFF;}
	.st1{fill:#414042;}
	.st2{fill:#9ECFEF;}
	.st3{fill:#FFCE44;}
	.st4{fill:#FFE167;}
	.st5{fill:#F5CC73;}
	.st6{clip-path:url(#SVGID_2_);}
	.st7{clip-path:url(#SVGID_4_);}
	.st8{clip-path:url(#SVGID_6_);}
	.st9{clip-path:url(#SVGID_8_);}
	.st10{clip-path:url(#SVGID_10_);}
	.st11{clip-path:url(#SVGID_12_);}
	.st12{clip-path:url(#SVGID_14_);}
	.st13{clip-path:url(#SVGID_16_);}
	.st14{clip-path:url(#SVGID_18_);}
	.st15{clip-path:url(#SVGID_20_);}
	.st16{clip-path:url(#SVGID_22_);}
	.st17{clip-path:url(#SVGID_24_);}
	.st18{clip-path:url(#SVGID_26_);}
	.st19{clip-path:url(#SVGID_28_);}
	.st20{clip-path:url(#SVGID_30_);}
	.st21{clip-path:url(#SVGID_34_);}
	.st22{clip-path:url(#SVGID_36_);fill:#9ECFEF;}
	.st23{clip-path:url(#SVGID_38_);}
	.st24{clip-path:url(#SVGID_40_);}
	.st25{clip-path:url(#SVGID_42_);}
	.st26{clip-path:url(#SVGID_44_);}
	.st27{clip-path:url(#SVGID_46_);fill:#414042;}
	.st28{clip-path:url(#SVGID_38_);fill-rule:evenodd;clip-rule:evenodd;fill:#414042;}
	.st29{clip-path:url(#SVGID_48_);}
	.st30{clip-path:url(#SVGID_52_);}
	.st31{clip-path:url(#SVGID_56_);}
	.st32{clip-path:url(#SVGID_58_);fill:#F77C4B;}
	.st33{clip-path:url(#SVGID_60_);}
	.st34{clip-path:url(#SVGID_62_);fill:#FFFFFF;}
	.st35{clip-path:url(#SVGID_64_);}
	.st36{clip-path:url(#SVGID_66_);fill:#414042;}
	.st37{clip-path:url(#SVGID_68_);}
	.st38{clip-path:url(#SVGID_70_);fill:#414042;}
	.st39{clip-path:url(#SVGID_72_);}
	.st40{clip-path:url(#SVGID_74_);fill:#414042;}
	.st41{clip-path:url(#SVGID_76_);}
	.st42{clip-path:url(#SVGID_78_);fill:#F77C4B;}
	.st43{clip-path:url(#SVGID_80_);}
	.st44{clip-path:url(#SVGID_82_);fill:#FFFFFF;}
	.st45{clip-path:url(#SVGID_84_);}
	.st46{clip-path:url(#SVGID_86_);fill:#FFFFFF;}
	.st47{clip-path:url(#SVGID_88_);}
	.st48{clip-path:url(#SVGID_90_);fill:#414042;}
	.st49{clip-path:url(#SVGID_92_);}
	.st50{clip-path:url(#SVGID_94_);fill:#414042;}
	.st51{clip-path:url(#SVGID_96_);}
	.st52{clip-path:url(#SVGID_98_);fill:#414042;}
	.st53{clip-path:url(#SVGID_100_);}
	.st54{clip-path:url(#SVGID_102_);fill:#414042;}
	.st55{clip-path:url(#SVGID_104_);}
	.st56{clip-path:url(#SVGID_106_);fill:#414042;}
	.st57{fill:#41464B;}
	.st58{fill:#4CBED8;}
	.st59{fill:#FF7443;}
	.st60{fill:none;stroke:#359CDB;stroke-width:0.393;stroke-linecap:round;stroke-linejoin:round;stroke-miterlimit:10;}
	.st61{fill:#AFAFAF;}
	.st62{fill:#FED65C;}
	.st63{clip-path:url(#SVGID_108_);}
	.st64{fill:#4CBDD8;}
	.st65{fill:#F9D264;}
	.st66{fill:#F9BB7D;}
	.st67{fill:#41464B;stroke:#414042;stroke-width:0.4;stroke-linecap:round;stroke-linejoin:round;stroke-miterlimit:10;}
	.st68{clip-path:url(#SVGID_110_);}
	.st69{clip-path:url(#SVGID_112_);}
	.st70{clip-path:url(#SVGID_114_);}
	.st71{clip-path:url(#SVGID_116_);}
	.st72{clip-path:url(#SVGID_118_);}
	.st73{clip-path:url(#SVGID_120_);}
	.st74{clip-path:url(#SVGID_122_);}
	.st75{clip-path:url(#SVGID_124_);fill:#414042;}
	.st76{clip-path:url(#SVGID_126_);}
	.st77{clip-path:url(#SVGID_128_);}
	.st78{clip-path:url(#SVGID_130_);}
	.st79{clip-path:url(#SVGID_132_);}
	.st80{clip-path:url(#SVGID_134_);}
	.st81{clip-path:url(#SVGID_136_);}
	.st82{clip-path:url(#SVGID_138_);}
	.st83{clip-path:url(#SVGID_140_);}
	.st84{clip-path:url(#SVGID_142_);}
	.st85{clip-path:url(#SVGID_144_);}
	.st86{clip-path:url(#SVGID_146_);}
	.st87{clip-path:url(#SVGID_148_);}
	.st88{clip-path:url(#SVGID_150_);}
	.st89{clip-path:url(#SVGID_152_);fill:#FFFFFF;}
	.st90{clip-path:url(#SVGID_154_);}
	.st91{clip-path:url(#SVGID_156_);}
	.st92{clip-path:url(#SVGID_158_);}
	.st93{clip-path:url(#SVGID_160_);}
	.st94{clip-path:url(#SVGID_162_);}
	.st95{clip-path:url(#SVGID_164_);}
	.st96{clip-path:url(#SVGID_166_);}
	.st97{clip-path:url(#SVGID_168_);}
	.st98{clip-path:url(#SVGID_170_);}
	.st99{clip-path:url(#SVGID_172_);}
	.st100{clip-path:url(#SVGID_174_);}
	.st101{clip-path:url(#SVGID_176_);}
	.st102{clip-path:url(#SVGID_178_);}
	.st103{clip-path:url(#SVGID_180_);fill:#414042;}
	.st104{clip-path:url(#SVGID_182_);}
	.st105{clip-path:url(#SVGID_184_);}
	.st106{clip-path:url(#SVGID_186_);}
	.st107{clip-path:url(#SVGID_188_);}
	.st108{clip-path:url(#SVGID_190_);}
	.st109{clip-path:url(#SVGID_192_);}
	.st110{fill:#41464B;stroke:#41464B;stroke-width:0.2;stroke-miterlimit:10;}
	.st111{clip-path:url(#SVGID_194_);}
	.st112{clip-path:url(#SVGID_196_);}
	.st113{clip-path:url(#SVGID_198_);}
	.st114{clip-path:url(#SVGID_200_);}
	.st115{clip-path:url(#SVGID_202_);}
	.st116{clip-path:url(#SVGID_204_);}
	.st117{clip-path:url(#SVGID_206_);}
	.st118{clip-path:url(#SVGID_208_);fill:#414042;}
	.st119{clip-path:url(#SVGID_210_);}
	.st120{clip-path:url(#SVGID_212_);}
	.st121{clip-path:url(#SVGID_214_);}
	.st122{clip-path:url(#SVGID_216_);}
	.st123{clip-path:url(#SVGID_218_);}
	.st124{clip-path:url(#SVGID_220_);}
	.st125{fill:#FFD15D;}
	.st126{fill:#475059;}
	.st127{fill:#41464B;stroke:#41464B;stroke-width:0.223;stroke-linecap:round;stroke-linejoin:round;stroke-miterlimit:10;}
	.st128{fill:#41464B;stroke:#41464B;stroke-width:0.223;stroke-miterlimit:10;}
	.st129{fill:#41464B;stroke:#41464B;stroke-width:0.212;stroke-miterlimit:10;}
	.st130{fill:#5FE0ED;}
	.st131{fill:#48515A;}
	.st132{fill:#41464B;stroke:#41464B;stroke-width:0.2104;stroke-miterlimit:10;}
	.st133{fill:#41464B;stroke:#41464B;stroke-width:0.21;stroke-linecap:round;stroke-linejoin:round;stroke-miterlimit:10;}
	.st134{fill:#41464B;stroke:#41464B;stroke-width:0.2086;stroke-linecap:round;stroke-linejoin:round;stroke-miterlimit:10;}
	.st135{fill:#FDBE11;}
	.st136{fill:#41464B;stroke:#41464B;stroke-width:0.2513;stroke-miterlimit:10;}
	.st137{clip-path:url(#SVGID_222_);}
	.st138{clip-path:url(#SVGID_224_);}
	.st139{clip-path:url(#SVGID_226_);}
	.st140{clip-path:url(#SVGID_228_);}
	.st141{clip-path:url(#SVGID_230_);}
	.st142{clip-path:url(#SVGID_232_);}
	.st143{clip-path:url(#SVGID_234_);}
	.st144{clip-path:url(#SVGID_236_);fill:#414042;}
	.st145{clip-path:url(#SVGID_238_);}
	.st146{clip-path:url(#SVGID_240_);}
	.st147{clip-path:url(#SVGID_242_);}
	.st148{clip-path:url(#SVGID_244_);}
	.st149{clip-path:url(#SVGID_246_);}
	.st150{clip-path:url(#SVGID_248_);}
	.st151{clip-path:url(#SVGID_250_);}
	.st152{clip-path:url(#SVGID_252_);}
	.st153{clip-path:url(#SVGID_254_);}
	.st154{clip-path:url(#SVGID_256_);}
	.st155{clip-path:url(#SVGID_258_);}
	.st156{clip-path:url(#SVGID_260_);}
	.st157{clip-path:url(#SVGID_262_);}
	.st158{clip-path:url(#SVGID_264_);fill:#414042;}
	.st159{clip-path:url(#SVGID_266_);}
	.st160{clip-path:url(#SVGID_268_);}
	.st161{clip-path:url(#SVGID_270_);}
	.st162{clip-path:url(#SVGID_272_);}
	.st163{clip-path:url(#SVGID_274_);}
	.st164{clip-path:url(#SVGID_276_);}
	.st165{fill:#DEDEDD;}
	.st166{fill:#41464B;stroke:#41464B;stroke-width:0.2327;stroke-miterlimit:10;}
	.st167{fill:#41464B;stroke:#41464B;stroke-width:0.2327;stroke-linecap:round;stroke-linejoin:round;stroke-miterlimit:10;}
	.st168{fill:#F58E70;}
	.st169{clip-path:url(#SVGID_278_);}
	.st170{fill:#41464B;stroke:#41464B;stroke-width:0.2316;stroke-miterlimit:10;}
	.st171{fill:#FFB936;}
	.st172{fill:#E6E7E8;}
	.st173{clip-path:url(#SVGID_280_);}
	.st174{clip-path:url(#SVGID_282_);}
	.st175{clip-path:url(#SVGID_284_);}
	.st176{clip-path:url(#SVGID_286_);}
	.st177{clip-path:url(#SVGID_288_);}
	.st178{clip-path:url(#SVGID_290_);}
	.st179{clip-path:url(#SVGID_292_);}
	.st180{clip-path:url(#SVGID_294_);fill:#FFFFFF;}
	.st181{clip-path:url(#SVGID_296_);}
	.st182{clip-path:url(#SVGID_298_);}
	.st183{clip-path:url(#SVGID_300_);}
	.st184{clip-path:url(#SVGID_302_);}
	.st185{clip-path:url(#SVGID_304_);}
	.st186{clip-path:url(#SVGID_306_);}
	.st187{clip-path:url(#SVGID_308_);}
	.st188{clip-path:url(#SVGID_310_);}
	.st189{clip-path:url(#SVGID_312_);}
	.st190{clip-path:url(#SVGID_314_);}
	.st191{clip-path:url(#SVGID_316_);}
	.st192{clip-path:url(#SVGID_318_);}
	.st193{clip-path:url(#SVGID_320_);}
	.st194{clip-path:url(#SVGID_322_);fill:#FFFFFF;}
	.st195{clip-path:url(#SVGID_324_);}
	.st196{clip-path:url(#SVGID_326_);}
	.st197{clip-path:url(#SVGID_328_);}
	.st198{clip-path:url(#SVGID_330_);}
	.st199{clip-path:url(#SVGID_332_);}
	.st200{clip-path:url(#SVGID_334_);}
</style>
<g>
	<polygon class="st0" points="13.135,33.02 11.26,33.02 11.669,32.211 13.06,31.887 	"/>
	<path class="st0" d="M15.392,34.629l-1.118,0.283c-0.514,0-0.999-0.694-0.999-1.209l-0.119-1.894h2.236V34.629z"/>
	<rect x="31.431" y="25.238" class="st0" width="8.092" height="11.527"/>
	<path class="st0" d="M34.714,14.222h-3.264v-1.62h2.288c0.539,0,0.977,0.437,0.977,0.977V14.222z"/>
	<polygon class="st0" points="36.383,15.458 19.782,15.518 19.782,14.42 36.982,14.42 	"/>
	<g>
		<g>
			<g>
				<polygon class="st0" points="29.492,37.16 19.252,37.16 19.252,35.879 29.492,35.879 30.336,36.578 				"/>
				<path class="st0" d="M32.569,34.961H15.552v-21.1c0-0.516,0.418-0.934,0.934-0.934h16.083l2.23,0.904v0.716l-2.23-0.07V34.961z"
					/>
				<path class="st125" d="M32.403,18.924c0-1.163,0.943-2.106,2.106-2.106c1.163,0,2.106,0.943,2.106,2.106
					c0,1.163-0.943,2.106-2.106,2.106C33.346,21.03,32.403,20.087,32.403,18.924"/>
				<path class="st126" d="M34.859,19.734h-0.651c-0.238,0-0.418-0.17-0.418-0.395c0-0.089,0.073-0.162,0.162-0.162
					c0.09,0,0.162,0.073,0.162,0.162c0,0.068,0.079,0.071,0.094,0.071h0.651c0.073,0,0.133-0.06,0.133-0.133v-0.058
					c0-0.073-0.06-0.133-0.133-0.133h-0.677c-0.268,0-0.486-0.218-0.486-0.486s0.218-0.486,0.486-0.486h0.725
					c0.217,0,0.369,0.136,0.369,0.33c0,0.09-0.072,0.162-0.162,0.162c-0.089,0-0.162-0.072-0.162-0.162h0
					c0,0-0.016-0.006-0.045-0.006h-0.725c-0.089,0-0.162,0.073-0.162,0.162s0.073,0.162,0.162,0.162h0.677
					c0.252,0,0.457,0.205,0.457,0.457v0.058C35.316,19.529,35.111,19.734,34.859,19.734"/>
				<path class="st126" d="M34.506,20.22c-0.09,0-0.162-0.072-0.162-0.162V17.79c0-0.09,0.072-0.162,0.162-0.162
					s0.162,0.072,0.162,0.162v2.268C34.668,20.148,34.596,20.22,34.506,20.22"/>
				<path class="st132" d="M34.928,14.546h-0.324v-0.647c0-0.536-0.436-0.972-0.972-0.972v-0.324c0.715,0,1.296,0.582,1.296,1.296
					V14.546z"/>
				<rect x="18.949" y="15.518" class="st132" width="16.951" height="0.324"/>
				<rect x="16.68" y="12.602" class="st132" width="16.951" height="0.324"/>
				<path class="st0" d="M34.28,13.899v0.161H19.597v0.486c0,0.357-0.291,0.648-0.648,0.648s-0.648-0.291-0.648-0.648v-0.647
					c0-0.23-0.048-0.45-0.135-0.648h15.466C33.989,13.251,34.28,13.541,34.28,13.899"/>
				<path class="st132" d="M14.402,35.123v-0.324c0.546,0,0.991-0.436,0.991-0.972v-1.619l-0.008-18.309
					c0-0.715,0.582-1.296,1.296-1.296c0.715,0,1.296,0.582,1.296,1.296v0.647c0,0.536,0.436,0.972,0.972,0.972
					c0.536,0,0.972-0.436,0.972-0.972v-0.162l17.276,0v0.162c0,0.715-0.582,1.296-1.296,1.296h-2.998l-0.01,8.91l-0.324,0
					l0.01-9.234H35.9c0.481,0,0.881-0.351,0.959-0.81l-16.624,0c-0.08,0.638-0.626,1.134-1.286,1.134
					c-0.715,0-1.296-0.582-1.296-1.296v-0.647c0-0.536-0.436-0.972-0.972-0.972c-0.536,0-0.972,0.436-0.972,0.972v0.485
					l0.008,19.443C15.716,34.541,15.127,35.123,14.402,35.123"/>
				<rect x="14.452" y="34.799" class="st132" width="16.655" height="0.324"/>
				<path class="st132" d="M14.571,35.126c-0.715,0-1.296-0.582-1.296-1.296v-0.583c0-0.572-0.466-1.038-1.038-1.038v-0.324
					c0.751,0,1.362,0.611,1.362,1.362v0.583c0,0.536,0.436,0.972,0.972,0.972V35.126z"/>
				<path class="st132" d="M13.386,33.344h-2.379v-0.162c0-0.715,0.582-1.296,1.296-1.296h3.16c0.09,0,0.162,0.072,0.162,0.162
					c0,0.09-0.072,0.162-0.162,0.162h-3.16c-0.481,0-0.881,0.351-0.959,0.81h2.042c0.09,0,0.162,0.072,0.162,0.162
					S13.475,33.344,13.386,33.344"/>
				<path class="st132" d="M29.099,37.393h-9.334c-0.447,0-0.81-0.363-0.81-0.81c0-0.447,0.363-0.81,0.81-0.81h9.334l1.757,0.81
					L29.099,37.393z M19.765,36.097c-0.268,0-0.486,0.218-0.486,0.486c0,0.268,0.218,0.486,0.486,0.486h9.263l1.054-0.486
					l-1.054-0.486H19.765z"/>
				<rect x="20.674" y="36" class="st132" width="0.324" height="1.231"/>
				<rect x="20.836" y="36.416" class="st57" width="8.103" height="0.324"/>
				<path class="st59" d="M13.764,32.534c0.101,0.217,0.158,0.458,0.158,0.713v0.582c0,0.325,0.241,0.595,0.554,0.641
					c0.327-0.038,0.591-0.317,0.591-0.644v-1.293H13.764z"/>
				<path class="st130" d="M31.431,37.398h8.424v-8.424h-8.424V37.398z M33.375,36.75h-1.296v-1.296h1.296V36.75z M33.375,34.806
					h-1.296V33.51h1.296V34.806z M33.375,32.862h-1.296v-1.296h1.296V32.862z M33.375,30.918h-1.296v-1.296h1.296V30.918z
					 M35.319,36.75h-1.296v-1.296h1.296V36.75z M35.319,34.806h-1.296V33.51h1.296V34.806z M35.319,32.862h-1.296v-1.296h1.296
					V32.862z M35.319,30.918h-1.296v-1.296h1.296V30.918z M37.263,36.75h-1.296v-1.296h1.296V36.75z M37.263,34.806h-1.296V33.51
					h1.296V34.806z M37.263,32.862h-1.296v-1.296h1.296V32.862z M37.263,30.918h-1.296v-1.296h1.296V30.918z M39.207,34.806v1.944
					h-1.296v-1.944V33.51h1.296V34.806z M39.207,32.862h-1.296v-1.296h1.296V32.862z M39.207,30.918h-1.296v-1.296h1.296V30.918z"/>
				<path class="st126" d="M33.537,31.08h-1.62v-1.62h1.62V31.08z M32.241,30.756h0.972v-0.972h-0.972V30.756z"/>
				<path class="st126" d="M33.537,33.024h-1.62v-1.62h1.62V33.024z M32.241,32.7h0.972v-0.972h-0.972V32.7z"/>
				<path class="st126" d="M33.537,34.968h-1.62v-1.62h1.62V34.968z M32.241,34.644h0.972v-0.972h-0.972V34.644z"/>
				<path class="st126" d="M33.537,36.912h-1.62v-1.62h1.62V36.912z M32.241,36.588h0.972v-0.972h-0.972V36.588z"/>
				<path class="st126" d="M35.481,31.08h-1.62v-1.62h1.62V31.08z M34.185,30.756h0.972v-0.972h-0.972V30.756z"/>
				<path class="st126" d="M35.481,33.024h-1.62v-1.62h1.62V33.024z M34.185,32.7h0.972v-0.972h-0.972V32.7z"/>
				<path class="st126" d="M35.481,34.968h-1.62v-1.62h1.62V34.968z M34.185,34.644h0.972v-0.972h-0.972V34.644z"/>
				<path class="st126" d="M35.481,36.912h-1.62v-1.62h1.62V36.912z M34.185,36.588h0.972v-0.972h-0.972V36.588z"/>
				<path class="st126" d="M37.425,31.08h-1.62v-1.62h1.62V31.08z M36.129,30.756h0.972v-0.972h-0.972V30.756z"/>
				<path class="st126" d="M37.425,33.024h-1.62v-1.62h1.62V33.024z M36.129,32.7h0.972v-0.972h-0.972V32.7z"/>
				<path class="st126" d="M37.425,34.968h-1.62v-1.62h1.62V34.968z M36.129,34.644h0.972v-0.972h-0.972V34.644z"/>
				<path class="st126" d="M37.425,36.912h-1.62v-1.62h1.62V36.912z M36.129,36.588h0.972v-0.972h-0.972V36.588z"/>
				<path class="st126" d="M39.369,31.08h-1.62v-1.62h1.62V31.08z M38.073,30.756h0.972v-0.972h-0.972V30.756z"/>
				<path class="st126" d="M39.369,33.024h-1.62v-1.62h1.62V33.024z M38.073,32.7h0.972v-0.972h-0.972V32.7z"/>
				<path class="st126" d="M39.369,36.912h-1.62v-3.564h1.62V36.912z M38.073,36.588h0.972v-2.916h-0.972V36.588z"/>
				<rect x="31.431" y="28.812" class="st126" width="8.424" height="0.324"/>
				<rect x="32.079" y="25.896" class="st2" width="7.128" height="2.592"/>
				<path class="st126" d="M38.235,27.354h-0.324V27.03h0.324V27.354z M37.587,27.354h-0.324V27.03h0.324V27.354z M36.939,27.354
					h-0.324V27.03h0.324V27.354z M36.29,27.354h-0.324V27.03h0.324V27.354z M35.642,27.354h-0.324V27.03h0.324V27.354z
					 M34.994,27.354H34.67V27.03h0.324V27.354z M34.346,27.354h-0.324V27.03h0.324V27.354z M33.698,27.354h-0.324V27.03h0.324
					V27.354z M33.05,27.354h-0.323V27.03h0.323V27.354z"/>
				<polygon class="st132" points="39.855,28.966 39.531,28.966 39.531,25.563 31.755,25.563 31.755,28.966 31.431,28.966 
					31.431,25.238 39.855,25.238 				"/>
				<path class="st133" d="M19.279,28.479h-1.296v-6.157h1.296V28.479z M18.307,28.155h0.648v-5.509h-0.648V28.155z"/>
				<path class="st133" d="M22.941,28.479h-1.296V21.35h1.296V28.479z M21.969,28.155h0.648v-6.481h-0.648V28.155z"/>
				<path class="st133" d="M21.061,28.479h-1.296v-8.75h1.296V28.479z M20.089,28.155h0.648v-8.102h-0.648V28.155z"/>
				<path class="st133" d="M24.788,28.479h-1.296v-9.722h1.296V28.479z M23.816,28.155h0.648v-9.074h-0.648V28.155z"/>
				<path class="st133" d="M26.737,28.479h-1.296v-9.722h1.296V28.479z M25.765,28.155h0.648v-9.074h-0.648V28.155z"/>
				<path class="st133" d="M28.676,28.479H27.38v-8.75h1.296V28.479z M27.704,28.155h0.648v-8.102h-0.648V28.155z"/>
				<path class="st133" d="M30.621,28.479h-1.296v-11.99h1.296V28.479z M29.649,28.155h0.648V16.813h-0.648V28.155z"/>
				<rect x="17.982" y="28.968" class="st134" width="1.279" height="0.324"/>
				<rect x="19.765" y="28.968" class="st134" width="1.279" height="0.324"/>
				<rect x="21.645" y="28.968" class="st134" width="1.279" height="0.324"/>
				<rect x="23.491" y="28.968" class="st134" width="1.279" height="0.324"/>
				<rect x="25.441" y="28.968" class="st134" width="1.279" height="0.324"/>
				<rect x="27.38" y="28.968" class="st134" width="1.279" height="0.324"/>
				<rect x="29.325" y="28.968" class="st134" width="1.279" height="0.324"/>
				<rect x="18.203" y="30.264" class="st133" width="5.833" height="0.324"/>
				<rect x="18.203" y="31.074" class="st133" width="5.833" height="0.324"/>
				<rect x="18.144" y="31.887" class="st133" width="5.833" height="0.324"/>
				<rect x="18.203" y="32.694" class="st133" width="5.833" height="0.324"/>
				<rect x="24.626" y="30.264" class="st133" width="5.833" height="0.324"/>
				<rect x="24.626" y="31.074" class="st133" width="5.833" height="0.324"/>
				<rect x="24.626" y="31.887" class="st133" width="5.833" height="0.324"/>
				<rect x="24.626" y="32.694" class="st133" width="5.833" height="0.324"/>
				<g>
					<g>
						<path class="st135" d="M17.245,19.836c0,1.433-1.162,2.595-2.595,2.595c-1.433,0-2.594-1.162-2.594-2.595
							c0-1.433,1.162-2.594,2.594-2.594C16.083,17.242,17.245,18.403,17.245,19.836z"/>
						<path class="st136" d="M14.65,22.561c-1.502,0-2.724-1.222-2.724-2.724c0-1.502,1.222-2.724,2.724-2.724
							c1.502,0,2.724,1.222,2.724,2.724C17.375,21.339,16.153,22.561,14.65,22.561z M14.65,17.372c-1.359,0-2.465,1.106-2.465,2.465
							c0,1.359,1.106,2.465,2.465,2.465c1.359,0,2.465-1.106,2.465-2.465C17.115,18.477,16.009,17.372,14.65,17.372z"/>
					</g>
					<g>
						<path class="st0" d="M16.297,18.655h-0.505l-0.158,0.593h-2.345v0.001c-0.006,0-0.013,0-0.02,0.002
							c-0.031,0.011-0.047,0.045-0.036,0.076l0.429,1.225h1.747l0.474-1.778h0.414c0.033,0,0.059-0.026,0.059-0.059
							C16.356,18.681,16.33,18.655,16.297,18.655z M15.547,19.573h-0.255l0.033-0.207h0.278L15.547,19.573z M15.468,19.87h-0.223
							l0.037-0.237h0.249L15.468,19.87z M15.389,20.166h-0.191l0.037-0.237h0.217L15.389,20.166z M14.549,20.433l-0.052-0.208h0.322
							l0.031,0.208H14.549z M14.135,20.433l-0.052-0.208h0.354l0.052,0.208H14.135z M13.807,19.366l0.052,0.207h-0.414l-0.072-0.207
							H13.807z M14.222,19.366l0.052,0.207h-0.354l-0.052-0.207H14.222z M14.408,19.87l-0.059-0.237h0.382l0.035,0.237H14.408z
							 M14.775,19.929l0.036,0.237h-0.328l-0.059-0.237H14.775z M14.347,19.87h-0.354l-0.06-0.237h0.354L14.347,19.87z
							 M14.79,19.632h0.432l-0.037,0.237h-0.359L14.79,19.632z M14.781,19.573l-0.031-0.207h0.515l-0.033,0.207H14.781z
							 M14.721,19.573h-0.387l-0.052-0.207h0.408L14.721,19.573z M13.873,19.632l0.059,0.237h-0.384l-0.083-0.237H13.873z
							 M13.57,19.929h0.378l0.059,0.237h-0.354L13.57,19.929z M14.009,19.929h0.354l0.059,0.237h-0.354L14.009,19.929z
							 M14.879,20.225h0.25l-0.032,0.203c0,0.002,0,0.003,0,0.005H14.91L14.879,20.225z M14.87,20.166l-0.036-0.237h0.341
							l-0.037,0.237H14.87z M13.673,20.225h0.348l0.052,0.208h-0.327L13.673,20.225z M15.156,20.433l0.033-0.208h0.184l-0.055,0.208
							H15.156z"/>
						<path class="st0" d="M15.097,20.611c-0.127,0-0.233,0.089-0.26,0.207H14.23c-0.027-0.119-0.133-0.207-0.26-0.207
							c-0.147,0-0.267,0.119-0.267,0.267c0,0.147,0.12,0.267,0.267,0.267c0.147,0,0.267-0.119,0.267-0.267h0.593
							c0,0.147,0.119,0.267,0.267,0.267c0.147,0,0.267-0.119,0.267-0.267C15.363,20.73,15.244,20.611,15.097,20.611z M13.97,21.025
							c-0.082,0-0.148-0.066-0.148-0.148c0-0.082,0.067-0.148,0.148-0.148c0.082,0,0.148,0.066,0.148,0.148
							C14.119,20.959,14.052,21.025,13.97,21.025z M15.097,21.025c-0.082,0-0.148-0.066-0.148-0.148
							c0-0.082,0.066-0.148,0.148-0.148c0.082,0,0.148,0.066,0.148,0.148C15.245,20.959,15.178,21.025,15.097,21.025z"/>
					</g>
				</g>
			</g>
		</g>
	</g>
</g>
<g>
	<defs>
		<path id="SVGID_279_" d="M4.688,41.869v-0.582H5.27c0.218,0,0.394-0.177,0.394-0.394c0-0.218-0.177-0.394-0.394-0.394H4.688
			v-0.582c0-0.218-0.177-0.394-0.394-0.394c-0.218,0-0.394,0.177-0.394,0.394v0.582H3.317c-0.218,0-0.394,0.177-0.394,0.394
			c0,0.218,0.177,0.394,0.394,0.394h0.582v0.582c0,0.218,0.177,0.394,0.394,0.394C4.512,42.263,4.688,42.086,4.688,41.869"/>
	</defs>
	<use xlink:href="#SVGID_279_"  style="overflow:visible;fill-rule:evenodd;clip-rule:evenodd;fill:#FFFFFF;"/>
	<clipPath id="SVGID_2_">
		<use xlink:href="#SVGID_279_"  style="overflow:visible;"/>
	</clipPath>
	<g class="st6">
		<defs>
			<rect id="SVGID_281_" x="2.923" y="9.06" width="44.778" height="35.335"/>
		</defs>
		<use xlink:href="#SVGID_281_"  style="overflow:visible;fill:#FFFFFF;"/>
		<clipPath id="SVGID_4_">
			<use xlink:href="#SVGID_281_"  style="overflow:visible;"/>
		</clipPath>
		<g class="st7">
			<rect x="1.4" y="37.998" class="st0" width="5.788" height="5.788"/>
		</g>
	</g>
</g>
<g>
	<defs>
		<path id="SVGID_283_" d="M2.856,12.002h1.353c0.215,0,0.39-0.205,0.39-0.457c0-0.252-0.174-0.457-0.39-0.457H2.856
			c-0.215,0-0.39,0.205-0.39,0.457C2.466,11.798,2.641,12.002,2.856,12.002"/>
	</defs>
	<use xlink:href="#SVGID_283_"  style="overflow:visible;fill-rule:evenodd;clip-rule:evenodd;fill:#FFFFFF;"/>
	<clipPath id="SVGID_6_">
		<use xlink:href="#SVGID_283_"  style="overflow:visible;"/>
	</clipPath>
	<g class="st8">
		<defs>
			<rect id="SVGID_285_" x="2.161" y="-0.487" width="44.778" height="35.335"/>
		</defs>
		<use xlink:href="#SVGID_285_"  style="overflow:visible;fill:#FFFFFF;"/>
		<clipPath id="SVGID_8_">
			<use xlink:href="#SVGID_285_"  style="overflow:visible;"/>
		</clipPath>
		<g class="st9">
			<rect x="0.943" y="9.565" class="st0" width="5.178" height="3.96"/>
		</g>
	</g>
</g>
<g>
	<defs>
		<path id="SVGID_287_" d="M6.319,10.784c0.227,0,0.411-0.205,0.411-0.457c0-0.252-0.184-0.457-0.411-0.457H4.705
			c-0.227,0-0.411,0.205-0.411,0.457c0,0.252,0.184,0.457,0.411,0.457H6.319z"/>
	</defs>
	<use xlink:href="#SVGID_287_"  style="overflow:visible;fill-rule:evenodd;clip-rule:evenodd;fill:#FFFFFF;"/>
	<clipPath id="SVGID_10_">
		<use xlink:href="#SVGID_287_"  style="overflow:visible;"/>
	</clipPath>
	<g class="st10">
		<defs>
			<rect id="SVGID_289_" x="2.161" y="-0.487" width="44.778" height="35.335"/>
		</defs>
		<use xlink:href="#SVGID_289_"  style="overflow:visible;fill:#FFFFFF;"/>
		<clipPath id="SVGID_12_">
			<use xlink:href="#SVGID_289_"  style="overflow:visible;"/>
		</clipPath>
		<g class="st11">
			<rect x="2.771" y="8.347" class="st0" width="5.483" height="3.96"/>
		</g>
	</g>
</g>
<g>
	<defs>
		<path id="SVGID_291_" d="M25.698,8.547h0.751v0.751c0,0.213,0.173,0.386,0.386,0.386c0.213,0,0.386-0.173,0.386-0.386V8.547h0.751
			c0.213,0,0.386-0.173,0.386-0.386c0-0.213-0.173-0.386-0.386-0.386h-0.751V7.024c0-0.213-0.173-0.386-0.386-0.386
			c-0.213,0-0.386,0.173-0.386,0.386v0.751h-0.751c-0.213,0-0.386,0.173-0.386,0.386C25.312,8.375,25.485,8.547,25.698,8.547"/>
	</defs>
	<use xlink:href="#SVGID_291_"  style="overflow:visible;fill-rule:evenodd;clip-rule:evenodd;fill:#FFFFFF;"/>
	<clipPath id="SVGID_14_">
		<use xlink:href="#SVGID_291_"  style="overflow:visible;"/>
	</clipPath>
	<g class="st12">
		<defs>
			<rect id="SVGID_293_" x="2.161" y="6.638" width="44.778" height="35.335"/>
		</defs>
		<use xlink:href="#SVGID_293_"  style="overflow:visible;fill:#FFFFFF;"/>
		<clipPath id="SVGID_16_">
			<use xlink:href="#SVGID_293_"  style="overflow:visible;"/>
		</clipPath>
		<rect x="23.789" y="5.115" style="clip-path:url(#SVGID_16_);fill:#FFFFFF;" width="6.092" height="6.092"/>
	</g>
</g>
<g>
	<defs>
		<path id="SVGID_295_" d="M44.886,18.643h0.451v0.451c0,0.212,0.172,0.384,0.384,0.384c0.212,0,0.384-0.172,0.384-0.384v-0.451
			h0.451c0.212,0,0.384-0.172,0.384-0.383c0-0.212-0.172-0.383-0.384-0.383h-0.451v-0.451c0-0.212-0.172-0.383-0.384-0.383
			c-0.212,0-0.384,0.172-0.384,0.383v0.451h-0.451c-0.212,0-0.384,0.172-0.384,0.383C44.503,18.471,44.675,18.643,44.886,18.643"/>
	</defs>
	<use xlink:href="#SVGID_295_"  style="overflow:visible;fill-rule:evenodd;clip-rule:evenodd;fill:#FFFFFF;"/>
	<clipPath id="SVGID_18_">
		<use xlink:href="#SVGID_295_"  style="overflow:visible;"/>
	</clipPath>
	<g class="st14">
		<defs>
			<rect id="SVGID_297_" x="2.161" y="3.638" width="44.778" height="35.335"/>
		</defs>
		<use xlink:href="#SVGID_297_"  style="overflow:visible;fill:#FFFFFF;"/>
		<clipPath id="SVGID_20_">
			<use xlink:href="#SVGID_297_"  style="overflow:visible;"/>
		</clipPath>
		<g class="st15">
			<rect x="42.98" y="15.518" class="st0" width="5.483" height="5.483"/>
		</g>
	</g>
</g>
<g>
	<defs>
		<path id="SVGID_299_" d="M48.221,42.133c0-0.252-0.183-0.457-0.408-0.457h-2.84c-0.225,0-0.408,0.205-0.408,0.457
			s0.183,0.457,0.408,0.457h2.84C48.039,42.59,48.221,42.386,48.221,42.133"/>
	</defs>
	<use xlink:href="#SVGID_299_"  style="overflow:visible;fill-rule:evenodd;clip-rule:evenodd;fill:#FFFFFF;"/>
	<clipPath id="SVGID_22_">
		<use xlink:href="#SVGID_299_"  style="overflow:visible;"/>
	</clipPath>
	<g class="st16">
		<defs>
			<rect id="SVGID_301_" x="3.443" y="10.911" width="44.778" height="35.335"/>
		</defs>
		<use xlink:href="#SVGID_301_"  style="overflow:visible;fill:#FFFFFF;"/>
		<clipPath id="SVGID_24_">
			<use xlink:href="#SVGID_301_"  style="overflow:visible;"/>
		</clipPath>
		<g class="st17">
			<rect x="43.043" y="40.153" class="st0" width="6.702" height="3.96"/>
		</g>
	</g>
</g>
<g>
	<defs>
		<path id="SVGID_303_" d="M34.532,10.598h1.665c0.213,0,0.386-0.205,0.386-0.457c0-0.252-0.173-0.457-0.386-0.457h-1.665
			c-0.213,0-0.386,0.205-0.386,0.457C34.146,10.394,34.319,10.598,34.532,10.598"/>
	</defs>
	<use xlink:href="#SVGID_303_"  style="overflow:visible;fill-rule:evenodd;clip-rule:evenodd;fill:#FFFFFF;"/>
	<clipPath id="SVGID_26_">
		<use xlink:href="#SVGID_303_"  style="overflow:visible;"/>
	</clipPath>
	<g class="st18">
		<defs>
			<rect id="SVGID_305_" x="2.161" y="6.638" width="44.778" height="35.335"/>
		</defs>
		<use xlink:href="#SVGID_305_"  style="overflow:visible;fill:#FFFFFF;"/>
		<clipPath id="SVGID_28_">
			<use xlink:href="#SVGID_305_"  style="overflow:visible;"/>
		</clipPath>
		<g class="st19">
			<rect x="32.623" y="8.161" class="st0" width="5.483" height="3.96"/>
		</g>
	</g>
</g>
</svg>
