<svg xmlns="http://www.w3.org/2000/svg" viewBox="0 0 24 24" enable-background="new 0 0 24 24"><style type="text/css">.st0{fill:#9ECFEF;} .st1{fill:#595959;} .st2{fill:#FFFFFF;} .st3{fill:#595959;stroke:#FFFFFF;stroke-width:0.25;stroke-miterlimit:10;} .st4{fill:#FFFFFF;stroke:#333333;stroke-width:0.25;stroke-miterlimit:10;} .st5{fill:#97C9E8;} .st6{fill:#595959;stroke:#595959;stroke-width:0.25;stroke-miterlimit:10;} .st7{fill:none;} .st8{fill:#595959;stroke:#FFFFFF;stroke-width:0.1916;stroke-miterlimit:10;} .st9{fill:#595959;stroke:#595959;stroke-width:0.2196;stroke-miterlimit:10;} .st10{fill:#FFFFFF;stroke:#595959;stroke-width:0.2196;stroke-miterlimit:10;} .st11{fill:#9ECFEF;stroke:#595959;stroke-width:0.25;stroke-miterlimit:10;} .st12{fill:#CA589D;} .st13{opacity:0.2;fill:#CA589D;} .st14{fill:#3CAF85;} .st15{fill:none;stroke:#2C3251;stroke-width:0.75;stroke-miterlimit:10;} .st16{fill:#595959;stroke:#FFFFFF;stroke-width:0.2467;stroke-miterlimit:10;} .st17{fill:#9ECFEF;stroke:#595959;stroke-width:0.5;stroke-miterlimit:10;} .st18{fill:#595959;stroke:#FFFFFF;stroke-width:0.4959;stroke-miterlimit:10;} .st19{fill:#595959;stroke:#595959;stroke-width:0.2246;stroke-miterlimit:10;} .st20{fill:none;stroke:#595959;stroke-width:0.7572;stroke-miterlimit:10;} .st21{fill:#595959;stroke:#595959;stroke-width:0.5;stroke-miterlimit:10;} .st22{fill:#595959;stroke:#595959;stroke-width:0.2986;stroke-miterlimit:10;} .st23{fill:#9ECFEF;stroke:#595959;stroke-width:0.75;stroke-miterlimit:10;} .st24{fill:#9ECEEE;stroke:#9ECEEE;stroke-width:0.75;stroke-miterlimit:10;} .st25{fill-rule:evenodd;clip-rule:evenodd;fill:#9ECFEF;} .st26{fill:none;stroke:#595959;stroke-miterlimit:10;} .st27{fill:none;stroke:#595959;stroke-width:0.9161;stroke-miterlimit:10;} .st28{fill:#B3B3B3;} .st29{fill:none;stroke:#324044;stroke-width:0.75;stroke-miterlimit:10;} .st30{fill:none;stroke:#FFFFFF;stroke-width:0.75;stroke-miterlimit:10;} .st31{fill:#FFFFFF;stroke:#FFFFFF;stroke-width:0.25;stroke-miterlimit:10;} .st32{fill:none;stroke:#2C3251;stroke-width:0.4222;stroke-miterlimit:10;} .st33{fill-rule:evenodd;clip-rule:evenodd;fill:#595959;stroke:#595959;stroke-width:0.5781;stroke-miterlimit:10;} .st34{fill:#595959;stroke:#595959;stroke-width:0.1786;stroke-miterlimit:10;} .st35{fill:#FFFFFF;stroke:#FFFFFF;stroke-width:0.2467;stroke-miterlimit:10;} .st36{fill-rule:evenodd;clip-rule:evenodd;fill:#595959;} .st37{fill-rule:evenodd;clip-rule:evenodd;fill:#FFFFFF;} .st38{clip-path:url(#SVGID_2_);} .st39{clip-path:url(#SVGID_4_);fill:#9ECFEF;} .st40{clip-path:url(#SVGID_6_);} .st41{clip-path:url(#SVGID_8_);fill:#9ECFEF;} .st42{clip-path:url(#SVGID_10_);} .st43{clip-path:url(#SVGID_12_);fill:#595959;} .st44{clip-path:url(#SVGID_14_);} .st45{clip-path:url(#SVGID_16_);fill:#595959;} .st46{clip-path:url(#SVGID_18_);} .st47{clip-path:url(#SVGID_20_);fill:#595959;} .st48{fill:none;stroke:#324044;stroke-width:0.7863;stroke-miterlimit:10;} .st49{fill:#FFFFFF;stroke:#FFFFFF;stroke-width:0.1017;stroke-linecap:round;stroke-linejoin:round;stroke-miterlimit:10;} .st50{fill:none;stroke:#FFFFFF;stroke-width:0.4;stroke-linecap:round;stroke-linejoin:round;stroke-miterlimit:10;} .st51{fill:#FFFFFF;stroke:#FFFFFF;stroke-width:0.1017;stroke-miterlimit:10;} .st52{fill:#FFFFFF;stroke:#FFFFFF;stroke-width:0.2937;stroke-miterlimit:10;}</style><path class="st49" d="M18.506 16.929v3.208c0 .17-.137.307-.307.307h-14.574c-.17 0-.307-.137-.307-.307v-2.875h-.575v3.445c0 .17.137.307.307.307h15.718c.17 0 .307-.137.307-.307v-3.778h-.569zM19.076 8.859v-6.63c0-.17-.137-.307-.307-.307h-15.719c-.17 0-.307.137-.307.307v4.18h.574v-3.61c0-.17.137-.307.307-.307h14.574c.17 0 .307.137.307.307v6.484l.571-.424z"/><path class="st2" d="M17 10.602c0 .48-.446 1.242-.063 1.831l.094.195-.031-.656v-1.37zM23.278 10.637l-2.06-3.169c-.066-.101-.201-.129-.301-.062l-3.476 2.304c-.057.038-.093.101-.097.17l-.018.39 3.675-2.445 1.882 2.894-3.544 1.941-.246.204c-.155.101-.446.164-.616.201l-1.477.74v-1.14l.093-.038.001 1.311c-.008.169.204.282.353.199l5.739-3.194c.109-.06.16-.201.092-.306zM19.523 10.832c-.442-.68-1.352-.872-2.032-.431-.68.442-.872 1.352-.431 2.032s1.352.872 2.032.431c.68-.442.873-1.352.431-2.032zm-.586 1.793c-.548.356-1.282.201-1.638-.347-.356-.548-.201-1.282.347-1.638.548-.356 1.282-.201 1.638.347.357.548.201 1.282-.347 1.638zM21.089 9.044l.267-.174-.444-.684-.952.619.174.267.684-.445zM22.062 9.955l-.267.174.27.417-.684.444.174.268.952-.619zM18.576 13.44c-.811 0-1.469.658-1.469 1.469s.658 1.468 1.469 1.468 1.469-.658 1.469-1.468c0-.811-.658-1.469-1.469-1.469zm0 2.62c-.623 0-1.14-.517-1.14-1.151 0-.623.517-1.14 1.14-1.14.634 0 1.151.517 1.151 1.14.001.634-.516 1.151-1.151 1.151zM22.049 14.075h.319v-.816h-1.135v.32h.816zM22.368 15.37h-.319v.497h-.816v.319h1.135z"/><path class="st50" d="M19.816 12.628h3.2v4.207h-5.863v-4.207"/><path class="st51" d="M16.778 18.44c0 .143-.116.259-.259.259h-11.92v.571h12.475c.143 0 .259-.116.259-.259v-15.086c0-.143-.116-.259-.259-.259h-12.475v.602h11.921c.143 0 .259.116.259.259v13.913z"/><circle class="st2" cx="10.917" cy="11.975" r="2.585"/><path class="st51" d="M14.68 11.968c0-2.075-1.688-3.763-3.763-3.763s-3.763 1.688-3.763 3.763 1.688 3.763 3.763 3.763 3.763-1.688 3.763-3.763zm-6.943 0c0-1.753 1.426-3.18 3.18-3.18 1.753 0 3.18 1.426 3.18 3.18 0 1.753-1.426 3.18-3.18 3.18-1.753 0-3.18-1.427-3.18-3.18z"/><path class="st52" d="M11.212 14.306v-.909c.574-.118 1.026-.575 1.137-1.152h.892v-.571h-.895c-.117-.569-.566-1.017-1.134-1.135v-.894h-.602v.898c-.562.121-1.005.567-1.121 1.132h-.909v.571h.905c.11.572.556 1.027 1.124 1.149v.912h.603zm-1.17-2.338c0-.483.393-.875.875-.875.483 0 .875.393.875.875 0 .483-.393.875-.875.875-.483 0-.875-.392-.875-.875z"/><path class="st49" d="M5.09 9.585v-3.328c0-.053-.043-.096-.096-.096h-3.898c-.053 0-.096.043-.096.096v3.328c0 .053.043.096.096.096h1.551c.053 0 .096.043.096.096v3.898c0 .053-.043.096-.096.096h-1.551c-.053 0-.096.043-.096.096v3.299c0 .053.043.096.096.096h3.898c.053 0 .096-.043.096-.096v-3.299c0-.053-.043-.096-.096-.096h-1.58c-.053 0-.096-.043-.096-.096v-3.898c0-.053.043-.096.096-.096h1.581c.052 0 .095-.043.095-.096zm-.599 4.857v2.151c0 .053-.043.096-.096.096h-2.725c-.053 0-.096-.043-.096-.096v-2.151c0-.053.043-.096.096-.096h2.725c.053 0 .096.043.096.096zm-2.917-5.456v-2.126c0-.053.043-.096.096-.096h2.725c.053 0 .096.043.096.096v2.126c0 .053-.043.096-.096.096h-2.725c-.053 0-.096-.043-.096-.096z"/></svg>