<svg xmlns="http://www.w3.org/2000/svg" viewBox="0 0 50 50" enable-background="new 0 0 50 50"><path fill="#D1D1D0" d="M45.7 38.4h-42.6c-.9 0-1.6-.7-1.6-1.6 0-.9.7-1.6 1.6-1.6h42.6c.9 0 1.6.7 1.6 1.6 0 .8-.7 1.6-1.6 1.6z"/><path fill="#fff" d="M23.5 16s-6.8 10.6-7.2 12.1c-.5 1.4-2.3 6.4 3.5 8.1l8 .1 8-8.4-8.3-12.1-4 .2z"/><path stroke="#3B3E43" stroke-linecap="round" stroke-linejoin="round" stroke-miterlimit="10" d="M23.5 16s-6.8 10.2-7.2 11.7c-.4 1.4-1.6 8.1 4.2 8.5h7.2M27.6 15.5l8.3 11.9" fill="none"/><path fill="#fff" stroke="#3B3E43" stroke-linecap="round" stroke-linejoin="round" stroke-miterlimit="10" d="M27 9.6c0-.8-.6-1.3-1.3-1.3s-1.3.6-1.3 1.3c0-.7-.6-1.3-1.3-1.3s-1.3.6-1.3 1.3l1.8 5h4l2.1-4.8c0-.8-.6-1.4-1.3-1.4-.9-.1-1.4.5-1.4 1.2"/><path stroke="#3B3E43" stroke-linecap="round" stroke-linejoin="round" stroke-miterlimit="10" d="M24.3 12.1v5.5M26.6 12.1v5.5" fill="none"/><path fill="#fff" stroke="#3B3E43" stroke-linecap="round" stroke-linejoin="round" stroke-miterlimit="10" d="M22.1 13.9h6.6v1.8h-6.6z"/><path fill="#89C33D" d="M22.6 14.3h5.5v.9h-5.5z"/><circle stroke="#3B3E43" stroke-linecap="round" stroke-linejoin="round" stroke-miterlimit="10" cx="26" cy="27.2" r="5.9" fill="none"/><circle fill="#89C33D" cx="25.9" cy="27.2" r="5.2"/><path stroke="#3B3E43" stroke-linecap="round" stroke-linejoin="round" stroke-miterlimit="10" d="M23.8 24c.1-.1.1-.1.2-.1.6-.3 1.3-.6 2-.6 2.1 0 3.8 1.7 3.8 3.8s-1.8 3.7-3.8 3.7-3.8-1.7-3.8-3.8c0-.5.1-1 .3-1.4" fill="none"/><path fill="#3B3E43" d="M25.9 28.8c-.7 0-1-.3-1-.6 0-.2.2-.4.3-.4s.2.3.7.3v-.8c-.5-.2-.9-.3-.9-1 0-.6.5-.9.9-.9v-.1c0-.1 0-.1.1-.1l.1.1v.1c.2 0 .9.1.9.4 0 .1-.1.4-.3.4l-.5-.2v.7c.5.2.9.3.9 1 0 .6-.5.9-.9 1v.1c0 .1-.1.1-.1.1-.1.1-.1 0-.1 0l-.1-.1zm0-2.2v-.6c-.2.1-.3.2-.3.2 0 .3 0 .3.3.4zm.2.8v.6c.2-.1.3-.1.3-.3s0-.1-.3-.3z"/><path fill="#fff" stroke="#3B3E43" stroke-linecap="round" stroke-linejoin="round" stroke-miterlimit="10" d="M33.6 22.9h4.7v2.1h-4.7z"/><path fill="#89C33D" d="M36.1 23.2h1.8v1.8h-1.8z"/><path fill="#fff" stroke="#3B3E43" stroke-linecap="round" stroke-linejoin="round" stroke-miterlimit="10" d="M33.6 25h4.7v2.1h-4.7z"/><path fill="#89C33D" d="M36.1 25.2h1.8v1.8h-1.8z"/><path fill="#fff" stroke="#3B3E43" stroke-linecap="round" stroke-linejoin="round" stroke-miterlimit="10" d="M33.6 27h4.7v2.1h-4.7z"/><path fill="#89C33D" d="M36.1 27.3h1.8v1.8h-1.8z"/><path fill="#fff" stroke="#3B3E43" stroke-linecap="round" stroke-linejoin="round" stroke-miterlimit="10" d="M33.6 29.2h4.7v2.1h-4.7z"/><path fill="#89C33D" d="M36.1 29.4h1.8v1.8h-1.8z"/><path fill="#fff" stroke="#3B3E43" stroke-linecap="round" stroke-linejoin="round" stroke-miterlimit="10" d="M33.6 31.2h4.7v2.1h-4.7z"/><path fill="#89C33D" d="M36.1 31.5h1.8v1.8h-1.8z"/><path fill="#fff" stroke="#3B3E43" stroke-linecap="round" stroke-linejoin="round" stroke-miterlimit="10" d="M33.6 33.3h4.7v2.1h-4.7z"/><path fill="#89C33D" d="M36.1 33.6h1.8v1.6h-1.8z"/><path fill="#fff" stroke="#3B3E43" stroke-linecap="round" stroke-linejoin="round" stroke-miterlimit="10" d="M11.8 27h4.7v2.1h-4.7z"/><path fill="#89C33D" d="M14.4 27.3h1.8v1.8h-1.8z"/><path fill="#fff" stroke="#3B3E43" stroke-linecap="round" stroke-linejoin="round" stroke-miterlimit="10" d="M11.8 29.2h4.7v2.1h-4.7z"/><path fill="#89C33D" d="M14.4 29.4h1.8v1.8h-1.8z"/><path fill="#fff" stroke="#3B3E43" stroke-linecap="round" stroke-linejoin="round" stroke-miterlimit="10" d="M11.8 31.2h4.7v2.1h-4.7z"/><path fill="#89C33D" d="M14.4 31.5h1.8v1.8h-1.8z"/><path fill="#fff" stroke="#3B3E43" stroke-linecap="round" stroke-linejoin="round" stroke-miterlimit="10" d="M11.8 33.3h4.7v2.1h-4.7z"/><path fill="#89C33D" d="M14.4 33.6h1.8v1.6h-1.8z"/><path fill="#fff" stroke="#3B3E43" stroke-linecap="round" stroke-linejoin="round" stroke-miterlimit="10" d="M29.2 31.2h4.7v2.1h-4.7z"/><path fill="#89C33D" d="M31.7 31.5h1.8v1.8h-1.8z"/><path fill="#fff" stroke="#3B3E43" stroke-linecap="round" stroke-linejoin="round" stroke-miterlimit="10" d="M29.2 33.3h4.7v2.1h-4.7z"/><path fill="#89C33D" d="M31.7 33.6h1.8v1.6h-1.8z"/></svg>