<svg xmlns="http://www.w3.org/2000/svg" viewBox="0 0 24 24" enable-background="new 0 0 24 24"><style type="text/css">.st0{fill:#9ECFEF;} .st1{fill:#FFFFFF;stroke:#333333;stroke-width:0.25;stroke-miterlimit:10;} .st2{fill:#97C9E8;} .st3{fill:#595959;} .st4{fill:#595959;stroke:#595959;stroke-width:0.25;stroke-miterlimit:10;} .st5{fill:#FFFFFF;} .st6{fill:none;} .st7{fill:none;stroke:#9ECFEF;stroke-miterlimit:10;} .st8{fill:#595959;stroke:#595959;stroke-width:0.5;stroke-miterlimit:10;} .st9{fill:none;stroke:#595959;stroke-miterlimit:10;} .st10{fill:#9ECFEF;stroke:#595959;stroke-miterlimit:10;} .st11{fill:#9ECFEF;stroke:#595959;stroke-linejoin:round;stroke-miterlimit:10;} .st12{fill:none;stroke:#2C3251;stroke-width:0.75;stroke-miterlimit:10;} .st13{fill:none;stroke:#595959;stroke-width:0.5;stroke-miterlimit:10;} .st14{fill:none;stroke:#595959;stroke-width:0.75;stroke-miterlimit:10;} .st15{fill:#9ECFEF;stroke:#595959;stroke-width:0.25;stroke-miterlimit:10;} .st16{fill:#CA589D;} .st17{opacity:0.2;fill:#CA589D;} .st18{fill:#3CAF85;}</style><path class="st18" d="M19.242 6.44l-.144-.204-.264-.352-.005-.005-.148-.19c-1.832-2.235-4.609-3.659-7.711-3.659-5.495.001-9.97 4.475-9.97 9.97 0 5.499 4.475 9.969 9.969 9.969 5.499 0 9.969-4.47 9.969-9.969.001-2.054-.625-3.969-1.696-5.56zm-8.273 15.084c-5.249 0-9.524-4.271-9.524-9.524s4.275-9.524 9.524-9.524c3.046 0 5.764 1.437 7.507 3.668l.264.357c1.108 1.553 1.757 3.455 1.757 5.499.001 5.254-4.274 9.524-9.528 9.524z"/><path class="st5" d="M19.704 12c0 4.816-3.919 8.73-8.734 8.73-4.811 0-8.73-3.914-8.73-8.73s3.919-8.73 8.73-8.73c2.792 0 5.283 1.318 6.881 3.362l-2.01 1.496c-1.143-1.432-2.899-2.35-4.871-2.35-3.43 0-6.223 2.792-6.223 6.222s2.792 6.222 6.222 6.222c3.434 0 6.222-2.792 6.222-6.222 0-1.318-.412-2.542-1.109-3.545l2.01-1.496c1.017 1.424 1.612 3.167 1.612 5.041z"/><path class="st18" d="M16.548 8.133l-.264-.357c-1.247-1.563-3.162-2.564-5.314-2.564-3.742 0-6.789 3.046-6.789 6.789s3.046 6.789 6.789 6.789c3.747 0 6.789-3.046 6.789-6.789-.001-1.438-.451-2.774-1.211-3.868zm-5.579 10.21c-3.496 0-6.343-2.842-6.343-6.343 0-3.496 2.847-6.343 6.343-6.343 2.003 0 3.793.932 4.957 2.383l.264.357c.71 1.025 1.127 2.268 1.127 3.603 0 3.501-2.847 6.343-6.348 6.343z"/><path class="st5" d="M16.398 12c0 2.994-2.435 5.424-5.428 5.424-2.99 0-5.424-2.431-5.424-5.424 0-2.99 2.435-5.424 5.424-5.424 1.713 0 3.243.797 4.239 2.038l-2.161 1.606c-.504-.587-1.249-.96-2.078-.96-1.511 0-2.74 1.229-2.74 2.74s1.229 2.74 2.74 2.74 2.74-1.229 2.74-2.74c0-.539-.159-1.047-.436-1.471l2.161-1.61c.606.876.963 1.939.963 3.081z"/><path class="st18" d="M13.664 10.28c-.074-.13-.167-.25-.264-.362-.589-.686-1.461-1.122-2.43-1.122-1.767 0-3.204 1.437-3.204 3.204s1.437 3.204 3.204 3.204 3.204-1.437 3.204-3.204c0-.631-.186-1.224-.51-1.72zm-2.695 4.479c-1.521 0-2.759-1.238-2.759-2.759s1.238-2.759 2.759-2.759c.825 0 1.567.362 2.073.941.102.111.19.232.269.357.269.422.422.923.422 1.461 0 1.521-1.238 2.759-2.764 2.759z"/><path class="st5" d="M12.903 12c0 1.064-.866 1.93-1.933 1.93-1.064 0-1.93-.866-1.93-1.93s.866-1.93 1.93-1.93c.577 0 1.096.253 1.45.658l-1.129.84c-.091-.071-.201-.11-.321-.11-.298 0-.538.243-.538.542s.24.542.538.542c.298 0 .542-.243.542-.542l-.032-.182 1.129-.84c.187.296.294.646.294 1.022z"/><path class="st18" d="M11.697 11.74c-.051-.148-.148-.274-.269-.357-.13-.102-.287-.158-.459-.158-.427 0-.77.348-.77.774s.343.774.77.774.774-.348.774-.774c.001-.092-.013-.18-.046-.259zm-.728.589c-.181 0-.329-.148-.329-.329s.148-.329.329-.329l.065.005h.005c.148.037.26.167.26.325l-.005.037c-.019.161-.158.291-.325.291zm11.138-8.332l-.13.097-.431.32-2.147 1.6-.301.223-.13.097-.009.005-.07.051-.148.111-.64.473-1.553 1.159-.357.264-.097.074-.64.478-1.79 1.331-.352.26-.023.014-.645.482-.946.705-.199.148-.204.148-.19.144-.134.042c-.065 0-.134-.032-.176-.088-.074-.097-.056-.241.046-.311l.195-.148h.005l.195-.144.195-.148.946-.705.649-.482.019-.014.357-.264 1.785-1.326.64-.478.102-.074.357-.264 1.558-1.159.635-.473.153-.111.074-.056.125-.097.301-.223 2.077-1.544.505-.376.13-.097c.097-.074.236-.056.311.046.073.096.05.235-.048.31zm-.38-1.317c-.079-.046-.176-.042-.246.014l-2.583 1.943c-.046.032-.079.088-.088.144l-.13.909-.05.342-.01.065-.009.06.028.097.079.088.056.023.06.009.125-.037.009-.005.13-.097.301-.223 2.147-1.6c.046-.037.079-.088.088-.148l.032-.218.046-.311.121-.835c.015-.086-.027-.174-.106-.22zm-2.596 2.977l.107-.719 2.077-1.563-.107.737-2.077 1.545z"/><path class="st5" d="M21.315 3.375l-.107.738-2.077 1.544.106-.719z"/><path class="st18" d="M22.808 4.215l-.83-.121-.311-.046-.199-.028c-.056-.009-.116.005-.162.042l-2.471 1.822-.13.093-.083.116v.005l-.009.06.005.051.023.046.023.037.056.051.056.023.028.009.088.014.352.051.923.134h.032l.134-.042 2.578-1.92c.07-.056.107-.144.083-.232-.024-.087-.098-.152-.186-.165zm-2.671 1.905l-.737-.107 2.096-1.544.719.107-2.078 1.544z"/><path class="st5" d="M22.214 4.576l-2.077 1.544-.738-.106 2.096-1.544z"/></svg>