<svg xmlns="http://www.w3.org/2000/svg" viewBox="0 0 64 64"><defs><style>.cls-1,.cls-5{fill:#fff;}.cls-1,.cls-4,.cls-7{stroke:#4c5c68;stroke-linecap:round;stroke-linejoin:round;}.cls-2{fill:#cee8fa;}.cls-3{fill:#f9ca38;}.cls-4{fill:#4c5c68;stroke-width:0.23px;}.cls-6{fill:#286090;}.cls-7{fill:#febd2e;}</style></defs><title>access-points</title><g id="Layer_1"><path id="_Rectangle_" class="cls-1" d="M16.33 48.34v-37.46h28.97v37.46z"/><rect id="_Rectangle_2" class="cls-2" x="15.6" y="17.62" width="30.43" height="23.79" rx=".35" ry=".35" transform="translate(1.3 60.34) rotate(-90)"/><path class="cls-3" d="M23.4 24.87h18.51v6.26h-18.51z"/><path class="cls-4" d="M24.79 27l-.67.88 1.06-.14v.48l-1.06-.13.68.84-.44.25-.42-1-.46 1-.4-.25.67-.86-1 .13v-.48l1 .13-.69-.85.43-.25.44 1 .43-1zM29.48 27l-.67.88 1.06-.14v.48l-1.06-.13.68.84-.44.25-.42-1-.46 1-.4-.25.67-.86-1 .13v-.48l1 .13-.69-.85.43-.25.44 1 .43-1zM34.18 27l-.67.88 1.06-.14v.48l-1.06-.13.68.84-.44.25-.42-1-.46 1-.4-.25.67-.86-1 .13v-.48l1 .13-.7-.85.43-.25.44 1 .43-1zM38.87 27l-.67.88 1.06-.14v.48l-1.06-.13.68.84-.44.25-.42-1-.46 1-.4-.25.67-.86-1 .13v-.48l1 .13-.69-.85.43-.25.44 1 .43-1z"/><path class="cls-5" d="M22.57 24h.24a1.87 1.87 0 0 1 1.87 1.87v1.13h-4v-1.1a1.87 1.87 0 0 1 1.89-1.9zM19.82 27.17h5.52v4.02h-5.52z"/><path class="cls-6" d="M25.63 26.82h-.63v-.82a2.41 2.41 0 0 0-4.81-.24 2.38 2.38 0 0 0 0 .24v.83h-.49a.28.28 0 0 0-.23 0 .15.15 0 0 0-.05.12v4.35a.4.4 0 0 0 .36.34h5.85a.16.16 0 0 0 .12-.05.28.28 0 0 0 0-.22v-4.37s.12-.18-.12-.18zm-4.83-.82a1.83 1.83 0 1 1 3.67 0v.83h-3.67zm-.19 0a2 2 0 0 1 0-.2v.2zm-.61 1.4h5.21v3.67h-5.21zM22.63 29a.29.29 0 0 0-.29.29v1a.29.29 0 0 0 .58 0v-1a.29.29 0 0 0-.29-.29z"/><path id="_Path_" class="cls-1" d="M27.19 46.26h5.18"/><path id="_Path_2" class="cls-1" d="M29.27 12.96h2.07"/><path id="_Path_3" class="cls-1" d="M11 50.29v-14.91l3.47-4.68h5.38s1.13 1.13-.43 2.86c0 0-3 .43-3.38 2.34s2.08 2.43 2.6 3.82 1.36 6.76-1.26 10.75z"/><path id="_Path_4" class="cls-7" d="M10.03 57.87v-7.49h14.26v7.49"/><g id="_Group_"><path id="_Path_5" class="cls-5" d="M54 42.58v-4.37c-2.08-2-4.25.07-4.25.07l.69 2.22-12.22-.5c-2.15-3.07-4-.16-4-.16v8.63l6.24 5.74v3.62l11.45-.06v-3.51c0-.78 2.08-4.06 2.08-4.06v-4.07"/><path id="_Path_6" class="cls-1" d="M51.89 57.77v-3.51c0-.78 2.08-4.06 2.08-4.06v-4.07"/><path id="_Path_7" class="cls-1" d="M54 42.58v-4.37c-2.08-2-4.25.07-4.25.07l.69 2.22-12.22-.5c-2.15-3.07-4-.16-4-.16v8.63l6.24 5.74v3.62"/><path id="_Path_8" class="cls-5" d="M39.51 38.52l2.24-2.31 2.13-.51 2.11.88 1.51-.47 1.76.38-.13 1.02 3.21 3.26-4.11 2.5h-7.61l-1.5-1 .39-3.75z"/><path id="_Path_9" class="cls-1" d="M38.36 46.38v-18.95a1.44 1.44 0 0 1 1.53-1.93c2.07 0 1.59 1.74 1.59 1.74v10.85"/><path id="_Path_10" class="cls-1" d="M41.77 36.08a2.66 2.66 0 0 1 3.88.23v1.78"/><path id="_Path_11" class="cls-1" d="M46.38 37.05s1.34-2.12 3.42-.09v2.17"/></g></g></svg>