<svg xmlns="http://www.w3.org/2000/svg" viewBox="0 0 64 64" enable-background="new 0 0 64 64"><path fill="#CEE8FA" d="M43.9 33.8v-24.6c0-.5.4-.9.9-.9h3.6c.6 0 1.1.5 1.1 1.1v24.4"/><path stroke="#4C5C68" stroke-linecap="round" stroke-linejoin="round" stroke-miterlimit="10" d="M43.9 33.8v-25.4M36.7 55.4h-18.8c-2.5 0-4.5-2-4.5-4.5v-38.6c0-2.3 1.9-4.1 4.1-4.1h32.9M49.3 33.8v-23.6c0-1.2 1-2.2 2.2-2.2h.5c1.3 0 2.3 1.1 2.3 2.3v21h-2.5M17.7 14.5h10.4M17.7 33.1h21.8M17.7 36.9h19.3M17.7 40.7h16.4M17.7 44.5h14.2M17.7 48.2h11.4M17.7 18.3h7.8M27.4 18.3h12.3" fill="none"/><path fill="#F9CA38" stroke="#4C5C68" stroke-linecap="round" stroke-linejoin="round" stroke-miterlimit="10" d="M17.2 22.1h22.5v7.1h-22.5z"/><path fill="#fff" d="M45.8 55.6c-5.6 0-10.1-4.5-10.1-10.1s4.5-10.1 10.1-10.1 10.1 4.6 10.1 10.1-4.5 10.1-10.1 10.1z"/><path fill="#4C5C68" d="M45.8 35.9c5.3 0 9.6 4.3 9.6 9.6s-4.3 9.6-9.6 9.6-9.6-4.3-9.6-9.6 4.4-9.6 9.6-9.6m0-1c-5.8 0-10.6 4.7-10.6 10.6 0 5.8 4.7 10.6 10.6 10.6 5.8 0 10.6-4.7 10.6-10.6 0-5.8-4.7-10.6-10.6-10.6zM44.5 49c-.1 0-.2 0-.3-.1l-3.5-3.5c-.2-.2-.2-.4 0-.6.2-.2.4-.2.6 0l3.5 3.5c.2.2.2.4 0 .6-.1.1-.2.1-.3.1zM44.5 49c-.1 0-.2 0-.3-.1-.2-.2-.2-.4 0-.6l6.2-6.2c.2-.2.4-.2.6 0 .2.2.2.4 0 .6l-6.2 6.2c-.1.1-.2.1-.3.1z"/></svg>