<?xml version="1.0" encoding="utf-8"?>
<!-- Generator: Adobe Illustrator 22.0.1, SVG Export Plug-In . SVG Version: 6.00 Build 0)  -->
<svg version="1.1" xmlns="http://www.w3.org/2000/svg" xmlns:xlink="http://www.w3.org/1999/xlink" x="0px" y="0px"
	 viewBox="0 0 64 64" style="enable-background:new 0 0 64 64;" xml:space="preserve">
<style type="text/css">
	.st0{fill:#FFFFFF;stroke:#4C5C68;stroke-miterlimit:10;}
	.st1{fill:#F9CA38;}
	.st2{fill:#CEE8FA;stroke:#4C5C68;stroke-linecap:round;stroke-linejoin:round;stroke-miterlimit:10;}
	.st3{fill:#FFFFFF;stroke:#4C5C68;stroke-linecap:round;stroke-linejoin:round;stroke-miterlimit:10;}
	.st4{fill:#CEE8FA;}
	.st5{fill:none;stroke:#4C5C68;stroke-linecap:round;stroke-linejoin:round;stroke-miterlimit:10;}
	.st6{fill:#FFFFFF;}
	.st7{fill:#4C5C68;}
	.st8{fill:#F9CA38;stroke:#4C5C68;stroke-linecap:round;stroke-linejoin:round;stroke-miterlimit:10;}
	.st9{fill:#FFFFFF;stroke:#FEBD2E;stroke-linecap:round;stroke-linejoin:round;stroke-miterlimit:10;}
	.st10{fill:#FEBD2E;stroke:#4C5C68;stroke-linecap:round;stroke-linejoin:round;stroke-miterlimit:10;}
	.st11{fill:#286090;}
	.st12{fill:#969696;}
	.st13{fill:#FFFFFF;stroke:#4C5C68;stroke-width:1.2173;stroke-linecap:round;stroke-linejoin:round;stroke-miterlimit:10;}
	.st14{fill:#FFFFFF;stroke:#4C5C68;stroke-width:0.8881;stroke-linecap:round;stroke-linejoin:round;stroke-miterlimit:10;}
	.st15{fill:none;stroke:#CEE8FA;stroke-width:1.0985;stroke-linecap:round;stroke-linejoin:round;stroke-miterlimit:10;}
	.st16{opacity:0.6;fill:#286090;}
	.st17{fill:none;stroke:#4C5C68;stroke-width:1.0254;stroke-linecap:round;stroke-linejoin:round;stroke-miterlimit:10;}
	.st18{fill:none;stroke:#286090;stroke-linecap:round;stroke-linejoin:round;stroke-miterlimit:10;stroke-dasharray:0,2;}
	.st19{fill:none;stroke:#286090;stroke-linecap:round;stroke-linejoin:round;stroke-miterlimit:10;}
	.st20{fill:#FEBD2E;}
	.st21{fill:none;stroke:#CEE8FA;stroke-linecap:round;stroke-linejoin:round;stroke-miterlimit:10;}
	.st22{fill:none;stroke:#4C5C68;stroke-width:1.0654;stroke-miterlimit:10;}
	.st23{fill:#FFFFFF;stroke:#4C5C68;stroke-width:1.0654;stroke-miterlimit:10;}
	.st24{fill:none;stroke:#4C5C68;stroke-width:1.0985;stroke-linecap:round;stroke-linejoin:round;stroke-miterlimit:10;}
	.st25{fill:none;stroke:#333333;stroke-width:2;stroke-linecap:round;stroke-linejoin:round;stroke-miterlimit:10;}
	.st26{fill:#FFFFFF;stroke:#4C5C68;stroke-width:1.2007;stroke-linecap:round;stroke-linejoin:round;stroke-miterlimit:10;}
	.st27{fill:#CEE8FA;stroke:#4C5C68;stroke-width:1.2007;stroke-linecap:round;stroke-linejoin:round;stroke-miterlimit:10;}
	
		.st28{fill:none;stroke:#4C5C68;stroke-width:1.2007;stroke-linecap:round;stroke-linejoin:round;stroke-miterlimit:10;stroke-dasharray:1.2007,3.6021;}
	.st29{fill:#FEBD2E;stroke:#4C5C68;stroke-width:1.2007;stroke-linecap:round;stroke-linejoin:round;stroke-miterlimit:10;}
	.st30{fill:none;stroke:#4C5C68;stroke-width:1.0828;stroke-linecap:round;stroke-linejoin:round;stroke-miterlimit:10;}
	.st31{fill:none;stroke:#4C5C68;stroke-width:1.1103;stroke-linecap:round;stroke-linejoin:round;stroke-miterlimit:10;}
	.st32{fill:#FFFFFF;stroke:#4C5C68;stroke-width:1.1517;stroke-linecap:round;stroke-linejoin:round;stroke-miterlimit:10;}
	.st33{fill:#CEE8FA;stroke:#4C5C68;stroke-width:0.965;stroke-linecap:round;stroke-linejoin:round;stroke-miterlimit:10;}
	.st34{fill:#286090;stroke:#4C5C68;stroke-width:0.9531;stroke-linecap:round;stroke-linejoin:round;stroke-miterlimit:10;}
	.st35{fill:none;stroke:#4C5C68;stroke-width:1.1517;stroke-linecap:round;stroke-linejoin:round;stroke-miterlimit:10;}
	.st36{fill:#FFFFFF;stroke:#4C5C68;stroke-width:0.9551;stroke-linecap:round;stroke-linejoin:round;stroke-miterlimit:10;}
	.st37{fill:#FFFFFF;stroke:#4C5C68;stroke-width:1.1517;stroke-miterlimit:10;}
	.st38{fill:none;stroke:#4C5C68;stroke-width:0.6689;stroke-linecap:round;stroke-linejoin:round;stroke-miterlimit:10;}
	.st39{fill:#F9CA38;stroke:#4C5C68;stroke-width:0.6689;stroke-linecap:round;stroke-linejoin:round;stroke-miterlimit:10;}
	.st40{fill:#286090;stroke:#4C5C68;stroke-width:0.6689;stroke-linecap:round;stroke-linejoin:round;stroke-miterlimit:10;}
	.st41{fill:#4C5C68;stroke:#4C5C68;stroke-width:0.2347;stroke-linecap:round;stroke-linejoin:round;stroke-miterlimit:10;}
	.st42{fill:#CEE8FA;stroke:#4C5C68;stroke-width:0.8962;stroke-linecap:round;stroke-linejoin:round;stroke-miterlimit:10;}
	.st43{fill:#FFFFFF;stroke:#4C5C68;stroke-width:0.8962;stroke-linecap:round;stroke-linejoin:round;stroke-miterlimit:10;}
	.st44{fill:none;stroke:#4C5C68;stroke-width:0.8962;stroke-linecap:round;stroke-linejoin:round;stroke-miterlimit:10;}
	.st45{fill:none;stroke:#F9CA38;stroke-linecap:round;stroke-linejoin:round;stroke-miterlimit:10;}
	.st46{fill:#4C5C68;stroke:#4C5C68;stroke-width:0.3;stroke-miterlimit:10;}
	.st47{fill:#CEE8FA;stroke:#4C5C68;stroke-width:0.8552;stroke-linecap:round;stroke-linejoin:round;stroke-miterlimit:10;}
	.st48{fill:#FFFFFF;stroke:#4C5C68;stroke-width:0.8552;stroke-linecap:round;stroke-linejoin:round;stroke-miterlimit:10;}
	
		.st49{fill:none;stroke:#4C5C68;stroke-width:0.8552;stroke-linecap:round;stroke-linejoin:round;stroke-miterlimit:10;stroke-dasharray:0.8552,2.5656;}
	.st50{fill:#286090;stroke:#4C5C68;stroke-linecap:round;stroke-linejoin:round;stroke-miterlimit:10;}
	.st51{fill:#286090;stroke:#FFFFFF;stroke-width:2;stroke-miterlimit:10;}
	.st52{fill:none;stroke:#4C5C68;stroke-width:0.8191;stroke-linecap:round;stroke-linejoin:round;stroke-miterlimit:10;}
	.st53{fill:#FEBD2E;stroke:#4C5C68;stroke-width:0.8191;stroke-linecap:round;stroke-linejoin:round;stroke-miterlimit:10;}
	.st54{fill:#FFFFFF;stroke:#4C5C68;stroke-width:0.9531;stroke-linecap:round;stroke-linejoin:round;stroke-miterlimit:10;}
	.st55{fill:none;stroke:#4C5C68;stroke-width:0.9531;stroke-linecap:round;stroke-linejoin:round;stroke-miterlimit:10;}
	.st56{fill:none;stroke:#F9CA38;stroke-width:1.1858;stroke-miterlimit:10;}
	.st57{fill:#CEE8FA;stroke:#4C5C68;stroke-width:0.9531;stroke-linecap:round;stroke-linejoin:round;stroke-miterlimit:10;}
	.st58{fill:#FFFFFF;stroke:#4C5C68;stroke-width:0.965;stroke-linecap:round;stroke-linejoin:round;stroke-miterlimit:10;}
	.st59{fill:#F9CA38;stroke:#4C5C68;stroke-width:0.965;stroke-linecap:round;stroke-linejoin:round;stroke-miterlimit:10;}
	.st60{fill:#434343;}
	.st61{fill:#98C948;}
	.st62{fill:none;stroke:#2C3251;stroke-width:0.5;stroke-linecap:round;stroke-linejoin:round;stroke-miterlimit:10;}
	.st63{fill:#5FB0E5;}
	.st64{fill:#D2E9F7;}
	.st65{fill:#0686D8;}
	.st66{fill:#9ECFEF;}
	.st67{fill:none;stroke:#4C5C68;stroke-miterlimit:10;}
	.st68{fill:#4C5C68;stroke:#4C5C68;stroke-width:0.4;stroke-linecap:round;stroke-linejoin:round;stroke-miterlimit:10;}
	.st69{fill:none;stroke:#4C5C68;stroke-width:0.9106;stroke-miterlimit:10;}
	.st70{fill:#CEE8FA;stroke:#4C5C68;stroke-width:0.6053;stroke-linecap:round;stroke-linejoin:round;stroke-miterlimit:10;}
	.st71{fill:#FFFFFF;stroke:#4C5C68;stroke-width:0.6053;stroke-linecap:round;stroke-linejoin:round;stroke-miterlimit:10;}
	.st72{fill:#4C5C68;stroke:#FFFFFF;stroke-width:0.5;stroke-linecap:round;stroke-linejoin:round;stroke-miterlimit:10;}
	.st73{fill:#595959;}
	.st74{fill:none;stroke:#4C5C68;stroke-width:0.9106;stroke-linecap:round;stroke-linejoin:round;stroke-miterlimit:10;}
	.st75{fill:none;stroke:#4C5C68;stroke-width:0.8497;stroke-linecap:round;stroke-linejoin:round;stroke-miterlimit:10;}
	.st76{fill:#4C5C68;stroke:#4C5C68;stroke-width:0.2707;stroke-linecap:round;stroke-linejoin:round;stroke-miterlimit:10;}
	.st77{fill:#41464B;}
	.st78{fill:#FED65C;}
	.st79{fill:#FFFFFF;stroke:#000000;stroke-linecap:round;stroke-linejoin:round;stroke-miterlimit:10;}
	.st80{fill:#FFFFFF;stroke:#4C5C68;stroke-width:0.9809;stroke-linecap:round;stroke-linejoin:round;stroke-miterlimit:10;}
	.st81{fill:#5D5D5D;}
	.st82{fill:#FFFFFF;stroke:#4C5C68;stroke-width:1.0654;stroke-linecap:round;stroke-linejoin:round;stroke-miterlimit:10;}
</style>
<g id="Layer_2">
</g>
<g id="Layer_1">
	<g>
		<g id="XMLID_1400_">
			<path class="st4" d="M55.4,49.7H7.7c-0.6,0-1.1-0.5-1.1-1.1V15c0-0.6,0.5-1.1,1.1-1.1h47.6c0.6,0,1.1,0.5,1.1,1.1v33.6
				C56.4,49.2,55.9,49.7,55.4,49.7z"/>
		</g>
		<g id="XMLID_1397_">
			<path id="XMLID_1399_" class="st22" d="M50.2,12.9h5c1.3,0,2.3,1,2.3,2.3v33.3c0,1.3-1,2.3-2.3,2.3H7.9c-1.3,0-2.3-1-2.3-2.3
				V15.2c0-1.3,1-2.3,2.3-2.3h38.3"/>
			<path id="XMLID_1398_" class="st22" d="M7.7,48.5c0,0.1,0.1,0.2,0.2,0.2h47.3c0.1,0,0.2-0.1,0.2-0.2"/>
		</g>
		<g id="XMLID_1396_">
			<rect x="9.2" y="18.8" class="st6" width="44.7" height="30.2"/>
		</g>
		<path class="st23" d="M25.7,45.6H4.5v3c0,1.8,1.4,3.2,3.2,3.2h48.4c1.8,0,3.2-1.4,3.2-3.2v-3h-25l-1.6,3.1h-5.1L25.7,45.6z"/>
		<rect x="12" y="26.1" class="st1" width="39.6" height="11.4"/>
	</g>
	<circle class="st6" cx="51.8" cy="48" r="8.6"/>
	<g>
		<path class="st82" d="M49.1,49c-0.1,0.1-0.1,0.1-0.2,0.2c-0.8,0.8-1.6,1.6-2.4,2.4c-0.1,0.1-0.1,0.2-0.2,0.3
			c-0.1,0.4-0.2,0.9-0.3,1.3c0,0.1-0.1,0.2-0.1,0.2c-1.5,1-2.9,1.9-4.3,2.9c-0.4-0.4-0.7-0.7-1.1-1.1c0-0.1,0.1-0.2,0.1-0.2
			c0.9-1.3,1.8-2.7,2.7-4c0.1-0.1,0.2-0.2,0.3-0.2c0.4-0.1,0.9-0.2,1.3-0.3c0.1,0,0.2-0.1,0.2-0.1c0.9-0.9,1.7-1.7,2.6-2.6
			c0,0,0,0,0-0.1c-0.1-0.1-0.3-0.3-0.4-0.4c-0.5-0.6-1.1-1.2-1.6-1.8c-0.1-0.1-0.2-0.1-0.3-0.1c-3.1,1-6.2-0.9-6.9-4.1
			c-0.2-0.9-0.1-2.2,0.3-3c0.1,0.1,0.1,0.1,0.2,0.1c0.9,0.9,1.7,1.7,2.6,2.6c0.7,0.7,1.4,0.7,2.1,0c0.3-0.3,0.6-0.6,1-1
			c0.6-0.6,0.6-1.4,0-2c-0.9-0.9-1.8-1.8-2.6-2.6c-0.1-0.1-0.1-0.1-0.2-0.2c0.5-0.1,0.9-0.3,1.3-0.3c2.2-0.2,4,0.6,5.3,2.5
			c0.8,1.2,1,2.6,0.7,4c0,0.2,0,0.3,0.1,0.4c0.3,0.3,0.6,0.7,0.9,1c0.1-0.1,0.2-0.2,0.3-0.3c1.7-1.7,3.5-3.4,5.2-5.2
			c1.1-1.1,2.9-1.2,4.1-0.1c1.2,1.1,1.2,3,0.1,4.2c-0.3,0.3-0.6,0.6-0.9,0.9c-1.4,1.4-2.9,2.9-4.3,4.3c-0.1,0.1-0.1,0.1-0.2,0.1
			c0.1,0.1,0.1,0.1,0.2,0.2c1.5,1.5,3,3,4.6,4.5c0.6,0.6,1,1.3,1,2.2c0,1.2-0.7,2.2-1.7,2.7c-1.1,0.5-2.3,0.2-3.2-0.6
			c-0.9-1-1.8-2-2.8-3c-1.1-1.1-2.1-2.3-3.2-3.5C49.2,49.1,49.1,49.1,49.1,49z M56,53.6c0,0.7,0.5,1.2,1.2,1.2
			c0.7,0,1.2-0.5,1.2-1.2c0-0.6-0.5-1.2-1.2-1.2C56.5,52.4,56,52.9,56,53.6z"/>
		<g>
			<path class="st82" d="M58.1,39.5c0-0.3-0.1-0.5-0.3-0.6c-0.2-0.1-0.4,0-0.6,0.1c-0.6,0.6-1.2,1.2-1.8,1.8c-1.3,1.3-2.7,2.7-4,4
				c-0.2,0.2-0.3,0.6,0,0.8c0.2,0.2,0.5,0.2,0.8,0c1.9-1.9,3.9-3.9,5.8-5.8C58,39.7,58,39.6,58.1,39.5z"/>
			<path class="st11" d="M57.9,39.7c0,0.1-0.1,0.2-0.2,0.3c-1.8,1.8-3.7,3.7-5.5,5.5c-0.2,0.2-0.5,0.2-0.7,0c-0.2-0.2-0.2-0.5,0-0.7
				c1.3-1.3,2.5-2.5,3.8-3.8c0.6-0.6,1.1-1.1,1.7-1.7c0.2-0.2,0.3-0.2,0.5-0.1C57.8,39.2,57.9,39.4,57.9,39.7z"/>
		</g>
		<path class="st6" d="M56,53.6c0-0.7,0.5-1.2,1.2-1.2c0.6,0,1.2,0.5,1.2,1.2c0,0.6-0.5,1.2-1.2,1.2C56.5,54.8,56,54.3,56,53.6z"/>
	</g>
</g>
</svg>
