<svg xmlns="http://www.w3.org/2000/svg" viewBox="0 0 64 64" enable-background="new 0 0 64 64"><path fill="#CEE8FA" stroke="#4C5C68" stroke-linecap="round" stroke-linejoin="round" stroke-miterlimit="10" d="M45.5 19.9v35.2h-31.9v-46.4h22.5M47.7 21.8v33.3h-31.9v-43.9h22.5"/><path fill="#fff" d="M50.1 24.1v31.7h-31.6v-41.8h22.3"/><path stroke="#4C5C68" stroke-linecap="round" stroke-linejoin="round" stroke-miterlimit="10" d="M18 44.8v-31.2h22.5M43.7 55.1h-25.7v-3.7" fill="none"/><path fill="#CEE8FA" stroke="#4C5C68" stroke-linecap="round" stroke-linejoin="round" stroke-miterlimit="10" d="M40.5 13.4v10.5h9.6z"/><path stroke="#4C5C68" stroke-linecap="round" stroke-linejoin="round" stroke-miterlimit="10" d="M31.7 27.8h12.3M31.7 31.6h8.3M22.9 35.3h17.8M22.9 39.4h14.9M22.9 43.5h15.8M23.3 47.3h17.2" fill="none"/><path fill="#F9CA38" stroke="#4C5C68" stroke-linecap="round" stroke-linejoin="round" stroke-miterlimit="10" d="M22.9 25.8h5.7v5.7h-5.7z"/><path stroke="#4C5C68" stroke-linecap="round" stroke-linejoin="round" stroke-miterlimit="10" d="M50.1 30.5v-6.6" fill="none"/><path fill="#4C5C68" stroke="#4C5C68" stroke-width=".3" stroke-miterlimit="10" d="M55.1 47.1l-3.6-4.5c-.1-.2-.4-.2-.6-.1l-.4.3-.7-.8c.7-.7 1.2-1.6 1.3-2.7.3-2.4-1.5-4.5-3.8-4.8-2.4-.3-4.5 1.5-4.8 3.8-.3 2.4 1.5 4.5 3.8 4.8 1 .1 2-.1 2.8-.7l.7.9-.4.3c-.2.1-.2.4-.1.6l3.6 4.5c.1.1.2.1.3.1.1 0 .2 0 .3-.1l1.4-1.1c.3-.1.3-.4.2-.5zm-8.7-4.8c-1.9-.2-3.3-2-3.1-3.9.2-1.9 2-3.3 3.9-3.1 1.9.2 3.3 2 3.1 3.9-.2 2-1.9 3.4-3.9 3.1zm7 5.6l-3.1-3.9.8-.6 3.1 3.9-.8.6z"/></svg>