<svg xmlns="http://www.w3.org/2000/svg" viewBox="0 0 64 64" enable-background="new 0 0 64 64"><g stroke="#4C5C68" stroke-linecap="round" stroke-linejoin="round" stroke-miterlimit="10"><path fill="#FEBD2E" d="M24.7 55.7v-6.4h-10.5v6.4"/><path fill="#fff" d="M21.9 47.9v-5.3l-5.3-4.6-1.3-4.3s-.2-1.1-1.2-.9c0 0-1.3.3-1 1.3l1.7 5.6-.3 1.3"/><path d="M13.6 31.4v-7.2s0-1.1-1-1.4c-1-.2-1.4.8-1.6 1.9l-2.3 12.2s-.4 1.6.3 2.8c.7 1.1 6.8 6.3 6.8 6.3l.6 1.9" fill="none"/><path fill="#FEBD2E" d="M39.8 55.7v-6.4h10.5v6.4"/><path fill="#fff" d="M42.6 47.9v-5.3l5.4-4.6 1.3-4.3s.2-1.1 1.2-.9c0 0 1.3.3 1 1.3l-1.7 5.6.3 1.3"/><path d="M50.9 31.4v-7.2s0-1.1 1-1.4c1-.2 1.4.8 1.6 1.9.2 1.1 2.3 12.2 2.3 12.2s.4 1.6-.3 2.7l-6.8 6.3-.7 2" fill="none"/></g><ellipse fill="#fff" stroke="#4C5C68" stroke-linecap="round" stroke-linejoin="round" stroke-miterlimit="10" cx="32" cy="22.5" rx="14.6" ry="14.5"/><ellipse fill="#286090" cx="32" cy="22.5" rx="11.5" ry="11.4"/><path fill="#CEE8FA" d="M31.9 15.7c.4 0 .7.3.7.7v.4c1 .1 1.8.4 2.5.9.3.1.5.4.5.8 0 .5-.4.9-.9.9-.2 0-.3 0-.5-.1-.6-.3-1.1-.6-1.7-.7v3.1c2.5.6 3.5 1.6 3.5 3.3 0 1.8-1.4 3-3.4 3.1v1c0 .4-.3.7-.7.7s-.7-.3-.7-.7v-1c-1.2-.1-2.3-.6-3.3-1.3-.3-.2-.4-.4-.4-.8 0-.5.4-.9.9-.9.2 0 .4.1.5.2.8.5 1.5.9 2.4 1.1v-3.2c-2.4-.6-3.5-1.5-3.5-3.3 0-1.7 1.4-2.9 3.4-3.1v-.3c0-.5.3-.8.7-.8zm-.7 5.5v-2.9c-1 .1-1.5.6-1.5 1.4 0 .6.3 1 1.5 1.5zm1.3 2.2v2.9c1-.1 1.6-.6 1.6-1.4 0-.7-.3-1.1-1.6-1.5z"/></svg>