<svg xmlns="http://www.w3.org/2000/svg" viewBox="0 0 64 64" enable-background="new 0 0 64 64"><path fill="#fff" stroke="#4C5C68" stroke-linecap="round" stroke-linejoin="round" stroke-miterlimit="10" d="M17.3 10.9h29v37.5h-29z"/><path fill="#CEE8FA" d="M43.7 14.7v29.7c0 .2-.2.3-.3.3h-23.1c-.2 0-.3-.2-.3-.3v-29.7c0-.2.2-.3.3-.3h23.1c.2-.1.3.1.3.3z"/><path fill="#fff" stroke="#4C5C68" stroke-linecap="round" stroke-linejoin="round" stroke-miterlimit="10" d="M28.2 46.3h5.2M30.3 13h2"/><g fill="#fff"><path d="M55 43.5v-4.4c-2.1-2-4.2.1-4.2.1l.7 2.2-12.3-.4c-2.1-3.1-4-.2-4-.2v8.6l6.2 5.7v3.6l11.4-.1v-3.5c0-.8 2.1-4.1 2.1-4.1v-4.1"/><path stroke="#4C5C68" stroke-linecap="round" stroke-linejoin="round" stroke-miterlimit="10" d="M52.9 58.7v-3.5c0-.8 2.1-4.1 2.1-4.1v-4.1M55 43.5v-4.4c-2.1-2-4.2.1-4.2.1l.7 2.2-12.3-.4c-2.1-3.1-4-.2-4-.2v8.6l6.2 5.7v3.6"/><path d="M40.5 39.5l2.3-2.3 2.1-.5 2.1.8 1.5-.4 1.8.4-.2 1 3.2 3.2-4.1 2.5h-7.6l-1.5-1z"/><path stroke="#4C5C68" stroke-linecap="round" stroke-linejoin="round" stroke-miterlimit="10" d="M39.4 47.3v-18.9s-.5-1.9 1.5-1.9c2.1 0 1.6 1.7 1.6 1.7v10.9M42.8 37.1s1.8-1.8 3.9.2v1.8M47.4 38s1.3-2.1 3.4-.1v2.2"/></g><path fill="#fff" d="M17.3 55.2c-5.4 0-9.9-4.4-9.9-9.9s4.4-9.9 9.9-9.9 9.9 4.4 9.9 9.9-4.4 9.9-9.9 9.9z"/><path fill="#4C5C68" d="M17.3 35.9c5.2 0 9.4 4.2 9.4 9.4s-4.2 9.4-9.4 9.4-9.4-4.2-9.4-9.4 4.3-9.4 9.4-9.4m0-1c-5.7 0-10.3 4.7-10.3 10.4s4.6 10.4 10.4 10.4c5.7 0 10.4-4.6 10.4-10.4-.1-5.7-4.7-10.4-10.5-10.4z"/><g fill="#286090"><path d="M21.5 43.8h-.8v-1.2c0-1.9-1.5-3.4-3.4-3.4-1.7 0-3.2 1.3-3.3 3v1.5h-1s-.1.1-.1.2v6c0 .2.3.5.5.5h8.1c.1 0 .1 0 .2-.1s.1-.2.1-.3v-6.1c0 .2 0-.1-.3-.1zm-6.7-1.2c0-1.4 1.1-2.6 2.6-2.6s2.6 1.2 2.6 2.6v1.2h-5.1v-1.2zm-.3 0v-.3.3zm-.8 2h7.3v5.1h-7.2v-5.1zM17.3 46.9c-.2 0-.4.2-.4.4v1.3c0 .2.2.4.4.4s.4-.2.4-.4v-1.3c0-.2-.1-.4-.4-.4z"/></g></svg>