<svg xmlns="http://www.w3.org/2000/svg" viewBox="0 0 64 64" enable-background="new 0 0 64 64"><path fill="#fff" stroke="#4C5C68" stroke-linecap="round" stroke-linejoin="round" stroke-miterlimit="10" d="M16.5 40.5h30.3v14.1h-30.3z"/><path fill="#F9CA38" stroke="#4C5C68" stroke-linecap="round" stroke-linejoin="round" stroke-miterlimit="10" d="M15.1 30.5h33.1v10.8h-33.1z"/><path fill="#CEE8FA" stroke="#4C5C68" stroke-linecap="round" stroke-linejoin="round" stroke-miterlimit="10" d="M21.6 39.6h2.6v3.5h-2.6zm18 0h2.6v3.5h-2.6z"/><path stroke="#4C5C68" stroke-linecap="round" stroke-linejoin="round" stroke-miterlimit="10" d="M37.8 30.2h-11.8v-2c0-1.4 1.1-2.5 2.5-2.5h6.8c1.4 0 2.5 1.1 2.5 2.5v2z" fill="none"/><g fill="#fff"><path d="M24.6 22.3v3.6c1.7 1.7 3.5-.1 3.5-.1l-.6-1.8 10.1.4c1.8 2.5 3.3.1 3.3.1v-7.2l-5.2-4.8v-3l-9.5.1v2.9c0 .6-1.7 3.4-1.7 3.4v3.4"/><path stroke="#4C5C68" stroke-width=".829" stroke-linecap="round" stroke-linejoin="round" stroke-miterlimit="10" d="M26.3 9.7v2.9c0 .6-1.7 3.4-1.7 3.4v3.4"/><path stroke="#4C5C68" stroke-miterlimit="10" d="M24.6 22.3v3.6c1.7 1.7 3.5-.1 3.5-.1l-.6-1.8 10.1.4c1.8 2.5 3.3.1 3.3.1v-7.2l-5.2-4.8v-3"/><path d="M36.6 25.7l-1.9 1.9-1.7.4-1.8-.7-1.2.4-1.5-.3.1-.9-2.6-2.7 3.4-2h6.3l1.2.8z"/><path stroke="#4C5C68" stroke-linecap="round" stroke-linejoin="round" stroke-miterlimit="10" d="M37.5 19.2v7.4s.5 1.6-1.3 1.6c-1.7 0-1.3-1.4-1.3-1.4v-.8"/><path stroke="#4C5C68" stroke-width=".829" stroke-linecap="round" stroke-linejoin="round" stroke-miterlimit="10" d="M34.7 27.7s-1.5 1.5-3.2-.2v-1.5M30.9 26.9s-1.1 1.8-2.8.1v-1.8"/></g></svg>