<svg xmlns="http://www.w3.org/2000/svg" viewBox="0 0 64 64" enable-background="new 0 0 64 64"><path fill="#fff" stroke="#4C5C68" stroke-linecap="round" stroke-linejoin="round" stroke-miterlimit="10" d="M16.311 48.327v-37.5h29v37.5z"/><path fill="#CEE8FA" d="M42.7 14.7v29.7c0 .2-.2.3-.3.3h-23.1c-.2 0-.3-.2-.3-.3v-29.7c0-.2.2-.3.3-.3h23.1c.2-.1.3.1.3.3z"/><path fill="#fff" d="M37.2 29c0 .1 0 .3-.1.4l.5.2.7.3c.4.1.5.5.4.9l-.4 1.2c-.1.3-.5.5-.9.4l-1.1-.4c-.1 0-.1 0-.2.1-.3.5-.8 1-1.2 1.4l-.3.3.4.9.1.2c.1.3 0 .7-.3.9-.4.2-.8.4-1.2.5-.3.1-.7 0-.8-.3l-.5-1.1v-.1l-.6.1h-1.9l-.3.9-.1.3c-.1.3-.5.5-.9.4l-1.2-.4c-.3-.1-.5-.5-.4-.9l.4-1.1c0-.1 0-.1-.1-.1-.4-.3-.8-.6-1.1-.9l-.5-.6-.1-.1-.9.4c-.1.1-.3.1-.4.1-.3.1-.6-.1-.7-.4-.2-.4-.4-.8-.5-1.2-.1-.3 0-.7.3-.8l1.1-.5c.1 0 .1-.1.1-.2l-.1-.7v-.8c0-.3 0-.5.1-.8-.3-.1-.5-.2-.7-.3l-.4-.1c-.4-.1-.5-.5-.4-.9.1-.4.3-.8.4-1.1.1-.3.6-.5.9-.4l1.1.4h.1c.4-.7.9-1.2 1.6-1.7l-.4-.9c0-.1-.1-.2-.1-.2-.2-.4 0-.8.3-.9l1.1-.5c.3-.1.7 0 .9.3l.3.6c.1.2.2.3.2.5 0 .1.1.1.1.1l1.1-.1h1.1c.1 0 .1 0 .2-.1l.4-1c.1-.4.5-.5.9-.4l1.2.4c.3.1.5.5.4.9l-.4 1.1c0 .1 0 .1.1.1.4.3.8.6 1.1.9.2.2.4.4.5.6l.1.1.6-.3.6-.3c.3-.1.6.1.7.4.2.4.4.8.5 1.2.1.3 0 .7-.3.8l-1.1.5s-.1 0-.1.1l.1 1v.7zm-6.4-5.1c-2.5 0-4.6 2.1-4.6 4.6 0 2.5 2.1 4.6 4.6 4.6 2.6 0 4.6-2 4.6-4.6 0-2.5-2-4.6-4.6-4.6z"/><path fill="#fff" stroke="#4C5C68" stroke-miterlimit="10" d="M37.2 29c0 .1 0 .3-.1.4l.5.2.7.3c.4.1.5.5.4.9l-.4 1.2c-.1.3-.5.5-.9.4l-1.1-.4c-.1 0-.1 0-.2.1-.3.5-.8 1-1.2 1.4l-.3.3.4.9.1.2c.1.3 0 .7-.3.9-.4.2-.8.4-1.2.5-.3.1-.7 0-.8-.3l-.5-1.1v-.1l-.6.1h-1.9l-.3.9-.1.3c-.1.3-.5.5-.9.4l-1.2-.4c-.3-.1-.5-.5-.4-.9l.4-1.1c0-.1 0-.1-.1-.1-.4-.3-.8-.6-1.1-.9l-.5-.6-.1-.1-.9.4c-.1.1-.3.1-.4.1-.3.1-.6-.1-.7-.4-.2-.4-.4-.8-.5-1.2-.1-.3 0-.7.3-.8l1.1-.5c.1 0 .1-.1.1-.2l-.1-.7v-.8c0-.3 0-.5.1-.8-.3-.1-.5-.2-.7-.3l-.4-.1c-.4-.1-.5-.5-.4-.9.1-.4.3-.8.4-1.1.1-.3.6-.5.9-.4l1.1.4h.1c.4-.7.9-1.2 1.6-1.7l-.4-.9c0-.1-.1-.2-.1-.2-.2-.4 0-.8.3-.9l1.1-.5c.3-.1.7 0 .9.3l.3.6c.1.2.2.3.2.5 0 .1.1.1.1.1l1.1-.1h1.1c.1 0 .1 0 .2-.1l.4-1c.1-.4.5-.5.9-.4l1.2.4c.3.1.5.5.4.9l-.4 1.1c0 .1 0 .1.1.1.4.3.8.6 1.1.9.2.2.4.4.5.6l.1.1.6-.3.6-.3c.3-.1.6.1.7.4.2.4.4.8.5 1.2.1.3 0 .7-.3.8l-1.1.5s-.1 0-.1.1l.1 1v.7z"/><path fill="#286090" stroke="#4C5C68" stroke-width=".953" stroke-linecap="round" stroke-linejoin="round" stroke-miterlimit="10" d="M30.8 24.9c2 0 3.6 1.6 3.6 3.6s-1.6 3.6-3.6 3.6-3.6-1.6-3.6-3.6c.1-2 1.7-3.6 3.6-3.6z"/><path fill="#fff" stroke="#4C5C68" stroke-linecap="round" stroke-linejoin="round" stroke-miterlimit="10" d="M27.2 46.3h5.2M29.3 13h2"/><path fill="#fff" stroke="#4C5C68" stroke-linecap="round" stroke-linejoin="round" stroke-miterlimit="10" d="M11 50.3v-14.9l3.5-4.7h5.4s1.1 1.1-.4 2.9c0 0-3 .4-3.4 2.3-.3 1.9 2.1 2.4 2.6 3.8s1.4 6.8-1.2 10.8l-6.5-.2z"/><path fill="#FEBD2E" stroke="#4C5C68" stroke-linecap="round" stroke-linejoin="round" stroke-miterlimit="10" d="M10 57.9v-7.5h14.3v7.5"/><g fill="#fff"><path d="M54 42.6v-4.4c-2.1-2-4.2.1-4.2.1l.7 2.2-12.3-.5c-2.1-3.1-4-.2-4-.2v8.6l6.2 5.7v3.6l11.4-.1v-3.5c0-.8 2.1-4.1 2.1-4.1v-4.1"/><path stroke="#4C5C68" stroke-linecap="round" stroke-linejoin="round" stroke-miterlimit="10" d="M51.9 57.8v-3.5c0-.8 2.1-4.1 2.1-4.1v-4.1M54 42.6v-4.4c-2.1-2-4.2.1-4.2.1l.7 2.2-12.3-.5c-2.1-3.1-4-.2-4-.2v8.6l6.2 5.7v3.6"/><path d="M39.5 38.5l2.3-2.3 2.1-.5 2.1.9 1.5-.5 1.8.4-.2 1 3.2 3.3-4.1 2.5h-7.6l-1.5-1z"/><path stroke="#4C5C68" stroke-linecap="round" stroke-linejoin="round" stroke-miterlimit="10" d="M38.4 46.4v-19s-.5-1.9 1.5-1.9c2.1 0 1.6 1.7 1.6 1.7v10.9M41.8 36.1s1.8-1.8 3.9.2v1.8M46.4 37.1s1.3-2.1 3.4-.1v2.2"/></g></svg>