<svg xmlns="http://www.w3.org/2000/svg" viewBox="0 0 64 64" enable-background="new 0 0 64 64"><path fill="#fff" stroke="#4C5C68" stroke-linecap="round" stroke-linejoin="round" stroke-miterlimit="10" d="M34.1 53.1h-25.6v-10.5l9.3-3.6 11-5.3 7.8 4"/><path fill="#F9CA38" d="M19.7 38.5l5.8 14.2h5.7l5.3-14.5-7.8-3.9-9 4.2z"/><path fill="#CEE8FA" stroke="#4C5C68" stroke-width=".896" stroke-linecap="round" stroke-linejoin="round" stroke-miterlimit="10" d="M30 9.8c-4.8-.2-6.6 1.1-8.2 3.2-1.5 1.9-1.7 4.7-1.7 4.7l.1 8.9h17.5l.2-10.3c0 .1-.9-6.3-7.9-6.5z"/><path fill="#fff" stroke="#4C5C68" stroke-width=".896" stroke-linecap="round" stroke-linejoin="round" stroke-miterlimit="10" d="M28.9 43.5h-.2c-2.9 0-5.2-2.3-5.2-5.2v-4.2h10.5v4.2c.1 2.9-2.3 5.2-5.1 5.2zM30.8 35.9h-4.6c-2.7 0-4.4-2.5-4.4-5.1v-2.1h-.3c-.9 0-1.7-.7-1.7-1.5s.8-1.5 1.6-1.5h.4v-10.4h14.2v10.4h.3c.9 0 1.5.7 1.5 1.5s-.7 1.5-1.5 1.5h-.3v2.2c0 1.5-.9 2.8-1.9 3.8"/><path fill="#CEE8FA" d="M36.3 14.6l.2 1.7-3.2-.8-.6 2.4-5.7-.9 1.1 3.3s-4.4-3.4-5.2-4.1c0 0-1.7-.4-1.6.8 0 0-1-1 .3-2.3"/><path stroke="#4C5C68" stroke-width=".896" stroke-linecap="round" stroke-linejoin="round" stroke-miterlimit="10" d="M36 16.4l-2.6-.9-.6 2.4-5.7-.9 1.1 3.3s-4.7-3.4-5.4-4c0 0-1 .1-1 1.2M16.9 39.5v8.8h3.3l-.8 2.4M19.8 38.6l5.9 14.3" fill="none"/><path fill="#fff" d="M45.6 55.2c-5.4 0-9.9-4.4-9.9-9.9s4.4-9.9 9.9-9.9 9.9 4.4 9.9 9.9-4.4 9.9-9.9 9.9z"/><path fill="#4C5C68" d="M45.6 35.9c5.2 0 9.4 4.2 9.4 9.4s-4.2 9.4-9.4 9.4-9.4-4.2-9.4-9.4 4.2-9.4 9.4-9.4m0-1c-5.7 0-10.4 4.6-10.4 10.4 0 5.7 4.6 10.4 10.4 10.4 5.8 0 10.4-4.7 10.4-10.4s-4.6-10.4-10.4-10.4z"/><path d="M49.8 43.8h-.8v-1.2c0-1.9-1.5-3.4-3.4-3.4-1.7 0-3.2 1.3-3.3 3v1.5h-1s-.1.1-.1.2v6c0 .2.3.5.5.5h8.1c.1 0 .1 0 .2-.1s.1-.2.1-.3v-6.1c0 .2 0-.1-.3-.1zm-6.7-1.2c0-1.4 1.1-2.6 2.6-2.6s2.6 1.2 2.6 2.6v1.2h-5.1v-1.2zm-.3 0v-.3.3zm-.8 2h7.3v5.1h-7.3v-5.1zm3.6 2.3c-.2 0-.4.2-.4.4v1.3c0 .2.2.4.4.4s.4-.2.4-.4v-1.3c0-.2-.2-.4-.4-.4z" fill="#286090"/></svg>