<svg xmlns="http://www.w3.org/2000/svg" viewBox="0 0 64 64" enable-background="new 0 0 64 64"><path fill="#fff" stroke="#4C5C68" stroke-miterlimit="10" d="M8.5 44.4l10.4-4.1 12.3-5.8 11.6 6 10 4v11.6h-44.3z"/><path fill="#F9CA38" d="M21 39.8l6.4 15.9h6.4l7-16-9.8-4.6-10 4.7z"/><path fill="#CEE8FA" stroke="#4C5C68" stroke-linecap="round" stroke-linejoin="round" stroke-miterlimit="10" d="M32.5 7.8c-5.4-.2-7.4 1.3-9.2 3.5-1.7 2.1-1.9 5.3-1.9 5.3l.2 10h19.5l.2-11.5c0 .1-1-7-8.8-7.3z"/><path fill="#fff" stroke="#4C5C68" stroke-linecap="round" stroke-linejoin="round" stroke-miterlimit="10" d="M31.8 45.4h-1.4c-2.9 0-5.2-2.3-5.2-5.2v-5.3h11.8v5.3c0 2.9-2.3 5.2-5.2 5.2zM33.3 37h-5.1c-3 0-4.9-2.7-4.9-5.7v-2.4h-.4c-.9 0-1.9-.8-1.9-1.7s.9-1.7 1.8-1.7h.4v-11.6h15.9v11.6h.4c.9 0 1.7.8 1.7 1.7s-.8 1.7-1.7 1.7h-.4v2.4c0 1.6-1 3.2-2.2 4.3"/><path fill="#CEE8FA" d="M39.6 13.1l.3 1.9-3.6-.9-.7 2.7-6.3-1.1 1.2 3.7s-5-3.8-5.7-4.6c0 0-1.9-.4-1.8.9 0 0-1.2-1.1.3-2.6"/><path stroke="#4C5C68" stroke-linecap="round" stroke-linejoin="round" stroke-miterlimit="10" d="M39.1 15.1l-2.9-1-.7 2.7-6.3-1.1 1.2 3.7s-5.2-3.8-6-4.5c0 0-1.2.1-1.1 1.4M17.8 40.9v9.8h3.8l-1 2.7M41.5 41v9.5h-1.8v3.1M21.1 39.9l6.6 16M40.5 39.6l-6.5 16.3" fill="none"/></svg>