<svg xmlns="http://www.w3.org/2000/svg" viewBox="0 0 64 64" enable-background="new 0 0 64 64"><path fill="#CEE8FA" stroke="#4C5C68" stroke-linecap="round" stroke-linejoin="round" stroke-miterlimit="10" d="M41.5 19.9v35.2h-31.9v-46.4h22.5M43.7 21.8v33.3h-31.9v-43.9h22.5"/><path fill="#fff" d="M46.1 24.1v31.7h-31.6v-41.8h22.3"/><path stroke="#4C5C68" stroke-linecap="round" stroke-linejoin="round" stroke-miterlimit="10" d="M14 44.8v-31.2h22.5M39.7 55.1h-25.7v-3.7" fill="none"/><path fill="#CEE8FA" stroke="#4C5C68" stroke-linecap="round" stroke-linejoin="round" stroke-miterlimit="10" d="M36.5 13.4v10.5h9.6z"/><path stroke="#4C5C68" stroke-linecap="round" stroke-linejoin="round" stroke-miterlimit="10" d="M27.7 27.8h12.3M27.7 31.6h8.3M18.9 35.3h17.8M18.9 39.4h14.9M18.9 43.5h14.8M19.3 47.3h14.7" fill="none"/><path fill="#F9CA38" stroke="#4C5C68" stroke-linecap="round" stroke-linejoin="round" stroke-miterlimit="10" d="M18.9 25.8h5.7v5.7h-5.7z"/><path stroke="#4C5C68" stroke-linecap="round" stroke-linejoin="round" stroke-miterlimit="10" d="M46.1 30.5v-6.6" fill="none"/><path fill="#fff" d="M44.6 46.6c-2.6 0-4.7-2.8-4.7-6.2 0-3.4 2.1-6.2 4.7-6.2s4.7 2.8 4.7 6.2c.1 3.4-2.1 6.2-4.7 6.2z"/><path fill="#4C5C68" d="M44.6 34.6c2.4 0 4.3 2.6 4.3 5.8s-1.9 5.8-4.3 5.8-4.3-2.6-4.3-5.8 1.9-5.8 4.3-5.8m0-.8c-2.8 0-5.2 3-5.2 6.6s2.3 6.6 5.2 6.6 5.2-3 5.2-6.6-2.3-6.6-5.2-6.6z"/><path fill="#286090" stroke="#4C5C68" stroke-width=".836" stroke-linecap="round" stroke-linejoin="round" stroke-miterlimit="10" d="M34 52.4h21.2l-1.6-4.3-4.9-1.4-4.1 2.2-4.2-2.2-4.9 1.4z"/><path stroke="#4C5C68" stroke-width=".836" stroke-linecap="round" stroke-linejoin="round" stroke-miterlimit="10" d="M40.1 39.3s4.5 1.6 4.9-2.9c0 0 .5 2 3.5 1.3" fill="none"/></svg>