<svg xmlns="http://www.w3.org/2000/svg" viewBox="0 0 64 64" enable-background="new 0 0 64 64"><path fill="#fff" stroke="#4C5C68" stroke-linecap="round" stroke-linejoin="round" stroke-miterlimit="10" d="M19.4 52.3l6.4-11.2m19.7 11.2l-6.4-11.2m-6.6-.4v12"/><path fill="#fff" stroke="#4C5C68" stroke-linecap="round" stroke-linejoin="round" stroke-miterlimit="10" d="M11.8 17.1h40.4v24.1h-40.4zm-3.5-3h47.2v3h-47.2z"/><path fill="#CEE8FA" stroke="#4C5C68" stroke-width=".896" stroke-linecap="round" stroke-linejoin="round" stroke-miterlimit="10" d="M28.5 11.1h6.9v3h-6.9z"/><path stroke="#F9CA38" stroke-linecap="round" stroke-linejoin="round" stroke-miterlimit="10" d="M17.2 21.1h10.9m-10.9 5h10.9m-10.9 5h10.9m-10.9 6.1h10.9" fill="none"/><path fill="#286090" d="M35.6 29c0 3.7 3.1 6.7 6.9 6.3 2.1-.2 4-1.5 5-3.4 2.6-4.7-1.7-9.2-5.5-9.2v6.3h-6.4z"/><path fill="#4C5C68" d="M40 22v5h-5s0-4.4 5-5z"/></svg>