<svg xmlns="http://www.w3.org/2000/svg" viewBox="0 0 64 64" enable-background="new 0 0 64 64"><path fill="#fff" stroke="#4C5C68" stroke-linecap="round" stroke-linejoin="round" stroke-miterlimit="10" d="M19.4 52.3l6.4-11.2m19.7 11.2l-6.4-11.2m-6.6-.4v12"/><path fill="#fff" stroke="#4C5C68" stroke-linecap="round" stroke-linejoin="round" stroke-miterlimit="10" d="M11.8 17.1h40.4v24.1h-40.4zm-3.5-3h47.2v3h-47.2z"/><path fill="#CEE8FA" stroke="#4C5C68" stroke-width=".896" stroke-linecap="round" stroke-linejoin="round" stroke-miterlimit="10" d="M28.5 11.1h6.9v3h-6.9z"/><path stroke="#F9CA38" stroke-linecap="round" stroke-linejoin="round" stroke-miterlimit="10" d="M17.2 21.1h10.9m-10.9 5h10.9m-10.9 5h10.9m-10.9 6.1h10.9" fill="none"/><path fill="#286090" d="M35.6 29c0 3.7 3.1 6.7 6.9 6.3 2.1-.2 4-1.5 5-3.4 2.6-4.7-1.7-9.2-5.5-9.2v6.3h-6.4z"/><path fill="#4C5C68" d="M40 22v5h-5s0-4.4 5-5z"/><path fill="#fff" d="M58.7 48.2c0 .1 0 .3-.1.4l.5.2.7.3c.4.1.5.5.4.9l-.4 1.2c-.1.3-.5.5-.9.4l-1.1-.4c-.1 0-.1 0-.2.1-.3.5-.8 1-1.2 1.4l-.3.3.4.9.1.2c.1.3 0 .7-.3.9-.4.2-.8.4-1.2.5-.3.1-.7 0-.8-.3l-.5-1.1v-.1l-.6.1h-1.9l-.3.9-.1.3c-.1.3-.5.5-.9.4l-1.2-.4c-.3-.1-.5-.5-.4-.9l.4-1.1c0-.1 0-.1-.1-.1-.4-.3-.8-.6-1.1-.9l-.5-.6-.1-.1-.9.4c-.1.1-.3.1-.4.1-.3.1-.6-.1-.7-.4-.2-.4-.4-.8-.5-1.2-.1-.3 0-.7.3-.8l1.1-.5c.1 0 .1-.1.1-.2l-.1-.7v-.8c0-.3 0-.5.1-.8-.3-.1-.5-.2-.7-.3l-.4-.1c-.4-.1-.5-.5-.4-.9.1-.4.3-.8.4-1.1.1-.3.6-.5.9-.4l1.1.4h.1c.4-.7.9-1.2 1.6-1.7l-.4-.9c0-.1-.1-.2-.1-.2-.2-.4 0-.8.3-.9l1.1-.5c.3-.1.7 0 .9.3l.3.6c.1.2.2.3.2.5 0 .1.1.1.1.1l1.1-.1h1.1c.1 0 .1 0 .2-.1l.4-1c.1-.4.5-.5.9-.4l1.2.4c.3.1.5.5.4.9l-.4 1.1c0 .1 0 .1.1.1.4.3.8.6 1.1.9.2.2.4.4.5.6l.1.1.6-.3.6-.3c.3-.1.6.1.7.4.2.4.4.8.5 1.2.1.3 0 .7-.3.8l-1.1.5s-.1 0-.1.1l.1 1v.7zm-6.4-5.2c-2.5 0-4.6 2.1-4.6 4.6 0 2.5 2.1 4.6 4.6 4.6 2.6 0 4.6-2 4.6-4.6 0-2.5-2.1-4.6-4.6-4.6z"/><path fill="#fff" stroke="#4C5C68" stroke-miterlimit="10" d="M58.7 48.2c0 .1 0 .3-.1.4l.5.2.7.3c.4.1.5.5.4.9l-.4 1.2c-.1.3-.5.5-.9.4l-1.1-.4c-.1 0-.1 0-.2.1-.3.5-.8 1-1.2 1.4l-.3.3.4.9.1.2c.1.3 0 .7-.3.9-.4.2-.8.4-1.2.5-.3.1-.7 0-.8-.3l-.5-1.1v-.1l-.6.1h-1.9l-.3.9-.1.3c-.1.3-.5.5-.9.4l-1.2-.4c-.3-.1-.5-.5-.4-.9l.4-1.1c0-.1 0-.1-.1-.1-.4-.3-.8-.6-1.1-.9l-.5-.6-.1-.1-.9.4c-.1.1-.3.1-.4.1-.3.1-.6-.1-.7-.4-.2-.4-.4-.8-.5-1.2-.1-.3 0-.7.3-.8l1.1-.5c.1 0 .1-.1.1-.2l-.1-.7v-.8c0-.3 0-.5.1-.8-.3-.1-.5-.2-.7-.3l-.4-.1c-.4-.1-.5-.5-.4-.9.1-.4.3-.8.4-1.1.1-.3.6-.5.9-.4l1.1.4h.1c.4-.7.9-1.2 1.6-1.7l-.4-.9c0-.1-.1-.2-.1-.2-.2-.4 0-.8.3-.9l1.1-.5c.3-.1.7 0 .9.3l.3.6c.1.2.2.3.2.5 0 .1.1.1.1.1l1.1-.1h1.1c.1 0 .1 0 .2-.1l.4-1c.1-.4.5-.5.9-.4l1.2.4c.3.1.5.5.4.9l-.4 1.1c0 .1 0 .1.1.1.4.3.8.6 1.1.9.2.2.4.4.5.6l.1.1.6-.3.6-.3c.3-.1.6.1.7.4.2.4.4.8.5 1.2.1.3 0 .7-.3.8l-1.1.5s-.1 0-.1.1l.1 1v.7z"/><path fill="#286090" stroke="#4C5C68" stroke-width=".953" stroke-linecap="round" stroke-linejoin="round" stroke-miterlimit="10" d="M52.3 44c2 0 3.6 1.6 3.6 3.6s-1.6 3.6-3.6 3.6-3.6-1.6-3.6-3.6 1.6-3.6 3.6-3.6z"/></svg>