<svg xmlns="http://www.w3.org/2000/svg" viewBox="0 0 24 24" enable-background="new 0 0 24 24"><style type="text/css">.st0{fill:#9ECFEF;} .st1{fill:#FFFFFF;} .st2{fill:#595959;} .st3{fill:#595959;stroke:#FFFFFF;stroke-width:0.25;stroke-miterlimit:10;} .st4{fill:#FFFFFF;stroke:#333333;stroke-width:0.25;stroke-miterlimit:10;} .st5{fill:#97C9E8;} .st6{fill:#595959;stroke:#595959;stroke-width:0.25;stroke-miterlimit:10;} .st7{fill:none;} .st8{fill:#595959;stroke:#FFFFFF;stroke-width:0.1916;stroke-miterlimit:10;} .st9{fill:#595959;stroke:#595959;stroke-width:0.2196;stroke-miterlimit:10;} .st10{fill:#FFFFFF;stroke:#595959;stroke-width:0.2196;stroke-miterlimit:10;} .st11{fill:#9ECFEF;stroke:#595959;stroke-width:0.25;stroke-miterlimit:10;} .st12{fill:#CA589D;} .st13{opacity:0.2;fill:#CA589D;} .st14{fill:#3CAF85;} .st15{fill:none;stroke:#2C3251;stroke-width:0.75;stroke-miterlimit:10;} .st16{fill:#595959;stroke:#FFFFFF;stroke-width:0.2467;stroke-miterlimit:10;} .st17{fill:#9ECFEF;stroke:#595959;stroke-width:0.5;stroke-miterlimit:10;} .st18{fill:#595959;stroke:#FFFFFF;stroke-width:0.4959;stroke-miterlimit:10;} .st19{fill:#595959;stroke:#595959;stroke-width:0.2246;stroke-miterlimit:10;} .st20{fill:none;stroke:#595959;stroke-width:0.7572;stroke-miterlimit:10;} .st21{fill:#595959;stroke:#595959;stroke-width:0.5;stroke-miterlimit:10;} .st22{fill:#595959;stroke:#595959;stroke-width:0.2986;stroke-miterlimit:10;} .st23{fill:#9ECFEF;stroke:#595959;stroke-width:0.75;stroke-miterlimit:10;} .st24{fill:#9ECEEE;stroke:#9ECEEE;stroke-width:0.75;stroke-miterlimit:10;} .st25{fill-rule:evenodd;clip-rule:evenodd;fill:#9ECFEF;} .st26{fill:none;stroke:#595959;stroke-miterlimit:10;} .st27{fill:none;stroke:#595959;stroke-width:0.9161;stroke-miterlimit:10;} .st28{fill:#B3B3B3;} .st29{fill:none;stroke:#324044;stroke-width:0.75;stroke-miterlimit:10;} .st30{fill:none;stroke:#2C3251;stroke-width:0.4222;stroke-miterlimit:10;}</style><path class="st2" d="M18 21.368h-15.051c-.711 0-1.289-.578-1.289-1.289v-9.082c0-.711.578-1.289 1.289-1.289h15.051c.711 0 1.289.578 1.289 1.289v9.082c0 .711-.579 1.289-1.289 1.289zm-15.051-10.743c-.206 0-.373.167-.373.373v9.082c0 .206.167.373.373.373h15.051c.206 0 .373-.167.373-.373v-9.082c0-.206-.167-.373-.373-.373h-15.051z"/><path class="st0" d="M17.76 20.16h-14.571c-.152 0-.275-.123-.275-.275v-8.694c0-.152.123-.275.275-.275h14.57c.152 0 .275.123.275.275v8.694c0 .152-.123.275-.274.275z"/><path class="st2" d="M16.762 10.167h-1.832v-3.004c0-2.417-1.896-4.385-4.227-4.385h-.458c-2.331 0-4.227 1.967-4.227 4.385v2.703h-1.831v-2.703c0-3.428 2.718-6.217 6.059-6.217h.458c3.341 0 6.059 2.789 6.059 6.217v3.004z"/><path class="st1" d="M11.811 14.345c0 .501-.275.943-.68 1.158v1.922c0 .358-.298.657-.657.657-.358 0-.657-.298-.657-.657v-1.922c-.406-.215-.68-.657-.68-1.158 0-.74.597-1.349 1.337-1.349.741 0 1.337.609 1.337 1.349z"/><path class="st2" d="M10.475 18.425c-.552 0-1-.449-1-1v-1.732c-.424-.304-.68-.803-.68-1.348 0-.933.754-1.693 1.681-1.693s1.681.76 1.681 1.693c0 .545-.256 1.044-.681 1.348v1.732c-.001.551-.45 1-1.001 1zm0-5.086c-.548 0-.993.451-.993 1.005 0 .359.195.694.497.854l.183.097v2.129c0 .169.143.313.313.313.169 0 .313-.143.313-.313v-2.129l.183-.097c.302-.16.498-.495.498-.854-.001-.554-.447-1.005-.994-1.005zm6.658-.676c-2.835 0-5.14 2.305-5.14 5.14 0 2.835 2.305 5.14 5.14 5.14 2.835 0 5.14-2.305 5.14-5.14-.001-2.835-2.305-5.14-5.14-5.14zm0 9.341c-2.325 0-4.212-1.887-4.212-4.201 0-2.325 1.887-4.212 4.212-4.212 2.315 0 4.201 1.887 4.201 4.212 0 2.315-1.886 4.201-4.201 4.201z"/><path class="st1" d="M21.334 17.803c0 2.315-1.887 4.201-4.201 4.201-2.325 0-4.212-1.887-4.212-4.201 0-2.325 1.887-4.212 4.212-4.212 2.315 0 4.201 1.887 4.201 4.212z"/><path class="st2" d="M14.838 19.111c-.096 0-.188-.055-.231-.148-.168-.365-.253-.755-.253-1.159 0-1.533 1.247-2.779 2.779-2.779.66 0 1.299.235 1.8.662.107.091.12.252.029.359-.092.108-.253.12-.359.029-.409-.349-.932-.541-1.47-.541-1.251 0-2.27 1.018-2.27 2.27 0 .33.069.648.206.946.059.128.003.279-.125.338l-.106.023zm2.99-3.275l.856-.021-.021-.856.372.354.021.855-.855.022zm-.695 4.746c-.726 0-1.413-.278-1.934-.783-.101-.098-.104-.26-.005-.361.099-.1.259-.103.361-.005.425.413.986.64 1.579.64 1.251 0 2.269-1.018 2.269-2.269 0-.326-.067-.64-.2-.934-.058-.128-.001-.279.127-.337.127-.057.279-.001.337.127.163.36.245.745.245 1.144 0 1.531-1.247 2.778-2.779 2.778zm-.819-.871l-.855-.027-.027.855-.352-.374.027-.855.856.026z"/></svg>