<?xml version="1.0" encoding="utf-8"?>
<!-- Generator: Adobe Illustrator 22.0.1, SVG Export Plug-In . SVG Version: 6.00 Build 0)  -->
<svg version="1.1" id="Layer_1" xmlns="http://www.w3.org/2000/svg" xmlns:xlink="http://www.w3.org/1999/xlink" x="0px" y="0px"
	 viewBox="0 0 24 24" style="enable-background:new 0 0 24 24;" xml:space="preserve">
<style type="text/css">
	.st0{fill:#9ECFEF;}
	.st1{fill:#FFFFFF;}
	.st2{fill:#595959;}
	.st3{fill:#595959;stroke:#FFFFFF;stroke-width:0.25;stroke-miterlimit:10;}
	.st4{fill:#FFFFFF;stroke:#333333;stroke-width:0.25;stroke-miterlimit:10;}
	.st5{fill:#97C9E8;}
	.st6{fill:#595959;stroke:#595959;stroke-width:0.25;stroke-miterlimit:10;}
	.st7{fill:none;}
	.st8{fill:#595959;stroke:#FFFFFF;stroke-width:0.1916;stroke-miterlimit:10;}
	.st9{fill:#595959;stroke:#595959;stroke-width:0.2196;stroke-miterlimit:10;}
	.st10{fill:#FFFFFF;stroke:#595959;stroke-width:0.2196;stroke-miterlimit:10;}
	.st11{fill:#9ECFEF;stroke:#595959;stroke-width:0.25;stroke-miterlimit:10;}
	.st12{fill:#CA589D;}
	.st13{opacity:0.2;fill:#CA589D;}
	.st14{fill:#3CAF85;}
	.st15{fill:none;stroke:#2C3251;stroke-width:0.75;stroke-miterlimit:10;}
	.st16{fill:#595959;stroke:#FFFFFF;stroke-width:0.2467;stroke-miterlimit:10;}
	.st17{fill:#9ECFEF;stroke:#595959;stroke-width:0.5;stroke-miterlimit:10;}
	.st18{fill:#595959;stroke:#FFFFFF;stroke-width:0.4959;stroke-miterlimit:10;}
	.st19{fill:#595959;stroke:#595959;stroke-width:0.2246;stroke-miterlimit:10;}
	.st20{fill:none;stroke:#595959;stroke-width:0.7572;stroke-miterlimit:10;}
	.st21{fill:#595959;stroke:#595959;stroke-width:0.5;stroke-miterlimit:10;}
	.st22{fill:#595959;stroke:#595959;stroke-width:0.2986;stroke-miterlimit:10;}
	.st23{fill:#9ECFEF;stroke:#595959;stroke-width:0.75;stroke-miterlimit:10;}
	.st24{fill:#9ECEEE;stroke:#9ECEEE;stroke-width:0.75;stroke-miterlimit:10;}
	.st25{fill-rule:evenodd;clip-rule:evenodd;fill:#9ECFEF;}
	.st26{fill:none;stroke:#595959;stroke-miterlimit:10;}
	.st27{fill:none;stroke:#595959;stroke-width:0.76;stroke-linecap:round;stroke-linejoin:round;stroke-miterlimit:10;}
	.st28{fill:#FFFFFF;stroke:#595959;stroke-width:0.7603;stroke-miterlimit:10;}
	.st29{fill:none;stroke:#595959;stroke-width:0.7603;stroke-miterlimit:10;}
	.st30{fill:#A3D4FF;stroke:#595959;stroke-width:0.7603;stroke-miterlimit:10;}
	.st31{fill:none;stroke:#595959;stroke-width:0.9161;stroke-miterlimit:10;}
	.st32{fill:#B3B3B3;}
	.st33{fill:none;stroke:#324044;stroke-width:0.75;stroke-miterlimit:10;}
	.st34{fill:none;stroke:#FFFFFF;stroke-width:0.75;stroke-miterlimit:10;}
	.st35{fill:#FFFFFF;stroke:#FFFFFF;stroke-width:0.25;stroke-miterlimit:10;}
	.st36{fill:none;stroke:#2C3251;stroke-width:0.4222;stroke-miterlimit:10;}
	.st37{fill:#595959;stroke:#595959;stroke-width:0.1786;stroke-miterlimit:10;}
	.st38{fill:#FFFFFF;stroke:#FFFFFF;stroke-width:0.2467;stroke-miterlimit:10;}
	.st39{fill-rule:evenodd;clip-rule:evenodd;fill:#595959;}
	.st40{fill-rule:evenodd;clip-rule:evenodd;fill:#FFFFFF;}
	.st41{clip-path:url(#SVGID_2_);}
	.st42{clip-path:url(#SVGID_4_);fill:#9ECFEF;}
	.st43{clip-path:url(#SVGID_6_);}
	.st44{clip-path:url(#SVGID_8_);fill:#9ECFEF;}
	.st45{clip-path:url(#SVGID_10_);}
	.st46{clip-path:url(#SVGID_12_);fill:#595959;}
	.st47{clip-path:url(#SVGID_14_);}
	.st48{clip-path:url(#SVGID_16_);fill:#595959;}
	.st49{clip-path:url(#SVGID_18_);}
	.st50{clip-path:url(#SVGID_20_);fill:#595959;}
	.st51{fill:none;stroke:#324044;stroke-width:0.7863;stroke-miterlimit:10;}
	.st52{fill:#FFFFFF;stroke:#FFFFFF;stroke-width:0.1017;stroke-linecap:round;stroke-linejoin:round;stroke-miterlimit:10;}
	.st53{fill:none;stroke:#595959;stroke-width:0.692;stroke-linecap:round;stroke-linejoin:round;stroke-miterlimit:10;}
	.st54{fill:#FFFFFF;stroke:#595959;stroke-width:0.7612;stroke-miterlimit:10;}
	.st55{fill:#9ECFEF;stroke:#595959;stroke-width:0.7612;stroke-miterlimit:10;}
	.st56{fill:#9ECFEF;stroke:#595959;stroke-width:0.7616;stroke-linecap:round;stroke-linejoin:round;stroke-miterlimit:10;}
	.st57{fill:none;stroke:#2C3251;stroke-width:0.7182;stroke-miterlimit:10;}
	.st58{fill:#FFFFFF;stroke:#595959;stroke-miterlimit:10;}
	.st59{fill:#9ECFEF;stroke:#595959;stroke-miterlimit:10;}
	.st60{display:none;}
	.st61{fill:#2094FA;}
	.st62{fill:none;stroke:#FFFFFF;stroke-miterlimit:10;}
	.st63{fill:#9B9B9B;}
	.st64{fill:#9ECFEF;stroke:#595959;stroke-width:0.8645;stroke-miterlimit:10;}
	.st65{fill:none;stroke:#595959;stroke-width:0.8645;stroke-miterlimit:10;}
	.st66{fill:#595959;stroke:#595959;stroke-width:0.2138;stroke-miterlimit:10;}
	.st67{fill:#FFFFFF;stroke:#595959;stroke-width:0.7;stroke-linejoin:round;stroke-miterlimit:10;}
	.st68{fill:#FFFFFF;stroke:#595959;stroke-linecap:round;stroke-miterlimit:10;}
	.st69{fill:none;stroke:#595959;stroke-width:0.7;stroke-miterlimit:10;}
	.st70{fill:none;stroke:#2C3251;stroke-width:0.5563;stroke-miterlimit:10;}
	.st71{fill:none;stroke:#595959;stroke-width:0.7539;stroke-miterlimit:10;}
	.st72{clip-path:url(#SVGID_22_);}
	.st73{clip-path:url(#SVGID_24_);fill:#9ECFEF;}
	.st74{clip-path:url(#SVGID_26_);}
	.st75{clip-path:url(#SVGID_28_);fill:#9ECFEF;}
	.st76{clip-path:url(#SVGID_30_);}
	.st77{clip-path:url(#SVGID_32_);fill:#595959;}
	.st78{clip-path:url(#SVGID_34_);}
	.st79{clip-path:url(#SVGID_36_);fill:#595959;}
	.st80{clip-path:url(#SVGID_38_);}
	.st81{clip-path:url(#SVGID_40_);fill:#595959;}
	.st82{clip-path:url(#SVGID_42_);fill:#595959;}
</style>
<path class="st0" d="M19.5,20.5H4.4c-0.3,0-0.5-0.2-0.5-0.5V3.9c0-0.3,0.2-0.5,0.5-0.5h15.1c0.3,0,0.5,0.2,0.5,0.5v16.1
	C20,20.3,19.7,20.5,19.5,20.5z"/>
<g>
	<defs>
		<path id="SVGID_1_" d="M-27.4,21h11c0.3,0,0.5-0.2,0.5-0.5v-17c0-0.3-0.2-0.5-0.5-0.5h-11c-0.3,0-0.5,0.2-0.5,0.5v17
			C-27.9,20.8-27.7,21-27.4,21z"/>
	</defs>
	<clipPath id="SVGID_2_">
		<use xlink:href="#SVGID_1_"  style="overflow:visible;"/>
	</clipPath>
	<g class="st41">
		<defs>
			<rect id="SVGID_3_" x="-43.9" y="-259" width="320" height="697"/>
		</defs>
		<clipPath id="SVGID_4_">
			<use xlink:href="#SVGID_3_"  style="overflow:visible;"/>
		</clipPath>
	</g>
</g>
<g>
	<defs>
		<circle id="SVGID_5_" cx="-21.9" cy="12" r="3"/>
	</defs>
	<use xlink:href="#SVGID_5_"  style="overflow:visible;fill-rule:evenodd;clip-rule:evenodd;fill:#9ECFEF;"/>
	<clipPath id="SVGID_6_">
		<use xlink:href="#SVGID_5_"  style="overflow:visible;"/>
	</clipPath>
	<g class="st43">
		<defs>
			<rect id="SVGID_7_" x="-43.9" y="-259" width="320" height="697"/>
		</defs>
		<use xlink:href="#SVGID_7_"  style="overflow:visible;fill:#9ECFEF;"/>
		<clipPath id="SVGID_8_">
			<use xlink:href="#SVGID_7_"  style="overflow:visible;"/>
		</clipPath>
	</g>
</g>
<g>
	<defs>
		<path id="SVGID_9_" d="M-12,12.2c-2,3.4-5.8,5.4-9.9,5.4c-4.1,0-7.8-2.1-9.9-5.4l-0.1-0.2l0.1-0.2c2-3.4,5.8-5.4,9.9-5.4
			c4.1,0,7.8,2.1,9.9,5.4l0.1,0.2L-12,12.2z M-17,12c0-2.7-2.2-4.8-5-4.8s-5,2.2-5,4.8c0,2.7,2.2,4.8,5,4.8S-17,14.7-17,12z M-31,12
			c1.2,1.9,3,3.3,5,4.1c-1.1-1-1.8-2.5-1.8-4.1s0.7-3.1,1.8-4.1C-28,8.7-29.8,10.1-31,12z M-17.9,7.9c1.1,1,1.8,2.5,1.8,4.1
			s-0.7,3.1-1.8,4.1c2.1-0.8,3.8-2.2,5-4.1C-14.1,10.1-15.9,8.7-17.9,7.9z"/>
	</defs>
	<clipPath id="SVGID_10_">
		<use xlink:href="#SVGID_9_"  style="overflow:visible;"/>
	</clipPath>
	<g class="st45">
		<defs>
			<rect id="SVGID_11_" x="-43.9" y="-259" width="320" height="697"/>
		</defs>
		<clipPath id="SVGID_12_">
			<use xlink:href="#SVGID_11_"  style="overflow:visible;"/>
		</clipPath>
	</g>
</g>
<g>
	<defs>
		<path id="SVGID_13_" d="M-28.5,21.8c0,0.2,0.2,0.4,0.4,0.4h10.3V21c0-0.7,0.6-1.2,1.2-1.2h1.2v-2.8h0.8v2.9c0,0.3-0.1,0.6-0.4,0.9
			l-2,2c-0.2,0.2-0.5,0.4-0.9,0.4h-10.3c-0.7,0-1.2-0.5-1.2-1.2v-4.9h0.8V21.8z M-15.9,20.6h-0.6c-0.2,0-0.4,0.2-0.4,0.4v0.6
			L-15.9,20.6z"/>
	</defs>
	<clipPath id="SVGID_14_">
		<use xlink:href="#SVGID_13_"  style="overflow:visible;"/>
	</clipPath>
	<g class="st47">
		<defs>
			<rect id="SVGID_15_" x="-43.9" y="-258" width="320" height="697"/>
		</defs>
		<clipPath id="SVGID_16_">
			<use xlink:href="#SVGID_15_"  style="overflow:visible;"/>
		</clipPath>
	</g>
</g>
<g>
	<defs>
		<path id="SVGID_17_" d="M-15.3,2.2c0-0.2-0.2-0.4-0.4-0.4h-12.3c-0.2,0-0.4,0.2-0.4,0.4v3.2h-0.8V2.2c0-0.7,0.6-1.2,1.2-1.2h12.3
			c0.7,0,1.2,0.5,1.2,1.2v3.2h-0.8V2.2"/>
	</defs>
	<clipPath id="SVGID_18_">
		<use xlink:href="#SVGID_17_"  style="overflow:visible;"/>
	</clipPath>
	<g class="st49">
		<defs>
			<rect id="SVGID_19_" x="-43.9" y="-260" width="320" height="697"/>
		</defs>
		<clipPath id="SVGID_20_">
			<use xlink:href="#SVGID_19_"  style="overflow:visible;"/>
		</clipPath>
	</g>
</g>
<g>
	<g>
		<defs>
			<path id="SVGID_41_" d="M7.5,11.5c-0.3,0-0.5-0.2-0.5-0.5V9.3C7,9,7.2,8.7,7.5,8.7c0.3,0,0.5,0.2,0.5,0.5v1.6
				C8.1,11.2,7.8,11.5,7.5,11.5 M17.1,10.9V9.3c0-0.3-0.2-0.5-0.5-0.5S16,9,16,9.3v1.6c0,0.3,0.2,0.5,0.5,0.5S17.1,11.2,17.1,10.9
				 M13.2,13.4V9.3c0-0.3-0.3-0.6-0.6-0.6C12.3,8.7,12,9,12,9.3v4.1c0,0.2-0.1,0.3-0.3,0.3h-0.5c-0.3,0-0.6,0.3-0.6,0.6
				s0.3,0.6,0.6,0.6h0.5C12.5,14.9,13.2,14.2,13.2,13.4 M15.8,17.2c0.2-0.2,0.2-0.6,0-0.8c-0.2-0.2-0.6-0.2-0.8,0
				c-0.8,0.8-1.9,1.2-3,1.2s-2.2-0.4-3-1.2c-0.2-0.2-0.6-0.2-0.8,0c-0.2,0.2-0.2,0.6,0,0.8c1,1,2.4,1.5,3.8,1.5S14.8,18.2,15.8,17.2
				 M22.9,7.1V1.9c0-0.5-0.4-0.8-0.8-0.8h-5.2c-0.3,0-0.6,0.2-0.6,0.6s0.2,0.6,0.6,0.6h4.4c0.2,0,0.4,0.2,0.4,0.4v4.4
				c0,0.3,0.2,0.6,0.6,0.6C22.7,7.6,22.9,7.4,22.9,7.1 M2.2,7.1V2.6c0-0.2,0.2-0.4,0.4-0.4h4.4c0.3,0,0.6-0.2,0.6-0.6
				S7.4,1.1,7.1,1.1H1.9c-0.5,0-0.8,0.4-0.8,0.8v5.2c0,0.3,0.2,0.6,0.6,0.6S2.2,7.4,2.2,7.1 M7.6,22.4c0-0.3-0.2-0.6-0.6-0.6H2.6
				c-0.2,0-0.4-0.2-0.4-0.4v-4.4c0-0.3-0.2-0.6-0.6-0.6s-0.6,0.2-0.6,0.6v5.2c0,0.5,0.4,0.8,0.8,0.8h5.2C7.4,22.9,7.6,22.7,7.6,22.4
				 M16.1,22.4c0,0.3,0.2,0.6,0.6,0.6h5.2c0.5,0,0.8-0.4,0.8-0.8v-5.2c0-0.3-0.2-0.6-0.6-0.6s-0.6,0.2-0.6,0.6v4.4
				c0,0.2-0.2,0.4-0.4,0.4h-4.4C16.3,21.8,16.1,22.1,16.1,22.4"/>
		</defs>
		<use xlink:href="#SVGID_41_"  style="overflow:visible;fill-rule:evenodd;clip-rule:evenodd;fill:#595959;"/>
		<clipPath id="SVGID_22_">
			<use xlink:href="#SVGID_41_"  style="overflow:visible;"/>
		</clipPath>
		<rect x="1" y="1" style="clip-path:url(#SVGID_22_);fill:#595959;" width="22.1" height="22.1"/>
	</g>
</g>
</svg>
