<svg xmlns="http://www.w3.org/2000/svg" viewBox="0 0 24 24" enable-background="new 0 0 24 24"><style type="text/css">.st0{fill:#9ECFEF;} .st1{fill:#FFFFFF;} .st2{fill:#595959;} .st3{fill:#595959;stroke:#FFFFFF;stroke-width:0.25;stroke-miterlimit:10;} .st4{fill:#FFFFFF;stroke:#333333;stroke-width:0.25;stroke-miterlimit:10;} .st5{fill:#97C9E8;} .st6{fill:#595959;stroke:#595959;stroke-width:0.25;stroke-miterlimit:10;} .st7{fill:none;} .st8{fill:#595959;stroke:#FFFFFF;stroke-width:0.1916;stroke-miterlimit:10;} .st9{fill:#595959;stroke:#595959;stroke-width:0.2196;stroke-miterlimit:10;} .st10{fill:#FFFFFF;stroke:#595959;stroke-width:0.2196;stroke-miterlimit:10;} .st11{fill:#9ECFEF;stroke:#595959;stroke-width:0.25;stroke-miterlimit:10;} .st12{fill:#CA589D;} .st13{opacity:0.2;fill:#CA589D;} .st14{fill:#3CAF85;} .st15{fill:none;stroke:#2C3251;stroke-width:0.75;stroke-miterlimit:10;} .st16{fill:#595959;stroke:#FFFFFF;stroke-width:0.2467;stroke-miterlimit:10;} .st17{fill:#9ECFEF;stroke:#595959;stroke-width:0.5;stroke-miterlimit:10;} .st18{fill:#595959;stroke:#FFFFFF;stroke-width:0.4959;stroke-miterlimit:10;} .st19{fill:#595959;stroke:#595959;stroke-width:0.2246;stroke-miterlimit:10;} .st20{fill:none;stroke:#595959;stroke-width:0.7572;stroke-miterlimit:10;} .st21{fill:#595959;stroke:#595959;stroke-width:0.5;stroke-miterlimit:10;} .st22{fill:#595959;stroke:#595959;stroke-width:0.2986;stroke-miterlimit:10;} .st23{fill:#9ECFEF;stroke:#595959;stroke-width:0.75;stroke-miterlimit:10;} .st24{fill:#9ECEEE;stroke:#9ECEEE;stroke-width:0.75;stroke-miterlimit:10;} .st25{fill-rule:evenodd;clip-rule:evenodd;fill:#9ECFEF;} .st26{fill:none;stroke:#595959;stroke-miterlimit:10;} .st27{fill:none;stroke:#595959;stroke-width:0.9161;stroke-miterlimit:10;} .st28{fill:#B3B3B3;} .st29{fill:none;stroke:#324044;stroke-width:0.75;stroke-miterlimit:10;} .st30{fill:none;stroke:#2C3251;stroke-width:0.4222;stroke-miterlimit:10;}</style><circle class="st2" cx="2.941" cy="2.941" r="1.941"/><circle class="st2" cx="12" cy="2.941" r="1.941"/><circle class="st2" cx="21.059" cy="2.941" r="1.941"/><circle class="st2" cx="2.941" cy="12" r="1.941"/><circle class="st2" cx="12" cy="12" r="1.941"/><circle class="st2" cx="21.059" cy="12" r="1.941"/><circle class="st2" cx="2.941" cy="21.059" r="1.941"/><circle class="st2" cx="12" cy="21.059" r="1.941"/><circle class="st2" cx="21.059" cy="21.059" r="1.941"/><path class="st0" d="M2.941 21.559l-.191-.038c-.187-.077-.309-.26-.309-.462v-18.118c0-.276.224-.5.5-.5s.5.224.5.5v16.91l17.264-17.263c.143-.143.358-.187.545-.108.187.077.309.26.309.462v18.117c0 .276-.224.5-.5.5s-.5-.224-.5-.5v-16.911l-17.264 17.264c-.096.096-.224.147-.354.147z"/></svg>