<svg xmlns="http://www.w3.org/2000/svg" viewBox="0 0 24 24"><defs><style>.cls-1{fill:#9ecfef;}.cls-2{fill:#595959;}.cls-3{fill:#fff;}</style></defs><title>push-notifications</title><path class="cls-1" d="M17.73 2.18v.94h-12.16v-.94a.94.94 0 0 1 .94-.93h10.28a.94.94 0 0 1 .94.93z"/><path class="cls-2" d="M18.11 3.5h-12.91v-1.32a1.31 1.31 0 0 1 1.31-1.3h10.28a1.31 1.31 0 0 1 1.32 1.31zm-12.16-.75h11.41v-.57a.56.56 0 0 0-.57-.56h-10.28a.56.56 0 0 0-.57.56z"/><path class="cls-1" d="M17.73 20v1.87a.94.94 0 0 1-.94.93h-10.28a.94.94 0 0 1-.94-.93v-1.87z"/><path class="cls-2" d="M16.79 23.13h-10.28a1.31 1.31 0 0 1-1.31-1.31v-2.24h12.91v2.24a1.31 1.31 0 0 1-1.32 1.31zm-10.84-2.8v1.49a.56.56 0 0 0 .57.56h10.27a.56.56 0 0 0 .57-.56v-1.49z"/><path class="cls-3" d="M5.57 3.12h12.16v16.83h-12.16z"/><path class="cls-2" d="M18.11 20.33h-12.91v-17.58h12.91zm-12.16-.75h11.41v-16.08h-11.41zM10.25 20.97h2.8v.75h-2.8z"/><path class="cls-3" d="M22.2 16h-8.74a.4.4 0 0 1-.4-.4v-2.6l-1.55-1.07 1.55-1.26v-2.25a.4.4 0 0 1 .4-.4h8.74a.4.4 0 0 1 .4.4v7.16a.4.4 0 0 1-.4.42z"/><path class="cls-2" d="M22.2 16.33h-8.74a.75.75 0 0 1-.75-.75v-2.44l-1.4-1a.35.35 0 0 1 0-.56l1.42-1.16v-2a.75.75 0 0 1 .75-.75h8.72a.75.75 0 0 1 .75.75v7.16a.75.75 0 0 1-.75.75zm-10.11-4.47l1.16.8a.35.35 0 0 1 .15.29v2.63l8.79.05a.05.05 0 0 0 0-.05v-7.16l-8.79-.05-.05 2.25a.35.35 0 0 1-.13.27z"/><circle class="cls-3" cx="17.73" cy="9.97" r=".34"/><path class="cls-2" d="M17.73 10.51a.54.54 0 1 1 .54-.54.54.54 0 0 1-.54.54zm0-.68a.14.14 0 0 0-.14.14c0 .16.28.16.28 0a.14.14 0 0 0-.14-.14z"/><ellipse class="cls-3" cx="17.73" cy="13.8" rx=".77" ry=".64"/><path class="cls-2" d="M17.73 14.64a.91.91 0 0 1-1-.84 1 1 0 0 1 1.94 0 .91.91 0 0 1-.94.84zm0-1.28a.52.52 0 0 0-.57.44.59.59 0 0 0 1.14 0 .52.52 0 0 0-.57-.44z"/><path class="cls-1" d="M19.61 12.8a1.77 1.77 0 0 1-.54-1.19 1.34 1.34 0 0 0-2.69 0 1.77 1.77 0 0 1-.54 1.19 1.5 1.5 0 0 0-.16.66 4.73 4.73 0 0 0 2.07.35 4.44 4.44 0 0 0 2-.35 1.5 1.5 0 0 0-.14-.66z"/><path class="cls-2" d="M17.76 14a4.85 4.85 0 0 1-2.16-.37l-.11-.06v-.12a1.67 1.67 0 0 1 .19-.76v-.05a1.56 1.56 0 0 0 .46-1.05 1.54 1.54 0 0 1 3.08 0 1.56 1.56 0 0 0 .46 1.05v.05a1.67 1.67 0 0 1 .19.76v.12l-.11.06a4.62 4.62 0 0 1-2 .37zm-1.86-.67a4.87 4.87 0 0 0 1.86.27 4.58 4.58 0 0 0 1.8-.27 1.2 1.2 0 0 0-.11-.42 2 2 0 0 1-.57-1.29 1.14 1.14 0 0 0-2.29 0 2 2 0 0 1-.59 1.3 1.13 1.13 0 0 0-.09.42z"/><path class="cls-1" d="M17.68 10.93a.95.95 0 0 0-.66.9"/><path class="cls-2" d="M17 12a.2.2 0 0 1-.2-.17 1.14 1.14 0 0 1 .83-1.13.2.2 0 0 1 .06.4.72.72 0 0 0-.34.26.7.7 0 0 0-.15.4.2.2 0 0 1-.2.24z"/></svg>