<svg xmlns="http://www.w3.org/2000/svg" viewBox="0 0 24 24" enable-background="new 0 0 24 24"><style type="text/css">.st0{fill:#9ECFEF;} .st1{fill:#595959;} .st2{fill:#FFFFFF;} .st3{fill:#595959;stroke:#FFFFFF;stroke-width:0.25;stroke-miterlimit:10;} .st4{fill:#FFFFFF;stroke:#333333;stroke-width:0.25;stroke-miterlimit:10;} .st5{fill:#97C9E8;} .st6{fill:#595959;stroke:#595959;stroke-width:0.25;stroke-miterlimit:10;} .st7{fill:none;} .st8{fill:#595959;stroke:#FFFFFF;stroke-width:0.1916;stroke-miterlimit:10;} .st9{fill:#595959;stroke:#595959;stroke-width:0.2196;stroke-miterlimit:10;} .st10{fill:#FFFFFF;stroke:#595959;stroke-width:0.2196;stroke-miterlimit:10;} .st11{fill:#9ECFEF;stroke:#595959;stroke-width:0.25;stroke-miterlimit:10;} .st12{fill:#CA589D;} .st13{opacity:0.2;fill:#CA589D;} .st14{fill:#3CAF85;} .st15{fill:none;stroke:#2C3251;stroke-width:0.75;stroke-miterlimit:10;} .st16{fill:#595959;stroke:#FFFFFF;stroke-width:0.2467;stroke-miterlimit:10;} .st17{fill:#9ECFEF;stroke:#595959;stroke-width:0.5;stroke-miterlimit:10;} .st18{fill:#595959;stroke:#FFFFFF;stroke-width:0.4959;stroke-miterlimit:10;} .st19{fill:#595959;stroke:#595959;stroke-width:0.2246;stroke-miterlimit:10;} .st20{fill:none;stroke:#595959;stroke-width:0.7572;stroke-miterlimit:10;} .st21{fill:#595959;stroke:#595959;stroke-width:0.5;stroke-miterlimit:10;} .st22{fill:#FFFFFF;stroke:#FFFFFF;stroke-width:0.25;stroke-miterlimit:10;} .st23{fill:none;stroke:#FFFFFF;stroke-width:0.6;stroke-miterlimit:10;} .st24{fill:none;stroke:#FFFFFF;stroke-width:0.3;stroke-miterlimit:10;} .st25{fill:#FFFFFF;stroke:#FFFFFF;stroke-width:0.5;stroke-miterlimit:10;} .st26{fill:#595959;stroke:#595959;stroke-width:0.2986;stroke-miterlimit:10;} .st27{fill:#9ECFEF;stroke:#595959;stroke-width:0.75;stroke-miterlimit:10;} .st28{fill:#9ECEEE;stroke:#9ECEEE;stroke-width:0.75;stroke-miterlimit:10;} .st29{fill-rule:evenodd;clip-rule:evenodd;fill:#9ECFEF;} .st30{fill:none;stroke:#595959;stroke-miterlimit:10;} .st31{fill:none;stroke:#595959;stroke-width:0.9161;stroke-miterlimit:10;} .st32{fill:#B3B3B3;} .st33{fill:none;stroke:#324044;stroke-width:0.75;stroke-miterlimit:10;} .st34{fill:none;stroke:#FFFFFF;stroke-width:0.75;stroke-miterlimit:10;} .st35{fill:none;stroke:#2C3251;stroke-width:0.4222;stroke-miterlimit:10;} .st36{fill-rule:evenodd;clip-rule:evenodd;fill:#595959;stroke:#595959;stroke-width:0.5781;stroke-miterlimit:10;} .st37{fill:#595959;stroke:#595959;stroke-width:0.1786;stroke-miterlimit:10;} .st38{fill:#FFFFFF;stroke:#FFFFFF;stroke-width:0.2467;stroke-miterlimit:10;} .st39{fill-rule:evenodd;clip-rule:evenodd;fill:#595959;} .st40{fill-rule:evenodd;clip-rule:evenodd;fill:#FFFFFF;} .st41{clip-path:url(#SVGID_2_);} .st42{clip-path:url(#SVGID_4_);fill:#9ECFEF;} .st43{clip-path:url(#SVGID_6_);} .st44{clip-path:url(#SVGID_8_);fill:#9ECFEF;} .st45{clip-path:url(#SVGID_10_);} .st46{clip-path:url(#SVGID_12_);fill:#595959;} .st47{clip-path:url(#SVGID_14_);} .st48{clip-path:url(#SVGID_16_);fill:#595959;} .st49{clip-path:url(#SVGID_18_);} .st50{clip-path:url(#SVGID_20_);fill:#595959;}</style><path class="st39" d="M3.278 4.988h17.445c.188 0 .359.077.482.2.124.123.2.294.2.482v11.559h.846c.182 0 .347.072.469.188l.012.012c.124.123.2.294.2.482v.419c0 .188-.077.359-.2.482-.123.124-.294.2-.482.2h-20.501c-.188 0-.359-.077-.482-.2h.001l-.001-.001c-.123-.123-.2-.294-.2-.481v-.419c0-.188.077-.358.2-.481l.001-.001c.124-.124.294-.2.481-.2h.846v-11.559c0-.187.077-.358.2-.481v-.001c.124-.123.295-.2.483-.2z"/><path class="st40" d="M1.902 18.312h20.18l.203-.046.085-.111v-.226l-.085-.111-.007-.004-.196-.042h-20.179999999999996l-.203.046-.084.112v.226l.084.112.203.044zM20.286 5.75h-16.509c-.076 0-.145.031-.196.081-.05.049-.081.118-.081.194v10.891h17.062v-10.891c0-.076-.031-.145-.081-.195-.05-.049-.119-.08-.195-.08z"/><path class="st29" d="M19.631 6.315h-15.262c-.22 0-.399.178-.399.399v9.18c0 .22.178.399.399.399h15.262c.22 0 .399-.178.399-.399v-9.18c-.001-.221-.179-.399-.399-.399z"/></svg>