<svg xmlns="http://www.w3.org/2000/svg" viewBox="0 0 24 24"><defs><style>.cls-1,.cls-3{fill:#fff;}.cls-1,.cls-4,.cls-5{stroke:#595959;stroke-miterlimit:10;}.cls-2{fill:#595959;}.cls-4{fill:#9ecfef;}.cls-5{fill:none;}</style></defs><title>reset-wearable</title><rect class="cls-1" x="2.5" y="4.01" width="17.05" height="15.84" rx=".38" ry=".38"/><path class="cls-2" d="M11.2 7.23a5.14 5.14 0 1 0 5.14 5.14 5.14 5.14 0 0 0-5.14-5.14zm0 9.34a4.21 4.21 0 1 1 4.2-4.2 4.21 4.21 0 0 1-4.2 4.21z"/><path class="cls-3" d="M15.4 12.37a4.21 4.21 0 1 1-4.2-4.21 4.21 4.21 0 0 1 4.2 4.21z"/><path class="cls-2" d="M8.91 13.68a.26.26 0 0 1-.23-.15 2.75 2.75 0 0 1-.25-1.16 2.78 2.78 0 0 1 4.57-2.11.25.25 0 1 1-.33.39 2.27 2.27 0 0 0-3.53 2.68.25.25 0 0 1-.12.34zM11.9 10.41l.85-.03-.02-.85.37.35.03.86-.86.02-.37-.35zM11.2 15.15a2.77 2.77 0 0 1-1.93-.78.26.26 0 1 1 .35-.37 2.27 2.27 0 0 0 3.65-2.56.26.26 0 0 1 .46-.21 2.78 2.78 0 0 1-2.53 3.92zM10.38 14.28l-.85-.02-.03.85-.35-.37.03-.86.85.03.35.37z"/><rect class="cls-4" x="5.03" y="1.35" width="11.99" height="2.66" rx=".13" ry=".13"/><rect class="cls-5" x="19.52" y="10.6" width="2.43" height="2.66" rx=".06" ry=".06"/><rect class="cls-4" x="5.03" y="19.85" width="11.99" height="2.66" rx=".13" ry=".13"/></svg>