<svg xmlns="http://www.w3.org/2000/svg" viewBox="0 0 24 24" enable-background="new 0 0 24 24"><style type="text/css">.st0{fill:#9ECFEF;} .st1{fill:#FFFFFF;} .st2{fill:#595959;} .st3{fill:#595959;stroke:#FFFFFF;stroke-width:0.25;stroke-miterlimit:10;} .st4{fill:#FFFFFF;stroke:#333333;stroke-width:0.25;stroke-miterlimit:10;} .st5{fill:#97C9E8;} .st6{fill:#595959;stroke:#595959;stroke-width:0.25;stroke-miterlimit:10;} .st7{fill:none;} .st8{fill:#595959;stroke:#FFFFFF;stroke-width:0.1916;stroke-miterlimit:10;} .st9{fill:#595959;stroke:#595959;stroke-width:0.2196;stroke-miterlimit:10;} .st10{fill:#FFFFFF;stroke:#595959;stroke-width:0.2196;stroke-miterlimit:10;} .st11{fill:#9ECFEF;stroke:#595959;stroke-width:0.25;stroke-miterlimit:10;} .st12{fill:#CA589D;} .st13{opacity:0.2;fill:#CA589D;} .st14{fill:#3CAF85;} .st15{fill:none;stroke:#2C3251;stroke-width:0.75;stroke-miterlimit:10;} .st16{fill:#595959;stroke:#FFFFFF;stroke-width:0.2467;stroke-miterlimit:10;} .st17{fill:#9ECFEF;stroke:#595959;stroke-width:0.5;stroke-miterlimit:10;} .st18{fill:#595959;stroke:#FFFFFF;stroke-width:0.4959;stroke-miterlimit:10;} .st19{fill:#595959;stroke:#595959;stroke-width:0.2246;stroke-miterlimit:10;} .st20{fill:none;stroke:#595959;stroke-width:0.7572;stroke-miterlimit:10;} .st21{fill:#595959;stroke:#595959;stroke-width:0.5;stroke-miterlimit:10;} .st22{fill:#595959;stroke:#595959;stroke-width:0.2986;stroke-miterlimit:10;} .st23{fill:#9ECFEF;stroke:#595959;stroke-width:0.75;stroke-miterlimit:10;} .st24{fill:#9ECEEE;stroke:#9ECEEE;stroke-width:0.75;stroke-miterlimit:10;} .st25{fill-rule:evenodd;clip-rule:evenodd;fill:#9ECFEF;} .st26{fill:none;stroke:#595959;stroke-miterlimit:10;} .st27{fill:none;stroke:#595959;stroke-width:0.9161;stroke-miterlimit:10;} .st28{fill:#B3B3B3;} .st29{fill:none;stroke:#324044;stroke-width:0.75;stroke-miterlimit:10;} .st30{fill:none;stroke:#2C3251;stroke-width:0.4222;stroke-miterlimit:10;}</style><path class="st2" d="M12 23.164l-.144-.058c-6.442-2.598-8.228-8.067-8.3-8.298l-.018-.115v-11.027l8.462-2.821 8.461 2.82-.018 11.142c-.073.231-1.858 5.701-8.3 8.298l-.143.059zm-7.694-8.535c.196.554 2.038 5.358 7.694 7.706 5.656-2.348 7.498-7.152 7.694-7.706v-10.41l-7.694-2.564-7.694 2.564v10.41z"/><path class="st0" d="M19.313 4.468v10.023s-1.566 5.126-7.312 7.513c-5.746-2.387-7.313-7.513-7.313-7.513v-10.023l7.312-2.511 7.313 2.511z"/><path class="st1" d="M9.188 7.235c.165-.15.345-.29.54-.42.195-.13.406-.245.634-.345.228-.1.475-.179.743-.236.268-.057.556-.086.866-.086.415 0 .796.059 1.144.176s.647.285.9.502c.252.217.448.48.588.788.14.307.21.651.21 1.031s-.055.708-.165.986c-.11.277-.25.519-.42.724s-.355.384-.555.536l-.566.428c-.178.132-.33.265-.458.397-.127.132-.204.279-.229.438l-.158 1.125h-1.095l-.112-1.237c-.025-.235.012-.438.112-.607s.234-.33.401-.48c.167-.15.353-.294.555-.432.203-.137.391-.291.566-.461.175-.17.323-.36.443-.57.12-.21.18-.462.18-.757 0-.195-.037-.371-.112-.529-.075-.157-.18-.291-.315-.401-.135-.11-.292-.195-.473-.255-.18-.06-.375-.09-.585-.09-.295 0-.545.035-.75.105s-.38.146-.525.229l-.36.225c-.095.067-.175.102-.24.102-.155 0-.27-.068-.345-.203l-.419-.683zm1.439 8.902c0-.145.026-.281.079-.409.052-.127.125-.239.217-.333.093-.095.203-.17.33-.225s.264-.083.409-.083.281.027.409.083.239.13.334.225c.095.095.17.206.225.333.055.127.083.264.083.409 0 .15-.028.288-.083.413-.055.125-.13.235-.225.33-.095.095-.207.169-.334.221-.127.053-.264.079-.409.079s-.281-.026-.409-.079c-.127-.052-.237-.126-.33-.221-.092-.095-.165-.205-.217-.33-.052-.125-.079-.262-.079-.413z"/><path class="st2" d="M11.663 17.555c-.194 0-.38-.036-.552-.107-.173-.071-.327-.174-.455-.306-.125-.128-.225-.279-.295-.447-.071-.169-.108-.357-.108-.557 0-.194.036-.379.107-.552.07-.17.169-.322.295-.452s.277-.233.45-.308c.348-.15.768-.15 1.115 0 .171.074.322.176.45.304s.23.279.304.45c.075.176.113.363.113.558 0 .201-.039.39-.114.563-.075.168-.176.318-.304.445-.13.13-.284.232-.457.303-.169.07-.355.106-.549.106zm0-2.093c-.094 0-.179.017-.26.052-.083.036-.152.083-.21.143-.06.061-.105.131-.139.214-.035.083-.051.17-.051.267 0 .101.016.188.05.267.034.082.081.154.14.214.057.059.124.103.204.136.166.068.369.068.532 0 .083-.034.152-.08.212-.14.062-.063.11-.133.147-.216.034-.078.051-.163.051-.261 0-.094-.017-.179-.052-.261-.036-.083-.084-.154-.146-.216-.062-.062-.133-.109-.218-.146-.081-.036-.166-.053-.26-.053zm.926-1.807h-1.764l-.144-1.579c-.033-.31.021-.592.163-.832.12-.203.279-.394.475-.569.179-.161.377-.315.594-.462.183-.124.356-.265.516-.42.148-.144.276-.308.378-.487.086-.151.13-.344.13-.571 0-.14-.025-.26-.076-.367-.051-.108-.121-.198-.214-.273-.1-.081-.216-.143-.354-.189-.349-.117-.819-.08-1.095.014-.18.061-.333.127-.46.199l-.328.205c-.489.347-.918.158-1.13-.225l-.575-.932.23-.209c.179-.163.374-.314.585-.455.214-.142.446-.269.691-.376.251-.11.525-.197.814-.26.693-.147 1.542-.124 2.209.102.393.132.737.326 1.025.573.292.252.523.561.685.917.162.354.244.753.244 1.187 0 .426-.064.805-.191 1.125-.124.313-.285.59-.48.825-.187.226-.394.426-.616.595l-.569.43c-.161.119-.298.238-.412.357-.074.077-.116.154-.128.236l-.203 1.441zm-1.079-.75h.427l.112-.802c.038-.243.149-.458.33-.646.14-.146.308-.292.503-.438l.563-.425c.177-.135.343-.295.494-.478.144-.174.265-.383.36-.623.092-.232.139-.517.139-.848 0-.325-.059-.62-.176-.875-.117-.257-.282-.479-.492-.659-.214-.185-.475-.33-.775-.432-.539-.181-1.25-.198-1.812-.079-.24.052-.465.124-.67.213-.207.091-.399.195-.577.314l-.259.186.251.407.44-.253c.163-.092.359-.179.589-.257.427-.145 1.07-.185 1.575-.016.222.074.42.181.59.319.178.147.318.325.417.531.099.208.149.439.149.69 0 .359-.077.676-.229.943-.138.241-.309.461-.507.654-.19.185-.398.354-.617.502-.188.127-.36.261-.515.4-.138.124-.249.255-.329.392-.059.099-.079.223-.063.377l.082.903z"/></svg>