<svg xmlns="http://www.w3.org/2000/svg" viewBox="0 0 24 24" enable-background="new 0 0 24 24"><style type="text/css">.st0{fill:#9ECFEF;} .st1{fill:#FFFFFF;} .st2{fill:#595959;} .st3{fill:#595959;stroke:#FFFFFF;stroke-width:0.25;stroke-miterlimit:10;} .st4{fill:#FFFFFF;stroke:#333333;stroke-width:0.25;stroke-miterlimit:10;} .st5{fill:#97C9E8;} .st6{fill:#595959;stroke:#595959;stroke-width:0.25;stroke-miterlimit:10;} .st7{fill:none;} .st8{fill:#595959;stroke:#FFFFFF;stroke-width:0.1916;stroke-miterlimit:10;} .st9{fill:#595959;stroke:#595959;stroke-width:0.2196;stroke-miterlimit:10;} .st10{fill:#FFFFFF;stroke:#595959;stroke-width:0.2196;stroke-miterlimit:10;} .st11{fill:#9ECFEF;stroke:#595959;stroke-width:0.25;stroke-miterlimit:10;} .st12{fill:#CA589D;} .st13{opacity:0.2;fill:#CA589D;} .st14{fill:#3CAF85;} .st15{fill:none;stroke:#2C3251;stroke-width:0.75;stroke-miterlimit:10;} .st16{fill:#595959;stroke:#FFFFFF;stroke-width:0.2467;stroke-miterlimit:10;} .st17{fill:#9ECFEF;stroke:#595959;stroke-width:0.5;stroke-miterlimit:10;} .st18{fill:#595959;stroke:#FFFFFF;stroke-width:0.4959;stroke-miterlimit:10;} .st19{fill:#595959;stroke:#595959;stroke-width:0.2246;stroke-miterlimit:10;} .st20{fill:none;stroke:#595959;stroke-width:0.7572;stroke-miterlimit:10;} .st21{fill:#595959;stroke:#595959;stroke-width:0.5;stroke-miterlimit:10;} .st22{fill:#595959;stroke:#595959;stroke-width:0.2986;stroke-miterlimit:10;} .st23{fill:#9ECFEF;stroke:#595959;stroke-width:0.75;stroke-miterlimit:10;} .st24{fill:#9ECEEE;stroke:#9ECEEE;stroke-width:0.75;stroke-miterlimit:10;} .st25{fill-rule:evenodd;clip-rule:evenodd;fill:#9ECFEF;} .st26{fill:none;stroke:#595959;stroke-miterlimit:10;} .st27{fill:none;stroke:#595959;stroke-width:0.9161;stroke-miterlimit:10;} .st28{fill:#B3B3B3;} .st29{fill:none;stroke:#324044;stroke-width:0.75;stroke-miterlimit:10;} .st30{fill:none;stroke:#2C3251;stroke-width:0.4222;stroke-miterlimit:10;}</style><path class="st0" d="M19.873 12c-.599 6.046-3.519 11-7.86 11s-7.157-4.966-7.86-11c-.398-3.417.715-6.467 2.555-8.484 1.446-1.584 3.341-2.53 5.305-2.516 1.801.013 3.634.767 5.082 2.33 1.881 2.03 3.112 5.29 2.778 8.67z"/><path class="st2" d="M5.434 16.24l-.163-.001c-.276-.005-.496-.233-.491-.509.005-.276.244-.513.509-.491l.149.001c3.405 0 6.794-2.101 7.761-4.832.263-.742.378-1.484.343-2.205-.047-.961-.565-1.607-1.352-1.687-.872-.09-1.517.398-1.732 1.302-.331 1.384-.892 2.917-2.544 3.798-.543.289-1.107.372-1.652.451-.337.049-.655.095-.951.188-.266.083-.544-.064-.627-.327-.084-.262.063-.543.326-.626.372-.117.745-.171 1.106-.224.482-.07.938-.137 1.326-.344 1.05-.56 1.642-1.472 2.042-3.148.333-1.393 1.438-2.206 2.806-2.064 1.295.131 2.178 1.165 2.25 2.633.041.852-.093 1.723-.4 2.588-1.099 3.107-4.902 5.497-8.706 5.497zm13.526-1.921l-.102-.01c-2.374-.494-3.421-1.878-3.298-4.356l.014-.272c.084-1.602.164-3.115-1.137-4.253-.961-.842-2.238-1.167-3.421-.865-1.163.295-2.053 1.13-2.503 2.351-.074.198-.128.405-.184.611-.087.324-.176.657-.329.981-.501 1.067-1.451 1.591-2.755 1.491-.276-.019-.483-.258-.464-.534.019-.275.25-.483.534-.463.892.064 1.456-.23 1.78-.92.115-.243.19-.52.269-.814.063-.236.127-.472.211-.699.56-1.517 1.724-2.601 3.195-2.975 1.499-.383 3.117.023 4.326 1.082 1.667 1.459 1.566 3.372 1.478 5.059l-.014.269c-.1 1.999.602 2.932 2.502 3.327.271.057.444.321.388.591-.05.237-.258.399-.49.399zm.121-2.1l-.136-.019c-1.656-.468-1.426-1.934-1.302-2.722l.025-.167c.165-1.108.143-1.975-.069-2.649-.833-2.656-2.88-4.224-5.615-4.303-1.916-.052-4.516.942-5.51 3.937l-.36 1.081c-.087.262-.37.402-.632.316-.262-.087-.403-.37-.316-.632l.36-1.08c1.167-3.517 4.227-4.673 6.488-4.622 3.14.091 5.584 1.961 6.54 5.003.258.822.292 1.835.104 3.096l-.028.175c-.154.979-.144 1.398.585 1.605.266.075.42.351.345.617-.061.22-.262.364-.479.364zm-13.081 6.18c-.221 0-.423-.147-.482-.371-.071-.267.087-.541.354-.612.378-.101.758-.194 1.139-.287.805-.197 1.638-.401 2.417-.678 1.903-.678 4.414-1.246 6.944.402.458.299.948.546 1.438.344.255-.105.547.016.653.271s-.015.547-.271.653c-.925.385-1.751-.029-2.367-.43-1.71-1.112-3.522-1.203-6.063-.297-.827.294-1.685.504-2.515.707-.374.091-.747.183-1.118.282l-.129.016zm10.735 1.681c-.775 0-1.44-.313-1.866-.582-1.178-.741-2.494-.825-4.14-.263-.654.223-1.319.379-1.962.529-.399.094-.798.187-1.194.296-.261.074-.541-.082-.615-.349-.074-.266.083-.542.349-.615.409-.113.821-.209 1.233-.306.648-.152 1.26-.295 1.867-.502 1.927-.659 3.561-.54 4.995.363.324.204.835.443 1.385.427.285-.004.506.21.514.486.007.276-.21.506-.486.514l-.08.002zm-11.107-5.85c-.114 0-.234-.014-.361-.049-.267-.074-.423-.349-.349-.615.074-.267.351-.42.615-.349.136.037.276-.012.514-.103.147-.056.295-.11.447-.143 2.771-.606 4.663-1.599 4.891-4.472.02-.249.112-.44.274-.569.241-.192.515-.15.663-.126.258-.1.538.045.635.304.098.258-.042.56-.3.658-.105.04-.202.052-.298.046-.395 3.517-3.071 4.571-5.652 5.136l-.305.101c-.218.083-.476.181-.774.181zm3.749 7.414c-.169 0-.326-.051-.454-.093l-.142-.042c-.271-.054-.446-.317-.392-.588.054-.271.313-.45.588-.392l.256.072.112.035c1.793-.768 3.733-.798 5.928-.092.263.085.407.367.323.629-.084.263-.364.406-.629.323-2.006-.646-3.688-.618-5.292.087-.101.044-.201.061-.298.061zm9.268-5.405c-1.509 0-2.891-.594-4.22-1.815-.128-.118-.17-.115-.205-.109-.277.038-.522-.163-.556-.437-.033-.274.163-.523.437-.556.479-.056.8.182 1 .366 1.173 1.077 2.319 1.582 3.612 1.551.269.013.503.217.507.493.004.276-.217.503-.493.507h-.082z"/></svg>