<svg xmlns="http://www.w3.org/2000/svg" xmlns:xlink="http://www.w3.org/1999/xlink" viewBox="0 0 24 24" enable-background="new 0 0 24 24"><style type="text/css">.st0{fill:#9ECFEF;} .st1{fill:#595959;} .st2{fill:#FFFFFF;} .st3{fill:#595959;stroke:#FFFFFF;stroke-width:0.25;stroke-miterlimit:10;} .st4{fill:#FFFFFF;stroke:#333333;stroke-width:0.25;stroke-miterlimit:10;} .st5{fill:#97C9E8;} .st6{fill:#595959;stroke:#595959;stroke-width:0.25;stroke-miterlimit:10;} .st7{fill:none;} .st8{fill:#595959;stroke:#FFFFFF;stroke-width:0.1916;stroke-miterlimit:10;} .st9{fill:#595959;stroke:#595959;stroke-width:0.2196;stroke-miterlimit:10;} .st10{fill:#FFFFFF;stroke:#595959;stroke-width:0.2196;stroke-miterlimit:10;} .st11{fill:#9ECFEF;stroke:#595959;stroke-width:0.25;stroke-miterlimit:10;} .st12{fill:#CA589D;} .st13{opacity:0.2;fill:#CA589D;} .st14{fill:#3CAF85;} .st15{fill:none;stroke:#2C3251;stroke-width:0.75;stroke-miterlimit:10;} .st16{fill:#595959;stroke:#FFFFFF;stroke-width:0.2467;stroke-miterlimit:10;} .st17{fill:#9ECFEF;stroke:#595959;stroke-width:0.5;stroke-miterlimit:10;} .st18{fill:#595959;stroke:#FFFFFF;stroke-width:0.4959;stroke-miterlimit:10;} .st19{fill:#595959;stroke:#595959;stroke-width:0.2246;stroke-miterlimit:10;} .st20{fill:none;stroke:#595959;stroke-width:0.7572;stroke-miterlimit:10;} .st21{fill:#595959;stroke:#595959;stroke-width:0.5;stroke-miterlimit:10;} .st22{fill:#FFFFFF;stroke:#FFFFFF;stroke-width:0.25;stroke-miterlimit:10;} .st23{fill:none;stroke:#FFFFFF;stroke-width:0.6;stroke-miterlimit:10;} .st24{fill:none;stroke:#FFFFFF;stroke-width:0.3;stroke-miterlimit:10;} .st25{fill:#FFFFFF;stroke:#FFFFFF;stroke-width:0.5;stroke-miterlimit:10;} .st26{fill:#595959;stroke:#595959;stroke-width:0.2986;stroke-miterlimit:10;} .st27{fill:#9ECFEF;stroke:#595959;stroke-width:0.75;stroke-miterlimit:10;} .st28{fill:#9ECEEE;stroke:#9ECEEE;stroke-width:0.75;stroke-miterlimit:10;} .st29{fill-rule:evenodd;clip-rule:evenodd;fill:#9ECFEF;} .st30{fill:none;stroke:#595959;stroke-miterlimit:10;} .st31{fill:none;stroke:#595959;stroke-width:0.9161;stroke-miterlimit:10;} .st32{fill:#B3B3B3;} .st33{fill:none;stroke:#324044;stroke-width:0.75;stroke-miterlimit:10;} .st34{fill:none;stroke:#FFFFFF;stroke-width:0.75;stroke-miterlimit:10;} .st35{fill:none;stroke:#2C3251;stroke-width:0.4222;stroke-miterlimit:10;} .st36{fill-rule:evenodd;clip-rule:evenodd;fill:#595959;stroke:#595959;stroke-width:0.5781;stroke-miterlimit:10;} .st37{fill:#595959;stroke:#595959;stroke-width:0.1786;stroke-miterlimit:10;} .st38{fill:#FFFFFF;stroke:#FFFFFF;stroke-width:0.2467;stroke-miterlimit:10;} .st39{fill-rule:evenodd;clip-rule:evenodd;fill:#595959;} .st40{fill-rule:evenodd;clip-rule:evenodd;fill:#FFFFFF;} .st41{clip-path:url(#SVGID_2_);} .st42{clip-path:url(#SVGID_4_);fill:#9ECFEF;} .st43{clip-path:url(#SVGID_6_);} .st44{clip-path:url(#SVGID_8_);fill:#9ECFEF;} .st45{clip-path:url(#SVGID_10_);} .st46{clip-path:url(#SVGID_12_);fill:#595959;} .st47{clip-path:url(#SVGID_14_);} .st48{clip-path:url(#SVGID_16_);fill:#595959;} .st49{clip-path:url(#SVGID_18_);} .st50{clip-path:url(#SVGID_20_);fill:#595959;}</style><defs><path id="SVGID_1_" d="M6.5 21h11c.276 0 .5-.224.5-.5v-17c0-.276-.224-.5-.5-.5h-11c-.276 0-.5.224-.5.5v17c0 .276.224.5.5.5z"/></defs><clipPath id="SVGID_2_"><use xlink:href="#SVGID_1_" overflow="visible"/></clipPath><g class="st41"><defs><path id="SVGID_3_" d="M-10-259h320v697h-320z"/></defs><clipPath id="SVGID_4_"><use xlink:href="#SVGID_3_" overflow="visible"/></clipPath><path class="st42" d="M1-2h22v28h-22z"/></g><ellipse class="st40" cx="12" cy="12" rx="4.966" ry="4.845"/><defs><circle id="SVGID_5_" cx="12" cy="12" r="3"/></defs><use xlink:href="#SVGID_5_" overflow="visible" fill-rule="evenodd" clip-rule="evenodd" fill="#9ECFEF"/><clipPath id="SVGID_6_"><use xlink:href="#SVGID_5_" overflow="visible"/></clipPath><g class="st43"><defs><path id="SVGID_7_" d="M-10-259h320v697h-320z"/></defs><use xlink:href="#SVGID_7_" overflow="visible" fill="#9ECFEF"/><clipPath id="SVGID_8_"><use xlink:href="#SVGID_7_" overflow="visible"/></clipPath><path class="st44" d="M4 4h16v16h-16z"/></g><defs><path id="SVGID_9_" d="M21.875 12.205c-2.036 3.36-5.82 5.447-9.875 5.447s-7.839-2.087-9.875-5.447l-.125-.205.125-.205c2.036-3.36 5.82-5.447 9.875-5.447s7.839 2.087 9.875 5.447l.125.205-.125.205zm-4.909-.205c0-2.671-2.228-4.845-4.966-4.845s-4.966 2.174-4.966 4.845 2.228 4.845 4.966 4.845 4.966-2.174 4.966-4.845zm-14.001 0c1.194 1.865 2.978 3.286 5.043 4.093-1.11-1.03-1.802-2.484-1.802-4.093s.693-3.063 1.802-4.093c-2.065.807-3.849 2.228-5.043 4.093zm13.027-4.093c1.11 1.03 1.802 2.484 1.802 4.093s-.693 3.063-1.802 4.093c2.065-.807 3.849-2.228 5.043-4.093-1.194-1.865-2.978-3.286-5.043-4.093z"/></defs><clipPath id="SVGID_10_"><use xlink:href="#SVGID_9_" overflow="visible"/></clipPath><g class="st45"><defs><path id="SVGID_11_" d="M-10-259h320v697h-320z"/></defs><clipPath id="SVGID_12_"><use xlink:href="#SVGID_11_" overflow="visible"/></clipPath><path class="st46" d="M-3 1.348h30v21.304h-30z"/></g><defs><path id="SVGID_13_" d="M5.43 21.786c0 .223.183.404.409.404h10.267v-1.215c0-.672.554-1.22 1.234-1.22h1.23v-2.841h.821v2.911c0 .325-.128.631-.36.86l-1.984 1.961c-.233.229-.542.356-.87.356h-10.338c-.679 0-1.23-.546-1.23-1.216v-4.871h.821v4.871zm12.559-1.219h-.649c-.228 0-.413.183-.413.408v.642l1.062-1.05z"/></defs><clipPath id="SVGID_14_"><use xlink:href="#SVGID_13_" overflow="visible"/></clipPath><g class="st47"><defs><path id="SVGID_15_" d="M-10-257.998h320v697h-320z"/></defs><clipPath id="SVGID_16_"><use xlink:href="#SVGID_15_" overflow="visible"/></clipPath><path class="st48" d="M-.391 11.915h24.783v16.087h-24.783z"/></g><defs><path id="SVGID_17_" d="M18.57 2.207c0-.216-.184-.393-.409-.393h-12.322c-.226 0-.409.176-.409.393v3.167h-.821v-3.167c0-.651.552-1.181 1.23-1.181h12.322c.679 0 1.23.53 1.23 1.181v3.166h-.821v-3.166"/></defs><clipPath id="SVGID_18_"><use xlink:href="#SVGID_17_" overflow="visible"/></clipPath><g class="st49"><defs><path id="SVGID_19_" d="M-10-259.974h320v697h-320z"/></defs><clipPath id="SVGID_20_"><use xlink:href="#SVGID_19_" overflow="visible"/></clipPath><path class="st50" d="M-.391-3.974h24.783v14.348h-24.783z"/></g></svg>