<svg xmlns="http://www.w3.org/2000/svg" viewBox="0 0 64 64" enable-background="new 0 0 64 64"><path fill="#fff" d="M40 40.8l-13 10.4c-.4.3-1 .3-1.3-.2l-17.4-21.7c-.3-.4-.3-1 .2-1.3l13-10.4c.4-.3 1-.3 1.3.2l17.3 21.7c.3.4.3 1-.1 1.3z"/><path fill="#5FB0E5" d="M9.568 27.008l3.127-2.494 18.518 23.219-3.127 2.494z"/><path fill="#D2E9F7" d="M19.689 28.024l1.642-1.31 12.472 15.636-1.642 1.31z"/><path fill="#0686D8" d="M25 51.5l-17.3-21.8c-.6-.7-.5-1.8.3-2.4l13-10.3c.7-.6 1.8-.4 2.4.3l3.4 4.3-1.2.9-3.4-4.3c-.1-.1-.2-.1-.3 0l-13 10.4c-.1.1-.1.2 0 .3l17.3 21.7-1.2.9z"/><path fill="#fff" d="M46.1 51.1h-19.7c-1 0-1.8-.8-1.8-1.8v-30.5c0-1 .8-1.8 1.8-1.8h19.7c1 0 1.8.8 1.8 1.8v30.5c0 1-.8 1.8-1.8 1.8z"/><path fill="#9ECFEF" d="M26.9 16.9h4.4v34.1h-4.4z"/><path fill="#5FB0E5" d="M32.5 16.9h2.2v34.1h-2.2z"/><path fill="#0686D8" d="M46.1 51.8h-19.7c-1.4 0-2.6-1.2-2.6-2.6v-30.4c0-1.4 1.2-2.6 2.6-2.6h2.7v1.5h-2.7c-.6 0-1.1.5-1.1 1.1v30.5c0 .6.5 1.1 1.1 1.1h19.7c.6 0 1.1-.5 1.1-1.1v-30.5c0-.6-.5-1.1-1.1-1.1h-9.7v-1.5h9.7c1.4 0 2.6 1.2 2.6 2.6v30.5c0 1.4-1.2 2.5-2.6 2.5zM30.2 16.2h4.4v1.5h-4.4z"/><circle fill="#5FB0E5" cx="32.2" cy="10.8" r="1.7"/><circle fill="#5FB0E5" cx="40.2" cy="6.7" r=".8"/><circle fill="#5FB0E5" cx="47.1" cy="12.8" r="1.6"/></svg>