<svg xmlns="http://www.w3.org/2000/svg" viewBox="0 0 64 64" enable-background="new 0 0 64 64"><circle fill="#5FB0E5" cx="47" cy="19.6" r=".6"/><circle fill="#5FB0E5" cx="16.3" cy="20.2" r=".6"/><circle fill="#5FB0E5" cx="52.1" cy="17" r="1.3"/><circle fill="#5FB0E5" cx="15.8" cy="12.7" r="1.3"/><circle fill="#5FB0E5" cx="46.4" cy="12.7" r=".8"/><circle fill="#5FB0E5" cx="11.4" cy="22" r=".8"/><path fill="#fff" d="M36.7 34.5l4.4-4.7c1-1.4 3.3 0 2.1 1.3l-3.6 4.9h1.7l4-4.3s.4-2.7.5-3.1l.1-3.4c-.3-.6 0-1.3.6-1.6.6-.3 1.3 0 1.6.6v3.9c.1.3.1 4.9.1 4.9l-4.8 10h-7.4v-7.2c.1-.4.4-1 .7-1.3z"/><path fill="#0686D8" d="M43.8 43.7h-8.6v-8c.1-.6.4-1.4.8-1.8l4.4-4.7c.4-.6 1.2-.9 2-.8.8.1 1.4.6 1.6 1.3.2.6.1 1.3-.4 1.8l-2.2 3.1 3.4-3.6c.1-.8.2-2.3.3-2.8v-3.6c0-.6.1-1.4 1-1.8.5-.2 1-.2 1.5 0s.9.5 1.1 1l.1.1.2 4.1c.1.4.1 1.5.1 5v.2l-5.3 10.5zm-7-1.5h6.1l4.6-9.4c0-1.9 0-4.1-.1-4.5v-.1l-.2-4c0-.1-.1-.1-.2-.1h-.3c-.1.1-.1.4-.1.5v.4l.1 3.5v.1c-.1.2-.2 1.7-.3 3v.3l-4.6 4.9h-3.5l4.3-6c.2-.2.2-.3.2-.4 0-.1-.2-.3-.5-.3-.2 0-.4 0-.6.3l-4.5 4.6c-.2.2-.4.6-.4.9v6.3z"/><path fill="#9ECFEF" d="M45 53.5v-9.2c0-.5-.4-.9-.9-.9h-9.8c-.5 0-.9.4-.9.9v9.2h11.6z"/><path fill="#fff" d="M27.3 34.5l-4.3-4.7c-1-1.4-3.3 0-2.1 1.3l3.5 4.8h-1.7l-4-4.3s-.4-2.7-.5-3.1l-.2-3.4c.3-.6 0-1.3-.6-1.6-.6-.3-1.3 0-1.6.6v3.9c-.1.3-.1 4.9-.1 4.9l4.8 10h7.5v-7.2c-.1-.3-.4-.9-.7-1.2z"/><path fill="#0686D8" d="M28.7 43.7h-8.6l-5.1-10.5v-.2c0-3.6 0-4.6.1-5l.2-4.1.1-.1c.4-1 1.6-1.4 2.5-1 .9.4.9 1.2 1 1.8v.4l-.1 3.4c.1.5.2 2 .3 2.8l3.3 3.6-2.3-3.1c-.4-.5-.6-1.1-.4-1.8.2-.7.9-1.2 1.6-1.3.8-.1 1.5.2 2 .8l4.3 4.6c.4.4.8 1.2.8 1.8v.1l.3 7.8zm-7.6-1.5h6.1v-6.4c-.1-.3-.3-.7-.4-.9l-4.4-4.7c-.2-.2-.4-.2-.7-.2-.2 0-.4.2-.5.3 0 .1 0 .2.1.3l4.4 6.1h-3.5l-4.6-4.9v-.3c-.1-1.3-.3-2.7-.3-3v-.2l.1-3.3v-.4c0-.2 0-.5-.1-.5-.2-.1-.4 0-.5.1l-.2 4.1c-.1.4-.1 2.6-.1 4.5l4.6 9.4z"/><path fill="#9ECFEF" d="M19 53.5v-9.2c0-.5.4-.9.9-.9h9.8c.5 0 .9.4.9.9v9.2h-11.6z"/><path fill="#0686D8" d="M45.8 53.5h-1.5v-9.2c0-.1 0-.1-.1-.1h-9.8c-.1 0-.1 0-.1.1v9.2h-1.5v-9.2c0-.9.7-1.6 1.6-1.6h9.8c.9 0 1.6.7 1.6 1.6v9.2zM31.3 53.5h-1.5v-9.2c0-.1 0-.1-.1-.1h-9.8c-.1 0-.1 0-.1.1v9.2h-1.5v-9.2c0-.9.7-1.6 1.6-1.6h9.8c.9 0 1.6.7 1.6 1.6v9.2z"/><ellipse transform="matrix(.02 -1 1 .02 10.937 51.729)" fill="#D2E9F7" cx="31.9" cy="20.3" rx="9.2" ry="9.2"/><path fill="#0686D8" d="M39 27l-.9-.8c.5-.5.9-1 1.2-1.6l1 .6c-.3.7-.8 1.3-1.3 1.8zM31.9 30.1h-.2c-2.6-.1-5-1.1-6.9-3-1.8-1.9-2.8-4.4-2.7-7 .1-2.6 1.1-5 3-6.9 1.9-1.8 4.3-2.8 7-2.7 2.6.1 5 1.1 6.9 3 1.8 1.9 2.8 4.4 2.7 7 0 1-.2 2-.5 3l-1.2-.4c.3-.8.4-1.7.5-2.6 0-2.3-.8-4.5-2.4-6.1-1.6-1.6-3.7-2.6-6-2.6s-4.5.8-6.1 2.4c-1.6 1.6-2.6 3.7-2.6 6s.8 4.5 2.4 6.1c1.6 1.6 3.7 2.6 6 2.6 1.6 0 3.2-.4 4.6-1.2l.6 1c-1.6.9-3.4 1.4-5.1 1.4z"/><g fill="#0686D8"><path d="M32.9 24.4h-4.7v-1.2h4.7c.6 0 1.1-.5 1.1-1.1 0-.6-.5-1.1-1.1-1.1h-1.9c-1.3 0-2.3-1.1-2.3-2.3 0-1.3 1.1-2.3 2.3-2.3h4.5v1.2h-4.5c-.6 0-1.1.5-1.1 1.1 0 .6.5 1.1 1.1 1.1h1.9c1.3 0 2.3 1.1 2.3 2.3 0 1.2-1.1 2.3-2.3 2.3zM31.2 13.9h1.2v12.7h-1.2z"/></g></svg>