<svg xmlns="http://www.w3.org/2000/svg" viewBox="0 0 64 64" enable-background="new 0 0 64 64"><path fill="#D2E9F7" d="M19.9 39l-3.6-23.7c-.2-1 .6-1.9 1.6-2.1l11.5-1.5c1.1-.1 2 .5 2.2 1.5l3.6 23.7c.2 1-.6 1.9-1.6 2.1l-11.5 1.5c-1.1.1-2-.6-2.2-1.5z"/><path fill="#0686D8" d="M19.2 38.3l-2.2-13.7-1.4-9.5c-.1-.6.1-1.2.4-1.7.4-.5 1-.9 1.6-.9l.8-.1.2 1.5-.8.1c-.3 0-.5.2-.6.4-.2.1-.2.3-.2.5l1.4 9.5 2.2 13.7-1.4.2z"/><path fill="#D2E9F7" d="M20.1 38.8v-25.5c0-1.1.9-1.9 1.9-1.9h11.6c1.1 0 1.9.9 1.9 1.9v25.5c0 1.1-.9 1.9-1.9 1.9h-11.6c-1 0-1.9-.9-1.9-1.9z"/><path fill="#0686D8" d="M27 41.5h-5.2c-1.3 0-2.4-1.1-2.4-2.4v-26.1c0-1.3 1.1-2.4 2.4-2.4h12.1c1.3 0 2.4 1.1 2.4 2.4v8.9h-1.5v-8.9c0-.5-.4-.9-.9-.9h-12.1c-.5 0-.9.4-.9.9v26c0 .5.4.9.9.9h5.2v1.6z"/><ellipse transform="matrix(.02 -1 1 .02 1.271 53.464)" fill="#fff" cx="27.9" cy="26.1" rx="5.2" ry="5.2"/><ellipse transform="matrix(.02 -1 1 .02 -6.7 61.565)" fill="#fff" cx="28.1" cy="34.2" rx="1.4" ry="1.4"/><ellipse transform="matrix(.02 -1 1 .02 9.843 45.349)" fill="#fff" cx="28.1" cy="17.7" rx="1.4" ry="1.4"/><path fill="#0686D8" d="M26.8 31.9c-2.9-.5-4.9-3.1-4.8-6 0-1.6.7-3.1 1.8-4.2s2.6-1.7 4.2-1.7c3.3.1 5.9 2.8 5.8 6.1 0 .5-.1 1-.2 1.5l-1.4-.4c.1-.4.2-.7.2-1.1 0-2.5-1.9-4.5-4.4-4.5-1.2 0-2.3.4-3.2 1.2-.9.8-1.3 1.9-1.4 3.1 0 2.2 1.5 4.1 3.6 4.5l-.2 1.5z"/><g fill="#0686D8"><path d="M26.9 28.4c-1 0-1.7-.8-1.7-1.7v-2.7h1.5v2.7c0 .3.5.3.5 0v-1.1c0-1 .8-1.7 1.7-1.7 1 0 1.7.8 1.7 1.7v2.6h-1.5v-2.6c0-.3-.5-.3-.5 0v1.1c.1.9-.7 1.7-1.7 1.7zM24.3 25.3h7.2v1.5h-7.2z"/></g><path fill="#0686D8" d="M27.2 39.2h-1.6c-.5 0-.9-.4-1-.9-.1-1-.9-1.8-1.9-1.9-.5 0-.9-.5-.9-1v-2.6h1.5v2.2c1.4.3 2.4 1.4 2.7 2.7h1.1v1.5zM23.3 19.1h-1.5v-2.6c0-.5.4-1 .9-1 1-.1 1.8-.9 1.9-1.9 0-.5.5-.9 1-.9h4.6c.5 0 .9.4 1 .9.1 1 .9 1.8 1.9 1.9.5 0 .9.5.9 1v2.2h-1.5v-1.8c-1.4-.3-2.4-1.3-2.7-2.7h-3.7c-.3 1.4-1.4 2.4-2.7 2.7v2.2zM34.8 29.3h1.5v3.8h-1.5z"/><path fill="#fff" d="M36.6 24s4 5.4 5.1 6.9c.2.2.2.5.2.8l-2.7 11.9h-8.9l-2-6.5c.1-.6.5-8.4.5-8.4.5-1.9 3.3-1.5 3.6 1.9l.3 6.7 2.9-1.5 2.6-3.9-2-5.8.4-2.1z"/><path fill="#0686D8" d="M39.8 44.4h-10.1l-2.3-7.1v-.2c.1-.4.3-5.2.5-8.3v-.1c.3-1.1 1.2-1.8 2.3-1.7 1.2.1 2.6 1.3 2.7 3.7l.3 5.6 1.7-.9 2.3-3.4-1.9-5.7v-1.7c0-.5.1-1.4.8-1.6.1-.1.7-.2 1.1.4.9 1.2 2.5 3.6 3.8 5.4.5.8 1 1.4 1.2 1.8.3.4.4.9.3 1.4l-2.7 12.4zm-9-1.5h7.8l2.5-11.3v-.2c-.2-.4-.7-1-1.2-1.8l-2.9-4.2v.6l2 6-2.9 4.3-4.1 2.3-.4-7.9c-.1-1.5-.8-2.2-1.4-2.3-.3 0-.6.2-.7.5-.1 1-.4 7-.5 8.2l1.8 5.8z"/><path fill="#9ECFEF" d="M41.9 53.4v-9.5c0-.6-.5-1-1-1h-12.5c-.6 0-1 .5-1 1v9.5h14.5z"/><path fill="#0686D8" d="M42.6 53.4h-1.5v-9.5c0-.1-.1-.3-.3-.3h-12.4c-.1 0-.3.1-.3.3v9.5h-1.5v-9.5c0-1 .8-1.8 1.8-1.8h12.5c1 0 1.8.8 1.8 1.8v9.5z"/><circle fill="#5FB0E5" cx="44.4" cy="39.1" r=".9"/><circle fill="#5FB0E5" cx="23.1" cy="44.5" r=".9"/><circle fill="#5FB0E5" cx="51.3" cy="35.1" r="1.3"/><circle fill="#5FB0E5" cx="14.5" cy="51" r="1.3"/><circle fill="#5FB0E5" cx="45.2" cy="24" r=".8"/><circle fill="#5FB0E5" cx="12.6" cy="39.6" r="1.1"/></svg>