<svg xmlns="http://www.w3.org/2000/svg" width="120.25" height="120.25" viewBox="0 0 120.25 120.25"><linearGradient id="a" gradientUnits="userSpaceOnUse" x1="-7.654" y1="70.689" x2="138.358" y2="216.702"><stop offset="0" stop-opacity=".2"/><stop offset=".995" stop-color="#fff" stop-opacity="0"/></linearGradient><path fill="url(#a)" d="M21.918 100.271l.171.151-.159-.151h-.012z"/><path fill="#1B6D69" d="M22.433 100.75h.025l-.369-.327.344.327z"/><path fill="#64C6C1" d="M59.834 3.084c-31.614 0-57.334 25.72-57.334 57.334 0 31.613 25.72 57.333 57.334 57.333 31.613 0 57.333-25.72 57.333-57.333 0-31.614-25.72-57.334-57.333-57.334z"/><path fill="#F7F7F7" d="M59.834 6.084c-29.96 0-54.334 24.374-54.334 54.334 0 29.959 24.374 54.334 54.334 54.334 29.959 0 54.333-24.375 54.333-54.334 0-29.96-24.374-54.334-54.333-54.334z"/><path d="M59.834 114.751c7.242 0 14.148-1.429 20.467-4.001h-40.939c6.319 2.575 13.227 4.001 20.472 4.001z" fill="none"/><path fill="#64C6C1" d="M59.188 19.462l-47.417 32.288h94.834z"/><path d="M59.834 114.751c14.003 0 26.767-5.301 36.4-14.001h-72.801c9.633 8.7 22.397 14.001 36.401 14.001z" fill="none"/><linearGradient id="b" gradientUnits="userSpaceOnUse" x1="-5.36" y1="69.14" x2="141.279" y2="215.779"><stop offset="0" stop-opacity=".2"/><stop offset=".995" stop-color="#fff" stop-opacity="0"/></linearGradient><path fill="url(#b)" d="M34.439 108.442c-.766-.407-1.521-.831-2.266-1.272.745.441 1.5.866 2.266 1.272z"/><linearGradient id="c" gradientUnits="userSpaceOnUse" x1="30.325" y1="33.453" x2="176.965" y2="180.093"><stop offset="0" stop-opacity=".2"/><stop offset=".995" stop-color="#fff" stop-opacity="0"/></linearGradient><path fill="url(#c)" d="M114.167 60.418l-.024-.958-7.56-7.552-4.096-.158h-88.576l-2.141.258 17.73 17.73v-11.988h5v33h-4.605l-.009.075 5.944 5.925h64.396c8.664-9.626 13.941-22.361 13.941-36.332zm-61.667 30.332h-5v-33h5v33zm18 0h-5v-33h5v33zm13 0v-33h5v33h-5z"/><linearGradient id="d" gradientUnits="userSpaceOnUse" x1="21.227" y1="42.732" x2="167.665" y2="189.17"><stop offset="0" stop-opacity=".2"/><stop offset=".995" stop-color="#fff" stop-opacity="0"/></linearGradient><path fill="url(#d)" d="M87.469 107.194c-.75.444-1.511.871-2.283 1.278.772-.408 1.533-.833 2.283-1.278z"/><linearGradient id="e" gradientUnits="userSpaceOnUse" x1="-4.807" y1="68.586" x2="141.833" y2="215.225"><stop offset="0" stop-opacity=".2"/><stop offset=".995" stop-color="#fff" stop-opacity="0"/></linearGradient><path fill="url(#e)" d="M36.799 109.622c-.768-.36-1.525-.737-2.272-1.133.746.395 1.504.773 2.272 1.133z"/><linearGradient id="f" gradientUnits="userSpaceOnUse" x1="13.436" y1="50.346" x2="160.073" y2="196.983"><stop offset="0" stop-opacity=".2"/><stop offset=".995" stop-color="#fff" stop-opacity="0"/></linearGradient><path fill="url(#f)" d="M96.234 100.75h-72.776c2.675 2.413 5.589 4.563 8.704 6.412-.762-.453-1.512-.924-2.25-1.412h59.865c-.737.488-1.488.959-2.25 1.411 4.745-2.817 9.025-6.331 12.696-10.409-1.259 1.399-2.59 2.735-3.989 3.998z"/><linearGradient id="g" gradientUnits="userSpaceOnUse" x1="7.867" y1="55.912" x2="154.506" y2="202.551"><stop offset="0" stop-opacity=".2"/><stop offset=".995" stop-color="#fff" stop-opacity="0"/></linearGradient><path fill="url(#g)" d="M39.362 110.75c-.821-.335-1.633-.69-2.434-1.064 6.961 3.244 14.718 5.065 22.905 5.065 9.146 0 17.758-2.271 25.32-6.263-1.573.83-3.193 1.586-4.854 2.262h-40.937z"/><path fill="#64C6C1" d="M29.5 57.75h5v33h-5zm18 0h5v33h-5zm18 0h5v33h-5zm18 0h5v33h-5z"/><path fill="#1B6D69" d="M36.929 109.686l-.13-.063.13.063zm50.598-2.525l-.059.033.059-.033zm-2.341 1.312l-.031.016.031-.016zm-50.66.016l-.087-.047.087.047zm-2.352-1.319l-.012-.008.012.008z"/><path fill="#64C6C1" d="M29.912 105.75c.738.488 1.488.959 2.25 1.412l.012.008c.744.441 1.5.865 2.266 1.272l.087.047c.747.396 1.505.772 2.272 1.133l.13.063c.801.374 1.612.729 2.434 1.064h40.938c1.66-.676 3.28-1.432 4.854-2.262l.031-.016c.772-.407 1.533-.834 2.283-1.278l.059-.033c.762-.452 1.513-.923 2.25-1.411h-59.866z"/><path fill="#1B6D69" d="M100.226 96.75l-.002.002.002-.002z"/><path fill="#64C6C1" d="M19.441 96.75c1.106 1.229 2.275 2.397 3.488 3.521l.159.151.369.327h72.776c1.398-1.263 2.729-2.599 3.989-3.998l.002-.002h-80.783z"/></svg>