<svg xmlns="http://www.w3.org/2000/svg" width="120.25" height="120.25" viewBox="0 0 120.25 120.25"><path fill="#91A8D1" d="M61.334 3.084c-14.593 0-27.922 5.488-38.053 14.498-1.745 1.553-3.393 3.211-4.938 4.963-8.916 10.108-14.343 23.365-14.343 37.873 0 31.613 25.72 57.333 57.334 57.333 31.613 0 57.333-25.72 57.333-57.333 0-31.614-25.72-57.334-57.333-57.334z"/><path fill="#F7F7F7" d="M115.667 60.418c0-2.922-.237-5.788-.682-8.585l-24.68-24.616-21.795 57.819-31.152 24.142c7.232 3.563 15.368 5.573 23.977 5.573 30.006 0 54.332-24.326 54.332-54.333z"/><linearGradient id="a" gradientUnits="userSpaceOnUse" x1="26.276" y1="70.984" x2="194.112" y2="70.984"><stop offset="0" stop-opacity=".2"/><stop offset=".995" stop-color="#fff" stop-opacity="0"/></linearGradient><path fill="url(#a)" d="M115.667 60.418c0-2.922-.237-5.788-.682-8.585l-24.68-24.616-21.795 57.819-31.152 24.142c7.232 3.563 15.368 5.573 23.977 5.573 30.006 0 54.332-24.326 54.332-54.333z"/><path d="M61.334 114.751c21.732 0 40.477-12.765 49.166-31.201l-66.266 28.426c5.379 1.786 11.121 2.775 17.1 2.775z" fill="none"/><path fill="#3D6092" d="M100.382 72.573l2.395 5.584-22.695 9.735-2.395-5.584z"/><path fill="#828282" d="M99.805 46.981l-4.582-10.702-.175.075 4.589 10.699z"/><path d="M90.305 27.217l-.068.181c.215.097.418.219.609.359l-.541-.54zm12.481 50.942l-22.694 9.734-2.395-5.584 22.694-9.734z" fill="none"/><path fill="#F7F7F7" d="M90.236 27.397l.068-.181.541.54c.283.208.543.454.752.751l23.388 23.325c-4.116-25.927-26.566-45.748-53.651-45.748-30.008 0-54.334 24.326-54.334 54.334 0 .499.014.994.027 1.49l80.523-34.543c.896-.384 1.862-.338 2.686.032z"/><path fill="#91A8D1" d="M99.637 47.053l-87.092 37.289c3.707 7.54 9.111 14.094 15.714 19.168l-3.259-7.598 15.406-6.609 5.639 13.143.02.047-.181.078-11.589 4.971c1.002.575 2.021 1.124 3.063 1.637 2.209 1.089 4.512 2.013 6.877 2.798l66.265-28.427c.881-1.867 1.65-3.795 2.316-5.771l-13.179-30.726zm-19.549 40.843l-2.396-5.585 22.695-9.734 2.396 5.584-22.695 9.735zm11.857-58.773c-.095-.222-.213-.426-.348-.615l-.752-.751c-.191-.141-.395-.263-.609-.359-.824-.37-1.79-.416-2.686-.032l-80.523 34.542c.105 3.944.633 7.782 1.537 11.473l86.483-37.027-3.102-7.231z"/><path fill="#BCBCBC" d="M90.846 27.757l.752.751c-.209-.297-.469-.543-.752-.751z"/><path fill="#828282" d="M46.064 102.492l-.019-.047-.161.125z"/><path fill="#3D6092" d="M25 95.912l3.259 7.598c1.916 1.472 3.931 2.82 6.036 4.031l11.589-4.971.161-.125-5.639-13.143-15.406 6.61zm70.048-59.558l-86.484 37.027c.938 3.829 2.279 7.499 3.98 10.961l87.092-37.289-4.588-10.699z"/><circle cx="61.333" cy="60.418" r="54.333" fill="none"/><linearGradient id="b" gradientUnits="userSpaceOnUse" x1="-7.654" y1="70.439" x2="138.358" y2="216.452"><stop offset="0" stop-opacity=".2"/><stop offset=".995" stop-color="#fff" stop-opacity="0"/></linearGradient><path fill="url(#b)" d="M21.918 100.021l.171.151-.159-.151h-.012z"/><path fill="#1B6D69" d="M22.433 100.5h.025l-.369-.327.344.327z"/></svg>