<svg xmlns="http://www.w3.org/2000/svg" width="120.25" height="120.25" viewBox="0 0 120.25 120.25"><path fill="#A6A6A6" d="M102.359 32.593c-9.071-13.947-24.781-23.176-42.659-23.176-28.095 0-50.867 22.773-50.867 50.868 0 27.206 21.358 49.423 48.226 50.798.875.045 1.755.068 2.642.068 4.386 0 8.637-.573 12.696-1.617 16.63-4.278 29.968-16.742 35.455-32.855.92-2.706 1.628-5.513 2.085-8.406.186-1.176.319-2.368.425-3.57.127-1.457.205-2.928.205-4.419-.001-10.217-3.023-19.721-8.208-27.691z"/><path fill="#fff" d="M34 52h52v16h-52z"/></svg>