<svg xmlns="http://www.w3.org/2000/svg" width="120.25" height="120.25" viewBox="0 0 120.25 120.25"><path fill="#D37DA4" d="M104.943 24.459c-.399-.495-.811-.979-1.226-1.46-10.521-12.183-26.061-19.915-43.383-19.915-31.614 0-57.334 25.72-57.334 57.334 0 15.49 6.185 29.555 16.202 39.883 1.627 1.678 3.353 3.257 5.173 4.727 9.843 7.949 22.351 12.724 35.959 12.724 31.613 0 57.333-25.72 57.333-57.333 0-13.608-4.774-26.117-12.724-35.96z"/><path fill="#F7F7F7" d="M46.07 85.243l-31.537-31.573 78.391 13.937 6.38 4.906.096.067 10.354 10.408c3.146-6.877 4.912-14.515 4.912-22.57 0-30.008-24.326-54.334-54.333-54.334-30.007 0-54.333 24.326-54.333 54.334 0 30.007 24.326 54.333 54.334 54.333 2.568 0 5.092-.191 7.565-.536l-28.292-28.359 6.463-.613zm63.685-2.255l-10.355-10.408-.097-.067-6.38-4.906-78.39-13.937 31.537 31.573-6.463.613 28.292 28.358c18.666-2.601 34.288-14.682 41.856-31.226z"/><linearGradient id="a" gradientUnits="userSpaceOnUse" x1="29.229" y1="38.976" x2="134.454" y2="144.201"><stop offset="0" stop-opacity=".4"/><stop offset=".995" stop-color="#fff" stop-opacity="0"/></linearGradient><path fill="url(#a)" d="M109.755 82.988l-10.355-10.408-.097-.067-6.38-4.906-78.39-13.937 31.537 31.573-6.463.613 28.292 28.358c18.666-2.601 34.288-14.682 41.856-31.226z"/><path fill="#82345B" d="M37.091 24.383l-22.636 29.26 62.213 48.129 22.636-29.259-62.213-48.13zm27.185 44.493c-3.155 4.078-9.021 4.827-13.1 1.671-4.08-3.154-4.828-9.02-1.673-13.1 3.156-4.078 9.021-4.828 13.101-1.671 4.08 3.155 4.829 9.021 1.672 13.1z"/><circle fill="#D37DA4" cx="56.891" cy="63.162" r="9.338"/><path fill="#D37DA4" d="M106.796 88.545c-.412-.726-.833-1.445-1.265-2.157-1.237-2.04-4.242-4.017-6.586-4.202-8.854-.702-17.769-.79-26.656-.723-1.095.007-3 2.319-3.015 3.581-.012 1.157 1.893 3.125 3.188 3.346 3.147.536 6.443.134 9.655.402.906.077 1.729 1.166 2.591 1.79-.842.633-1.652 1.757-2.529 1.813-3.734.234-7.491.076-11.234.203-5.744.194-10.939-1.052-15.507-4.807-2.684-2.207-5.732-3.968-8.592-5.964-2.166-1.511-4.316-1.962-6.148.353-1.849 2.334-.83 4.323 1.113 6.057 3.859 3.438 7.681 6.918 11.59 10.299 4.376 3.783 9.422 5.652 15.297 5.414 4.645-.19 9.336-.366 13.944.086 2.321.228 4.545 1.356 6.812 2.222 7.053-4.492 13-10.556 17.342-17.713z"/><circle cx="60.333" cy="60.418" r="54.333" fill="none"/><path fill="#D37DA4" d="M105.017 24.386c-.419-.476-.864-.926-1.299-1.387.415.48.826.965 1.226 1.46l.073-.073z"/><linearGradient id="b" gradientUnits="userSpaceOnUse" x1="-7.654" y1="70.439" x2="138.358" y2="216.452"><stop offset="0" stop-opacity=".2"/><stop offset=".995" stop-color="#fff" stop-opacity="0"/></linearGradient><path fill="url(#b)" d="M21.918 100.021l.171.151-.159-.151h-.012z"/><path fill="#1B6D69" d="M22.433 100.5h.025l-.369-.327.344.327z"/></svg>