<svg xmlns="http://www.w3.org/2000/svg" width="118" height="118" viewBox="0 0 118 118"><path fill="#63C6C1" d="M58.834 115.667c-31.338 0-56.834-25.495-56.834-56.833 0-31.338 25.496-56.834 56.834-56.834s56.833 25.496 56.833 56.834c0 31.338-25.495 56.833-56.833 56.833zm0-108.667c-28.581 0-51.834 23.252-51.834 51.834 0 28.581 23.253 51.833 51.834 51.833s51.833-23.252 51.833-51.833c0-28.582-23.252-51.834-51.833-51.834z"/><path fill="#F7F7F7" d="M59.834 113.167h.078-.078zm-1-108.667c-29.96 0-54.334 24.375-54.334 54.334s24.374 54.333 54.334 54.333c29.959 0 54.333-24.374 54.333-54.333s-24.374-54.334-54.333-54.334zm22.582 44.432c0 12.527-10.156 22.684-22.684 22.684-6.178 0-11.777-2.474-15.868-6.48l-.002.002 14.456 14.456c.559-.016 1.117-.033 1.682-.033 16.555 0 30.773 7.375 37.803 18.124 7.526-7.357 12.924-16.878 15.183-27.562l-36.857-36.857c3.892 4.073 6.287 9.588 6.287 15.666z"/><linearGradient id="a" gradientUnits="userSpaceOnUse" x1="58.108" y1="48.315" x2="108.233" y2="98.439"><stop offset="0" stop-opacity=".2"/><stop offset=".995" stop-color="#fff" stop-opacity="0"/></linearGradient><path fill="url(#a)" d="M81.416 48.932c0 12.527-10.156 22.684-22.684 22.684-6.178 0-11.777-2.474-15.868-6.48l-.002.002 14.456 14.456c.559-.016 1.117-.033 1.682-.033 16.555 0 30.773 7.375 37.803 18.124 7.526-7.357 12.924-16.878 15.183-27.562l-36.857-36.857c3.892 4.073 6.287 9.588 6.287 15.666z"/><path fill="#F7F7F7" d="M74.393 32.53l.003.005z"/><linearGradient id="b" gradientUnits="userSpaceOnUse" x1="74.143" y1="32.281" x2="107.288" y2="65.426"><stop offset="0" stop-opacity=".3"/><stop offset=".995" stop-color="#fff" stop-opacity="0"/></linearGradient><path fill="url(#b)" d="M74.393 32.53l.003.005z"/><path fill="#64C6C1" d="M74.396 32.535l.732.731c-.237-.25-.482-.493-.732-.731zm.733.731l-.732-.731-.004-.005c-4.072-3.889-9.585-6.282-15.66-6.282-12.527 0-22.685 10.156-22.685 22.684 0 6.35 2.612 12.086 6.816 16.203 4.091 4.007 9.69 6.48 15.868 6.48 12.527 0 22.684-10.157 22.684-22.684 0-6.077-2.395-11.592-6.287-15.665z"/><path fill="#1B6D69" d="M59 79.56c-.564 0-1.123.017-1.682.033-15.922.484-29.484 7.81-36.236 18.299 9.768 9.44 23.057 15.274 37.713 15.274h.078c9.257 0 17.97-2.334 25.596-6.422 4.537-2.433 8.684-5.494 12.334-9.061-7.03-10.747-21.248-18.123-37.803-18.123z"/></svg>