<svg xmlns="http://www.w3.org/2000/svg" width="214.25" height="160" viewBox="0 0 214.25 160"><path fill="#A6A6A6" d="M171.875 16h-128c-13.255 0-23.875 10.745-23.875 24v63c0 13.255 10.62 24 23.875 24h14.353l-22.978 22.875 68.625-22.875h68c13.255 0 24.125-10.745 24.125-24v-63c0-13.255-10.87-24-24.125-24zm-114.85 77.077c-5.188 0-9.748-1.539-13.567-5.074l6.328-6.954c1.824 2.394 4.788 3.819 7.753 3.819 2.907 0 6.156-1.368 6.156-4.219 0-7.411-18.926-3.421-18.926-16.874 0-8.608 7.468-13.111 15.392-13.111 4.561 0 8.95 1.197 12.37 4.219l-6.1 6.669c-1.425-1.824-4.275-2.679-6.441-2.679-2.509 0-5.986 1.14-5.986 4.161 0 7.354 18.585 2.622 18.585 16.76 0 9.008-7.24 13.283-15.564 13.283zm73.975-1.077h-9v-31h-.505l-10.604 31h-6.784l-10.204-31h.097v31h-9v-40h13.35l9.293 26h.113l9.35-26h13.894v40zm23.95 1.077c-5.188 0-9.748-1.539-13.567-5.074l6.328-6.954c1.824 2.394 4.788 3.819 7.753 3.819 2.907 0 6.156-1.368 6.156-4.219 0-7.411-18.926-3.421-18.926-16.874 0-8.608 7.468-13.111 15.392-13.111 4.561 0 8.95 1.197 12.37 4.219l-6.1 6.669c-1.425-1.824-4.275-2.679-6.441-2.679-2.509 0-5.985 1.14-5.985 4.161 0 7.354 18.584 2.622 18.584 16.76 0 9.008-7.241 13.283-15.564 13.283z"/></svg>