<svg xmlns="http://www.w3.org/2000/svg" width="289.333" height="220.333" viewBox="0 0 289.333 220.333"><path fill="#A6A6A6" d="M233.408 79h-128c-13.255 0-23.408 10.709-23.408 23.964v63c0 13.255 10.153 24.036 23.408 24.036h14.353l-22.978 22.875 68.625-22.875h68c13.255 0 24.592-10.781 24.592-24.036v-63c0-13.255-11.337-23.964-24.592-23.964zm-114.849 77.042c-5.188 0-9.748-1.539-13.567-5.074l6.328-6.954c1.824 2.394 4.788 3.819 7.753 3.819 2.907 0 6.156-1.368 6.156-4.219 0-7.411-18.926-3.421-18.926-16.874 0-8.608 7.468-13.111 15.392-13.111 4.561 0 8.95 1.197 12.37 4.219l-6.1 6.669c-1.425-1.824-4.275-2.679-6.441-2.679-2.509 0-5.986 1.14-5.986 4.161 0 7.354 18.585 2.622 18.585 16.76-.001 9.007-7.241 13.283-15.564 13.283zm74.441-1.042h-9v-31h-.972l-10.604 31h-6.784l-10.204-31h.564v31h-9v-40h12.883l9.293 26h.113l9.35-26h14.361v40zm23.483 1.042c-5.188 0-9.748-1.539-13.567-5.074l6.328-6.954c1.824 2.394 4.788 3.819 7.753 3.819 2.907 0 6.156-1.368 6.156-4.219 0-7.411-18.926-3.421-18.926-16.874 0-8.608 7.468-13.111 15.392-13.111 4.561 0 8.95 1.197 12.37 4.219l-6.1 6.669c-1.425-1.824-4.275-2.679-6.441-2.679-2.509 0-5.985 1.14-5.985 4.161 0 7.354 18.584 2.622 18.584 16.76 0 9.007-7.24 13.283-15.564 13.283z"/><path fill="#47DA63" d="M141.722 40.911c-12.817-19.704-35.013-32.744-60.272-32.744-39.693 0-71.867 32.175-71.867 71.868 0 38.438 30.177 69.828 68.135 71.771 1.237.063 2.479.096 3.732.096 6.197 0 12.203-.809 17.938-2.284 23.496-6.045 42.34-23.654 50.093-46.419 1.3-3.823 2.3-7.788 2.946-11.876.262-1.661.451-3.345.6-5.043.18-2.059.29-4.137.29-6.244-.001-14.436-4.271-27.864-11.595-39.125z"/><path fill="#fff" d="M114.446 47.703l-47.149 47.154-21.411-21.409-11.334 11.333 32.745 32.744 58.482-58.483z"/></svg>