<svg xmlns="http://www.w3.org/2000/svg" viewBox="0 0 58 58" enable-background="new 0 0 58 58"><path fill="#D1D1D0" d="M53.9 45h-50.3c-1.1 0-1.9-.8-1.9-1.8s.9-1.9 1.9-1.9h50.4c1 0 1.9.9 1.9 1.9-.1 1-.9 1.8-2 1.8z"/><path stroke="#3B3E43" stroke-linecap="round" stroke-linejoin="round" stroke-miterlimit="10" d="M31.985 27.779v-18.4h10.5v18.4zM43.3 20l3.4 3.7v5.6l-.9 2.8v5.3h-6.9v-2.1s-2-2.9-1.9-5.2" fill="none"/><path stroke="#89C33D" stroke-linecap="round" stroke-linejoin="round" stroke-miterlimit="10" d="M35.2 23.1v1.4l1.1.9h1.7l1.1-.8v-1.5" fill="none"/><path fill="#fff" stroke="#3B3E43" stroke-linecap="round" stroke-linejoin="round" stroke-miterlimit="10" d="M43.5 26.3l-3.7-3.7s-2.2-1-2.2 2.2l3.3 3.3s-.2 3.1 2.3 5.6"/><path fill="#89C33D" stroke="#3B3E43" stroke-linecap="round" stroke-linejoin="round" stroke-miterlimit="10" d="M37.4 43.8v-6.5h10v6.5"/><path stroke="#89C33D" stroke-linecap="round" stroke-linejoin="round" stroke-miterlimit="10" d="M39.1 13.5v-1.4l-1.1-.9h-1.7l-1.1.8v1.5" fill="none"/><ellipse fill="#fff" stroke="#3B3E43" stroke-linecap="round" stroke-linejoin="round" stroke-miterlimit="10" cx="37.3" cy="18.3" rx="3.1" ry="3.2"/><ellipse fill="#89C33D" cx="37.3" cy="18.3" rx="2.5" ry="2.5"/><path fill="#fff" d="M35.8 18.3c0-.1.1-.2.2-.2h.1c0-.2.1-.4.2-.5 0-.1.1-.1.2-.1s.2.1.2.2v.1c-.1.1-.1.2-.2.4h.7c.1-.5.3-.8.7-.8.4 0 .6.3.7.7h.2c.1 0 .1.1.1.2l-.1.2h-.2c0 .3-.1.5-.3.7 0 .1-.1.1-.2.1s-.2-.1-.2-.2v-.1c.1-.2.2-.3.2-.5h-.7c-.1.5-.3.7-.7.7-.4 0-.6-.3-.7-.7-.1 0-.2-.1-.2-.2zm1.2.2h-.6c0 .2.1.3.3.3.2 0 .2-.1.3-.3zm.5-.3h.6c0-.2-.1-.3-.3-.3-.1-.1-.2 0-.3.3zM27.7 17.9h-15.5c-1.4 0-2.4 1.1-2.4 2.4v23.2l.6-.6.6.6.5-.6.5.6.6-.6.6.6.6-.6.6.6.5-.6.6.6.5-.6.6.6.5-.6.5.6.5-.6.5.6.6-.6.6.6.6-.6.5.6.6-.6.6.6.6-.6.5.6.5-.6.6.6.5-.6.5.6h1.6"/><path stroke="#3B3E43" stroke-linecap="round" stroke-linejoin="round" stroke-miterlimit="10" d="M27.7 17.9h-15.5c-1.4 0-2.4 1.1-2.4 2.4v23.2l.6-.6.6.6.5-.6.5.6.6-.6.6.6.6-.6.6.6.5-.6.6.6.5-.6.6.6.5-.6.5.6.5-.6.5.6.6-.6.6.6.6-.6.5.6.6-.6.6.6.6-.6.5.6.5-.6.6.6.5-.6.5.6" fill="none"/><path fill="#89C33D" d="M26.9 43.7h1.9c.3 0 .6-.3.6-.6v-23.7c0-.8-.7-1.5-1.5-1.5s-1.5.7-1.5 1.5v23.8c0 .3.2.5.5.5z"/><path stroke="#3B3E43" stroke-linecap="round" stroke-linejoin="round" stroke-miterlimit="10" d="M26.4 25.8v11.4M26.4 22.1v-2.7c0-.8.7-1.5 1.5-1.5s1.5.7 1.5 1.5v16.5M17.5 21.8h-5.7M23.9 32h-12M23.9 34.1h-12M23.9 36.1h-12M23.9 38.2h-12M23.9 40.3h-6.2M23.9 23.8h-4.3M17.7 23.8h-5.9" fill="none"/><path fill="#89C33D" d="M24.162 29.859h-12.4v-3.9h12.4z"/></svg>