<svg xmlns="http://www.w3.org/2000/svg" viewBox="0 0 64 64" enable-background="new 0 0 64 64"><path fill="#286090" d="M9.7 53.1h44.5v1.9h-44.5z"/><path stroke="#4C5C68" stroke-linecap="round" stroke-linejoin="round" stroke-miterlimit="10" d="M8 24.3h48M13.7 32.7v12.9M17.7 32.7v12.9M24.5 32.7v12.9M29.5 32.7v12.9M35.5 32.7v12.9M39.5 32.7v12.9M46.5 32.7v12.9M50.5 32.7v12.9M8 26.3h48M11 49.1h43" fill="none"/><path stroke="#4C5C68" stroke-linecap="round" stroke-linejoin="round" stroke-miterlimit="10" d="M8.5 52h47v4h-47z" fill="none"/><path fill="#F9CA38" stroke="#4C5C68" stroke-linecap="round" stroke-linejoin="round" stroke-miterlimit="10" d="M11.5 26.3h8v4h-8zM22.5 26.3h8v4h-8zM33.5 26.3h8v4h-8zM44.5 26.3h8v4h-8z"/><path stroke="#4C5C68" stroke-linecap="round" stroke-linejoin="round" stroke-miterlimit="10" d="M11.8 46.1h8v3h-8zM22.8 46.1h8v3h-8zM33.8 46.1h8v3h-8zM44.8 46.1h8v3h-8z" fill="none"/><ellipse fill="#CEE8FA" stroke="#4C5C68" stroke-linecap="round" stroke-linejoin="round" stroke-miterlimit="10" cx="32.1" cy="16.8" rx="3.5" ry="3.5"/><path stroke="#4C5C68" stroke-linecap="round" stroke-linejoin="round" stroke-miterlimit="10" d="M10.8 22.8l21.4-14.2 21.2 14.2" fill="none"/></svg>