<svg xmlns="http://www.w3.org/2000/svg" viewBox="0 0 58 58" enable-background="new 0 0 58 58"><path fill="#D1D1D0" d="M53.9 45h-50.3c-1.1 0-1.9-.8-1.9-1.8s.9-1.9 1.9-1.9h50.4c1 0 1.9.9 1.9 1.9-.1 1-.9 1.8-2 1.8z"/><path fill="#fff" stroke="#3B3E43" stroke-miterlimit="10" d="M49 43.2h-41.2v-3.8c0-4.5 3.7-8.2 8.2-8.2h24.7c4.5 0 8.2 3.7 8.2 8.2v3.8z"/><path fill="#89C33D" d="M46.9 41.7h-36.7v-1.3c0-4.5 2.3-7.4 6.9-7.4h22.7c4.5 0 7.1 2.8 7.1 7.4v1.3z"/><path fill="#fff" stroke="#3B3E43" stroke-linecap="round" stroke-linejoin="round" stroke-miterlimit="10" d="M31.8 20.5h12v19.1h-12zm12-3.5v5"/><path fill="#89C33D" d="M33.9 29.4h1.4v1.4h-1.4zm3.2 0h1.4v1.4h-1.4zm3.4 0h1.4v1.4h-1.4zm0 3.1h1.4v1.4h-1.4zm0 3.2h1.4v1.4h-1.4zm-3.4 0h1.4v1.4h-1.4zm0-3.2h1.4v1.4h-1.4zm-3.3 0h1.4v1.4h-1.4zm0 3.4h1.4v1.4h-1.4z"/><path fill="#fff" stroke="#3B3E43" stroke-miterlimit="10" d="M41.3 24.9h-6.6c-.4 0-.7-.3-.7-.7 0-.4.3-.7.7-.7h6.6c.4 0 .7.3.7.7 0 .4-.3.7-.7.7z"/><path fill="#3B3E43" d="M35.1 29.7v.7h-1v-.7h1m.3-.7h-1.7c-.2 0-.3.2-.3.3v1.5c0 .2.1.3.3.3h1.7c.2 0 .4-.1.4-.3v-1.5c0-.2-.3-.3-.4-.3zm2.8.7v.7h-.7v-.7h.7m.5-.7h-1.7c-.2 0-.3.2-.3.3v1.5c0 .2.1.3.3.3h1.7c.2 0 .2-.1.2-.3v-1.5c0-.2 0-.3-.2-.3zm2.9.7v.7h-.7v-.7h.7m.4-.7h-1.7c-.2 0-.2.2-.2.3v1.5c0 .2 0 .3.2.3h1.7c.2 0 .3-.1.3-.3v-1.5c0-.2-.1-.3-.3-.3zm-6.9 3.8v.7h-1v-.7h1m.3-.7h-1.7c-.2 0-.3.1-.3.3v1.5c0 .2.1.4.3.4h1.7c.2 0 .4-.2.4-.4v-1.5c0-.2-.3-.3-.4-.3zm2.8.7v.7h-.7v-.7h.7m.5-.7h-1.7c-.2 0-.3.1-.3.3v1.5c0 .2.1.4.3.4h1.7c.2 0 .2-.2.2-.4v-1.5c0-.2 0-.3-.2-.3zm2.9.7v.7h-.7v-.7h.7m.4-.7h-1.7c-.2 0-.2.1-.2.3v1.5c0 .2 0 .4.2.4h1.7c.2 0 .3-.2.3-.4v-1.5c0-.2-.1-.3-.3-.3zm-6.9 4v.7h-1v-.7h1m.3-.7h-1.7c-.2 0-.3.1-.3.3v1.5c0 .2.1.4.3.4h1.7c.2 0 .4-.2.4-.4v-1.5c0-.3-.3-.3-.4-.3zm2.8.7v.7h-.7v-.7h.7m.5-.7h-1.7c-.2 0-.3.1-.3.3v1.5c0 .2.1.4.3.4h1.7c.2 0 .2-.2.2-.4v-1.5c0-.3 0-.3-.2-.3zm2.9.7v.7h-.7v-.7h.7m.4-.7h-1.7c-.2 0-.2.1-.2.3v1.5c0 .2 0 .4.2.4h1.7c.2 0 .3-.2.3-.4v-1.5c0-.3-.1-.3-.3-.3z"/><path d="M18.1 25.9c-2.1 0-3.8 1.3-4.4 3.2l1.4.5c.4-1.2 1.6-2.1 3-2.1s2.6 1 3 2.3l1.5-.4c-.6-2.1-2.4-3.5-4.5-3.5zm0-2.7c-3.2 0-6 2.1-6.9 5l1.6.5c.8-2.2 2.9-3.9 5.4-3.9 2.6 0 4.8 1.7 5.4 4.1l1.6-.5c-1-2.9-3.8-5.2-7.1-5.2zm0 5.2c-.9 0-1.7.6-2 1.5l2 .7 2-.6c-.2-1-1.1-1.6-2-1.6z" fill="none"/><path fill="#3B3E43" d="M18.1 23.2c3.3 0 6.2 2.2 7 5.3l1-.3c-1-3.5-4.2-6-8-6-3.7 0-6.8 2.4-7.9 5.7l.9.3c1-2.9 3.7-5 7-5zm0 1.7c-2.5 0-4.6 1.6-5.4 3.9l1 .3c.6-1.8 2.3-3.2 4.4-3.2 2.1 0 3.9 1.4 4.5 3.4l1-.3c-.8-2.4-3-4.1-5.5-4.1zm0 2.5c-1.4 0-2.5.9-3 2.1l.9.3c.3-.8 1.1-1.5 2-1.5 1 0 1.8.7 2 1.5l1-.3c-.3-1.1-1.5-2.1-2.9-2.1z"/><circle fill="#3B3E43" cx="15.1" cy="34.3" r=".8"/><circle fill="#3B3E43" cx="18" cy="34.3" r=".8"/></svg>