<svg xmlns="http://www.w3.org/2000/svg" viewBox="0 0 58 58" enable-background="new 0 0 58 58"><path fill="#D1D1D0" d="M53.9 45h-50.3c-1.1 0-1.9-.8-1.9-1.8s.9-1.9 1.9-1.9h50.4c1 0 1.9.9 1.9 1.9-.1 1-.9 1.8-2 1.8z"/><path stroke="#3B3E43" stroke-linecap="round" stroke-linejoin="round" stroke-miterlimit="10" d="M21.5 43.5h18.3" fill="none"/><path fill="#89C33D" d="M27.3 9.9h6.9v4.1h-6.9z"/><path stroke="#3B3E43" stroke-linecap="round" stroke-linejoin="round" stroke-miterlimit="10" d="M34.7 41.5h-8c-4.4 0-8-3.6-8-8v-11.3c0-4.4 3.6-8 8-8h8c4.4 0 8 3.6 8 8v11.3c-.1 4.4-3.6 8-8 8zm-8.3-31.6h8.5m-7.6.3v4m6.8-4v4m-3.4-2.4v2.4m-6.2 27.1v2.2m8-1.9v1.9m-3.9-1.9v1.9m7.6-1.9v1.9" fill="none"/><path fill="#89C33D" stroke="#3B3E43" stroke-linecap="round" stroke-linejoin="round" stroke-miterlimit="10" d="M34.6 26.8c0 .5-.3.8-.3.8-1.1 1.4-2.7 1-2.7 1 .8-.4 1.1-1.2 1.1-1.5.1-.2 0-.5 0-.6v1c.3-4-2.6-6.2-2.6-6.2.6 1.8-.1 2.8-.3 3.2l-2.2 2.2v-.1c-1 .9-1.6 2.1-1.6 3.5 0 2.7 2.2 4.8 4.8 4.8s4.8-2.2 4.8-4.8c.3-1.3-.2-2.4-1-3.3z"/></svg>