<svg xmlns="http://www.w3.org/2000/svg" viewBox="0 0 58 58" enable-background="new 0 0 58 58"><path fill="#D1D1D0" d="M53.9 45h-50.3c-1.1 0-1.9-.8-1.9-1.8s.9-1.9 1.9-1.9h50.4c1 0 1.9.9 1.9 1.9-.1 1-.9 1.8-2 1.8z"/><path stroke="#3B3E43" stroke-linecap="round" stroke-linejoin="round" stroke-miterlimit="10" d="M34.7 42.5h-22c-1.3 0-2.4-1.1-2.4-2.4 0-1.3 1.1-2.4 2.4-2.4h11.9" fill="none"/><path fill="#89C33D" stroke="#3B3E43" stroke-linecap="round" stroke-linejoin="round" stroke-miterlimit="10" d="M30.4 40.6h-2.7c-1.5 0-2.7-1.2-2.7-2.7v-.1c0-1.5 1.2-2.7 2.7-2.7h2.7v5.5z"/><path fill="#fff" stroke="#3B3E43" stroke-linecap="round" stroke-linejoin="round" stroke-miterlimit="10" d="M30.6 36.2h2m-2 3.3h2"/><path stroke="#3B3E43" stroke-linecap="round" stroke-linejoin="round" stroke-miterlimit="10" d="M46.6 28c0-3.5-2.9-6.3-6.4-6.3s-5.9 2.8-5.9 6.3c0 2.7 1.9 5 4.5 5.9v4.4h3.8v-4.4c2.7-.8 4-3.1 4-5.9z" fill="none"/><path fill="#3B3E43" d="M43.7 40.9h-5.4c-.3 0-.5-.2-.5-.5v-.3c0-.3.2-.5.5-.5h5.4c.3 0 .5.2.5.5v.3c0 .3-.3.5-.5.5zm0 1.9h-5.4c-.3 0-.5-.2-.5-.5v-.3c0-.3.2-.5.5-.5h5.4c.3 0 .5.2.5.5v.3c0 .3-.3.5-.5.5zm-.8 0c0 .6-.5 1.1-1.1 1.1h-1.6c-.6 0-1.1-.5-1.1-1.1h3.8z"/><circle fill="#89C33D" cx="40.5" cy="28.1" r="3.9"/><path stroke="#3B3E43" stroke-linecap="round" stroke-linejoin="round" stroke-miterlimit="10" d="M32.2 26l-2.1-1.1m5.7-4.5l-1.6-1.9m6.5.3l.1-2.3m7.6 9.5l2-1.1m-3.8-4.5l1.8-1.5" fill="none"/></svg>