<svg xmlns="http://www.w3.org/2000/svg" width="120.25" height="120.25" viewBox="0 0 120.25 120.25"><path fill="#F7F7F7" d="M60.334 2.334c-31.614 0-57.334 25.72-57.334 57.334 0 31.613 25.72 57.333 57.334 57.333 8.167 0 15.935-1.729 22.973-4.819 14.965-6.573 26.605-19.352 31.638-35.067 1.763-5.505 2.723-11.364 2.723-17.446-.001-31.615-25.721-57.335-57.334-57.335z"/><linearGradient id="a" gradientUnits="userSpaceOnUse" x1="57.066" y1="52.588" x2="106.061" y2="101.583"><stop offset="0" stop-opacity=".2"/><stop offset=".995" stop-color="#fff" stop-opacity="0"/></linearGradient><path fill="url(#a)" d="M114.944 77.114l-34.032-34.033-5.694 6.041-34.828 20.142 42.917 42.918c14.964-6.574 26.605-19.352 31.637-35.068z"/><path fill="#FFBA34" d="M71.27 39.413c-5.475 0-8.93 2.664-10.936 5.073-2.004-2.409-5.46-5.073-10.937-5.073-9.323 0-15.584 8.636-15.584 16.701 0 11.74 22.553 27.476 25.124 29.23.421.287.909.431 1.396.431.488 0 .976-.144 1.396-.431 2.571-1.755 25.124-17.49 25.124-29.23.002-8.065-6.26-16.701-15.583-16.701z"/></svg>