<svg xmlns="http://www.w3.org/2000/svg" width="393" height="172" viewBox="0 0 393 172"><linearGradient id="a" gradientUnits="userSpaceOnUse" x1="85.982" y1="33.328" x2="305.828" y2="253.173"><stop offset="0" stop-opacity=".2"/><stop offset=".995" stop-color="#fff" stop-opacity="0"/></linearGradient><path fill="url(#a)" d="M222 3l-19.122 20.55-200.068 92.95 53.64 53.5h332.55z"/><path fill="#F7BD1C" d="M41.75 3l-38.75 38.75v74.25h219v-113zm-38.75 0v20.994l20.994-20.994z"/><path fill="#E27933" d="M23.994 3l-20.994 20.994v17.756l38.75-38.75zm13.006 26h168v6h-168zm0 16h83v6h-83zm0 16h65v6h-65zm0 17h22v17h-22zm30 0h53v17h-53zm101 17h37v7h-37z"/></svg>