<svg xmlns="http://www.w3.org/2000/svg" viewBox="0 0 58 58" enable-background="new 0 0 58 58"><path fill="#D1D1D0" d="M53.9 45h-50.3c-1.1 0-1.9-.8-1.9-1.8s.9-1.9 1.9-1.9h50.4c1 0 1.9.9 1.9 1.9-.1 1-.9 1.8-2 1.8z"/><path fill="#fff" stroke="#3B3E43" stroke-linecap="round" stroke-linejoin="round" stroke-miterlimit="10" d="M13.7 35.1l7.2-2.8 8.6-4.1 8.1 4.2 6.9 2.8v8.1h-30.8z"/><path fill="#89C33D" d="M22.4 31.9l4.5 11h4.4l4.9-11.1-6.9-3.2-6.9 3.3z"/><path fill="#89C33D" stroke="#3B3E43" stroke-linecap="round" stroke-linejoin="round" stroke-miterlimit="10" d="M30.4 9.6c-3.8-.1-5.1.9-6.4 2.5-1.2 1.5-1.3 3.7-1.3 3.7l.1 6.9h13.6l.1-8c.1.1-.6-4.9-6.1-5.1z"/><path fill="#fff" stroke="#3B3E43" stroke-linecap="round" stroke-linejoin="round" stroke-miterlimit="10" d="M29.5 35.8c-2.3 0-4.1-1.8-4.1-4.1v-3.2h8.2v3.2c0 2.3-1.8 4.1-4.1 4.1zM31 29.9h-3.5c-2.1 0-3.4-1.9-3.4-4v-1.7h-.2c-.7 0-1.3-.5-1.3-1.2s.6-1.2 1.3-1.2h.3v-8h11v8.1h.3c.7 0 1.2.5 1.2 1.2s-.5 1.2-1.2 1.2h-.3v1.7c0 1.1-.7 2.2-1.5 3"/><path fill="#89C33D" d="M35.5 13.3v1.4l-2.5-.7-.5 1.9-4.4-.7.8 2.6s-3.4-2.7-4-3.2c0 0-1.5-.3-1.5.6 0 0-.3-.7.4-1.9"/><path stroke="#3B3E43" stroke-linecap="round" stroke-linejoin="round" stroke-miterlimit="10" d="M35.1 14.7l-2.1-.7-.5 1.9-4.4-.7.8 2.6s-3.6-2.6-4.2-3.1c0 0-.8.1-.8 1" fill="none"/><path fill="#fff" stroke="#3B3E43" stroke-linecap="round" stroke-linejoin="round" stroke-miterlimit="10" d="M20.2 33v6.3h2.5l-.6 2.1M36.1 32.2v7.1h-.7l-.3 2.3M22.5 32l4.6 11.1M36 31.8l-4.5 11.3"/></svg>