<svg xmlns="http://www.w3.org/2000/svg" width="363.131" height="200" viewBox="0 0 363.131 200"><path fill="#F7BD1C" d="M147.672 19.911l-19.99-15.742-20.75 15.742-19.949-15.742-21.76 15.742-22.284-15.742-20.723 15.742-22.527-15.742v195.828h166v-195.828l-18.017 15.742zm-122.983 60.086h49v9h-49v-9zm0 25h63v9h-63v-9zm63 58h-63v-9h63v9zm10-25h-73v-9h73v9zm0-74h-73v-9h73v9zm44 99h-30v-9h30v9zm0-25h-30v-9h30v9zm0-24h-30v-9h30v9zm0-25h-30v-9h30v9zm0-25h-30v-9h30v9z"/><path fill="#fff" d="M24.689 54.997h73v9h-73zm87 0h30v9h-30zm0 25h30v9h-30zm0 25h30v9h-30zm0 24h30v9h-30zm-87-49h49v9h-49zm0 25h63v9h-63zm0 24h73v9h-73zm87 25h30v9h-30zm-87 0h63v9h-63z"/><linearGradient id="a" gradientUnits="userSpaceOnUse" x1="116.879" y1="53.228" x2="333.542" y2="269.892"><stop offset="0" stop-opacity=".2"/><stop offset=".995" stop-color="#fff" stop-opacity="0"/></linearGradient><path fill="url(#a)" d="M165.856 4.25l-.167.622v195.125h195.764z"/></svg>