<svg xmlns="http://www.w3.org/2000/svg" viewBox="0 0 58 58" enable-background="new 0 0 58 58"><path fill="#D1D1D0" d="M53.9 45h-50.3c-1.1 0-1.9-.8-1.9-1.8s.9-1.9 1.9-1.9h50.4c1 0 1.9.9 1.9 1.9-.1 1-.9 1.8-2 1.8z"/><path fill="#fff" stroke="#3B3E43" stroke-width="1.101" stroke-linecap="round" stroke-linejoin="round" stroke-miterlimit="10" d="M35.4 36.1h-27.2c-.6 0-1.1-.5-1.1-1.1v-24.6c0-.6.5-1.1 1.1-1.1h33.7c.6 0 1.1.5 1.1 1.1v13.4m-35.6 8h27.9"/><path fill="#fff" stroke="#3B3E43" stroke-linecap="round" stroke-linejoin="round" stroke-miterlimit="10" d="M23 33.5h3"/><path stroke="#4C5C68" stroke-linecap="round" stroke-linejoin="round" stroke-miterlimit="10" d="M22.5 26v2m2-2v2m2-2v2" fill="none"/><path fill="#fff" stroke="#3B3E43" stroke-width="1.101" stroke-linecap="round" stroke-linejoin="round" stroke-miterlimit="10" d="M20.1 36.1h10.2v5h-10.2zm-2.4 6.4v-1.4h15.6v1.4"/><path fill="#89C33D" d="M40.5 29.5h-30.8v-17.6h30.8v12.7z"/><path fill="#fff" stroke="#3B3E43" stroke-width="1.101" stroke-linecap="round" stroke-linejoin="round" stroke-miterlimit="10" d="M37.9 25.5h11.5v17.7h-11.5z"/><path fill="#3B3E43" d="M41.6 26.5h4.4v.4h-4.4z"/><circle fill="#3B3E43" cx="43.8" cy="41.9" r=".5"/><path fill="#89C33D" d="M39.3 27.3h8.7v13.9h-8.7z"/><text transform="translate(41.99 36.103)" fill="#3B3E43" font-family="'HelveticaNeue-Bold'" font-size="6.155">$</text></svg>