<svg xmlns="http://www.w3.org/2000/svg" viewBox="0 0 58 58" enable-background="new 0 0 58 58"><path fill="#D1D1D0" d="M53.9 45h-50.3c-1.1 0-1.9-.8-1.9-1.8s.9-1.9 1.9-1.9h50.4c1 0 1.9.9 1.9 1.9-.1 1-.9 1.8-2 1.8z"/><path fill="#fff" stroke="#3B3E43" stroke-linecap="round" stroke-linejoin="round" stroke-miterlimit="10" d="M19.66 36.619v-25.5h19.7v25.5z"/><path fill="#89C33D" d="M37.6 13.8v20c0 .2-.2.3-.3.3h-15.6c-.2 0-.3-.2-.3-.3v-20c0-.2.2-.3.3-.3h15.5c.2-.1.4.1.4.3z"/><path fill="#fff" stroke="#3B3E43" stroke-linecap="round" stroke-linejoin="round" stroke-miterlimit="10" d="M27 35.2h3.5"/><path fill="#fff" stroke="#4C5C68" stroke-width=".597" stroke-linecap="round" stroke-linejoin="round" stroke-miterlimit="10" d="M28.4 12.5h1.4"/><path fill="#fff" stroke="#3B3E43" stroke-linecap="round" stroke-linejoin="round" stroke-miterlimit="10" d="M16 37.9v-10.1l2.4-3.2h3.6s.8.8-.3 1.9c0 0-2.1.3-2.3 1.6-.2 1.3 1.4 1.7 1.8 2.6.4.9.9 4.6-.8 7.3l-4.4-.1z"/><path fill="#89C33D" stroke="#3B3E43" stroke-linecap="round" stroke-linejoin="round" stroke-miterlimit="10" d="M15.3 43.1v-5.1h9.7v5.1"/><path fill="#fff" d="M45.2 32.7v-3c-1.4-1.4-2.9 0-2.9 0l.5 1.5-8.3-.3c-1.5-2.1-2.7-.1-2.7-.1v5.9l4.2 3.9v2.4h7.8v-2.4c0-.5 1.4-2.8 1.4-2.8v-2.8"/><path fill="#fff" stroke="#3B3E43" stroke-linecap="round" stroke-linejoin="round" stroke-miterlimit="10" d="M43.8 43v-2.4c0-.5 1.4-2.8 1.4-2.8v-2.8M45.2 32.7v-3c-1.4-1.4-2.9 0-2.9 0l.5 1.5-8.3-.3c-1.5-2.1-2.7-.1-2.7-.1v5.9l4.2 3.9v2.4"/><path fill="#fff" d="M35.4 29.9l1.5-1.6 1.5-.3 1.4.6 1-.3 1.2.2v.7l2.1 2.2-2.8 1.7h-5.1l-1.1-.6z"/><path fill="#fff" stroke="#3B3E43" stroke-linecap="round" stroke-linejoin="round" stroke-miterlimit="10" d="M34.6 35.2v-12.9s-.4-1.3 1-1.3l1.1 1.2v7.4M36.9 28.2s1.2-1.2 2.6.2v1.2M40.1 28.9s.9-1.4 2.3-.1v1.5"/></svg>