<svg xmlns="http://www.w3.org/2000/svg" width="500" height="500" viewBox="0 0 500 500"><path fill="#898989" d="M212.309 333.584l43.333-43.333-43.084-43.084 43.333-43.333-43.332-43.334 29.185-29.185c-12.616-11.441-31.176-21.546-57.407-21.546-56.392 0-94.271 52.24-94.271 101.028 0 71.023 136.427 166.212 151.982 176.828.588.401 1.2.752 1.827 1.061l11.768-11.768-43.334-43.334zm198.623-122.787c.002-48.788-37.882-101.028-94.279-101.028-18.793 0-33.648 5.192-45.204 12.346l.354.354-38.031 38.031 43.333 43.333-43.333 43.333 43.084 43.084-43.333 43.333 42.145 42.145c40.608-29.845 135.264-105.767 135.264-164.931z"/></svg>