<svg xmlns="http://www.w3.org/2000/svg" viewBox="0 0 64 64" enable-background="new 0 0 64 64"><path stroke="#4C5C68" stroke-width=".911" stroke-linecap="round" stroke-linejoin="round" stroke-miterlimit="10" d="M7.8 18.7h48.3v20.1h-48.3z" fill="none"/><path fill="#CEE8FA" d="M9.4 20.1h45v17h-45z"/><path fill="#fff" stroke="#4C5C68" stroke-linecap="round" stroke-linejoin="round" stroke-miterlimit="10" d="M17.5 32.5h29v26h-29z"/><path stroke="#4C5C68" stroke-width=".85" stroke-linecap="round" stroke-linejoin="round" stroke-miterlimit="10" d="M17.1 6h29.7v12.7h-29.7z" fill="none"/><circle fill="#286090" cx="51.7" cy="22.9" r="1"/><circle fill="#286090" cx="48.4" cy="22.9" r="1"/><path fill="#F9CA38" d="M23.6 42.1h21.3v7.2h-21.3z"/><path fill="#4C5C68" stroke="#4C5C68" stroke-width=".271" stroke-linecap="round" stroke-linejoin="round" stroke-miterlimit="10" d="M25.2 44.6l-.8 1 1.2-.2v.6l-1.2-.1.8 1-.5.3-.5-1.2-.5 1.1-.5-.3.8-1-1.2.2v-.6l1.2.2-.8-1 .5-.3.5 1.1.5-1.1.5.3zm5.4 0l-.8 1 1.2-.2v.6l-1.2-.1.8 1-.5.3-.5-1.2-.5 1.1-.5-.3.8-1-1.2.2v-.6l1.2.2-.8-1 .5-.3.5 1.1.5-1.1.5.3zm5.4 0l-.8 1 1.2-.2v.6l-1.2-.1.8 1-.5.3-.5-1.2-.5 1.1-.5-.2.8-1-1.2.1v-.6l1.2.2-.8-1 .5-.3.5 1.1.5-1.1.5.3zm5.4 0l-.8 1 1.2-.2v.6l-1.2-.1.8 1-.5.3-.5-1.2-.5 1.1-.5-.3.8-1-1.2.2v-.6l1.2.2-.8-1 .5-.3.5 1.1.5-1.1.5.3z"/><path fill="#fff" d="M25 44.6h-4.6v-1.3c0-1.2 1-2.2 2.2-2.2h.3c1.2 0 2.2 1 2.2 2.2v1.3zm-5.6.2h6.4v4.6h-6.4z"/><path d="M26.1 44.4h-.7v-1c0-1.5-1.2-2.8-2.8-2.8-1.4 0-2.6 1.1-2.8 2.5v1.3h-.9l-.1.1v5c0 .2.2.4.4.4h6.7c.1 0 .1 0 .1-.1.1-.1.1-.2 0-.3v-5.1c.4.2.4 0 .1 0zm-5.5-1c0-1.2.9-2.1 2.1-2.1 1.2 0 2.1 1 2.1 2.1v1h-4.2v-1zm-.2 0v-.2.2zm-.7 1.6h6v4.2h-6v-4.2zm3 1.9c-.2 0-.3.1-.3.3v1.1c0 .2.1.3.3.3s.3-.1.3-.3v-1.1c0-.1-.1-.3-.3-.3z" fill="#286090"/><path stroke="#4C5C68" stroke-linecap="round" stroke-linejoin="round" stroke-miterlimit="10" d="M13 32.5h38" fill="none"/></svg>