<svg xmlns="http://www.w3.org/2000/svg" viewBox="0 0 58 58" enable-background="new 0 0 58 58"><path fill="#D1D1D0" d="M53.9 45h-50.3c-1.1 0-1.9-.8-1.9-1.8s.9-1.9 1.9-1.9h50.4c1 0 1.9.9 1.9 1.9-.1 1-.9 1.8-2 1.8z"/><path fill="#fff" stroke="#3B3E43" stroke-width="1.068" stroke-linecap="round" stroke-linejoin="round" stroke-miterlimit="10" d="M28.3 37l7-2.2s.9-.3 1.3.4-.3 1.3-1.1 1.7c-.8.4-9.2 4.9-9.2 4.9s-1.2.7-2.2.5c-1.1-.3-6.7-2.7-6.7-2.7h-2.6M14.7 33.8h3.7l5 1.7h3.7s.9 0 1 .8c0 0 .1 1.1-.7 1.2h-4.9l-1.1.7"/><path fill="#89C33D" stroke="#3B3E43" stroke-width="1.068" stroke-linecap="round" stroke-linejoin="round" stroke-miterlimit="10" d="M9.1 32.3h5.6v8.9h-5.6"/><path fill="#fff" stroke="#3B3E43" stroke-width="1.068" stroke-linecap="round" stroke-linejoin="round" stroke-miterlimit="10" d="M27.2 21.1l4.4-4h5.4l2.6.9h5v6.6h-2.1s-2.6 2.2-5.9 1.9"/><path fill="#fff" stroke="#3B3E43" stroke-width="1.068" stroke-linecap="round" stroke-linejoin="round" stroke-miterlimit="10" d="M17 22.4h19.7v10.1h-19.7z"/><path fill="#01B8C4" d="M16.8 23.4h18.6v7.5h-18.6z"/><path fill="#fff" stroke="#3B3E43" stroke-width="1.068" stroke-linecap="round" stroke-linejoin="round" stroke-miterlimit="10" d="M16.6 21.1h18.9v10h-18.9z"/><path fill="#89C33D" stroke="#3B3E43" stroke-width=".427" stroke-linecap="round" stroke-linejoin="round" stroke-miterlimit="10" d="M33.4 26.7c-.2.1-.4.2-.6.2-.5 0-.9-.4-.9-.9s.4-.9.9-.9.9.4.9.9c0 .1 0 .2-.1.4"/><path fill="#fff" stroke="#3B3E43" stroke-width="1.068" stroke-linecap="round" stroke-linejoin="round" stroke-miterlimit="10" d="M34 20.1l-3.5 3.5s-1 2.1 2.1 2.1l3.2-3.2s3 .2 5.4-2.2"/><path fill="#89C33D" stroke="#3B3E43" stroke-width="1.068" stroke-linecap="round" stroke-linejoin="round" stroke-miterlimit="10" d="M50.8 25.8h-6.2v-9.5h6.2"/><circle fill="#fff" stroke="#3B3E43" stroke-width=".427" stroke-linecap="round" stroke-linejoin="round" stroke-miterlimit="10" cx="26" cy="26" r="2.3"/><path fill="#fff" stroke="#3B3E43" stroke-width=".427" stroke-linecap="round" stroke-linejoin="round" stroke-miterlimit="10" d="M25.1 24.7c.3-.2.6-.3.9-.3.8 0 1.5.7 1.5 1.5s-.7 1.5-1.5 1.5-1.5-.7-1.5-1.5l.1-.6"/><path fill="#3B3E43" d="M26 26.6c-.3 0-.4-.1-.4-.2l.1-.2c.1 0 .1.1.3.1v-.3c-.2-.1-.4-.1-.4-.4s.2-.4.4-.4v-.1s0-.1.1-.1.1 0 .1.1v.1c.1 0 .3.1.3.2l-.1.1s-.1-.1-.2-.1v.2c.2.1.4.1.4.4-.2.4-.4.5-.6.6.1.1.1.1 0 .1v-.1zm0-.9v-.2c-.1 0-.1.1-.1.1 0 .1 0 .1.1.1zm.1.4v.2c.1 0 .1-.1.1-.1s0-.1-.1-.1z"/><path fill="#89C33D" stroke="#3B3E43" stroke-width=".427" stroke-linecap="round" stroke-linejoin="round" stroke-miterlimit="10" d="M19.7 26.7c-.2.1-.4.2-.6.2-.5 0-.9-.4-.9-.9s.4-.9.9-.9.9.4.9.9c0 .1 0 .2-.1.4"/></svg>