<svg xmlns="http://www.w3.org/2000/svg" width="120.25" height="120.25" viewBox="0 0 120.25 120.25"><path fill="#F7F7F7" d="M59.584 2.084c-31.614 0-57.334 25.72-57.334 57.334 0 31.613 25.72 57.333 57.334 57.333 31.613 0 57.333-25.72 57.333-57.333 0-31.614-25.72-57.334-57.333-57.334z"/><path fill="#F4F4F4" d="M114.084 59.418c0-.444-.023-.883-.034-1.324l-30.849-30.85-8.581 8.209-1.703-1.703-3.435 3.751-15.263-15.265-6.429 4.887-.124-.125-.907.91-4.176 3.174.505.505-4.553 4.564 15.978 15.979-27.263 6.62 11.375 11.375-1.375 1.119-.439 2.742-8.701-8.701-2.777 16.715.187.187-2.27 2.563-9.349.012 25.113 25.113c6.352 2.599 13.293 4.043 20.569 4.043 30.052 0 54.501-24.449 54.501-54.5z"/><g fill="#D37DA4"><circle cx="46.112" cy="28.902" r="10.494"/><path d="M66.25 58.523c0-8.515-8.575-15.454-19.501-15.454s-19.499 6.957-19.499 15.473v.458h39v-.477z"/><circle cx="75.964" cy="32.829" r="9.149"/><path d="M92.25 58.598c0-7.425-7.178-13.445-16.705-13.445-3.697 0-6.851.908-9.658 2.45 1.708 2.059 3.049 4.543 3.689 6.982 0 0 .636 3.415.678 4.415h21.996v-.402z"/></g><path d="M17.048 80.624c.382.724.824 1.257 1.322 1.595.497.34.981.51 1.458.51.385 0 .729-.052 1.036-.153.304-.102.56-.289.762-.561.205-.271.361-.632.477-1.086.111-.451.169-1.028.169-1.73v-13.914h5.838v14.389c0 1.109-.153 2.149-.458 3.122-.308.973-.765 1.827-1.376 2.562-.608.735-1.386 1.317-2.323 1.747-.94.429-2.042.646-3.312.646-1.808 0-3.313-.339-4.513-1.019-1.199-.678-2.205-1.729-3.019-3.156l3.939-2.952zm25.11 7.126c-1.539 0-2.938-.259-4.194-.78-1.253-.519-2.329-1.273-3.224-2.257-.892-.983-1.588-2.193-2.085-3.631-.5-1.436-.747-3.058-.747-4.87 0-1.81.247-3.422.747-4.835.497-1.415 1.193-2.602 2.085-3.564.895-.961 1.971-1.69 3.224-2.189 1.256-.497 2.655-.747 4.194-.747 1.515 0 2.904.25 4.172.747 1.269.499 2.347 1.234 3.242 2.207.892.973 1.588 2.161 2.088 3.564.496 1.402.744 3.008.744 4.817 0 1.812-.248 3.434-.744 4.87-.5 1.438-1.196 2.648-2.088 3.631-.896.983-1.974 1.738-3.242 2.257-1.267.521-2.657.78-4.172.78zm0-5.021c1.334 0 2.38-.582 3.14-1.749.756-1.163 1.136-2.753 1.136-4.768 0-2.013-.38-3.567-1.136-4.666-.76-1.097-1.806-1.644-3.14-1.644-1.339 0-2.385.547-3.14 1.644-.759 1.099-1.14 2.653-1.14 4.666 0 2.015.381 3.604 1.14 4.768.755 1.166 1.801 1.749 3.14 1.749zm14.184-17.444h5.836v22.059h-5.836v-22.059zm10.722 0h5.974l4.887 9.841 2.103 4.954h.136c-.066-.586-.147-1.232-.237-1.934-.092-.699-.169-1.418-.239-2.155-.065-.733-.13-1.469-.184-2.206-.058-.734-.087-1.441-.087-2.121v-6.379h5.567v22.059h-5.975l-4.886-9.877-2.104-4.918h-.135c.135 1.266.291 2.646.473 4.139.181 1.492.273 2.919.273 4.277v6.379h-5.566v-22.059zm27.012 4.887h-5.836v-4.887h17.51v4.887h-5.836v17.171h-5.838v-17.171z" fill="#82345B"/></svg>