<svg xmlns="http://www.w3.org/2000/svg" viewBox="0 0 58 58" enable-background="new 0 0 58 58"><path fill="#D1D1D0" d="M53.9 45h-50.3c-1.1 0-1.9-.8-1.9-1.8s.9-1.9 1.9-1.9h50.4c1 0 1.9.9 1.9 1.9-.1 1-.9 1.8-2 1.8z"/><path fill="#fff" stroke="#3B3E43" stroke-linecap="round" stroke-linejoin="round" stroke-miterlimit="10" d="M28.1 34.3l6.5-2s.8-.3 1.2.4c.4.7-.3 1.2-1 1.6-.8.4-8.6 4.5-8.6 4.5s-1.1.7-2.1.5c-1-.3-6.3-2.5-6.3-2.5h-2.4M15.4 31.3h3.5l4.7 1.6h3.5s.9 0 .9.8c0 0 .1 1-.7 1.1h-4.6l-1 .6"/><path fill="#89C33D" stroke="#3B3E43" stroke-linecap="round" stroke-linejoin="round" stroke-miterlimit="10" d="M10.1 29.9h5.2v8.3h-5.2"/><path fill="#fff" stroke="#3B3E43" stroke-linecap="round" stroke-linejoin="round" stroke-miterlimit="10" d="M27 19.4l4.1-3.8h5l2.4.8h4.7v6.2h-1.9s-2.4 2-5.5 1.7"/><path fill="#fff" stroke="#3B3E43" stroke-linecap="round" stroke-linejoin="round" stroke-miterlimit="10" d="M17.5 20.7h18.4v9.4h-18.4z"/><path fill="#01B8C4" d="M17.3 21.6h17.4v7.1h-17.4z"/><path fill="#fff" stroke="#3B3E43" stroke-linecap="round" stroke-linejoin="round" stroke-miterlimit="10" d="M17.1 19.4h17.7v9.4h-17.7z"/><path fill="#89C33D" stroke="#3B3E43" stroke-width=".4" stroke-linecap="round" stroke-linejoin="round" stroke-miterlimit="10" d="M32.9 24.7c-.2.1-.3.2-.5.2-.5 0-.9-.4-.9-.9s.4-.9.9-.9.9.4.9.9c0 .1 0 .2-.1.3"/><path fill="#fff" stroke="#3B3E43" stroke-linecap="round" stroke-linejoin="round" stroke-miterlimit="10" d="M33.4 18.5l-3.3 3.3s-.9 2 2 2l3-3s2.8.2 5-2.1"/><path fill="#89C33D" stroke="#3B3E43" stroke-linecap="round" stroke-linejoin="round" stroke-miterlimit="10" d="M49.2 23.9h-5.9v-8.9h5.9"/><circle fill="#fff" stroke="#3B3E43" stroke-width=".4" stroke-linecap="round" stroke-linejoin="round" stroke-miterlimit="10" cx="25.9" cy="24" r="2.2"/><path fill="#fff" stroke="#3B3E43" stroke-width=".4" stroke-linecap="round" stroke-linejoin="round" stroke-miterlimit="10" d="M25.1 22.8c.3-.2.5-.3.8-.3.8 0 1.4.6 1.4 1.4 0 .8-.6 1.4-1.4 1.4-.8 0-1.4-.6-1.4-1.4l.1-.5"/><path fill="#3B3E43" d="M25.9 24.6c-.3 0-.4-.1-.4-.2l.1-.2s.1.1.3.1v-.2c-.2-.1-.3-.1-.3-.3s.2-.3.3-.3v-.1s0-.1.1-.1.1 0 .1.1v.1c.1 0 .3.1.3.2l-.1.1-.2-.1v.2c.2.1.3.1.3.3-.1.2-.2.3-.5.4.1.1.1.1 0 .1v-.1zm0-.8v-.2c-.1 0-.1.1-.1.1s0 .1.1.1zm.1.3v.2c.1 0 .1-.1.1-.1s0-.1-.1-.1z"/><path fill="#89C33D" stroke="#3B3E43" stroke-width=".4" stroke-linecap="round" stroke-linejoin="round" stroke-miterlimit="10" d="M20 24.7c-.2.1-.3.2-.5.2-.5 0-.9-.4-.9-.9s.4-.9.9-.9.9.4.9.9c0 .1 0 .2-.1.3"/><g stroke="#3B3E43" stroke-linecap="round" stroke-linejoin="round" stroke-miterlimit="10"><path fill="#fff" d="M39.6 26.7h12.2v16.9h-12.2z"/><path fill="#89C33D" d="M41.2 28.5h8.5v2.2h-8.5z"/><path fill="#fff" d="M41.2 32.8h2.1v2.1h-2.1zm3.6 0h2.1v2.1h-2.1zm3.5 0h1.6v5.8h-1.6zm-7.1 3.7h2.1v2.1h-2.1zm3.6 0h2.1v2.1h-2.1zm-3.6 3.6h2.1v2.1h-2.1zm3.6 0h2.1v2.1h-2.1zm3.5 0h2.1v2.1h-2.1z"/></g></svg>