<svg xmlns="http://www.w3.org/2000/svg" viewBox="0 0 58 58" enable-background="new 0 0 58 58"><circle fill="#fff" stroke="#3B3E43" stroke-linecap="round" stroke-linejoin="round" stroke-miterlimit="10" cx="13.5" cy="32.3" r="8.6"/><path fill="#D1D1D0" d="M53.9 45h-50.3c-1.1 0-1.9-.8-1.9-1.8s.9-1.9 1.9-1.9h50.4c1 0 1.9.9 1.9 1.9-.1 1-.9 1.8-2 1.8z"/><path fill="#fff" stroke="#3B3E43" stroke-linecap="round" stroke-linejoin="round" stroke-miterlimit="10" d="M17 34.3l7.7-3 9.1-4.3 8.6 4.4 7.4 3v8.6h-32.8z"/><path fill="#D1D1D0" d="M26.3 30.9l4.7 11.8h4.7l5.2-11.8-7.3-3.4-7.3 3.4z"/><path fill="#D1D1D0" stroke="#3B3E43" stroke-linecap="round" stroke-linejoin="round" stroke-miterlimit="10" d="M34.8 7.2c-4-.1-5.4.9-6.8 2.6-1.3 1.6-1.4 3.9-1.4 3.9l.1 7.4h14.4l.2-8.5c0 .1-.8-5.2-6.5-5.4z"/><path fill="#fff" stroke="#3B3E43" stroke-linecap="round" stroke-linejoin="round" stroke-miterlimit="10" d="M33.8 35.1c-2.4 0-4.3-1.9-4.3-4.3v-3.4h8.7v3.4c-.1 2.3-2 4.3-4.4 4.3zM35.4 28.8h-3.8c-2.2 0-3.7-2-3.7-4.3v-1.8h-.3c-.7 0-1.4-.6-1.4-1.3s.7-1.3 1.4-1.3h.3v-8.6h11.8v8.6h.3c.7 0 1.3.6 1.3 1.3s-.6 1.3-1.3 1.3h-.3v1.8c0 1.2-.8 2.3-1.6 3.1"/><path fill="#D1D1D0" d="M40.2 11.2v1.3l-2.6-.7-.5 2-4.7-.8.9 2.7s-3.7-2.8-4.3-3.4c0 0-1.5-.1-1.5.9 0 0-.4-1.6.7-2.7"/><path stroke="#3B3E43" stroke-linecap="round" stroke-linejoin="round" stroke-miterlimit="10" d="M39.7 12.7l-2.1-.8-.5 2-4.7-.8.9 2.7s-3.9-2.8-4.5-3.3c0 0-.9.1-.8 1M23.9 32.1v6.7h2.7l-.7 2.3M40.8 31.2v7.6h-.7l-.3 2.5M26.3 31l4.9 11.9M40.7 30.8l-4.8 12.1" fill="none"/><path stroke="#89C33D" stroke-width="2" stroke-linecap="round" stroke-linejoin="round" stroke-miterlimit="10" d="M17.3 25.1l-7.6 14.4" fill="none"/></svg>