<svg xmlns="http://www.w3.org/2000/svg" viewBox="0 0 50 50" enable-background="new 0 0 50 50"><path fill="#D1D1D0" d="M45.7 38.4h-42.6c-.9 0-1.6-.7-1.6-1.6 0-.9.7-1.6 1.6-1.6h42.6c.9 0 1.6.7 1.6 1.6 0 .8-.7 1.6-1.6 1.6z"/><path fill="#fff" d="M29.4 35.3c-5.5 0-9.9-4.4-9.9-9.9 0-5.3 4.4-9.9 9.9-9.9s9.9 4.4 9.9 9.9-4.4 9.9-9.9 9.9z"/><path fill="#3E3E3E" d="M36.5 8.7c.4 0 .7-.3.7-.7s-.3-.7-.7-.7c-.4 0-.7.3-.7.7s.3.7.7.7zm-2.6 0c.4 0 .7-.3.7-.7s-.3-.7-.7-.7c-.4 0-.7.3-.7.7s.3.7.7.7zm-2.7 0c.4 0 .7-.3.7-.7s-.3-.7-.7-.7-.7.3-.7.7.4.7.7.7zm6.2 2.9c-.4 0-.7.3-.7.7s.3.7.7.7c.4 0 .7-.3.7-.7 0-.3-.3-.7-.7-.7zm-.6-1.9c0 .4.3.7.7.7.4 0 .7-.3.7-.7s-.4-.7-.8-.7c-.2 0-.6.4-.6.7z"/><path fill="#89C33D" d="M37 16.5c.1.1.3.1.5.1.3 0 .4 0 .5-.1l2.1-2.1c.3-.3.3-.7 0-.9-.3-.3-.7-.3-.9 0l-1.7 1.6-1.5-1.6c-.3-.3-.7-.3-.9 0-.3.3-.3.7 0 .9l1.9 2.1z"/><path fill="#3E3E3E" d="M19.4 31.4c-.4 0-.7.3-.7.7 0 .4.3.7.7.7.4 0 .7-.3.7-.7 0-.5-.3-.7-.7-.7zm-7.5-.3c-.4 0-.7.3-.7.7s.3.7.7.7.7-.3.7-.7c-.1-.4-.4-.7-.7-.7zm4.9.3c-.4 0-.7.3-.7.7 0 .4.3.7.7.7.4 0 .7-.3.7-.7-.1-.5-.3-.7-.7-.7zm-2.7 0c-.4 0-.7.3-.7.7 0 .4.3.7.7.7s.7-.3.7-.7c0-.5-.3-.7-.7-.7z"/><circle fill="#3E3E3E" cx="11.9" cy="29.1" r=".7"/><path fill="#89C33D" d="M14.4 28.1c.3-.3.3-.7 0-.9l-2.1-2.1c-.3-.3-.7-.3-.9 0l-2.1 2.1c-.3.3-.3.7 0 .9.3.3.7.3.9 0l1.2-1.2c.1.1.3.3.5.3.3 0 .4-.1.5-.3l1.2 1.2c0 .1.1.1.3.1.1 0 .4 0 .5-.1z"/><circle fill="#fff" stroke="#3B3E43" stroke-linecap="round" stroke-linejoin="round" stroke-miterlimit="10" cx="21.2" cy="15.8" r="10"/><text transform="translate(17.369 19.473)" fill="#89C33D" font-family="'MyriadPro-Regular'" font-size="13.838">£</text><circle fill="#fff" stroke="#3B3E43" stroke-linecap="round" stroke-linejoin="round" stroke-miterlimit="10" cx="30.5" cy="26.2" r="10"/><path fill="#89C33D" d="M28.7 27.7c0 .5.2.9.5 1.2.3.3.7.5 1.1.5v-3c-.4-.1-.7-.2-1-.3-.3-.1-.5-.3-.7-.4-.2-.2-.3-.4-.4-.6-.2-.2-.2-.4-.2-.8 0-.3.1-.6.2-.9.1-.3.3-.5.5-.7.2-.2.4-.4.7-.5.3-.1.6-.2.9-.2v-.7h.6v.7c.6.1 1.1.3 1.4.7.4.4.6.9.8 1.5h-.9c-.1-.7-.6-1.2-1.2-1.3v2.7l.7.2c.1 0 .3.1.5.2s.4.2.6.4l.5.6c.1.2.2.5.2.9s-.1.7-.2 1c-.1.3-.3.5-.5.7-.2.2-.5.4-.8.5-.3.1-.6.2-1 .2v.9h-.6v-.9c-.7-.1-1.3-.3-1.8-.8-.4-.4-.7-1.1-.7-1.8h.8zm1.5-4.8c-.4 0-.7.2-.9.4-.2.2-.4.5-.4 1 0 .2 0 .4.1.5.1.1.2.3.3.3.1.1.3.2.4.2s.3.1.5.2v-2.6zm.7 6.5l.6-.1c.2-.1.3-.1.5-.3l.3-.4c.1-.2.1-.4.1-.6 0-.2 0-.4-.1-.5l-.3-.4c-.1-.1-.3-.2-.5-.3l-.6-.2v2.8z"/></svg>