<svg xmlns="http://www.w3.org/2000/svg" width="120.25" height="120.25" viewBox="0 0 120.25 120.25"><path fill="#F7F7F7" d="M58.834 2.834c-31.614 0-57.334 25.72-57.334 57.334 0 31.613 25.72 57.333 57.334 57.333 31.613 0 57.333-25.72 57.333-57.333 0-31.614-25.72-57.334-57.333-57.334z"/><path d="M58.834 114.501c7.242 0 14.148-1.429 20.467-4.001h-40.939c6.319 2.575 13.227 4.001 20.472 4.001z" fill="none"/><path fill="#F7BD1C" d="M58.188 19.212l-47.417 32.288h94.834z"/><path d="M58.834 114.501c14.003 0 26.767-5.301 36.4-14.001h-72.801c9.633 8.7 22.397 14.001 36.401 14.001z" fill="none"/><linearGradient id="a" gradientUnits="userSpaceOnUse" x1="-6.359" y1="68.89" x2="140.28" y2="215.529"><stop offset="0" stop-opacity=".2"/><stop offset=".995" stop-color="#fff" stop-opacity="0"/></linearGradient><path fill="url(#a)" d="M33.439 108.192c-.766-.407-1.521-.831-2.266-1.272.745.441 1.5.866 2.266 1.272z"/><linearGradient id="b" gradientUnits="userSpaceOnUse" x1="-7.782" y1="70.312" x2="138.858" y2="216.951"><stop offset="0" stop-opacity=".2"/><stop offset=".995" stop-color="#fff" stop-opacity="0"/></linearGradient><path fill="url(#b)" d="M21.918 100.021l.171.151-.159-.151h-.012z"/><linearGradient id="c" gradientUnits="userSpaceOnUse" x1="29.326" y1="33.204" x2="175.964" y2="179.842"><stop offset="0" stop-opacity=".2"/><stop offset=".995" stop-color="#fff" stop-opacity="0"/></linearGradient><path fill="url(#c)" d="M113.167 60.168l-.024-.958-7.56-7.552-4.096-.158h-88.576l-2.141.258 17.73 17.73v-11.988h5v33h-4.605l-.009.075 5.944 5.925h64.396c8.664-9.626 13.941-22.361 13.941-36.332zm-61.667 30.332h-5v-33h5v33zm18 0h-5v-33h5v33zm13 0v-33h5v33h-5z"/><linearGradient id="d" gradientUnits="userSpaceOnUse" x1="20.227" y1="42.482" x2="166.665" y2="188.92"><stop offset="0" stop-opacity=".2"/><stop offset=".995" stop-color="#fff" stop-opacity="0"/></linearGradient><path fill="url(#d)" d="M86.469 106.944c-.75.444-1.511.871-2.283 1.278.772-.408 1.533-.833 2.283-1.278z"/><linearGradient id="e" gradientUnits="userSpaceOnUse" x1="-5.806" y1="68.336" x2="140.833" y2="214.976"><stop offset="0" stop-opacity=".2"/><stop offset=".995" stop-color="#fff" stop-opacity="0"/></linearGradient><path fill="url(#e)" d="M35.799 109.372c-.768-.36-1.525-.737-2.272-1.133.746.395 1.504.773 2.272 1.133z"/><linearGradient id="f" gradientUnits="userSpaceOnUse" x1="12.434" y1="50.094" x2="159.076" y2="196.736"><stop offset="0" stop-opacity=".2"/><stop offset=".995" stop-color="#fff" stop-opacity="0"/></linearGradient><path fill="url(#f)" d="M95.234 100.5h-72.776c2.675 2.413 5.589 4.563 8.704 6.412-.762-.453-1.512-.924-2.25-1.412h59.865c-.737.488-1.488.959-2.25 1.411 4.745-2.817 9.025-6.331 12.696-10.409-1.259 1.399-2.59 2.735-3.989 3.998z"/><linearGradient id="g" gradientUnits="userSpaceOnUse" x1="6.865" y1="55.661" x2="153.509" y2="202.305"><stop offset="0" stop-opacity=".2"/><stop offset=".995" stop-color="#fff" stop-opacity="0"/></linearGradient><path fill="url(#g)" d="M38.362 110.5c-.821-.335-1.633-.69-2.434-1.064 6.961 3.244 14.718 5.065 22.905 5.065 9.146 0 17.758-2.271 25.32-6.263-1.573.83-3.193 1.586-4.854 2.262h-40.937z"/><path fill="#E27933" d="M28.5 57.5h5v33h-5zm18 0h5v33h-5zm18 0h5v33h-5zm18 0h5v33h-5z"/><path fill="#1B6D69" d="M35.929 109.436l-.13-.063.13.063zm50.598-2.525l-.059.033.059-.033zm-2.341 1.312l-.031.016.031-.016zm-50.66.016l-.087-.047.087.047zm-2.352-1.319l-.012-.008.012.008z"/><path fill="#E27933" d="M28.912 105.5c.738.488 1.488.959 2.25 1.412l.012.008c.744.441 1.5.865 2.266 1.272l.087.047c.747.396 1.505.772 2.272 1.133l.13.063c.801.374 1.612.729 2.434 1.064h40.938c1.66-.676 3.28-1.432 4.854-2.262l.031-.016c.772-.407 1.533-.834 2.283-1.278l.059-.033c.762-.452 1.513-.923 2.25-1.411h-59.866z"/><path fill="#1B6D69" d="M99.226 96.5l-.002.002.002-.002zm-76.793 4h.025l-.369-.327.344.327z"/><path fill="#E27933" d="M18.441 96.5c1.106 1.229 2.275 2.397 3.488 3.521l.159.151.369.327h72.776c1.398-1.263 2.729-2.599 3.989-3.998l.002-.002h-80.783z"/></svg>