<svg xmlns="http://www.w3.org/2000/svg" viewBox="0 0 50 50" enable-background="new 0 0 50 50"><path fill="#D1D1D0" d="M45.7 38.4h-42.6c-.9 0-1.6-.7-1.6-1.6 0-.9.7-1.6 1.6-1.6h42.6c.9 0 1.6.7 1.6 1.6 0 .8-.7 1.6-1.6 1.6z"/><path fill="#fff" d="M30.7 6.6h-18.1c-1.6 0-2.8 1.3-2.8 2.8v27l.8-.7.7.7.6-.7.6.7.7-.7.7.7.7-.7.7.7.6-.7.7.7.6-.7.7.7.6-.7.6.7.6-.7.6.7.7-.7.7.7.7-.7.6.7.7-.7.7.7.7-.7.6.7.6-.7.7.7.6-.7.6.7h1.8"/><path stroke="#3B3E43" stroke-linecap="round" stroke-linejoin="round" stroke-miterlimit="10" d="M30.7 6.6h-18.1c-1.6 0-2.8 1.3-2.8 2.8v27l.8-.7.7.7.6-.7.6.7.7-.7.7.7.7-.7.7.7.6-.7.7.7.6-.7.7.7.6-.7.6.7.6-.7.6.7.7-.7.7.7.7-.7.6.7.7-.7.7.7.7-.7.6.7.6-.7.7.7.6-.7.6.7" fill="none"/><path fill="#89C33D" d="M29.7 36.7h2.3c.4 0 .7-.3.7-.7v-27.6c0-1-.8-1.8-1.8-1.8s-1.8.8-1.8 1.8v27.7c.1.3.3.6.6.6z"/><path stroke="#3B3E43" stroke-linecap="round" stroke-linejoin="round" stroke-miterlimit="10" d="M29.2 15.8v13.3M29.2 11.5v-3.2c0-1 .8-1.7 1.7-1.7 1 0 1.7.8 1.7 1.7v19.3M18.8 11.1h-6.7M26.2 23h-13.9M26.2 25.5h-13.9M26.2 27.9h-13.9M26.2 30.3h-13.9M26.2 32.7h-7.2M26.2 13.6h-5M20 13.6h-7.9" fill="none"/><path fill="#89C33D" d="M26.588 20.522h-14.4v-4.5h14.4z"/><path fill="#fff" stroke="#3B3E43" stroke-linecap="round" stroke-linejoin="round" stroke-miterlimit="10" d="M39.68 34.904h-4.1v-25h4.1z"/><path fill="#89C33D" d="M39.382 20.086h-3.5v-10.2h3.5z"/><path fill="#fff" stroke="#3B3E43" stroke-linecap="round" stroke-linejoin="round" stroke-miterlimit="10" d="M37.7 6.2l2 3.6h-4.1zM38.68 36.803h-2v-1.9h2zM37.7 34.8v-9.3M38.4 17.2h-1.3M38.4 15.8h-1.3M38.4 14.4h-1.3"/></svg>