<?xml version="1.0" encoding="utf-8"?>
<!-- Generator: Adobe Illustrator 21.1.0, SVG Export Plug-In . SVG Version: 6.00 Build 0)  -->
<svg version="1.1" id="Layer_1" xmlns="http://www.w3.org/2000/svg" xmlns:xlink="http://www.w3.org/1999/xlink" x="0px" y="0px"
	 viewBox="0 0 24 24" style="enable-background:new 0 0 24 24;" xml:space="preserve">
<style type="text/css">
	.st0{fill:#9ECFEF;}
	.st1{fill:#FFFFFF;stroke:#333333;stroke-width:0.25;stroke-miterlimit:10;}
	.st2{fill:#97C9E8;}
	.st3{fill:#595959;}
	.st4{fill:#595959;stroke:#595959;stroke-width:0.25;stroke-miterlimit:10;}
	.st5{fill:#FFFFFF;}
	.st6{fill:#9ECFEF;stroke:#595959;stroke-width:0.75;stroke-miterlimit:10;}
	.st7{fill:none;}
	.st8{fill:none;stroke:#9ECFEF;stroke-miterlimit:10;}
	.st9{fill:none;stroke:#595959;stroke-width:0.75;stroke-miterlimit:10;}
	.st10{fill:none;stroke:#595959;stroke-miterlimit:10;}
	.st11{fill:#595959;stroke:#FFFFFF;stroke-width:0.1916;stroke-miterlimit:10;}
	.st12{fill:#9ECFEF;stroke:#595959;stroke-width:0.75;stroke-linejoin:round;stroke-miterlimit:10;}
	.st13{fill:none;stroke:#2C3251;stroke-width:0.75;stroke-miterlimit:10;}
	.st14{fill:none;stroke:#595959;stroke-width:0.5;stroke-miterlimit:10;}
	.st15{fill:#595959;stroke:#FFFFFF;stroke-width:0.25;stroke-miterlimit:10;}
	.st16{fill:#595959;stroke:#595959;stroke-width:0.2196;stroke-miterlimit:10;}
	.st17{fill:#FFFFFF;stroke:#595959;stroke-width:0.2196;stroke-miterlimit:10;}
	.st18{fill:#9ECFEF;stroke:#595959;stroke-width:0.25;stroke-miterlimit:10;}
	.st19{fill:#CA589D;}
	.st20{opacity:0.2;fill:#CA589D;}
	.st21{fill:#3CAF85;}
	.st22{fill:#FFFFFF;stroke:#595959;stroke-width:0.75;stroke-linejoin:round;stroke-miterlimit:10;}
	.st23{fill:#595959;stroke:#FFFFFF;stroke-width:0.2467;stroke-miterlimit:10;}
	.st24{fill:none;stroke:#595959;stroke-width:0.9433;stroke-miterlimit:10;}
	.st25{fill:none;stroke:#595959;stroke-width:0.9157;stroke-miterlimit:10;}
	.st26{fill:none;stroke:#595959;stroke-width:0.901;stroke-miterlimit:10;}
	.st27{fill:none;stroke:#595959;stroke-width:0.74;stroke-miterlimit:10;}
	.st28{fill:none;stroke:#595959;stroke-width:0.7385;stroke-miterlimit:10;}
	.st29{fill:none;stroke:#595959;stroke-width:0.9561;stroke-miterlimit:10;}
	.st30{fill:none;stroke:#595959;stroke-width:0.75;stroke-linecap:square;stroke-miterlimit:10;}
	.st31{fill:none;stroke:#595959;stroke-width:0.7172;stroke-linecap:square;stroke-miterlimit:10;}
	.st32{fill:none;stroke:#595959;stroke-width:0.7318;stroke-linecap:square;stroke-miterlimit:10;}
	.st33{fill:#FFFFFF;stroke:#595959;stroke-width:0.9565;stroke-miterlimit:10;}
	.st34{fill:none;stroke:#595959;stroke-width:0.9565;stroke-miterlimit:10;}
	.st35{fill:none;stroke:#595959;stroke-width:0.9565;stroke-miterlimit:10;stroke-dasharray:2.3998,1.4399;}
	.st36{fill:#9ECFEF;stroke:#595959;stroke-width:0.5;stroke-miterlimit:10;}
	.st37{fill:#595959;stroke:#FFFFFF;stroke-width:0.4959;stroke-miterlimit:10;}
</style>
<g>
	<g>
		<path class="st3" d="M20.232,3.293l-1.96-1.983c-0.23-0.232-0.535-0.36-0.859-0.36H7.197c-0.67,0-1.216,0.552-1.216,1.23v17.24
			c0,0.678,0.545,1.23,1.216,1.23h12.176c0.67,0,1.216-0.552,1.216-1.23V4.162C20.588,3.834,20.462,3.525,20.232,3.293z
			 M18.154,2.351l1.049,1.061h-0.641c-0.225,0-0.408-0.185-0.408-0.413V2.351z M19.373,19.829H7.197
			c-0.223,0-0.404-0.183-0.404-0.409V2.18c0-0.225,0.181-0.409,0.404-0.409h10.145V3c0,0.68,0.547,1.234,1.22,1.234h1.215V19.42
			C19.777,19.645,19.595,19.829,19.373,19.829z"/>
		<rect x="7.604" y="4.234" class="st3" width="5.302" height="0.821"/>
		<rect x="7.604" y="9.158" class="st3" width="11.361" height="0.821"/>
		<rect x="7.604" y="5.875" class="st3" width="11.361" height="0.821"/>
		<polygon class="st3" points="15.719,18.187 16.531,18.187 16.531,12.442 18.154,12.442 18.154,18.187 18.965,18.187 
			18.965,11.621 15.719,11.621 		"/>
		<polygon class="st3" points="11.662,18.187 12.473,18.187 12.473,15.314 14.096,15.314 14.096,18.187 14.908,18.187 
			14.908,14.494 11.662,14.494 		"/>
		<polygon class="st3" points="7.604,18.187 8.416,18.187 8.416,13.673 10.039,13.673 10.039,18.187 10.85,18.187 10.85,12.852 
			7.604,12.852 		"/>
		<rect x="7.604" y="7.517" class="st3" width="11.361" height="0.821"/>
	</g>
	<path class="st37" d="M17.802,22.623v-1.006c0-0.32-0.258-0.579-0.577-0.579h-0.862v0.721H5.428c-0.319,0-0.577-0.259-0.577-0.579
		V4.445h0.72V3.582c0-0.32-0.258-0.579-0.577-0.579H3.989c-0.319,0-0.577,0.259-0.577,0.579v18.3c0,0.729,0.589,1.32,1.315,1.32
		h12.498C17.544,23.202,17.802,22.943,17.802,22.623z"/>
</g>
<rect x="8.563" y="13.833" class="st0" width="1.313" height="4.354"/>
<rect x="12.625" y="15.52" class="st0" width="1.313" height="2.668"/>
<rect x="16.667" y="12.563" class="st0" width="1.333" height="5.625"/>
</svg>
