<svg xmlns="http://www.w3.org/2000/svg" viewBox="0 0 24 24" enable-background="new 0 0 24 24"><style type="text/css">.st0{fill:#9ECFEF;} .st1{fill:#FFFFFF;stroke:#333333;stroke-width:0.25;stroke-miterlimit:10;} .st2{fill:#97C9E8;} .st3{fill:#595959;} .st4{fill:#595959;stroke:#595959;stroke-width:0.25;stroke-miterlimit:10;} .st5{fill:#FFFFFF;} .st6{fill:#9ECFEF;stroke:#595959;stroke-width:0.75;stroke-miterlimit:10;} .st7{fill:none;} .st8{fill:none;stroke:#9ECFEF;stroke-miterlimit:10;} .st9{fill:none;stroke:#595959;stroke-width:0.75;stroke-miterlimit:10;} .st10{fill:none;stroke:#595959;stroke-miterlimit:10;} .st11{fill:#595959;stroke:#FFFFFF;stroke-width:0.1916;stroke-miterlimit:10;} .st12{fill:#9ECFEF;stroke:#595959;stroke-width:0.75;stroke-linejoin:round;stroke-miterlimit:10;} .st13{fill:none;stroke:#2C3251;stroke-width:0.75;stroke-miterlimit:10;} .st14{fill:none;stroke:#595959;stroke-width:0.5;stroke-miterlimit:10;} .st15{fill:#595959;stroke:#FFFFFF;stroke-width:0.25;stroke-miterlimit:10;} .st16{fill:#595959;stroke:#595959;stroke-width:0.2196;stroke-miterlimit:10;} .st17{fill:#FFFFFF;stroke:#595959;stroke-width:0.2196;stroke-miterlimit:10;} .st18{fill:#9ECFEF;stroke:#595959;stroke-width:0.25;stroke-miterlimit:10;} .st19{fill:#CA589D;} .st20{opacity:0.2;fill:#CA589D;} .st21{fill:#3CAF85;} .st22{fill:#FFFFFF;stroke:#595959;stroke-width:0.75;stroke-linejoin:round;stroke-miterlimit:10;} .st23{fill:#595959;stroke:#FFFFFF;stroke-width:0.2467;stroke-miterlimit:10;} .st24{fill:none;stroke:#595959;stroke-width:0.9433;stroke-miterlimit:10;} .st25{fill:none;stroke:#595959;stroke-width:0.9157;stroke-miterlimit:10;} .st26{fill:none;stroke:#595959;stroke-width:0.901;stroke-miterlimit:10;} .st27{fill:none;stroke:#595959;stroke-width:0.74;stroke-miterlimit:10;} .st28{fill:none;stroke:#595959;stroke-width:0.7385;stroke-miterlimit:10;} .st29{fill:none;stroke:#595959;stroke-width:0.9561;stroke-miterlimit:10;} .st30{fill:none;stroke:#595959;stroke-width:0.75;stroke-linecap:square;stroke-miterlimit:10;} .st31{fill:none;stroke:#595959;stroke-width:0.7172;stroke-linecap:square;stroke-miterlimit:10;} .st32{fill:none;stroke:#595959;stroke-width:0.7318;stroke-linecap:square;stroke-miterlimit:10;} .st33{fill:#FFFFFF;stroke:#595959;stroke-width:0.9565;stroke-miterlimit:10;} .st34{fill:none;stroke:#595959;stroke-width:0.9565;stroke-miterlimit:10;} .st35{fill:none;stroke:#595959;stroke-width:0.9565;stroke-miterlimit:10;stroke-dasharray:2.3998,1.4399;} .st36{fill:#9ECFEF;stroke:#595959;stroke-width:0.5;stroke-miterlimit:10;} .st37{fill:#595959;stroke:#FFFFFF;stroke-width:0.4959;stroke-miterlimit:10;}</style><path class="st0" d="M2.844 8.925h3.537v11.48h-3.537z"/><path class="st23" d="M6.991 8.749v11.755c0 .398-.314.72-.701.72h-3.392c-.387 0-.701-.322-.701-.72v-11.69c0-.398.314-.72.701-.72h3.455c.353 0 .638.293.638.655zm1.198-1.885h-7.189v15.59h7.188v-15.59h.001z"/><path class="st24" d="M7.814 9.735c1.41 0 2.686-.642 3.627-1.68.924-1.038 1.495-2.472 1.495-4.056v-1.624c-.002-.47.335-.829.738-.829.486 0 .941.226 1.243.659 1.024 1.377 1.661 3.131 1.661 5.075 0 1.774-.503 3.397-1.344 4.735"/><path class="st25" d="M16.579 21.224h-6.011c-.38 0-.681-.359-.681-.812s-.316-.829-.695-.829h-1.378"/><path class="st26" d="M18.176 9.735h1.892c1.487 0 2.608 1.18 2.296 2.423l-.977 3.884"/><path class="st27" d="M4.599 17.943v1.641"/><path class="st3" d="M18.899 14.501c-2.209.056-3.954 1.89-3.898 4.1s1.89 3.954 4.1 3.898 3.954-1.89 3.898-4.1-1.891-3.953-4.1-3.898zm.183 7.268c-1.799.045-3.306-1.387-3.351-3.186-.045-1.799 1.387-3.306 3.186-3.351 1.799-.045 3.306 1.387 3.351 3.186s-1.386 3.306-3.186 3.351zm-.457-5.363h.75v4.188h-.75zm-1.719 2.469v-.75h4.188v.75z"/></svg>