<svg xmlns="http://www.w3.org/2000/svg" viewBox="0 0 82.3 64" enable-background="new 0 0 82.3 64"><path fill="#D1D1D0" d="M76 55.6h-69.2c-1.4 0-2.6-1.2-2.6-2.6 0-1.4 1.2-2.6 2.6-2.6h69.2c1.4 0 2.6 1.2 2.6 2.6 0 1.4-1.2 2.6-2.6 2.6z"/><path fill="#fff" stroke="#3B3E43" stroke-linecap="round" stroke-linejoin="round" stroke-miterlimit="10" d="M43.8 18h15.2v36h-36v-36h4.6"/><path fill="#89C33D" stroke="#3B3E43" stroke-linecap="round" stroke-linejoin="round" stroke-miterlimit="10" d="M23 51.6h11.4v2.4h-11.4zM47.6 18.2h11v1.9h-11z"/><path fill="#fff" stroke="#3B3E43" stroke-linecap="round" stroke-linejoin="round" stroke-miterlimit="10" d="M28.029 30.862v-22.8h15.8v22.8z"/><path stroke="#3B3E43" stroke-linecap="round" stroke-linejoin="round" stroke-miterlimit="10" d="M31.2 30.5v-21.9" fill="none"/><path stroke="#3E3E3E" stroke-linecap="round" stroke-linejoin="round" stroke-miterlimit="10" d="M41.2 27v-2.7" fill="none"/><path stroke="#3B3E43" stroke-linecap="round" stroke-linejoin="round" stroke-miterlimit="10" d="M41.2 22.6v-1.8M41.2 18.2v-1.8" fill="none"/><circle fill="#89C33D" cx="36.7" cy="12.8" r="2.2"/><circle stroke="#89C33D" stroke-miterlimit="10" cx="36.7" cy="16.1" r="2.2" fill="none"/><path stroke="#3B3E43" stroke-linecap="round" stroke-linejoin="round" stroke-miterlimit="10" d="M45.1 19.3l5.1 5.6v8.4l-1.4 4.1v7.9h-10.4v-3.2s-3.1-4.3-2.9-7.9" fill="none"/><path fill="#fff" stroke="#3B3E43" stroke-linecap="round" stroke-linejoin="round" stroke-miterlimit="10" d="M45.4 28.7l-5.6-5.6s-3.3-1.6-3.3 3.3l5 5s-.4 4.7 3.5 8.4"/><path fill="#89C33D" stroke="#3B3E43" stroke-linecap="round" stroke-linejoin="round" stroke-miterlimit="10" d="M36.3 55.1v-9.8h14.9v9.8"/></svg>