<svg xmlns="http://www.w3.org/2000/svg" viewBox="0 0 24 24" enable-background="new 0 0 24 24"><style type="text/css">.st0{fill:#9ECFEF;} .st1{fill:#FFFFFF;stroke:#333333;stroke-width:0.25;stroke-miterlimit:10;} .st2{fill:#97C9E8;} .st3{fill:#595959;} .st4{fill:#595959;stroke:#595959;stroke-width:0.25;stroke-miterlimit:10;} .st5{fill:#FFFFFF;} .st6{fill:#9ECFEF;stroke:#595959;stroke-width:0.75;stroke-miterlimit:10;} .st7{fill:none;} .st8{fill:none;stroke:#9ECFEF;stroke-miterlimit:10;} .st9{fill:none;stroke:#595959;stroke-width:0.75;stroke-miterlimit:10;} .st10{fill:none;stroke:#595959;stroke-miterlimit:10;} .st11{fill:#595959;stroke:#FFFFFF;stroke-width:0.1916;stroke-miterlimit:10;} .st12{fill:#9ECFEF;stroke:#595959;stroke-width:0.75;stroke-linejoin:round;stroke-miterlimit:10;} .st13{fill:none;stroke:#2C3251;stroke-width:0.75;stroke-miterlimit:10;} .st14{fill:none;stroke:#595959;stroke-width:0.5;stroke-miterlimit:10;} .st15{fill:#595959;stroke:#FFFFFF;stroke-width:0.25;stroke-miterlimit:10;} .st16{fill:#595959;stroke:#595959;stroke-width:0.2196;stroke-miterlimit:10;} .st17{fill:#FFFFFF;stroke:#595959;stroke-width:0.2196;stroke-miterlimit:10;} .st18{fill:#9ECFEF;stroke:#595959;stroke-width:0.25;stroke-miterlimit:10;} .st19{fill:#CA589D;} .st20{opacity:0.2;fill:#CA589D;} .st21{fill:#3CAF85;} .st22{fill:#FFFFFF;stroke:#595959;stroke-width:0.75;stroke-linejoin:round;stroke-miterlimit:10;} .st23{fill:#595959;stroke:#FFFFFF;stroke-width:0.2467;stroke-miterlimit:10;} .st24{fill:none;stroke:#595959;stroke-width:0.9433;stroke-miterlimit:10;} .st25{fill:none;stroke:#595959;stroke-width:0.9157;stroke-miterlimit:10;} .st26{fill:none;stroke:#595959;stroke-width:0.901;stroke-miterlimit:10;} .st27{fill:none;stroke:#595959;stroke-width:0.74;stroke-miterlimit:10;} .st28{fill:none;stroke:#595959;stroke-width:0.7385;stroke-miterlimit:10;} .st29{fill:none;stroke:#595959;stroke-width:0.9561;stroke-miterlimit:10;} .st30{fill:none;stroke:#595959;stroke-width:0.75;stroke-linecap:square;stroke-miterlimit:10;} .st31{fill:none;stroke:#595959;stroke-width:0.7172;stroke-linecap:square;stroke-miterlimit:10;} .st32{fill:none;stroke:#595959;stroke-width:0.7318;stroke-linecap:square;stroke-miterlimit:10;} .st33{fill:#FFFFFF;stroke:#595959;stroke-width:0.9565;stroke-miterlimit:10;} .st34{fill:none;stroke:#595959;stroke-width:0.9565;stroke-miterlimit:10;} .st35{fill:none;stroke:#595959;stroke-width:0.9565;stroke-miterlimit:10;stroke-dasharray:2.3998,1.4399;} .st36{fill:#9ECFEF;stroke:#595959;stroke-width:0.5;stroke-miterlimit:10;} .st37{fill:#595959;stroke:#FFFFFF;stroke-width:0.4959;stroke-miterlimit:10;}</style><path class="st28" d="M22.657 4.826h-21.33v-1.928c0-.52.422-.942.942-.942h19.446c.52 0 .942.422.942.942v1.928z"/><path class="st29" d="M21.565 3.391h-.956m-.957 0h-.956m-.957 0h-.956"/><path class="st28" d="M21.715 22.043h-19.446c-.52 0-.942-.422-.942-.942v-18.203c0-.52.422-.942.942-.942h19.446c.52 0 .942.422.942.942v18.203c0 .521-.422.942-.942.942z"/><path class="st29" d="M3.391 3.391h-.956"/><path class="st0" d="M10.5 6.5h11v5h-11zm-8 12h14v2h-14z"/><path class="st30" d="M2.75 13.5h5.5m-5.5 1.5h5.5m-5.5 1.5h5.5"/><path class="st31" d="M10.801 13.5h10.286m-10.286 1.5h10.286m-10.286 1.5h10.286"/><path class="st32" d="M17.635 18.5h3.452m-3.452 1.5h3.452"/><path class="st0" d="M7.231 9.115c0-1.166-.949-2.115-2.116-2.115-1.166 0-2.115.949-2.115 2.115s.949 2.115 2.115 2.115h.192v-1.922h1.923M4.036 10.467l.887-.887v1.256c-.333-.037-.638-.17-.887-.369zm2.799-1.544h-1.64l-1.159-1.159c.296-.237.672-.379 1.08-.379.889 0 1.623.674 1.719 1.538M3.764 8.036l1.08 1.08-1.08 1.08c-.237-.296-.379-.672-.379-1.08 0-.409.142-.784.379-1.08zm4.236 1.656h-2.308v2.308h.192c1.167 0 2.116-.949 2.116-2.115m-.395.192c-.089.801-.727 1.439-1.528 1.528v-1.528h1.528"/></svg>