<svg xmlns="http://www.w3.org/2000/svg" viewBox="0 0 24 24" enable-background="new 0 0 24 24"><style type="text/css">.st0{fill:#9ECFEF;} .st1{fill:#FFFFFF;stroke:#333333;stroke-width:0.25;stroke-miterlimit:10;} .st2{fill:#97C9E8;} .st3{fill:#595959;} .st4{fill:#595959;stroke:#595959;stroke-width:0.25;stroke-miterlimit:10;} .st5{fill:#FFFFFF;} .st6{fill:#9ECFEF;stroke:#595959;stroke-width:0.75;stroke-miterlimit:10;} .st7{fill:none;} .st8{fill:none;stroke:#9ECFEF;stroke-miterlimit:10;} .st9{fill:none;stroke:#595959;stroke-width:0.75;stroke-miterlimit:10;} .st10{fill:none;stroke:#595959;stroke-miterlimit:10;} .st11{fill:#595959;stroke:#FFFFFF;stroke-width:0.1916;stroke-miterlimit:10;} .st12{fill:#9ECFEF;stroke:#595959;stroke-width:0.75;stroke-linejoin:round;stroke-miterlimit:10;} .st13{fill:none;stroke:#2C3251;stroke-width:0.75;stroke-miterlimit:10;} .st14{fill:none;stroke:#595959;stroke-width:0.5;stroke-miterlimit:10;} .st15{fill:#595959;stroke:#FFFFFF;stroke-width:0.25;stroke-miterlimit:10;} .st16{fill:#595959;stroke:#595959;stroke-width:0.2196;stroke-miterlimit:10;} .st17{fill:#FFFFFF;stroke:#595959;stroke-width:0.2196;stroke-miterlimit:10;} .st18{fill:#9ECFEF;stroke:#595959;stroke-width:0.25;stroke-miterlimit:10;} .st19{fill:#CA589D;} .st20{opacity:0.2;fill:#CA589D;} .st21{fill:#3CAF85;} .st22{fill:#FFFFFF;stroke:#595959;stroke-width:0.75;stroke-linejoin:round;stroke-miterlimit:10;} .st23{fill:#595959;stroke:#FFFFFF;stroke-width:0.2467;stroke-miterlimit:10;} .st24{fill:none;stroke:#595959;stroke-width:0.9433;stroke-miterlimit:10;} .st25{fill:none;stroke:#595959;stroke-width:0.9157;stroke-miterlimit:10;} .st26{fill:none;stroke:#595959;stroke-width:0.901;stroke-miterlimit:10;} .st27{fill:none;stroke:#595959;stroke-width:0.74;stroke-miterlimit:10;} .st28{fill:none;stroke:#595959;stroke-width:0.7385;stroke-miterlimit:10;} .st29{fill:none;stroke:#595959;stroke-width:0.9561;stroke-miterlimit:10;} .st30{fill:none;stroke:#595959;stroke-width:0.75;stroke-linecap:square;stroke-miterlimit:10;} .st31{fill:none;stroke:#595959;stroke-width:0.7172;stroke-linecap:square;stroke-miterlimit:10;} .st32{fill:none;stroke:#595959;stroke-width:0.7318;stroke-linecap:square;stroke-miterlimit:10;} .st33{fill:#FFFFFF;stroke:#595959;stroke-width:0.9565;stroke-miterlimit:10;} .st34{fill:none;stroke:#595959;stroke-width:0.9565;stroke-miterlimit:10;} .st35{fill:none;stroke:#595959;stroke-width:0.9565;stroke-miterlimit:10;stroke-dasharray:2.3998,1.4399;} .st36{fill:#9ECFEF;stroke:#595959;stroke-width:0.5;stroke-miterlimit:10;} .st37{fill:#595959;stroke:#FFFFFF;stroke-width:0.4959;stroke-miterlimit:10;}</style><path class="st0" d="M1.77 14h1.477v4.667h-1.477zm4.04-8.958h9.5v3.839h-9.5z"/><path class="st4" d="M3.502 13.662v5.045c0 .162-.131.293-.293.293h-1.416c-.162 0-.293-.131-.293-.293v-4.753c0-.162.131-.293.293-.293l1.709.001m.5-.5h-3.002v6.338h3.002v-6.338z"/><path class="st9" d="M3.502 14.329c.644 0 1.227-.261 1.657-.683.422-.422.683-1.005.683-1.649v-.66c-.001-.191.153-.337.337-.337.222 0 .43.092.568.268.468.56.759 1.273.759 2.063 0 .721-.23 1.381-.614 1.925m1.281-.927h.79c.621 0 1.089.575.959 1.181l-.453 2.102c-.168.813-.889 1.388-1.718 1.388h-2.914c-.184 0-.33-.146-.33-.33s-.153-.337-.337-.337h-.668"/><path class="st10" d="M2.503 17.666v.667"/><path class="st11" d="M21.97 1.682c-.5-.451-1.1-.682-1.74-.682h-14.46c-1.53 0-2.77 1.364-2.77 3.047v7.513h1.1v-7.513c0-1.001.76-1.815 1.67-1.815h11.619c.266 0 .435.273.324.515-.18.394-.283.834-.283 1.3v17.38c0 .201-.163.363-.363.363h-14.067v1.21h15.197c.201 0 .363-.163.363-.363v-16.39c0-.201.163-.363.363-.363h3.713c.201 0 .364-.163.364-.363v-1.474c0-.913-.38-1.76-1.03-2.365zm.03 3.318h-3.44v-.645c0-.833.29-1.573.767-1.989.249-.202.539-.363.839-.363h.094c.404-.027.798.161 1.119.484.393.456.621 1.061.621 1.733v.78z"/><path class="st10" d="M16.06 11.5h-6m6 2h-5m5 2h-4m4 2h-4"/><path class="st4" d="M15.688 4.378h-10.104c-.205 0-.372.166-.372.372v4.5c0 .205.166.372.372.372h10.105c.205 0 .372-.166.372-.372v-4.5c-.001-.206-.167-.372-.373-.372zm.011 4.883h-9.754c-.205 0-.372-.166-.372-.372v-3.797c0-.205.166-.372.372-.372h9.382c.205 0 .372.166.372.372v4.169z"/><path class="st5" d="M10.56 8.567c.867 0 1.573-.706 1.573-1.573s-.706-1.573-1.573-1.573-1.573.706-1.573 1.573.706 1.573 1.573 1.573zm0-2.797c.675 0 1.223.549 1.223 1.223 0 .675-.549 1.223-1.223 1.223-.675 0-1.223-.549-1.223-1.223s.548-1.223 1.223-1.223zm4.094.527h.342v-.874h-1.216v.342h.874zm.342 1.387h-.342v.532h-.874v.342h1.216zm-8.37-1.919h.874v-.342h-1.235v.874h.361zm.874 2.451h-.874v-.532h-.361v.874h1.235z"/></svg>