<svg xmlns="http://www.w3.org/2000/svg" viewBox="0 0 24 24" enable-background="new 0 0 24 24"><style type="text/css">.st0{fill:#9ECFEF;} .st1{fill:#FFFFFF;stroke:#333333;stroke-width:0.25;stroke-miterlimit:10;} .st2{fill:#97C9E8;} .st3{fill:#595959;} .st4{fill:#595959;stroke:#595959;stroke-width:0.25;stroke-miterlimit:10;} .st5{fill:#FFFFFF;} .st6{fill:#9ECFEF;stroke:#595959;stroke-width:0.75;stroke-miterlimit:10;} .st7{fill:none;} .st8{fill:none;stroke:#9ECFEF;stroke-miterlimit:10;} .st9{fill:none;stroke:#595959;stroke-width:0.75;stroke-miterlimit:10;} .st10{fill:none;stroke:#595959;stroke-miterlimit:10;} .st11{fill:#595959;stroke:#FFFFFF;stroke-width:0.1916;stroke-miterlimit:10;} .st12{fill:#9ECFEF;stroke:#595959;stroke-width:0.75;stroke-linejoin:round;stroke-miterlimit:10;} .st13{fill:none;stroke:#2C3251;stroke-width:0.75;stroke-miterlimit:10;} .st14{fill:none;stroke:#595959;stroke-width:0.5;stroke-miterlimit:10;} .st15{fill:#595959;stroke:#FFFFFF;stroke-width:0.25;stroke-miterlimit:10;} .st16{fill:#595959;stroke:#595959;stroke-width:0.2196;stroke-miterlimit:10;} .st17{fill:#FFFFFF;stroke:#595959;stroke-width:0.2196;stroke-miterlimit:10;} .st18{fill:#9ECFEF;stroke:#595959;stroke-width:0.25;stroke-miterlimit:10;} .st19{fill:#CA589D;} .st20{opacity:0.2;fill:#CA589D;} .st21{fill:#3CAF85;} .st22{fill:#FFFFFF;stroke:#595959;stroke-width:0.75;stroke-linejoin:round;stroke-miterlimit:10;} .st23{fill:#595959;stroke:#FFFFFF;stroke-width:0.2467;stroke-miterlimit:10;} .st24{fill:none;stroke:#595959;stroke-width:0.9433;stroke-miterlimit:10;} .st25{fill:none;stroke:#595959;stroke-width:0.9157;stroke-miterlimit:10;} .st26{fill:none;stroke:#595959;stroke-width:0.901;stroke-miterlimit:10;} .st27{fill:none;stroke:#595959;stroke-width:0.74;stroke-miterlimit:10;} .st28{fill:none;stroke:#595959;stroke-width:0.7385;stroke-miterlimit:10;} .st29{fill:none;stroke:#595959;stroke-width:0.9561;stroke-miterlimit:10;} .st30{fill:none;stroke:#595959;stroke-width:0.75;stroke-linecap:square;stroke-miterlimit:10;} .st31{fill:none;stroke:#595959;stroke-width:0.7172;stroke-linecap:square;stroke-miterlimit:10;} .st32{fill:none;stroke:#595959;stroke-width:0.7318;stroke-linecap:square;stroke-miterlimit:10;} .st33{fill:#FFFFFF;stroke:#595959;stroke-width:0.9565;stroke-miterlimit:10;} .st34{fill:none;stroke:#595959;stroke-width:0.9565;stroke-miterlimit:10;} .st35{fill:none;stroke:#595959;stroke-width:0.9565;stroke-miterlimit:10;stroke-dasharray:2.3998,1.4399;} .st36{fill:#9ECFEF;stroke:#595959;stroke-width:0.5;stroke-miterlimit:10;} .st37{fill:#595959;stroke:#FFFFFF;stroke-width:0.4959;stroke-miterlimit:10;}</style><path class="st0" d="M17.659 1h1.215v16.991h-1.215z"/><path class="st4" d="M15.904 3.854h1.427v14.724l1.041.7v1.236h.733v-1.236l1.041-.7v-17.578h-2.815v2.121h-2.16v6.055h.733v-5.322zm3.548 14.344l-.713.473-.713-.473v-14.344h1.427v14.344h-.001zm-1.427-16.504h1.427v1.427h-1.427v-1.427zm4.975 10.644h-1.774v.733h1.041v8.698c0 .287-.232.519-.519.519h-12.592c.219-.296.346-.664.346-1.062h.012v-7.636c0-.287.232-.519.519-.519h6.218v-.733h-6.218c-.287 0-.519-.232-.519-.519 0-1.271-1.031-2.302-2.302-2.302h-5.694c-.287 0-.519.232-.519.519v9.606c0 .287.232.519.519.519h6.211c.124 0 .242.02.35.055.151.051.286.134.398.242.198.194.316.466.316.767 0 .562-.411 1.024-.987 1.062h-2.546v-1.08h-.732v1.255c0 .287.232.519.519.519h2.682v.019l.258-.018h14.495c.287 0 .519-.232.519-.519l-.001-10.125zm-21.291 6.595v-8.187c0-.287.232-.519.519-.519h4.985c.879 0 1.592.713 1.592 1.592v7.988c-.297-.223-.665-.355-1.064-.355h-5.513c-.287 0-.519-.232-.519-.519z"/><path class="st0" d="M12.703 14.845h3.548v.694h-3.548zm-2.121 0h1.427v.694h-1.427zm0 4.589h3.548v.733h-3.548z"/></svg>