<svg xmlns="http://www.w3.org/2000/svg" viewBox="0 0 24 24" enable-background="new 0 0 24 24"><style type="text/css">.st0{fill:#9ECFEF;} .st1{fill:#FFFFFF;stroke:#333333;stroke-width:0.25;stroke-miterlimit:10;} .st2{fill:#97C9E8;} .st3{fill:#595959;} .st4{fill:#595959;stroke:#595959;stroke-width:0.25;stroke-miterlimit:10;} .st5{fill:#FFFFFF;} .st6{fill:#9ECFEF;stroke:#595959;stroke-width:0.75;stroke-miterlimit:10;} .st7{fill:none;} .st8{fill:none;stroke:#9ECFEF;stroke-miterlimit:10;} .st9{fill:none;stroke:#595959;stroke-width:0.75;stroke-miterlimit:10;} .st10{fill:none;stroke:#595959;stroke-miterlimit:10;} .st11{fill:#595959;stroke:#FFFFFF;stroke-width:0.1916;stroke-miterlimit:10;} .st12{fill:#9ECFEF;stroke:#595959;stroke-width:0.75;stroke-linejoin:round;stroke-miterlimit:10;} .st13{fill:none;stroke:#2C3251;stroke-width:0.75;stroke-miterlimit:10;} .st14{fill:none;stroke:#595959;stroke-width:0.5;stroke-miterlimit:10;} .st15{fill:#595959;stroke:#FFFFFF;stroke-width:0.25;stroke-miterlimit:10;} .st16{fill:#595959;stroke:#595959;stroke-width:0.2196;stroke-miterlimit:10;} .st17{fill:#FFFFFF;stroke:#595959;stroke-width:0.2196;stroke-miterlimit:10;} .st18{fill:#9ECFEF;stroke:#595959;stroke-width:0.25;stroke-miterlimit:10;} .st19{fill:#CA589D;} .st20{opacity:0.2;fill:#CA589D;} .st21{fill:#3CAF85;} .st22{fill:#FFFFFF;stroke:#595959;stroke-width:0.75;stroke-linejoin:round;stroke-miterlimit:10;} .st23{fill:#595959;stroke:#FFFFFF;stroke-width:0.2467;stroke-miterlimit:10;} .st24{fill:none;stroke:#595959;stroke-width:0.9433;stroke-miterlimit:10;} .st25{fill:none;stroke:#595959;stroke-width:0.9157;stroke-miterlimit:10;} .st26{fill:none;stroke:#595959;stroke-width:0.901;stroke-miterlimit:10;} .st27{fill:none;stroke:#595959;stroke-width:0.74;stroke-miterlimit:10;} .st28{fill:none;stroke:#595959;stroke-width:0.7385;stroke-miterlimit:10;} .st29{fill:none;stroke:#595959;stroke-width:0.9561;stroke-miterlimit:10;} .st30{fill:none;stroke:#595959;stroke-width:0.75;stroke-linecap:square;stroke-miterlimit:10;} .st31{fill:none;stroke:#595959;stroke-width:0.7172;stroke-linecap:square;stroke-miterlimit:10;} .st32{fill:none;stroke:#595959;stroke-width:0.7318;stroke-linecap:square;stroke-miterlimit:10;} .st33{fill:#FFFFFF;stroke:#595959;stroke-width:0.9565;stroke-miterlimit:10;} .st34{fill:none;stroke:#595959;stroke-width:0.9565;stroke-miterlimit:10;} .st35{fill:none;stroke:#595959;stroke-width:0.9565;stroke-miterlimit:10;stroke-dasharray:2.3998,1.4399;} .st36{fill:#9ECFEF;stroke:#595959;stroke-width:0.5;stroke-miterlimit:10;} .st37{fill:#595959;stroke:#FFFFFF;stroke-width:0.4959;stroke-miterlimit:10;}</style><path class="st6" d="M16.346 6.437c-1.942.097-3.476-.514-4.448-1.067 0 0-1.621 1.271-4.214 1.077.07-3.87 1.987-4.947 4.328-4.947 2.349 0 4.257 1.077 4.334 4.937z"/><path class="st9" d="M17.101 9.318c-.121.611-.685 1.019-1.292.969-.746 2.25-2.167 3.773-3.797 3.773s-3.043-1.523-3.789-3.773c-.607.048-1.171-.359-1.292-.969-.13-.621.225-1.223.806-1.416-.043-.388-.06-.796-.06-1.203l.009-.252c2.593.194 4.214-1.077 4.214-1.077.971.553 2.505 1.164 4.448 1.067l.009.262c0 .408-.017.815-.061 1.203.579.193.935.795.805 1.416zm-.755-2.881c-1.942.097-3.476-.514-4.448-1.067 0 0-1.621 1.271-4.214 1.077.07-3.87 1.987-4.947 4.328-4.947 2.349 0 4.257 1.077 4.334 4.937zm-.537 3.85l-.156-.019m-7.274 0l-.156.019m8.132-3.85h-.009m-4.447-1.067c-.772-.436-1.188-.844-1.188-.844m-3.026 1.921h-.008m2.603 9.351v-2.166m3.472 0v2.166"/><path class="st9" d="M10.129 15.019s0 1.646 1.736 2.079l-1.736 2.6-.416.675-.453-.675c.001 0-1.736-2.424.869-4.679zm3.774 0s0 1.646-1.736 2.079l1.736 2.6.457.675.411-.675s1.736-2.424-.868-4.679z"/><path class="st12" d="M13.737 19.647l-1.734.97-1.734-.97 1.734-2.562z"/><path class="st9" d="M8.951 16.564l-4.831 1.81c-.734.275-1.22.975-1.22 1.757v2.369h18.206v-2.368c0-.782-.486-1.482-1.22-1.757l-4.832-1.811"/></svg>