<svg xmlns="http://www.w3.org/2000/svg" viewBox="0 0 24 24" enable-background="new 0 0 24 24"><style type="text/css">.st0{fill:#9ECFEF;} .st1{fill:#595959;} .st2{fill:#FFFFFF;} .st3{fill:#595959;stroke:#FFFFFF;stroke-width:0.25;stroke-miterlimit:10;} .st4{fill:#FFFFFF;stroke:#333333;stroke-width:0.25;stroke-miterlimit:10;} .st5{fill:#97C9E8;} .st6{fill:#595959;stroke:#595959;stroke-width:0.25;stroke-miterlimit:10;} .st7{fill:none;} .st8{fill:#595959;stroke:#FFFFFF;stroke-width:0.1916;stroke-miterlimit:10;} .st9{fill:#595959;stroke:#595959;stroke-width:0.2196;stroke-miterlimit:10;} .st10{fill:#FFFFFF;stroke:#595959;stroke-width:0.2196;stroke-miterlimit:10;} .st11{fill:#9ECFEF;stroke:#595959;stroke-width:0.25;stroke-miterlimit:10;} .st12{fill:#CA589D;} .st13{opacity:0.2;fill:#CA589D;} .st14{fill:#3CAF85;} .st15{fill:none;stroke:#2C3251;stroke-width:0.75;stroke-miterlimit:10;} .st16{fill:#595959;stroke:#FFFFFF;stroke-width:0.2467;stroke-miterlimit:10;} .st17{fill:#9ECFEF;stroke:#595959;stroke-width:0.5;stroke-miterlimit:10;} .st18{fill:#595959;stroke:#FFFFFF;stroke-width:0.4959;stroke-miterlimit:10;} .st19{fill:#595959;stroke:#595959;stroke-width:0.2246;stroke-miterlimit:10;} .st20{fill:none;stroke:#595959;stroke-width:0.7572;stroke-miterlimit:10;} .st21{fill:#595959;stroke:#595959;stroke-width:0.5;stroke-miterlimit:10;} .st22{fill:#595959;stroke:#595959;stroke-width:0.2986;stroke-miterlimit:10;} .st23{fill:#9ECFEF;stroke:#595959;stroke-width:0.75;stroke-miterlimit:10;} .st24{fill:#9ECEEE;stroke:#9ECEEE;stroke-width:0.75;stroke-miterlimit:10;} .st25{fill-rule:evenodd;clip-rule:evenodd;fill:#9ECFEF;} .st26{fill:none;stroke:#595959;stroke-miterlimit:10;} .st27{fill:none;stroke:#595959;stroke-width:0.9161;stroke-miterlimit:10;} .st28{fill:#B3B3B3;} .st29{fill:none;stroke:#324044;stroke-width:0.75;stroke-miterlimit:10;} .st30{fill:none;stroke:#2C3251;stroke-width:0.4222;stroke-miterlimit:10;} .st31{fill-rule:evenodd;clip-rule:evenodd;fill:#595959;stroke:#595959;stroke-width:0.5781;stroke-miterlimit:10;} .st32{fill:#595959;stroke:#595959;stroke-width:0.1786;stroke-miterlimit:10;}</style><path class="st0" d="M2.125 2.417h19.417v7.953h-19.417z"/><path class="st2" d="M3.542 6.853h7.552v15.671h-7.552z"/><path class="st1" d="M12.234 15.264c-.224 0-.447.02-.668.059v-5.378l.009-.008c.929.097 1.899-.106 2.926-1.077.459-.435.75-1.056.881-1.675.596-2.814-2.18-5.23-5.041-3.959-1.238.549-1.977 1.842-1.956 3.195l-.008.008h-4.808c-.278 0-.503.225-.503.503v15.61c0 .278.225.503.503.503h7.997v-.055c.221.039.444.059.668.059 2.146 0 3.893-1.746 3.893-3.893s-1.746-3.892-3.893-3.892zm-1.36-2.488h-7.078v-2.462h7.077v2.462zm0 .731v2.004c-.311.116-.602.271-.867.458h-6.21v-2.462h7.077zm-1.618 3.154c-.574.686-.914 1.565-.914 2.495v.005h-4.546v-2.5h5.46zm3.176-13.024c1.158.201 2.103 1.162 2.285 2.322.295 1.88-1.265 3.51-3.151 3.265v-2.3c0-.274-.222-.495-.495-.495h-1.978c0-1.745 1.554-3.103 3.339-2.792zm-3.99 3.485h2.431v2.462h-7.077v-2.462h4.646zm-4.646 15.232v-2.5h4.61c.076.413.219.807.418 1.168l.03.055.021.035c.281.485.665.91 1.127 1.242h-6.206zm8.438-.013c-.309 0-.617-.046-.916-.135-1.336-.401-2.268-1.655-2.268-3.049 0-1.395.933-2.648 2.268-3.049.3-.09.608-.135.917-.135 1.756 0 3.185 1.429 3.185 3.185-.001 1.754-1.43 3.183-3.186 3.183z"/><path class="st2" d="M11.925 2.802c-1.991 0-3.605 1.614-3.605 3.605s1.614 3.605 3.605 3.605 3.605-1.614 3.605-3.605-1.615-3.605-3.605-3.605zm0 6.418c-1.554 0-2.814-1.26-2.814-2.814s1.26-2.814 2.814-2.814 2.814 1.26 2.814 2.814-1.26 2.814-2.814 2.814zm8.834-4.214v-1.26c0-.282-.228-.51-.51-.51h-1.952v.692h1.769v1.077h.693zm-2.462 4.578h1.952c.282 0 .51-.228.51-.51v-1.26h-.692v1.077h-1.769v.693zm-12.731-5.655v-.692h-2c-.276 0-.501.224-.501.501v1.269h.731v-1.078h1.77z"/><path class="st1" d="M1.445 1.121c-.274 0-.495.222-.495.495v10.467h.692v-9.774c0-.274.222-.495.495-.495h19.535c.282 0 .51.228.51.51v8.173c0 .282-.228.51-.51.51h-9.029v.731h9.722c.282 0 .51-.228.51-.51v-9.597c0-.282-.228-.51-.51-.51h-20.92zm10.467 11.648c-2.835 0-5.14 2.305-5.14 5.14 0 2.835 2.305 5.14 5.14 5.14 2.835 0 5.14-2.305 5.14-5.14 0-2.835-2.305-5.14-5.14-5.14zm0 9.341c-2.325 0-4.212-1.887-4.212-4.201 0-2.325 1.887-4.212 4.212-4.212 2.315 0 4.201 1.887 4.201 4.212.001 2.315-1.886 4.201-4.201 4.201z"/><path class="st2" d="M16.114 17.909c0 2.315-1.887 4.201-4.201 4.201-2.325 0-4.212-1.887-4.212-4.201 0-2.325 1.887-4.212 4.212-4.212 2.314 0 4.201 1.887 4.201 4.212z"/><path class="st1" d="M9.617 19.217c-.096 0-.188-.055-.231-.148-.168-.365-.253-.755-.253-1.159 0-1.533 1.247-2.779 2.779-2.779.66 0 1.299.235 1.8.662.107.091.12.252.029.359-.092.108-.253.12-.359.029-.409-.349-.932-.541-1.47-.541-1.251 0-2.27 1.018-2.27 2.27 0 .33.069.648.206.946.059.128.003.279-.125.338l-.106.023zm2.991-3.275l.856-.021-.022-.856.372.354.022.855-.856.022zm-.696 4.746c-.726 0-1.413-.278-1.934-.783-.101-.098-.104-.26-.005-.361.099-.1.259-.103.361-.005.425.413.986.64 1.579.64 1.251 0 2.269-1.018 2.269-2.269 0-.326-.067-.64-.2-.934-.058-.128-.001-.279.127-.337.127-.057.279-.001.337.127.163.36.245.745.245 1.144 0 1.532-1.247 2.778-2.779 2.778zm-.818-.871l-.856-.027-.027.855-.351-.374.027-.855.855.027zm-3.67-13.385h2.424v.689h-2.424zm3.45 1.992h.692v2.376h-.692zm-.705 1.16h.902v.616h-.902z"/></svg>