<svg xmlns="http://www.w3.org/2000/svg" viewBox="0 0 24 24" enable-background="new 0 0 24 24"><style type="text/css">.st0{fill:#9ECFEF;} .st1{fill:#595959;} .st2{fill:#FFFFFF;} .st3{fill:#595959;stroke:#FFFFFF;stroke-width:0.25;stroke-miterlimit:10;} .st4{fill:#FFFFFF;stroke:#333333;stroke-width:0.25;stroke-miterlimit:10;} .st5{fill:#97C9E8;} .st6{fill:#595959;stroke:#595959;stroke-width:0.25;stroke-miterlimit:10;} .st7{fill:none;} .st8{fill:#595959;stroke:#FFFFFF;stroke-width:0.1916;stroke-miterlimit:10;} .st9{fill:#595959;stroke:#595959;stroke-width:0.2196;stroke-miterlimit:10;} .st10{fill:#FFFFFF;stroke:#595959;stroke-width:0.2196;stroke-miterlimit:10;} .st11{fill:#9ECFEF;stroke:#595959;stroke-width:0.25;stroke-miterlimit:10;} .st12{fill:#CA589D;} .st13{opacity:0.2;fill:#CA589D;} .st14{fill:#3CAF85;} .st15{fill:none;stroke:#2C3251;stroke-width:0.75;stroke-miterlimit:10;} .st16{fill:#595959;stroke:#FFFFFF;stroke-width:0.2467;stroke-miterlimit:10;} .st17{fill:#9ECFEF;stroke:#595959;stroke-width:0.5;stroke-miterlimit:10;} .st18{fill:#595959;stroke:#FFFFFF;stroke-width:0.4959;stroke-miterlimit:10;} .st19{fill:#595959;stroke:#595959;stroke-width:0.2246;stroke-miterlimit:10;} .st20{fill:none;stroke:#595959;stroke-width:0.7572;stroke-miterlimit:10;} .st21{fill:#595959;stroke:#595959;stroke-width:0.5;stroke-miterlimit:10;} .st22{fill:#595959;stroke:#595959;stroke-width:0.2986;stroke-miterlimit:10;} .st23{fill:#9ECFEF;stroke:#595959;stroke-width:0.75;stroke-miterlimit:10;} .st24{fill:#9ECEEE;stroke:#9ECEEE;stroke-width:0.75;stroke-miterlimit:10;} .st25{fill-rule:evenodd;clip-rule:evenodd;fill:#9ECFEF;} .st26{fill:none;stroke:#595959;stroke-miterlimit:10;} .st27{fill:none;stroke:#595959;stroke-width:0.9161;stroke-miterlimit:10;} .st28{fill:#B3B3B3;} .st29{fill:none;stroke:#324044;stroke-width:0.75;stroke-miterlimit:10;} .st30{fill:none;stroke:#2C3251;stroke-width:0.4222;stroke-miterlimit:10;} .st31{fill-rule:evenodd;clip-rule:evenodd;fill:#595959;stroke:#595959;stroke-width:0.5781;stroke-miterlimit:10;} .st32{fill:#595959;stroke:#595959;stroke-width:0.1786;stroke-miterlimit:10;}</style><path class="st1" d="M7.648 14.541h8.25v.917h-8.25z"/><path class="st0" d="M9.939 16.616h3.667v.917h-3.667z"/><path class="st1" d="M9.727 4.727h.909v-.454h7.684c.275 0 .498.223.498.498v10.866h-.455v.909h1.364v-12.684c0-.275-.223-.498-.498-.498h-9.502v1.363zm3.182-3.636v1.364h.909v-.455h6.775c.275 0 .498.223.498.498v10.411h-.455v.909h1.364v-12.229c0-.275-.223-.498-.498-.498h-8.593zm-6.818 10.909h.909v-4.956c0-.275.223-.498.498-.498h8.549c.275 0 .498.223.498.498v10.822c0 .275-.223.498-.498.498h-3.138v.909h4.047c.275 0 .498-.223.498-.498v-12.641c0-.275-.223-.498-.498-.498h-10.367c-.275 0-.498.223-.498.498v5.866zm.909.769c-2.835 0-5.14 2.305-5.14 5.14 0 2.835 2.305 5.14 5.14 5.14 2.835 0 5.14-2.305 5.14-5.14 0-2.835-2.305-5.14-5.14-5.14zm0 9.341c-2.325 0-4.212-1.887-4.212-4.201 0-2.325 1.887-4.212 4.212-4.212 2.315 0 4.201 1.887 4.201 4.212 0 2.315-1.886 4.201-4.201 4.201z"/><path class="st2" d="M11.201 17.909c0 2.315-1.887 4.201-4.201 4.201-2.325 0-4.212-1.887-4.212-4.201 0-2.325 1.887-4.212 4.212-4.212 2.315 0 4.201 1.887 4.201 4.212z"/><path class="st1" d="M4.705 19.217c-.096 0-.188-.055-.231-.148-.168-.365-.253-.755-.253-1.159 0-1.533 1.247-2.779 2.779-2.779.66 0 1.299.235 1.8.662.107.091.12.252.029.359-.092.108-.253.12-.359.029-.409-.349-.931-.541-1.47-.541-1.251 0-2.27 1.018-2.27 2.27 0 .33.069.648.206.946.059.128.003.279-.125.338l-.106.023zm2.991-3.275l.855-.021-.021-.856.372.354.021.855-.855.022zm-.696 4.746c-.726 0-1.413-.278-1.934-.783-.101-.098-.104-.26-.005-.361.099-.1.259-.103.361-.005.425.413.986.64 1.579.64 1.251 0 2.269-1.018 2.269-2.269 0-.326-.067-.64-.2-.934-.058-.128-.001-.279.127-.337.127-.057.279-.001.337.127.163.36.245.745.245 1.144 0 1.532-1.247 2.778-2.779 2.778zm-.818-.871l-.856-.027-.027.855-.351-.374.027-.855.855.027zm1.466-7.374h8.25v.917h-8.25z"/><path class="st0" d="M8.431 7.852h6.785v2.742h-6.785z"/><path class="st32" d="M15.486 7.378h-7.217c-.147 0-.265.119-.265.265v3.214c0 .147.119.265.265.265h7.217c.147 0 .265-.119.265-.265v-3.214c.001-.146-.118-.265-.265-.265zm.008 3.488h-6.967c-.147 0-.265-.119-.265-.265v-2.713c0-.147.119-.265.265-.265h6.701c.147 0 .265.119.265.265l.001 2.978z"/><path class="st2" d="M11.823 10.37c.619 0 1.123-.504 1.123-1.123s-.504-1.123-1.123-1.123-1.123.504-1.123 1.123.504 1.123 1.123 1.123zm0-1.998c.482 0 .874.392.874.874s-.392.874-.874.874-.874-.392-.874-.874c.001-.482.392-.874.874-.874zm2.924.377h.245v-.625h-.869v.245h.624zm.245.99h-.245v.38h-.624v.244h.869zm-5.978-1.37h.624v-.245h-.882v.625h.258zm.624 1.75h-.624v-.38h-.258v.624h.882z"/></svg>