<svg xmlns="http://www.w3.org/2000/svg" viewBox="0 0 24 24" enable-background="new 0 0 24 24"><style type="text/css">.st0{fill:#9ECFEF;} .st1{fill:#FFFFFF;stroke:#333333;stroke-width:0.25;stroke-miterlimit:10;} .st2{fill:#97C9E8;} .st3{fill:#595959;} .st4{fill:#595959;stroke:#595959;stroke-width:0.25;stroke-miterlimit:10;} .st5{fill:#FFFFFF;} .st6{fill:none;} .st7{fill:none;stroke:#9ECFEF;stroke-miterlimit:10;} .st8{fill:#595959;stroke:#595959;stroke-width:0.5;stroke-miterlimit:10;} .st9{fill:none;stroke:#595959;stroke-miterlimit:10;} .st10{fill:#9ECFEF;stroke:#595959;stroke-miterlimit:10;} .st11{fill:#9ECFEF;stroke:#595959;stroke-linejoin:round;stroke-miterlimit:10;} .st12{fill:none;stroke:#2C3251;stroke-width:0.75;stroke-miterlimit:10;} .st13{fill:none;stroke:#595959;stroke-width:0.5;stroke-miterlimit:10;} .st14{fill:none;stroke:#595959;stroke-width:0.75;stroke-miterlimit:10;} .st15{fill:#9ECFEF;stroke:#595959;stroke-width:0.25;stroke-miterlimit:10;}</style><path class="st0" d="M1.125 5.313h17.128v2.688h-17.128z"/><circle class="st5" cx="12.313" cy="15.931" r="2.441"/><circle class="st5" cx="15.813" cy="15.931" r="2.441"/><path class="st4" d="M22.88 10.57h-17.5c-.09 0-.16.07-.16.16v10.37c0 .09.07.16.16.16h17.5c.09 0 .16-.07.16-.16v-10.37c0-.09-.07-.16-.16-.16zm-.54 9.99h-16.42v-9.26h16.42v9.26z"/><path class="st15" d="M5.92 11.3v9.26h16.42v-9.26h-16.42zm12.71 5.55c-.28.87-1 1.56-1.88 1.81-.99.29-1.93.05-2.61-.5-.72.57-1.68.78-2.64.5-.87-.25-1.58-.94-1.85-1.8-.62-1.97.83-3.78 2.7-3.78.66 0 1.28.22 1.79.63.49-.39 1.11-.63 1.78-.63 1.87 0 3.32 1.81 2.71 3.77z"/><path class="st4" d="M1.656 8.436h16.388v1.084h.736v-6.457c0-.178-.145-.323-.323-.323h-17.176c-.178 0-.323.145-.323.323v10.047c0 .178.145.323.323.323h2.854v-.697h-2.157c-.178 0-.323-.145-.323-.323l.001-3.977zm0-.698v-2.131h16.388v2.131h-16.388zm0-4.3h16.388v1.433h-16.388v-1.433zm14.264 9.642c-.67 0-1.29.24-1.78.63-.51-.41-1.13-.63-1.79-.63-1.87 0-3.32 1.81-2.7 3.78.27.86.98 1.55 1.85 1.8.96.28 1.92.07 2.64-.5.68.55 1.62.79 2.61.5.88-.25 1.6-.94 1.88-1.81.61-1.96-.84-3.77-2.71-3.77zm-2.28 4.56c-.37.28-.82.43-1.29.43-1.36 0-2.43-1.28-2.06-2.7.18-.72.77-1.31 1.49-1.5.67-.18 1.34-.04 1.86.35-.36.48-.57 1.07-.57 1.71s.21 1.24.57 1.71zm4.35-1.18c-.18.75-.79 1.36-1.54 1.55-1.59.38-2.99-1.02-2.61-2.61.18-.74.79-1.36 1.54-1.54 1.59-.39 3 1.01 2.61 2.6z"/></svg>