<svg xmlns="http://www.w3.org/2000/svg" viewBox="0 0 24 24" enable-background="new 0 0 24 24"><style type="text/css">.st0{fill:#9ECFEF;} .st1{fill:#FFFFFF;} .st2{fill:#595959;} .st3{fill:#595959;stroke:#FFFFFF;stroke-width:0.25;stroke-miterlimit:10;} .st4{fill:#FFFFFF;stroke:#333333;stroke-width:0.25;stroke-miterlimit:10;} .st5{fill:#97C9E8;} .st6{fill:#595959;stroke:#595959;stroke-width:0.25;stroke-miterlimit:10;} .st7{fill:none;} .st8{fill:#595959;stroke:#FFFFFF;stroke-width:0.1916;stroke-miterlimit:10;} .st9{fill:#595959;stroke:#595959;stroke-width:0.2196;stroke-miterlimit:10;} .st10{fill:#FFFFFF;stroke:#595959;stroke-width:0.2196;stroke-miterlimit:10;} .st11{fill:#9ECFEF;stroke:#595959;stroke-width:0.25;stroke-miterlimit:10;} .st12{fill:#CA589D;} .st13{opacity:0.2;fill:#CA589D;} .st14{fill:#3CAF85;} .st15{fill:none;stroke:#2C3251;stroke-width:0.75;stroke-miterlimit:10;} .st16{fill:#595959;stroke:#FFFFFF;stroke-width:0.2467;stroke-miterlimit:10;} .st17{fill:#9ECFEF;stroke:#595959;stroke-width:0.5;stroke-miterlimit:10;} .st18{fill:#595959;stroke:#FFFFFF;stroke-width:0.4959;stroke-miterlimit:10;} .st19{fill:#595959;stroke:#595959;stroke-width:0.2246;stroke-miterlimit:10;} .st20{fill:none;stroke:#595959;stroke-width:0.7572;stroke-miterlimit:10;} .st21{fill:#595959;stroke:#595959;stroke-width:0.5;stroke-miterlimit:10;} .st22{fill:#595959;stroke:#595959;stroke-width:0.2986;stroke-miterlimit:10;} .st23{fill:#9ECFEF;stroke:#595959;stroke-width:0.75;stroke-miterlimit:10;} .st24{fill:#9ECEEE;stroke:#9ECEEE;stroke-width:0.75;stroke-miterlimit:10;} .st25{fill-rule:evenodd;clip-rule:evenodd;fill:#9ECFEF;} .st26{fill:none;stroke:#595959;stroke-miterlimit:10;} .st27{fill:none;stroke:#595959;stroke-width:0.9161;stroke-miterlimit:10;} .st28{fill:#B3B3B3;} .st29{fill:none;stroke:#324044;stroke-width:0.75;stroke-miterlimit:10;} .st30{fill:none;stroke:#2C3251;stroke-width:0.4222;stroke-miterlimit:10;}</style><path class="st0" d="M18.08 2.18v.94h-12.16v-.94c0-.51.42-.93.94-.93h10.28c.52 0 .94.42.94.93z"/><path class="st2" d="M18.455 3.495h-12.91v-1.315c0-.72.59-1.305 1.315-1.305h10.28c.726 0 1.315.585 1.315 1.305v1.315zm-12.16-.75h11.41v-.565c0-.306-.254-.555-.565-.555h-10.28c-.312 0-.565.249-.565.555v.565z"/><path class="st0" d="M18.08 19.95v1.87c0 .51-.42.93-.94.93h-10.28c-.52 0-.94-.42-.94-.93v-1.87h12.16z"/><path class="st2" d="M17.14 23.125h-10.28c-.726 0-1.315-.585-1.315-1.305v-2.245h12.91v2.245c0 .72-.59 1.305-1.315 1.305zm-10.845-2.8v1.495c0 .306.254.555.565.555h10.28c.312 0 .565-.249.565-.555v-1.495h-11.41z"/><path class="st1" d="M5.92 3.12h12.16v16.83h-12.16z"/><path class="st2" d="M18.455 20.325h-12.91v-17.58h12.91v17.58zm-12.16-.75h11.41v-16.08h-11.41v16.08zm4.303 1.398h2.805v.75h-2.805z"/><path class="st0" d="M14.223 9.157c-.992.05-1.776-.263-2.273-.545 0 0-.828.65-2.153.55.036-1.978 1.015-2.528 2.212-2.528 1.199 0 2.174.551 2.214 2.523z"/><path class="st2" d="M10.073 9.364l-.291-.011-.181-.013.003-.181c.033-1.802.841-2.716 2.403-2.716 1.561 0 2.37.912 2.406 2.711l.003.186-.186.009c-.974.048-1.758-.238-2.271-.512-.247.162-.919.527-1.886.527zm-.079-.384l.073.001c1.08 0 1.757-.514 1.765-.52l.101-.078.112.063c.431.245 1.111.526 1.97.526h.009c-.078-1.462-.723-2.145-2.016-2.145-1.296-.001-1.94.685-2.014 2.153z"/><path class="st0" d="M12.889 15.908l-.886.496-.886-.496.886-1.309z"/><path class="st2" d="M16.099 15.078l-2.382-.893c-.123-.259-.315-.526-.617-.788l-.011-.01v-.554h-.016c.415-.333.771-.851 1.013-1.52.348-.036.641-.294.711-.647.074-.354-.092-.708-.395-.879l.019-.497-.006-.155-.005-.038c-.053-1.759-.858-2.654-2.402-2.654-1.562 0-2.37.914-2.403 2.716l-.002.08-.002.053.001.016-.001.032h.002l.017.447c-.304.172-.471.526-.397.879.07.352.363.61.711.647.242.669.598 1.188 1.012 1.52h-.015v.554l-.011.01c-.3.26-.492.524-.615.782l-2.398.898c-.447.167-.748.6-.748 1.077v1.402h9.687v-1.402c.001-.475-.3-.908-.747-1.076zm-3.004-1.146c.819.94.195 1.851.159 1.903l-.055.09-.815-1.219c.402-.178.613-.493.711-.774zm-1.056.488l-.063-.002c-.396-.1-.576-.344-.661-.549v-.796c.222.109.454.172.693.172.241 0 .474-.064.698-.173v.805c-.086.204-.267.444-.665.544l-.002-.001zm-.036.52l.611.902-.611.342-.611-.342.611-.902zm.005-8.114c1.292 0 1.936.682 2.016 2.141h-.061c-.176-.002-.344-.016-.504-.039l-.12-.02-.431-.099-.1-.032-.375-.139-.06-.028-.317-.16-.008-.004-.002-.001c-.364-.206-.565-.399-.567-.401l-.268.274c.007.007.137.133.376.294l-.044.024-.105.049-.114.05-.129.048-.145.048-.154.042-.169.039-.175.03-.196.022-.191.011-.169-.002c.075-1.463.718-2.147 2.012-2.147zm-1.755 4.238l-.047-.142-.15.012c-.223.022-.415-.13-.458-.343-.045-.217.077-.433.285-.503l.147-.049-.017-.154c-.017-.159-.026-.334-.028-.522l.034-.001.055.002.257-.012.023-.001c.691-.052 1.204-.28 1.481-.437l.013-.007.018-.011.097-.059.375.176.034.015.421.146.076.022c.148.041.306.075.472.101l.098.015c.17.023.347.037.533.039l.045.003h.021c-.001.192-.011.371-.03.53l-.017.154.147.049c.208.07.33.285.284.503v.002c-.041.212-.23.359-.457.341l-.063-.005v-.003.002l-.087-.007-.047.143c-.367 1.108-1.041 1.797-1.758 1.797-.717.001-1.389-.687-1.757-1.796zm.672 2.867c.097.281.309.597.711.775l-.753 1.128-.056.091-.002-.004.001-.001-.066-.096c-.074-.104-.634-.981.165-1.893zm5.539 3.243h-8.921v-1.019c0-.318.201-.607.499-.718l2.111-.791c-.135.757.264 1.358.289 1.395l.398.592.316-.484.754.422.093.024.093-.024.784-.439.336.501.357-.588c.007-.009.428-.62.293-1.395l2.098.786c.299.112.5.4.5.718v1.02z"/></svg>