<svg xmlns="http://www.w3.org/2000/svg" viewBox="0 0 24 24" enable-background="new 0 0 24 24"><style type="text/css">.st0{fill:#9ECFEF;} .st1{fill:#FFFFFF;stroke:#333333;stroke-width:0.25;stroke-miterlimit:10;} .st2{fill:#97C9E8;} .st3{fill:#595959;} .st4{fill:#595959;stroke:#595959;stroke-width:0.25;stroke-miterlimit:10;} .st5{fill:#FFFFFF;} .st6{fill:none;} .st7{fill:none;stroke:#9ECFEF;stroke-miterlimit:10;} .st8{fill:#595959;stroke:#595959;stroke-width:0.5;stroke-miterlimit:10;} .st9{fill:none;stroke:#595959;stroke-miterlimit:10;} .st10{fill:#9ECFEF;stroke:#595959;stroke-miterlimit:10;} .st11{fill:#9ECFEF;stroke:#595959;stroke-linejoin:round;stroke-miterlimit:10;} .st12{fill:none;stroke:#2C3251;stroke-width:0.75;stroke-miterlimit:10;} .st13{fill:none;stroke:#595959;stroke-width:0.5;stroke-miterlimit:10;} .st14{fill:none;stroke:#595959;stroke-width:0.75;stroke-miterlimit:10;} .st15{fill:#9ECFEF;stroke:#595959;stroke-width:0.25;stroke-miterlimit:10;}</style><path class="st3" d="M20.71 1h-11c-.76 0-1.38.62-1.38 1.38v1.37h-4.12c-1.27 0-2.29 1.03-2.29 2.29v16.96h11.91v-5.5h4.59c1.01 0 1.83-.82 1.83-1.83v-11.92h1.83v-1.37c0-.76-.61-1.38-1.37-1.38zm-7.4 3.76l-.01.01-.04.07-.02.03-.04.07-.01.02-.09.19-.01.02-.03.07-.01.03-.02.07-.01.03-.03.08v.02l-.03.11v.02l-.01.08-.01.04-.01.07v.04l-.01.07v16.18h-10.09v-16.04c0-.76.62-1.37 1.38-1.37h9.17l-.07.09zm.52 11.82v-10.54c0-.76.62-1.37 1.38-1.37s1.37.61 1.37 1.37v9.63c0 .33.09.64.25.91h-3zm5.55-14.55l-.01.01-.01.05v.02l-.01.04v.03l-.01.04v.09l-.01.07v13.29c0 .5-.41.91-.91.91-.51 0-.92-.41-.92-.91v-9.63c0-1.26-1.03-2.29-2.29-2.29h-5.96v-1.37c0-.26.21-.46.46-.46h9.7l-.03.11zm1.79.8h-.92v-.45c0-.26.21-.46.46-.46s.46.2.46.46v.45z"/><path class="st0" d="M21.17 2.38v.45h-.92v-.45c0-.26.21-.46.46-.46s.46.2.46.46zm-4.34 14.2h-3v-10.54c0-.76.62-1.37 1.38-1.37s1.37.61 1.37 1.37v9.63c0 .33.09.64.25.91z"/><path class="st3" d="M3.75 10.167h8.25v.917h-8.25zm0-1.834h8.25v.917h-8.25z"/><path class="st0" d="M6.042 6.5h3.667v.917h-3.667zm-.637 11.875v.695h4.593v-2.818h-3.551v-1.428h3.898v-.695h-4.593v2.818h3.551v1.428z"/><path class="st7" d="M7.875 13.393v6.375"/></svg>