<svg xmlns="http://www.w3.org/2000/svg" viewBox="0 0 24 24" enable-background="new 0 0 24 24"><style type="text/css">.st0{fill:#9ECFEF;} .st1{fill:#FFFFFF;} .st2{fill:#595959;} .st3{fill:#595959;stroke:#FFFFFF;stroke-width:0.25;stroke-miterlimit:10;} .st4{fill:#FFFFFF;stroke:#333333;stroke-width:0.25;stroke-miterlimit:10;} .st5{fill:#97C9E8;} .st6{fill:#595959;stroke:#595959;stroke-width:0.25;stroke-miterlimit:10;} .st7{fill:#9ECFEF;stroke:#595959;stroke-width:0.75;stroke-miterlimit:10;} .st8{fill:none;} .st9{fill:none;stroke:#9ECFEF;stroke-miterlimit:10;} .st10{fill:none;stroke:#595959;stroke-width:0.75;stroke-miterlimit:10;} .st11{fill:none;stroke:#595959;stroke-miterlimit:10;} .st12{fill:#595959;stroke:#FFFFFF;stroke-width:0.1916;stroke-miterlimit:10;} .st13{fill:#9ECFEF;stroke:#595959;stroke-width:0.75;stroke-linejoin:round;stroke-miterlimit:10;} .st14{fill:none;stroke:#2C3251;stroke-width:0.75;stroke-miterlimit:10;} .st15{fill:none;stroke:#595959;stroke-width:0.5;stroke-miterlimit:10;} .st16{fill:#595959;stroke:#595959;stroke-width:0.2196;stroke-miterlimit:10;} .st17{fill:#FFFFFF;stroke:#595959;stroke-width:0.2196;stroke-miterlimit:10;} .st18{fill:#9ECFEF;stroke:#595959;stroke-width:0.25;stroke-miterlimit:10;} .st19{fill:#CA589D;} .st20{opacity:0.2;fill:#CA589D;} .st21{fill:#3CAF85;} .st22{fill:#FFFFFF;stroke:#595959;stroke-width:0.75;stroke-linejoin:round;stroke-miterlimit:10;} .st23{fill:#595959;stroke:#FFFFFF;stroke-width:0.2467;stroke-miterlimit:10;} .st24{fill:none;stroke:#595959;stroke-width:0.9433;stroke-miterlimit:10;} .st25{fill:none;stroke:#595959;stroke-width:0.9157;stroke-miterlimit:10;} .st26{fill:none;stroke:#595959;stroke-width:0.901;stroke-miterlimit:10;} .st27{fill:none;stroke:#595959;stroke-width:0.74;stroke-miterlimit:10;} .st28{fill:none;stroke:#595959;stroke-width:0.7385;stroke-miterlimit:10;} .st29{fill:none;stroke:#595959;stroke-width:0.9561;stroke-miterlimit:10;} .st30{fill:none;stroke:#595959;stroke-width:0.75;stroke-linecap:square;stroke-miterlimit:10;} .st31{fill:none;stroke:#595959;stroke-width:0.7172;stroke-linecap:square;stroke-miterlimit:10;} .st32{fill:none;stroke:#595959;stroke-width:0.7318;stroke-linecap:square;stroke-miterlimit:10;} .st33{fill:#FFFFFF;stroke:#595959;stroke-width:0.9565;stroke-miterlimit:10;} .st34{fill:none;stroke:#595959;stroke-width:0.9565;stroke-miterlimit:10;} .st35{fill:none;stroke:#595959;stroke-width:0.9565;stroke-miterlimit:10;stroke-dasharray:2.3998,1.4399;} .st36{fill:#9ECFEF;stroke:#595959;stroke-width:0.5;stroke-miterlimit:10;} .st37{fill:#595959;stroke:#FFFFFF;stroke-width:0.4959;stroke-miterlimit:10;} .st38{fill:none;stroke:#595959;stroke-width:0.8165;stroke-miterlimit:10;} .st39{fill:#595959;stroke:#595959;stroke-width:0.2246;stroke-miterlimit:10;} .st40{fill:#FFFFFF;stroke:#595959;stroke-width:0.8165;stroke-miterlimit:10;} .st41{fill:#9ECFEF;stroke:#595959;stroke-width:0.8504;stroke-miterlimit:10;} .st42{fill:none;stroke:#595959;stroke-width:0.7572;stroke-miterlimit:10;} .st43{fill:#595959;stroke:#595959;stroke-width:0.5;stroke-miterlimit:10;} .st44{fill:#595959;stroke:#595959;stroke-width:0.2986;stroke-miterlimit:10;} .st45{fill:#FFFFFF;stroke:#595959;stroke-width:0.75;stroke-miterlimit:10;}</style><path class="st0" d="M19.387 7.591v5.461h-3.602l-.145-.367h-2.532l-.145.367h-1.928l-.145-.367h-2.532l-.145.367h-3.533v-5.461z"/><path class="st16" d="M18.34 14.589h-1.43l-.62-1.537-.329-.826h-3.174l-.329.826-.459 1.14-.459-1.14-.329-.826h-3.174l-.329.826-.62 1.537h-1.43l-1.002 2.516-.046.122.145.214h14.356l.138-.008.138-.214-1.047-2.63zm-5.377-1.537l.145-.367h2.532l.145.367.612 1.537h-1.231v.008h-2.815l.612-1.545zm-4.75 0l.145-.367h2.532l.145.367.612 1.545h-2.807l-.008-.008h-1.231l.612-1.537zm-2.99 3.916l.757-1.904h2.532l.757 1.904h-4.046zm3.801-1.905h1.201l-.605 1.5-.596-1.5zm.948 1.913l.765-1.912h2.524l.765 1.912h-4.054zm3.802-1.913h1.201l-.597 1.499-.604-1.499zm.956 1.905l.757-1.904h2.532l.757 1.904h-4.046z"/><path class="st17" d="M16.397 14.589h-1.231v.008h-2.815l.612-1.545.145-.367h2.532l.145.367zm-4.75.008h-2.807l-.007-.008h-1.232l.612-1.537.145-.367h2.532l.145.367z"/><path class="st6" d="M19.925 6.658h-15.858c-.249 0-.451.202-.451.451v6.683c0 .249.202.451.451.451h1.989v-.559h-1.459c-.249 0-.451-.202-.451-.451v-5.565c0-.249.202-.451.451-.451h14.799c.249 0 .451.202.451.451v5.565c0 .249-.202.451-.451.451h-1.46v.559h1.989c.249 0 .451-.202.451-.451v-6.683c0-.249-.202-.451-.451-.451z"/><path class="st1" d="M7.115 8.275h-1.882v1.352h.53v-.793h1.352zm-1.882 3v1.351h1.353v-.558h-.823v-.793zm13.526 0h-.529v.793h-.823v.558h1.352zm0-1.648v-1.352h-1.882v.559h1.353v.793zm-4.502 1.739c.146-.364.204-.752.166-1.151-.1-1.048-.913-1.953-1.947-2.15-1.55-.296-2.911.891-2.911 2.389 0 .316.059.623.177.914l.501-.204c-.129-.317-.167-.661-.115-1.014.103-.692.612-1.296 1.281-1.5 1.294-.395 2.484.568 2.484 1.804 0 .246-.046.484-.138.71l.502.202z"/><path class="st10" d="M3.724 18.861c-1.545-1.861-2.474-4.253-2.474-6.861 0-5.937 4.813-10.75 10.75-10.75 1.187 0 2.329.192 3.397.548"/><path class="st2" d="M3.689 16.895l-.108 1.796-1.795-.109.716.808 1.795.108.108-1.795z"/><path class="st10" d="M19.018 3.857c2.285 1.971 3.732 4.888 3.732 8.143 0 5.937-4.813 10.75-10.75 10.75-2.148 0-4.148-.63-5.827-1.715"/><path class="st2" d="M19.352 5.8l-.172-1.79 1.79-.171-.833-.688-1.789.172.171 1.79z"/></svg>