<svg xmlns="http://www.w3.org/2000/svg" viewBox="0 0 24 24" enable-background="new 0 0 24 24"><style type="text/css">.st0{fill:#9ECFEF;} .st1{fill:#FFFFFF;stroke:#333333;stroke-width:0.25;stroke-miterlimit:10;} .st2{fill:#97C9E8;} .st3{fill:#595959;} .st4{fill:#595959;stroke:#595959;stroke-width:0.25;stroke-miterlimit:10;} .st5{fill:#FFFFFF;} .st6{fill:none;} .st7{fill:none;stroke:#9ECFEF;stroke-miterlimit:10;} .st8{fill:#595959;stroke:#595959;stroke-width:0.5;stroke-miterlimit:10;} .st9{fill:none;stroke:#595959;stroke-miterlimit:10;} .st10{fill:#9ECFEF;stroke:#595959;stroke-miterlimit:10;} .st11{fill:#9ECFEF;stroke:#595959;stroke-linejoin:round;stroke-miterlimit:10;} .st12{fill:none;stroke:#2C3251;stroke-width:0.75;stroke-miterlimit:10;} .st13{fill:none;stroke:#595959;stroke-width:0.5;stroke-miterlimit:10;} .st14{fill:none;stroke:#595959;stroke-width:0.75;stroke-miterlimit:10;} .st15{fill:#9ECFEF;stroke:#595959;stroke-width:0.25;stroke-miterlimit:10;}</style><path class="st0" d="M2.704 2.396h18.716v7.563h-18.716z"/><path class="st1" d="M15.496 15.327c0 .578-.467 1.061-1.045 1.061h-.361v2.774h-6.992v-2.089h5.965v-.684h-6.302c-.578 0-1.068-.483-1.068-1.061v-3.841h4.902v2.432h.722v-2.602l2.089-1.395v-3.006c0-.566.457-1.014 1.022-1.014h1.067v5.585l.001 3.84z"/><path class="st2" d="M6.09 20.332h8.845v2.668h-8.845z"/><path class="st3" d="M6.757 21.252h2.089v.722h-2.089z"/><path class="st4" d="M1.17 1.53v9.43c0 .293.237.53.53.53h2.78c.293 0 .53.237.53.53v3.31c0 .732.463 1.365 1.105 1.622.187.075.295.273.295.474v1.734h-1.4v3.84h.68v-2.59c0-.293.237-.53.53-.53h8.74c.293 0 .53.237.53.53v2.59h.69v-3.84h-1.37v-1.733c0-.201.107-.399.293-.474.643-.256 1.077-.89 1.077-1.623v-3.31c0-.293.237-.53.53-.53h5.59c.293 0 .53-.237.53-.53v-9.43c0-.293-.237-.53-.53-.53h-20.6c-.293 0-.53.237-.53.53zm13.28 14.86h-.36v2.24c0 .293-.237.53-.53.53h-5.93c-.293 0-.53-.237-.53-.53v-1.03c0-.293.237-.53.53-.53h5.43v-.68h-5.78c-.875 0-1.59-.716-1.59-1.59v-2.78c0-.293.237-.53.53-.53h3.84c.293 0 .53.237.53.53v1.9h.73v-2.317c0-.177.088-.342.235-.44l1.62-1.085c.147-.098.235-.264.235-.44v-2.188c0-.856.694-1.55 1.55-1.55.293 0 .53.237.53.53v8.9h.01c0 .58-.47 1.06-1.05 1.06zm7.16-5.63h-4.9c-.293 0-.53-.237-.53-.53v-4.52c0-.293-.237-.53-.53-.53h-1.45l.01.01c-.43.06-.81.27-1.08.58l-.01.01-.04.04-.04.06h-.01c-.11.16-.21.33-.27.52l-.02.08v.01l-.02.07v.01l-.01.07-.01.02v.06l-.01.02v.09l-.01.09v1.29h.01v1.25h-.01v.09l-1.697 1.122c-.087.057-.188.088-.292.088h-8.301c-.293 0-.53-.237-.53-.53v-8.02c0-.293.237-.53.53-.53h19.22c.293 0 .53.237.53.53v8.02c0 .293-.237.53-.53.53z"/><path class="st5" d="M14.8 4.79h-.84c-.12-.17-.26-.32-.42-.45l-.03-.02-.02-.02c-.42-.32-.93-.51-1.49-.51-1.34 0-2.44 1.1-2.44 2.45l.02.33v.04l.01.03c.18 1.08 1.06 1.92 2.16 2.03l.24.02.26-.02v.7l-.14.01h-.12c-1.73 0-3.14-1.41-3.14-3.14 0-1.74 1.42-3.15 3.15-3.15 1.19 0 2.27.67 2.8 1.7zm-10.855-1.016h1.748v-.684h-2.432v1.748h.684zm1.748 4.901h-1.748v-1.026h-.684v1.749h2.432zm14.362-3.837h.684v-1.748h-2.432v.684h1.748zm.684 2.811h-.684v1.026h-1.748v.723h2.432z"/></svg>