<svg xmlns="http://www.w3.org/2000/svg" xmlns:xlink="http://www.w3.org/1999/xlink" viewBox="0 0 24 24" enable-background="new 0 0 24 24"><style type="text/css">.st0{fill:#9ECFEF;} .st1{fill:#595959;} .st2{fill:#FFFFFF;} .st3{fill:#595959;stroke:#FFFFFF;stroke-width:0.25;stroke-miterlimit:10;} .st4{fill:#FFFFFF;stroke:#333333;stroke-width:0.25;stroke-miterlimit:10;} .st5{fill:#97C9E8;} .st6{fill:#595959;stroke:#595959;stroke-width:0.25;stroke-miterlimit:10;} .st7{fill:none;} .st8{fill:#595959;stroke:#FFFFFF;stroke-width:0.1916;stroke-miterlimit:10;} .st9{fill:#595959;stroke:#595959;stroke-width:0.2196;stroke-miterlimit:10;} .st10{fill:#FFFFFF;stroke:#595959;stroke-width:0.2196;stroke-miterlimit:10;} .st11{fill:#9ECFEF;stroke:#595959;stroke-width:0.25;stroke-miterlimit:10;} .st12{fill:#CA589D;} .st13{opacity:0.2;fill:#CA589D;} .st14{fill:#3CAF85;} .st15{fill:none;stroke:#2C3251;stroke-width:0.75;stroke-miterlimit:10;} .st16{fill:#595959;stroke:#FFFFFF;stroke-width:0.2467;stroke-miterlimit:10;} .st17{fill:#9ECFEF;stroke:#595959;stroke-width:0.5;stroke-miterlimit:10;} .st18{fill:#595959;stroke:#FFFFFF;stroke-width:0.4959;stroke-miterlimit:10;} .st19{fill:#595959;stroke:#595959;stroke-width:0.2246;stroke-miterlimit:10;} .st20{fill:none;stroke:#595959;stroke-width:0.7572;stroke-miterlimit:10;} .st21{fill:#595959;stroke:#595959;stroke-width:0.5;stroke-miterlimit:10;} .st22{fill:#FFFFFF;stroke:#FFFFFF;stroke-width:0.25;stroke-miterlimit:10;} .st23{fill:none;stroke:#FFFFFF;stroke-width:0.6;stroke-miterlimit:10;} .st24{fill:none;stroke:#FFFFFF;stroke-width:0.3;stroke-miterlimit:10;} .st25{fill:#FFFFFF;stroke:#FFFFFF;stroke-width:0.5;stroke-miterlimit:10;} .st26{fill:#595959;stroke:#595959;stroke-width:0.2986;stroke-miterlimit:10;} .st27{fill:#9ECFEF;stroke:#595959;stroke-width:0.75;stroke-miterlimit:10;} .st28{fill:#9ECEEE;stroke:#9ECEEE;stroke-width:0.75;stroke-miterlimit:10;} .st29{fill-rule:evenodd;clip-rule:evenodd;fill:#9ECFEF;} .st30{fill:none;stroke:#595959;stroke-miterlimit:10;} .st31{fill:none;stroke:#595959;stroke-width:0.9161;stroke-miterlimit:10;} .st32{fill:#B3B3B3;} .st33{fill:none;stroke:#324044;stroke-width:0.75;stroke-miterlimit:10;} .st34{fill:none;stroke:#FFFFFF;stroke-width:0.75;stroke-miterlimit:10;} .st35{fill:none;stroke:#2C3251;stroke-width:0.4222;stroke-miterlimit:10;} .st36{fill-rule:evenodd;clip-rule:evenodd;fill:#595959;stroke:#595959;stroke-width:0.5781;stroke-miterlimit:10;} .st37{fill:#595959;stroke:#595959;stroke-width:0.1786;stroke-miterlimit:10;} .st38{fill:#FFFFFF;stroke:#FFFFFF;stroke-width:0.2467;stroke-miterlimit:10;} .st39{fill-rule:evenodd;clip-rule:evenodd;fill:#595959;} .st40{fill-rule:evenodd;clip-rule:evenodd;fill:#FFFFFF;} .st41{clip-path:url(#SVGID_2_);} .st42{clip-path:url(#SVGID_4_);fill:#9ECFEF;} .st43{clip-path:url(#SVGID_6_);} .st44{clip-path:url(#SVGID_8_);fill:#9ECFEF;} .st45{clip-path:url(#SVGID_10_);} .st46{clip-path:url(#SVGID_12_);fill:#595959;} .st47{clip-path:url(#SVGID_14_);} .st48{clip-path:url(#SVGID_16_);fill:#595959;} .st49{clip-path:url(#SVGID_18_);} .st50{clip-path:url(#SVGID_20_);fill:#595959;}</style><defs><path id="SVGID_1_" d="M11.5-85h11c.276 0 .5-.224.5-.5v-17c0-.276-.224-.5-.5-.5h-11c-.276 0-.5.224-.5.5v17c0 .276.224.5.5.5z"/></defs><clipPath id="SVGID_2_"><use xlink:href="#SVGID_1_" overflow="visible"/></clipPath><g class="st41"><defs><path id="SVGID_3_" d="M-5-365h320v697h-320z"/></defs><clipPath id="SVGID_4_"><use xlink:href="#SVGID_3_" overflow="visible"/></clipPath></g><defs><circle id="SVGID_5_" cx="17" cy="-94" r="3"/></defs><use xlink:href="#SVGID_5_" overflow="visible" fill-rule="evenodd" clip-rule="evenodd" fill="#9ECFEF"/><clipPath id="SVGID_6_"><use xlink:href="#SVGID_5_" overflow="visible"/></clipPath><g class="st43"><defs><path id="SVGID_7_" d="M-5-365h320v697h-320z"/></defs><use xlink:href="#SVGID_7_" overflow="visible" fill="#9ECFEF"/><clipPath id="SVGID_8_"><use xlink:href="#SVGID_7_" overflow="visible"/></clipPath></g><defs><path id="SVGID_9_" d="M26.875-93.795c-2.036 3.36-5.82 5.447-9.875 5.447s-7.839-2.087-9.875-5.447l-.125-.205.125-.205c2.036-3.36 5.82-5.447 9.875-5.447s7.839 2.087 9.875 5.447l.125.205-.125.205zm-4.909-.205c0-2.671-2.228-4.845-4.966-4.845s-4.966 2.174-4.966 4.845 2.228 4.845 4.966 4.845 4.966-2.174 4.966-4.845zm-14.001 0c1.194 1.865 2.978 3.286 5.043 4.093-1.11-1.03-1.802-2.484-1.802-4.093s.693-3.063 1.802-4.093c-2.065.807-3.849 2.228-5.043 4.093zm13.027-4.093c1.11 1.03 1.802 2.484 1.802 4.093s-.693 3.063-1.802 4.093c2.065-.807 3.849-2.228 5.043-4.093-1.194-1.865-2.978-3.286-5.043-4.093z"/></defs><clipPath id="SVGID_10_"><use xlink:href="#SVGID_9_" overflow="visible"/></clipPath><g class="st45"><defs><path id="SVGID_11_" d="M-5-365h320v697h-320z"/></defs><clipPath id="SVGID_12_"><use xlink:href="#SVGID_11_" overflow="visible"/></clipPath></g><defs><path id="SVGID_13_" d="M10.43-84.214c0 .223.183.404.409.404h10.267v-1.215c0-.672.554-1.22 1.234-1.22h1.23v-2.841h.821v2.911c0 .325-.128.631-.36.86l-1.984 1.961c-.233.229-.542.356-.87.356h-10.338c-.679 0-1.23-.546-1.23-1.216v-4.871h.821v4.871zm12.559-1.219h-.649c-.228 0-.413.183-.413.408v.642l1.062-1.05z"/></defs><clipPath id="SVGID_14_"><use xlink:href="#SVGID_13_" overflow="visible"/></clipPath><g class="st47"><defs><path id="SVGID_15_" d="M-5-363.998h320v697h-320z"/></defs><clipPath id="SVGID_16_"><use xlink:href="#SVGID_15_" overflow="visible"/></clipPath></g><defs><path id="SVGID_17_" d="M23.57-103.793c0-.216-.184-.393-.409-.393h-12.322c-.226 0-.409.176-.409.393v3.167h-.821v-3.167c0-.651.552-1.181 1.23-1.181h12.322c.679 0 1.23.53 1.23 1.181v3.166h-.821v-3.166"/></defs><clipPath id="SVGID_18_"><use xlink:href="#SVGID_17_" overflow="visible"/></clipPath><g class="st49"><defs><path id="SVGID_19_" d="M-5-365.974h320v697h-320z"/></defs><clipPath id="SVGID_20_"><use xlink:href="#SVGID_19_" overflow="visible"/></clipPath></g><path class="st1" d="M20.642 21.491h-6.637v-.872c0-.208-.083-.413-.228-.561-.785-.797-1.218-1.858-1.218-2.986v-1.342h.75v1.343c0 .93.356 1.803 1.003 2.46.285.292.442.677.442 1.086v.122h5.887v.75z"/><circle class="st1" cx="11.093" cy="9.748" r="7.669"/><path class="st1" d="M21.017 21.116h-.75v-7.348c0-1.035-.51-1.987-1.362-2.548l-1.6-1.052.412-.627 1.6 1.052c1.064.701 1.7 1.888 1.7 3.175v7.348z"/><circle class="st2" cx="11.093" cy="9.748" r="6.917"/><circle class="st0" cx="11.093" cy="9.748" r="6.534"/><path class="st2" d="M14.522 12.186c-.126-.733-.825-1.227-1.558-1.101-.355.061-.665.257-.873.551l-.019.03-2.519-1.03c.051-.142.08-.294.08-.453 0-.23-.058-.447-.16-.636l2.469-1.394c.234.27.573.447.957.465l.061.001c.338 0 .659-.124.909-.354.266-.243.421-.575.437-.936.033-.743-.545-1.375-1.288-1.408-.746-.032-1.375.545-1.408 1.288-.008.169.018.332.069.484l-2.55 1.44c-.232-.187-.526-.3-.846-.3-.744 0-1.349.605-1.349 1.349s.605 1.349 1.349 1.349c.393 0 .746-.17.993-.438l2.593 1.06c-.031.159-.035.324-.006.489.113.656.685 1.12 1.329 1.12l.23-.02c.732-.124 1.226-.823 1.1-1.556zm-2.117-5.523c.153-.14.348-.215.553-.215l.037.001c.452.02.804.404.783.856-.02.452-.404.803-.856.783-.452-.02-.803-.404-.783-.856.01-.219.104-.421.266-.569zm-4.943 3.52c0-.452.368-.821.821-.821.452 0 .821.368.821.821l-.04.253-.004-.002-.063.153c-.141.248-.408.416-.713.416-.453.001-.822-.367-.822-.82zm6.4 2.705c-.126.179-.315.298-.531.335-.216.037-.433-.012-.612-.138s-.298-.315-.335-.531c-.077-.446.224-.871.67-.948l.14-.012c.392 0 .74.282.808.681.036.217-.013.434-.14.613z"/><path class="st1" d="M21.5 23.074h-.75v-1.583h-6.476v1.583h-.75v-2.333h7.976z"/><path class="st2" d="M20.229 15.211v2.945h-2.727c-1.444-.978-.963-2.446-.963-2.446l-1.425-1.314c-.472-.422-.727-1.026-.727-1.65 0-.182.019-.365.066-.547.075-.317.443-.47.717-.288l4.512 2.515.547.785z"/><path class="st1" d="M17.301 18.244c-1.172-.794-1.293-1.956-1.17-2.632l-1.263-1.155c-.707-.646-1.003-1.63-.773-2.567.066-.271.261-.493.518-.593.255-.1.542-.07.773.082l4.259 2.814-.414.626-4.259-2.814c-.099.004-.137.017-.148.064-.164.67.047 1.373.551 1.834l1.605 1.469-.075.23c-.015.047-.366 1.219.816 2.021l-.42.621z"/><path class="st0" d="M14.394 21.605h6.241v1.469h-6.241z"/></svg>