<svg xmlns="http://www.w3.org/2000/svg" viewBox="0 0 24 24" enable-background="new 0 0 24 24"><style type="text/css">.st0{fill:#9ECFEF;} .st1{fill:#FFFFFF;stroke:#333333;stroke-width:0.25;stroke-miterlimit:10;} .st2{fill:#97C9E8;} .st3{fill:#595959;} .st4{fill:#595959;stroke:#595959;stroke-width:0.25;stroke-miterlimit:10;} .st5{fill:#FFFFFF;} .st6{fill:#9ECFEF;stroke:#595959;stroke-width:0.75;stroke-miterlimit:10;} .st7{fill:none;} .st8{fill:none;stroke:#9ECFEF;stroke-miterlimit:10;} .st9{fill:none;stroke:#595959;stroke-width:0.75;stroke-miterlimit:10;} .st10{fill:none;stroke:#595959;stroke-miterlimit:10;} .st11{fill:#595959;stroke:#FFFFFF;stroke-width:0.1916;stroke-miterlimit:10;} .st12{fill:#9ECFEF;stroke:#595959;stroke-width:0.75;stroke-linejoin:round;stroke-miterlimit:10;} .st13{fill:none;stroke:#2C3251;stroke-width:0.75;stroke-miterlimit:10;} .st14{fill:none;stroke:#595959;stroke-width:0.5;stroke-miterlimit:10;} .st15{fill:#595959;stroke:#FFFFFF;stroke-width:0.25;stroke-miterlimit:10;} .st16{fill:#595959;stroke:#595959;stroke-width:0.2196;stroke-miterlimit:10;} .st17{fill:#FFFFFF;stroke:#595959;stroke-width:0.2196;stroke-miterlimit:10;} .st18{fill:#9ECFEF;stroke:#595959;stroke-width:0.25;stroke-miterlimit:10;} .st19{fill:#CA589D;} .st20{opacity:0.2;fill:#CA589D;} .st21{fill:#3CAF85;} .st22{fill:#FFFFFF;stroke:#595959;stroke-width:0.75;stroke-linejoin:round;stroke-miterlimit:10;} .st23{fill:#595959;stroke:#FFFFFF;stroke-width:0.2467;stroke-miterlimit:10;} .st24{fill:none;stroke:#595959;stroke-width:0.9433;stroke-miterlimit:10;} .st25{fill:none;stroke:#595959;stroke-width:0.9157;stroke-miterlimit:10;} .st26{fill:none;stroke:#595959;stroke-width:0.901;stroke-miterlimit:10;} .st27{fill:none;stroke:#595959;stroke-width:0.74;stroke-miterlimit:10;} .st28{fill:none;stroke:#595959;stroke-width:0.7385;stroke-miterlimit:10;} .st29{fill:none;stroke:#595959;stroke-width:0.9561;stroke-miterlimit:10;} .st30{fill:none;stroke:#595959;stroke-width:0.75;stroke-linecap:square;stroke-miterlimit:10;} .st31{fill:none;stroke:#595959;stroke-width:0.7172;stroke-linecap:square;stroke-miterlimit:10;} .st32{fill:none;stroke:#595959;stroke-width:0.7318;stroke-linecap:square;stroke-miterlimit:10;} .st33{fill:#FFFFFF;stroke:#595959;stroke-width:0.9565;stroke-miterlimit:10;} .st34{fill:none;stroke:#595959;stroke-width:0.9565;stroke-miterlimit:10;} .st35{fill:none;stroke:#595959;stroke-width:0.9565;stroke-miterlimit:10;stroke-dasharray:2.3998,1.4399;} .st36{fill:#9ECFEF;stroke:#595959;stroke-width:0.5;stroke-miterlimit:10;} .st37{fill:#595959;stroke:#FFFFFF;stroke-width:0.4959;stroke-miterlimit:10;}</style><path class="st0" d="M21.66 6.22v7.14h-4.71l-.19-.48h-3.31l-.19.48h-2.52l-.19-.48h-3.31l-.19.48h-4.62v-7.14z"/><path class="st16" d="M20.29 15.37h-1.87l-.81-2.01-.43-1.08h-4.15l-.43 1.08-.6 1.49-.6-1.49-.43-1.08h-4.15l-.43 1.08-.81 2.01h-1.87l-1.31 3.29-.06.16.19.28h18.77l.18-.01.18-.28-1.37-3.44zm-7.03-2.01l.19-.48h3.31l.19.48.8 2.01h-1.61v.01h-3.68l.8-2.02zm-6.21 0l.19-.48h3.31l.19.48.8 2.02h-3.67l-.01-.01h-1.61l.8-2.01zm-3.91 5.12l.99-2.49h3.31l.99 2.49h-5.29zm4.97-2.49h1.57l-.79 1.96-.78-1.96zm1.24 2.5l1-2.5h3.3l1 2.5h-5.3zm4.97-2.5h1.57l-.78 1.96-.79-1.96zm1.25 2.49l.99-2.49h3.31l.99 2.49h-5.29z"/><path class="st17" d="M17.75 15.37h-1.61v.01h-3.68l.8-2.02.19-.48h3.31l.19.48zm-6.21.01h-3.67l-.01-.01h-1.61l.8-2.01.19-.48h3.31l.19.48z"/><path class="st4" d="M22.362 5h-20.732c-.326 0-.59.264-.59.59v8.738c0 .326.264.59.59.59h2.6v-.731h-1.908c-.326 0-.59-.264-.59-.59v-7.276c0-.326.264-.59.59-.59h19.349c.326 0 .59.264.59.59v7.277c0 .326-.264.59-.59.59h-1.909v.731h2.601c.326 0 .59-.264.59-.59v-8.739c0-.326-.265-.59-.591-.59z"/><path class="st5" d="M5.614 7.115h-2.46v1.767h.693v-1.037h1.767zm-2.46 3.921v1.768h1.769v-.731h-1.076v-1.037zm17.684 0h-.691v1.037h-1.076v.731h1.767zm0-2.154v-1.767h-2.46v.73h1.769v1.037zm-5.886 2.274c.192-.476.267-.984.217-1.505-.131-1.371-1.193-2.553-2.546-2.811-2.027-.387-3.805 1.165-3.805 3.124 0 .413.077.814.232 1.195l.655-.267c-.169-.415-.219-.864-.15-1.326.134-.904.8-1.695 1.674-1.962 1.692-.517 3.248.743 3.248 2.358 0 .322-.06.633-.18.928l.655.266z"/><path class="st9" d="M6.5 2h11.143"/><path class="st3" d="M16.149 3.271l1.272-1.271-1.272-1.271h1.08l1.271 1.271-1.271 1.271z"/><path class="st9" d="M18.5 22h-11.643"/><path class="st3" d="M8.351 20.729l-1.272 1.271 1.272 1.271h-1.08l-1.271-1.271 1.271-1.271z"/></svg>