<svg xmlns="http://www.w3.org/2000/svg" viewBox="0 0 24 24" enable-background="new 0 0 24 24"><style type="text/css">.st0{fill:#9ECFEF;} .st1{fill:#FFFFFF;stroke:#333333;stroke-width:0.25;stroke-miterlimit:10;} .st2{fill:#97C9E8;} .st3{fill:#595959;} .st4{fill:#595959;stroke:#595959;stroke-width:0.25;stroke-miterlimit:10;} .st5{fill:#FFFFFF;} .st6{fill:none;} .st7{fill:none;stroke:#9ECFEF;stroke-miterlimit:10;} .st8{fill:#595959;stroke:#595959;stroke-width:0.5;stroke-miterlimit:10;} .st9{fill:none;stroke:#595959;stroke-miterlimit:10;} .st10{fill:#9ECFEF;stroke:#595959;stroke-miterlimit:10;} .st11{fill:#9ECFEF;stroke:#595959;stroke-linejoin:round;stroke-miterlimit:10;} .st12{fill:none;stroke:#2C3251;stroke-width:0.75;stroke-miterlimit:10;} .st13{fill:none;stroke:#595959;stroke-width:0.5;stroke-miterlimit:10;} .st14{fill:none;stroke:#595959;stroke-width:0.75;stroke-miterlimit:10;} .st15{fill:#9ECFEF;stroke:#595959;stroke-width:0.25;stroke-miterlimit:10;}</style><circle class="st0" cx="15.7" cy="14.75" r="3.25"/><path class="st3" d="M14.799 22.083h-12.014c-.479 0-.868-.389-.868-.868v-18.43c0-.479.389-.868.868-.868h12.014c.479 0 .868.389.868.868v6.465h.916v-7.382c0-.479-.389-.868-.868-.868h-13.847c-.479 0-.868.389-.868.868v20.264c0 .479.389.868.868.868h13.847c.479 0 .868-.389.868-.868v-1.882h-.916v.965c0 .479-.389.868-.868.868zm8.067-.782l-3.652-3.652c.647-.79 1.036-1.8 1.036-2.899 0-2.527-2.056-4.583-4.583-4.583s-4.583 2.056-4.583 4.583 2.056 4.583 4.583 4.583c1.099 0 2.109-.389 2.899-1.036l3.652 3.652.648-.648zm-10.866-6.551c0-2.022 1.645-3.667 3.667-3.667s3.667 1.645 3.667 3.667-1.645 3.667-3.667 3.667-3.667-1.645-3.667-3.667zm-1.833 3.667h.917v.917h-.917zm-1.834-.917h.917v1.833h-.917zm-1.833-1.833h.917v3.667h-.917zm-1.833.916h.917v2.75h-.917zm-1.834-1.833h.917v4.583h-.917z"/><path class="st0" d="M6.5 3.292h4.583v.917h-4.583z"/><path class="st3" d="M2.833 6.042h11.458v.917h-11.458zm0 1.833h11.458v.917h-11.458zm0 1.833h9.167v.917h-9.167zm0 1.834h7.333v.917h-7.333zm11.23 4.303v.46h3.044v-1.868h-2.354v-.947h2.584v-.46h-3.044v1.868h2.354v.947z"/><path class="st13" d="M15.7 12.542v4.226"/></svg>