<svg xmlns="http://www.w3.org/2000/svg" viewBox="0 0 24 24" enable-background="new 0 0 24 24"><style type="text/css">.st0{fill:#9ECFEF;} .st1{fill:#FFFFFF;stroke:#333333;stroke-width:0.25;stroke-miterlimit:10;} .st2{fill:#97C9E8;} .st3{fill:#595959;} .st4{fill:#595959;stroke:#595959;stroke-width:0.25;stroke-miterlimit:10;} .st5{fill:#FFFFFF;} .st6{fill:#9ECFEF;stroke:#595959;stroke-width:0.75;stroke-miterlimit:10;} .st7{fill:none;} .st8{fill:none;stroke:#9ECFEF;stroke-miterlimit:10;} .st9{fill:none;stroke:#595959;stroke-width:0.75;stroke-miterlimit:10;} .st10{fill:none;stroke:#595959;stroke-miterlimit:10;} .st11{fill:#595959;stroke:#FFFFFF;stroke-width:0.1916;stroke-miterlimit:10;} .st12{fill:#9ECFEF;stroke:#595959;stroke-width:0.75;stroke-linejoin:round;stroke-miterlimit:10;} .st13{fill:none;stroke:#2C3251;stroke-width:0.75;stroke-miterlimit:10;} .st14{fill:none;stroke:#595959;stroke-width:0.5;stroke-miterlimit:10;} .st15{fill:#595959;stroke:#FFFFFF;stroke-width:0.25;stroke-miterlimit:10;} .st16{fill:#595959;stroke:#595959;stroke-width:0.2196;stroke-miterlimit:10;} .st17{fill:#FFFFFF;stroke:#595959;stroke-width:0.2196;stroke-miterlimit:10;} .st18{fill:#9ECFEF;stroke:#595959;stroke-width:0.25;stroke-miterlimit:10;} .st19{fill:#CA589D;} .st20{opacity:0.2;fill:#CA589D;} .st21{fill:#3CAF85;} .st22{fill:#FFFFFF;stroke:#595959;stroke-width:0.75;stroke-linejoin:round;stroke-miterlimit:10;} .st23{fill:#595959;stroke:#FFFFFF;stroke-width:0.2467;stroke-miterlimit:10;} .st24{fill:none;stroke:#595959;stroke-width:0.9433;stroke-miterlimit:10;} .st25{fill:none;stroke:#595959;stroke-width:0.9157;stroke-miterlimit:10;} .st26{fill:none;stroke:#595959;stroke-width:0.901;stroke-miterlimit:10;} .st27{fill:none;stroke:#595959;stroke-width:0.74;stroke-miterlimit:10;} .st28{fill:none;stroke:#595959;stroke-width:0.7385;stroke-miterlimit:10;} .st29{fill:none;stroke:#595959;stroke-width:0.9561;stroke-miterlimit:10;} .st30{fill:none;stroke:#595959;stroke-width:0.75;stroke-linecap:square;stroke-miterlimit:10;} .st31{fill:none;stroke:#595959;stroke-width:0.7172;stroke-linecap:square;stroke-miterlimit:10;} .st32{fill:none;stroke:#595959;stroke-width:0.7318;stroke-linecap:square;stroke-miterlimit:10;} .st33{fill:#FFFFFF;stroke:#595959;stroke-width:0.9565;stroke-miterlimit:10;} .st34{fill:none;stroke:#595959;stroke-width:0.9565;stroke-miterlimit:10;} .st35{fill:none;stroke:#595959;stroke-width:0.9565;stroke-miterlimit:10;stroke-dasharray:2.3998,1.4399;} .st36{fill:#9ECFEF;stroke:#595959;stroke-width:0.5;stroke-miterlimit:10;} .st37{fill:#595959;stroke:#FFFFFF;stroke-width:0.4959;stroke-miterlimit:10;}</style><path class="st0" d="M2 11h4v9.689h-4zm0 9h16v2.2h-16zm0-16h16v7h-16z"/><path class="st5" d="M4 5h12v16h-12z"/><path class="st3" d="M18.5 11v-6.79c0-.51-.41-.92-.92-.92h-3.2v-.91h-1.84v-.46c0-.51-.41-.92-.92-.92h-2.74c-.51 0-.92.41-.92.92v.46h-1.84v.91h-3.2c-.51 0-.92.41-.92.92v17.87c0 .51.41.92.92.92h14.66c.51 0 .92-.41.92-.92v-2.08h-.92v2.08h-14.66v-17.87h3.2v1.83h8.26v-1.83h3.2v6.79h.92zm-5.04-5.88h-6.42v-1.83h1.84v-1.37h2.74v1.37h1.84v1.83z"/><path class="st5" d="M11.62 3.29v-1.37h-2.74v1.37h-1.84v1.83h6.42v-1.83h-1.84zm-.91 0h-.92v-.91h.92v.91z"/><path class="st15" d="M16.499 4.667h-1.666v.917h.834v5.416h.834l-.002-6.333zm.001 15.333l-11.666.117v-14.568h.834v-.882h-1.668v16.333h12.499l.001-1z"/><path class="st3" d="M9.79 2.38h.92v.91h-.92zm-.737 6.708l-.648-.648-1.62 1.62-.648-.648-.648.648 1.296 1.297zm.739.62h4.583v.917h-4.583zm-.739 2.588l-.648-.648-1.62 1.62-.648-.648-.648.648 1.296 1.297zm.739.621h3.208v.917h-3.208zm-.739 2.588l-.648-.648-1.62 1.62-.648-.648-.648.648 1.296 1.296zm.739.62h3.208v.917h-3.208zm8.208-4.625c-2.21 0-4 1.79-4 4s1.79 4 4 4 4-1.79 4-4-1.79-4-4-4zm0 7.27c-1.8 0-3.27-1.47-3.27-3.27s1.47-3.27 3.27-3.27 3.27 1.47 3.27 3.27-1.47 3.27-3.27 3.27z"/><path class="st5" d="M18 12.23c-1.8 0-3.27 1.47-3.27 3.27s1.47 3.27 3.27 3.27 3.27-1.47 3.27-3.27-1.47-3.27-3.27-3.27zm1.82 4.36h-2.55v-2.54h.73v1.81h1.82v.73z"/><path class="st3" d="M19.82 15.86v.73h-2.55v-2.54h.73v1.81z"/></svg>