<svg id="Layer_1" data-name="Layer 1" xmlns="http://www.w3.org/2000/svg" viewBox="0 0 24 24"><defs><style>.cls-1,.cls-3{fill:#fff;}.cls-2,.cls-4{fill:none;}.cls-2,.cls-3,.cls-4,.cls-5{stroke:#595959;}.cls-2{stroke-linecap:round;stroke-linejoin:round;stroke-width:0.76px;}.cls-3,.cls-4,.cls-5{stroke-miterlimit:10;stroke-width:0.76px;}.cls-5{fill:#a3d4ff;}</style></defs><title>login</title><rect class="cls-1" x="8" y="4.01" width="8.12" height="16.32"/><path class="cls-2" d="M9.33,7.43V5.72a.19.19,0,0,1,.19-.19H22.47a.19.19,0,0,1,.19.19V20.17a.19.19,0,0,1-.19.19H9.52a.19.19,0,0,1-.19-.19V16.56"/><path class="cls-3" d="M22.66,20.22a.19.19,0,0,1-.12.18L14.26,23h-.36V1.35h.36L22.53,4a.19.19,0,0,1,.12.18Z"/><line class="cls-4" x1="9.33" y1="20.36" x2="7.43" y2="20.36"/><path class="cls-5" d="M11.86,12.24,7.38,7.76a.19.19,0,0,0-.33.13v2a.19.19,0,0,1-.19.19H1.54a.19.19,0,0,0-.19.19v4.18a.19.19,0,0,0,.19.19H6.86a.19.19,0,0,1,.19.19v2a.19.19,0,0,0,.33.13l4.48-4.48A.19.19,0,0,0,11.86,12.24Z"/><polyline class="cls-2" points="15.41 10.47 15.79 11.23 15.79 13.13 15.41 13.89"/><path class="cls-4" d="M7.81,6.67V4.2A.19.19,0,0,1,8,4h5.89"/><line class="cls-2" x1="7.81" y1="20.36" x2="7.81" y2="18.08"/></svg>