<svg xmlns="http://www.w3.org/2000/svg" viewBox="0 0 64 64"><defs><style>.cls-1,.cls-4{fill:#fff;}.cls-1,.cls-3,.cls-4,.cls-6,.cls-7{stroke:#4c5c68;}.cls-1{stroke-miterlimit:10;}.cls-2{fill:#f9ca38;}.cls-3,.cls-5{fill:#cee8fa;}.cls-3,.cls-4,.cls-6,.cls-7{stroke-linecap:round;stroke-linejoin:round;}.cls-6{fill:none;}.cls-7{fill:#286090;}</style></defs><title>user-helpdesk</title><g id="Layer_1"><path id="_Path_" class="cls-1" d="M9.87 41.4l10.36-4.01 12.3-5.88 11.64 6.02 9.96 4.01v11.65h-44.26v-11.79z"/><path id="_Path_2" class="cls-2" d="M22.36 36.83l6.44 15.88h6.35l7-16-9.85-4.56z"/><path id="_Path_3" class="cls-3" d="M33.87 4.83c-5.41-.19-7.35 1.27-9.18 3.53a10.69 10.69 0 0 0-1.92 5.29l.15 10h19.51l.22-11.49a8.86 8.86 0 0 0-8.78-7.33z"/><path id="_Rectangle_" class="cls-4" d="M26.65 32h11.73v5.3a5.17 5.17 0 0 1-5.17 5.17h-1.39a5.17 5.17 0 0 1-5.17-5.17v-5.3z"/><path id="_Path_4" class="cls-4" d="M34.71 34h-5.1c-3 0-4.95-2.74-4.95-5.74v-2.37h-.36a1.88 1.88 0 0 1-1.9-1.72 1.83 1.83 0 0 1 1.84-1.72h.42v-11.52h15.87v11.58h.37a1.72 1.72 0 0 1 0 3.44h-.37v2.41a6.2 6.2 0 0 1-2.16 4.25"/><path id="_Path_5" class="cls-5" d="M40.92 10.18l.27 1.89-3.57-.93-.62 2.72-6.39-1.06 1.19 3.7s-5-3.84-5.75-4.57c0 0-1.89-.4-1.84.9 0 0-1.15-1.14.3-2.59"/><path id="_Path_6" class="cls-6" d="M40.5 12.16l-2.88-1-.62 2.7-6.39-1.06 1.19 3.7s-5.22-3.77-6-4.5a1.23 1.23 0 0 0-1.1 1.39"/><path id="_Path_7" class="cls-6" d="M19.19 37.98v9.8h3.78l-.99 2.68"/><path id="_Path_8" class="cls-6" d="M42.87 38.04v9.5h-1.84l-.01 3.08"/><path id="_Path_9" class="cls-6" d="M22.44 36.99l6.63 15.94"/><path id="_Path_10" class="cls-6" d="M41.88 36.68l-6.47 16.25"/><path class="cls-7" d="M11 58l45.89-.27c.7 0 .84.45.55.74a38.7 38.7 0 0 1-3.93 2.84l-42.51.19M53 58l-45.87-.27c-.7 0-.84.45-.55.74a38.7 38.7 0 0 0 3.93 2.84l42.49.19"/><rect class="cls-4" x="9.57" y="38.5" width="45" height="23" rx="2.05" ry="2.05"/><rect id="_Rectangle_2" class="cls-5" x="11.49" y="40.5" width="41.16" height="19" rx=".35" ry=".35"/><circle class="cls-4" cx="32.07" cy="50" r="3"/><circle class="cls-2" cx="32.07" cy="50" r="1.96"/></g></svg>