<svg xmlns="http://www.w3.org/2000/svg" viewBox="0 0 64 64"><defs><style>.cls-1,.cls-5,.cls-8{fill:#fff;}.cls-1,.cls-4,.cls-7,.cls-8,.cls-9{stroke:#4c5c68;}.cls-1,.cls-4,.cls-7,.cls-9{stroke-linecap:round;stroke-linejoin:round;}.cls-2{fill:#cee8fa;}.cls-3{fill:#f9ca38;}.cls-4{fill:#4c5c68;stroke-width:0.23px;}.cls-6,.cls-9{fill:#286090;}.cls-7{fill:#febd2e;}.cls-8{stroke-miterlimit:10;}.cls-9{stroke-width:0.95px;}</style></defs><title>access-point-group</title><g id="Layer_1"><path id="_Rectangle_" class="cls-1" d="M16.33 48.34v-37.46h28.97v37.46z"/><rect id="_Rectangle_2" class="cls-2" x="15.6" y="17.62" width="30.43" height="23.79" rx=".35" ry=".35" transform="translate(1.3 60.34) rotate(-90)"/><path class="cls-3" d="M23.4 24.87h18.51v6.26h-18.51z"/><path class="cls-4" d="M24.79 27l-.67.88 1.06-.14v.48l-1.06-.13.68.84-.44.25-.42-1-.46 1-.4-.25.67-.86-1 .13v-.48l1 .13-.69-.85.43-.25.44 1 .43-1zM29.48 27l-.67.88 1.06-.14v.48l-1.06-.13.68.84-.44.25-.42-1-.46 1-.4-.25.67-.86-1 .13v-.48l1 .13-.69-.85.43-.25.44 1 .43-1zM34.18 27l-.67.88 1.06-.14v.48l-1.06-.13.68.84-.44.25-.42-1-.46 1-.4-.25.67-.86-1 .13v-.48l1 .13-.7-.85.43-.25.44 1 .43-1zM38.87 27l-.67.88 1.06-.14v.48l-1.06-.13.68.84-.44.25-.42-1-.46 1-.4-.25.67-.86-1 .13v-.48l1 .13-.69-.85.43-.25.44 1 .43-1z"/><path class="cls-5" d="M22.57 24h.24a1.87 1.87 0 0 1 1.87 1.87v1.13h-4v-1.1a1.87 1.87 0 0 1 1.89-1.9zM19.82 27.17h5.52v4.02h-5.52z"/><path class="cls-6" d="M25.63 26.82h-.63v-.82a2.41 2.41 0 0 0-4.81-.24 2.38 2.38 0 0 0 0 .24v.83h-.49a.28.28 0 0 0-.23 0 .15.15 0 0 0-.05.12v4.35a.4.4 0 0 0 .36.34h5.85a.16.16 0 0 0 .12-.05.28.28 0 0 0 0-.22v-4.37s.12-.18-.12-.18zm-4.83-.82a1.83 1.83 0 1 1 3.67 0v.83h-3.67zm-.19 0a2 2 0 0 1 0-.2v.2zm-.61 1.4h5.21v3.67h-5.21zM22.63 29a.29.29 0 0 0-.29.29v1a.29.29 0 0 0 .58 0v-1a.29.29 0 0 0-.29-.29z"/><path id="_Path_" class="cls-1" d="M27.19 46.26h5.18"/><path id="_Path_2" class="cls-1" d="M29.27 12.96h2.07"/><path id="_Path_3" class="cls-1" d="M11 50.29v-14.91l3.47-4.68h5.38s1.13 1.13-.43 2.86c0 0-3 .43-3.38 2.34s2.08 2.43 2.6 3.82 1.36 6.76-1.26 10.75z"/><path id="_Path_4" class="cls-7" d="M10.03 57.87v-7.49h14.26v7.49"/><path class="cls-5" d="M51.69 46.45l-.06.4.46.18.7.26a.68.68 0 0 1 .42.87q-.2.6-.44 1.19a.69.69 0 0 1-.86.36l-1.06-.4c-.08 0-.12 0-.16.06a6.45 6.45 0 0 1-1.25 1.42l-.33.27.44.95.09.2a.68.68 0 0 1-.32.87q-.59.28-1.18.54a.66.66 0 0 1-.81-.31c-.18-.35-.34-.71-.5-1.07v-.1l-.58.09h-1.84l-.33.91-.1.26a.68.68 0 0 1-.86.4c-.4-.14-.79-.28-1.19-.44a.69.69 0 0 1-.36-.89l.4-1.07c0-.07 0-.09-.06-.12a6.42 6.42 0 0 1-1.15-.95l-.5-.58-.06-.07-.93.43a1.72 1.72 0 0 1-.38.14.65.65 0 0 1-.71-.37q-.28-.57-.53-1.16a.66.66 0 0 1 .3-.83c.35-.18.71-.34 1.07-.5a.13.13 0 0 0 .09-.17c0-.24-.07-.48-.11-.72a.58.58 0 0 0 0-.1v-.69l.07-.77-.75-.28-.4-.15a.68.68 0 0 1-.42-.88q.2-.57.42-1.14a.72.72 0 0 1 .9-.39l1.07.4h.11a6.74 6.74 0 0 1 1.57-1.7l-.4-.88-.17-.32a.69.69 0 0 1 .34-.92l1.1-.5a.67.67 0 0 1 .88.31l.27.57.24.52a.08.08 0 0 0 .11.06l1.06-.15h1.1400000000000001c.09 0 .13 0 .16-.1.12-.35.25-.69.38-1a.7.7 0 0 1 .88-.42q.59.2 1.17.43a.69.69 0 0 1 .36.9l-.4 1.07c0 .07 0 .09.06.11a6.29 6.29 0 0 1 1.1.9l.55.62.06.07.63-.29a4.94 4.94 0 0 1 .64-.27.65.65 0 0 1 .75.36q.28.58.54 1.17a.67.67 0 0 1-.33.84l-1.08.5a.08.08 0 0 0-.06.1c0 .35.09.69.14 1v.97zm-6.4-5.15a4.59 4.59 0 1 0 4.59 4.58 4.6 4.6 0 0 0-4.59-4.58z"/><path class="cls-8" d="M51.69 46.45l-.06.4.46.18.7.26a.68.68 0 0 1 .42.87q-.2.6-.44 1.19a.69.69 0 0 1-.86.36l-1.06-.4c-.08 0-.12 0-.16.06a6.45 6.45 0 0 1-1.25 1.42l-.33.27.44.95.09.2a.68.68 0 0 1-.32.87q-.59.28-1.18.54a.66.66 0 0 1-.81-.31c-.18-.35-.34-.71-.5-1.07v-.1l-.58.09h-1.84l-.33.91-.1.26a.68.68 0 0 1-.86.4c-.4-.14-.79-.28-1.19-.44a.69.69 0 0 1-.36-.89l.4-1.07c0-.07 0-.09-.06-.12a6.42 6.42 0 0 1-1.15-.95l-.5-.58-.06-.07-.93.43a1.72 1.72 0 0 1-.38.14.65.65 0 0 1-.71-.37q-.28-.57-.53-1.16a.66.66 0 0 1 .3-.83c.35-.18.71-.34 1.07-.5a.13.13 0 0 0 .09-.17c0-.24-.07-.48-.11-.72a.58.58 0 0 0 0-.1v-.69l.07-.77-.75-.28-.4-.15a.68.68 0 0 1-.42-.88q.2-.57.42-1.14a.72.72 0 0 1 .9-.39l1.07.4h.11a6.74 6.74 0 0 1 1.57-1.7l-.4-.88-.17-.32a.69.69 0 0 1 .34-.92l1.1-.5a.67.67 0 0 1 .88.31l.27.57.24.52a.08.08 0 0 0 .11.06l1.06-.15h1.1400000000000001c.09 0 .13 0 .16-.1.12-.35.25-.69.38-1a.7.7 0 0 1 .88-.42q.59.2 1.17.43a.69.69 0 0 1 .36.9l-.4 1.07c0 .07 0 .09.06.11a6.29 6.29 0 0 1 1.1.9l.55.62.06.07.63-.29a4.94 4.94 0 0 1 .64-.27.65.65 0 0 1 .75.36q.28.58.54 1.17a.67.67 0 0 1-.33.84l-1.08.5a.08.08 0 0 0-.06.1c0 .35.09.69.14 1v.97z"/><path class="cls-9" d="M45.29 42.3a3.59 3.59 0 1 1-3.59 3.6 3.59 3.59 0 0 1 3.59-3.6z"/></g></svg>