<svg xmlns="http://www.w3.org/2000/svg" viewBox="0 0 64 64.3" enable-background="new 0 0 64 64.3"><path stroke="#4C5C68" stroke-linecap="round" stroke-linejoin="round" stroke-miterlimit="10" d="M27.4 57.5c-2.5-.8-4.5-2.2-5.4-4.9-.1-.3-.8-.5-1.2-.5h-15v-2.9c1.9-.2 3.5-.9 4.6-2.4.9-1.2 1.3-2.5 1.3-4v-12.3c0-7.8 4.4-13.9 11.8-16.4.1 0 .2-.1.3-.2.4-3.4 2-5.2 4.6-5.2 2.6 0 4.2 1.8 4.6 5.2 3.8 1.2 6.9 3.3 9.1 6.6 1.9 2.8 2.9 5.8 2.9 9.2.1 4.1 0 8.3 0 12.4s1.9 6.3 6 6.9v2.9h-14.9c-.7 0-1.1.2-1.4.9-.8 2.5-2.8 3.7-5.2 4.5.3.2-1.3.5-2.1.2zm2.7-44.1c-.2-1.1-.7-1.6-1.7-1.5-.8.1-1.3.6-1.3 1.5h3z" fill="none"/><path fill="#CEE8FA" d="M44.7 49.1c-2.7-2.7-2.3-5.9-2.3-9.1v-9.8c-.1-6.5-4.5-12.1-10.7-13.5-8.6-1.9-16.7 4.5-16.8 13.3-.1 4.4.1 8.7-.1 13.1-.1 1.6-.8 3.1-1.2 4.6-.1.4-.5.8-.9 1.3 10.7.1 21.2.1 32 .1z"/><path fill="#FEBD2E" stroke="#4C5C68" stroke-linecap="round" stroke-linejoin="round" stroke-miterlimit="10" d="M25.2 52.2c.8 1.6 2.1 2.4 3.7 2.3 1.4-.1 2.5-.8 3.2-2.3h-6.9z"/><path fill="#286090" d="M41.3 48.8v-.2c0-.1 0-.1-.1-.1-.2-.1-.3-.1-.4-.2l-.1-.2-.9-.9-.3-.3c-.1-.3-.1-.6 0-.9.2-.5.4-1 .5-1.5.3-.9 1.4-1.4 2.3-1 .2.1.4.2.7.2h.1c.3-.4.7-.8 1.1-1.2.1-.1.1-.1 0-.2l-.3-.7c-.3-.7-.1-1.5.4-2l.5-.3 1.2-.6c.7-.3 1.4-.2 2 .3l.5.6c.1.2.2.4.2.5 0 .1.1.1.2.1h.6l.2.2c.1.1.3.2.4.4l.3.3h-.7c-.5 0-.9.1-1.4.2-.1 0-.1 0-.1-.1l-.3-.6-.3-.7c-.2-.4-.7-.6-1.1-.4l-1.4.6c-.4.2-.6.7-.4 1.1l.1.3.5 1.1c-.8.6-1.4 1.3-1.9 2.1 0 .1-.1.1-.1 0l-1.3-.5c-.4-.2-1 .1-1.1.5-.2.5-.4.9-.5 1.4-.2.5.1.9.5 1.1l.5.2.9.3-.1.9-.4.4c-.2.1-.4 0-.5-.2zm.4.5l.2.1.3.3v.1l.1.9c0 .1 0 .2-.1.2l-1.3.6c-.4.2-.5.7-.4 1 .2.5.4 1 .7 1.4.2.3.5.5.9.5.2 0 .3-.1.5-.2.4-.2.8-.3 1.1-.5l.1.1.6.7c.4.4.9.8 1.4 1.2.1 0 .1.1.1.1l-.5 1.3c-.2.4 0 .9.4 1.1.5.2 1 .4 1.5.5.4.2.9-.1 1.1-.5l.1-.3.4-1.1h.6l.3.3.4.4c-.1.1-.2.2-.3.2h-.3c-.1 0-.1 0-.1.1-.1.2-.2.4-.2.6-.2.6-.6.9-1.2 1.1-.4.1-.8.1-1.2-.1l-1.3-.5c-.9-.3-1.4-1.3-1.1-2.2l.3-.7v-.1c-.4-.3-.8-.7-1.2-1.1 0-.1-.1-.1-.2 0l-.7.3c-.6.3-1.5.1-1.9-.4l-.4-.6c-.2-.4-.4-.9-.6-1.4-.4-.9 0-1.9.9-2.3l.6-.3c.1 0 .1-.1.1-.1v-.6c0 .2.2 0 .3-.1zm8.7-8.1l-.3-.3.6-.6s.1 0 .1-.1l.4-.4 1.4-1.4c.2 0 .4 0 .6.1.5.2 1 .4 1.5.5.9.3 1.4 1.3 1.1 2.3l-.3.7v.1c.4.3.8.7 1.2 1.1.1.1.1.1.2 0l.7-.3c.6-.3 1.5-.1 2 .4l.3.5c.2.4.4.9.6 1.4.4.9 0 1.9-.9 2.3l-.7.3c0 .3 0 .5.1.8v.3l-.4.4-.1-.1-.4-.4v-.1l-.2-1.3c0-.1 0-.1.1-.1l1.3-.6c.4-.2.6-.7.4-1-.2-.5-.4-1-.7-1.4-.2-.3-.6-.5-.9-.4l-.8.3c-.3.1-.5.2-.8.4l-.1-.1c-.2-.3-.4-.5-.7-.8-.4-.4-.9-.8-1.4-1.1l-.1-.1.5-1.3c.2-.4 0-.9-.4-1.1-.5-.2-1-.4-1.4-.5-.4-.2-.9.1-1.1.5l-.5 1.3c0 .1-.1.1-.2.1h-.3c-.1-.3-.3-.3-.4-.3zm8.1 8c.1.1.2.2.4.3 0 .1.1.1.2.2l.2.2.9.9.7.7c.1.2 0 .4-.1.6l-.5 1.4c-.3.8-.9 1.2-1.8 1.2-.3 0-.6-.1-.9-.3l-.3-.1-.3.3-.9.9c-.1.1-.1.1 0 .2l.3.7c.3.6.1 1.5-.4 2l-.5.3c-.4.2-.8.4-1.3.6-.7.3-1.4.2-2-.3-.3-.2-.4-.6-.6-.9-.1-.1-.1-.2-.2-.4 0-.1-.1-.1-.1-.1l-.8.1h-.1l-.2-.2.7-.7c.1 0 .2 0 .3-.1l.7-.1s0 .1.1.1l.6 1.3c.2.4.6.5 1 .4.5-.2 1-.4 1.5-.7.4-.2.6-.7.4-1.1l-.1-.3c-.2-.4-.4-.8-.5-1.2l.4-.3c.6-.5 1.1-1.1 1.5-1.8.1-.1.1-.1.2-.1l1.3.5c.4.2.9 0 1.1-.4.2-.5.4-1 .5-1.5.2-.5-.1-.9-.5-1.1l-.9-.3-.6-.2.1-.5c.1.2.3 0 .5-.2zm-5.9-10.8l-1.4 1.4-.4.4-.1.1c.2-.6.3-1.2.9-1.5.2-.3.5-.4 1-.4zm8.2 13.1l-.7-.7-.9-.9-.2-.2c.6.2 1.1.3 1.5.9.2.3.3.5.3.9zm-21.4-4.5l.3.3.9.9s.1.1.1.2c-.1 0-.2 0-.2-.1-.6-.3-.9-.7-1.1-1.3zm11.2-6.7l-.6.6c-.1-.1-.3-.2-.4-.4l-.2-.2h1.2zm-8.9 9l-.4.4v-.8c.1.1.3.2.4.4zm17.2.3l-.3-.3.4-.4v.3c-.1.1-.1.2-.1.4zm-8.8 8.1l.2.2h-.5c.2-.1.3-.1.3-.2z"/><path fill="#fff" d="M58 49.8c0 .2 0 .3-.1.5l.6.2.9.3c.4.2.7.6.5 1.1l-.5 1.5c-.2.4-.7.6-1.1.4l-1.3-.5c-.1 0-.1 0-.2.1-.4.7-.9 1.2-1.5 1.8l-.4.3c.2.4.4.8.5 1.2l.1.3c.2.4 0 .9-.4 1.1l-1.5.7c-.4.2-.8 0-1-.4l-.6-1.3s0-.1-.1-.1l-.7.1c-.1 0-.2 0-.3.1h-1.9c-.1.4-.3.8-.4 1.1l-.1.3c-.2.4-.6.6-1.1.5-.5-.2-1-.4-1.5-.5-.4-.2-.6-.7-.4-1.1l.5-1.3c0-.1 0-.1-.1-.1-.5-.3-1-.7-1.4-1.2l-.6-.7s0-.1-.1-.1c-.4.2-.8.4-1.1.5l-.5.2c-.4.1-.7-.1-.9-.5-.2-.5-.4-.9-.7-1.4-.2-.4 0-.8.4-1l1.3-.6c.1 0 .1-.1.1-.2-.1-.3-.1-.6-.1-.9v-1l.1-.9-.9-.3-.5-.2c-.5-.2-.7-.6-.5-1.1l.5-1.4c.2-.4.7-.6 1.1-.5l1.3.5h.1c.5-.8 1.2-1.5 1.9-2.1l-.5-1.1-.1-.3c-.2-.4 0-.9.4-1.1.4-.2.9-.4 1.4-.6.4-.2.9 0 1.1.4l.3.7.3.6c0 .1.1.1.1.1l1.4-.2h.7c.1 0 .3 0 .4.1h.3c.1 0 .2 0 .2-.1l.5-1.3c.2-.4.6-.7 1.1-.5.5.2 1 .3 1.4.5.4.2.6.7.4 1.1l-.5 1.3c0 .1 0 .1.1.1.5.3 1 .7 1.4 1.1.2.2.4.5.7.8 0 0 0 .1.1.1.3-.1.5-.2.8-.4.3-.1.5-.3.8-.3.4-.1.8.1.9.4.2.5.4 1 .7 1.4.2.4 0 .9-.4 1l-1.3.6c-.1 0-.1.1-.1.1l.2 1.3v.8c-.2-.2-.2-.1-.2 0zm-7.9-6.4c-3.1 0-5.6 2.5-5.7 5.7 0 3.1 2.6 5.7 5.6 5.7 3.2 0 5.7-2.5 5.7-5.7 0-3.1-2.5-5.7-5.6-5.7z"/><path fill="#286090" d="M42.2 48.8v.9l-.3-.3-.1-.1c.1-.2.2-.3.4-.5zm7.3 8.2h1.3l-.7.7-.4-.4c0-.1-.1-.2-.2-.3zm8.5-7.2v-1c.1.1.3.2.4.4l.1.1c-.2.1-.4.3-.5.5z"/><path fill="#4C5C68" d="M50.1 43.4c3.1 0 5.7 2.6 5.7 5.6 0 3.2-2.5 5.7-5.7 5.7-3.1 0-5.7-2.5-5.6-5.7-.1-3 2.5-5.6 5.6-5.6zm0 1c-2.6 0-4.7 2.1-4.7 4.7s2.1 4.7 4.7 4.7 4.7-2.1 4.7-4.7-2.1-4.7-4.7-4.7z"/><path fill="#286090" d="M50.1 44.4c2.6 0 4.7 2.1 4.7 4.7s-2.1 4.7-4.7 4.7-4.7-2.1-4.7-4.7c-.1-2.6 2.1-4.7 4.7-4.7z"/></svg>