<svg xmlns="http://www.w3.org/2000/svg" viewBox="0 0 64 64" enable-background="new 0 0 64 64"><path fill="#CEE8FA" d="M42 54.5h3.8c.5 0 1-.4 1-1v-44c0-1.4-1.1-2.5-2.5-2.5h-.6c-1.4 0-2.5 1.1-2.5 2.5v44.2c0 .5.4.8.8.8z"/><path stroke="#4C5C68" stroke-linecap="round" stroke-linejoin="round" stroke-miterlimit="10" d="M41.2 21.6v20.9" fill="none"/><path stroke="#4C5C68" stroke-width="1.025" stroke-linecap="round" stroke-linejoin="round" stroke-miterlimit="10" d="M41.2 14.8v-5.1c0-1.5 1.2-2.7 2.7-2.7 1.5 0 2.7 1.2 2.7 2.7v30.5" fill="none"/><path stroke="#4C5C68" stroke-linecap="round" stroke-linejoin="round" stroke-miterlimit="10" d="M43.6 7h-28.7c-2.5 0-4.5 2-4.5 4.5v42.8l1.2-1.1 1.1 1.1 1-1.1.9 1.1 1.2-1.1 1.1 1.1 1.1-1.1 1.1 1.1 1-1.1 1.2 1.1.9-1.1 1.1 1.1.9-1.1.9 1.1.9-1.1 1 1.1 1.1-1.1 1.1 1.1 1.1-1.1 1 1.1 1.1-1.1 1.1 1.1 1.1-1.1 1 1.1 1-1.1 1.1 1.1 1-1.1 1 1.1M46.7 52.7c0 1.2 1 2.2 2.2 2.2M24.8 14.1h-10.6M36.6 33h-22.1M36.6 36.8h-22.1M36.6 40.7h-22.1M36.6 44.5h-22.1M36.6 48.3h-11.6M36.6 18h-8M26.7 18h-12.5" fill="none"/><path fill="#F9CA38" stroke="#4C5C68" stroke-linecap="round" stroke-linejoin="round" stroke-miterlimit="10" d="M37.085 29.057h-22.8v-7.2h22.8z"/><g fill="#fff" stroke="#4C5C68" stroke-linecap="round" stroke-linejoin="round" stroke-miterlimit="10"><ellipse transform="matrix(.173 -.985 .985 .173 -10.017 87.095)" cx="46.9" cy="49.5" rx="6.9" ry="6.9"/><path d="M50.3 55.7l3.3 4.7"/></g></svg>