<svg xmlns="http://www.w3.org/2000/svg" viewBox="0 0 64 64"><defs><style>.cls-1{fill:#fff;}.cls-2{fill:#4c5c68;}.cls-3{fill:#cee8fa;}.cls-4{fill:none;}.cls-4,.cls-5{stroke:#4c5c68;stroke-linecap:round;stroke-linejoin:round;}.cls-5{fill:#f9ca38;}</style></defs><title>entitlement</title><g id="Layer_1"><path class="cls-1" d="M46.87 43.59l5-2.52 4.91 9.68-2.83-.43h-.12a.77.77 0 0 0-.69.41l-1.33 2.53z"/><path class="cls-2" d="M52.35 41.42m-.75.38l4.19 8.26-1.79-.27h-.19a1.31 1.31 0 0 0-1.17.7l-.84 1.61-4.2-8.27 4-2m.4-1.4h-.11l-5.51 2.79a.24.24 0 0 0-.1.32l5.28 10.46a.24.24 0 0 0 .44 0l1.58-3a.24.24 0 0 1 .21-.13l3.42.51a.24.24 0 0 0 .21-.34l-5.24-10.48a.24.24 0 0 0-.21-.13z"/><path class="cls-1" d="M41.92 50.73a.77.77 0 0 0-.69-.42h-.12l-2.83.42 4.9-9.68 5 2.52-4.9 9.68z"/><path class="cls-2" d="M43.81 41m-.38.76l4 2-4.19 8.26-.84-1.61a1.31 1.31 0 0 0-1.17-.7h-.23l-1.79.27 4.19-8.26m-.37-1.37a.24.24 0 0 0-.21.13l-5.29 10.52a.24.24 0 0 0 .21.34l3.42-.51a.24.24 0 0 1 .21.13l1.63 3.04a.24.24 0 0 0 .42 0l5.31-10.48a.24.24 0 0 0-.1-.32l-5.51-2.79h-.11z"/><path id="_Path_" class="cls-3" d="M43.86 33.78v-24.57a.86.86 0 0 1 .86-.86h3.58a1.08 1.08 0 0 1 1.08 1.08v24.35"/><path id="_Path_2" class="cls-4" d="M43.86 33.78v-25.43"/><path id="_Path_3" class="cls-4" d="M44.72 55.35h-26.84a4.45 4.45 0 0 1-4.45-4.45v-38.57a4.13 4.13 0 0 1 4.13-4.13h32.88"/><path id="_Path_4" class="cls-4" d="M49.3 33.78v-23.57a2.21 2.21 0 0 1 2.21-2.21h.49a2.35 2.35 0 0 1 2.35 2.35v21h-2.42"/><path id="_Path_5" class="cls-4" d="M17.69 14.48h10.43"/><path id="_Path_6" class="cls-4" d="M17.69 33.08h21.8"/><path id="_Path_7" class="cls-4" d="M17.69 36.87h22.3"/><path id="_Path_8" class="cls-4" d="M17.69 40.66h21.42"/><path id="_Path_9" class="cls-4" d="M17.69 44.45h19.24"/><path id="_Path_10" class="cls-4" d="M17.69 48.25h16.37"/><path id="_Path_11" class="cls-4" d="M17.69 18.27h7.82"/><path id="_Path_12" class="cls-4" d="M27.41 18.27h12.32"/><path id="_Rectangle_" class="cls-5" d="M17.22 22.06h22.51v7.11h-22.51z"/><g id="_Group_"><circle class="cls-1" cx="46.79" cy="41.29" r="5.95"/><path class="cls-2" d="M46.79 35.88a5.41 5.41 0 1 1-5.41 5.41 5.42 5.42 0 0 1 5.41-5.41m0-1.08a6.49 6.49 0 1 0 6.49 6.49 6.49 6.49 0 0 0-6.49-6.49z"/></g><circle class="cls-2" cx="46.79" cy="41.29" r="3.04" id="_Group_2"/></g></svg>