<svg xmlns="http://www.w3.org/2000/svg" viewBox="0 0 64 64"><defs><style>.cls-1{fill:#fff;stroke:#4c5c68;}.cls-1,.cls-4,.cls-5{stroke-linecap:round;stroke-linejoin:round;}.cls-2{fill:#286090;}.cls-3{fill:#febd2e;}.cls-4,.cls-5{fill:none;stroke:#286090;}.cls-4{stroke-dasharray:0 2;}</style></defs><title>foreign-exchange</title><g id="Layer_1"><g id="_Group_"><ellipse id="_Path_" class="cls-1" cx="24.64" cy="23.95" rx="15.9" ry="15.75"/><ellipse id="_Path_2" class="cls-2" cx="24.64" cy="23.95" rx="12.49" ry="12.37"/><path class="cls-3" d="M23.6 24.93v1a5.25 5.25 0 0 1-.2 1.43 4.24 4.24 0 0 1-.58 1.21h6.55v1.76h-8.87v-1.73h.09c.28-.08.49-.39.63-.92a6 6 0 0 0 .22-1.68l-.05-1.1h-1.46v-1.73h1.4l-.08-2.17a4 4 0 0 1 1-2.94 3.78 3.78 0 0 1 2.86-1.06 4.07 4.07 0 0 1 2.89 1 3.33 3.33 0 0 1 1 2.59v.05h-2.14a1.84 1.84 0 0 0-.49-1.4 1.81 1.81 0 0 0-1.26-.46 1.42 1.42 0 0 0-1.22.6 2.65 2.65 0 0 0-.45 1.62l.08 2.15h3.48v1.76z"/></g><g id="_Group_2"><ellipse id="_Path_3" class="cls-1" cx="39.38" cy="39.7" rx="15.9" ry="15.75"/><ellipse id="_Path_4" class="cls-2" cx="39.38" cy="39.7" rx="12.49" ry="12.37"/><path id="_Compound_Path_" class="cls-3" d="M39.26 32.22a.75.75 0 0 1 .74.78v.38a6.41 6.41 0 0 1 2.71 1 .94.94 0 0 1 .53.84 1 1 0 0 1-1 1 1.08 1.08 0 0 1-.53-.16 6.3 6.3 0 0 0-1.8-.77v3.36c2.66.66 3.8 1.73 3.8 3.6s-1.48 3.12-3.71 3.33v1.05a.74.74 0 0 1-.75.75.76.76 0 0 1-.77-.75v-1.09a7.54 7.54 0 0 1-3.59-1.36 1 1 0 0 1-.48-.84 1 1 0 0 1 1-1 .88.88 0 0 1 .57.2 6.36 6.36 0 0 0 2.6 1.17v-3.42c-2.56-.66-3.75-1.63-3.75-3.6s1.49-3.17 3.68-3.35v-.34a.77.77 0 0 1 .75-.78zm-.7 6v-3.1c-1.12.11-1.68.7-1.68 1.47s.33 1.16 1.68 1.6zm1.38 2.43v3.19c1.12-.12 1.73-.68 1.73-1.52s-.38-1.32-1.73-1.7z"/></g><path id="_Path_5" class="cls-4" d="M42.26 14.23h9.76v9.76"/><path id="_Path_6" class="cls-5" d="M48.76 21.79l3.27 3.27 3.24-3.25"/><path id="_Path_7" class="cls-4" d="M23.77 50.18h-11.81v-9.76"/><path id="_Path_8" class="cls-5" d="M15.21 43.14l-3.26-3.26-3.25 3.24"/></g></svg>