<svg xmlns="http://www.w3.org/2000/svg" viewBox="0 0 64 64" enable-background="new 0 0 64 64"><path fill="#fff" stroke="#4C5C68" stroke-linecap="round" stroke-linejoin="round" stroke-miterlimit="10" d="M33.105 31.363v-28.1h16v28.1z"/><path stroke="#4C5C68" stroke-linecap="round" stroke-linejoin="round" stroke-miterlimit="10" d="M50.4 19.6l5.2 5.6v8.6l-1.5 4.2v8h-10.5v-3.2s-3.1-4.4-3-8" fill="none"/><path fill="#fff" stroke="#FEBD2E" stroke-linecap="round" stroke-linejoin="round" stroke-miterlimit="10" d="M38 24.3v2.2l1.7 1.3h2.7l1.6-1.2v-2.3"/><path fill="#fff" stroke="#4C5C68" stroke-linecap="round" stroke-linejoin="round" stroke-miterlimit="10" d="M50.8 29.1l-5.6-5.6s-3.4-1.6-3.4 3.4l5 5s-.4 4.7 3.5 8.5"/><path fill="#FEBD2E" stroke="#4C5C68" stroke-linecap="round" stroke-linejoin="round" stroke-miterlimit="10" d="M41.4 55.9v-9.9h15.2v9.9"/><path fill="#fff" stroke="#FEBD2E" stroke-linecap="round" stroke-linejoin="round" stroke-miterlimit="10" d="M44 9.7v-2.2l-1.6-1.3h-2.7l-1.7 1.2v2.3"/><ellipse fill="#fff" stroke="#4C5C68" stroke-linecap="round" stroke-linejoin="round" stroke-miterlimit="10" cx="41.3" cy="17" rx="4.8" ry="4.8"/><ellipse fill="#286090" cx="41.3" cy="17" rx="3.8" ry="3.8"/><path fill="#CEE8FA" d="M39 17c0-.1.1-.2.2-.2h.1c0-.3.1-.6.3-.8 0-.1.1-.2.3-.2.2 0 .3.1.3.3v.2c-.1.2-.2.4-.2.5h1c.2-.8.5-1.2 1.1-1.2.6 0 1 .5 1 1.1h.3c.1 0 .2.1.2.2s-.1.2-.2.2h-.3c0 .4-.2.8-.4 1.1-.1.1-.1.1-.3.1-.2 0-.3-.1-.3-.3 0-.1 0-.1.1-.2.2-.3.3-.5.4-.8h-1c-.2.8-.5 1.1-1.1 1.1-.6 0-1-.5-1-1.1h-.1c-.3.2-.4.1-.4 0zm1.8.2h-.9c0 .3.2.5.4.5.3 0 .4-.1.5-.5zm.8-.4h1c0-.3-.2-.5-.5-.5s-.4.1-.5.5zM7.6 48.3h27.3v7.7h-27.3z"/><path fill="#fff" stroke="#4C5C68" stroke-linecap="round" stroke-linejoin="round" stroke-miterlimit="10" d="M34.9 39.1v9.2h-27.4v-11.7h27.4"/><g stroke="#4C5C68" stroke-linecap="round" stroke-linejoin="round" stroke-miterlimit="10" fill="none"><path d="M7.5 50.3h27.4M7.5 52.4h27.4M7.5 54.3h27.4M7.5 56.4h27.4"/></g><path fill="#fff" stroke="#FEBD2E" stroke-linecap="round" stroke-linejoin="round" stroke-miterlimit="10" d="M30 38.5h1.2l1.3 2.1v2.7l-1.2 1.2h-2.3M13 38.5h-1.7l-1.8 2.1v2.7l1.7 1.2h1.8"/><ellipse fill="#fff" stroke="#4C5C68" stroke-linecap="round" stroke-linejoin="round" stroke-miterlimit="10" cx="21.5" cy="42.5" rx="4" ry="4"/><ellipse fill="#286090" cx="21.5" cy="42.5" rx="3.1" ry="3.1"/><path fill="#CEE8FA" d="M21.5 40.6c.1 0 .2.1.2.2v.1c.3 0 .5.1.7.2.1 0 .1.1.1.2s-.1.2-.2.2h-.1c-.2-.1-.3-.2-.5-.2v.8c.7.2 1 .4 1 .9s-.4.8-.9.9v.3c0 .1-.1.2-.2.2s-.2-.1-.2-.2v-.3c-.3 0-.6-.2-.9-.3-.1 0-.1-.1-.1-.2s.1-.2.2-.2h.1c.2.1.4.3.7.3v-.9c-.6-.2-.9-.4-.9-.9s.4-.8.9-.8v-.1c-.1-.1 0-.2.1-.2zm-.2 1.5v-.8c-.3 0-.4.2-.4.4s0 .3.4.4zm.3.6v.8c.3 0 .4-.2.4-.4.1-.2 0-.3-.4-.4z"/><path fill="#fff" stroke="#4C5C68" stroke-linecap="round" stroke-linejoin="round" stroke-miterlimit="10" d="M12 41.5h3M28 41.5h3"/></svg>