<svg xmlns="http://www.w3.org/2000/svg" viewBox="0 0 64 64" enable-background="new 0 0 64 64"><path fill="#fff" stroke="#4C5C68" stroke-width=".953" stroke-linecap="round" stroke-linejoin="round" stroke-miterlimit="10" d="M29.5 18.6h15.1v35.9h-35.8v-35.9h4.5"/><path fill="#286090" stroke="#4C5C68" stroke-width=".953" stroke-linecap="round" stroke-linejoin="round" stroke-miterlimit="10" d="M8.8 51.4h11.4v3.2h-11.4zM33.3 18.8h11v2.6h-11z"/><path fill="#fff" stroke="#4C5C68" stroke-width=".953" stroke-linecap="round" stroke-linejoin="round" stroke-miterlimit="10" d="M13.8 8.7h15.8v22.7h-15.8z"/><path stroke="#4C5C68" stroke-width=".953" stroke-linecap="round" stroke-linejoin="round" stroke-miterlimit="10" d="M16.9 31.1v-21.9" fill="none"/><path fill="#fff" stroke="#4C5C68" stroke-width=".953" stroke-linecap="round" stroke-linejoin="round" stroke-miterlimit="10" d="M26.9 27.6v-2.7M26.9 23.2v-1.8M26.9 18.8v-1.8"/><circle fill="#F9CA38" cx="22.4" cy="13.4" r="2.2"/><circle stroke="#F9CA38" stroke-width="1.186" stroke-miterlimit="10" cx="22.4" cy="16.7" r="2.2" fill="none"/><path stroke="#4C5C68" stroke-width=".953" stroke-linecap="round" stroke-linejoin="round" stroke-miterlimit="10" d="M30.8 19.9l5.1 5.6v8.4l-1.4 4.1v7.9h-10.4v-3.2s-3.1-4.3-2.9-7.9" fill="none"/><path fill="#fff" stroke="#4C5C68" stroke-width=".953" stroke-linecap="round" stroke-linejoin="round" stroke-miterlimit="10" d="M31.1 29.3l-5.6-5.6s-3.3-1.6-3.3 3.3l5 5s-.4 4.7 3.5 8.4"/><path fill="#CEE8FA" stroke="#4C5C68" stroke-width=".953" stroke-linecap="round" stroke-linejoin="round" stroke-miterlimit="10" d="M22 55.6v-9.8h14.9v9.8"/><path fill="#fff" d="M54.7 48.2c0 .1 0 .3-.1.4l.5.2.7.3c.4.1.5.5.4.9l-.4 1.2c-.1.3-.5.5-.9.4l-1.1-.4c-.1 0-.1 0-.2.1-.3.5-.8 1-1.2 1.4l-.3.3.4.9.1.2c.1.3 0 .7-.3.9-.4.2-.8.4-1.2.5-.3.1-.7 0-.8-.3l-.5-1.1v-.1l-.6.1h-1.9l-.3.9-.1.3c-.1.3-.5.5-.9.4l-1.2-.4c-.3-.1-.5-.5-.4-.9l.4-1.1c0-.1 0-.1-.1-.1-.4-.3-.8-.6-1.1-.9l-.5-.6-.1-.1-.9.4c-.1.1-.3.1-.4.1-.3.1-.6-.1-.7-.4-.2-.4-.4-.8-.5-1.2-.1-.3 0-.7.3-.8l1.1-.5c.1 0 .1-.1.1-.2l-.1-.7v-.8c0-.3 0-.5.1-.8-.3-.1-.5-.2-.7-.3l-.4-.1c-.4-.1-.5-.5-.4-.9.1-.4.3-.8.4-1.1.1-.3.6-.5.9-.4l1.1.4h.1c.4-.7.9-1.2 1.6-1.7l-.4-.9c0-.1-.1-.2-.1-.2-.2-.4 0-.8.3-.9l1.1-.5c.3-.1.7 0 .9.3l.3.6c.1.2.2.3.2.5 0 .1.1.1.1.1l1.1-.1h1.1c.1 0 .1 0 .2-.1l.4-1c.1-.4.5-.5.9-.4l1.2.4c.3.1.5.5.4.9l-.4 1.1c0 .1 0 .1.1.1.4.3.8.6 1.1.9.2.2.4.4.5.6l.1.1.6-.3.6-.3c.3-.1.6.1.7.4.2.4.4.8.5 1.2.1.3 0 .7-.3.8l-1.1.5s-.1 0-.1.1l.1 1v.7zm-6.4-5.2c-2.5 0-4.6 2.1-4.6 4.6 0 2.5 2.1 4.6 4.6 4.6 2.6 0 4.6-2 4.6-4.6 0-2.5-2.1-4.6-4.6-4.6z"/><path fill="#fff" stroke="#4C5C68" stroke-miterlimit="10" d="M54.7 48.2c0 .1 0 .3-.1.4l.5.2.7.3c.4.1.5.5.4.9l-.4 1.2c-.1.3-.5.5-.9.4l-1.1-.4c-.1 0-.1 0-.2.1-.3.5-.8 1-1.2 1.4l-.3.3.4.9.1.2c.1.3 0 .7-.3.9-.4.2-.8.4-1.2.5-.3.1-.7 0-.8-.3l-.5-1.1v-.1l-.6.1h-1.9l-.3.9-.1.3c-.1.3-.5.5-.9.4l-1.2-.4c-.3-.1-.5-.5-.4-.9l.4-1.1c0-.1 0-.1-.1-.1-.4-.3-.8-.6-1.1-.9l-.5-.6-.1-.1-.9.4c-.1.1-.3.1-.4.1-.3.1-.6-.1-.7-.4-.2-.4-.4-.8-.5-1.2-.1-.3 0-.7.3-.8l1.1-.5c.1 0 .1-.1.1-.2l-.1-.7v-.8c0-.3 0-.5.1-.8-.3-.1-.5-.2-.7-.3l-.4-.1c-.4-.1-.5-.5-.4-.9.1-.4.3-.8.4-1.1.1-.3.6-.5.9-.4l1.1.4h.1c.4-.7.9-1.2 1.6-1.7l-.4-.9c0-.1-.1-.2-.1-.2-.2-.4 0-.8.3-.9l1.1-.5c.3-.1.7 0 .9.3l.3.6c.1.2.2.3.2.5 0 .1.1.1.1.1l1.1-.1h1.1c.1 0 .1 0 .2-.1l.4-1c.1-.4.5-.5.9-.4l1.2.4c.3.1.5.5.4.9l-.4 1.1c0 .1 0 .1.1.1.4.3.8.6 1.1.9.2.2.4.4.5.6l.1.1.6-.3.6-.3c.3-.1.6.1.7.4.2.4.4.8.5 1.2.1.3 0 .7-.3.8l-1.1.5s-.1 0-.1.1l.1 1v.7z"/><path fill="#286090" stroke="#4C5C68" stroke-width=".953" stroke-linecap="round" stroke-linejoin="round" stroke-miterlimit="10" d="M48.3 44c2 0 3.6 1.6 3.6 3.6s-1.6 3.6-3.6 3.6-3.6-1.6-3.6-3.6 1.6-3.6 3.6-3.6z"/></svg>