<svg xmlns="http://www.w3.org/2000/svg" viewBox="0 0 64 64" enable-background="new 0 0 64 64"><path fill="#CEE8FA" d="M54 53.4h-44.7c-.6 0-1-.5-1-1v-31.6c0-.5.4-1 1-1h44.7c.5 0 1 .5 1 1v31.6c0 .5-.4 1-1 1z"/><g stroke="#4C5C68" stroke-miterlimit="10" fill="none"><path d="M49.2 18.8h4.7c1.2 0 2.1 1 2.1 2.1v31.2c0 1.2-1 2.1-2.1 2.1h-44.4c-1.2 0-2.1-1-2.1-2.1v-31.1c0-1.2 1-2.1 2.1-2.1h4.3M9.3 52.2c0 .1.1.2.2.2h44.4c.1 0 .2-.1.2-.2"/></g><path fill="#fff" d="M10.7 21.4h41.9v28.3h-41.9zM45.2 36.1h-26.7v-24c0-1 .8-1.9 1.9-1.9h23c1 0 1.9.8 1.9 1.9v24z"/><path fill="#F9CA38" d="M33.7 10.3h4.2v1.9h-4.2z"/><path fill="#fff" d="M14 23.7h-.1v20.5l17.8-10.2zM49.4 23.9l-17.7 10.1 17.6 10.4h.1zM13.9 44.2v.2h35.4l-17.6-10.4-10.1 5.8z"/><path stroke="#4C5C68" stroke-miterlimit="10" d="M49 45.3l-36-20.7M50.3 24.6l-36.4 20.8" fill="none"/><path fill="#F9CA38" d="M22.8 16.6h18.5v1.9h-18.5zM22.8 21.1h18.5v1.9h-18.5zM22.8 25.6h18.5v1.9h-18.5z"/><path stroke="#4C5C68" stroke-linecap="round" stroke-linejoin="round" stroke-miterlimit="10" d="M45.9 21.4c2.6 0 4.7 2.1 4.7 4.7v19.3h-37.7v-19.3c0-2.6 2.1-4.7 4.7-4.7m.4 6.1v-14.5c0-1.6 1.3-2.8 2.8-2.8h22c1.6 0 2.8 1.3 2.8 2.8v14.5" fill="none"/><path fill="#fff" stroke="#4C5C68" stroke-miterlimit="10" d="M26.2 49.5h-19.9v2.8c0 1.7 1.3 3 3 3h45.5c1.7 0 3-1.3 3-3v-2.8h-23.5l-1.5 2.9h-4.8l-1.8-2.9z"/></svg>