<svg xmlns="http://www.w3.org/2000/svg" viewBox="0 0 64 64" enable-background="new 0 0 64 64"><path fill="#fff" stroke="#4C5C68" stroke-linecap="round" stroke-linejoin="round" stroke-miterlimit="10" d="M36.9 50.8h-31.4v-10.5l9.2-3.5 11-5.3 11.9 6"/><path fill="#F9CA38" d="M16.6 36.3l5.7 14.1h5.7l6.2-14.2-8.8-4.1-8.8 4.2z"/><path fill="#CEE8FA" stroke="#4C5C68" stroke-linecap="round" stroke-linejoin="round" stroke-miterlimit="10" d="M26.9 7.8c-4.8-.2-6.5 1.1-8.2 3.1-1.5 1.9-1.7 4.7-1.7 4.7l.1 8.9h17.4l.2-10.2c0 .1-.9-6.3-7.8-6.5z"/><path fill="#fff" stroke="#4C5C68" stroke-linecap="round" stroke-linejoin="round" stroke-miterlimit="10" d="M25.7 41.2c-3 0-5.3-2.3-5.3-5.2v-4.1h10.4v4.1c.1 2.9-2.2 5.2-5.1 5.2zM27.6 33.8h-4.5c-2.7 0-4.4-2.4-4.4-5.1v-2.1h-.3c-.8 0-1.7-.7-1.7-1.5s.8-1.5 1.6-1.5h.4v-10.4h14.1v10.3h.3c.8 0 1.5.7 1.5 1.5s-.7 1.5-1.5 1.5h-.3v2.1c0 1.5-.9 2.8-1.9 3.8"/><path fill="#CEE8FA" d="M33.1 12.5l.2 1.7-3.2-.8-.6 2.4-5.5-.9 1.1 3.3s-4.4-3.4-5.1-4.1c0 0-1.7-.4-1.6.8 0 0-1-1 .3-2.3"/><path stroke="#4C5C68" stroke-linecap="round" stroke-linejoin="round" stroke-miterlimit="10" d="M32.8 14.3l-2.6-.9-.6 2.4-5.6-.9 1.1 3.3s-4.6-3.4-5.4-4c0 0-1 .1-1 1.2M13.8 37.3v8.7h3.4l-.9 2.4M34.5 37v8.5h-1.3l-.2 2.7M16.7 36.4l5.9 14.2M34 36.1l-5.8 14.5" fill="none"/><path fill="#fff" stroke="#4C5C68" stroke-linecap="round" stroke-linejoin="round" stroke-miterlimit="10" d="M46.3 49.7l-.2.2-2.2 2.2-.2.3-.3 1.2-.1.2-4.1 2.7-1-1 .1-.2 2.5-3.8c.1-.1.2-.2.3-.2l1.2-.3c.1 0 .1 0 .2-.1l2.4-2.4v-.1c-.1-.1-.2-.3-.4-.4l-1.5-1.7c-.1-.1-.2-.1-.3-.1-2.9.9-5.9-.8-6.5-3.8-.2-.9-.1-2.1.3-2.8.1 0 .1.1.1.1l2.4 2.4c.6.6 1.4.6 2 0l.9-.9c.6-.6.6-1.3 0-1.9l-2.5-2.5-.2-.2c.5-.1.9-.2 1.3-.3 2.1-.2 3.8.5 4.9 2.3.8 1.2.9 2.4.7 3.8 0 .1 0 .2.1.3l.9.9c.1-.1.2-.2.3-.2 1.6-1.6 3.2-3.2 4.9-4.8 1.1-1.1 2.7-1.1 3.8-.1 1.1 1.1 1.2 2.8.1 3.9l-.9.9-4.1 4s-.1.1-.2.1l.2.2 4.3 4.2c.6.6.9 1.2.9 2 0 1.1-.6 2.1-1.6 2.5-1 .4-2.2.2-3-.6l-2.6-2.8c-1-1.1-2-2.2-3-3.2.2.1.2.1.1 0zm6.6 4.3c0 .6.5 1.1 1.1 1.1.6 0 1.1-.5 1.1-1.1 0-.6-.5-1.1-1.1-1.1-.6 0-1.1.5-1.1 1.1zm1.9-13.2c0-.3-.1-.5-.3-.5-.2-.1-.4 0-.5.1l-1.7 1.7-3.8 3.8c-.2.2-.2.5 0 .7.2.2.5.2.7 0l5.5-5.5c0-.1.1-.3.1-.3z"/><path fill="#286090" d="M54.6 40.9c0 .1-.1.2-.2.3l-5.2 5.2c-.2.2-.5.2-.7 0-.2-.2-.2-.5 0-.7l3.6-3.6 1.6-1.6c.1-.1.3-.2.5-.1.3.1.4.3.4.5z"/><path fill="#fff" d="M52.9 54c0-.6.5-1.1 1.1-1.1.6 0 1.1.5 1.1 1.1 0 .6-.5 1.1-1.1 1.1-.6 0-1.1-.5-1.1-1.1z"/></svg>