<svg xmlns="http://www.w3.org/2000/svg" viewBox="0 0 64 64"><defs><style>.cls-1{fill:#fff;}.cls-2{fill:#cee8fa;}.cls-3{fill:#41464b;}.cls-4{fill:#4c5c68;}.cls-5{fill:#fed65c;}</style></defs><title>sms-banking</title><g id="Layer_1"><path class="cls-1" d="M9.93 15.02h32.23v33.78h-32.23z"/><path class="cls-2" d="M37.86 7h-22.86c-2.36 0-4.3 1-4.3 3.39v4.61h30.73v-3.73c0-2.37-1.21-4.27-3.57-4.27z"/><path class="cls-3" d="M22.91 9.82h6.27v1.45h-6.27z"/><path class="cls-2" d="M14.53 57.25h23a4.13 4.13 0 0 0 4.18-4.06v-4.39h-31.36v4.39a4.13 4.13 0 0 0 4.18 4.06z"/><path class="cls-1" d="M30.34 53.27a1.56 1.56 0 0 1-1.65 1.43h-5.29a1.45 1.45 0 1 1 0-2.86h5.29a1.56 1.56 0 0 1 1.65 1.43z"/><path class="cls-4" d="M28.91 55.85h-5.73a2.58 2.58 0 1 1 0-5.16h5.73a2.58 2.58 0 1 1 0 5.16zm-5.73-4.31a1.73 1.73 0 1 0 0 3.46h5.73a1.73 1.73 0 1 0 0-3.46zM37.86 57.45h-23.63a4 4 0 0 1-4-4v-43.09a4 4 0 0 1 4-4h23.63a4 4 0 0 1 4 4v43.09a4 4 0 0 1-4 4zm-23.63-50.23a3.15 3.15 0 0 0-3.15 3.15v43.08a3.15 3.15 0 0 0 3.15 3.15h23.63a3.15 3.15 0 0 0 3.14-3.15v-43.09a3.15 3.15 0 0 0-3.15-3.15zM10.42 14.74h31.29v.79h-31.29zM10.42 48.01h31.29v.79h-31.29z"/><circle class="cls-5" cx="15.99" cy="31.38" r="2.85"/><circle class="cls-5" cx="24.6" cy="31.38" r="2.85"/><circle class="cls-5" cx="33.2" cy="31.38" r="2.85"/><path class="cls-1" d="M25.77 26.06l14.19 8a1.32 1.32 0 0 0 1.34 0l13.35-8.16" id="_Group_2"/><rect class="cls-1" x="25.71" y="23.84" width="28.94" height="18.19" rx="2.06" ry="2.06"/><path class="cls-5" d="M25.77 26.06l14.19 8a1.32 1.32 0 0 0 1.34 0l13.13-8s.3-1.47-.68-1.83l-15-.36h-11s-2.23.25-2 2.23" id="_Group_4"/><path class="cls-4" d="M40.62 34.61a1.69 1.69 0 0 1-.84-.22l-14.19-8 .38-.67 14.19 8a.93.93 0 0 0 1 0l13.34-8.13.4.66-13.39 8.11a1.7 1.7 0 0 1-.89.25z" id="_Group_6"/><path class="cls-4" d="M52.59 42.4h-24.82a2.44 2.44 0 0 1-2.44-2.4v-14.1a2.44 2.44 0 0 1 2.44-2.44h24.82a2.44 2.44 0 0 1 2.41 2.44v14.1a2.44 2.44 0 0 1-2.41 2.4zm-24.82-18.19a1.69 1.69 0 0 0-1.69 1.69v14.1a1.69 1.69 0 0 0 1.69 1.69h24.82a1.69 1.69 0 0 0 1.68-1.69v-14.1a1.69 1.69 0 0 0-1.69-1.69zM27.823 41.767l8.385-9.904.588.497-8.385 9.904zM43.809 32.352l.588-.497 8.385 9.904-.588.497z"/></g></svg>