<svg xmlns="http://www.w3.org/2000/svg" xmlns:xlink="http://www.w3.org/1999/xlink" viewBox="0 0 344.7 243" enable-background="new 0 0 344.7 243"><defs><path id="a" d="M266.9 17v-3c0-2.2 1.8-4 4-4s4 1.8 4 4v3"/></defs><clipPath id="b"><use xlink:href="#a" overflow="visible"/></clipPath><g clip-path="url(#b)"><defs><path id="c" d="M-471-473.1h1366v1062h-1366z"/></defs><clipPath id="d"><use xlink:href="#c" overflow="visible"/></clipPath><path clip-path="url(#d)" fill="#fff" d="M261.9 5h18.1v17h-18.1z"/></g><defs><path id="e" d="M-471-473.1h1366v1062h-1366z"/></defs><clipPath id="f"><use xlink:href="#e" overflow="visible"/></clipPath><path clip-path="url(#f)" stroke="#4D5D69" stroke-width=".529" stroke-linecap="round" stroke-linejoin="round" stroke-miterlimit="10" d="M266.9 17v-3c0-2.2 1.8-4 4-4s4 1.8 4 4v3" fill="none"/><defs><path id="g" d="M220.6 204.3c-2.3 0-4.2 1.9-4.2 4.2 0 2.3 1.9 4.2 4.2 4.2 2.3 0 4.2-1.9 4.2-4.2 0-2.3-1.9-4.2-4.2-4.2"/></defs><clipPath id="h"><use xlink:href="#g" overflow="visible"/></clipPath><g clip-path="url(#h)"><defs><path id="i" d="M-471-473.1h1366v1062h-1366z"/></defs><clipPath id="j"><use xlink:href="#i" overflow="visible"/></clipPath><path clip-path="url(#j)" fill="#fff" d="M211.5 199.3h18.3v18.3h-18.3z"/></g><defs><path id="k" d="M-471-473.1h1366v1062h-1366z"/></defs><clipPath id="l"><use xlink:href="#k" overflow="visible"/></clipPath><ellipse clip-path="url(#l)" stroke="#4D5D69" stroke-linecap="round" stroke-linejoin="round" stroke-miterlimit="10" cx="220.6" cy="208.5" rx="4.2" ry="4.2" fill="none"/><defs><path id="m" d="M269.5 198.8h-44.3"/></defs><clipPath id="n"><use xlink:href="#m" overflow="visible"/></clipPath><g clip-path="url(#n)"><defs><path id="o" d="M-471-473.1h1366v1062h-1366z"/></defs><clipPath id="p"><use xlink:href="#o" overflow="visible"/></clipPath><path clip-path="url(#p)" fill="#fff" d="M220.2 193.8h54.3v10h-54.3z"/></g><defs><path id="q" d="M-471-473.1h1366v1062h-1366z"/></defs><clipPath id="r"><use xlink:href="#q" overflow="visible"/></clipPath><path clip-path="url(#r)" stroke="#4D5D69" stroke-linecap="round" stroke-linejoin="round" stroke-miterlimit="10" d="M269.5 198.8h-44.3" fill="none"/><path clip-path="url(#r)" stroke="#4D5D69" stroke-linecap="round" stroke-linejoin="round" stroke-miterlimit="10" stroke-dasharray="1,2" d="M277.6 173.8v34.7h-51.3" fill="none"/><defs><path id="s" d="M276.4 167.5c-1.6 0-3 1.3-3 3s1.3 3 3 3c1.6 0 3-1.3 3-3s-1.4-3-3-3"/></defs><clipPath id="t"><use xlink:href="#s" overflow="visible"/></clipPath><g clip-path="url(#t)"><defs><path id="u" d="M-471-473.1h1366v1062h-1366z"/></defs><clipPath id="v"><use xlink:href="#u" overflow="visible"/></clipPath><path clip-path="url(#v)" fill="#fff" d="M268.5 162.5h15.9v15.9h-15.9z"/></g><defs><path id="w" d="M-471-473.1h1366v1062h-1366z"/></defs><clipPath id="x"><use xlink:href="#w" overflow="visible"/></clipPath><ellipse clip-path="url(#x)" stroke="#4D5D69" stroke-width=".711" stroke-linecap="round" stroke-linejoin="round" stroke-miterlimit="10" cx="276.4" cy="170.5" rx="3" ry="3" fill="none"/><defs><path id="y" d="M212.3 218.9h-65.1v-27.6h65.1z"/></defs><clipPath id="z"><use xlink:href="#y" overflow="visible"/></clipPath><g clip-path="url(#z)"><defs><path id="A" d="M-471-473.1h1366v1062h-1366z"/></defs><clipPath id="B"><use xlink:href="#A" overflow="visible"/></clipPath><path clip-path="url(#B)" fill="#fff" d="M142.2 186.3h75.1v37.6h-75.1z"/></g><defs><path id="C" d="M-471-473.1h1366v1062h-1366z"/></defs><clipPath id="D"><use xlink:href="#C" overflow="visible"/></clipPath><path clip-path="url(#D)" stroke="#4D5D69" stroke-linecap="round" stroke-linejoin="round" stroke-miterlimit="10" d="M212.3 218.9h-65.1v-27.6h65.1z" fill="none"/><defs><path id="E" d="M153.3 202.6v-5.6h53.1v27.6h-53.1v-15.1"/></defs><clipPath id="F"><use xlink:href="#E" overflow="visible"/></clipPath><g clip-path="url(#F)"><defs><path id="G" d="M-471-473.1h1366v1062h-1366z"/></defs><clipPath id="H"><use xlink:href="#G" overflow="visible"/></clipPath><path clip-path="url(#H)" fill="#F9CB38" d="M148.3 192h63.1v37.6h-63.1z"/></g><defs><path id="I" d="M-471-473.1h1366v1062h-1366z"/></defs><clipPath id="J"><use xlink:href="#I" overflow="visible"/></clipPath><path clip-path="url(#J)" stroke="#4D5D69" stroke-linecap="round" stroke-linejoin="round" stroke-miterlimit="10" d="M153.3 202.6v-5.6h53.1v27.6h-53.1v-15.1" fill="none"/><defs><path id="K" d="M212.3 241.1h-65.1v-33.8h34.3l6.4-6.5h24.4z"/></defs><clipPath id="L"><use xlink:href="#K" overflow="visible"/></clipPath><g clip-path="url(#L)"><defs><path id="M" d="M-471-473.1h1366v1062h-1366z"/></defs><clipPath id="N"><use xlink:href="#M" overflow="visible"/></clipPath><path clip-path="url(#N)" fill="#fff" d="M142.2 195.8h75.1v50.3h-75.1z"/></g><defs><path id="O" d="M-471-473.1h1366v1062h-1366z"/></defs><clipPath id="P"><use xlink:href="#O" overflow="visible"/></clipPath><path clip-path="url(#P)" stroke="#4D5D69" stroke-linecap="round" stroke-linejoin="round" stroke-miterlimit="10" d="M212.3 241.1h-65.1v-33.8h34.3l6.4-6.5h24.4z" fill="none"/><defs><path id="Q" d="M206.4 237.2h-52.8v-22.8h27.9l5.2-4.5h19.7z"/></defs><clipPath id="R"><use xlink:href="#Q" overflow="visible"/></clipPath><g clip-path="url(#R)"><defs><path id="S" d="M-471-473.1h1366v1062h-1366z"/></defs><clipPath id="T"><use xlink:href="#S" overflow="visible"/></clipPath><path clip-path="url(#T)" fill="#CEE7F8" d="M148.6 204.9h62.8v37.2h-62.8z"/></g><defs><path id="U" d="M-481-473.1h1366v1062h-1366z"/></defs><clipPath><use xlink:href="#U" overflow="visible"/></clipPath><defs><path id="V" d="M109.4 130.3h137"/></defs><clipPath id="W"><use xlink:href="#V" overflow="visible"/></clipPath><g clip-path="url(#W)"><defs><path id="X" d="M-471-473.1h1366v1062h-1366z"/></defs><clipPath id="Y"><use xlink:href="#X" overflow="visible"/></clipPath><path clip-path="url(#Y)" fill="#fff" d="M104.4 125.3h147v10h-147z"/></g><defs><path id="Z" d="M-471-473.1h1366v1062h-1366z"/></defs><clipPath id="aa"><use xlink:href="#Z" overflow="visible"/></clipPath><path clip-path="url(#aa)" stroke="#4D5D69" stroke-width="1.44" stroke-linecap="round" stroke-linejoin="round" stroke-miterlimit="10" d="M109.4 130.3h137" fill="none"/><defs><path id="ab" d="M172 138.4h11.6"/></defs><clipPath id="ac"><use xlink:href="#ab" overflow="visible"/></clipPath><g clip-path="url(#ac)"><defs><path id="ad" d="M-471-473.1h1366v1062h-1366z"/></defs><clipPath id="ae"><use xlink:href="#ad" overflow="visible"/></clipPath><path clip-path="url(#ae)" fill="#fff" d="M167 133.4h21.6v10h-21.6z"/></g><path stroke="#4D5D69" stroke-width="1.308" stroke-linecap="round" stroke-linejoin="round" stroke-miterlimit="10" d="M172 138.4h11.6" fill="none"/><defs><path id="af" d="M10 1.9h330v240.6h-330z"/></defs><clipPath id="ag"><use xlink:href="#af" overflow="visible"/></clipPath><g clip-path="url(#ag)"><defs><path id="ah" d="M-471-473.1h1366v1062h-1366z"/></defs><clipPath id="ai"><use xlink:href="#ah" overflow="visible"/></clipPath><g clip-path="url(#ai)"><defs><path id="aj" d="M10 1.9h330v229h-330z"/></defs><clipPath id="ak"><use xlink:href="#aj" overflow="visible"/></clipPath><g clip-path="url(#ak)"><defs><path id="al" d="M158.5 146.9h39.4v19.4h-39.4z"/></defs><clipPath id="am"><use xlink:href="#al" overflow="visible"/></clipPath><g clip-path="url(#am)"><defs><path id="an" d="M10 1.9h330v240h-330z"/></defs><clipPath id="ao"><use xlink:href="#an" overflow="visible"/></clipPath><path clip-path="url(#ao)" fill="#fff" d="M153.5 141.9h49.4v29.4h-49.4z"/></g></g><g clip-path="url(#ak)"><defs><path id="ap" d="M10 1.9h330v240h-330z"/></defs><clipPath id="aq"><use xlink:href="#ap" overflow="visible"/></clipPath><path clip-path="url(#aq)" stroke="#4D5D69" stroke-width="1.44" stroke-linecap="round" stroke-linejoin="round" stroke-miterlimit="10" d="M158.5 146.9h39.4v19.4h-39.4z" fill="none"/></g><g clip-path="url(#ak)"><defs><path id="ar" d="M237.7 121.3h-119.3v-68.2h119.3v49.1z"/></defs><clipPath id="as"><use xlink:href="#ar" overflow="visible"/></clipPath><g clip-path="url(#as)"><defs><path id="at" d="M10 1.9h330v240h-330z"/></defs><clipPath id="au"><use xlink:href="#at" overflow="visible"/></clipPath><path clip-path="url(#au)" fill="#CEE7F8" d="M113.4 48.1h129.3v78.2h-129.3z"/></g></g><g clip-path="url(#ak)"><defs><path id="av" d="M10 1.9h330v240h-330z"/></defs><clipPath id="aw"><use xlink:href="#av" overflow="visible"/></clipPath><path clip-path="url(#aw)" stroke="#4D5D69" stroke-width="1.308" stroke-linecap="round" stroke-linejoin="round" stroke-miterlimit="10" d="M243.2 146.9h-130.6c-2.3 0-4.1-1.8-4.1-4.1v-95.7c0-2.3 1.8-4.1 4.1-4.1h130.6c2.3 0 4.1 1.8 4.1 4.1v95.7c0 2.3-1.9 4.1-4.1 4.1z" fill="none"/></g><g clip-path="url(#ak)"><defs><path id="ax" d="M175.2 94.5l-.3.3c-1.3 1.3-2.6 2.7-4 4-.1.1-.2.4-.3.6l-.5 2.1c0 .1-.1.3-.2.3l-7.2 4.8-1.8-1.8c.1-.1.2-.3.2-.4 1.5-2.2 3-4.5 4.4-6.7.1-.2.3-.3.6-.4.7-.1 1.4-.3 2.1-.5.1 0 .3-.1.4-.2 1.4-1.4 2.9-2.9 4.3-4.4 0 0 0-.1.1-.1l-.6-.7-2.7-3c-.2-.2-.3-.2-.5-.1-5.2 1.6-10.4-1.5-11.5-6.8-.3-1.6-.1-3.6.4-4.9.1.1.2.2.3.2l4.3 4.3c1.1 1.1 2.4 1.1 3.5 0l1.6-1.6c1-1 1-2.4 0-3.4l-4.4-4.4-.4-.4c.8-.2 1.5-.4 2.2-.5 3.7-.4 6.7 1 8.8 4.1 1.4 2 1.7 4.3 1.2 6.7-.1.3 0 .4.2.6.5.5 1 1.1 1.6 1.7.2-.2.3-.3.5-.4l8.6-8.6c1.9-1.9 4.9-1.9 6.8-.1 2 1.9 2.1 4.9.2 6.9l-1.5 1.5-7.2 7.2-.3.2c.1.2.2.2.3.3l7.6 7.5c1 1 1.6 2.2 1.6 3.6 0 2-1.1 3.7-2.9 4.5-1.8.8-3.9.4-5.3-1-1.6-1.6-3.1-3.3-4.6-5-1.8-1.9-3.5-3.8-5.3-5.8-.1.1-.2-.1-.3-.2m11.6 7.7c0 1.1.9 2 2 2s2-.9 2-2-.9-1.9-2-1.9c-1.2-.1-2 .8-2 1.9"/></defs><clipPath id="ay"><use xlink:href="#ax" overflow="visible"/></clipPath><g clip-path="url(#ay)"><defs><path id="az" d="M10 1.9h330v240h-330z"/></defs><clipPath id="aA"><use xlink:href="#az" overflow="visible"/></clipPath><path clip-path="url(#aA)" fill="#fff" d="M152.4 65.8h46.9v46.2h-46.9z"/></g></g><g clip-path="url(#ak)"><defs><path id="aB" d="M10 1.9h330v240h-330z"/></defs><clipPath id="aC"><use xlink:href="#aB" overflow="visible"/></clipPath><path clip-path="url(#aC)" stroke="#4D5D69" stroke-width=".784" stroke-linecap="round" stroke-linejoin="round" stroke-miterlimit="10" d="M175.2 94.5l-.3.3c-1.3 1.3-2.6 2.7-4 4-.1.1-.2.4-.3.6l-.5 2.1c0 .1-.1.3-.2.3l-7.2 4.8-1.8-1.8c.1-.1.2-.3.2-.4 1.5-2.2 3-4.5 4.4-6.7.1-.2.3-.3.6-.4.7-.1 1.4-.3 2.1-.5.1 0 .3-.1.4-.2 1.4-1.4 2.9-2.9 4.3-4.4 0 0 0-.1.1-.1l-.6-.7-2.7-3c-.2-.2-.3-.2-.5-.1-5.2 1.6-10.4-1.5-11.5-6.8-.3-1.6-.1-3.6.4-4.9.1.1.2.2.3.2l4.3 4.3c1.1 1.1 2.4 1.1 3.5 0l1.6-1.6c1-1 1-2.4 0-3.4l-4.4-4.4-.4-.4c.8-.2 1.5-.4 2.2-.5 3.7-.4 6.7 1 8.8 4.1 1.4 2 1.7 4.3 1.2 6.7-.1.3 0 .4.2.6.5.5 1 1.1 1.6 1.7.2-.2.3-.3.5-.4l8.6-8.6c1.9-1.9 4.9-1.9 6.8-.1 2 1.9 2.1 4.9.2 6.9l-1.5 1.5-7.2 7.2-.3.2c.1.2.2.2.3.3l7.6 7.5c1 1 1.6 2.2 1.6 3.6 0 2-1.1 3.7-2.9 4.5-1.8.8-3.9.4-5.3-1-1.6-1.6-3.1-3.3-4.6-5-1.8-1.9-3.5-3.8-5.3-5.8-.1.1-.2-.1-.3-.2zm11.6 7.7c0 1.1.9 2 2 2s2-.9 2-2-.9-1.9-2-1.9c-1.2-.1-2 .8-2 1.9z" fill="none"/></g><g clip-path="url(#ak)"><defs><path id="aD" d="M190.2 78.7c0-.5-.2-.8-.5-.9-.4-.1-.7-.1-1 .2l-3 3-6.7 6.7c-.4.4-.4.9-.1 1.3.4.4.8.3 1.3-.1l9.7-9.7c.1-.2.2-.4.3-.5"/></defs><clipPath id="aE"><use xlink:href="#aD" overflow="visible"/></clipPath><g clip-path="url(#aE)"><defs><path id="aF" d="M10 1.9h330v240h-330z"/></defs><clipPath id="aG"><use xlink:href="#aF" overflow="visible"/></clipPath><path clip-path="url(#aG)" fill="#fff" d="M173.6 72.7h21.5v21.6h-21.5z"/></g></g><g clip-path="url(#ak)"><defs><path id="aH" d="M10 1.9h330v240h-330z"/></defs><clipPath id="aI"><use xlink:href="#aH" overflow="visible"/></clipPath><path clip-path="url(#aI)" stroke="#4D5D69" stroke-width=".784" stroke-linecap="round" stroke-linejoin="round" stroke-miterlimit="10" d="M190.2 78.7c0-.5-.2-.8-.5-.9-.4-.1-.7-.1-1 .2l-3 3-6.7 6.7c-.4.4-.4.9-.1 1.3.4.4.8.3 1.3-.1l9.7-9.7c.1-.2.2-.4.3-.5z" fill="none"/></g><g clip-path="url(#ak)"><defs><path id="aJ" d="M189.8 78.9c-.1.1-.2.3-.3.5-3 3.1-6.1 6.1-9.2 9.2-.4.4-.8.4-1.2.1-.3-.3-.3-.8.1-1.2l6.3-6.3 2.9-2.9c.3-.3.6-.3.9-.2.4.1.6.4.5.8"/></defs><clipPath id="aK"><use xlink:href="#aJ" overflow="visible"/></clipPath><g clip-path="url(#aK)"><defs><path id="aL" d="M10 1.9h330v240h-330z"/></defs><clipPath id="aM"><use xlink:href="#aL" overflow="visible"/></clipPath><path clip-path="url(#aM)" fill="#F9CB38" d="M173.9 73h20.9v20.9h-20.9z"/></g></g><g clip-path="url(#ak)"><defs><path id="aN" d="M186.8 102.2c0-1.1.9-2 2-1.9 1.1 0 2 .9 2 1.9 0 1.1-.9 2-2 2-1.2 0-2.1-.9-2-2"/></defs><clipPath id="aO"><use xlink:href="#aN" overflow="visible"/></clipPath><g clip-path="url(#aO)"><defs><path id="aP" d="M10 1.9h330v240h-330z"/></defs><clipPath id="aQ"><use xlink:href="#aP" overflow="visible"/></clipPath><path clip-path="url(#aQ)" fill="#fff" d="M181.8 95.3h13.9v13.9h-13.9z"/></g></g><g clip-path="url(#ak)"><defs><path id="aR" d="M10 1.9h330v240h-330z"/></defs><clipPath id="aS"><use xlink:href="#aR" overflow="visible"/></clipPath><path clip-path="url(#aS)" stroke="#4D5D69" stroke-linecap="round" stroke-linejoin="round" stroke-miterlimit="10" d="M272.5 50.2h43.1v65.6h-43.1zm1.3 32.8h41.8" fill="none"/></g><g clip-path="url(#ak)"><defs><path id="aT" d="M300.4 99.2c0 3.3-2.6 6-5.9 6-3.2 0-5.9-2.7-5.9-6s2.6-6 5.9-6c3.3 0 5.9 2.7 5.9 6"/></defs><clipPath id="aU"><use xlink:href="#aT" overflow="visible"/></clipPath><g clip-path="url(#aU)"><defs><path id="aV" d="M10 1.9h330v240h-330z"/></defs><clipPath id="aW"><use xlink:href="#aV" overflow="visible"/></clipPath><path clip-path="url(#aW)" fill="#F9CB38" d="M283.7 88.2h21.7v21.9h-21.7z"/></g></g><g clip-path="url(#ak)"><defs><path id="aX" d="M10 1.9h330v240h-330z"/></defs><clipPath id="aY"><use xlink:href="#aX" overflow="visible"/></clipPath><ellipse clip-path="url(#aY)" stroke="#4D5D69" stroke-linecap="round" stroke-linejoin="round" stroke-miterlimit="10" cx="294.5" cy="99.2" rx="5.9" ry="6" fill="none"/><ellipse clip-path="url(#aY)" stroke="#4D5D69" stroke-linecap="round" stroke-linejoin="round" stroke-miterlimit="10" cx="309.2" cy="99.2" rx="3.1" ry="3.1" fill="none"/><ellipse clip-path="url(#aY)" stroke="#4D5D69" stroke-linecap="round" stroke-linejoin="round" stroke-miterlimit="10" cx="280" cy="99.2" rx="3.1" ry="3.1" fill="none"/></g><g clip-path="url(#ak)"><defs><path id="aZ" d="M279.2 57h29.6v5.5h-29.6z"/></defs><clipPath id="ba"><use xlink:href="#aZ" overflow="visible"/></clipPath><g clip-path="url(#ba)"><defs><path id="bb" d="M10 1.9h330v240h-330z"/></defs><clipPath id="bc"><use xlink:href="#bb" overflow="visible"/></clipPath><path clip-path="url(#bc)" fill="#CEE7F8" d="M274.2 52h39.6v15.5h-39.6z"/></g></g><g clip-path="url(#ak)"><defs><path id="bd" d="M279.2 68h29.6v5.5h-29.6z"/></defs><clipPath id="be"><use xlink:href="#bd" overflow="visible"/></clipPath><g clip-path="url(#be)"><defs><path id="bf" d="M10 1.9h330v240h-330z"/></defs><clipPath id="bg"><use xlink:href="#bf" overflow="visible"/></clipPath><path clip-path="url(#bg)" fill="#CEE7F8" d="M274.2 63h39.6v15.5h-39.6z"/></g></g><g clip-path="url(#ak)"><defs><path id="bh" d="M10 1.9h330v240h-330z"/></defs><clipPath id="bi"><use xlink:href="#bh" overflow="visible"/></clipPath><path clip-path="url(#bi)" stroke="#4D5D69" stroke-linecap="round" stroke-linejoin="round" stroke-miterlimit="10" d="M40.4 50.2h43.1v65.6h-43.1zm1.3 32.8h41.8" fill="none"/></g><g clip-path="url(#ak)"><defs><path id="bj" d="M68.3 99.2c0 3.3-2.6 6-5.9 6-3.2 0-5.9-2.7-5.9-6s2.6-6 5.9-6c3.3 0 5.9 2.7 5.9 6"/></defs><clipPath id="bk"><use xlink:href="#bj" overflow="visible"/></clipPath><g clip-path="url(#bk)"><defs><path id="bl" d="M10 1.9h330v240h-330z"/></defs><clipPath id="bm"><use xlink:href="#bl" overflow="visible"/></clipPath><path clip-path="url(#bm)" fill="#F9CB38" d="M51.6 88.2h21.7v21.9h-21.7z"/></g></g><g clip-path="url(#ak)"><defs><path id="bn" d="M10 1.9h330v240h-330z"/></defs><clipPath id="bo"><use xlink:href="#bn" overflow="visible"/></clipPath><ellipse clip-path="url(#bo)" stroke="#4D5D69" stroke-linecap="round" stroke-linejoin="round" stroke-miterlimit="10" cx="62.5" cy="99.2" rx="5.9" ry="6" fill="none"/><ellipse clip-path="url(#bo)" stroke="#4D5D69" stroke-linecap="round" stroke-linejoin="round" stroke-miterlimit="10" cx="77.1" cy="99.2" rx="3.1" ry="3.1" fill="none"/><ellipse clip-path="url(#bo)" stroke="#4D5D69" stroke-linecap="round" stroke-linejoin="round" stroke-miterlimit="10" cx="47.9" cy="99.2" rx="3.1" ry="3.1" fill="none"/></g><g clip-path="url(#ak)"><defs><path id="bp" d="M47.1 57h29.6v5.5h-29.6z"/></defs><clipPath id="bq"><use xlink:href="#bp" overflow="visible"/></clipPath><g clip-path="url(#bq)"><defs><path id="br" d="M10 1.9h330v240h-330z"/></defs><clipPath id="bs"><use xlink:href="#br" overflow="visible"/></clipPath><path clip-path="url(#bs)" fill="#CEE7F8" d="M42.1 52h39.6v15.5h-39.6z"/></g></g><g clip-path="url(#ak)"><defs><path id="bt" d="M47.1 68h29.6v5.5h-29.6z"/></defs><clipPath id="bu"><use xlink:href="#bt" overflow="visible"/></clipPath><g clip-path="url(#bu)"><defs><path id="bv" d="M10 1.9h330v240h-330z"/></defs><clipPath id="bw"><use xlink:href="#bv" overflow="visible"/></clipPath><path clip-path="url(#bw)" fill="#CEE7F8" d="M42.1 63h39.6v15.5h-39.6z"/></g></g><g clip-path="url(#ak)"><defs><path id="bx" d="M295.7 163.6v33.3h-30.1v-43.9h21.3"/></defs><clipPath id="by"><use xlink:href="#bx" overflow="visible"/></clipPath><g clip-path="url(#by)"><defs><path id="bz" d="M10 1.9h330v240h-330z"/></defs><clipPath id="bA"><use xlink:href="#bz" overflow="visible"/></clipPath><path clip-path="url(#bA)" fill="#CEE7F8" d="M260.6 148h40.1v53.9h-40.1z"/></g></g><g clip-path="url(#ak)"><defs><path id="bB" d="M10 1.9h330v240h-330z"/></defs><clipPath id="bC"><use xlink:href="#bB" overflow="visible"/></clipPath><path clip-path="url(#bC)" stroke="#4D5D69" stroke-width=".504" stroke-linecap="round" stroke-linejoin="round" stroke-miterlimit="10" d="M295.7 163.6v33.3h-30.1v-43.9h21.3" fill="none"/></g><g clip-path="url(#ak)"><defs><path id="bD" d="M297.8 165.4v31.5h-30.1v-41.5h21.3"/></defs><clipPath id="bE"><use xlink:href="#bD" overflow="visible"/></clipPath><g clip-path="url(#bE)"><defs><path id="bF" d="M10 1.9h330v240h-330z"/></defs><clipPath id="bG"><use xlink:href="#bF" overflow="visible"/></clipPath><path clip-path="url(#bG)" fill="#CEE7F8" d="M262.7 150.4h40.1v51.5h-40.1z"/></g></g><g clip-path="url(#ak)"><defs><path id="bH" d="M10 1.9h330v240h-330z"/></defs><clipPath id="bI"><use xlink:href="#bH" overflow="visible"/></clipPath><path clip-path="url(#bI)" stroke="#4D5D69" stroke-width=".504" stroke-linecap="round" stroke-linejoin="round" stroke-miterlimit="10" d="M297.8 165.4v31.5h-30.1v-41.5h21.2" fill="none"/></g><g clip-path="url(#ak)"><defs><path id="bJ" d="M300.5 167.6v30h-29.9v-39.6h21.1"/></defs><clipPath id="bK"><use xlink:href="#bJ" overflow="visible"/></clipPath><g clip-path="url(#bK)"><defs><path id="bL" d="M10 1.9h330v240h-330z"/></defs><clipPath id="bM"><use xlink:href="#bL" overflow="visible"/></clipPath><path clip-path="url(#bM)" fill="#fff" d="M265.6 153h39.9v49.6h-39.9z"/></g></g><g clip-path="url(#ak)"><defs><path id="bN" d="M10 1.9h330v240h-330z"/></defs><clipPath id="bO"><use xlink:href="#bN" overflow="visible"/></clipPath><path clip-path="url(#bO)" stroke="#4D5D69" stroke-width=".719" stroke-linecap="round" stroke-linejoin="round" stroke-miterlimit="10" d="M270.1 187.1v-29.5h21.3" fill="none"/></g><g clip-path="url(#ak)"><defs><path id="bP" d="M291.4 157.5v9.9h9.1z"/></defs><clipPath id="bQ"><use xlink:href="#bP" overflow="visible"/></clipPath><g clip-path="url(#bQ)"><defs><path id="bR" d="M10 1.9h330v240h-330z"/></defs><clipPath id="bS"><use xlink:href="#bR" overflow="visible"/></clipPath><path clip-path="url(#bS)" fill="#CEE7F8" d="M286.4 152.5h19.1v20h-19.1z"/></g></g><g clip-path="url(#ak)"><defs><path id="bT" d="M10 1.9h330v240h-330z"/></defs><clipPath id="bU"><use xlink:href="#bT" overflow="visible"/></clipPath><path clip-path="url(#bU)" stroke="#4D5D69" stroke-width=".719" stroke-linecap="round" stroke-linejoin="round" stroke-miterlimit="10" d="M291.4 157.5v9.9h9.1zm-8.4 13.6h11.7m-11.7 3.5h7.9m-16.1 3.6h16.8m-16.8 4.2h16.8m-16.8 3.5h16.8m-15 3.6h14.8" fill="none"/></g><g clip-path="url(#ak)"><defs><path id="bV" d="M274.8 169.2h5.4v5.4h-5.4z"/></defs><clipPath id="bW"><use xlink:href="#bV" overflow="visible"/></clipPath><g clip-path="url(#bW)"><defs><path id="bX" d="M10 1.9h330v240h-330z"/></defs><clipPath id="bY"><use xlink:href="#bX" overflow="visible"/></clipPath><path clip-path="url(#bY)" fill="#F9CB38" d="M269.8 164.2h15.4v15.4h-15.4z"/></g></g><g clip-path="url(#ak)"><defs><path id="bZ" d="M10 1.9h330v240h-330z"/></defs><clipPath id="ca"><use xlink:href="#bZ" overflow="visible"/></clipPath><path clip-path="url(#ca)" stroke="#4D5D69" stroke-width=".719" stroke-linecap="round" stroke-linejoin="round" stroke-miterlimit="10" d="M274.8 169.2h5.4v5.4h-5.4zm25.6-1.8v29.5h-30.3v-3.5" fill="none"/></g><g clip-path="url(#ak)"><defs><path id="cb" d="M136.2 16.2v35.2h-35.1v-46.5h24.8"/></defs><clipPath id="cc"><use xlink:href="#cb" overflow="visible"/></clipPath><g clip-path="url(#cc)"><defs><path id="cd" d="M10 1.9h330v240h-330z"/></defs><clipPath id="ce"><use xlink:href="#cd" overflow="visible"/></clipPath><path clip-path="url(#ce)" fill="#fff" d="M96.1-.1h45.2v56.6h-45.2z"/></g></g><g clip-path="url(#ak)"><defs><path id="cf" d="M10 1.9h330v240h-330z"/></defs><clipPath id="cg"><use xlink:href="#cf" overflow="visible"/></clipPath><path clip-path="url(#cg)" stroke="#4D5D69" stroke-width=".846" stroke-linecap="round" stroke-linejoin="round" stroke-miterlimit="10" d="M100.6 39.2v-34.8h25" fill="none"/></g><g clip-path="url(#ak)"><defs><path id="ch" d="M125.5 4.2v11.8h10.7z"/></defs><clipPath id="ci"><use xlink:href="#ch" overflow="visible"/></clipPath><g clip-path="url(#ci)"><defs><path id="cj" d="M10 1.9h330v240h-330z"/></defs><clipPath id="ck"><use xlink:href="#cj" overflow="visible"/></clipPath><path clip-path="url(#ck)" fill="#CEE7F8" d="M120.5-.8h20.7v21.7h-20.7z"/></g></g><g clip-path="url(#ak)"><defs><path id="cl" d="M10 1.9h330v240h-330z"/></defs><clipPath id="cm"><use xlink:href="#cl" overflow="visible"/></clipPath><path clip-path="url(#cm)" stroke="#4D5D69" stroke-width=".846" stroke-linecap="round" stroke-linejoin="round" stroke-miterlimit="10" d="M125.5 4.2v11.8h10.7zm-9.8 16.1h13.7m-13.7 4.1h9.3m-19 4.2h19.8m-19.8 4.9h19.8m-19.8 4.2h19.8m-19.8 4.2h17.4" fill="none"/></g><g clip-path="url(#ak)"><defs><path id="cn" d="M106 18.1h6.4v6.4h-6.4z"/></defs><clipPath id="co"><use xlink:href="#cn" overflow="visible"/></clipPath><g clip-path="url(#co)"><defs><path id="cp" d="M10 1.9h330v240h-330z"/></defs><clipPath id="cq"><use xlink:href="#cp" overflow="visible"/></clipPath><path clip-path="url(#cq)" fill="#F9CB38" d="M101 13.1h16.4v16.4h-16.4z"/></g></g><g clip-path="url(#ak)"><defs><path id="cr" d="M10 1.9h330v240h-330z"/></defs><clipPath id="cs"><use xlink:href="#cr" overflow="visible"/></clipPath><path clip-path="url(#cs)" stroke="#4D5D69" stroke-width=".846" stroke-linecap="round" stroke-linejoin="round" stroke-miterlimit="10" d="M106 18.1h6.4v6.4h-6.4zm30.2-2.2v34.7h-35.6v-4.1" fill="none"/><path clip-path="url(#cs)" stroke="#4D5D69" stroke-linecap="round" stroke-linejoin="round" stroke-miterlimit="10" d="M80.2 129.5v16.6l-10.3 16.3v13.7m20.6-46.6v16.6l-10.3 16.3v13.7m-10.3-46.6v16.6" fill="none"/></g><g clip-path="url(#ak)"><defs><path id="ct" d="M71.9 147.6c0 1.1-.9 2-2 2s-2-.9-2-2 .9-2 2-2c1.1-.1 2 .9 2 2"/></defs><clipPath id="cu"><use xlink:href="#ct" overflow="visible"/></clipPath><g clip-path="url(#cu)"><defs><path id="cv" d="M10 1.9h330v240h-330z"/></defs><clipPath id="cw"><use xlink:href="#cv" overflow="visible"/></clipPath><path clip-path="url(#cw)" fill="#fff" d="M62.8 140.5h14.1v14.1h-14.1z"/></g></g><g clip-path="url(#ak)"><defs><path id="cx" d="M10 1.9h330v240h-330z"/></defs><clipPath id="cy"><use xlink:href="#cx" overflow="visible"/></clipPath><ellipse clip-path="url(#cy)" stroke="#4D5D69" stroke-width=".807" stroke-linecap="round" stroke-linejoin="round" stroke-miterlimit="10" cx="69.9" cy="147.6" rx="2" ry="2" fill="none"/><path clip-path="url(#cy)" stroke="#4D5D69" stroke-linecap="round" stroke-linejoin="round" stroke-miterlimit="10" d="M60.1 176.4v-16.6" fill="none"/></g><g clip-path="url(#ak)"><defs><path id="cz" d="M58.1 158.3c0-1.1.9-2 2-2s2 .9 2 2-.9 2-2 2-2-.9-2-2"/></defs><clipPath id="cA"><use xlink:href="#cz" overflow="visible"/></clipPath><g clip-path="url(#cA)"><defs><path id="cB" d="M10 1.9h330v240h-330z"/></defs><clipPath id="cC"><use xlink:href="#cB" overflow="visible"/></clipPath><path clip-path="url(#cC)" fill="#fff" d="M53.1 151.2h14.1v14.1h-14.1z"/></g></g><g clip-path="url(#ak)"><defs><path id="cD" d="M10 1.9h330v240h-330z"/></defs><clipPath id="cE"><use xlink:href="#cD" overflow="visible"/></clipPath><ellipse clip-path="url(#cE)" stroke="#4D5D69" stroke-width=".807" stroke-linecap="round" stroke-linejoin="round" stroke-miterlimit="10" cx="60.1" cy="158.3" rx="2" ry="2" fill="none"/><path clip-path="url(#cE)" stroke="#4D5D69" stroke-linecap="round" stroke-linejoin="round" stroke-miterlimit="10" d="M90.5 176.4v-16.6" fill="none"/></g><g clip-path="url(#ak)"><defs><path id="cF" d="M88.4 158.3c0-1.1.9-2 2-2s2 .9 2 2-.9 2-2 2-2-.9-2-2"/></defs><clipPath id="cG"><use xlink:href="#cF" overflow="visible"/></clipPath><g clip-path="url(#cG)"><defs><path id="cH" d="M10 1.9h330v240h-330z"/></defs><clipPath id="cI"><use xlink:href="#cH" overflow="visible"/></clipPath><path clip-path="url(#cI)" fill="#fff" d="M83.4 151.2h14.1v14.1h-14.1z"/></g></g><g clip-path="url(#ak)"><defs><path id="cJ" d="M10 1.9h330v240h-330z"/></defs><clipPath id="cK"><use xlink:href="#cJ" overflow="visible"/></clipPath><ellipse clip-path="url(#cK)" stroke="#4D5D69" stroke-width=".807" stroke-linecap="round" stroke-linejoin="round" stroke-miterlimit="10" cx="90.5" cy="158.3" rx="2" ry="2" fill="none"/><path clip-path="url(#cK)" stroke="#4D5D69" stroke-linecap="round" stroke-linejoin="round" stroke-miterlimit="10" d="M50.5 176.6v-6.9h-6.9" fill="none"/></g><g clip-path="url(#ak)"><defs><path id="cL" d="M134 220.9c2.3 0 4.2 1.9 4.2 4.2 0 2.3-1.9 4.2-4.2 4.2-2.3 0-4.2-1.9-4.2-4.2 0-2.3 1.9-4.2 4.2-4.2"/></defs><clipPath id="cM"><use xlink:href="#cL" overflow="visible"/></clipPath><g clip-path="url(#cM)"><defs><path id="cN" d="M10 1.9h330v240h-330z"/></defs><clipPath id="cO"><use xlink:href="#cN" overflow="visible"/></clipPath><path clip-path="url(#cO)" fill="#fff" d="M124.8 215.9h18.3v18.3h-18.3z"/></g></g><g clip-path="url(#ak)"><defs><path id="cP" d="M10 1.9h330v240h-330z"/></defs><clipPath id="cQ"><use xlink:href="#cP" overflow="visible"/></clipPath><ellipse clip-path="url(#cQ)" stroke="#4D5D69" stroke-linecap="round" stroke-linejoin="round" stroke-miterlimit="10" cx="134" cy="225.1" rx="4.2" ry="4.2" fill="none"/></g><g clip-path="url(#ak)"><defs><path id="cR" d="M38 14.4h47.1"/></defs><clipPath id="cS"><use xlink:href="#cR" overflow="visible"/></clipPath><g clip-path="url(#cS)"><defs><path id="cT" d="M10 1.9h330v240h-330z"/></defs><clipPath id="cU"><use xlink:href="#cT" overflow="visible"/></clipPath><path clip-path="url(#cU)" fill="#fff" d="M33 9.4h57.1v10h-57.1z"/></g></g><g clip-path="url(#ak)"><defs><path id="cV" d="M10 1.9h330v240h-330z"/></defs><clipPath id="cW"><use xlink:href="#cV" overflow="visible"/></clipPath><path clip-path="url(#cW)" stroke="#4D5D69" stroke-linecap="round" stroke-linejoin="round" stroke-miterlimit="10" d="M38 14.4h47.1" fill="none"/></g><g clip-path="url(#ak)"><defs><path id="cX" d="M198.6 3.3h47.1"/></defs><clipPath id="cY"><use xlink:href="#cX" overflow="visible"/></clipPath><g clip-path="url(#cY)"><defs><path id="cZ" d="M10 1.9h330v240h-330z"/></defs><clipPath id="da"><use xlink:href="#cZ" overflow="visible"/></clipPath><path clip-path="url(#da)" fill="#fff" d="M193.6-1.7h57.1v10h-57.1z"/></g></g><g clip-path="url(#ak)"><defs><path id="db" d="M10 1.9h330v240h-330z"/></defs><clipPath id="dc"><use xlink:href="#db" overflow="visible"/></clipPath><path clip-path="url(#dc)" stroke="#4D5D69" stroke-linecap="round" stroke-linejoin="round" stroke-miterlimit="10" d="M198.6 3.3h47.1" fill="none"/></g><g clip-path="url(#ak)"><defs><path id="dd" d="M85.1 215.4h44.3"/></defs><clipPath id="de"><use xlink:href="#dd" overflow="visible"/></clipPath><g clip-path="url(#de)"><defs><path id="df" d="M10 1.9h330v240h-330z"/></defs><clipPath id="dg"><use xlink:href="#df" overflow="visible"/></clipPath><path clip-path="url(#dg)" fill="#fff" d="M80.1 210.4h54.3v10h-54.3z"/></g></g><g clip-path="url(#ak)"><defs><path id="dh" d="M10 1.9h330v240h-330z"/></defs><clipPath id="di"><use xlink:href="#dh" overflow="visible"/></clipPath><path clip-path="url(#di)" stroke="#4D5D69" stroke-linecap="round" stroke-linejoin="round" stroke-miterlimit="10" d="M85.1 215.4h44.3" fill="none"/></g><g clip-path="url(#ak)"><defs><path id="dj" d="M57.4 19.9h27.7"/></defs><clipPath id="dk"><use xlink:href="#dj" overflow="visible"/></clipPath><g clip-path="url(#dk)"><defs><path id="dl" d="M10 1.9h330v240h-330z"/></defs><clipPath id="dm"><use xlink:href="#dl" overflow="visible"/></clipPath><path clip-path="url(#dm)" fill="#fff" d="M52.4 14.9h37.7v10h-37.7z"/></g></g><g clip-path="url(#ak)"><defs><path id="dn" d="M10 1.9h330v240h-330z"/></defs><clipPath id="do"><use xlink:href="#dn" overflow="visible"/></clipPath><path clip-path="url(#do)" stroke="#4D5D69" stroke-linecap="round" stroke-linejoin="round" stroke-miterlimit="10" d="M57.4 19.9h27.7" fill="none"/></g><g clip-path="url(#ak)"><defs><path id="dp" d="M218 8.8h27.7"/></defs><clipPath id="dq"><use xlink:href="#dp" overflow="visible"/></clipPath><g clip-path="url(#dq)"><defs><path id="dr" d="M10 1.9h330v240h-330z"/></defs><clipPath id="ds"><use xlink:href="#dr" overflow="visible"/></clipPath><path clip-path="url(#ds)" fill="#fff" d="M213 3.8h37.7v10h-37.7z"/></g></g><g clip-path="url(#ak)"><defs><path id="dt" d="M10 1.9h330v240h-330z"/></defs><clipPath id="du"><use xlink:href="#dt" overflow="visible"/></clipPath><path clip-path="url(#du)" stroke="#4D5D69" stroke-linecap="round" stroke-linejoin="round" stroke-miterlimit="10" d="M218 8.8h27.7" fill="none"/><path clip-path="url(#du)" stroke="#4D5D69" stroke-linecap="round" stroke-linejoin="round" stroke-miterlimit="10" stroke-dasharray="1,2" d="M38 8.8h47.1m69.2 8.3h91.4" fill="none"/></g><g clip-path="url(#ak)"><defs><path id="dv" d="M47.7 29.6v16.7"/></defs><clipPath id="dw"><use xlink:href="#dv" overflow="visible"/></clipPath><g clip-path="url(#dw)"><defs><path id="dx" d="M10 1.9h330v240h-330z"/></defs><clipPath id="dy"><use xlink:href="#dx" overflow="visible"/></clipPath><path clip-path="url(#dy)" fill="#fff" d="M42.7 24.6h10v26.6h-10z"/></g></g><g clip-path="url(#ak)"><defs><path id="dz" d="M10 1.9h330v240h-330z"/></defs><clipPath id="dA"><use xlink:href="#dz" overflow="visible"/></clipPath><path clip-path="url(#dA)" stroke="#4D5D69" stroke-linecap="round" stroke-linejoin="round" stroke-miterlimit="10" d="M47.7 29.6v16.7" fill="none"/></g><g clip-path="url(#ak)"><defs><path id="dB" d="M44.8 33.3h5.8v5.8h-5.8z"/></defs><clipPath id="dC"><use xlink:href="#dB" overflow="visible"/></clipPath><g clip-path="url(#dC)"><defs><path id="dD" d="M10 1.9h330v240h-330z"/></defs><clipPath id="dE"><use xlink:href="#dD" overflow="visible"/></clipPath><path clip-path="url(#dE)" fill="#fff" d="M39.8 28.3h15.8v15.8h-15.8z"/></g></g><g clip-path="url(#ak)"><defs><path id="dF" d="M10 1.9h330v240h-330z"/></defs><clipPath id="dG"><use xlink:href="#dF" overflow="visible"/></clipPath><path clip-path="url(#dG)" stroke="#4D5D69" stroke-linecap="round" stroke-linejoin="round" stroke-miterlimit="10" d="M44.8 33.3h5.8v5.8h-5.8z" fill="none"/></g><g clip-path="url(#ak)"><defs><path id="dH" d="M61.6 29.6v16.7"/></defs><clipPath id="dI"><use xlink:href="#dH" overflow="visible"/></clipPath><g clip-path="url(#dI)"><defs><path id="dJ" d="M10 1.9h330v240h-330z"/></defs><clipPath id="dK"><use xlink:href="#dJ" overflow="visible"/></clipPath><path clip-path="url(#dK)" fill="#fff" d="M56.6 24.6h10v26.6h-10z"/></g></g><g clip-path="url(#ak)"><defs><path id="dL" d="M10 1.9h330v240h-330z"/></defs><clipPath id="dM"><use xlink:href="#dL" overflow="visible"/></clipPath><path clip-path="url(#dM)" stroke="#4D5D69" stroke-linecap="round" stroke-linejoin="round" stroke-miterlimit="10" d="M61.6 29.6v16.7" fill="none"/></g><g clip-path="url(#ak)"><defs><path id="dN" d="M58.7 37.9h5.8v5.8h-5.8z"/></defs><clipPath id="dO"><use xlink:href="#dN" overflow="visible"/></clipPath><g clip-path="url(#dO)"><defs><path id="dP" d="M10 1.9h330v240h-330z"/></defs><clipPath id="dQ"><use xlink:href="#dP" overflow="visible"/></clipPath><path clip-path="url(#dQ)" fill="#fff" d="M53.7 32.9h15.8v15.8h-15.8z"/></g></g><g clip-path="url(#ak)"><defs><path id="dR" d="M10 1.9h330v240h-330z"/></defs><clipPath id="dS"><use xlink:href="#dR" overflow="visible"/></clipPath><path clip-path="url(#dS)" stroke="#4D5D69" stroke-linecap="round" stroke-linejoin="round" stroke-miterlimit="10" d="M58.7 37.9h5.8v5.8h-5.8z" fill="none"/></g><g clip-path="url(#ak)"><defs><path id="dT" d="M75.4 29.6v16.7"/></defs><clipPath id="dU"><use xlink:href="#dT" overflow="visible"/></clipPath><g clip-path="url(#dU)"><defs><path id="dV" d="M10 1.9h330v240h-330z"/></defs><clipPath id="dW"><use xlink:href="#dV" overflow="visible"/></clipPath><path clip-path="url(#dW)" fill="#fff" d="M70.4 24.6h10v26.6h-10z"/></g></g><g clip-path="url(#ak)"><defs><path id="dX" d="M10 1.9h330v240h-330z"/></defs><clipPath id="dY"><use xlink:href="#dX" overflow="visible"/></clipPath><path clip-path="url(#dY)" stroke="#4D5D69" stroke-linecap="round" stroke-linejoin="round" stroke-miterlimit="10" d="M75.4 29.6v16.7" fill="none"/></g><g clip-path="url(#ak)"><defs><path id="dZ" d="M72.5 33.3h5.8v5.8h-5.8z"/></defs><clipPath id="ea"><use xlink:href="#dZ" overflow="visible"/></clipPath><g clip-path="url(#ea)"><defs><path id="eb" d="M10 1.9h330v240h-330z"/></defs><clipPath id="ec"><use xlink:href="#eb" overflow="visible"/></clipPath><path clip-path="url(#ec)" fill="#fff" d="M67.5 28.3h15.8v15.8h-15.8z"/></g></g><g clip-path="url(#ak)"><defs><path id="ed" d="M10 1.9h330v240h-330z"/></defs><clipPath id="ee"><use xlink:href="#ed" overflow="visible"/></clipPath><path clip-path="url(#ee)" stroke="#4D5D69" stroke-linecap="round" stroke-linejoin="round" stroke-miterlimit="10" d="M72.5 33.3h5.8v5.8h-5.8z" fill="none"/><path clip-path="url(#ee)" stroke="#4D5D69" stroke-linecap="round" stroke-linejoin="round" stroke-miterlimit="10" stroke-dasharray="1,2" d="M78.2 190.5v34.6h51.2" fill="none"/></g><g clip-path="url(#ak)"><defs><path id="ef" d="M78.2 184.2c1.6 0 3 1.3 3 3 0 1.6-1.3 3-3 3s-3-1.3-3-3 1.4-3 3-3"/></defs><clipPath id="eg"><use xlink:href="#ef" overflow="visible"/></clipPath><g clip-path="url(#eg)"><defs><path id="eh" d="M10 1.9h330v240h-330z"/></defs><clipPath id="ei"><use xlink:href="#eh" overflow="visible"/></clipPath><path clip-path="url(#ei)" fill="#fff" d="M70.2 179.2h15.9v15.9h-15.9z"/></g></g><g clip-path="url(#ak)"><defs><path id="ej" d="M10 1.9h330v240h-330z"/></defs><clipPath id="ek"><use xlink:href="#ej" overflow="visible"/></clipPath><ellipse clip-path="url(#ek)" stroke="#4D5D69" stroke-width=".711" stroke-linecap="round" stroke-linejoin="round" stroke-miterlimit="10" cx="78.2" cy="187.1" rx="3" ry="3" fill="none"/><path clip-path="url(#ek)" stroke="#4D5D69" stroke-linecap="round" stroke-linejoin="round" stroke-miterlimit="10" d="M28.7 73c-.3.3-.7.6-1 1" fill="none"/><path clip-path="url(#ek)" stroke="#4D5D69" stroke-linecap="round" stroke-linejoin="round" stroke-miterlimit="10" stroke-dasharray="1,1.968" d="M24.1 78c-7.8 10-12.7 24.8-12.7 41.3 0 16.3 4.8 30.8 12.3 40.8" fill="none"/><path clip-path="url(#ek)" stroke="#4D5D69" stroke-linecap="round" stroke-linejoin="round" stroke-miterlimit="10" d="M25.4 162.3c.3.4.6.7.9 1" fill="none"/></g><g clip-path="url(#ak)"><defs><path id="el" d="M31 73.9c1.6 0 3-1.3 3-3 0-1.6-1.3-3-3-3-1.6 0-3 1.3-3 3s1.4 3 3 3"/></defs><clipPath id="em"><use xlink:href="#el" overflow="visible"/></clipPath><g clip-path="url(#em)"><defs><path id="en" d="M10 1.9h330v240h-330z"/></defs><clipPath id="eo"><use xlink:href="#en" overflow="visible"/></clipPath><path clip-path="url(#eo)" fill="#fff" d="M23 63h15.9v15.9h-15.9z"/></g></g><g clip-path="url(#ak)"><defs><path id="ep" d="M10 1.9h330v240h-330z"/></defs><clipPath id="eq"><use xlink:href="#ep" overflow="visible"/></clipPath><ellipse clip-path="url(#eq)" stroke="#4D5D69" stroke-width=".711" stroke-linecap="round" stroke-linejoin="round" stroke-miterlimit="10" cx="31" cy="70.9" rx="3" ry="3" fill="none"/><path clip-path="url(#eq)" stroke="#4D5D69" stroke-linecap="round" stroke-linejoin="round" stroke-miterlimit="10" d="M321.3 158.3c.3-.3.7-.6 1-1" fill="none"/><path clip-path="url(#eq)" stroke="#4D5D69" stroke-linecap="round" stroke-linejoin="round" stroke-miterlimit="10" stroke-dasharray="1,1.968" d="M325.9 153.2c7.8-10 12.7-24.8 12.7-41.3 0-16.3-4.8-30.8-12.3-40.8" fill="none"/><path clip-path="url(#eq)" stroke="#4D5D69" stroke-linecap="round" stroke-linejoin="round" stroke-miterlimit="10" d="M324.5 69c-.3-.4-.6-.7-.9-1" fill="none"/></g><g clip-path="url(#ak)"><defs><path id="er" d="M319 157.4c-1.6 0-3 1.3-3 3 0 1.6 1.3 3 3 3 1.6 0 3-1.3 3-3-.1-1.7-1.4-3-3-3"/></defs><clipPath id="es"><use xlink:href="#er" overflow="visible"/></clipPath><g clip-path="url(#es)"><defs><path id="et" d="M10 1.9h330v240h-330z"/></defs><clipPath id="eu"><use xlink:href="#et" overflow="visible"/></clipPath><path clip-path="url(#eu)" fill="#fff" d="M311 152.4h15.9v15.9h-15.9z"/></g></g><g clip-path="url(#ak)"><defs><path id="ev" d="M10 1.9h330v240h-330z"/></defs><clipPath id="ew"><use xlink:href="#ev" overflow="visible"/></clipPath><ellipse clip-path="url(#ew)" stroke="#4D5D69" stroke-width=".711" stroke-linecap="round" stroke-linejoin="round" stroke-miterlimit="10" cx="319" cy="160.3" rx="3" ry="3" fill="none"/></g><g clip-path="url(#ak)"><defs><path id="ex" d="M264.2 17.1h13.4v13.4h-13.4z"/></defs><clipPath id="ey"><use xlink:href="#ex" overflow="visible"/></clipPath><g clip-path="url(#ey)"><defs><path id="ez" d="M10 1.9h330v240h-330z"/></defs><clipPath id="eA"><use xlink:href="#ez" overflow="visible"/></clipPath><path clip-path="url(#eA)" fill="#fff" d="M259.2 12.1h23.4v23.4h-23.4z"/></g></g><g clip-path="url(#ak)"><defs><path id="eB" d="M10 1.9h330v240h-330z"/></defs><clipPath id="eC"><use xlink:href="#eB" overflow="visible"/></clipPath><path clip-path="url(#eC)" stroke="#4D5D69" stroke-width=".529" stroke-linecap="round" stroke-linejoin="round" stroke-miterlimit="10" d="M264.2 17.1h13.4v13.4h-13.4z" fill="none"/></g><g clip-path="url(#ak)"><defs><path id="eD" d="M271.9 24.8c0 .5-.4 1-1 1-.5 0-1-.4-1-1 0-.5.4-1 1-1 .5 0 1 .5 1 1"/></defs><clipPath id="eE"><use xlink:href="#eD" overflow="visible"/></clipPath><g clip-path="url(#eE)"><defs><path id="eF" d="M10 1.9h330v240h-330z"/></defs><clipPath id="eG"><use xlink:href="#eF" overflow="visible"/></clipPath><path clip-path="url(#eG)" fill="#fff" d="M265 18.8h11.9v11.9h-11.9z"/></g></g><g clip-path="url(#ak)"><defs><path id="eH" d="M10 1.9h330v240h-330z"/></defs><clipPath id="eI"><use xlink:href="#eH" overflow="visible"/></clipPath><circle clip-path="url(#eI)" stroke="#4D5D69" stroke-width=".4" stroke-linecap="round" stroke-linejoin="round" stroke-miterlimit="10" cx="270.9" cy="24.8" r="1" fill="none"/></g><g clip-path="url(#ak)"><defs><path id="eJ" d="M270.9 26.3v2"/></defs><clipPath id="eK"><use xlink:href="#eJ" overflow="visible"/></clipPath><g clip-path="url(#eK)"><defs><path id="eL" d="M10 1.9h330v240h-330z"/></defs><clipPath id="eM"><use xlink:href="#eL" overflow="visible"/></clipPath><path clip-path="url(#eM)" fill="#fff" d="M265.9 21.3h10v12h-10z"/></g></g><g clip-path="url(#ak)"><defs><path id="eN" d="M10 1.9h330v240h-330z"/></defs><clipPath id="eO"><use xlink:href="#eN" overflow="visible"/></clipPath><path clip-path="url(#eO)" stroke="#4D5D69" stroke-width=".4" stroke-linecap="round" stroke-linejoin="round" stroke-miterlimit="10" d="M270.9 26.3v2" fill="none"/></g></g></g><path stroke="#4D5D69" stroke-width="1.44" stroke-linecap="round" stroke-linejoin="round" stroke-miterlimit="10" d="M147.7 171.9v-5.6h60.3v5.6" fill="none"/></svg>