<svg xmlns="http://www.w3.org/2000/svg" viewBox="0 0 64 64" enable-background="new 0 0 64 64"><path stroke="#4C5C68" stroke-linecap="round" stroke-linejoin="round" stroke-miterlimit="10" d="M40.9 45.1h-36.3c-.8 0-1.5-.7-1.5-1.5v-32.8c0-.8.7-1.5 1.5-1.5h45c.8 0 1.5.7 1.5 1.5v17.9m-47.7 10.7h37.4m-16.8 2.1h5m-5.5-9.5v2m3-2v2m3-2v2M20.4 45.1h13.6v6.7h-13.6zm-3.1 8.6v-1.9h20.8v1.9" fill="none"/><path fill="#CEE8FA" d="M47.8 36.3h-41.2v-23.5h41.2v16.9z"/><path fill="#fff" d="M60.9 37.4v17.3h-17.3v-22.8h12.2"/><path stroke="#4C5C68" stroke-linecap="round" stroke-linejoin="round" stroke-miterlimit="10" d="M43.3 48.7v-17.1h12.3" fill="none"/><path fill="#CEE8FA" stroke="#4C5C68" stroke-linecap="round" stroke-linejoin="round" stroke-miterlimit="10" d="M55.6 31.6v5.7h5.3z"/><path stroke="#4C5C68" stroke-linecap="round" stroke-linejoin="round" stroke-miterlimit="10" d="M50.8 39.4h6.7M50.8 41.5h4.5M46 43.5h9.7M46 45.9h9.7M46 48h9.7M47.1 50h8.5" fill="none"/><path fill="#F9CA38" stroke="#4C5C68" stroke-linecap="round" stroke-linejoin="round" stroke-miterlimit="10" d="M46 38.3h3.1v3.1h-3.1z"/><path stroke="#4C5C68" stroke-linecap="round" stroke-linejoin="round" stroke-miterlimit="10" d="M60.8 37.3v17h-17.5v-6" fill="none"/></svg>