<svg xmlns="http://www.w3.org/2000/svg" viewBox="0 0 64 64" enable-background="new 0 0 64 64"><g fill="#fff" stroke="#4C5C68"><path d="M32.237 38.815h-28.1v-16h28.1zM31.8 37.1h-27.2"/></g><path stroke="#4C5C68" d="M20.5 21.6l5.6-5.2h8.6l4.2 1.4h8v10.5h-3.2s-4.4 3.1-8 3" fill="none"/><path fill="#fff" stroke="#FEBD2E" d="M25.2 33.5h2.2l1.3-1.7v-2.6l-1.2-1.7h-2.3"/><path fill="#fff" stroke="#4C5C68" d="M30 21.2l-5.6 5.6s-1.6 3.4 3.4 3.4l5-5s4.7.4 8.5-3.5"/><path fill="#FEBD2E" stroke="#4C5C68" d="M56.8 30.5h-10v-15.1h10"/><path fill="#fff" stroke="#FEBD2E" d="M10.6 27.5h-2.2l-1.3 1.7v2.6l1.1 1.7h2.4"/><ellipse fill="#fff" stroke="#4C5C68" stroke-linecap="round" stroke-linejoin="round" stroke-miterlimit="10" cx="17.8" cy="30.2" rx="4.8" ry="4.8"/><ellipse fill="#286090" cx="17.8" cy="30.2" rx="3.8" ry="3.8"/><path fill="#CEE8FA" d="M18 27.9c.1 0 .2.1.2.2v.1c.3 0 .6.1.8.3.1 0 .2.1.2.3 0 .2-.1.3-.3.3h-.2c-.2-.1-.4-.2-.5-.2v1c.8.2 1.2.5 1.2 1.1 0 .6-.5 1-1.1 1v.3c0 .1-.1.2-.2.2s-.2-.1-.2-.2v-.3c-.4 0-.8-.2-1.1-.4-.1-.1-.1-.1-.1-.3 0-.2.1-.3.3-.3.1 0 .1 0 .2.1.3.2.5.3.8.4v-1c-.8-.2-1.1-.5-1.1-1.1 0-.6.5-1 1.1-1v-.1c-.2-.3-.1-.4 0-.4zm-.2 1.8v-.9c-.3 0-.5.2-.5.4 0 .3.1.4.5.5zm.4.8v1c.3 0 .5-.2.5-.5s-.1-.4-.5-.5z"/><path fill="#fff" d="M49.4 48.1c-5.5 0-10-4.5-10-10s4.5-10 10-10 10 4.5 10 10-4.5 10-10 10z"/><path fill="#4C5C68" d="M49.4 28.7c5.2 0 9.5 4.2 9.5 9.5s-4.2 9.5-9.5 9.5-9.5-4.2-9.5-9.5 4.2-9.5 9.5-9.5m0-1c-5.8 0-10.5 4.7-10.5 10.5s4.7 10.5 10.5 10.5 10.5-4.7 10.5-10.5-4.8-10.5-10.5-10.5z"/><path fill="#fff" stroke="#4C5C68" stroke-linecap="round" stroke-linejoin="round" stroke-miterlimit="10" d="M49.1 32.6v6l3.2 3.2"/><circle fill="#fff" cx="49.2" cy="37.7" r=".5"/><path fill="#4C5C68" d="M49.2 37.2c-.3 0-.5.2-.5.5s.2.5.5.5.5-.2.5-.5-.3-.5-.5-.5z"/><circle fill="#fff" cx="49.2" cy="38.5" r="1.3"/><path fill="#4C5C68" d="M49.2 37.7c.5 0 .8.4.8.8s-.4.8-.8.8-.8-.4-.8-.8.3-.8.8-.8m0-1c-1 0-1.8.8-1.8 1.8s.8 1.8 1.8 1.8 1.8-.8 1.8-1.8-.8-1.8-1.8-1.8z"/></svg>