<?xml version="1.0" encoding="utf-8"?>
<!-- Generator: Adobe Illustrator 22.0.1, SVG Export Plug-In . SVG Version: 6.00 Build 0)  -->
<svg version="1.1" xmlns="http://www.w3.org/2000/svg" xmlns:xlink="http://www.w3.org/1999/xlink" x="0px" y="0px"
	 viewBox="0 0 64 64" style="enable-background:new 0 0 64 64;" xml:space="preserve">
<style type="text/css">
	.st0{fill:#CEE8FA;}
	.st1{fill:#286090;}
	.st2{fill:#FFFFFF;stroke:#4C5C68;stroke-miterlimit:10;}
	.st3{fill:#F9CA38;}
	.st4{fill:#CEE8FA;stroke:#4C5C68;stroke-linecap:round;stroke-linejoin:round;stroke-miterlimit:10;}
	.st5{fill:#FFFFFF;stroke:#4C5C68;stroke-linecap:round;stroke-linejoin:round;stroke-miterlimit:10;}
	.st6{fill:none;stroke:#4C5C68;stroke-linecap:round;stroke-linejoin:round;stroke-miterlimit:10;}
	.st7{fill:#FFFFFF;}
	.st8{fill:#4C5C68;}
	.st9{fill:#F9CA38;stroke:#4C5C68;stroke-linecap:round;stroke-linejoin:round;stroke-miterlimit:10;}
	.st10{fill:#FFFFFF;stroke:#FEBD2E;stroke-linecap:round;stroke-linejoin:round;stroke-miterlimit:10;}
	.st11{fill:#FEBD2E;stroke:#4C5C68;stroke-linecap:round;stroke-linejoin:round;stroke-miterlimit:10;}
	.st12{fill:#969696;}
	.st13{fill:#FFFFFF;stroke:#4C5C68;stroke-width:1.2173;stroke-linecap:round;stroke-linejoin:round;stroke-miterlimit:10;}
	.st14{fill:#FFFFFF;stroke:#4C5C68;stroke-width:0.8881;stroke-linecap:round;stroke-linejoin:round;stroke-miterlimit:10;}
	.st15{fill:none;stroke:#CEE8FA;stroke-width:1.0985;stroke-linecap:round;stroke-linejoin:round;stroke-miterlimit:10;}
	.st16{opacity:0.6;fill:#286090;}
	.st17{fill:none;stroke:#4C5C68;stroke-width:1.0254;stroke-linecap:round;stroke-linejoin:round;stroke-miterlimit:10;}
	.st18{fill:none;stroke:#286090;stroke-linecap:round;stroke-linejoin:round;stroke-miterlimit:10;stroke-dasharray:0,2;}
	.st19{fill:none;stroke:#286090;stroke-linecap:round;stroke-linejoin:round;stroke-miterlimit:10;}
	.st20{fill:#FEBD2E;}
	.st21{fill:none;stroke:#CEE8FA;stroke-linecap:round;stroke-linejoin:round;stroke-miterlimit:10;}
	.st22{fill:#FFFFFF;stroke:#4C5C68;stroke-width:1.1073;stroke-miterlimit:10;}
	.st23{fill:#CEE8FA;stroke:#4C5C68;stroke-width:1.1073;stroke-linecap:round;stroke-linejoin:round;stroke-miterlimit:10;}
	.st24{fill:#FFFFFF;stroke:#4C5C68;stroke-width:1.1073;stroke-linecap:round;stroke-linejoin:round;stroke-miterlimit:10;}
	.st25{fill:none;stroke:#4C5C68;stroke-width:1.1073;stroke-linecap:round;stroke-linejoin:round;stroke-miterlimit:10;}
	.st26{fill:#FFFFFF;stroke:#4C5C68;stroke-width:1.0096;stroke-miterlimit:10;}
	.st27{fill:#286090;stroke:#4C5C68;stroke-width:1.0096;stroke-linecap:round;stroke-linejoin:round;stroke-miterlimit:10;}
	.st28{fill:#FFFFFF;stroke:#4C5C68;stroke-width:1.0096;stroke-linecap:round;stroke-linejoin:round;stroke-miterlimit:10;}
	.st29{fill:none;stroke:#4C5C68;stroke-width:1.0096;stroke-linecap:round;stroke-linejoin:round;stroke-miterlimit:10;}
	.st30{fill:#FFFFFF;stroke:#4C5C68;stroke-width:1.0964;stroke-miterlimit:10;}
	.st31{fill:#CEE8FA;stroke:#4C5C68;stroke-width:1.0964;stroke-linecap:round;stroke-linejoin:round;stroke-miterlimit:10;}
	.st32{fill:#FFFFFF;stroke:#4C5C68;stroke-width:1.0964;stroke-linecap:round;stroke-linejoin:round;stroke-miterlimit:10;}
	.st33{fill:none;stroke:#4C5C68;stroke-width:1.0964;stroke-linecap:round;stroke-linejoin:round;stroke-miterlimit:10;}
	.st34{fill:none;stroke:#4C5C68;stroke-width:1.0985;stroke-linecap:round;stroke-linejoin:round;stroke-miterlimit:10;}
	.st35{fill:none;stroke:#333333;stroke-width:2;stroke-linecap:round;stroke-linejoin:round;stroke-miterlimit:10;}
	.st36{fill:#FFFFFF;stroke:#4C5C68;stroke-width:1.2007;stroke-linecap:round;stroke-linejoin:round;stroke-miterlimit:10;}
	.st37{fill:#CEE8FA;stroke:#4C5C68;stroke-width:1.2007;stroke-linecap:round;stroke-linejoin:round;stroke-miterlimit:10;}
	
		.st38{fill:none;stroke:#4C5C68;stroke-width:1.2007;stroke-linecap:round;stroke-linejoin:round;stroke-miterlimit:10;stroke-dasharray:1.2007,3.6021;}
	.st39{fill:#FEBD2E;stroke:#4C5C68;stroke-width:1.2007;stroke-linecap:round;stroke-linejoin:round;stroke-miterlimit:10;}
	.st40{fill:none;stroke:#4C5C68;stroke-width:1.0828;stroke-linecap:round;stroke-linejoin:round;stroke-miterlimit:10;}
	.st41{fill:none;stroke:#4C5C68;stroke-width:1.1103;stroke-linecap:round;stroke-linejoin:round;stroke-miterlimit:10;}
	.st42{fill:#FFFFFF;stroke:#4C5C68;stroke-width:1.1517;stroke-linecap:round;stroke-linejoin:round;stroke-miterlimit:10;}
	.st43{fill:#CEE8FA;stroke:#4C5C68;stroke-width:0.965;stroke-linecap:round;stroke-linejoin:round;stroke-miterlimit:10;}
	.st44{fill:#286090;stroke:#4C5C68;stroke-width:0.9531;stroke-linecap:round;stroke-linejoin:round;stroke-miterlimit:10;}
	.st45{fill:none;stroke:#4C5C68;stroke-width:1.1517;stroke-linecap:round;stroke-linejoin:round;stroke-miterlimit:10;}
	.st46{fill:#FFFFFF;stroke:#4C5C68;stroke-width:0.9551;stroke-linecap:round;stroke-linejoin:round;stroke-miterlimit:10;}
	.st47{fill:#FFFFFF;stroke:#4C5C68;stroke-width:1.1517;stroke-miterlimit:10;}
	.st48{fill:none;stroke:#4C5C68;stroke-width:0.6689;stroke-linecap:round;stroke-linejoin:round;stroke-miterlimit:10;}
	.st49{fill:#F9CA38;stroke:#4C5C68;stroke-width:0.6689;stroke-linecap:round;stroke-linejoin:round;stroke-miterlimit:10;}
	.st50{fill:#286090;stroke:#4C5C68;stroke-width:0.6689;stroke-linecap:round;stroke-linejoin:round;stroke-miterlimit:10;}
	.st51{fill:#4C5C68;stroke:#4C5C68;stroke-width:0.2347;stroke-linecap:round;stroke-linejoin:round;stroke-miterlimit:10;}
	.st52{fill:#CEE8FA;stroke:#4C5C68;stroke-width:0.8962;stroke-linecap:round;stroke-linejoin:round;stroke-miterlimit:10;}
	.st53{fill:#FFFFFF;stroke:#4C5C68;stroke-width:0.8962;stroke-linecap:round;stroke-linejoin:round;stroke-miterlimit:10;}
	.st54{fill:none;stroke:#4C5C68;stroke-width:0.8962;stroke-linecap:round;stroke-linejoin:round;stroke-miterlimit:10;}
	.st55{fill:none;stroke:#F9CA38;stroke-linecap:round;stroke-linejoin:round;stroke-miterlimit:10;}
	.st56{fill:#4C5C68;stroke:#4C5C68;stroke-width:0.3;stroke-miterlimit:10;}
	.st57{fill:#CEE8FA;stroke:#4C5C68;stroke-width:0.8552;stroke-linecap:round;stroke-linejoin:round;stroke-miterlimit:10;}
	.st58{fill:#FFFFFF;stroke:#4C5C68;stroke-width:0.8552;stroke-linecap:round;stroke-linejoin:round;stroke-miterlimit:10;}
	
		.st59{fill:none;stroke:#4C5C68;stroke-width:0.8552;stroke-linecap:round;stroke-linejoin:round;stroke-miterlimit:10;stroke-dasharray:0.8552,2.5656;}
	.st60{fill:#286090;stroke:#4C5C68;stroke-linecap:round;stroke-linejoin:round;stroke-miterlimit:10;}
	.st61{fill:#286090;stroke:#FFFFFF;stroke-width:2;stroke-miterlimit:10;}
	.st62{fill:none;stroke:#4C5C68;stroke-width:0.8191;stroke-linecap:round;stroke-linejoin:round;stroke-miterlimit:10;}
	.st63{fill:#FEBD2E;stroke:#4C5C68;stroke-width:0.8191;stroke-linecap:round;stroke-linejoin:round;stroke-miterlimit:10;}
	.st64{fill:#FFFFFF;stroke:#4C5C68;stroke-width:0.9531;stroke-linecap:round;stroke-linejoin:round;stroke-miterlimit:10;}
	.st65{fill:none;stroke:#4C5C68;stroke-width:0.9531;stroke-linecap:round;stroke-linejoin:round;stroke-miterlimit:10;}
	.st66{fill:none;stroke:#F9CA38;stroke-width:1.1858;stroke-miterlimit:10;}
	.st67{fill:#CEE8FA;stroke:#4C5C68;stroke-width:0.9531;stroke-linecap:round;stroke-linejoin:round;stroke-miterlimit:10;}
	.st68{fill:#FFFFFF;stroke:#4C5C68;stroke-width:0.965;stroke-linecap:round;stroke-linejoin:round;stroke-miterlimit:10;}
	.st69{fill:#F9CA38;stroke:#4C5C68;stroke-width:0.965;stroke-linecap:round;stroke-linejoin:round;stroke-miterlimit:10;}
	.st70{fill:#434343;}
	.st71{fill:#98C948;}
	.st72{fill:none;stroke:#2C3251;stroke-width:0.5;stroke-linecap:round;stroke-linejoin:round;stroke-miterlimit:10;}
	.st73{fill:#5FB0E5;}
	.st74{fill:#D2E9F7;}
	.st75{fill:#0686D8;}
	.st76{fill:#9ECFEF;}
	.st77{fill:none;stroke:#4C5C68;stroke-miterlimit:10;}
	.st78{fill:#4C5C68;stroke:#4C5C68;stroke-width:0.4;stroke-linecap:round;stroke-linejoin:round;stroke-miterlimit:10;}
	.st79{fill:none;stroke:#4C5C68;stroke-width:0.9106;stroke-miterlimit:10;}
	.st80{fill:#CEE8FA;stroke:#4C5C68;stroke-width:0.6053;stroke-linecap:round;stroke-linejoin:round;stroke-miterlimit:10;}
	.st81{fill:#FFFFFF;stroke:#4C5C68;stroke-width:0.6053;stroke-linecap:round;stroke-linejoin:round;stroke-miterlimit:10;}
	.st82{fill:#4C5C68;stroke:#FFFFFF;stroke-width:0.5;stroke-linecap:round;stroke-linejoin:round;stroke-miterlimit:10;}
	.st83{fill:#595959;}
	.st84{fill:none;stroke:#4C5C68;stroke-width:0.9106;stroke-linecap:round;stroke-linejoin:round;stroke-miterlimit:10;}
	.st85{fill:none;stroke:#4C5C68;stroke-width:0.8497;stroke-linecap:round;stroke-linejoin:round;stroke-miterlimit:10;}
	.st86{fill:#4C5C68;stroke:#4C5C68;stroke-width:0.2707;stroke-linecap:round;stroke-linejoin:round;stroke-miterlimit:10;}
	.st87{fill:#41464B;}
	.st88{fill:#FED65C;}
	.st89{fill:#FFFFFF;stroke:#000000;stroke-linecap:round;stroke-linejoin:round;stroke-miterlimit:10;}
	.st90{fill:#FFFFFF;stroke:#4C5C68;stroke-width:0.9809;stroke-linecap:round;stroke-linejoin:round;stroke-miterlimit:10;}
	.st91{fill:#5D5D5D;}
	.st92{fill:none;stroke:#4C5C68;stroke-width:1.0654;stroke-miterlimit:10;}
	.st93{fill:#FFFFFF;stroke:#4C5C68;stroke-width:1.0654;stroke-miterlimit:10;}
	.st94{fill:#FFFFFF;stroke:#4C5C68;stroke-width:1.0654;stroke-linecap:round;stroke-linejoin:round;stroke-miterlimit:10;}
	.st95{fill:none;stroke:#4C5C68;stroke-width:1.3058;stroke-miterlimit:10;}
	.st96{fill:#FFFFFF;stroke:#4C5C68;stroke-width:1.1061;stroke-miterlimit:10;}
	.st97{fill:#CEE8FA;stroke:#4C5C68;stroke-width:1.1061;stroke-linecap:round;stroke-linejoin:round;stroke-miterlimit:10;}
	.st98{fill:#FFFFFF;stroke:#4C5C68;stroke-width:1.1061;stroke-linecap:round;stroke-linejoin:round;stroke-miterlimit:10;}
	.st99{fill:none;stroke:#4C5C68;stroke-width:1.1061;stroke-linecap:round;stroke-linejoin:round;stroke-miterlimit:10;}
	.st100{fill:#FFFFFF;stroke:#4C5C68;stroke-width:0.4976;stroke-linecap:round;stroke-linejoin:round;stroke-miterlimit:10;}
	.st101{fill:none;stroke:#4C5C68;stroke-width:0.4976;stroke-linecap:round;stroke-linejoin:round;stroke-miterlimit:10;}
	.st102{fill:#FFFFFF;stroke:#FEBD2E;stroke-width:0.4976;stroke-linecap:round;stroke-linejoin:round;stroke-miterlimit:10;}
</style>
<g id="Layer_2">
</g>
<g id="Layer_1">
	<g>
		<polygon id="XMLID_1490_" class="st96" points="6.2,44.7 17.6,40.2 31.2,33.7 44.1,40.4 55.1,44.8 55.1,57.7 6.2,57.7 		"/>
		<path id="XMLID_604_" class="st3" d="M20,39.6l7.1,17.6c0,0,5.5,0,7,0l7.7-17.7L31,34.4L20,39.6z"/>
		<path id="XMLID_600_" class="st97" d="M32.7,4.2c-6-0.2-8.1,1.4-10.2,3.9c-1.9,2.4-2.1,5.9-2.1,5.9l0.2,11h21.6l0.2-12.7
			C42.4,12.4,41.3,4.5,32.7,4.2z"/>
		<path id="XMLID_599_" class="st98" d="M32,45.8h-1.5c-3.2,0-5.7-2.6-5.7-5.7v-5.9h13v5.9C37.7,43.3,35.1,45.8,32,45.8z"/>
		<path id="XMLID_598_" class="st98" d="M33.6,36.5H28c-3.3,0-5.5-3-5.5-6.4v-2.6c-1.2,0-0.3,0-0.4,0c-1.1,0-2.1-0.9-2.1-1.9
			s1-1.9,2-1.9c0.1,0-0.7,0,0.5,0V11h17.6v12.8c0,0,0.3,0,0.4,0c1.1,0,1.9,0.9,1.9,1.9s-0.9,1.9-1.9,1.9c-0.1,0-0.4,0-0.4,0v2.7
			c0,1.8-1.1,3.5-2.4,4.7"/>
		<path id="XMLID_597_" class="st0" d="M40.5,10.1l0.3,2.1l-3.9-1l-0.7,3l-7-1.2l1.3,4.1c0,0-5.5-4.2-6.4-5c0,0-2.1-0.4-2,1
			c0,0-1.3-1.3,0.3-2.9"/>
		<path id="XMLID_596_" class="st99" d="M40,12.3l-3.2-1.1l-0.7,3l-7-1.2l1.3,4.1c0,0-5.8-4.2-6.7-5c0,0-1.3,0.1-1.2,1.5"/>
		<polyline id="XMLID_595_" class="st99" points="16.5,40.9 16.5,51.7 20.6,51.7 19.6,54.7 		"/>
		<polyline id="XMLID_594_" class="st99" points="42.7,39.8 42.7,51.5 40.6,51.5 40.6,54.9 		"/>
		<line id="XMLID_556_" class="st99" x1="20.1" y1="39.8" x2="27.4" y2="57.4"/>
		<line id="XMLID_393_" class="st99" x1="41.6" y1="39.4" x2="34.4" y2="57.4"/>
	</g>
	<g id="XMLID_1491_">
		<circle class="st7" cx="50.7" cy="49" r="10.1"/>
		<g>
			<path class="st8" d="M50.7,39.4c5.3,0,9.6,4.3,9.6,9.6s-4.3,9.6-9.6,9.6c-5.3,0-9.6-4.3-9.6-9.6S45.4,39.4,50.7,39.4 M50.7,38.4
				c-5.8,0-10.6,4.7-10.6,10.6s4.7,10.6,10.6,10.6c5.8,0,10.6-4.7,10.6-10.6S56.6,38.4,50.7,38.4L50.7,38.4z"/>
		</g>
	</g>
	<g>
		<rect id="XMLID_1489_" x="44" y="50" class="st0" width="13.6" height="3.8"/>
		<polyline id="XMLID_1488_" class="st100" points="57.6,45.4 57.6,50 43.9,50 43.9,44.1 57.6,44.1 		"/>
		<g id="XMLID_1483_">
			<line id="XMLID_1487_" class="st101" x1="43.9" y1="50.9" x2="57.6" y2="50.9"/>
			<line id="XMLID_1486_" class="st101" x1="43.9" y1="52" x2="57.6" y2="52"/>
			<line id="XMLID_1485_" class="st101" x1="43.9" y1="52.9" x2="57.6" y2="52.9"/>
			<line id="XMLID_1484_" class="st101" x1="43.9" y1="54" x2="57.6" y2="54"/>
		</g>
		<polyline id="XMLID_1482_" class="st102" points="46.6,45.1 45.8,45.1 44.9,46.1 44.9,47.4 45.7,48 46.6,48 		"/>
		<polyline id="XMLID_593_" class="st102" points="55.1,45.1 55.9,45.1 56.8,46.1 56.8,47.4 56,48 55.1,48 		"/>
		<g id="XMLID_1474_">
			<ellipse id="XMLID_1481_" class="st100" cx="50.9" cy="47" rx="2" ry="2"/>
			<ellipse id="XMLID_1480_" class="st1" cx="50.9" cy="47" rx="1.6" ry="1.5"/>
			<g id="XMLID_1475_">
				<path id="XMLID_1476_" class="st0" d="M50.9,46.1C50.9,46.1,51,46.1,50.9,46.1l0.1,0.1c0.1,0,0.2,0.1,0.3,0.1
					c0,0,0.1,0.1,0.1,0.1c0,0.1-0.1,0.1-0.1,0.1c0,0,0,0-0.1,0c-0.1,0-0.2-0.1-0.2-0.1v0.4c0.3,0.1,0.5,0.2,0.5,0.5
					c0,0.2-0.2,0.4-0.5,0.4v0.1c0,0.1,0,0.1-0.1,0.1c-0.1,0-0.1,0-0.1-0.1v-0.1c-0.2,0-0.3-0.1-0.4-0.2c0,0-0.1-0.1-0.1-0.1
					c0-0.1,0.1-0.1,0.1-0.1c0,0,0.1,0,0.1,0c0.1,0.1,0.2,0.1,0.3,0.1v-0.4c-0.3-0.1-0.5-0.2-0.5-0.5c0-0.2,0.2-0.4,0.5-0.4
					L50.9,46.1C50.8,46.1,50.8,46.1,50.9,46.1z M50.8,46.8v-0.4c-0.1,0-0.2,0.1-0.2,0.2C50.6,46.7,50.6,46.8,50.8,46.8z M50.9,47.1
					v0.4c0.1,0,0.2-0.1,0.2-0.2C51.2,47.3,51.1,47.2,50.9,47.1z"/>
			</g>
		</g>
		<line id="XMLID_1473_" class="st100" x1="46.2" y1="46.5" x2="47.6" y2="46.5"/>
		<line id="XMLID_1472_" class="st100" x1="54.1" y1="46.5" x2="55.6" y2="46.5"/>
	</g>
</g>
</svg>
