<svg xmlns="http://www.w3.org/2000/svg" viewBox="0 0 64 64" enable-background="new 0 0 64 64"><path fill="#fff" stroke="#4C5C68" stroke-miterlimit="10" d="M23.6 36.1l7.6-3 9-4.3 8.6 4.4 7.3 3v8.6h-32.5z"/><path fill="#F9CA38" d="M32.7 32.7l4.7 11.7h4.7l5.2-11.8-7.2-3.4-7.4 3.5z"/><path fill="#CEE8FA" stroke="#4C5C68" stroke-linecap="round" stroke-linejoin="round" stroke-miterlimit="10" d="M41.2 9.2c-4-.1-5.4.9-6.8 2.6-1.3 1.6-1.4 3.9-1.4 3.9l.1 7.3h14.4l.2-8.5c0 .1-.7-5.1-6.5-5.3z"/><path fill="#fff" stroke="#4C5C68" stroke-linecap="round" stroke-linejoin="round" stroke-miterlimit="10" d="M40.2 36.9c-2.4 0-4.3-1.9-4.3-4.3v-3.4h8.6v3.4c0 2.3-1.9 4.3-4.3 4.3zM41.8 30.6h-3.8c-2.2 0-3.6-2-3.6-4.2v-1.8h-.3c-.7 0-1.4-.6-1.4-1.3 0-.7.7-1.3 1.4-1.3h.3v-8.5h11.7v8.5h.3c.7 0 1.3.6 1.3 1.3 0 .7-.6 1.3-1.3 1.3h-.3v1.8c0 1.2-.7 2.3-1.6 3.1"/><path fill="#CEE8FA" d="M46.4 13.1l.2 1.4-2.6-.7-.5 2-4.7-.8.9 2.7s-3.6-2.8-4.2-3.4c0 0-1.4-.3-1.4.7 0 0-.8-.8.2-1.9"/><path stroke="#4C5C68" stroke-linecap="round" stroke-linejoin="round" stroke-miterlimit="10" d="M46.1 14.6l-2.1-.8-.5 2-4.7-.8.9 2.7s-3.8-2.8-4.4-3.3c0 0-.9.1-.8 1M30.4 33.6v7.2h2.8l-.7 2M48.5 33.6v5.9h-2l.3 2.5M32.8 32.8l4.9 11.8M47.1 32.6l-4.7 12" fill="none"/><path fill="#fff" stroke="#4C5C68" stroke-miterlimit="10" d="M8.5 43.5l8.7-3.4 10.3-4.9 9.8 5 8.3 3.4v9.8h-37.1z"/><path fill="#F9CA38" d="M19 39.6l5.4 13.4h5.3l5.9-13.4-8.3-3.9-8.3 3.9z"/><path fill="#CEE8FA" stroke="#4C5C68" stroke-linecap="round" stroke-linejoin="round" stroke-miterlimit="10" d="M28.6 12.8c-4.5-.2-6.2 1.1-7.7 3-1.4 1.8-1.6 4.4-1.6 4.4l.1 8.4h16.4l.2-9.6s-.8-6-7.4-6.2z"/><path fill="#fff" stroke="#4C5C68" stroke-linecap="round" stroke-linejoin="round" stroke-miterlimit="10" d="M27.6 44.3h-.2c-2.7 0-4.8-2.2-4.8-4.8v-3.9h9.8v3.9c0 2.7-2.1 4.8-4.8 4.8zM29.3 37.3h-4.3c-2.5 0-4.2-2.3-4.2-4.8v-2h-.3c-.8 0-1.6-.6-1.6-1.4s.7-1.4 1.5-1.4h.4v-9.7h13.3v9.7h.3c.8 0 1.4.6 1.4 1.4s-.6 1.4-1.4 1.4h-.3v2c0 1.4-.8 2.7-1.8 3.6"/><path fill="#CEE8FA" d="M34.5 17.3l.2 1.6-3-.8-.6 2.3-5.3-.9 1 3.1s-4.2-3.2-4.8-3.8c0 0-1.6-.3-1.5.8 0 0-1-1 .3-2.2"/><path stroke="#4C5C68" stroke-linecap="round" stroke-linejoin="round" stroke-miterlimit="10" d="M34.2 18.9l-2.4-.8-.6 2.3-5.3-.9 1 3.1s-4.4-3.2-5-3.8c0 0-1 .1-.9 1.2M16.3 41v7.5h3l-.7 2.6M35.5 40v8.5h-.9l-.3 2.8M19 39.8l5.6 13.3M35.3 39.5l-5.4 13.6" fill="none"/></svg>