<svg xmlns="http://www.w3.org/2000/svg" viewBox="0 0 64 64"><defs><style>.cls-1,.cls-11,.cls-14,.cls-4,.cls-7,.cls-9{fill:#fff;}.cls-1,.cls-10,.cls-11,.cls-13,.cls-14,.cls-15,.cls-3,.cls-4,.cls-6,.cls-7,.cls-8,.cls-9{stroke:#4c5c68;}.cls-1,.cls-11,.cls-7{stroke-miterlimit:10;}.cls-1,.cls-3,.cls-4,.cls-6{stroke-width:1.11px;}.cls-2,.cls-8{fill:#286090;}.cls-13,.cls-3,.cls-5{fill:#cee8fa;}.cls-10,.cls-13,.cls-14,.cls-15,.cls-3,.cls-4,.cls-6,.cls-8,.cls-9{stroke-linecap:round;stroke-linejoin:round;}.cls-10,.cls-15,.cls-6{fill:none;}.cls-10,.cls-7,.cls-8,.cls-9{stroke-width:1.01px;}.cls-11,.cls-13,.cls-14,.cls-15{stroke-width:1.1px;}.cls-12{fill:#f9ca38;}</style></defs><title>1</title><g id="Layer_1" data-name="Layer 1"><polygon id="_Path_" data-name="&lt;Path&gt;" class="cls-1" points="1.79 35.49 10.24 32.22 20.27 27.43 29.76 32.33 37.88 35.6 37.88 45.1 1.79 45.1 1.79 35.49"/><path id="_Path_2" data-name="&lt;Path&gt;" class="cls-2" d="M12,31.77l5.26,12.94h5.18l5.7-13-8-3.74Z"/><path id="_Path_3" data-name="&lt;Path&gt;" class="cls-3" d="M21.36,5.68c-4.41-.16-6,1-7.49,2.88a8.69,8.69,0,0,0-1.56,4.31L12.43,21H28.34l.17-9.36A7.2,7.2,0,0,0,21.36,5.68Z"/><path id="_Rectangle_" data-name="&lt;Rectangle&gt;" class="cls-4" d="M15.47,27.81H25a0,0,0,0,1,0,0v3.75a4.78,4.78,0,0,1-4.78,4.78h0a4.78,4.78,0,0,1-4.78-4.78V27.81A0,0,0,0,1,15.47,27.81Z"/><path id="_Path_4" data-name="&lt;Path&gt;" class="cls-4" d="M22,29.5H17.89c-2.45,0-4-2.23-4-4.68V22.88c-.86,0-.24,0-.29,0A1.53,1.53,0,0,1,12,21.49a1.49,1.49,0,0,1,1.5-1.4c.05,0-.52,0,.34,0V10.68H26.79v9.44a1,1,0,0,1,.3,0,1.4,1.4,0,0,1,0,2.8,1,1,0,0,1-.3,0v2A5.06,5.06,0,0,1,25,28.29"/><path id="_Path_5" data-name="&lt;Path&gt;" class="cls-5" d="M27.33,10v1.54l-2.91-.75L23.87,13l-5.17-.87,1,3s-4-3.13-4.69-3.72c0,0-1.37-.24-1.68.74,0,0-.51-.68.3-2.17"/><path id="_Path_6" data-name="&lt;Path&gt;" class="cls-6" d="M26.76,11.65l-2.35-.82L23.87,13l-5.17-.87,1,3s-4.26-3.07-4.9-3.66a1,1,0,0,0-.9,1.12"/><polyline id="_Path_7" data-name="&lt;Path&gt;" class="cls-6" points="9.39 32.71 9.39 40.69 12.48 40.69 11.67 42.87"/><polyline id="_Path_8" data-name="&lt;Path&gt;" class="cls-6" points="29.41 32.71 29.41 39.27 27.19 39.27 27.55 42.05"/><line id="_Path_9" data-name="&lt;Path&gt;" class="cls-6" x1="12.04" y1="31.9" x2="17.44" y2="44.89"/><line id="_Path_10" data-name="&lt;Path&gt;" class="cls-6" x1="27.89" y1="31.64" x2="22.61" y2="44.89"/><polygon id="_Path_11" data-name="&lt;Path&gt;" class="cls-7" points="62.21 33.55 54.51 30.57 45.36 26.2 36.71 30.67 29.31 33.65 29.31 42.31 62.21 42.31 62.21 33.55"/><path id="_Path_12" data-name="&lt;Path&gt;" class="cls-5" d="M52.92,30.15,48.13,42H43.41l-5.2-11.87,7.32-3.41Z"/><path id="_Path_13" data-name="&lt;Path&gt;" class="cls-8" d="M44.37,6.36c4-.13,5.46.95,6.82,2.63a8,8,0,0,1,1.43,3.94l-.12,7.4H38l-.16-8.54A6.6,6.6,0,0,1,44.37,6.36Z"/><path id="_Rectangle_2" data-name="&lt;Rectangle&gt;" class="cls-9" d="M45.37,26.54h0a4.36,4.36,0,0,1,4.36,4.36v3.42a0,0,0,0,1,0,0H41a0,0,0,0,1,0,0V30.9A4.36,4.36,0,0,1,45.37,26.54Z" transform="translate(90.75 60.86) rotate(-180)"/><path id="_Path_14" data-name="&lt;Path&gt;" class="cls-9" d="M43.74,28.09h3.79c2.24,0,3.68-2,3.68-4.27V22.05c.79,0,.22,0,.27,0a1.39,1.39,0,0,0,1.41-1.28,1.35,1.35,0,0,0-1.37-1.27s.48,0-.31,0V10.93H39.42v8.6a1.52,1.52,0,0,0-.28,0,1.28,1.28,0,1,0,0,2.55.85.85,0,0,0,.28,0v1.79A4.59,4.59,0,0,0,41,27"/><path id="_Path_15" data-name="&lt;Path&gt;" class="cls-2" d="M38.92,10.34v1.41l2.65-.69.49,2,4.72-.78L45.91,15s3.68-2.85,4.27-3.39c0,0,1.26-.22,1.53.67,0,0,.47-.62-.27-2"/><path id="_Path_16" data-name="&lt;Path&gt;" class="cls-10" d="M39.44,11.81l2.14-.75.49,2,4.72-.78L45.91,15s3.88-2.8,4.47-3.34a.91.91,0,0,1,.82,1"/><polyline id="_Path_17" data-name="&lt;Path&gt;" class="cls-10" points="55.28 31.01 55.28 38.29 52.47 38.29 53.2 40.28"/><polyline id="_Path_18" data-name="&lt;Path&gt;" class="cls-10" points="37.02 31.01 37.02 37 39.05 37 38.73 39.53"/><line id="_Path_19" data-name="&lt;Path&gt;" class="cls-10" x1="52.86" y1="30.27" x2="47.94" y2="42.12"/><line id="_Path_20" data-name="&lt;Path&gt;" class="cls-10" x1="38.42" y1="30.04" x2="43.22" y2="42.12"/><polygon id="_Path_21" data-name="&lt;Path&gt;" class="cls-11" points="12.57 47.5 22.1 43.81 33.41 38.4 44.11 43.93 53.28 47.62 53.28 58.34 12.57 58.34 12.57 47.5"/><path id="_Path_22" data-name="&lt;Path&gt;" class="cls-12" d="M24.06,43.29,30,57.89h5.84l6.44-14.68L33.2,39Z"/><path id="_Path_23" data-name="&lt;Path&gt;" class="cls-13" d="M34.64,13.86c-5-.17-6.76,1.17-8.44,3.26A9.78,9.78,0,0,0,24.44,22l.14,9.16H42.52l.19-10.56A8.13,8.13,0,0,0,34.64,13.86Z"/><path id="_Rectangle_3" data-name="&lt;Rectangle&gt;" class="cls-14" d="M28,38.83H38.79a0,0,0,0,1,0,0v4.33a5.3,5.3,0,0,1-5.3,5.3H33.3a5.3,5.3,0,0,1-5.3-5.3V38.83a0,0,0,0,1,0,0Z"/><path id="_Path_24" data-name="&lt;Path&gt;" class="cls-14" d="M35.41,40.71H30.72c-2.76,0-4.55-2.52-4.55-5.28V33.24c-1,0-.27,0-.33,0a1.73,1.73,0,0,1-1.74-1.58,1.67,1.67,0,0,1,1.69-1.58c.05,0-.59,0,.38,0V19.48H40.76V30.12a1.33,1.33,0,0,1,.35,0,1.58,1.58,0,0,1,0,3.16,1.33,1.33,0,0,1-.35,0v2.21a5.7,5.7,0,0,1-2,3.91"/><path id="_Path_25" data-name="&lt;Path&gt;" class="cls-5" d="M41.37,18.79v1.74l-3.28-.86-.61,2.5-5.84-1,1.1,3.41s-4.56-3.53-5.29-4.2c0,0-1.88-.18-1.83,1A2.08,2.08,0,0,1,26,18.79"/><path id="_Path_26" data-name="&lt;Path&gt;" class="cls-15" d="M40.74,20.61l-2.65-.94-.61,2.5-5.84-1,1.1,3.41s-4.8-3.47-5.53-4.14a1.14,1.14,0,0,0-1,1.28"/><polyline id="_Path_27" data-name="&lt;Path&gt;" class="cls-15" points="21.14 44.78 21.14 53.01 24.45 53.01 23.64 55.86"/><polyline id="_Path_28" data-name="&lt;Path&gt;" class="cls-15" points="42.17 43.69 42.17 53.01 41.22 53.01 40.83 56.11"/><line id="_Path_29" data-name="&lt;Path&gt;" class="cls-15" x1="24.13" y1="43.44" x2="30.23" y2="58.1"/><line id="_Path_30" data-name="&lt;Path&gt;" class="cls-15" x1="42.01" y1="43.15" x2="36.06" y2="58.1"/></g></svg>