<svg xmlns="http://www.w3.org/2000/svg" viewBox="0 0 64 64" enable-background="new 0 0 64 64"><path fill="#fff" stroke="#4C5C68" stroke-linecap="round" stroke-linejoin="round" stroke-miterlimit="10" d="M36.9 50.8h-31.4v-10.5l9.2-3.5 11-5.3 11.9 6"/><path fill="#F9CA38" d="M16.6 36.3l5.7 14.1h5.7l6.2-14.2-8.8-4.1-8.8 4.2z"/><path fill="#CEE8FA" stroke="#4C5C68" stroke-linecap="round" stroke-linejoin="round" stroke-miterlimit="10" d="M26.9 7.8c-4.8-.2-6.5 1.1-8.2 3.1-1.5 1.9-1.7 4.7-1.7 4.7l.1 8.9h17.4l.2-10.2c0 .1-.9-6.3-7.8-6.5z"/><path fill="#fff" stroke="#4C5C68" stroke-linecap="round" stroke-linejoin="round" stroke-miterlimit="10" d="M25.7 41.2c-3 0-5.3-2.3-5.3-5.2v-4.1h10.4v4.1c.1 2.9-2.2 5.2-5.1 5.2zM27.6 33.8h-4.5c-2.7 0-4.4-2.4-4.4-5.1v-2.1h-.3c-.8 0-1.7-.7-1.7-1.5s.8-1.5 1.6-1.5h.4v-10.4h14.1v10.3h.3c.8 0 1.5.7 1.5 1.5s-.7 1.5-1.5 1.5h-.3v2.1c0 1.5-.9 2.8-1.9 3.8"/><path fill="#CEE8FA" d="M33.1 12.5l.2 1.7-3.2-.8-.6 2.4-5.5-.9 1.1 3.3s-4.4-3.4-5.1-4.1c0 0-1.7-.4-1.6.8 0 0-1-1 .3-2.3"/><path stroke="#4C5C68" stroke-linecap="round" stroke-linejoin="round" stroke-miterlimit="10" d="M32.8 14.3l-2.6-.9-.6 2.4-5.6-.9 1.1 3.3s-4.6-3.4-5.4-4c0 0-1 .1-1 1.2M13.8 37.3v8.7h3.4l-.9 2.4M34.5 37v8.5h-1.3l-.2 2.7M16.7 36.4l5.9 14.2M34 36.1l-5.8 14.5" fill="none"/><path fill="#fff" d="M60.4 28v23.3h-23.3v-30.8h16.4"/><path stroke="#4C5C68" stroke-linecap="round" stroke-linejoin="round" stroke-miterlimit="10" d="M36.8 43.2v-23h16.5" fill="none"/><path stroke="#4C5C68" stroke-linecap="round" stroke-linejoin="round" stroke-miterlimit="10" d="M53.3 20.1v7.8h7.1zM46.8 30.7h9.1M46.8 33.5h6.1M40.4 36.2h13.1M40.4 39.5h13.1M40.4 42.2h13.1M41.8 45h11.5" fill="none"/><path fill="#F9CA38" stroke="#4C5C68" stroke-linecap="round" stroke-linejoin="round" stroke-miterlimit="10" d="M40.4 29.3h4.2v4.2h-4.2z"/><path stroke="#4C5C68" stroke-linecap="round" stroke-linejoin="round" stroke-miterlimit="10" d="M60.3 27.8v23h-23.5v-8.2" fill="none"/></svg>