<svg xmlns="http://www.w3.org/2000/svg" viewBox="0 0 64 64" enable-background="new 0 0 64 64"><path stroke="#4C5C68" stroke-linecap="round" stroke-linejoin="round" stroke-miterlimit="10" d="M25.9 54.7h-14.3v-45.1h6.8m22.5 0h11.5v45.1h-4.7" fill="none"/><path fill="#CEE8FA" stroke="#4C5C68" stroke-linecap="round" stroke-linejoin="round" stroke-miterlimit="10" d="M41 13.5h11m-40 37h14"/><path fill="#fff" stroke="#4C5C68" stroke-linecap="round" stroke-linejoin="round" stroke-miterlimit="10" d="M22.014 31.005v-23.1h16v23.1z"/><path fill="#CEE8FA" d="M25.171 29.329v-19.7h11.2v19.7z"/><path fill="#fff" stroke="#4C5C68" stroke-linecap="round" stroke-linejoin="round" stroke-miterlimit="10" d="M23.8 30.6v-22.2"/><path fill="#fff" stroke="#4C5C68" stroke-width=".888" stroke-linecap="round" stroke-linejoin="round" stroke-miterlimit="10" d="M35.3 27v-2.6"/><path stroke="#CEE8FA" stroke-width="1.099" stroke-linecap="round" stroke-linejoin="round" stroke-miterlimit="10" d="M35.3 22.6v-1.8M35.3 18.2v-1.8" fill="none"/><circle opacity=".6" fill="#286090" cx="28.4" cy="12.8" r="2.2"/><circle fill="#fff" cx="28.4" cy="16.3" r="2.2"/><path stroke="#4C5C68" stroke-linecap="round" stroke-linejoin="round" stroke-miterlimit="10" d="M39.3 19.3l5.2 5.6v8.6l-1.5 4.2v8h-10.5v-3.2s-3.1-4.4-3-8" fill="none"/><path fill="#fff" stroke="#4C5C68" stroke-linecap="round" stroke-linejoin="round" stroke-miterlimit="10" d="M39.6 28.8l-5.6-5.6s-3.4-1.6-3.4 3.4l5 5s-.4 4.7 3.5 8.5"/><path fill="#FEBD2E" stroke="#4C5C68" stroke-linecap="round" stroke-linejoin="round" stroke-miterlimit="10" d="M30.3 55.5v-9.9h15.2v9.9"/></svg>