<svg xmlns="http://www.w3.org/2000/svg" viewBox="0 0 64 64" enable-background="new 0 0 64 64"><path fill="#CEE8FA" d="M7.7 34.7h48.8v14.2h-48.8z"/><path fill="#fff" stroke="#4C5C68" stroke-linecap="round" stroke-linejoin="round" stroke-miterlimit="10" d="M56.5 18.2v16.5h-49v-21h49"/><g stroke="#4C5C68" stroke-linecap="round" stroke-linejoin="round" stroke-miterlimit="10" fill="none"><path d="M7.5 36.7h49M7.5 39.1h49M7.5 41.6h49M7.5 44h49M7.5 46.5h49M7.5 48.9h49"/></g><path fill="#fff" stroke="#FEBD2E" stroke-linecap="round" stroke-linejoin="round" stroke-miterlimit="10" d="M18 18.5h-4l-3.5 3v6.2l3.2 3.8h4.3M47 18.5h3.5l3 3v6.2l-2.7 3.8h-4.8"/><ellipse fill="#fff" stroke="#4C5C68" stroke-linecap="round" stroke-linejoin="round" stroke-miterlimit="10" cx="32.5" cy="24.2" rx="7.2" ry="7.1"/><ellipse fill="#286090" cx="32.5" cy="24.2" rx="5.6" ry="5.6"/><path fill="#CEE8FA" d="M32.4 20.8c.2 0 .3.2.3.3v.2c.5.1.9.2 1.2.4.1.1.2.2.2.4s-.2.4-.4.4c-.1 0-.2 0-.2-.1-.3-.2-.5-.3-.8-.3v1.5c1.2.3 1.7.8 1.7 1.6 0 .9-.7 1.4-1.7 1.5v.5c0 .2-.1.3-.3.3-.2 0-.3-.1-.3-.3v-.5c-.6-.1-1.1-.3-1.6-.6-.1-.1-.2-.2-.2-.4s.2-.4.4-.4c.1 0 .2 0 .3.1.4.3.7.4 1.2.5v-1.6c-1.2-.3-1.7-.7-1.7-1.6 0-.8.7-1.4 1.7-1.5v-.2c-.1 0 .1-.2.2-.2zm-.3 2.7v-1.4c-.5 0-.8.3-.8.7.1.3.2.5.8.7zm.7 1.1v1.4c.5-.1.8-.3.8-.7-.1-.3-.2-.5-.8-.7z"/><path fill="#fff" stroke="#4C5C68" stroke-linecap="round" stroke-linejoin="round" stroke-miterlimit="10" d="M14 24.5h6M44 24.5h6"/><path fill="#fff" d="M50 53.2c-5.5 0-10-4.5-10-10s4.5-10 10-10 10 4.5 10 10-4.5 10-10 10z"/><path fill="#4C5C68" d="M50 33.7c5.2 0 9.5 4.2 9.5 9.5 0 5.2-4.2 9.5-9.5 9.5s-9.5-4.2-9.5-9.5c0-5.2 4.3-9.5 9.5-9.5m0-1c-5.8 0-10.5 4.7-10.5 10.5s4.7 10.5 10.5 10.5 10.5-4.7 10.5-10.5-4.7-10.5-10.5-10.5z"/><path fill="#fff" stroke="#4C5C68" stroke-linecap="round" stroke-linejoin="round" stroke-miterlimit="10" d="M49.7 37.6v6.1l3.2 3.1"/><circle fill="#fff" cx="49.8" cy="42.7" r=".5"/><path fill="#4C5C68" d="M49.8 42.2c-.3 0-.5.2-.5.5s.2.5.5.5.5-.2.5-.5-.2-.5-.5-.5z"/><circle fill="#fff" cx="49.8" cy="43.5" r="1.3"/><path fill="#4C5C68" d="M49.8 42.7c.5 0 .8.4.8.8s-.4.8-.8.8-.8-.3-.8-.8.3-.8.8-.8m0-1c-1 0-1.8.8-1.8 1.8s.8 1.8 1.8 1.8 1.8-.8 1.8-1.8-.8-1.8-1.8-1.8z"/></svg>