<svg xmlns="http://www.w3.org/2000/svg" viewBox="0 0 64 64" enable-background="new 0 0 64 64"><ellipse fill="#fff" cx="24.6" cy="24" rx="15.9" ry="15.7"/><path fill="#4C5C68" d="M24.6 40.2c-9 0-16.4-7.3-16.4-16.2s7.4-16.3 16.4-16.3c9.1 0 16.4 7.3 16.4 16.3s-7.3 16.2-16.4 16.2zm0-31.5c-8.4 0-15.4 6.8-15.4 15.3s6.9 15.2 15.4 15.2 15.4-6.8 15.4-15.2-6.9-15.3-15.4-15.3z"/><ellipse fill="#286090" cx="24.6" cy="24" rx="12.5" ry="12.4"/><path fill="#FEBD2E" d="M24.5 16.5c.4 0 .8.3.8.8v.4c1 .1 1.9.5 2.7 1 .3.2.5.4.5.8 0 .5-.4 1-1 1-.2 0-.3-.1-.5-.2-.6-.4-1.2-.6-1.8-.8v3.4c2.7.7 3.8 1.7 3.8 3.6 0 1.9-1.5 3.2-3.7 3.4v1c0 .4-.3.8-.8.8-.4 0-.8-.3-.8-.8v-1.1c-1.3-.1-2.5-.6-3.6-1.4-.3-.2-.5-.5-.5-.8 0-.5.4-1 1-1 .2 0 .4.1.6.2.8.6 1.6 1 2.6 1.2v-3.4c-2.6-.7-3.7-1.6-3.7-3.6 0-1.9 1.5-3.2 3.7-3.3v-.4c-.1-.5.3-.8.7-.8zm-.7 5.9v-3.1c-1.1.1-1.7.7-1.7 1.5s.4 1.2 1.7 1.6zm1.4 2.5v3.2c1.1-.1 1.7-.7 1.7-1.5s-.4-1.3-1.7-1.7z"/><ellipse fill="#fff" cx="39.4" cy="39.7" rx="15.9" ry="15.7"/><path fill="#4C5C68" d="M39.4 55.9c-9 0-16.4-7.3-16.4-16.2s7.4-16.2 16.4-16.2c9 0 16.4 7.3 16.4 16.2s-7.4 16.2-16.4 16.2zm0-31.4c-8.5 0-15.4 6.8-15.4 15.2s6.9 15.2 15.4 15.2 15.4-6.8 15.4-15.2-6.9-15.2-15.4-15.2z"/><ellipse fill="#286090" cx="39.4" cy="39.7" rx="12.5" ry="12.4"/><path fill="#FEBD2E" d="M39.3 32.2c.4 0 .8.3.8.8v.4c1 .1 1.9.5 2.7 1 .3.2.5.4.5.8 0 .5-.4 1-1 1-.2 0-.3-.1-.5-.2-.6-.4-1.2-.6-1.8-.8v3.4c2.7.7 3.8 1.7 3.8 3.6 0 1.9-1.5 3.2-3.7 3.4v1c0 .4-.3.8-.8.8s-.8-.3-.8-.8v-1.1c-1.3-.1-2.5-.6-3.6-1.4-.3-.2-.5-.5-.5-.8 0-.5.4-1 1-1 .2 0 .4.1.6.2.8.6 1.6 1 2.6 1.2v-3.4c-2.6-.7-3.7-1.6-3.7-3.6 0-1.9 1.5-3.2 3.7-3.3v-.4c-.1-.4.2-.8.7-.8zm-.7 6v-3.1c-1.1.1-1.7.7-1.7 1.5 0 .7.3 1.2 1.7 1.6zm1.3 2.4v3.2c1.1-.1 1.7-.7 1.7-1.5.1-.8-.3-1.3-1.7-1.7z"/><path fill="#286090" d="M51.5 22.5c0-.3.2-.5.5-.5s.5.2.5.5-.2.5-.5.5-.5-.2-.5-.5zm0-2c0-.3.2-.5.5-.5s.5.2.5.5-.2.5-.5.5-.5-.2-.5-.5zm0-2c0-.3.2-.5.5-.5s.5.2.5.5-.2.5-.5.5-.5-.3-.5-.5zm0-2c0-.3.2-.5.5-.5s.5.2.5.5-.2.5-.5.5-.5-.2-.5-.5zm0-2c0-.3.2-.5.5-.5s.5.2.5.5-.2.5-.5.5-.5-.2-.5-.5zm-1.7-.3c0-.3.2-.5.5-.5s.5.2.5.5-.2.5-.5.5-.5-.2-.5-.5zm-2 0c0-.3.2-.5.5-.5s.5.2.5.5-.2.5-.5.5-.5-.2-.5-.5zm-2 0c0-.3.2-.5.5-.5s.5.2.5.5-.2.5-.5.5-.5-.2-.5-.5zm-2 0c0-.3.2-.5.5-.5s.5.2.5.5-.2.5-.5.5-.5-.2-.5-.5zm-2 0c0-.3.2-.5.5-.5s.5.2.5.5-.2.5-.5.5-.5-.2-.5-.5zM52 25.6c-.1 0-.3 0-.4-.1l-3.3-3.3c-.2-.2-.2-.5 0-.7s.5-.2.7 0l2.9 2.9 2.9-2.9c.2-.2.5-.2.7 0s.2.5 0 .7l-3.2 3.2c0 .1-.1.2-.3.2zM23.3 50.2c0-.3.2-.5.5-.5s.5.2.5.5-.2.5-.5.5-.5-.2-.5-.5zm-2 0c0-.3.2-.5.5-.5s.5.2.5.5-.2.5-.5.5-.5-.2-.5-.5zm-2 0c0-.3.2-.5.5-.5s.5.2.5.5-.2.5-.5.5-.5-.2-.5-.5zm-2 0c0-.3.2-.5.5-.5s.5.2.5.5-.2.5-.5.5-.5-.2-.5-.5zm-2 0c0-.3.2-.5.5-.5s.5.2.5.5-.2.5-.5.5-.5-.2-.5-.5zm-2 0c0-.3.2-.5.5-.5s.5.2.5.5-.2.5-.5.5-.5-.2-.5-.5zm-1.8-.2c0-.3.2-.5.5-.5s.5.2.5.5-.2.5-.5.5-.5-.2-.5-.5zm0-2c0-.3.2-.5.5-.5s.5.2.5.5-.2.5-.5.5-.5-.2-.5-.5zm0-2c0-.3.2-.5.5-.5s.5.2.5.5-.2.5-.5.5-.5-.2-.5-.5zm0-2c0-.3.2-.5.5-.5s.5.2.5.5-.2.5-.5.5-.5-.2-.5-.5zm0-2c0-.3.2-.5.5-.5s.5.2.5.5-.2.5-.5.5-.5-.2-.5-.5zM15.2 43.6c-.1 0-.3 0-.4-.1l-2.8-2.9-2.9 2.9c-.2.2-.5.2-.7 0s-.2-.5 0-.7l3.2-3.2c.2-.2.5-.2.7 0l3.3 3.3c.2.2.2.5 0 .7h-.4z"/></svg>