<svg xmlns="http://www.w3.org/2000/svg" viewBox="0 0 24 24" enable-background="new 0 0 24 24"><style type="text/css">.st0{fill:#9ECFEF;} .st1{fill:#FFFFFF;} .st2{fill:#595959;} .st3{fill:#595959;stroke:#FFFFFF;stroke-width:0.25;stroke-miterlimit:10;} .st4{fill:#FFFFFF;stroke:#333333;stroke-width:0.25;stroke-miterlimit:10;} .st5{fill:#97C9E8;} .st6{fill:#595959;stroke:#595959;stroke-width:0.25;stroke-miterlimit:10;} .st7{fill:none;} .st8{fill:#595959;stroke:#FFFFFF;stroke-width:0.1916;stroke-miterlimit:10;} .st9{fill:#595959;stroke:#595959;stroke-width:0.2196;stroke-miterlimit:10;} .st10{fill:#FFFFFF;stroke:#595959;stroke-width:0.2196;stroke-miterlimit:10;} .st11{fill:#9ECFEF;stroke:#595959;stroke-width:0.25;stroke-miterlimit:10;} .st12{fill:#CA589D;} .st13{opacity:0.2;fill:#CA589D;} .st14{fill:#3CAF85;} .st15{fill:none;stroke:#2C3251;stroke-width:0.75;stroke-miterlimit:10;} .st16{fill:#595959;stroke:#FFFFFF;stroke-width:0.2467;stroke-miterlimit:10;} .st17{fill:#9ECFEF;stroke:#595959;stroke-width:0.5;stroke-miterlimit:10;} .st18{fill:#595959;stroke:#FFFFFF;stroke-width:0.4959;stroke-miterlimit:10;} .st19{fill:#595959;stroke:#595959;stroke-width:0.2246;stroke-miterlimit:10;} .st20{fill:none;stroke:#595959;stroke-width:0.7572;stroke-miterlimit:10;} .st21{fill:#595959;stroke:#595959;stroke-width:0.5;stroke-miterlimit:10;} .st22{fill:#595959;stroke:#595959;stroke-width:0.2986;stroke-miterlimit:10;} .st23{fill:#9ECFEF;stroke:#595959;stroke-width:0.75;stroke-miterlimit:10;} .st24{fill:#9ECEEE;stroke:#9ECEEE;stroke-width:0.75;stroke-miterlimit:10;} .st25{fill-rule:evenodd;clip-rule:evenodd;fill:#9ECFEF;} .st26{fill:none;stroke:#595959;stroke-miterlimit:10;} .st27{fill:none;stroke:#595959;stroke-width:0.9161;stroke-miterlimit:10;} .st28{fill:#B3B3B3;} .st29{fill:none;stroke:#324044;stroke-width:0.75;stroke-miterlimit:10;} .st30{fill:none;stroke:#2C3251;stroke-width:0.4222;stroke-miterlimit:10;} .st31{fill-rule:evenodd;clip-rule:evenodd;fill:#595959;stroke:#595959;stroke-width:0.5781;stroke-miterlimit:10;}</style><path class="st2" d="M20.767 21.5h-6.637v-.872c0-.208-.083-.413-.228-.561-.785-.797-1.218-1.858-1.218-2.986v-1.343h.75v1.343c0 .93.356 1.803 1.003 2.46.285.292.442.677.442 1.086v.122h5.887v.751z"/><path class="st1" d="M10.868 1.64l-7.773 13.684c-.272.479.074 1.073.624 1.073h15.545c.55 0 .896-.594.624-1.073l-7.772-13.684c-.275-.485-.973-.485-1.248 0z"/><path class="st2" d="M19.265 16.771h-15.545c-.394 0-.747-.203-.945-.543-.197-.34-.2-.747-.006-1.089l7.772-13.684c.395-.693 1.507-.691 1.901 0l7.772 13.685c.194.342.191.75-.006 1.089-.197.339-.55.542-.943.542zm-8.072-14.946l-7.772 13.684c-.088.155-.028.291.002.342s.118.17.297.17h15.545c.178 0 .266-.119.296-.17s.09-.187.002-.342l-7.773-13.684c-.089-.156-.238-.173-.299-.173-.059-.001-.209.016-.298.173z"/><path class="st0" d="M11.21 2.763l-6.978 12.286c-.123.216.033.484.282.484h13.956c.248 0 .404-.268.282-.484l-6.979-12.286c-.124-.218-.439-.218-.563 0z"/><path class="st1" d="M11.494 12.907c.11 0 .207.02.292.06.084.041.154.093.211.157.056.064.1.136.128.217.03.081.044.164.044.249 0 .089-.014.176-.044.258-.029.083-.072.157-.128.22-.057.064-.128.116-.211.157-.085.04-.182.06-.292.06-.114 0-.213-.02-.297-.06-.084-.04-.155-.093-.211-.157-.057-.064-.1-.137-.129-.22-.029-.083-.043-.169-.043-.258l.043-.246c.029-.083.072-.157.129-.22.056-.064.127-.116.211-.157.085-.04.183-.06.297-.06zm-.655-5.653l-.003-.023-.003-.028c0-.088.019-.164.058-.23l.152-.167.216-.101.246-.033.241.033.206.101.144.172c.036.069.054.151.054.245v.03l-.159 4.408c-.003.098-.02.183-.05.255l-.117.182-.159.111-.177.038-.176-.038-.156-.111-.114-.182c-.03-.072-.047-.157-.05-.255l-.153-4.407z"/><path class="st2" d="M21.624 23.083h-.75v-1.583h-6.476v1.583h-.75v-2.333h7.976z"/><path class="st1" d="M20.759 15.22v2.945h-3.133c-1.444-.978-.963-2.446-.963-2.446l-1.425-1.314c-.472-.422-.727-1.026-.727-1.65 0-.182.019-.365.066-.547.075-.317.443-.47.717-.288l4.512 2.515.953.785z"/><path class="st2" d="M17.426 18.253c-1.172-.794-1.293-1.956-1.17-2.632l-1.263-1.155c-.707-.646-1.003-1.63-.773-2.567.066-.271.261-.493.518-.593.255-.1.542-.07.773.082l4.259 2.814-.414.626-4.259-2.814c-.099.004-.137.017-.148.064-.164.67.047 1.373.551 1.834l1.605 1.469-.075.23c-.015.047-.366 1.219.816 2.021l-.42.621zm3.716 2.872h-.75v-7.348c0-1.035-.51-1.987-1.362-2.548l-1.6-1.052.412-.627 1.6 1.052c1.064.701 1.7 1.888 1.7 3.175v7.348z"/><path class="st0" d="M14.519 21.614h6.241v1.469h-6.241z"/></svg>