<svg xmlns="http://www.w3.org/2000/svg" viewBox="0 0 64 64" enable-background="new 0 0 64 64"><path fill="#fff" stroke="#4C5C68" stroke-linecap="round" stroke-linejoin="round" stroke-miterlimit="10" d="M32.6 47.3h-24v-22.7h24"/><path fill="#F9CA38" stroke="#4C5C68" stroke-linecap="round" stroke-linejoin="round" stroke-miterlimit="10" d="M8.6 22.5v-5.2h42v5.2"/><path fill="#fff" stroke="#4C5C68" stroke-linecap="round" stroke-linejoin="round" stroke-miterlimit="10" d="M11.1 20.3h13.3M19.9 28.1h3.3M19.9 44.8h3.3M19.9 32h9.7M19.9 34.2h9.7M19.9 36.5h9.7M10.8 27.2h1.8M10.8 44.7h1.8"/><text transform="translate(10.288 39.304)" fill="#4C5C68" font-family="'Quicksand-Bold'" font-size="11.48">$</text><path fill="#fff" stroke="#4C5C68" stroke-linecap="round" stroke-linejoin="round" stroke-miterlimit="10" d="M45.4 52.7s-6.7-1.7-10.6-7c-.4-.5-.6-1.1-.6-1.7v-18.1s9.6-4.9 21.8 0v17.8c0 .6-.2 1.2-.4 1.8-1.1 1.7-4.3 5.9-10.2 7.2z"/><path fill="#fff" d="M45.1 45.9c-4.4 0-8.1-3.6-8.1-8.1s3.6-8.1 8.1-8.1 8.1 3.6 8.1 8.1-3.6 8.1-8.1 8.1z"/><path fill="#4C5C68" d="M45.1 30.3c4.2 0 7.6 3.4 7.6 7.6s-3.4 7.6-7.6 7.6c-4.2 0-7.6-3.4-7.6-7.6s3.4-7.6 7.6-7.6m0-1c-4.7 0-8.6 3.8-8.6 8.6s3.8 8.6 8.6 8.6 8.6-3.8 8.6-8.6-3.9-8.6-8.6-8.6z"/><circle fill="#286090" cx="45.1" cy="37.9" r="6.4"/><g stroke="#CEE8FA" stroke-linecap="round" stroke-linejoin="round" stroke-miterlimit="10" fill="none"><path d="M47.6 35.3l-4.9 5.2M47.7 40.3l-5.2-4.9"/></g></svg>