<svg xmlns="http://www.w3.org/2000/svg" viewBox="0 0 64 64" enable-background="new 0 0 64 64"><path fill="#fff" d="M46.4 54.4h-27.8c-2.7 0-4.9-2.2-4.9-4.9v-19.5c0-6.1 5-11.1 11.1-11.1h9.9c6.5 0 11.8 5.3 11.8 11.8v23.7z"/><path fill="#fff" stroke="#4C5C68" stroke-linecap="round" stroke-linejoin="round" stroke-miterlimit="10" d="M24.9 15.8h9.2v3h-9.2zM25.1 15.8l-2.1-5.2c-.2-.5 0-1.1.5-1.3 1.2-.7 3.4-1.5 6 .3 0 0 3.7-1.8 6-.3.5.3.7.8.5 1.4l-2.1 5.2h-8.8z"/><path stroke="#4C5C68" stroke-linecap="round" stroke-linejoin="round" stroke-miterlimit="10" d="M21.7 14.7s.8 2 2.8 1.9" fill="none"/><path fill="#fff" stroke="#4C5C68" stroke-linecap="round" stroke-linejoin="round" stroke-miterlimit="10" d="M33.8 54.4h-15.2c-2.7 0-4.9-2.2-4.9-4.9M13.7 38.2v-8.2c0-6.1 5-11.1 11.1-11.1h9.9c6.5 0 11.8 5.3 11.8 11.8v23.7h-7.6"/><path stroke="#4C5C68" stroke-linecap="round" stroke-linejoin="round" stroke-miterlimit="10" d="M37.2 14.7s-.8 2-2.8 1.9" fill="none"/><path fill="#fff" stroke="#4C5C68" stroke-linecap="round" stroke-linejoin="round" stroke-miterlimit="10" d="M10.1 40.4h9.7v4.4h-9.7z"/><path fill="#FEBD2E" d="M15.4 41h4v3.4h-4z"/><path fill="#fff" stroke="#4C5C68" stroke-linecap="round" stroke-linejoin="round" stroke-miterlimit="10" d="M10.1 44.8h9.7v3.5h-9.7z"/><path fill="#FEBD2E" d="M15.4 45.3h4v2.6h-4z"/><path fill="#fff" stroke="#4C5C68" stroke-linecap="round" stroke-linejoin="round" stroke-miterlimit="10" d="M10.1 48.3h9.7v3.5h-9.7z"/><path fill="#FEBD2E" d="M15.4 48.9h4v2.6h-4z"/><path fill="#fff" stroke="#4C5C68" stroke-linecap="round" stroke-linejoin="round" stroke-miterlimit="10" d="M10.1 51.9h9.7v3.5h-9.7z"/><path fill="#FEBD2E" d="M15.4 52.4h4v2.5h-4z"/><ellipse fill="#fff" stroke="#4C5C68" stroke-linecap="round" stroke-linejoin="round" stroke-miterlimit="10" cx="29.9" cy="30.5" rx="7.8" ry="7.8"/><path fill="#fff" stroke="#4C5C68" stroke-linecap="round" stroke-linejoin="round" stroke-miterlimit="10" d="M44.4 32.1h8.2v4.1h-8.2z"/><path fill="#FEBD2E" d="M49 32.6h3.1v4.1h-3.1z"/><path fill="#fff" stroke="#4C5C68" stroke-linecap="round" stroke-linejoin="round" stroke-miterlimit="10" d="M44.4 36.1h8.2v4.1h-8.2z"/><path fill="#FEBD2E" d="M49 36.6h3.1v4.1h-3.1z"/><path fill="#fff" stroke="#4C5C68" stroke-linecap="round" stroke-linejoin="round" stroke-miterlimit="10" d="M44.4 40.2h8.2v4.1h-8.2z"/><path fill="#FEBD2E" d="M49 40.7h3.1v3h-3.1z"/><path fill="#fff" stroke="#4C5C68" stroke-linecap="round" stroke-linejoin="round" stroke-miterlimit="10" d="M44.4 44.2h8.2v4.1h-8.2z"/><path fill="#FEBD2E" d="M49 44.7h3.1v3h-3.1z"/><path fill="#fff" stroke="#4C5C68" stroke-linecap="round" stroke-linejoin="round" stroke-miterlimit="10" d="M44.4 47.3h8.2v4.1h-8.2z"/><path fill="#FEBD2E" d="M49 47.8h3.1v4.1h-3.1z"/><path fill="#fff" stroke="#4C5C68" stroke-linecap="round" stroke-linejoin="round" stroke-miterlimit="10" d="M44.4 51.3h8.2v4.1h-8.2z"/><path fill="#FEBD2E" d="M49 51.8h3.1v3h-3.1z"/><path fill="#fff" stroke="#4C5C68" stroke-linecap="round" stroke-linejoin="round" stroke-miterlimit="10" d="M36.2 47.3h8.2v4.1h-8.2z"/><path fill="#FEBD2E" d="M40.8 47.8h3.1v4.1h-3.1z"/><path fill="#fff" stroke="#4C5C68" stroke-linecap="round" stroke-linejoin="round" stroke-miterlimit="10" d="M36.2 51.3h8.2v4.1h-8.2z"/><path fill="#FEBD2E" d="M40.8 51.8h3.1v3h-3.1z"/><ellipse fill="#286090" cx="29.9" cy="30.5" rx="6.2" ry="6.1"/><text transform="translate(26.895 33.45)" fill="#CEE8FA" font-family="'Quicksand-Bold'" font-size="8.641">$</text></svg>