<svg xmlns="http://www.w3.org/2000/svg" viewBox="0 0 64 64" enable-background="new 0 0 64 64"><g stroke="#4C5C68" stroke-linecap="round" stroke-linejoin="round" stroke-miterlimit="10"><path fill="#FEBD2E" d="M41.5 55.7v-6.4h10.4v6.4"/><path fill="#fff" d="M43 49v-4.1l3.7-5.9v-4.4s-.1-1.1.9-1.2c0 0 1.4-.1 1.4.9v5.7l.7 1.2"/><path d="M48.1 31.9l-2.2-6.9s-.4-1 .5-1.6c.9-.5 1.5.4 2 1.3l5.7 10.9s1 1.4.7 2.7c-.3 1.3-4.4 7.9-4.4 7.9v2" fill="none"/><path fill="#FEBD2E" d="M22.2 55.7v-6.4h-10.6v6.4"/><path fill="#fff" d="M20.7 48.9v-4.2l-3.8-6v-4.5s.1-1.1-.9-1.2c0 0-1.4-.1-1.4.9v5.9l-.7 1.2"/><path d="M16 31.6l2.1-6.9s.3-1.1-.5-1.6c-.9-.5-1.6.4-2.1 1.3-.5 1-5.8 11-5.8 11s-.8 1.4-.5 2.7c.3 1.3 4.7 8 4.7 8v2" fill="none"/></g><ellipse fill="#fff" stroke="#4C5C68" stroke-linecap="round" stroke-linejoin="round" stroke-miterlimit="10" cx="32" cy="19.5" rx="10.6" ry="10.5"/><ellipse fill="#286090" cx="32" cy="19.5" rx="8.3" ry="8.3"/><text transform="translate(27.984 23.461)" fill="#CEE8FA" font-family="'Quicksand-Bold'" font-size="11.678">$</text></svg>