<svg xmlns="http://www.w3.org/2000/svg" viewBox="0 0 64 64" enable-background="new 0 0 64 64"><path fill="#CEE8FA" d="M40.8 32v-22.8c0-.5.4-.8.8-.8h3.5c.6 0 1.1.5 1.1 1.1v22.5"/><path stroke="#4C5C68" stroke-linecap="round" stroke-linejoin="round" stroke-miterlimit="10" d="M40.8 32v-23.6M33.8 54.8h-18.7c-2.4 0-4.4-2-4.4-4.4v-38.1c0-2.3 1.8-4.1 4.1-4.1h32.5M46.2 32v-21.8c0-1.2 1-2.2 2.2-2.2h.5c1.3 0 2.3 1 2.3 2.3v20.7h-2.4M15 14.4h10.3M15 32.8h21.5M15 36.5h19M15 40.3h16.2M15 44h14M15 47.8h11.2M15 18.1h7.7M24.6 18.1h12.1" fill="none"/><path fill="#F9CA38" stroke="#4C5C68" stroke-linecap="round" stroke-linejoin="round" stroke-miterlimit="10" d="M14.5 21.9h22.3v7h-22.3z"/><path fill="#fff" d="M42.8 55.1c-5.5 0-10-4.5-10-10s4.5-10 10-10 10 4.5 10 10-4.5 10-10 10z"/><path fill="#4C5C68" d="M42.8 35.6c5.2 0 9.5 4.2 9.5 9.5s-4.2 9.5-9.5 9.5-9.5-4.2-9.5-9.5 4.3-9.5 9.5-9.5m0-1c-5.8 0-10.5 4.7-10.5 10.5s4.7 10.5 10.5 10.5 10.5-4.7 10.5-10.5-4.7-10.5-10.5-10.5z"/><path fill="#fff" stroke="#4C5C68" stroke-linecap="round" stroke-linejoin="round" stroke-miterlimit="10" d="M42.5 39.5v6.1l3.2 3.1"/><circle fill="#fff" cx="42.6" cy="44.6" r=".5"/><path fill="#4C5C68" d="M42.6 44.1c-.3 0-.5.2-.5.5s.2.5.5.5.5-.2.5-.5-.2-.5-.5-.5z"/><circle fill="#fff" cx="42.6" cy="45.4" r="1.3"/><path fill="#4C5C68" d="M42.6 44.6c.5 0 .8.4.8.8s-.4.8-.8.8-.8-.4-.8-.8.3-.8.8-.8m0-1c-1 0-1.8.8-1.8 1.8s.8 1.8 1.8 1.8 1.8-.8 1.8-1.8-.8-1.8-1.8-1.8z"/></svg>