<svg xmlns="http://www.w3.org/2000/svg" viewBox="0 0 64 64" enable-background="new 0 0 64 64"><path fill="#F9CA38" stroke="#4C5C68" stroke-linecap="round" stroke-linejoin="round" stroke-miterlimit="10" d="M8.5 24.3h47.1v25.2h-47.1z"/><path fill="#fff" stroke="#4C5C68" stroke-linecap="round" stroke-linejoin="round" stroke-miterlimit="10" d="M8.5 22.4h45.1v25.2h-45.1zM20.9 26.3h23.7M20.9 44.7h23.7M10.9 25.2h2M10.9 44.6h2M33.9 44.6h2"/><text transform="translate(10.308 38.654)" fill="#4C5C68" font-family="'QuicksandBold-Regular'" font-size="12.704">$</text><path fill="#fff" stroke="#4C5C68" stroke-linecap="round" stroke-linejoin="round" stroke-miterlimit="10" d="M49 42.5l-40.4 7v-27.1l40.3-8z"/><path stroke="#286090" stroke-linecap="round" stroke-linejoin="round" stroke-miterlimit="10" d="M14.6 34.8s6.8-4.9 7.2-3.1c.4 1.8 1.9 1.4 1.9 1 .1-.4 2.4-1.9 2.8-1.3.5.6 1.4.7 1.5.1.2-.5.8-2 1.4-1.5s2.1.2 2.6-.2c.6-.3 2-1.2 3.1-1.4 1.1-.2 7-1.7 7-1.7" fill="none"/><path fill="#CEE8FA" stroke="#4C5C68" stroke-linecap="round" stroke-linejoin="round" stroke-miterlimit="10" d="M46.4 23l-5 .9v-5l5-1z"/><path stroke="#286090" stroke-linecap="round" stroke-linejoin="round" stroke-miterlimit="10" d="M19.5 37l21.4-5" fill="none"/></svg>