<svg xmlns="http://www.w3.org/2000/svg" viewBox="0 0 64 64" enable-background="new 0 0 64 64"><ellipse fill="#fff" stroke="#4C5C68" stroke-linecap="round" stroke-linejoin="round" stroke-miterlimit="10" cx="17.2" cy="36.8" rx="8.8" ry="8.7"/><ellipse fill="#286090" cx="17.2" cy="36.8" rx="6.9" ry="6.8"/><text transform="translate(13.885 40.009)" fill="#CEE8FA" font-family="'Quicksand-Bold'" font-size="9.694">$</text><path fill="#CEE8FA" stroke="#4C5C68" stroke-linecap="round" stroke-linejoin="round" stroke-miterlimit="10" d="M52.6 29.1h2.9v9.7h-2.9z"/><path fill="#fff" stroke="#4C5C68" stroke-linecap="round" stroke-linejoin="round" stroke-miterlimit="10" d="M53.6 41.9v-20.6h-32.4v26.3h32.4v-2.1"/><path fill="#fff" stroke="#4C5C68" stroke-linecap="round" stroke-linejoin="round" stroke-miterlimit="10" d="M53.6 25.2h-28.1c-2.2 0-4.3-1.6-4.3-3.8v-.1c0-2.1 2.1-3.9 4.3-3.9h28.1v7.8zM55.6 38.9h-11.4c-2 0-3.3-1.3-3.3-3.1v.1c0-1.8 1.4-2.9 3.3-2.9h11.4v5.9z"/><path fill="#FEBD2E" d="M54.6 38h-10.1c-1.7 0-2.7-.9-2.7-2.1v.1c0-1.2 1-1.9 2.7-1.9h10.1v3.9z"/><path stroke="#4C5C68" stroke-linecap="round" stroke-linejoin="round" stroke-miterlimit="10" stroke-dasharray="1,3" d="M24.6 29.1h27.5M24.6 44.7h27.5" fill="none"/><ellipse fill="#286090" cx="43.8" cy="35.9" rx="1.2" ry="1.2"/><path fill="#FEBD2E" stroke="#4C5C68" stroke-linecap="round" stroke-linejoin="round" stroke-miterlimit="10" d="M32 18.9v-3.4h19.6v3.4M25.1 22.8v-2.4h25.6v2.4"/></svg>