<svg xmlns="http://www.w3.org/2000/svg" viewBox="0 0 64 64" enable-background="new 0 0 64 64"><path fill="#CEE8FA" d="M17.2 56h-3.2c-.5 0-1-.4-1-1v-39.3c0-1.4 1.1-2.5 2.5-2.5h.1c1.4 0 2.5 1.1 2.5 2.5v39.6c-.1.4-.4.7-.9.7z"/><path stroke="#4C5C68" stroke-linecap="round" stroke-linejoin="round" stroke-miterlimit="10" d="M18 26.3v29.7M13.1 53.7v-38.1c0-1.4 1.1-2.5 2.5-2.5s2.5 1.1 2.5 2.5v4.6" fill="none"/><path stroke="#4C5C68" stroke-width="1.025" stroke-linecap="round" stroke-linejoin="round" stroke-miterlimit="10" d="M13 55.7v-38.7" fill="none"/><path stroke="#4C5C68" stroke-linecap="round" stroke-linejoin="round" stroke-miterlimit="10" d="M15.9 13.1h25.8c2.2 0 4.1 1.8 4.1 4.1v35.2c0 2.1-1.7 3.8-3.8 3.8h-30M13.1 39.7v14.6c0 1.1-.9 2-2 2h-.5c-1.2 0-2.1-1-2.1-2.1v-19.1h2.2M22.2 19.6h9.5M22.2 36.6h19.9M22.2 40h19.9M22.2 43.5h19.9M22.2 47h19.9M22.2 50.4h10.4M22.2 23.1h7.2M31.1 23.1h11.2" fill="none"/><path fill="#F9CA38" stroke="#4C5C68" stroke-linecap="round" stroke-linejoin="round" stroke-miterlimit="10" d="M21.8 26.5h20.6v6.5h-20.6z"/><path fill="#fff" stroke="#4C5C68" stroke-linecap="round" stroke-linejoin="round" stroke-miterlimit="10" d="M49.6 18.4h5.8v35.9h-5.8z"/><path fill="#286090" d="M50 18.4h5v14.6h-5z"/><path fill="#fff" stroke="#4C5C68" stroke-linecap="round" stroke-linejoin="round" stroke-miterlimit="10" d="M52.9 13l2.5 5.1h-5.8z"/><path fill="#F9CA38" stroke="#4C5C68" stroke-linecap="round" stroke-linejoin="round" stroke-miterlimit="10" d="M51.1 54.3h2.9v2.7h-2.9z"/><path stroke="#4C5C68" stroke-linecap="round" stroke-linejoin="round" stroke-miterlimit="10" d="M52.5 54v-13.3" fill="none"/><path stroke="#CEE8FA" stroke-linecap="round" stroke-linejoin="round" stroke-miterlimit="10" d="M53.6 28.8h-1.9M53.6 26.8h-1.9M53.6 24.8h-1.9" fill="none"/></svg>