<svg xmlns="http://www.w3.org/2000/svg" viewBox="0 0 64 64" enable-background="new 0 0 64 64"><path fill="#CEE8FA" stroke="#4C5C68" stroke-width=".855" stroke-linecap="round" stroke-linejoin="round" stroke-miterlimit="10" d="M53.1 30.4h2.5v8.3h-2.5z"/><path fill="#fff" stroke="#4C5C68" stroke-linecap="round" stroke-linejoin="round" stroke-miterlimit="10" d="M34.1 44.2h19.8v-1.8M53.9 42.4v-20.6h-27.7v3.7"/><path fill="#fff" stroke="#4C5C68" stroke-linecap="round" stroke-linejoin="round" stroke-miterlimit="10" d="M53.9 25.1h-24.1c-1.9 0-3.7-1.4-3.7-3.2v-.1c0-1.8 1.8-3.3 3.7-3.3h24.1v6.6z"/><path fill="#fff" stroke="#4C5C68" stroke-width=".855" stroke-linecap="round" stroke-linejoin="round" stroke-miterlimit="10" d="M55.6 36.8h-9.8c-1.7 0-2.9-1.1-2.9-2.6v.1c0-1.5 1.2-2.4 2.9-2.4h9.8v4.9z"/><path fill="#FEBD2E" d="M54.8 36h-8.7c-1.5 0-2.3-.7-2.3-1.8v.1c0-1 .8-1.7 2.3-1.7h8.7v3.4z"/><path stroke="#4C5C68" stroke-width=".855" stroke-linecap="round" stroke-linejoin="round" stroke-miterlimit="10" stroke-dasharray="0.8552,2.5656" d="M29.1 28.4h23.5M34.1 41.8h18.5" fill="none"/><ellipse fill="#286090" cx="45.5" cy="34.2" rx="1" ry="1"/><path fill="#FEBD2E" stroke="#4C5C68" stroke-linecap="round" stroke-linejoin="round" stroke-miterlimit="10" d="M35.4 19.7v-2.9h16.8v2.9M29.5 23v-2.1h21.9v2.1"/><path fill="#fff" d="M20.9 40.8c-3.1 0-5.7-3.3-5.7-7.4s2.5-7.4 5.7-7.4c3.1 0 5.7 3.3 5.7 7.4s-2.6 7.4-5.7 7.4z"/><path fill="#4C5C68" d="M20.9 26.5c2.9 0 5.2 3.1 5.2 6.9s-2.3 6.9-5.2 6.9-5.2-3.1-5.2-6.9 2.3-6.9 5.2-6.9m0-1c-3.4 0-6.2 3.5-6.2 7.9s2.8 7.9 6.2 7.9 6.2-3.5 6.2-7.9-2.8-7.9-6.2-7.9z"/><path fill="#286090" stroke="#4C5C68" stroke-linecap="round" stroke-linejoin="round" stroke-miterlimit="10" d="M8.1 47.8h25.4l-1.9-5.2-5.9-1.6-4.9 2.6-5-2.7-5.8 1.7z"/><path stroke="#4C5C68" stroke-linecap="round" stroke-linejoin="round" stroke-miterlimit="10" d="M15.5 32.1s5.4 2 5.9-3.5c0 0 .6 2.4 4.2 1.5" fill="none"/></svg>