<svg xmlns="http://www.w3.org/2000/svg" viewBox="0 0 64 64" enable-background="new 0 0 64 64"><path fill="#fff" stroke="#4C5C68" stroke-linecap="round" stroke-linejoin="round" stroke-miterlimit="10" d="M6.9 24.6h48v26h-48z"/><path fill="#F9CA38" stroke="#4C5C68" stroke-linecap="round" stroke-linejoin="round" stroke-miterlimit="10" d="M6.9 22.3v-6h48v6"/><path fill="#fff" stroke="#4C5C68" stroke-linecap="round" stroke-linejoin="round" stroke-miterlimit="10" d="M42 10.3h6.7v41.5h-6.7z"/><path fill="#286090" d="M42.5 34.9h5.7v16.9h-5.7z"/><path fill="#fff" stroke="#4C5C68" stroke-linecap="round" stroke-linejoin="round" stroke-miterlimit="10" d="M44.9 57.9l-2.9-5.9h6.7z"/><path fill="#F9CA38" stroke="#4C5C68" stroke-linecap="round" stroke-linejoin="round" stroke-miterlimit="10" d="M43.7 7.1h3.3v3.1h-3.3z"/><path stroke="#4C5C68" stroke-width="1.099" stroke-linecap="round" stroke-linejoin="round" stroke-miterlimit="10" d="M42.1 35.3h6.2" fill="none"/><path stroke="#4C5C68" stroke-linecap="round" stroke-linejoin="round" stroke-miterlimit="10" d="M45.6 10.5v15.4" fill="none"/><path fill="#fff" stroke="#4C5C68" stroke-linecap="round" stroke-linejoin="round" stroke-miterlimit="10" d="M9.7 19.7h15.2M19.7 28.7h11.5M19.7 47.7h11.5M19.7 33.1h18.8M19.7 35.7h18.8M19.7 38.3h18.8M9.4 27.6h2.1M9.4 47.6h2.1M33.2 47.6h2.1"/><path stroke="#CEE8FA" stroke-width="1.099" stroke-linecap="round" stroke-linejoin="round" stroke-miterlimit="10" d="M44.1 39.7h2.2M44.1 42h2.2M44.1 44.4h2.2" fill="none"/><text transform="translate(8.812 41.455)" fill="#4C5C68" font-family="'Quicksand-Bold'" font-size="13.124">$</text></svg>