<svg xmlns="http://www.w3.org/2000/svg" viewBox="0 0 64 64" enable-background="new 0 0 64 64"><path fill="#CEE8FA" d="M7.7 35h48.8v14.2h-48.8z"/><path fill="#fff" stroke="#4C5C68" stroke-linecap="round" stroke-linejoin="round" stroke-miterlimit="10" d="M56.5 18.5v16.5h-49v-21h49"/><g stroke="#4C5C68" stroke-linecap="round" stroke-linejoin="round" stroke-miterlimit="10" fill="none"><path d="M7.5 37h49M7.5 39.5h49M7.5 41.9h49M7.5 44.4h49M7.5 46.8h49M7.5 49.2h49"/></g><path fill="#fff" stroke="#FEBD2E" stroke-linecap="round" stroke-linejoin="round" stroke-miterlimit="10" d="M18 18.5h-4l-3.5 3.4v6.1l3.2 3.5h4.3M47 18.5h3.5l3 3.4v6.1l-2.7 3.5h-4.8"/><ellipse fill="#fff" stroke="#4C5C68" stroke-linecap="round" stroke-linejoin="round" stroke-miterlimit="10" cx="32.5" cy="24.5" rx="7.2" ry="7.1"/><ellipse fill="#286090" cx="32.5" cy="24.5" rx="5.6" ry="5.6"/><text transform="translate(29.792 27.145)" fill="#CEE8FA" font-family="'Quicksand-Bold'" font-size="7.875">$</text><path fill="#fff" stroke="#4C5C68" stroke-linecap="round" stroke-linejoin="round" stroke-miterlimit="10" d="M14 24.5h6M44 24.5h6"/></svg>