<svg xmlns="http://www.w3.org/2000/svg" viewBox="0 0 64 64" enable-background="new 0 0 64 64"><path fill="#fff" stroke="#4C5C68" stroke-linecap="round" stroke-linejoin="round" stroke-miterlimit="10" d="M38.1 51.7h-29.3v-37.7h20.7"/><path fill="#fff" stroke="#4C5C68" stroke-linecap="round" stroke-linejoin="round" stroke-miterlimit="10" d="M33.1 8h16v23.1h-16z"/><path fill="#CEE8FA" d="M36.2 9.6h11.2v19.7h-11.2z"/><path fill="#fff" stroke="#4C5C68" stroke-linecap="round" stroke-linejoin="round" stroke-miterlimit="10" d="M34.9 30.6v-22.2"/><path fill="#fff" stroke="#4C5C68" stroke-width=".888" stroke-linecap="round" stroke-linejoin="round" stroke-miterlimit="10" d="M46.5 27v-2.6"/><path stroke="#CEE8FA" stroke-width="1.099" stroke-linecap="round" stroke-linejoin="round" stroke-miterlimit="10" d="M46.5 22.6v-1.8M46.5 18.2v-1.8" fill="none"/><circle opacity=".6" fill="#286090" cx="39.5" cy="12.8" r="2.2"/><circle fill="#fff" cx="39.5" cy="16.3" r="2.2"/><path stroke="#4C5C68" stroke-linecap="round" stroke-linejoin="round" stroke-miterlimit="10" d="M50.4 19.3l5.2 5.6v8.6l-1.4 4.2v8h-10.6v-3.2s-3.1-4.4-3-8" fill="none"/><path fill="#fff" stroke="#4C5C68" stroke-linecap="round" stroke-linejoin="round" stroke-miterlimit="10" d="M50.8 28.8l-5.6-5.6s-3.4-1.6-3.4 3.4l5 5s-.4 4.7 3.5 8.5"/><path fill="#FEBD2E" stroke="#4C5C68" stroke-linecap="round" stroke-linejoin="round" stroke-miterlimit="10" d="M41.4 55.5v-9.9h15.2v9.9"/><path fill="#fff" stroke="#4C5C68" stroke-linecap="round" stroke-linejoin="round" stroke-miterlimit="10" d="M12 25.5h10M12 28.9h16M12 32h16M12 40.7h24.2M12 43.9h24.2"/><path fill="#CEE8FA" stroke="#4C5C68" stroke-linecap="round" stroke-linejoin="round" stroke-miterlimit="10" d="M12 35.1h24.9v2.6h-24.9z"/></svg>