<svg xmlns="http://www.w3.org/2000/svg" viewBox="0 0 64 64" enable-background="new 0 0 64 64"><path fill="#CEE8FA" stroke="#4C5C68" stroke-width=".855" stroke-linecap="round" stroke-linejoin="round" stroke-miterlimit="10" d="M53.1 30.4h2.5v8.3h-2.5z"/><path fill="#fff" stroke="#4C5C68" stroke-linecap="round" stroke-linejoin="round" stroke-miterlimit="10" d="M35.8 44.2h17.7v-2.2M53.5 42v-25h-33.6v4.5"/><path fill="#fff" stroke="#4C5C68" stroke-linecap="round" stroke-linejoin="round" stroke-miterlimit="10" d="M53.5 21h-29.1c-2.3 0-4.5-1.7-4.5-3.9v-.1c0-2.2 2.2-4 4.5-4h29.2v8z"/><path fill="#fff" stroke="#4C5C68" stroke-width=".855" stroke-linecap="round" stroke-linejoin="round" stroke-miterlimit="10" d="M55.6 35.2h-11.9c-2 0-3.5-1.3-3.5-3.2v.1c0-1.9 1.4-3 3.5-3h11.8v6.1z"/><path fill="#FEBD2E" d="M54.6 34.2h-10.5c-1.8 0-2.8-.9-2.8-2.2v.1c0-1.3 1-2 2.8-2h10.5v4.1z"/><path stroke="#4C5C68" stroke-width=".855" stroke-linecap="round" stroke-linejoin="round" stroke-miterlimit="10" stroke-dasharray="0.8552,2.5656" d="M23.4 25.1h28.6M35.7 41.2h16.3" fill="none"/><ellipse fill="#286090" cx="43.4" cy="32.1" rx="1.3" ry="1.2"/><path fill="#FEBD2E" stroke="#4C5C68" stroke-linecap="round" stroke-linejoin="round" stroke-miterlimit="10" d="M31.1 14.4v-3.5h20.4v3.5M24 18.5v-2.5h26.5v2.5"/><path fill="#fff" d="M20.9 41.8c-3.1 0-5.7-3.3-5.7-7.4s2.5-7.4 5.7-7.4c3.1 0 5.7 3.3 5.7 7.4s-2.6 7.4-5.7 7.4z"/><path fill="#4C5C68" d="M20.9 27.5c2.9 0 5.2 3.1 5.2 6.9s-2.3 6.9-5.2 6.9-5.2-3.1-5.2-6.9 2.3-6.9 5.2-6.9m0-1c-3.4 0-6.2 3.5-6.2 7.9s2.8 7.9 6.2 7.9 6.2-3.5 6.2-7.9-2.8-7.9-6.2-7.9z"/><path fill="#286090" stroke="#4C5C68" stroke-linecap="round" stroke-linejoin="round" stroke-miterlimit="10" d="M8.1 48.8h25.4l-1.9-5.2-5.9-1.6-4.9 2.6-5-2.7-5.8 1.7z"/><path stroke="#4C5C68" stroke-linecap="round" stroke-linejoin="round" stroke-miterlimit="10" d="M15.5 33.1s5.4 2 5.9-3.5c0 0 .6 2.4 4.2 1.5" fill="none"/></svg>