<svg xmlns="http://www.w3.org/2000/svg" viewBox="0 0 64 64" enable-background="new 0 0 64 64"><path fill="#CEE8FA" stroke="#4C5C68" stroke-linecap="round" stroke-linejoin="round" stroke-miterlimit="10" d="M45.5 19.9v35.2h-31.9v-46.4h22.5M47.7 21.8v33.3h-31.9v-43.9h22.5"/><path fill="#fff" d="M50.1 24.1v31.7h-31.6v-41.8h22.3"/><path stroke="#4C5C68" stroke-linecap="round" stroke-linejoin="round" stroke-miterlimit="10" d="M18 44.8v-31.2h22.5M43.7 55.1h-25.7v-3.7" fill="none"/><path fill="#CEE8FA" stroke="#4C5C68" stroke-linecap="round" stroke-linejoin="round" stroke-miterlimit="10" d="M40.5 13.4v10.5h9.6z"/><path stroke="#4C5C68" stroke-linecap="round" stroke-linejoin="round" stroke-miterlimit="10" d="M31.7 27.8h12.3M31.7 31.6h8.3M22.9 35.3h17.8M22.9 39.7h17.8M22.9 43.5h17.8M24.9 47.3h15.6" fill="none"/><path fill="#F9CA38" stroke="#4C5C68" stroke-linecap="round" stroke-linejoin="round" stroke-miterlimit="10" d="M22.9 25.8h5.7v5.7h-5.7z"/><path fill="#286090" stroke="#fff" stroke-width="2" stroke-miterlimit="10" d="M49.4 39.1h-4.9l5.4-5.4 5.5 5.4h-3.6v14.1h-3.5v-14.1"/><path stroke="#4C5C68" stroke-linecap="round" stroke-linejoin="round" stroke-miterlimit="10" d="M48.3 39.1h-3.8l5.4-5.4 5.5 5.4h-3.6v14.1h-3.5v-14.1M50.1 30.5v-6.6" fill="none"/></svg>