<svg xmlns="http://www.w3.org/2000/svg" viewBox="0 0 64 64" enable-background="new 0 0 64 64"><path fill="#fff" d="M46.4 54.4h-27.8c-2.7 0-4.9-2.2-4.9-4.9v-19.5c0-6.1 5-11.1 11.1-11.1h9.9c6.5 0 11.8 5.3 11.8 11.8v23.7zM24.9 15.8h9.2v3h-9.2z"/><path fill="#4C5C68" d="M34.1 19.4h-9.2c-.3 0-.5-.2-.5-.5v-3c0-.3.2-.5.5-.5h9.2c.3 0 .5.2.5.5v3c0 .3-.2.5-.5.5zm-8.7-1h8.2v-2h-8.2v2z"/><path fill="#fff" d="M25.1 15.8l-2.1-5.2c-.2-.5 0-1.1.5-1.3 1.2-.7 3.4-1.5 6 .3 0 0 3.7-1.8 6-.3.5.3.7.8.5 1.4l-2.1 5.2h-8.8z"/><path fill="#4C5C68" d="M33.8 16.3h-8.8c-.2 0-.4-.1-.5-.3l-2.1-5.3c-.3-.7 0-1.5.7-2 1.2-.7 3.5-1.6 6.3.1.9-.4 4.1-1.6 6.2-.1.7.4.9 1.2.7 1.9l-2 5.4c-.1.2-.3.3-.5.3zm-8.4-1h8.1l1.9-4.9c.1-.3 0-.6-.3-.8-2-1.4-5.5.3-5.5.3-.2.1-.4.1-.5 0-2.3-1.6-4.2-1-5.4-.3-.3.2-.4.5-.3.7l2 5zM24.3 17c-1.8 0-2.8-1.4-3.1-2.2-.1-.3 0-.5.3-.6.3-.1.5 0 .6.3 0 .1.7 1.6 2.3 1.5.3 0 .5.2.5.5s-.2.5-.5.5h-.1z"/><path fill="#fff" d="M33.8 54.4h-15.2c-2.7 0-4.9-2.2-4.9-4.9"/><path fill="#4C5C68" d="M33.8 54.9h-15.2c-3 0-5.4-2.4-5.4-5.4 0-.3.2-.5.5-.5s.5.2.5.5c0 2.4 2 4.4 4.4 4.4h15.2c.3 0 .5.2.5.5s-.3.5-.5.5z"/><path fill="#fff" d="M13.7 38.2v-8.2c0-6.1 5-11.1 11.1-11.1h9.9c6.5 0 11.8 5.3 11.8 11.8v23.7h-7.6"/><path fill="#4C5C68" d="M46.4 54.9h-7.6c-.3 0-.5-.2-.5-.5s.2-.5.5-.5h7.1v-23.3c0-6.2-5-11.3-11.3-11.3h-9.9c-5.8 0-10.6 4.8-10.6 10.6v8.3c0 .3-.2.5-.5.5s-.5-.2-.5-.5v-8.2c0-6.4 5.2-11.6 11.6-11.6h9.9c6.8 0 12.3 5.5 12.3 12.3v23.7c0 .2-.2.5-.5.5zM34.5 17h-.2c-.3 0-.5-.3-.5-.5 0-.3.2-.5.5-.5 1.6.1 2.3-1.5 2.3-1.5.1-.3.4-.4.6-.3.3.1.4.4.3.6-.2.8-1.2 2.2-3 2.2z"/><path fill="#fff" d="M10.1 40.4h9.7v4.4h-9.7z"/><path fill="#4C5C68" d="M19.8 45.3h-9.7c-.3 0-.5-.2-.5-.5v-4.4c0-.3.2-.5.5-.5h9.7c.3 0 .5.2.5.5v4.4c0 .3-.2.5-.5.5zm-9.2-1h8.7v-3.4h-8.7v3.4z"/><path fill="#FEBD2E" d="M15.4 41h4v3.4h-4z"/><path fill="#fff" d="M10.1 44.8h9.7v3.5h-9.7z"/><path fill="#4C5C68" d="M19.8 48.8h-9.7c-.3 0-.5-.2-.5-.5v-3.5c0-.3.2-.5.5-.5h9.7c.3 0 .5.2.5.5v3.5c0 .3-.2.5-.5.5zm-9.2-1h8.7v-2.5h-8.7v2.5z"/><path fill="#FEBD2E" d="M15.4 45.3h4v2.6h-4z"/><path fill="#fff" d="M10.1 48.3h9.7v3.5h-9.7z"/><path fill="#4C5C68" d="M19.8 52.4h-9.7c-.3 0-.5-.2-.5-.5v-3.5c0-.3.2-.5.5-.5h9.7c.3 0 .5.2.5.5v3.5c0 .2-.2.5-.5.5zm-9.2-1h8.7v-2.5h-8.7v2.5z"/><path fill="#FEBD2E" d="M15.4 48.9h4v2.6h-4z"/><path fill="#fff" d="M10.1 51.9h9.7v3.5h-9.7z"/><path fill="#4C5C68" d="M19.8 55.9h-9.7c-.3 0-.5-.2-.5-.5v-3.5c0-.3.2-.5.5-.5h9.7c.3 0 .5.2.5.5v3.5c0 .3-.2.5-.5.5zm-9.2-1h8.7v-2.5h-8.7v2.5z"/><path fill="#FEBD2E" d="M15.4 52.4h4v2.5h-4z"/><ellipse fill="#fff" cx="29.9" cy="32.5" rx="10.1" ry="10"/><path fill="#4C5C68" d="M29.9 43c-5.8 0-10.6-4.7-10.6-10.5 0-5.7 4.7-10.5 10.6-10.5s10.6 4.7 10.6 10.5-4.8 10.5-10.6 10.5zm0-20c-5.3 0-9.6 4.3-9.6 9.5s4.3 9.5 9.6 9.5 9.6-4.3 9.6-9.5-4.3-9.5-9.6-9.5z"/><path fill="#fff" d="M44.4 32.1h8.2v4.1h-8.2z"/><path fill="#4C5C68" d="M52.6 36.6h-8.2c-.3 0-.5-.2-.5-.5v-4.1c0-.3.2-.5.5-.5h8.2c.3 0 .5.2.5.5v4.1c0 .3-.2.5-.5.5zm-7.7-1h7.2v-3.1h-7.2v3.1z"/><path fill="#FEBD2E" d="M49 32.6h3.1v4.1h-3.1z"/><path fill="#fff" d="M44.4 36.1h8.2v4.1h-8.2z"/><path fill="#4C5C68" d="M52.6 40.7h-8.2c-.3 0-.5-.2-.5-.5v-4.1c0-.3.2-.5.5-.5h8.2c.3 0 .5.2.5.5v4.1c0 .3-.2.5-.5.5zm-7.7-1h7.2v-3.1h-7.2v3.1z"/><path fill="#FEBD2E" d="M49 36.6h3.1v4.1h-3.1z"/><path fill="#fff" d="M44.4 40.2h8.2v4.1h-8.2z"/><path fill="#4C5C68" d="M52.6 44.7h-8.2c-.3 0-.5-.2-.5-.5v-4.1c0-.3.2-.5.5-.5h8.2c.3 0 .5.2.5.5v4.1c0 .3-.2.5-.5.5zm-7.7-1h7.2v-3.1h-7.2v3.1z"/><path fill="#FEBD2E" d="M49 40.7h3.1v3h-3.1z"/><path fill="#fff" d="M44.4 44.2h8.2v4.1h-8.2z"/><path fill="#4C5C68" d="M52.6 48.8h-8.2c-.3 0-.5-.2-.5-.5v-4.1c0-.3.2-.5.5-.5h8.2c.3 0 .5.2.5.5v4.1c0 .3-.2.5-.5.5zm-7.7-1h7.2v-3.1h-7.2v3.1z"/><path fill="#FEBD2E" d="M49 44.7h3.1v3h-3.1z"/><path fill="#fff" d="M44.4 47.3h8.2v4.1h-8.2z"/><path fill="#4C5C68" d="M52.6 51.8h-8.2c-.3 0-.5-.2-.5-.5v-4.1c0-.3.2-.5.5-.5h8.2c.3 0 .5.2.5.5v4.1c0 .3-.2.5-.5.5zm-7.7-1h7.2v-3.1h-7.2v3.1z"/><path fill="#FEBD2E" d="M49 47.8h3.1v4.1h-3.1z"/><path fill="#fff" d="M44.4 51.3h8.2v4.1h-8.2z"/><path fill="#4C5C68" d="M52.6 55.9h-8.2c-.3 0-.5-.2-.5-.5v-4.1c0-.3.2-.5.5-.5h8.2c.3 0 .5.2.5.5v4.1c0 .3-.2.5-.5.5zm-7.7-1h7.2v-3.1h-7.2v3.1z"/><path fill="#FEBD2E" d="M49 51.8h3.1v3h-3.1z"/><path fill="#fff" d="M36.2 47.3h8.2v4.1h-8.2z"/><path fill="#4C5C68" d="M44.4 51.8h-8.2c-.3 0-.5-.2-.5-.5v-4.1c0-.3.2-.5.5-.5h8.2c.3 0 .5.2.5.5v4.1c0 .3-.2.5-.5.5zm-7.7-1h7.2v-3.1h-7.2v3.1z"/><path fill="#FEBD2E" d="M40.8 47.8h3.1v4.1h-3.1z"/><path fill="#fff" d="M36.2 51.3h8.2v4.1h-8.2z"/><path fill="#4C5C68" d="M44.4 55.9h-8.2c-.3 0-.5-.2-.5-.5v-4.1c0-.3.2-.5.5-.5h8.2c.3 0 .5.2.5.5v4.1c0 .3-.2.5-.5.5zm-7.7-1h7.2v-3.1h-7.2v3.1z"/><path fill="#FEBD2E" d="M40.8 51.8h3.1v3h-3.1z"/><ellipse fill="#286090" cx="29.9" cy="32.5" rx="7.9" ry="7.9"/><path fill="#CEE8FA" d="M29.8 27.8c.3 0 .5.2.5.5v.2c.7.1 1.2.3 1.7.6.2.1.3.3.3.5 0 .3-.3.6-.6.6-.1 0-.2 0-.3-.1-.4-.2-.8-.4-1.1-.5v2.1c1.7.4 2.4 1.1 2.4 2.3 0 1.2-1 2-2.4 2.2v.7c0 .3-.2.5-.5.5s-.5-.2-.5-.5v-.7c-.8-.1-1.6-.4-2.3-.9-.2-.1-.3-.3-.3-.5 0-.3.3-.6.6-.6.1 0 .3 0 .4.1.5.4 1 .6 1.6.7v-2.2c-1.6-.4-2.4-1-2.4-2.3 0-1.2.9-2 2.3-2.1v-.2c.1-.2.3-.4.6-.4zm-.5 3.8v-2c-.7.1-1.1.4-1.1.9.1.5.3.8 1.1 1.1zm.9 1.5v2c.7-.1 1.1-.4 1.1-1 0-.4-.2-.7-1.1-1z"/></svg>