<svg xmlns="http://www.w3.org/2000/svg" viewBox="0 0 64 64" enable-background="new 0 0 64 64"><g stroke="#4C5C68" stroke-linecap="round" stroke-linejoin="round" stroke-miterlimit="10"><path fill="#FEBD2E" d="M24.7 55.7v-6.4h-10.5v6.4"/><path fill="#fff" d="M21.9 47.9v-5.3l-5.3-4.6-1.3-4.3s-.2-1.1-1.2-.9c0 0-1.3.3-1 1.3l1.7 5.6-.3 1.3"/><path d="M13.6 31.4v-7.2s0-1.1-1-1.4c-1-.2-1.4.8-1.6 1.9l-2.3 12.2s-.4 1.6.3 2.8c.7 1.1 6.8 6.3 6.8 6.3l.6 1.9" fill="none"/><path fill="#FEBD2E" d="M39.8 55.7v-6.4h10.5v6.4"/><path fill="#fff" d="M42.6 47.9v-5.3l5.4-4.6 1.3-4.3s.2-1.1 1.2-.9c0 0 1.3.3 1 1.3l-1.7 5.6.3 1.3"/><path d="M50.9 31.4v-7.2s0-1.1 1-1.4c1-.2 1.4.8 1.6 1.9.2 1.1 2.3 12.2 2.3 12.2s.4 1.6-.3 2.7l-6.8 6.3-.7 2" fill="none"/></g><ellipse fill="#fff" stroke="#4C5C68" stroke-linecap="round" stroke-linejoin="round" stroke-miterlimit="10" cx="32" cy="22.5" rx="16.1" ry="16"/><ellipse fill="#286090" cx="32" cy="22.5" rx="12.7" ry="12.6"/><path fill="#CEE8FA" d="M31.9 15c.4 0 .8.3.8.8v.4c1 .1 1.9.5 2.8 1 .3.2.5.4.5.9s-.4 1-1 1c-.2 0-.4-.1-.5-.2-.6-.4-1.2-.6-1.8-.8v3.4c2.7.7 3.9 1.8 3.9 3.7 0 2-1.5 3.2-3.8 3.5v1.1c0 .4-.3.8-.8.8-.4 0-.8-.3-.8-.8v-1.1c-1.3-.1-2.6-.6-3.6-1.4-.3-.2-.5-.5-.5-.9 0-.6.4-1 1-1 .2 0 .4.1.6.2.8.6 1.7 1 2.6 1.2v-3.5c-2.6-.7-3.8-1.7-3.8-3.7 0-1.9 1.5-3.2 3.7-3.4v-.4c-.1-.5.2-.8.7-.8zm-.7 6v-3.1c-1.1.1-1.7.7-1.7 1.5 0 .7.3 1.2 1.7 1.6zm1.4 2.5v3.2c1.1-.1 1.8-.7 1.8-1.5-.1-.8-.5-1.3-1.8-1.7z"/></svg>