<svg xmlns="http://www.w3.org/2000/svg" viewBox="0 0 64 64" enable-background="new 0 0 64 64"><path fill="#CEE8FA" d="M21.9 56h-3.8c-.5 0-1-.4-1-1v-43.9c0-1.4 1.1-2.5 2.5-2.5h.6c1.4 0 2.5 1.1 2.5 2.5v44.1c0 .4-.4.8-.8.8z"/><path stroke="#4C5C68" stroke-linecap="round" stroke-linejoin="round" stroke-miterlimit="10" d="M22.7 23.1v32.9M17.2 53.4v-42.1c0-1.5 1.2-2.7 2.7-2.7 1.5 0 2.7 1.2 2.7 2.7v5M17.1 55.7v-42.9M20.3 8.5h28.6c2.5 0 4.5 2 4.5 4.5v39c0 2.3-1.9 4.2-4.2 4.2h-33.2M17.2 38v16.1c0 1.2-1 2.2-2.2 2.2h-.5c-1.3 0-2.4-1.1-2.4-2.4v-21.1h2.5M27.3 15.7h10.5M27.3 34.5h22M27.3 38.3h22M27.3 42.2h22M27.3 46h22M27.3 49.8h11.5M27.3 19.6h7.9M37.1 19.6h12.4" fill="none"/><path fill="#F9CA38" stroke="#4C5C68" stroke-linecap="round" stroke-linejoin="round" stroke-miterlimit="10" d="M26.8 23.4h22.7v7.2h-22.7z"/></svg>