<svg xmlns="http://www.w3.org/2000/svg" xmlns:xlink="http://www.w3.org/1999/xlink" viewBox="0 0 64 64" enable-background="new 0 0 64 64"><defs><path id="a" d="M-57.8 32.9h-8l-3.8-7.3c-.3-.6.1-1.2.7-1.2h2.8c.2 0 .5.1.6.3l7.7 8.2z"/></defs><clipPath id="b"><use xlink:href="#a" overflow="visible"/></clipPath><g clip-path="url(#b)"><defs><path id="c" d="M-466.8-132h521.1v447.5h-521.1z"/></defs><clipPath><use xlink:href="#c" overflow="visible"/></clipPath></g><defs><path id="d" d="M-57.8 32.9h-8l-3.8-7.3c-.3-.6.1-1.2.7-1.2h2.8c.2 0 .5.1.6.3l7.7 8.2z"/></defs><clipPath id="e"><use xlink:href="#d" overflow="visible"/></clipPath><g clip-path="url(#e)"><defs><path id="f" d="M-466.8-132h521.1v447.5h-521.1z"/></defs><clipPath><use xlink:href="#f" overflow="visible"/></clipPath></g><defs><path id="g" d="M-68 24.3h-.9c-.6 0-1 .7-.7 1.2l3.8 7.3h3.1l-5.2-8.2c-.1 0-.1-.1-.1-.3"/></defs><clipPath id="h"><use xlink:href="#g" overflow="visible"/></clipPath><g clip-path="url(#h)"><defs><path id="i" d="M-466.8-132h521.1v447.5h-521.1z"/></defs><clipPath><use xlink:href="#i" overflow="visible"/></clipPath></g><defs><path id="j" d="M-56.2 33.6h-10.1l-4-7.7c-.2-.5-.2-1.1.1-1.5.3-.5.8-.7 1.3-.7h2.8c.4 0 .9.2 1.1.5l8.8 9.4zm-9.2-1.4h6l-6.5-7.1h-2.9s-.1 0-.1.1v.1l3.5 6.9z"/></defs><clipPath id="k"><use xlink:href="#j" overflow="visible"/></clipPath><g clip-path="url(#k)"><defs><path id="l" d="M-466.8-132h521.1v447.5h-521.1z"/></defs><clipPath><use xlink:href="#l" overflow="visible"/></clipPath></g><defs><path id="m" d="M-32.8 47.4c0 .7-.5 1.2-1.2 1.2s-1.2-.5-1.2-1.2.5-1.2 1.2-1.2 1.2.6 1.2 1.2"/></defs><clipPath id="n"><use xlink:href="#m" overflow="visible"/></clipPath><g clip-path="url(#n)"><defs><path id="o" d="M-466.8-132h521.1v447.5h-521.1z"/></defs><clipPath><use xlink:href="#o" overflow="visible"/></clipPath></g><defs><path id="p" d="M-42.7 20.6c0 .3-.3.6-.6.6s-.6-.3-.6-.6.3-.6.6-.6.6.2.6.6"/></defs><clipPath id="q"><use xlink:href="#p" overflow="visible"/></clipPath><g clip-path="url(#q)"><defs><path id="r" d="M-466.8-132h521.1v447.5h-521.1z"/></defs><clipPath><use xlink:href="#r" overflow="visible"/></clipPath></g><defs><path id="s" d="M-44 44.2c0 .3-.3.6-.6.6s-.6-.3-.6-.6.3-.6.6-.6.6.3.6.6"/></defs><clipPath id="t"><use xlink:href="#s" overflow="visible"/></clipPath><g clip-path="url(#t)"><defs><path id="u" d="M-466.8-132h521.1v447.5h-521.1z"/></defs><clipPath><use xlink:href="#u" overflow="visible"/></clipPath></g><defs><path id="v" d="M-28.1 17.8c0 .4-.4.8-.8.8s-.8-.4-.8-.8.4-.8.8-.8c.5 0 .8.4.8.8"/></defs><clipPath id="w"><use xlink:href="#v" overflow="visible"/></clipPath><g clip-path="url(#w)"><defs><path id="x" d="M-466.8-132h521.1v447.5h-521.1z"/></defs><clipPath><use xlink:href="#x" overflow="visible"/></clipPath></g><defs><path id="y" d="M-37.7 13.7c0 .6-.5 1.1-1.1 1.1-.6 0-1.1-.5-1.1-1.1 0-.6.5-1.1 1.1-1.1.6 0 1.1.5 1.1 1.1"/></defs><clipPath id="z"><use xlink:href="#y" overflow="visible"/></clipPath><g clip-path="url(#z)"><defs><path id="A" d="M-466.8-132h521.1v447.5h-521.1z"/></defs><clipPath><use xlink:href="#A" overflow="visible"/></clipPath></g><defs><path id="B" d="M-29.8 29c-.5-1.4-1.8-2.4-3.3-2.4-.7 0-1.3.2-1.8.5-.3-2.2-2.2-3.9-4.5-3.9-2.1 0-3.8 1.4-4.4 3.2-.3-.1-.5-.1-.8-.1-1.6 0-2.9 1.1-3.1 2.6h-.5c-1.3 0-2.4 1.1-2.4 2.3v.2c0 1.3 1.1 2.3 2.4 2.3h18.5c1.3 0 2.4-1.1 2.4-2.3v-.2c-.1-1.1-1.2-2.2-2.5-2.2"/></defs><clipPath id="C"><use xlink:href="#B" overflow="visible"/></clipPath><g clip-path="url(#C)"><defs><path id="D" d="M-466.8-132h521.1v447.5h-521.1z"/></defs><clipPath><use xlink:href="#D" overflow="visible"/></clipPath></g><defs><path id="E" d="M-29.8 34.6v-1.4c.9 0 1.6-.7 1.6-1.6v-.2c0-.9-.7-1.6-1.6-1.6h-.5l-.2-.5c-.3-1.1-1.4-1.9-2.5-1.9-.5 0-1 .1-1.4.4l-.9.6-.2-1.1c-.3-1.9-1.9-3.3-3.8-3.3-1.7 0-3.2 1.1-3.7 2.7l-.2.7-.7-.2c-1.4-.4-2.8.6-3 2l-.1.6h-1.1c-.6 0-1.1.3-1.4.8l-1.2-.7c.5-.9 1.5-1.5 2.6-1.5.5-1.7 2.2-2.8 4-2.6.8-1.9 2.7-3.1 4.9-3.1 2.3 0 4.3 1.5 5 3.6.4-.1.9-.2 1.3-.2 1.6 0 3.1 1 3.7 2.4 1.5.2 2.7 1.5 2.7 3v.2c-.2 1.6-1.6 2.9-3.3 2.9"/></defs><clipPath id="F"><use xlink:href="#E" overflow="visible"/></clipPath><g clip-path="url(#F)"><defs><path id="G" d="M-466.8-132h521.1v447.5h-521.1z"/></defs><clipPath><use xlink:href="#G" overflow="visible"/></clipPath></g><defs><path id="H" d="M-37 27.2c-.6-.9-1.6-1.4-2.6-1.4-.6 0-1.1.1-1.6.4l-.8-1.2c.7-.4 1.5-.6 2.3-.6 1.5 0 3 .8 3.8 2.1l-1.1.7z"/></defs><clipPath id="I"><use xlink:href="#H" overflow="visible"/></clipPath><g clip-path="url(#I)"><defs><path id="J" d="M-466.8-132h521.1v447.5h-521.1z"/></defs><clipPath><use xlink:href="#J" overflow="visible"/></clipPath></g><defs><path id="K" d="M-42.2 28h-1.4c0-.5-.4-.9-.9-.9v-1.4c1.2 0 2.3 1 2.3 2.3"/></defs><clipPath id="L"><use xlink:href="#K" overflow="visible"/></clipPath><g clip-path="url(#L)"><defs><path id="M" d="M-466.8-132h521.1v447.5h-521.1z"/></defs><clipPath><use xlink:href="#M" overflow="visible"/></clipPath></g><defs><path id="N" d="M-49.9 47.8c-.4-1.1-1.5-2-2.7-2-.5 0-1.1.2-1.5.4-.3-1.8-1.8-3.2-3.7-3.2-1.7 0-3.1 1.1-3.6 2.6-.2-.1-.4-.1-.7-.1-1.3 0-2.4.9-2.6 2.2h-.4c-1.1 0-1.9.9-1.9 1.9v.1c0 1.1.9 1.9 1.9 1.9h15.2c1.1 0 1.9-.9 1.9-1.9v-.1c0-.9-.8-1.8-1.9-1.8"/></defs><clipPath id="O"><use xlink:href="#N" overflow="visible"/></clipPath><g clip-path="url(#O)"><defs><path id="P" d="M-466.8-132h521.1v447.5h-521.1z"/></defs><clipPath><use xlink:href="#P" overflow="visible"/></clipPath></g><defs><path id="Q" d="M-62.4 51.8h-2.7c-1.1 0-1.9-.9-1.9-1.9v-.1c0-1.1.9-1.9 1.9-1.9h.4c.2-1.2 1.3-2.2 2.6-2.2.2 0 .5 0 .7.1.5-1.5 1.9-2.6 3.6-2.6 1.9 0 3.4 1.4 3.7 3.2.4-.3.9-.4 1.5-.4 1.3 0 2.3.8 2.6 2h.1c1.1 0 1.9.9 1.9 1.9v.1c0 1.1-.9 1.9-1.9 1.9h-12.5z"/></defs><clipPath id="R"><use xlink:href="#Q" overflow="visible"/></clipPath><g clip-path="url(#R)"><defs><path id="S" d="M-466.8-132h521.1v447.5h-521.1z"/></defs><clipPath><use xlink:href="#S" overflow="visible"/></clipPath></g><defs><path id="T" d="M-67.7 42.4h20.5v10.1h-20.5z"/></defs><clipPath id="U"><use xlink:href="#T" overflow="visible"/></clipPath><g clip-path="url(#U)"><defs><path id="V" d="M-466.8-132h521.1v447.5h-521.1z"/></defs><clipPath><use xlink:href="#V" overflow="visible"/></clipPath></g><defs><path id="W" d="M-51.9 20.8c-.3-.7-.9-1.3-1.7-1.3-.3 0-.7.1-.9.3-.2-1.1-1.2-2-2.4-2-1.1 0-2 .7-2.3 1.7l-.4-.1c-.8 0-1.5.6-1.6 1.4h-.3c-.7 0-1.2.6-1.2 1.2v.1c0 .7.6 1.2 1.2 1.2h9.7c.7 0 1.2-.6 1.2-1.2v-.1c-.1-.7-.6-1.2-1.3-1.2"/></defs><clipPath id="X"><use xlink:href="#W" overflow="visible"/></clipPath><g clip-path="url(#X)"><defs><path id="Y" d="M-466.8-132h521.1v447.5h-521.1z"/></defs><clipPath><use xlink:href="#Y" overflow="visible"/></clipPath></g><defs><path id="Z" d="M-59.8 23.3h-1.7c-.7 0-1.2-.6-1.2-1.2v-.1c0-.7.6-1.2 1.2-1.2h.3c.1-.8.8-1.4 1.6-1.4.1 0 .3 0 .4.1.3-1 1.2-1.7 2.3-1.7 1.2 0 2.2.9 2.4 2 .3-.2.6-.3.9-.3.8 0 1.5.5 1.7 1.3.7 0 1.2.6 1.2 1.2v.1c0 .7-.6 1.2-1.2 1.2h-7.9z"/></defs><clipPath id="aa"><use xlink:href="#Z" overflow="visible"/></clipPath><g clip-path="url(#aa)"><defs><path id="ab" d="M-466.8-132h521.1v447.5h-521.1z"/></defs><clipPath><use xlink:href="#ab" overflow="visible"/></clipPath></g><defs><path id="ac" d="M-51.9 24h-9.7c-1.1 0-2-.9-2-1.9 0-1.1.7-1.9 1.7-2 .4-.8 1.2-1.4 2.1-1.4.5-1 1.6-1.6 2.7-1.6 1.2 0 2.3.7 2.8 1.8 1.1-.2 2.2.3 2.7 1.3.9.2 1.5 1 1.5 1.9.2 1.1-.7 1.9-1.8 1.9zm-9.7-2.5c-.3 0-.5.2-.5.5 0 .4.2.6.5.6h9.7c.3 0 .5-.2.5-.5 0-.4-.2-.6-.5-.6h-.5l-.2-.5c-.2-.6-1-.9-1.5-.6l-.9.6-.2-1.1c-.1-.8-.8-1.4-1.7-1.4-.7 0-1.4.5-1.6 1.2l-.2.7-.7-.2c-.6-.2-1.1.2-1.2.7l-.1.6h-.9z"/></defs><clipPath id="ad"><use xlink:href="#ac" overflow="visible"/></clipPath><g clip-path="url(#ad)"><defs><path id="ae" d="M-466.8-132h521.1v447.5h-521.1z"/></defs><clipPath><use xlink:href="#ae" overflow="visible"/></clipPath></g><defs><path id="af" d="M-29.8 35.7h-.8c-.7-1.9-2.5-3.2-4.6-3.2h-32.8c0 4.5 3.7 8.1 8.2 8.1h30c1.2 0 2.3-1 2.3-2.2v-.4c-.1-1.3-1.1-2.3-2.3-2.3"/></defs><clipPath id="ag"><use xlink:href="#af" overflow="visible"/></clipPath><g clip-path="url(#ag)"><defs><path id="ah" d="M-466.8-132h521.1v447.5h-521.1z"/></defs><clipPath><use xlink:href="#ah" overflow="visible"/></clipPath></g><defs><path id="ai" d="M-29.8 38.7h-30c-3.9 0-7.1-2.7-8-6.2h-.2c0 4.5 3.7 8.1 8.2 8.1h30c1.2 0 2.3-1 2.3-2.2v-.4c0-.3-.1-.5-.1-.7-.4.8-1.3 1.4-2.2 1.4"/></defs><clipPath id="aj"><use xlink:href="#ai" overflow="visible"/></clipPath><g clip-path="url(#aj)"><defs><path id="ak" d="M-466.8-132h521.1v447.5h-521.1z"/></defs><clipPath><use xlink:href="#ak" overflow="visible"/></clipPath></g><defs><path id="al" d="M-29.8 41.4h-30c-4.9 0-8.9-4-8.9-8.9v-.7h33.5c2.2 0 4.1 1.3 5.1 3.2h.3c1.6 0 3 1.3 3 3v.5c-.1 1.5-1.4 2.9-3 2.9zm-37.4-8.2c.4 3.8 3.6 6.7 7.4 6.7h30c.8 0 1.5-.7 1.5-1.5v-.4c0-.8-.7-1.5-1.5-1.5h-1.3l-.2-.5c-.6-1.6-2.2-2.7-3.9-2.7h-32z"/></defs><clipPath id="am"><use xlink:href="#al" overflow="visible"/></clipPath><g clip-path="url(#am)"><defs><path id="an" d="M-466.8-132h521.1v447.5h-521.1z"/></defs><clipPath><use xlink:href="#an" overflow="visible"/></clipPath></g><defs><path id="ao" d="M-58.6 35.1h-9.5c-.6 0-1.1-.5-1.1-1.1v-.4c0-.6.5-1.1 1.1-1.1h9.5c.6 0 1.1.5 1.1 1.1v.4c0 .6-.5 1.1-1.1 1.1"/></defs><clipPath id="ap"><use xlink:href="#ao" overflow="visible"/></clipPath><g clip-path="url(#ap)"><defs><path id="aq" d="M-466.8-132h521.1v447.5h-521.1z"/></defs><clipPath><use xlink:href="#aq" overflow="visible"/></clipPath></g><defs><path id="ar" d="M-40.2 41.6h-11.6c-.6 0-1.1-.5-1.1-1.1v-.8c0-.6.5-1.1 1.1-1.1h11.6c.6 0 1.1.5 1.1 1.1v.8c.1.6-.4 1.1-1.1 1.1"/></defs><clipPath id="as"><use xlink:href="#ar" overflow="visible"/></clipPath><g clip-path="url(#as)"><defs><path id="at" d="M-466.8-132h521.1v447.5h-521.1z"/></defs><clipPath><use xlink:href="#at" overflow="visible"/></clipPath></g><defs><path id="au" d="M-58.6 35.8h-9.5c-1 0-1.8-.8-1.8-1.8v-.4c0-1 .8-1.8 1.8-1.8h9.5c1 0 1.8.8 1.8 1.8v.4c0 1-.8 1.8-1.8 1.8zm-9.5-2.6c-.2 0-.4.2-.4.4v.4c0 .2.2.4.4.4h9.5c.2 0 .4-.2.4-.4v-.4c0-.2-.2-.4-.4-.4h-9.5z"/></defs><clipPath id="av"><use xlink:href="#au" overflow="visible"/></clipPath><g clip-path="url(#av)"><defs><path id="aw" d="M-466.8-132h521.1v447.5h-521.1z"/></defs><clipPath><use xlink:href="#aw" overflow="visible"/></clipPath></g><defs><path id="ax" d="M-40.2 42.3h-11.6c-1 0-1.8-.8-1.8-1.8v-.8c0-1 .8-1.8 1.8-1.8h11.6c1 0 1.8.8 1.8 1.8v.8c.1 1-.8 1.8-1.8 1.8zm-11.6-3c-.2 0-.4.2-.4.4v.8c0 .2.2.4.4.4h11.6c.2 0 .4-.2.4-.4v-.8c0-.2-.2-.4-.4-.4h-11.6z"/></defs><clipPath id="ay"><use xlink:href="#ax" overflow="visible"/></clipPath><g clip-path="url(#ay)"><defs><path id="az" d="M-466.8-132h521.1v447.5h-521.1z"/></defs><clipPath><use xlink:href="#az" overflow="visible"/></clipPath></g><defs><path id="aA" d="M-70.4 12.6h43.8v39.9h-43.8z"/></defs><clipPath id="aB"><use xlink:href="#aA" overflow="visible"/></clipPath><g clip-path="url(#aB)"><defs><path id="aC" d="M-466.8-132h521.1v447.5h-521.1z"/></defs><clipPath><use xlink:href="#aC" overflow="visible"/></clipPath></g><circle fill="#D2E9F7" cx="36.7" cy="35" r="8.6"/><path fill="#0686D8" d="M36.7 44.4v-1.5c4.3 0 7.8-3.5 7.8-7.8s-3.5-7.8-7.8-7.8v-1.5c5.2 0 9.3 4.2 9.3 9.3.1 5.1-4.1 9.3-9.3 9.3z"/><circle fill="#5FB0E5" cx="42.4" cy="19.4" r=".8"/><circle fill="#5FB0E5" cx="51.6" cy="24" r="1"/><circle fill="#5FB0E5" cx="37.4" cy="12.5" r="1.1"/><circle fill="#5FB0E5" cx="50.2" cy="14.2" r="1.7"/><path fill="#0686D8" d="M42.482 25.563l2.067-3.541 1.295.756-2.067 3.541zM46.783 29.11l1.83-1.031.736 1.307-1.83 1.031zM37.257 23.332l.295-2.079 1.485.211-.295 2.079zM37.619 46.754l1.475-.271.379 2.066-1.475.271zM48.456 35.858l.024-1.5 4.1.065-.024 1.5zM46.561 41.006l.861-1.228 1.556 1.091-.861 1.228zM42.333 44.615l1.318-.716 1.956 3.603-1.318.716z"/><path fill="#9ECFEF" d="M18 30.6h-.3c-.5 0-1-.4-1-3l-1-8c-.1-1.2.5-2.4 1.5-3.1.4-.3.8-.5.8-.5-3.1-1.9-2.4-4-2.4-4.3 1.5 2.2 9.6 1.2 14.3 1.9 1.1.2 2 1.1 2.1 2.2l.1.9c.9 0 1.7.7 1.7 1.7l-1.3 11.2c0 .5-.4 1-1 1h-13.5z"/><path fill="#0686D8" d="M31.7 31.3h-14c-1.7 0-1.7-2.4-1.7-3.7l-1-7.9c-.2-1.5.5-2.9 1.7-3.7-2-1.7-2-3.4-1.8-4.4l.2-.7 1 .2.2.2c.8 1.1 4.7 1.2 7.9 1.3 2 0 4.1.1 5.8.3 1.4.2 2.6 1.4 2.8 2.8v.3c1 .3 1.7 1.2 1.7 2.3l-1.3 11.3c.2 1-.6 1.7-1.5 1.7zm-15.2-18.1c.3.8.9 1.5 2 2.2l1 .6-1 .6s-.4.3-.8.5c-.8.5-1.3 1.4-1.2 2.3l1 8c0 2 .3 2.3.3 2.3h14c.1 0 .2-.1.2-.2l1.3-11.3c0-.4-.4-.8-.9-.8h-.7l-.2-1.5c-.1-.8-.7-1.4-1.5-1.5-1.6-.2-3.6-.3-5.6-.3-3.3-.1-6.1-.1-7.9-.9z"/><path fill="#fff" d="M34.8 27.2c0 .6-.5 1.1-1.1 1.1-.6 0-1.1-.5-1.1-1.1v-1c0-.6.5-1.1 1.1-1.1.6 0 1.1.5 1.1 1.1v1z"/><path fill="#0686D8" d="M33.8 29c-1 0-1.8-.8-1.8-1.8v-1c0-1 .8-1.8 1.8-1.8s1.8.8 1.8 1.8v1c0 1-.8 1.8-1.8 1.8zm0-3.2c-.2 0-.3.1-.3.3v1c0 .2.1.3.3.3.2 0 .3-.1.3-.3v-1c0-.1-.1-.3-.3-.3z"/><path fill="#fff" d="M16.8 27.2c0 .6-.5 1.1-1.1 1.1-.6 0-1.1-.5-1.1-1.1v-1c0-.6.5-1.1 1.1-1.1.6 0 1.1.5 1.1 1.1v1z"/><path fill="#0686D8" d="M15.7 29c-1 0-1.8-.8-1.8-1.8v-1c0-1 .8-1.8 1.8-1.8s1.8.8 1.8 1.8v1c0 1-.8 1.8-1.8 1.8zm0-3.2c-.2 0-.3.1-.3.3v1c0 .2.1.3.3.3.2 0 .3-.1.3-.3v-1c0-.1-.1-.3-.3-.3z"/><path fill="#5FB0E5" d="M36.3 53.8v-7c0-5.4-5.1-9.8-11.4-9.8-6.3 0-11.4 4.4-11.4 9.8v7h22.8z"/><path fill="#0686D8" d="M37 53.8h-1.5v-7c0-5-4.8-9-10.6-9-5.9 0-10.6 4-10.6 9v7h-1.5v-7c0-5.8 5.4-10.5 12.1-10.5 6.7 0 12.1 4.7 12.1 10.5v7zM19.2 46.1h1.5v7.7h-1.5zM29.2 46.1h1.5v7.7h-1.5z"/><path fill="#fff" d="M24.5 41c-1.2 0-2.1-1-2.1-2.1v-4.9c0-1 .8-1.8 1.8-1.8h.6c1 0 1.8.8 1.8 1.8v4.8c0 1.2-.9 2.2-2.1 2.2z"/><path fill="#0686D8" d="M24.5 41.7c-1.6 0-2.9-1.3-2.9-2.9v-4.8c0-1.4 1.2-2.6 2.6-2.6h.6c1.4 0 2.6 1.2 2.6 2.6v4.8c0 1.6-1.3 2.9-2.9 2.9zm-.3-8.8c-.6 0-1.1.5-1.1 1.1v4.8c0 .8.6 1.4 1.4 1.4.8 0 1.4-.6 1.4-1.4v-4.8c0-.6-.5-1.1-1.1-1.1h-.6z"/><path fill="#fff" d="M24.7 36.8c-4.5 0-8.1-3.6-8.1-8.1v-5.5c0-4.5 3.6-4.4 8.1-4.4s8.1-.1 8.1 4.4v5.5c0 4.4-3.7 8.1-8.1 8.1z"/><path fill="#0686D8" d="M24.7 37.5c-4.9 0-8.9-4-8.9-8.9v-5.5c0-2.3.9-3.8 2.8-4.5 1.5-.6 3.6-.6 5.8-.6h.6c2.2 0 4.3 0 5.8.6 1.9.7 2.8 2.2 2.8 4.5v5.5c-.1 4.9-4.1 8.9-8.9 8.9zm-.6-17.9c-1.9 0-3.8 0-5 .5-.9.3-1.8 1-1.8 3.1v5.5c0 4.1 3.3 7.4 7.4 7.4 4.1 0 7.4-3.3 7.4-7.4v-5.5c0-2.1-.9-2.8-1.8-3.1-1.3-.5-3.2-.5-5.3-.5h-.9z"/><path stroke="#0686D8" stroke-width="2" stroke-miterlimit="10" d="M37 30.2v9.8m4.9-4.9h-9.8" fill="none"/></svg>