<svg xmlns="http://www.w3.org/2000/svg" xmlns:xlink="http://www.w3.org/1999/xlink" viewBox="0 0 64 64" enable-background="new 0 0 64 64"><circle fill="#5FB0E5" cx="38.3" cy="21.4" r=".6"/><circle fill="#5FB0E5" cx="27.7" cy="11.9" r="1.2"/><circle fill="#5FB0E5" cx="26.6" cy="19.1" r="1.1"/><circle fill="#5FB0E5" cx="41.2" cy="11.9" r="1.7"/><circle fill="#5FB0E5" cx="35.4" cy="16" r=".6"/><path fill="#0686D8" d="M31.3 49.3c-2.5 0-5-.5-7.3-1.5-2.2-.9-4.2-2.3-5.9-4-1.7-1.7-3.1-3.7-4-5.9-1-2.3-1.5-4.7-1.5-7.3 0-2.5.5-5 1.5-7.3.5-1.2 1.2-2.4 2-3.5l1.2.9c-.7 1-1.3 2.1-1.8 3.2-.9 2.1-1.3 4.4-1.3 6.7s.5 4.6 1.3 6.7c.9 2 2.1 3.9 3.7 5.4 1.6 1.6 3.4 2.8 5.4 3.7 4.2 1.8 9.1 1.8 13.3 0 2-.9 3.9-2.1 5.4-3.7 1.6-1.6 2.8-3.4 3.7-5.4.9-2.1 1.3-4.4 1.3-6.7s-.3-4.5-1.2-6.6c-.4-1-1-2-1.6-2.9l1.2-.8c.7 1 1.3 2.1 1.7 3.2 1 2.3 1.5 4.7 1.5 7.3 0 2.5-.5 5-1.5 7.3-.9 2.2-2.3 4.2-4 5.9-1.7 1.7-3.7 3.1-5.9 4-2.3.8-4.7 1.3-7.2 1.3z"/><path fill="#D2E9F7" d="M36.7 43.8s1.2 2.1.5 3.3c-.7 1.2-3.1 1.2-3.1 1.2s-1.2-2.1-.5-3.3c.8-1.2 3.1-1.2 3.1-1.2zM41.2 50s-1-2.3-2.8-2.6l-3.5 1.5s1 2.3 2.8 2.6c1.7.3 3.5-1.5 3.5-1.5zM42.3 39.4s2.1 1.2 2.1 2.6c0 1.4-2.1 2.6-2.1 2.6s-2.1-1.2-2.1-2.6c0-1.4 2.1-2.6 2.1-2.6zM49.6 42.5s-2-1.5-3.7-.9c-1.7.6-2.3 3-2.3 3s2 1.5 3.7.9c1.6-.6 2.3-3 2.3-3zM44.9 33.1s2.4 0 3.1 1.2c.7 1.2-.5 3.3-.5 3.3s-2.4 0-3.1-1.2c-.8-1.2.5-3.3.5-3.3zM53 31.7s-2.5-.3-3.7 1.1c-1.1 1.3-.5 3.8-.5 3.8s2.5.3 3.7-1.1c1.2-1.3.5-3.8.5-3.8zM43.8 26.1s2.1-1.2 3.3-.5c1.2.7 1.2 3.1 1.2 3.1s-2 1.3-3.3.5c-1.2-.7-1.2-3.1-1.2-3.1zM50.7 20.7s-2.3 1-2.6 2.8c-.3 1.7 1.5 3.5 1.5 3.5s2.3-1 2.6-2.8c.2-1.7-1.5-3.5-1.5-3.5zM44.4 15.4s-1.5 2-.9 3.7c.6 1.7 3 2.3 3 2.3s1.5-2 .9-3.7c-.5-1.6-3-2.3-3-2.3zM25.8 43.8s-1.2 2.1-.5 3.3c.7 1.2 3.1 1.2 3.1 1.2s1.2-2.1.5-3.3c-.7-1.2-3.1-1.2-3.1-1.2zM21.3 50s1-2.3 2.8-2.6c1.7-.3 3.5 1.5 3.5 1.5s-1 2.3-2.8 2.6c-1.7.3-3.5-1.5-3.5-1.5zM20.3 39.4s-2.1 1.2-2.1 2.6c0 1.4 2.1 2.6 2.1 2.6s2.1-1.2 2.1-2.6c0-1.4-2.1-2.6-2.1-2.6zM13 42.5s2-1.5 3.7-.9c1.7.6 2.3 3 2.3 3s-2 1.5-3.7.9c-1.7-.6-2.3-3-2.3-3zM17.7 33.1s-2.4 0-3.1 1.2c-.7 1.2.5 3.3.5 3.3s2.4 0 3.1-1.2c.7-1.2-.5-3.3-.5-3.3zM9.5 31.7s2.5-.3 3.7 1.1c1.1 1.3.5 3.8.5 3.8s-2.5.3-3.7-1.1c-1.1-1.3-.5-3.8-.5-3.8zM18.7 26.1s-2.1-1.2-3.3-.5c-1.2.7-1.2 3.1-1.2 3.1s2.1 1.2 3.3.5c1.3-.7 1.2-3.1 1.2-3.1zM11.9 20.7s2.3 1 2.6 2.8c.3 1.7-1.5 3.5-1.5 3.5s-2.3-1-2.6-2.8c-.3-1.7 1.5-3.5 1.5-3.5zM18.8 14.2s1.5 2 .9 3.7c-.6 1.7-3 2.3-3 2.3s-1.5-2-.9-3.7c.6-1.7 3-2.3 3-2.3z"/><path fill="#0686D8" d="M34.2 49.1h-.5l-.2-.4c-.1-.2-1.4-2.5-.5-4.1.9-1.6 3.5-1.6 3.8-1.6h.4l.2.4c.1.2 1.4 2.5.5 4.1-.9 1.5-3.3 1.6-3.7 1.6zm2.1-4.5c-.7.1-1.7.3-2 .8-.3.5 0 1.5.3 2.2.7-.1 1.7-.3 2-.8.3-.6 0-1.6-.3-2.2zM38.1 52.3h-.6c-2.1-.4-3.3-3-3.3-3.1l-.2-.5.4-.4c.1-.1 2.1-2.1 4.2-1.7 2.1.4 3.3 3 3.3 3.1l.2.5-.4.4s-1.7 1.7-3.6 1.7zm-2.2-3.3c.4.7 1.1 1.6 2 1.7.9.2 1.8-.4 2.5-.9-.4-.7-1.1-1.6-2-1.7-1-.1-2 .5-2.5.9zM42.3 45.5l-.4-.2c-.3-.1-2.5-1.4-2.5-3.3 0-1.8 2.2-3.1 2.5-3.3l.4-.2.4.2c.3.1 2.5 1.4 2.5 3.3 0 1.8-2.2 3.1-2.5 3.3l-.4.2zm0-5.2c-.6.4-1.3 1.1-1.3 1.7 0 .6.8 1.3 1.3 1.7.6-.4 1.3-1.1 1.3-1.7 0-.6-.7-1.3-1.3-1.7zM46.4 46.4c-1.7 0-3.2-1.1-3.3-1.2l-.4-.3.1-.5c0-.1.8-2.8 2.8-3.5 2-.7 4.3.9 4.4 1l.4.3-.1.5c0 .1-.8 2.8-2.8 3.6l-1.1.1zm-2-2.1c.7.4 1.7.8 2.6.5.8-.3 1.4-1.3 1.7-2-.7-.4-1.7-.8-2.6-.5-.8.3-1.4 1.3-1.7 2zM47.4 38.4c-.4 0-2.8-.1-3.7-1.6-.9-1.6.4-3.8.5-4.1l.2-.4h.4c.3 0 2.9 0 3.8 1.6.9 1.6-.4 3.8-.5 4.1l-.2.4h-.5zm-2.1-4.5c-.3.6-.6 1.6-.3 2.1s1.3.8 2 .8c.3-.6.6-1.6.3-2.2-.3-.4-1.3-.7-2-.7zM49.4 37.4h-.6l-.5-.1-.1-.5c0-.1-.7-2.8.6-4.5 1.4-1.6 4.2-1.4 4.3-1.3l.5.1.1.5c0 .1.7 2.8-.6 4.5-1 1.1-2.8 1.3-3.7 1.3zm3-4.9c-.8 0-1.9.2-2.5.8-.6.7-.5 1.8-.4 2.6.8 0 1.9-.2 2.5-.8.5-.7.5-1.9.4-2.6zM46 30.2c-.5 0-.9-.1-1.3-.3-1.6-.9-1.6-3.5-1.6-3.8v-.4l.4-.2c.2-.1 2.5-1.4 4.1-.5 1.6.9 1.6 3.5 1.6 3.8v.4l-.4.2c-.3.1-1.6.8-2.8.8zm-1.4-3.6c.1.7.3 1.7.8 2 .5.3 1.5 0 2.2-.3-.1-.7-.3-1.7-.8-2-.6-.3-1.6 0-2.2.3zM49.3 27.9l-.3-.3c-.1-.1-2.1-2.1-1.7-4.2.4-2.1 3-3.3 3.1-3.3l.5-.2.4.4c.1.1 2.1 2.1 1.7 4.2-.4 2.1-3 3.3-3.1 3.3l-.6.1zm1.2-6.2c-.7.4-1.6 1.1-1.7 2-.2.9.4 1.8.9 2.5.7-.4 1.6-1.1 1.7-2 .1-.9-.4-1.9-.9-2.5zM46.9 22.3l-.5-.1c-.1 0-2.8-.8-3.5-2.8-.7-2 .9-4.3 1-4.4l.3-.4.5.1c.1 0 2.8.8 3.5 2.8.7 2-.9 4.3-1 4.4l-.3.4zm-2.1-6c-.4.7-.8 1.7-.6 2.6.3.8 1.3 1.4 2 1.7.4-.7.8-1.7.5-2.6-.2-.8-1.2-1.4-1.9-1.7zM28.4 49.1c-.5 0-2.8-.1-3.7-1.6-.9-1.6.4-3.8.5-4.1l.2-.4h.4c.3 0 2.9 0 3.8 1.6.9 1.6-.4 3.8-.5 4.1l-.2.4h-.5zm-2.2-4.5c-.3.6-.6 1.6-.3 2.2.3.5 1.3.8 2 .8.3-.6.6-1.6.3-2.2-.2-.5-1.2-.8-2-.8zM24.4 52.3c-1.9 0-3.6-1.7-3.6-1.7l-.4-.4.2-.5c0-.1 1.2-2.7 3.3-3.1 2.1-.4 4.1 1.6 4.2 1.7l.4.4-.2.5c0 .1-1.2 2.7-3.3 3.1h-.6zm-2.1-2.4c.6.5 1.6 1.1 2.4.9.9-.2 1.6-1.1 2-1.7-.6-.5-1.6-1.1-2.4-.9-1 .1-1.7 1.1-2 1.7zM20.3 45.5l-.4-.2c-.3-.1-2.5-1.4-2.5-3.3 0-1.8 2.2-3.1 2.5-3.3l.4-.2.4.2c.3.1 2.5 1.4 2.5 3.3 0 1.8-2.2 3.1-2.5 3.3l-.4.2zm0-5.2c-.6.4-1.3 1.1-1.3 1.7 0 .6.8 1.3 1.3 1.7.6-.4 1.3-1.1 1.3-1.7 0-.6-.7-1.3-1.3-1.7zM16.1 46.4c-.4 0-.7-.1-1.1-.2-2-.7-2.8-3.4-2.8-3.5l-.1-.5.4-.3c.1-.1 2.4-1.7 4.4-1 2 .7 2.8 3.4 2.8 3.5l.1.5-.4.3c0 .1-1.6 1.2-3.3 1.2zm-2.2-3.6c.3.7.9 1.7 1.7 2 .9.3 2-.2 2.6-.5-.3-.7-.9-1.7-1.7-2-.9-.3-2 .1-2.6.5zM15.1 38.4h-.5l-.2-.4c-.1-.2-1.4-2.5-.5-4.1.9-1.6 3.4-1.6 3.8-1.6h.4l.2.4c.1.2 1.4 2.5.5 4.1-.8 1.5-3.2 1.6-3.7 1.6zm2.1-4.5c-.7.1-1.7.3-2 .8-.3.5 0 1.5.3 2.2.7-.1 1.7-.3 2-.8.3-.6 0-1.6-.3-2.2zM13.2 37.4c-.9 0-2.7-.2-3.7-1.4-1.4-1.6-.7-4.4-.6-4.5l.1-.5h.4c.1 0 2.9-.3 4.3 1.3s.7 4.4.6 4.5l-.1.5-.5.1h-.5zm-3.1-4.9c-.1.8-.1 1.9.4 2.6.6.7 1.7.8 2.5.8.1-.8.1-1.9-.4-2.6-.5-.6-1.7-.8-2.5-.8zM16.6 30.2c-1.3 0-2.5-.7-2.7-.8l-.4-.2v-.4c0-.3 0-2.9 1.6-3.8 1.6-.9 3.8.4 4.1.5l.4.2v.4c0 .3 0 2.9-1.6 3.8-.5.2-1 .3-1.4.3zm-1.6-1.9c.6.3 1.6.6 2.2.3.5-.3.8-1.3.8-2-.6-.3-1.6-.6-2.2-.3-.5.3-.7 1.3-.8 2zM13.2 27.9l-.5-.2c-.1 0-2.7-1.2-3.1-3.3-.4-2.1 1.6-4.1 1.7-4.2l.4-.4.5.2c.1 0 2.7 1.2 3.1 3.3.4 2.1-1.6 4.1-1.7 4.2l-.4.4zm-1.1-6.2c-.5.6-1.1 1.6-.9 2.5.2.9 1.1 1.6 1.7 2 .5-.6 1.1-1.6.9-2.4-.2-1-1.1-1.7-1.7-2.1zM16.4 21.1l-.3-.4c-.1-.1-1.7-2.4-1-4.4.7-2 3.4-2.8 3.5-2.8l.5-.1.3.4c.1.1 1.7 2.4 1 4.4s-3.4 2.8-3.5 2.8l-.5.1zm2.1-6c-.7.3-1.7.9-2 1.7-.3.8.1 1.9.5 2.6.7-.3 1.7-.9 2-1.7.3-.9-.2-2-.5-2.6z"/><path fill="#fff" d="M40 33.8h-17.4l-2.1-9.7c0-.2.2-.4.4-.3l5.3 3.5 5.1-3.7c.1-.1.2-.1.3 0l4.6 3.7 5.8-3.5c.2-.1.4.1.4.3l-2.4 9.7z"/><path fill="#0686D8" d="M40.6 34.5h-18.6l-2.3-10.3c-.1-.4.1-.8.4-1 .3-.2.8-.2 1.1 0l4.8 3.2 4.7-3.4c.4-.3.8-.2 1.2 0l4.2 3.4 5.3-3.2c.3-.2.8-.2 1.1 0 .3.2.5.6.4 1l-2.3 10.3zm-17.4-1.5h16.2l1.8-7.9-5.2 3.1-4.7-3.8-5.2 3.8-4.6-3.1 1.7 7.9zM22.1 35.2h18.4v1.5h-18.4zM22.2 37.8h18.4v1.5h-18.4zM23.965 31.226l.99-.99 1.06 1.061-.99.99zM27.168 31.237l.99-.99 1.061 1.061-.99.99zM30.443 31.171l.99-.99 1.06 1.061-.99.99zM33.646 31.184l.99-.99 1.061 1.061-.99.99zM36.85 31.188l.99-.99 1.06 1.061-.99.99z"/><defs><path id="a" d="M357.2 32.9h-8l-3.8-7.3c-.3-.6.1-1.2.7-1.2h2.8c.2 0 .5.1.6.3l7.7 8.2z"/></defs><clipPath id="b"><use xlink:href="#a" overflow="visible"/></clipPath><g clip-path="url(#b)"><defs><path id="c" d="M-51.8-132h521.1v447.5h-521.1z"/></defs><clipPath><use xlink:href="#c" overflow="visible"/></clipPath></g><defs><path id="d" d="M357.2 32.9h-8l-3.8-7.3c-.3-.6.1-1.2.7-1.2h2.8c.2 0 .5.1.6.3l7.7 8.2z"/></defs><clipPath id="e"><use xlink:href="#d" overflow="visible"/></clipPath><g clip-path="url(#e)"><defs><path id="f" d="M-51.8-132h521.1v447.5h-521.1z"/></defs><clipPath><use xlink:href="#f" overflow="visible"/></clipPath></g><defs><path id="g" d="M347 24.3h-.9c-.6 0-1 .7-.7 1.2l3.8 7.3h3.1l-5.2-8.2c-.1 0-.1-.1-.1-.3"/></defs><clipPath id="h"><use xlink:href="#g" overflow="visible"/></clipPath><g clip-path="url(#h)"><defs><path id="i" d="M-51.8-132h521.1v447.5h-521.1z"/></defs><clipPath><use xlink:href="#i" overflow="visible"/></clipPath></g><defs><path id="j" d="M358.8 33.6h-10.1l-4-7.7c-.2-.5-.2-1.1.1-1.5.3-.5.8-.7 1.3-.7h2.8c.4 0 .9.2 1.1.5l8.8 9.4zm-9.2-1.4h6l-6.5-7.1h-2.9s-.1 0-.1.1v.1l3.5 6.9z"/></defs><clipPath id="k"><use xlink:href="#j" overflow="visible"/></clipPath><g clip-path="url(#k)"><defs><path id="l" d="M-51.8-132h521.1v447.5h-521.1z"/></defs><clipPath><use xlink:href="#l" overflow="visible"/></clipPath></g><defs><path id="m" d="M382.2 47.4c0 .7-.5 1.2-1.2 1.2s-1.2-.5-1.2-1.2.5-1.2 1.2-1.2 1.2.6 1.2 1.2"/></defs><clipPath id="n"><use xlink:href="#m" overflow="visible"/></clipPath><g clip-path="url(#n)"><defs><path id="o" d="M-51.8-132h521.1v447.5h-521.1z"/></defs><clipPath><use xlink:href="#o" overflow="visible"/></clipPath></g><defs><path id="p" d="M372.3 20.6c0 .3-.3.6-.6.6s-.6-.3-.6-.6.3-.6.6-.6.6.2.6.6"/></defs><clipPath id="q"><use xlink:href="#p" overflow="visible"/></clipPath><g clip-path="url(#q)"><defs><path id="r" d="M-51.8-132h521.1v447.5h-521.1z"/></defs><clipPath><use xlink:href="#r" overflow="visible"/></clipPath></g><defs><path id="s" d="M371 44.2c0 .3-.3.6-.6.6s-.6-.3-.6-.6.3-.6.6-.6.6.3.6.6"/></defs><clipPath id="t"><use xlink:href="#s" overflow="visible"/></clipPath><g clip-path="url(#t)"><defs><path id="u" d="M-51.8-132h521.1v447.5h-521.1z"/></defs><clipPath><use xlink:href="#u" overflow="visible"/></clipPath></g><defs><path id="v" d="M386.9 17.8c0 .4-.4.8-.8.8s-.8-.4-.8-.8.4-.8.8-.8c.5 0 .8.4.8.8"/></defs><clipPath id="w"><use xlink:href="#v" overflow="visible"/></clipPath><g clip-path="url(#w)"><defs><path id="x" d="M-51.8-132h521.1v447.5h-521.1z"/></defs><clipPath><use xlink:href="#x" overflow="visible"/></clipPath></g><defs><path id="y" d="M377.3 13.7c0 .6-.5 1.1-1.1 1.1-.6 0-1.1-.5-1.1-1.1 0-.6.5-1.1 1.1-1.1.6 0 1.1.5 1.1 1.1"/></defs><clipPath id="z"><use xlink:href="#y" overflow="visible"/></clipPath><g clip-path="url(#z)"><defs><path id="A" d="M-51.8-132h521.1v447.5h-521.1z"/></defs><clipPath><use xlink:href="#A" overflow="visible"/></clipPath></g><defs><path id="B" d="M385.2 29c-.5-1.4-1.8-2.4-3.3-2.4-.7 0-1.3.2-1.8.5-.3-2.2-2.2-3.9-4.5-3.9-2.1 0-3.8 1.4-4.4 3.2-.3-.1-.5-.1-.8-.1-1.6 0-2.9 1.1-3.1 2.6h-.5c-1.3 0-2.4 1.1-2.4 2.3v.2c0 1.3 1.1 2.3 2.4 2.3h18.5c1.3 0 2.4-1.1 2.4-2.3v-.2c-.1-1.1-1.2-2.2-2.5-2.2"/></defs><clipPath id="C"><use xlink:href="#B" overflow="visible"/></clipPath><g clip-path="url(#C)"><defs><path id="D" d="M-51.8-132h521.1v447.5h-521.1z"/></defs><clipPath><use xlink:href="#D" overflow="visible"/></clipPath></g><defs><path id="E" d="M385.2 34.6v-1.4c.9 0 1.6-.7 1.6-1.6v-.2c0-.9-.7-1.6-1.6-1.6h-.5l-.2-.5c-.3-1.1-1.4-1.9-2.5-1.9-.5 0-1 .1-1.4.4l-.9.6-.2-1.1c-.3-1.9-1.9-3.3-3.8-3.3-1.7 0-3.2 1.1-3.7 2.7l-.2.7-.7-.2c-1.4-.4-2.8.6-3 2l-.1.6h-1.1c-.6 0-1.1.3-1.4.8l-1.2-.7c.5-.9 1.5-1.5 2.6-1.5.5-1.7 2.2-2.8 4-2.6.8-1.9 2.7-3.1 4.9-3.1 2.3 0 4.3 1.5 5 3.6.4-.1.9-.2 1.3-.2 1.6 0 3.1 1 3.7 2.4 1.5.2 2.7 1.5 2.7 3v.2c-.2 1.6-1.6 2.9-3.3 2.9"/></defs><clipPath id="F"><use xlink:href="#E" overflow="visible"/></clipPath><g clip-path="url(#F)"><defs><path id="G" d="M-51.8-132h521.1v447.5h-521.1z"/></defs><clipPath><use xlink:href="#G" overflow="visible"/></clipPath></g><defs><path id="H" d="M378 27.2c-.6-.9-1.6-1.4-2.6-1.4-.6 0-1.1.1-1.6.4l-.8-1.2c.7-.4 1.5-.6 2.3-.6 1.5 0 3 .8 3.8 2.1l-1.1.7z"/></defs><clipPath id="I"><use xlink:href="#H" overflow="visible"/></clipPath><g clip-path="url(#I)"><defs><path id="J" d="M-51.8-132h521.1v447.5h-521.1z"/></defs><clipPath><use xlink:href="#J" overflow="visible"/></clipPath></g><defs><path id="K" d="M372.8 28h-1.4c0-.5-.4-.9-.9-.9v-1.4c1.2 0 2.3 1 2.3 2.3"/></defs><clipPath id="L"><use xlink:href="#K" overflow="visible"/></clipPath><g clip-path="url(#L)"><defs><path id="M" d="M-51.8-132h521.1v447.5h-521.1z"/></defs><clipPath><use xlink:href="#M" overflow="visible"/></clipPath></g><defs><path id="N" d="M365.1 47.8c-.4-1.1-1.5-2-2.7-2-.5 0-1.1.2-1.5.4-.3-1.8-1.8-3.2-3.7-3.2-1.7 0-3.1 1.1-3.6 2.6-.2-.1-.4-.1-.7-.1-1.3 0-2.4.9-2.6 2.2h-.4c-1.1 0-1.9.9-1.9 1.9v.1c0 1.1.9 1.9 1.9 1.9h15.2c1.1 0 1.9-.9 1.9-1.9v-.1c0-.9-.8-1.8-1.9-1.8"/></defs><clipPath id="O"><use xlink:href="#N" overflow="visible"/></clipPath><g clip-path="url(#O)"><defs><path id="P" d="M-51.8-132h521.1v447.5h-521.1z"/></defs><clipPath><use xlink:href="#P" overflow="visible"/></clipPath></g><defs><path id="Q" d="M352.6 51.8h-2.7c-1.1 0-1.9-.9-1.9-1.9v-.1c0-1.1.9-1.9 1.9-1.9h.4c.2-1.2 1.3-2.2 2.6-2.2.2 0 .5 0 .7.1.5-1.5 1.9-2.6 3.6-2.6 1.9 0 3.4 1.4 3.7 3.2.4-.3.9-.4 1.5-.4 1.3 0 2.3.8 2.6 2h.1c1.1 0 1.9.9 1.9 1.9v.1c0 1.1-.9 1.9-1.9 1.9h-12.5z"/></defs><clipPath id="R"><use xlink:href="#Q" overflow="visible"/></clipPath><g clip-path="url(#R)"><defs><path id="S" d="M-51.8-132h521.1v447.5h-521.1z"/></defs><clipPath><use xlink:href="#S" overflow="visible"/></clipPath></g><defs><path id="T" d="M347.3 42.4h20.5v10.1h-20.5z"/></defs><clipPath id="U"><use xlink:href="#T" overflow="visible"/></clipPath><g clip-path="url(#U)"><defs><path id="V" d="M-51.8-132h521.1v447.5h-521.1z"/></defs><clipPath><use xlink:href="#V" overflow="visible"/></clipPath></g><defs><path id="W" d="M363.1 20.8c-.3-.7-.9-1.3-1.7-1.3-.3 0-.7.1-.9.3-.2-1.1-1.2-2-2.4-2-1.1 0-2 .7-2.3 1.7l-.4-.1c-.8 0-1.5.6-1.6 1.4h-.3c-.7 0-1.2.6-1.2 1.2v.1c0 .7.6 1.2 1.2 1.2h9.7c.7 0 1.2-.6 1.2-1.2v-.1c-.1-.7-.6-1.2-1.3-1.2"/></defs><clipPath id="X"><use xlink:href="#W" overflow="visible"/></clipPath><g clip-path="url(#X)"><defs><path id="Y" d="M-51.8-132h521.1v447.5h-521.1z"/></defs><clipPath><use xlink:href="#Y" overflow="visible"/></clipPath></g><defs><path id="Z" d="M355.2 23.3h-1.7c-.7 0-1.2-.6-1.2-1.2v-.1c0-.7.6-1.2 1.2-1.2h.3c.1-.8.8-1.4 1.6-1.4.1 0 .3 0 .4.1.3-1 1.2-1.7 2.3-1.7 1.2 0 2.2.9 2.4 2 .3-.2.6-.3.9-.3.8 0 1.5.5 1.7 1.3.7 0 1.2.6 1.2 1.2v.1c0 .7-.6 1.2-1.2 1.2h-7.9z"/></defs><clipPath id="aa"><use xlink:href="#Z" overflow="visible"/></clipPath><g clip-path="url(#aa)"><defs><path id="ab" d="M-51.8-132h521.1v447.5h-521.1z"/></defs><clipPath><use xlink:href="#ab" overflow="visible"/></clipPath></g><defs><path id="ac" d="M363.1 24h-9.7c-1.1 0-2-.9-2-1.9 0-1.1.7-1.9 1.7-2 .4-.8 1.2-1.4 2.1-1.4.5-1 1.6-1.6 2.7-1.6 1.2 0 2.3.7 2.8 1.8 1.1-.2 2.2.3 2.7 1.3.9.2 1.5 1 1.5 1.9.2 1.1-.7 1.9-1.8 1.9zm-9.7-2.5c-.3 0-.5.2-.5.5 0 .4.2.6.5.6h9.7c.3 0 .5-.2.5-.5 0-.4-.2-.6-.5-.6h-.5l-.2-.5c-.2-.6-1-.9-1.5-.6l-.9.6-.2-1.1c-.1-.8-.8-1.4-1.7-1.4-.7 0-1.4.5-1.6 1.2l-.2.7-.7-.2c-.6-.2-1.1.2-1.2.7l-.1.6h-.9z"/></defs><clipPath id="ad"><use xlink:href="#ac" overflow="visible"/></clipPath><g clip-path="url(#ad)"><defs><path id="ae" d="M-51.8-132h521.1v447.5h-521.1z"/></defs><clipPath><use xlink:href="#ae" overflow="visible"/></clipPath></g><defs><path id="af" d="M385.2 35.7h-.8c-.7-1.9-2.5-3.2-4.6-3.2h-32.8c0 4.5 3.7 8.1 8.2 8.1h30c1.2 0 2.3-1 2.3-2.2v-.4c-.1-1.3-1.1-2.3-2.3-2.3"/></defs><clipPath id="ag"><use xlink:href="#af" overflow="visible"/></clipPath><g clip-path="url(#ag)"><defs><path id="ah" d="M-51.8-132h521.1v447.5h-521.1z"/></defs><clipPath><use xlink:href="#ah" overflow="visible"/></clipPath></g><defs><path id="ai" d="M385.2 38.7h-30c-3.9 0-7.1-2.7-8-6.2h-.2c0 4.5 3.7 8.1 8.2 8.1h30c1.2 0 2.3-1 2.3-2.2v-.4c0-.3-.1-.5-.1-.7-.4.8-1.3 1.4-2.2 1.4"/></defs><clipPath id="aj"><use xlink:href="#ai" overflow="visible"/></clipPath><g clip-path="url(#aj)"><defs><path id="ak" d="M-51.8-132h521.1v447.5h-521.1z"/></defs><clipPath><use xlink:href="#ak" overflow="visible"/></clipPath></g><defs><path id="al" d="M385.2 41.4h-30c-4.9 0-8.9-4-8.9-8.9v-.7h33.5c2.2 0 4.1 1.3 5.1 3.2h.3c1.6 0 3 1.3 3 3v.5c-.1 1.5-1.4 2.9-3 2.9zm-37.4-8.2c.4 3.8 3.6 6.7 7.4 6.7h30c.8 0 1.5-.7 1.5-1.5v-.4c0-.8-.7-1.5-1.5-1.5h-1.3l-.2-.5c-.6-1.6-2.2-2.7-3.9-2.7h-32z"/></defs><clipPath id="am"><use xlink:href="#al" overflow="visible"/></clipPath><g clip-path="url(#am)"><defs><path id="an" d="M-51.8-132h521.1v447.5h-521.1z"/></defs><clipPath><use xlink:href="#an" overflow="visible"/></clipPath></g><defs><path id="ao" d="M356.4 35.1h-9.5c-.6 0-1.1-.5-1.1-1.1v-.4c0-.6.5-1.1 1.1-1.1h9.5c.6 0 1.1.5 1.1 1.1v.4c0 .6-.5 1.1-1.1 1.1"/></defs><clipPath id="ap"><use xlink:href="#ao" overflow="visible"/></clipPath><g clip-path="url(#ap)"><defs><path id="aq" d="M-51.8-132h521.1v447.5h-521.1z"/></defs><clipPath><use xlink:href="#aq" overflow="visible"/></clipPath></g><defs><path id="ar" d="M374.8 41.6h-11.6c-.6 0-1.1-.5-1.1-1.1v-.8c0-.6.5-1.1 1.1-1.1h11.6c.6 0 1.1.5 1.1 1.1v.8c.1.6-.4 1.1-1.1 1.1"/></defs><clipPath id="as"><use xlink:href="#ar" overflow="visible"/></clipPath><g clip-path="url(#as)"><defs><path id="at" d="M-51.8-132h521.1v447.5h-521.1z"/></defs><clipPath><use xlink:href="#at" overflow="visible"/></clipPath></g><defs><path id="au" d="M356.4 35.8h-9.5c-1 0-1.8-.8-1.8-1.8v-.4c0-1 .8-1.8 1.8-1.8h9.5c1 0 1.8.8 1.8 1.8v.4c0 1-.8 1.8-1.8 1.8zm-9.5-2.6c-.2 0-.4.2-.4.4v.4c0 .2.2.4.4.4h9.5c.2 0 .4-.2.4-.4v-.4c0-.2-.2-.4-.4-.4h-9.5z"/></defs><clipPath id="av"><use xlink:href="#au" overflow="visible"/></clipPath><g clip-path="url(#av)"><defs><path id="aw" d="M-51.8-132h521.1v447.5h-521.1z"/></defs><clipPath><use xlink:href="#aw" overflow="visible"/></clipPath></g><defs><path id="ax" d="M374.8 42.3h-11.6c-1 0-1.8-.8-1.8-1.8v-.8c0-1 .8-1.8 1.8-1.8h11.6c1 0 1.8.8 1.8 1.8v.8c.1 1-.8 1.8-1.8 1.8zm-11.6-3c-.2 0-.4.2-.4.4v.8c0 .2.2.4.4.4h11.6c.2 0 .4-.2.4-.4v-.8c0-.2-.2-.4-.4-.4h-11.6z"/></defs><clipPath id="ay"><use xlink:href="#ax" overflow="visible"/></clipPath><g clip-path="url(#ay)"><defs><path id="az" d="M-51.8-132h521.1v447.5h-521.1z"/></defs><clipPath><use xlink:href="#az" overflow="visible"/></clipPath></g><defs><path id="aA" d="M344.6 12.6h43.8v39.9h-43.8z"/></defs><clipPath id="aB"><use xlink:href="#aA" overflow="visible"/></clipPath><g clip-path="url(#aB)"><defs><path id="aC" d="M-51.8-132h521.1v447.5h-521.1z"/></defs><clipPath><use xlink:href="#aC" overflow="visible"/></clipPath></g></svg>