<svg xmlns="http://www.w3.org/2000/svg" viewBox="0 0 64 64"><defs><style>.cls-1,.cls-5,.cls-6,.cls-7,.cls-8{fill:#fff;}.cls-1,.cls-2,.cls-3,.cls-4,.cls-6,.cls-7,.cls-8{stroke:#4c5c68;}.cls-1,.cls-2,.cls-3,.cls-4,.cls-6,.cls-8{stroke-linecap:round;stroke-linejoin:round;}.cls-1,.cls-4,.cls-7{stroke-width:1.15px;}.cls-2{fill:#cee8fa;stroke-width:0.96px;}.cls-3{fill:#286090;stroke-width:0.95px;}.cls-4{fill:none;}.cls-6{stroke-width:0.96px;}.cls-7{stroke-miterlimit:10;}.cls-9{fill:#febd2e;}</style></defs><title>biller-onboarding</title><g id="Layer_1"><path class="cls-1" d="M14.15 41.81h34.84v16.2h-34.84z"/><path class="cls-2" d="M12.62 30.24h38.08v12.43h-38.08z"/><path class="cls-3" d="M20.08 40.73h3.05v3.98h-3.05zM40.81 40.73h3.05v3.98h-3.05z"/><path class="cls-4" d="M28 24.75h7.78a2.93 2.93 0 0 1 2.93 2.93v2.25h-13.6v-2.25a2.93 2.93 0 0 1 2.89-2.93z"/><g id="_Group_"><path id="_Path_" class="cls-5" d="M23.54 20.84v4.16c2 1.94 4.06-.07 4.06-.07l-.66-2.12 11.64.46c2 2.94 3.84.15 3.84.15v-8.22l-6-5.48v-3.46l-10.93.06v3.36c0 .74-2 3.87-2 3.87v3.89"/><path id="_Path_2" class="cls-6" d="M25.52 6.32v3.36c0 .74-2 3.87-2 3.87v3.89"/><path id="_Path_3" class="cls-7" d="M23.54 20.84v4.16c2 1.94 4.06-.07 4.06-.07l-.66-2.12 11.64.46c2 2.94 3.84.15 3.84.15v-8.22l-6-5.48v-3.46"/><path id="_Path_4" class="cls-5" d="M37.35 24.71l-2.15 2.21-2.03.49-2.01-.84-1.44.45-1.68-.37.11-.97-3.06-3.11 3.93-2.39h7.27l1.43.95-.37 3.58z"/><path id="_Path_5" class="cls-1" d="M38.44 17.21v8.55a1.38 1.38 0 0 1-1.44 1.85c-2 0-1.52-1.66-1.52-1.66v-.82"/><path id="_Path_6" class="cls-6" d="M35.19 27a2.54 2.54 0 0 1-3.71-.22v-1.7"/><path id="_Path_7" class="cls-6" d="M30.78 26.12s-1.28 2-3.27.09v-2.08"/></g><path id="_Rectangle_" class="cls-8" d="M47.14 35.19h8.19v4.06h-8.19z"/><path id="_Rectangle_2" class="cls-9" d="M51.75 35.7h3.07v4.06h-3.07z"/><path id="_Rectangle_3" class="cls-8" d="M47.14 39.25h8.19v4.06h-8.19z"/><path id="_Rectangle_4" class="cls-9" d="M51.75 39.76h3.07v4.06h-3.07z"/><path id="_Rectangle_5" class="cls-8" d="M47.14 43.3h8.19v4.06h-8.19z"/><path id="_Rectangle_6" class="cls-9" d="M51.75 43.81h3.07v3.04h-3.07z"/><path id="_Rectangle_7" class="cls-8" d="M47.14 47.36h8.19v4.06h-8.19z"/><path id="_Rectangle_8" class="cls-9" d="M51.75 47.87h3.07v3.04h-3.07z"/><path id="_Rectangle_9" class="cls-8" d="M47.14 50.4h8.19v4.06h-8.19z"/><path id="_Rectangle_10" class="cls-9" d="M51.75 50.91h3.07v4.06h-3.07z"/><path id="_Rectangle_11" class="cls-8" d="M47.14 54.46h8.19v4.06h-8.19z"/><path id="_Rectangle_12" class="cls-9" d="M51.75 54.96h3.07v3.04h-3.07z"/></g></svg>