<svg xmlns="http://www.w3.org/2000/svg" viewBox="0 0 64 64" enable-background="new 0 0 64 64"><circle fill="#5FB0E5" cx="50.8" cy="18.4" r="1.1"/><circle fill="#5FB0E5" cx="17.9" cy="13.4" r="1.4"/><circle fill="#5FB0E5" cx="30.5" cy="16.5" r=".6"/><circle fill="#5FB0E5" cx="52.5" cy="11.3" r=".7"/><circle fill="#5FB0E5" cx="38.3" cy="11.3" r="1.1"/><path fill="#5FB0E5" d="M44.4 51.4h-29.5c-.9 0-1.6-.7-1.6-1.6v-16h32.7v16c0 .9-.7 1.6-1.6 1.6z"/><path fill="#fff" d="M43.3 49.9h-27.3c-.8 0-1.5-.6-1.5-1.4v-14.1h30.3v14.1c0 .8-.7 1.4-1.5 1.4z"/><path fill="#5FB0E5" d="M46.1 33.8h-32.7v-11.3c0-1 .8-1.8 1.8-1.8h29.1c1 0 1.8.8 1.8 1.8v11.3z"/><path fill="#0686D8" d="M44.4 52.1h-29.5c-1.3 0-2.4-1.1-2.4-2.4v-16.7h27.2v1.5h-25.7v15.2c0 .5.4.9.9.9h29.5c.5 0 .9-.4.9-.9v-12h1.5v12.1c0 1.3-1.1 2.3-2.4 2.3zM46.9 27.5h-1.5v-5.2c0-.5-.4-.9-.9-.9h-17.5v-1.5h17.4c1.3 0 2.4 1.1 2.4 2.4v5.2zM19.5 19.9h4.7v1.5h-4.7zM38.3 34.6h-25.7v-12.3c0-1.3 1.1-2.4 2.4-2.4h2.1v1.5h-2.1c-.5 0-.9.4-.9.9v10.7h24.2v1.6zM16.7 37.4h3.9v1.5h-3.9zM22 37.4h7.2v1.5h-7.2zM16.7 40h16.2v1.5h-16.2zM16.7 42.6h14.3v1.5h-14.3zM16.7 45.4h5.9v1.5h-5.9zM24 45.4h3.4v1.5h-3.4z"/><path fill="#D2E9F7" d="M34.9 45.6l-2.4.1.2-2.4 18.8-18.7 2.2 2.2z"/><path fill="#0686D8" d="M31.7 46.5l.3-3.5.2-.2 19.3-19.3 3.3 3.3-19.5 19.5-3.6.2zm1.7-2.8l-.1 1.3 1.3-.1 18-18-1.2-1.2-18 18zM52.359 24.845l1.909-1.909 1.061 1.061-1.909 1.909zM30.498 46.761l1.909-1.909 1.061 1.061-1.909 1.909zM40.06 35.888l1.06-1.061 2.334 2.333-1.06 1.061zM33.765 42.148l1.061-1.06 2.333 2.334-1.061 1.06zM48.3 36.4l-1.1-1.1 5.7-5.6-1.1-1 1.1-1.1 2.1 2.1z"/></svg>