<svg xmlns="http://www.w3.org/2000/svg" viewBox="0 0 64 64"><defs><style>.cls-1,.cls-2,.cls-3{fill:none;}.cls-1{clip-rule:evenodd;}.cls-3{fill-rule:evenodd;}.cls-4{clip-path:url(#clip-path);}.cls-5{clip-path:url(#clip-path-3);}.cls-6{clip-path:url(#clip-path-4);}.cls-7{clip-path:url(#clip-path-5);}.cls-8{clip-path:url(#clip-path-6);}.cls-9{clip-path:url(#clip-path-7);}.cls-10{clip-path:url(#clip-path-8);}.cls-11{clip-path:url(#clip-path-9);}.cls-12{clip-path:url(#clip-path-10);}.cls-13{clip-path:url(#clip-path-11);}.cls-14{clip-path:url(#clip-path-12);}.cls-15{clip-path:url(#clip-path-13);}.cls-16{clip-path:url(#clip-path-14);}.cls-17{clip-path:url(#clip-path-15);}.cls-18{clip-path:url(#clip-path-16);}.cls-19{clip-path:url(#clip-path-17);}.cls-20{clip-path:url(#clip-path-18);}.cls-21{clip-path:url(#clip-path-19);}.cls-22{clip-path:url(#clip-path-20);}.cls-23{clip-path:url(#clip-path-21);}.cls-24{clip-path:url(#clip-path-22);}.cls-25{clip-path:url(#clip-path-23);}.cls-26{clip-path:url(#clip-path-24);}.cls-27{clip-path:url(#clip-path-25);}.cls-28{clip-path:url(#clip-path-26);}.cls-29{clip-path:url(#clip-path-27);}.cls-30{clip-path:url(#clip-path-28);}.cls-31{clip-path:url(#clip-path-29);}.cls-32{fill:#5fb0e5;}.cls-33{clip-path:url(#clip-path-30);}.cls-34{clip-path:url(#clip-path-32);}.cls-35{clip-path:url(#clip-path-34);}.cls-36{clip-path:url(#clip-path-36);}.cls-37{fill:#62a6cf;}.cls-38{clip-path:url(#clip-path-38);}.cls-39{fill:#0686d8;}.cls-40{clip-path:url(#clip-path-40);}.cls-41{fill:#fffffe;}.cls-42{clip-path:url(#clip-path-42);}.cls-43{fill:#9cc8e1;}.cls-44{clip-path:url(#clip-path-44);}.cls-45{clip-path:url(#clip-path-46);}.cls-46{clip-path:url(#clip-path-48);}.cls-47{fill:#d0e8ef;}.cls-48{clip-path:url(#clip-path-50);}.cls-49{clip-path:url(#clip-path-52);}.cls-50{clip-path:url(#clip-path-54);}.cls-51{clip-path:url(#clip-path-56);}.cls-52{clip-path:url(#clip-path-58);}.cls-53{clip-path:url(#clip-path-60);}.cls-54{clip-path:url(#clip-path-62);}.cls-55{clip-path:url(#clip-path-64);}.cls-56{clip-path:url(#clip-path-66);}.cls-57{clip-path:url(#clip-path-68);}.cls-58{clip-path:url(#clip-path-70);}.cls-59{clip-path:url(#clip-path-72);}.cls-60{clip-path:url(#clip-path-74);}.cls-61{clip-path:url(#clip-path-76);}.cls-62{clip-path:url(#clip-path-78);}.cls-63{clip-path:url(#clip-path-80);}.cls-64{clip-path:url(#clip-path-82);}</style><clipPath id="clip-path"><path class="cls-1" d="M113.18-45.13h-8l-3.76-7.31a.84.84 0 0 1 .75-1.22h2.78a.85.85 0 0 1 .62.27z"/></clipPath><clipPath id="clip-path-3"><path class="cls-1" d="M103-53.66h-.88a.84.84 0 0 0-.75 1.22l3.76 7.31h3.13l-5.17-8.18a.91.91 0 0 1-.09-.35"/></clipPath><clipPath id="clip-path-4"><path class="cls-1" d="M114.82-44.42h-10.12l-4-7.7a1.53 1.53 0 0 1 .06-1.52 1.55 1.55 0 0 1 1.33-.74h2.78a1.57 1.57 0 0 1 1.15.5zm-9.24-1.43h6l-6.58-7.06a.12.12 0 0 0-.09 0h-2.78a.12.12 0 0 0-.1.06.12.12 0 0 0 0 .12z"/></clipPath><clipPath id="clip-path-5"><path class="cls-1" d="M138.22-30.56a1.2 1.2 0 0 1-1.21 1.2 1.2 1.2 0 0 1-1.21-1.2 1.2 1.2 0 0 1 1.21-1.2 1.2 1.2 0 0 1 1.21 1.2"/></clipPath><clipPath id="clip-path-6"><path class="cls-1" d="M128.3-57.44a.6.6 0 0 1-.6.6.6.6 0 0 1-.6-.6.6.6 0 0 1 .6-.6.6.6 0 0 1 .6.6"/></clipPath><clipPath id="clip-path-7"><path class="cls-1" d="M127-33.77a.6.6 0 0 1-.6.6.6.6 0 0 1-.6-.6.6.6 0 0 1 .6-.6.6.6 0 0 1 .6.6"/></clipPath><clipPath id="clip-path-8"><path class="cls-1" d="M142.94-60.2a.79.79 0 0 1-.79.79.79.79 0 0 1-.79-.79.79.79 0 0 1 .79-.79.79.79 0 0 1 .79.79"/></clipPath><clipPath id="clip-path-9"><path class="cls-1" d="M133.27-64.27a1.13 1.13 0 0 1-1.14 1.13 1.13 1.13 0 0 1-1.13-1.13 1.13 1.13 0 0 1 1.14-1.13 1.13 1.13 0 0 1 1.14 1.13"/></clipPath><clipPath id="clip-path-10"><path class="cls-1" d="M141.24-49h-.09a3.36 3.36 0 0 0-3.23-2.41 3.37 3.37 0 0 0-1.81.53 4.59 4.59 0 0 0-4.54-3.87 4.6 4.6 0 0 0-4.4 3.22 3.16 3.16 0 0 0-.82-.11 3.15 3.15 0 0 0-3.13 2.64h-.52a2.36 2.36 0 0 0-2.36 2.35v.17a2.36 2.36 0 0 0 2.36 2.35h18.54a2.36 2.36 0 0 0 2.36-2.35v-.17a2.36 2.36 0 0 0-2.36-2.35"/></clipPath><clipPath id="clip-path-11"><path class="cls-1" d="M141.24-43.37v-1.43a1.64 1.64 0 0 0 1.64-1.63v-.17a1.64 1.64 0 0 0-1.64-1.63h-.54l-.24-.52a2.65 2.65 0 0 0-2.54-1.89 2.65 2.65 0 0 0-1.42.42l-.93.6-.17-1.09a3.85 3.85 0 0 0-3.84-3.29 3.87 3.87 0 0 0-3.71 2.71l-.21.66-.64-.17a2.44 2.44 0 0 0-3 2l-.1.6h-1.2a1.65 1.65 0 0 0-1.41.8l-1.24-.73a3.1 3.1 0 0 1 2.6-1.5 3.85 3.85 0 0 1 4-2.63 5.3 5.3 0 0 1 4.86-3.12 5.28 5.28 0 0 1 5 3.56 4.09 4.09 0 0 1 1.33-.22 4.11 4.11 0 0 1 3.75 2.45 3.07 3.07 0 0 1 2.66 3v.17a3.07 3.07 0 0 1-3.08 3.06"/></clipPath><clipPath id="clip-path-12"><path class="cls-1" d="M134-50.81a3.11 3.11 0 0 0-2.61-1.41 3.13 3.13 0 0 0-1.59.43l-.8-1.21a4.58 4.58 0 0 1 2.32-.63 4.54 4.54 0 0 1 3.82 2.06z"/></clipPath><clipPath id="clip-path-13"><path class="cls-1" d="M128.76-50h-1.44a.92.92 0 0 0-.92-.91v-1.43a2.35 2.35 0 0 1 2.36 2.34"/></clipPath><clipPath id="clip-path-14"><path class="cls-1" d="M121.09-30.2h-.09a2.75 2.75 0 0 0-2.65-2 2.76 2.76 0 0 0-1.49.43 3.76 3.76 0 0 0-3.72-3.17 3.77 3.77 0 0 0-3.6 2.63 2.61 2.61 0 0 0-.67-.09 2.58 2.58 0 0 0-2.56 2.17h-.42a1.93 1.93 0 0 0-1.89 1.95v.14a1.93 1.93 0 0 0 1.93 1.92h15.19a1.93 1.93 0 0 0 1.88-1.92v-.14a1.93 1.93 0 0 0-1.93-1.92"/></clipPath><clipPath id="clip-path-15"><path class="cls-1" d="M108.62-26.22h-2.71a1.93 1.93 0 0 1-1.91-1.92v-.14a1.93 1.93 0 0 1 1.93-1.92h.42a2.58 2.58 0 0 1 2.56-2.17 2.61 2.61 0 0 1 .67.09 3.77 3.77 0 0 1 3.6-2.63 3.76 3.76 0 0 1 3.72 3.17 2.75 2.75 0 0 1 1.49-.43 2.75 2.75 0 0 1 2.65 2h.08a1.93 1.93 0 0 1 1.88 1.89v.14a1.93 1.93 0 0 1-1.93 1.92h-12.45z"/></clipPath><clipPath id="clip-path-16"><path class="cls-2" d="M103.25-35.63h20.5v10.13h-20.5z"/></clipPath><clipPath id="clip-path-17"><path class="cls-1" d="M119.11-57.21a1.75 1.75 0 0 0-1.68-1.26 1.75 1.75 0 0 0-.95.28 2.39 2.39 0 0 0-2.37-2 2.4 2.4 0 0 0-2.29 1.68 1.67 1.67 0 0 0-.43-.06 1.64 1.64 0 0 0-1.63 1.38h-.27a1.23 1.23 0 0 0-1.27 1.19v.09a1.23 1.23 0 0 0 1.23 1.22h9.66a1.23 1.23 0 0 0 1.23-1.22v-.09a1.23 1.23 0 0 0-1.23-1.22"/></clipPath><clipPath id="clip-path-18"><path class="cls-1" d="M111.17-54.67h-1.73a1.23 1.23 0 0 1-1.23-1.22v-.11a1.23 1.23 0 0 1 1.23-1.22h.27a1.64 1.64 0 0 1 1.63-1.38 1.67 1.67 0 0 1 .43.06 2.4 2.4 0 0 1 2.29-1.68 2.39 2.39 0 0 1 2.37 2 1.75 1.75 0 0 1 .95-.28 1.75 1.75 0 0 1 1.68 1.26 1.23 1.23 0 0 1 1.28 1.24v.09a1.23 1.23 0 0 1-1.23 1.22h-7.94z"/></clipPath><clipPath id="clip-path-19"><path class="cls-1" d="M119.11-54h-9.66a2 2 0 0 1-2-1.94 2 2 0 0 1 1.68-2 2.35 2.35 0 0 1 2.14-1.4 3.11 3.11 0 0 1 2.74-1.62 3.1 3.1 0 0 1 2.83 1.79 2.53 2.53 0 0 1 2.68 1.27 1.94 1.94 0 0 1 1.54 1.9 2 2 0 0 1-1.95 2zm-9.66-2.54a.52.52 0 0 0-.51.51.54.54 0 0 0 .51.6h9.66a.52.52 0 0 0 .51-.51.54.54 0 0 0-.51-.6h-.54l-.2-.52a1.07 1.07 0 0 0-1.55-.58l-.93.6-.17-1.09a1.69 1.69 0 0 0-1.66-1.41 1.67 1.67 0 0 0-1.61 1.17l-.21.66-.67-.18a.91.91 0 0 0-1.16.74l-.1.6z"/></clipPath><clipPath id="clip-path-20"><path class="cls-1" d="M141.16-42.29h-.77a4.89 4.89 0 0 0-4.59-3.2h-32.8a8.17 8.17 0 0 0 8.19 8.14h30a2.25 2.25 0 0 0 2.26-2.24v-.41a2.25 2.25 0 0 0-2.26-2.24"/></clipPath><clipPath id="clip-path-21"><path class="cls-1" d="M141.16-39.26h-30a8.18 8.18 0 0 1-8-6.23h-.16a8.17 8.17 0 0 0 8.19 8.14h30a2.25 2.25 0 0 0 2.26-2.24v-.41a2.2 2.2 0 0 0-.13-.73 2.25 2.25 0 0 1-2.13 1.52"/></clipPath><clipPath id="clip-path-22"><path class="cls-1" d="M141.16-36.63h-30a8.9 8.9 0 0 1-8.91-8.85v-.72h33.51a5.64 5.64 0 0 1 5.07 3.2h.3a3 3 0 0 1 3 3v.45a3 3 0 0 1-2.97 2.92zm-37.4-8.14a7.47 7.47 0 0 0 7.44 6.71h30a1.54 1.54 0 0 0 1.54-1.53v-.41a1.54 1.54 0 0 0-1.54-1.53h-1.28l-.17-.47a4.19 4.19 0 0 0-3.91-2.73z"/></clipPath><clipPath id="clip-path-23"><path class="cls-1" d="M112.38-42.9h-9.46a1.12 1.12 0 0 1-1.13-1.1v-.35a1.12 1.12 0 0 1 1.13-1.12h9.46a1.12 1.12 0 0 1 1.13 1.12v.35a1.12 1.12 0 0 1-1.13 1.12"/></clipPath><clipPath id="clip-path-24"><path class="cls-1" d="M130.83-36.39h-11.61a1.12 1.12 0 0 1-1.13-1.12v-.83a1.12 1.12 0 0 1 1.13-1.12h11.61a1.12 1.12 0 0 1 1.17 1.12v.83a1.12 1.12 0 0 1-1.13 1.12"/></clipPath><clipPath id="clip-path-25"><path class="cls-1" d="M112.37-42.19h-9.46a1.84 1.84 0 0 1-1.84-1.81v-.35a1.84 1.84 0 0 1 1.85-1.83h9.46a1.84 1.84 0 0 1 1.84 1.83v.35a1.84 1.84 0 0 1-1.85 1.81zm-9.46-2.59a.4.4 0 0 0-.41.4v.38a.41.41 0 0 0 .41.4h9.46a.4.4 0 0 0 .4-.4v-.35a.4.4 0 0 0-.4-.4z"/></clipPath><clipPath id="clip-path-26"><path class="cls-1" d="M130.83-35.68h-11.61a1.84 1.84 0 0 1-1.85-1.83v-.83a1.84 1.84 0 0 1 1.85-1.83h11.61a1.84 1.84 0 0 1 1.85 1.83v.83a1.84 1.84 0 0 1-1.85 1.83zm-11.61-3.06a.4.4 0 0 0-.41.4v.83a.41.41 0 0 0 .41.4h11.61a.41.41 0 0 0 .41-.4v-.83a.4.4 0 0 0-.41-.4z"/></clipPath><clipPath id="clip-path-27"><path class="cls-2" d="M100.56-65.41h43.75v39.91h-43.75z"/></clipPath><clipPath id="clip-path-28"><path class="cls-1" d="M53.46 17.74a1.34 1.34 0 1 1-1.34-1.34 1.34 1.34 0 0 1 1.34 1.34"/></clipPath><clipPath id="clip-path-29"><path class="cls-2" d="M-569.3-74.79h732.72v382.45h-732.72z"/></clipPath><clipPath id="clip-path-30"><path class="cls-1" d="M42.73 18.81a.8.8 0 1 1-.8-.8.81.81 0 0 1 .8.8"/></clipPath><clipPath id="clip-path-32"><path class="cls-1" d="M41.12 7a1.34 1.34 0 1 1-1.34-1.34 1.34 1.34 0 0 1 1.34 1.34"/></clipPath><clipPath id="clip-path-34"><path class="cls-1" d="M55.07 7.54a1.88 1.88 0 1 1-1.88-1.88 1.88 1.88 0 0 1 1.88 1.88"/></clipPath><clipPath id="clip-path-36"><path class="cls-1" d="M51.8 50.19h-36.38a1.13 1.13 0 0 1-1.12-1.13v-25.64a1.13 1.13 0 0 1 1.12-1.13h36.38a1.13 1.13 0 0 1 1.12 1.13v25.64a1.13 1.13 0 0 1-1.12 1.13"/></clipPath><clipPath id="clip-path-38"><path class="cls-1" d="M52.19 50.72h-36.63a1.8 1.8 0 0 1-1.8-1.81v-12.3h1.68v12.31l.12.12h36.63l.12-.12v-25.92l-.12-.12h-13.19v-1.66h13.19a1.8 1.8 0 0 1 1.81 1.78v25.92a1.8 1.8 0 0 1-1.8 1.81"/></clipPath><clipPath id="clip-path-40"><path class="cls-2" d="M16.44 24.44h34.87v22.53h-34.87z"/></clipPath><clipPath id="clip-path-42"><path class="cls-1" d="M52.24 51.8h-37.47a1.84 1.84 0 0 1-1.77-1.57l-.27-1.65h17.32l.66 1h4.8l.72-1h18.3l-.23 1.42a2.1 2.1 0 0 1-2.06 1.78"/></clipPath><clipPath id="clip-path-44"><path class="cls-1" d="M52.31 52.33h-37.62a2.67 2.67 0 0 1-2.69-2.23l-.43-2.59h18.91l.67 1h4l.72-1h19.73l-.39 2.38a2.92 2.92 0 0 1-2.9 2.44zm-38.72-3.16l.11.65a1 1 0 0 0 1 .84h37.61a1.25 1.25 0 0 0 1.24-1l.07-.44h-17l-.72 1h-5.63l-.67-1z"/></clipPath><clipPath id="clip-path-46"><path class="cls-1" d="M34.57 34.1h-22.84a2.26 2.26 0 0 1-2.25-2.26v-15.33a2.26 2.26 0 0 1 2.25-2.26h22.84a2.26 2.26 0 0 1 2.25 2.26v15.33a2.26 2.26 0 0 1-2.25 2.26"/></clipPath><clipPath id="clip-path-48"><path class="cls-1" d="M9.47 18.54v-2.9a1.38 1.38 0 0 1 1.37-1.39h24.62a1.38 1.38 0 0 1 1.37 1.39v2.9h-27.36"/></clipPath><clipPath id="clip-path-50"><path class="cls-1" d="M35.66 35.17h-25a2.23 2.23 0 0 1-2.26-2.17v-17.08a2.23 2.23 0 0 1 2.24-2.2h3.69v1.67h-3.69a.54.54 0 0 0-.54.53v17.08a.54.54 0 0 0 .54.53h25a.54.54 0 0 0 .56-.53v-17.08a.54.54 0 0 0-.55-.53h-16.49v-1.68h16.5a2.23 2.23 0 0 1 2.24 2.2v17.09a2.23 2.23 0 0 1-2.24 2.2"/></clipPath><clipPath id="clip-path-52"><path class="cls-2" d="M15.37 13.71h2.15v1.61h-2.15z"/></clipPath><clipPath id="clip-path-54"><path class="cls-2" d="M9.47 18h27.36v1.61h-27.36z"/></clipPath><clipPath id="clip-path-56"><path class="cls-2" d="M12.15 15.86h1.06v1.61h-1.06z"/></clipPath><clipPath id="clip-path-58"><path class="cls-2" d="M14.84 15.86h1.05v1.61h-1.05z"/></clipPath><clipPath id="clip-path-60"><path class="cls-2" d="M17.52 15.86h1.06v1.61h-1.06z"/></clipPath><clipPath id="clip-path-62"><path class="cls-1" d="M17.52 26.21v-.86l3.22-1.45v.93l-2.13.94 2.13.95v.94l-3.22-1.45"/></clipPath><clipPath id="clip-path-64"><path class="cls-1" d="M23.68 22.83h.81l-2.41 5.37h-.81l2.41-5.37"/></clipPath><clipPath id="clip-path-66"><path class="cls-1" d="M28.78 25.35v.86l-3.22 1.45v-.94l2.13-.95-2.13-.94v-.93l3.22 1.45"/></clipPath><clipPath id="clip-path-68"><path class="cls-2" d="M38.97 27.12h9.12v1.61h-9.12z"/></clipPath><clipPath id="clip-path-70"><path class="cls-2" d="M41.66 30.88h3.22v1.61h-3.22z"/></clipPath><clipPath id="clip-path-72"><path class="cls-2" d="M29.85 35.7h9.12v1.61h-9.12z"/></clipPath><clipPath id="clip-path-74"><path class="cls-2" d="M40.58 35.7h4.83v1.61h-4.83z"/></clipPath><clipPath id="clip-path-76"><path class="cls-2" d="M26.64 35.7h1.61v1.61h-1.61z"/></clipPath><clipPath id="clip-path-78"><path class="cls-2" d="M18.59 38.92h9.12v1.61h-9.12z"/></clipPath><clipPath id="clip-path-80"><path class="cls-2" d="M24.49 42.68h9.12v1.61h-9.12z"/></clipPath><clipPath id="clip-path-82"><path class="cls-2" d="M35.75 42.68h4.83v1.61h-4.83z"/></clipPath></defs><title>create</title><path class="cls-32" d="M48.09 13.71h8.05v8.05h-8.05zM38.44 15.32h6.97v6.97h-6.97zM35.75 2.98h8.05v8.05h-8.05zM48.63 2.98h9.12v9.12h-9.12z"/><path class="cls-37" d="M11.62 19.61h43.98v33.26h-43.98z"/><path class="cls-39" d="M11.08 18.54h45.59v34.87h-45.59z"/><path class="cls-41" d="M13.76 21.76h40.23v27.89h-40.23z"/><path class="cls-43" d="M10.01 45.9h47.2v8.58h-47.2z"/><path class="cls-39" d="M8.93 44.82h49.35v10.19h-49.35z"/><path class="cls-41" d="M6.79 11.57h32.72v25.21h-32.72z"/><path class="cls-47" d="M6.79 11.57h32.72v9.66h-32.72z"/><path class="cls-39" d="M5.72 11.03h34.87v26.82h-34.87zM12.69 11.03h7.51v6.97h-7.51zM6.79 15.32h32.72v6.97h-32.72zM9.47 13.18h6.42v6.97h-6.42zM12.15 13.18h6.42v6.97h-6.42zM14.84 13.18h6.42v6.97h-6.42zM14.84 21.22h8.58v9.12h-8.58zM18.59 20.15h8.58v10.73h-8.58zM22.88 21.22h8.58v9.12h-8.58zM36.29 24.44h14.48v6.97h-14.48zM38.97 28.2h8.58v6.97h-8.58zM27.17 33.02h14.48v6.97h-14.48zM37.9 33.02h10.19v6.97h-10.19zM23.95 33.02h6.97v6.97h-6.97zM15.91 36.24h14.48v6.97h-14.48zM21.81 40h14.48v6.97h-14.48zM33.07 40h10.19v6.97h-10.19z"/></svg>