<svg xmlns="http://www.w3.org/2000/svg" viewBox="0 0 64 64" enable-background="new 0 0 64 64"><path fill="#fff" d="M41.3 37.9l-11.7 11.7c-.4.4-1 .4-1.4 0l-19.6-19.6c-.4-.4-.4-1 0-1.4l11.8-11.8c.4-.4 1-.4 1.4 0l19.7 19.7c.2.4.2 1-.2 1.4z"/><path fill="#5FB0E5" d="M9.608 27.591l2.828-2.828 21.001 21.001-2.828 2.828z"/><path fill="#D2E9F7" d="M19.758 27.477l1.485-1.485 14.142 14.142-1.485 1.485z"/><path fill="#0686D8" d="M25.2 47.7l-17.2-17.2c-.7-.7-.7-1.7 0-2.4l11.8-11.8c.6-.6 1.8-.6 2.4 0l3.9 3.9-1.1 1.1-3.9-3.9c-.1-.1-.2-.1-.3 0l-11.7 11.7c-.1.1-.1.2 0 .3l17.2 17.2-1.1 1.1z"/><circle fill="#5FB0E5" cx="9.6" cy="37.5" r="1.6"/><circle fill="#5FB0E5" cx="17.9" cy="44.8" r=".9"/><circle fill="#5FB0E5" cx="12.5" cy="48.9" r="1.3"/><path fill="#fff" d="M51.2 50.4h-20.7c-1 0-1.8-.8-1.8-1.8v-32c0-1 .8-1.8 1.8-1.8h20.7c1 0 1.8.8 1.8 1.8v32c0 1-.8 1.8-1.8 1.8z"/><path fill="#9ECFEF" d="M31.1 14.7h4.6v35.7h-4.6z"/><path fill="#5FB0E5" d="M36.9 14.7h2.3v35.7h-2.3z"/><path fill="#0686D8" d="M51.1 51.2h-20.6c-1.5 0-2.7-1.2-2.7-2.7v-31.9c0-1.5 1.2-2.7 2.7-2.7h2.8v1.6h-2.8c-.6 0-1.1.5-1.1 1.1v31.8c0 .6.5 1.1 1.1 1.1h20.6c.6 0 1.1-.5 1.1-1.1v-31.8c0-.6-.5-1.1-1.1-1.1h-10.1v-1.6h10.1c1.5 0 2.7 1.2 2.7 2.7v31.8c0 1.6-1.2 2.8-2.7 2.8zM34.5 13.9h4.6v1.6h-4.6z"/></svg>