<svg xmlns="http://www.w3.org/2000/svg" xmlns:xlink="http://www.w3.org/1999/xlink" viewBox="0 0 64 64" enable-background="new 0 0 64 64"><defs><path id="a" d="M281.2-45.1h-8l-3.8-7.3c-.3-.6.1-1.2.7-1.2h2.8c.2 0 .5.1.6.3l7.7 8.2z"/></defs><clipPath id="b"><use xlink:href="#a" overflow="visible"/></clipPath><g clip-path="url(#b)"><defs><path id="c" d="M-127.8-210h521.1v447.5h-521.1z"/></defs><clipPath><use xlink:href="#c" overflow="visible"/></clipPath></g><defs><path id="d" d="M281.2-45.1h-8l-3.8-7.3c-.3-.6.1-1.2.7-1.2h2.8c.2 0 .5.1.6.3l7.7 8.2z"/></defs><clipPath id="e"><use xlink:href="#d" overflow="visible"/></clipPath><g clip-path="url(#e)"><defs><path id="f" d="M-127.8-210h521.1v447.5h-521.1z"/></defs><clipPath><use xlink:href="#f" overflow="visible"/></clipPath></g><defs><path id="g" d="M271-53.7h-.9c-.6 0-1 .7-.7 1.2l3.8 7.3h3.1l-5.2-8.2c-.1 0-.1-.1-.1-.3"/></defs><clipPath id="h"><use xlink:href="#g" overflow="visible"/></clipPath><g clip-path="url(#h)"><defs><path id="i" d="M-127.8-210h521.1v447.5h-521.1z"/></defs><clipPath><use xlink:href="#i" overflow="visible"/></clipPath></g><defs><path id="j" d="M282.8-44.4h-10.1l-4-7.7c-.2-.5-.2-1.1.1-1.5s.8-.7 1.3-.7h2.8c.4 0 .9.2 1.1.5l8.8 9.4zm-9.2-1.4h6l-6.5-7.1h-2.9s-.1 0-.1.1v.1l3.5 6.9z"/></defs><clipPath id="k"><use xlink:href="#j" overflow="visible"/></clipPath><g clip-path="url(#k)"><defs><path id="l" d="M-127.8-210h521.1v447.5h-521.1z"/></defs><clipPath><use xlink:href="#l" overflow="visible"/></clipPath></g><defs><path id="m" d="M306.2-30.6c0 .7-.5 1.2-1.2 1.2s-1.2-.5-1.2-1.2.5-1.2 1.2-1.2 1.2.6 1.2 1.2"/></defs><clipPath id="n"><use xlink:href="#m" overflow="visible"/></clipPath><g clip-path="url(#n)"><defs><path id="o" d="M-127.8-210h521.1v447.5h-521.1z"/></defs><clipPath><use xlink:href="#o" overflow="visible"/></clipPath></g><defs><path id="p" d="M296.3-57.4c0 .3-.3.6-.6.6s-.6-.3-.6-.6.3-.6.6-.6.6.2.6.6"/></defs><clipPath id="q"><use xlink:href="#p" overflow="visible"/></clipPath><g clip-path="url(#q)"><defs><path id="r" d="M-127.8-210h521.1v447.5h-521.1z"/></defs><clipPath><use xlink:href="#r" overflow="visible"/></clipPath></g><defs><path id="s" d="M295-33.8c0 .3-.3.6-.6.6s-.6-.3-.6-.6.3-.6.6-.6.6.3.6.6"/></defs><clipPath id="t"><use xlink:href="#s" overflow="visible"/></clipPath><g clip-path="url(#t)"><defs><path id="u" d="M-127.8-210h521.1v447.5h-521.1z"/></defs><clipPath><use xlink:href="#u" overflow="visible"/></clipPath></g><defs><path id="v" d="M310.9-60.2c0 .4-.4.8-.8.8s-.8-.4-.8-.8.4-.8.8-.8c.5 0 .8.4.8.8"/></defs><clipPath id="w"><use xlink:href="#v" overflow="visible"/></clipPath><g clip-path="url(#w)"><defs><path id="x" d="M-127.8-210h521.1v447.5h-521.1z"/></defs><clipPath><use xlink:href="#x" overflow="visible"/></clipPath></g><defs><path id="y" d="M301.3-64.3c0 .6-.5 1.1-1.1 1.1-.6 0-1.1-.5-1.1-1.1 0-.6.5-1.1 1.1-1.1.6 0 1.1.5 1.1 1.1"/></defs><clipPath id="z"><use xlink:href="#y" overflow="visible"/></clipPath><g clip-path="url(#z)"><defs><path id="A" d="M-127.8-210h521.1v447.5h-521.1z"/></defs><clipPath><use xlink:href="#A" overflow="visible"/></clipPath></g><defs><path id="B" d="M309.2-49c-.5-1.4-1.8-2.4-3.3-2.4-.7 0-1.3.2-1.8.5-.3-2.2-2.2-3.9-4.5-3.9-2.1 0-3.8 1.4-4.4 3.2-.3-.1-.5-.1-.8-.1-1.6 0-2.9 1.1-3.1 2.6h-.5c-1.3 0-2.4 1.1-2.4 2.3v.2c0 1.3 1.1 2.3 2.4 2.3h18.5c1.3 0 2.4-1.1 2.4-2.3v-.2c-.1-1.1-1.2-2.2-2.5-2.2"/></defs><clipPath id="C"><use xlink:href="#B" overflow="visible"/></clipPath><g clip-path="url(#C)"><defs><path id="D" d="M-127.8-210h521.1v447.5h-521.1z"/></defs><clipPath><use xlink:href="#D" overflow="visible"/></clipPath></g><defs><path id="E" d="M309.2-43.4v-1.4c.9 0 1.6-.7 1.6-1.6v-.2c0-.9-.7-1.6-1.6-1.6h-.5l-.2-.5c-.3-1.1-1.4-1.9-2.5-1.9-.5 0-1 .1-1.4.4l-.9.6-.2-1.1c-.3-1.9-1.9-3.3-3.8-3.3-1.7 0-3.2 1.1-3.7 2.7l-.2.7-.7-.2c-1.4-.4-2.8.6-3 2l-.1.6h-1.1c-.6 0-1.1.3-1.4.8l-1.2-.7c.5-.9 1.5-1.5 2.6-1.5.5-1.7 2.2-2.8 4-2.6.8-1.9 2.7-3.1 4.9-3.1 2.3 0 4.3 1.5 5 3.6.4-.1.9-.2 1.3-.2 1.6 0 3.1 1 3.7 2.4 1.5.2 2.7 1.5 2.7 3v.2c-.2 1.6-1.6 2.9-3.3 2.9"/></defs><clipPath id="F"><use xlink:href="#E" overflow="visible"/></clipPath><g clip-path="url(#F)"><defs><path id="G" d="M-127.8-210h521.1v447.5h-521.1z"/></defs><clipPath><use xlink:href="#G" overflow="visible"/></clipPath></g><defs><path id="H" d="M302-50.8c-.6-.9-1.6-1.4-2.6-1.4-.6 0-1.1.1-1.6.4l-.8-1.2c.7-.4 1.5-.6 2.3-.6 1.5 0 3 .8 3.8 2.1l-1.1.7z"/></defs><clipPath id="I"><use xlink:href="#H" overflow="visible"/></clipPath><g clip-path="url(#I)"><defs><path id="J" d="M-127.8-210h521.1v447.5h-521.1z"/></defs><clipPath><use xlink:href="#J" overflow="visible"/></clipPath></g><defs><path id="K" d="M296.8-50h-1.4c0-.5-.4-.9-.9-.9v-1.4c1.2 0 2.3 1 2.3 2.3"/></defs><clipPath id="L"><use xlink:href="#K" overflow="visible"/></clipPath><g clip-path="url(#L)"><defs><path id="M" d="M-127.8-210h521.1v447.5h-521.1z"/></defs><clipPath><use xlink:href="#M" overflow="visible"/></clipPath></g><defs><path id="N" d="M289.1-30.2c-.4-1.1-1.5-2-2.7-2-.5 0-1.1.2-1.5.4-.3-1.8-1.8-3.2-3.7-3.2-1.7 0-3.1 1.1-3.6 2.6-.2-.1-.4-.1-.7-.1-1.3 0-2.4.9-2.6 2.2h-.4c-1.1 0-1.9.9-1.9 1.9v.1c0 1.1.9 1.9 1.9 1.9h15.2c1.1 0 1.9-.9 1.9-1.9v-.1c0-.9-.8-1.8-1.9-1.8"/></defs><clipPath id="O"><use xlink:href="#N" overflow="visible"/></clipPath><g clip-path="url(#O)"><defs><path id="P" d="M-127.8-210h521.1v447.5h-521.1z"/></defs><clipPath><use xlink:href="#P" overflow="visible"/></clipPath></g><defs><path id="Q" d="M276.6-26.2h-2.7c-1.1 0-1.9-.9-1.9-1.9v-.1c0-1.1.9-1.9 1.9-1.9h.4c.2-1.2 1.3-2.2 2.6-2.2.2 0 .5 0 .7.1.5-1.5 1.9-2.6 3.6-2.6 1.9 0 3.4 1.4 3.7 3.2.4-.3.9-.4 1.5-.4 1.3 0 2.3.8 2.6 2h.1c1.1 0 1.9.9 1.9 1.9v.1c0 1.1-.9 1.9-1.9 1.9h-12.5z"/></defs><clipPath id="R"><use xlink:href="#Q" overflow="visible"/></clipPath><g clip-path="url(#R)"><defs><path id="S" d="M-127.8-210h521.1v447.5h-521.1z"/></defs><clipPath><use xlink:href="#S" overflow="visible"/></clipPath></g><defs><path id="T" d="M271.3-35.6h20.5v10.1h-20.5z"/></defs><clipPath id="U"><use xlink:href="#T" overflow="visible"/></clipPath><g clip-path="url(#U)"><defs><path id="V" d="M-127.8-210h521.1v447.5h-521.1z"/></defs><clipPath><use xlink:href="#V" overflow="visible"/></clipPath></g><defs><path id="W" d="M287.1-57.2c-.3-.7-.9-1.3-1.7-1.3-.3 0-.7.1-.9.3-.2-1.1-1.2-2-2.4-2-1.1 0-2 .7-2.3 1.7l-.4-.1c-.8 0-1.5.6-1.6 1.4h-.3c-.7 0-1.2.6-1.2 1.2v.1c0 .7.6 1.2 1.2 1.2h9.7c.7 0 1.2-.6 1.2-1.2v-.1c-.1-.7-.6-1.2-1.3-1.2"/></defs><clipPath id="X"><use xlink:href="#W" overflow="visible"/></clipPath><g clip-path="url(#X)"><defs><path id="Y" d="M-127.8-210h521.1v447.5h-521.1z"/></defs><clipPath><use xlink:href="#Y" overflow="visible"/></clipPath></g><defs><path id="Z" d="M279.2-54.7h-1.7c-.7 0-1.2-.6-1.2-1.2v-.1c0-.7.6-1.2 1.2-1.2h.3c.1-.8.8-1.4 1.6-1.4.1 0 .3 0 .4.1.3-1 1.2-1.7 2.3-1.7 1.2 0 2.2.9 2.4 2 .3-.2.6-.3.9-.3.8 0 1.5.5 1.7 1.3.7 0 1.2.6 1.2 1.2v.1c0 .7-.6 1.2-1.2 1.2h-7.9z"/></defs><clipPath id="aa"><use xlink:href="#Z" overflow="visible"/></clipPath><g clip-path="url(#aa)"><defs><path id="ab" d="M-127.8-210h521.1v447.5h-521.1z"/></defs><clipPath><use xlink:href="#ab" overflow="visible"/></clipPath></g><defs><path id="ac" d="M287.1-54h-9.7c-1.1 0-2-.9-2-1.9 0-1.1.7-1.9 1.7-2 .4-.8 1.2-1.4 2.1-1.4.5-1 1.6-1.6 2.7-1.6 1.2 0 2.3.7 2.8 1.8 1.1-.2 2.2.3 2.7 1.3.9.2 1.5 1 1.5 1.9.2 1.1-.7 1.9-1.8 1.9zm-9.7-2.5c-.3 0-.5.2-.5.5 0 .4.2.6.5.6h9.7c.3 0 .5-.2.5-.5 0-.4-.2-.6-.5-.6h-.5l-.2-.5c-.2-.6-1-.9-1.5-.6l-.9.6-.2-1.1c-.1-.8-.8-1.4-1.7-1.4-.7 0-1.4.5-1.6 1.2l-.2.7-.7-.2c-.6-.2-1.1.2-1.2.7l-.1.6h-.9z"/></defs><clipPath id="ad"><use xlink:href="#ac" overflow="visible"/></clipPath><g clip-path="url(#ad)"><defs><path id="ae" d="M-127.8-210h521.1v447.5h-521.1z"/></defs><clipPath><use xlink:href="#ae" overflow="visible"/></clipPath></g><defs><path id="af" d="M309.2-42.3h-.8c-.7-1.9-2.5-3.2-4.6-3.2h-32.8c0 4.5 3.7 8.1 8.2 8.1h30c1.2 0 2.3-1 2.3-2.2v-.4c-.1-1.3-1.1-2.3-2.3-2.3"/></defs><clipPath id="ag"><use xlink:href="#af" overflow="visible"/></clipPath><g clip-path="url(#ag)"><defs><path id="ah" d="M-127.8-210h521.1v447.5h-521.1z"/></defs><clipPath><use xlink:href="#ah" overflow="visible"/></clipPath></g><defs><path id="ai" d="M309.2-39.3h-30c-3.9 0-7.1-2.7-8-6.2h-.2c0 4.5 3.7 8.1 8.2 8.1h30c1.2 0 2.3-1 2.3-2.2v-.4c0-.3-.1-.5-.1-.7-.4.8-1.3 1.4-2.2 1.4"/></defs><clipPath id="aj"><use xlink:href="#ai" overflow="visible"/></clipPath><g clip-path="url(#aj)"><defs><path id="ak" d="M-127.8-210h521.1v447.5h-521.1z"/></defs><clipPath><use xlink:href="#ak" overflow="visible"/></clipPath></g><defs><path id="al" d="M309.2-36.6h-30c-4.9 0-8.9-4-8.9-8.9v-.7h33.5c2.2 0 4.1 1.3 5.1 3.2h.3c1.6 0 3 1.3 3 3v.5c-.1 1.5-1.4 2.9-3 2.9zm-37.4-8.2c.4 3.8 3.6 6.7 7.4 6.7h30c.8 0 1.5-.7 1.5-1.5v-.4c0-.8-.7-1.5-1.5-1.5h-1.3l-.2-.5c-.6-1.6-2.2-2.7-3.9-2.7h-32z"/></defs><clipPath id="am"><use xlink:href="#al" overflow="visible"/></clipPath><g clip-path="url(#am)"><defs><path id="an" d="M-127.8-210h521.1v447.5h-521.1z"/></defs><clipPath><use xlink:href="#an" overflow="visible"/></clipPath></g><defs><path id="ao" d="M280.4-42.9h-9.5c-.6 0-1.1-.5-1.1-1.1v-.4c0-.6.5-1.1 1.1-1.1h9.5c.6 0 1.1.5 1.1 1.1v.4c0 .6-.5 1.1-1.1 1.1"/></defs><clipPath id="ap"><use xlink:href="#ao" overflow="visible"/></clipPath><g clip-path="url(#ap)"><defs><path id="aq" d="M-127.8-210h521.1v447.5h-521.1z"/></defs><clipPath><use xlink:href="#aq" overflow="visible"/></clipPath></g><defs><path id="ar" d="M298.8-36.4h-11.6c-.6 0-1.1-.5-1.1-1.1v-.8c0-.6.5-1.1 1.1-1.1h11.6c.6 0 1.1.5 1.1 1.1v.8c.1.6-.4 1.1-1.1 1.1"/></defs><clipPath id="as"><use xlink:href="#ar" overflow="visible"/></clipPath><g clip-path="url(#as)"><defs><path id="at" d="M-127.8-210h521.1v447.5h-521.1z"/></defs><clipPath><use xlink:href="#at" overflow="visible"/></clipPath></g><defs><path id="au" d="M280.4-42.2h-9.5c-1 0-1.8-.8-1.8-1.8v-.4c0-1 .8-1.8 1.8-1.8h9.5c1 0 1.8.8 1.8 1.8v.4c0 1-.8 1.8-1.8 1.8zm-9.5-2.6c-.2 0-.4.2-.4.4v.4c0 .2.2.4.4.4h9.5c.2 0 .4-.2.4-.4v-.4c0-.2-.2-.4-.4-.4h-9.5z"/></defs><clipPath id="av"><use xlink:href="#au" overflow="visible"/></clipPath><g clip-path="url(#av)"><defs><path id="aw" d="M-127.8-210h521.1v447.5h-521.1z"/></defs><clipPath><use xlink:href="#aw" overflow="visible"/></clipPath></g><defs><path id="ax" d="M298.8-35.7h-11.6c-1 0-1.8-.8-1.8-1.8v-.8c0-1 .8-1.8 1.8-1.8h11.6c1 0 1.8.8 1.8 1.8v.8c.1 1-.8 1.8-1.8 1.8zm-11.6-3c-.2 0-.4.2-.4.4v.8c0 .2.2.4.4.4h11.6c.2 0 .4-.2.4-.4v-.8c0-.2-.2-.4-.4-.4h-11.6z"/></defs><clipPath id="ay"><use xlink:href="#ax" overflow="visible"/></clipPath><g clip-path="url(#ay)"><defs><path id="az" d="M-127.8-210h521.1v447.5h-521.1z"/></defs><clipPath><use xlink:href="#az" overflow="visible"/></clipPath></g><defs><path id="aA" d="M268.6-65.4h43.8v39.9h-43.8z"/></defs><clipPath id="aB"><use xlink:href="#aA" overflow="visible"/></clipPath><g clip-path="url(#aB)"><defs><path id="aC" d="M-127.8-210h521.1v447.5h-521.1z"/></defs><clipPath><use xlink:href="#aC" overflow="visible"/></clipPath></g><circle fill="#5FB0E5" cx="44.3" cy="12.3" r="1"/><circle fill="#5FB0E5" cx="44.3" cy="21" r=".7"/><circle fill="#5FB0E5" cx="51.2" cy="17.9" r="1.4"/><path fill="#fff" d="M41.6 49v-32.1c0-1-.8-1.8-1.8-1.8h-25.9c-1 0-1.8.8-1.8 1.8v32.1h29.5z"/><path fill="#D2E9F7" d="M12.2 19.7v-3.1c0-.8.7-1.5 1.5-1.5h26.5c.8 0 1.5.7 1.5 1.5v3.1h-29.5z"/><path fill="#0686D8" d="M12.9 49.3h-1.5v-32.7c0-1.2 1-2.2 2.2-2.2h26.5c1.2 0 2.2 1 2.2 2.2v6h-1.5v-6c0-.4-.3-.7-.7-.7h-26.5c-.4 0-.7.3-.7.7v32.7zM12.2 19h29.4v1.5h-29.4zM15.5 16.9h1.2v1.5h-1.2zM18.3 16.9h1.2v1.5h-1.2zM21 16.9h1.2v1.5h-1.2z"/><path fill="#9ECFEF" d="M16.1 23.1h21.6v8.5h-21.6zM16.1 37h6.6v8.5h-6.6z"/><path fill="#D2E9F7" d="M23.6 37h6.6v8.5h-6.6z"/><path fill="#0686D8" d="M22.3 33.6h9.2v1.5h-9.2z"/><path fill="#5FB0E5" d="M49.3 37h-2.7v-5.4c0-2.7-2.2-5-5-5-2.7 0-5 2.2-5 5v5.4h-2.6v-5.4c0-4.2 3.4-7.7 7.7-7.7 4.2 0 7.7 3.4 7.7 7.7v5.4z"/><path fill="#0686D8" d="M50 37.8h-4.2v-6.2c0-2.3-1.9-4.2-4.2-4.2-2.3 0-4.2 1.9-4.2 4.2v6.2h-4.2v-6.2c0-4.6 3.8-8.4 8.4-8.4 4.6 0 8.4 3.8 8.4 8.4v6.2zm-2.7-1.5h1.2v-4.7c0-3.8-3.1-6.9-6.9-6.9-3.8 0-6.9 3.1-6.9 6.9v4.7h1.2v-4.7c0-3.1 2.6-5.7 5.7-5.7s5.7 2.6 5.7 5.7v4.7z"/><circle fill="#fff" cx="41.6" cy="42" r="9.9"/><circle fill="#9ECFEF" cx="41.6" cy="42" r="5.6"/><circle fill="#5FB0E5" cx="41.6" cy="42" r="2.3"/><circle fill="#0686D8" cx="41.6" cy="42" r=".9"/><path fill="#0686D8" d="M41.6 45.1c-1.7 0-3.1-1.4-3.1-3.1 0-1.7 1.4-3.1 3.1-3.1 1.7 0 3.1 1.4 3.1 3.1 0 1.7-1.4 3.1-3.1 3.1zm0-4.7c-.9 0-1.6.7-1.6 1.6s.7 1.6 1.6 1.6c.9 0 1.6-.7 1.6-1.6s-.7-1.6-1.6-1.6zM41.6 52.7c-5.9 0-10.6-4.8-10.6-10.7s4.8-10.6 10.6-10.6c5.9 0 10.6 4.8 10.6 10.6 0 1.1-.2 2.2-.5 3.3l-1.4-.5c.3-.9.4-1.9.4-2.8 0-5-4.1-9.1-9.1-9.1s-9.1 4.1-9.1 9.1 4.1 9.1 9.1 9.1c2.8 0 5.3-1.2 7.1-3.4l1.2.9c-2.1 2.6-5.1 4.1-8.3 4.1zM50.5 47.8l-1.2-.8.5-.9.2-.3 1.3.7-.1.3c-.3.4-.6.8-.7 1zM40.9 37.7h1.5v1.3h-1.5zM42.585 38.978l.65-1.126 1.299.75-.65 1.126zM43.889 39.837l1.126-.65.75 1.299-1.126.65zM44.7 41.3h1.3v1.5h-1.3zM43.915 44.244l.749-1.299 1.126.649-.749 1.299zM42.503 45.149l1.299-.751.651 1.125-1.299.751zM40.8 45.1h1.5v1.3h-1.5zM38.748 45.402l.65-1.126 1.299.75-.65 1.126zM37.4 43.53l1.125-.651.752 1.298-1.125.651zM37.199 41.301l1.3-.002.002 1.5-1.3.002zM37.439 40.494l.749-1.299 1.126.649-.749 1.299zM38.762 38.572l1.298-.752.651 1.125-1.298.752z"/></svg>