<svg xmlns="http://www.w3.org/2000/svg" viewBox="0 0 64 64" enable-background="new 0 0 64 64"><path fill="#CEE8FA" d="M52.2 50.4h-44.7c-.5 0-1-.5-1-1v-31.6c0-.5.5-1 1-1h44.7c.5 0 1 .5 1 1v31.6c0 .5-.4 1-1 1z"/><g stroke="#4C5C68" stroke-miterlimit="10" fill="none"><path d="M47.4 15.8h4.7c1.2 0 2.1 1 2.1 2.1v31.2c0 1.2-1 2.1-2.1 2.1h-44.4c-1.2 0-2.1-1-2.1-2.1v-31.1c0-1.2 1-2.1 2.1-2.1h35.9M7.5 49.2c0 .1.1.2.2.2h44.4c.1 0 .2-.1.2-.2"/></g><path fill="#fff" d="M8.9 21.4h41.9v28.3h-41.9z"/><path fill="#fff" stroke="#4C5C68" stroke-miterlimit="10" d="M24.4 46.5h-19.9v2.8c0 1.7 1.3 3 3 3h45.5c1.7 0 3-1.3 3-3v-2.8h-23.4l-1.5 2.9h-4.8l-1.9-2.9z"/><path fill="#fff" d="M57.9 48.2c0 .1 0 .3-.1.4l.5.2.7.3c.4.1.5.5.4.9l-.4 1.2c-.1.3-.5.5-.9.4l-1.1-.4c-.1 0-.1 0-.2.1-.3.5-.8 1-1.2 1.4l-.3.3.4.9.1.2c.1.3 0 .7-.3.9-.4.2-.8.4-1.2.5-.3.1-.7 0-.8-.3l-.5-1.1v-.1l-.6.1h-1.9l-.3.9-.1.3c-.1.3-.5.5-.9.4l-1.2-.4c-.3-.1-.5-.5-.4-.9l.4-1.1c0-.1 0-.1-.1-.1-.4-.3-.8-.6-1.1-.9l-.5-.6-.1-.1-.9.4c-.1.1-.3.1-.4.1-.3.1-.6-.1-.7-.4-.2-.4-.4-.8-.5-1.2-.1-.3 0-.7.3-.8l1.1-.5c.1 0 .1-.1.1-.2l-.1-.7v-.8c0-.3 0-.5.1-.8-.3-.1-.5-.2-.7-.3l-.4-.1c-.4-.1-.5-.5-.4-.9.1-.4.3-.8.4-1.1.1-.3.6-.5.9-.4l1.1.4h.1c.4-.7.9-1.2 1.6-1.7l-.4-.9c0-.1-.1-.2-.1-.2-.2-.4 0-.8.3-.9l1.1-.5c.3-.1.7 0 .9.3l.3.6c.1.2.2.3.2.5 0 .1.1.1.1.1l1.1-.1h1.1c.1 0 .1 0 .2-.1l.4-1c.1-.4.5-.5.9-.4l1.2.4c.3.1.5.5.4.9l-.4 1.1c0 .1 0 .1.1.1.4.3.8.6 1.1.9.2.2.4.4.5.6l.1.1.6-.3.6-.3c.3-.1.6.1.7.4.2.4.4.8.5 1.2.1.3 0 .7-.3.8l-1.1.5s-.1 0-.1.1l.1 1v.7zm-6.4-5.2c-2.5 0-4.5 2.1-4.5 4.6 0 2.5 2.1 4.6 4.6 4.6 2.6 0 4.6-2 4.6-4.6-.1-2.5-2.1-4.6-4.7-4.6z"/><path fill="#fff" stroke="#4C5C68" stroke-miterlimit="10" d="M57.9 48.2c0 .1 0 .3-.1.4l.5.2.7.3c.4.1.5.5.4.9l-.4 1.2c-.1.3-.5.5-.9.4l-1.1-.4c-.1 0-.1 0-.2.1-.3.5-.8 1-1.2 1.4l-.3.3.4.9.1.2c.1.3 0 .7-.3.9-.4.2-.8.4-1.2.5-.3.1-.7 0-.8-.3l-.5-1.1v-.1l-.6.1h-1.9l-.3.9-.1.3c-.1.3-.5.5-.9.4l-1.2-.4c-.3-.1-.5-.5-.4-.9l.4-1.1c0-.1 0-.1-.1-.1-.4-.3-.8-.6-1.1-.9l-.5-.6-.1-.1-.9.4c-.1.1-.3.1-.4.1-.3.1-.6-.1-.7-.4-.2-.4-.4-.8-.5-1.2-.1-.3 0-.7.3-.8l1.1-.5c.1 0 .1-.1.1-.2l-.1-.7v-.8c0-.3 0-.5.1-.8-.3-.1-.5-.2-.7-.3l-.4-.1c-.4-.1-.5-.5-.4-.9.1-.4.3-.8.4-1.1.1-.3.6-.5.9-.4l1.1.4h.1c.4-.7.9-1.2 1.6-1.7l-.4-.9c0-.1-.1-.2-.1-.2-.2-.4 0-.8.3-.9l1.1-.5c.3-.1.7 0 .9.3l.3.6c.1.2.2.3.2.5 0 .1.1.1.1.1l1.1-.1h1.1c.1 0 .1 0 .2-.1l.4-1c.1-.4.5-.5.9-.4l1.2.4c.3.1.5.5.4.9l-.4 1.1c0 .1 0 .1.1.1.4.3.8.6 1.1.9.2.2.4.4.5.6l.1.1.6-.3.6-.3c.3-.1.6.1.7.4.2.4.4.8.5 1.2.1.3 0 .7-.3.8l-1.1.5s-.1 0-.1.1l.1 1v.7z"/><path fill="#286090" stroke="#4C5C68" stroke-width=".953" stroke-linecap="round" stroke-linejoin="round" stroke-miterlimit="10" d="M51.6 44c2 0 3.6 1.6 3.6 3.6s-1.6 3.6-3.6 3.6-3.6-1.6-3.6-3.6 1.6-3.6 3.6-3.6z"/><path fill="#F9CA38" d="M17.2 28.2h31.5v10.7h-31.5z"/><path fill="#4C5C68" stroke="#4C5C68" stroke-width=".4" stroke-linecap="round" stroke-linejoin="round" stroke-miterlimit="10" d="M19.6 31.8l-1.1 1.5 1.8-.2v.8l-1.8-.2 1.2 1.4-.8.4-.7-1.7-.8 1.7-.7-.4 1.1-1.5-1.8.3v-.8l1.8.2-1.1-1.5.7-.4.7 1.7.7-1.7.8.4zm8 0l-1.1 1.5 1.8-.2v.8l-1.8-.2 1.2 1.4-.8.4-.7-1.7-.8 1.7-.7-.4 1.1-1.5-1.8.3v-.8l1.8.2-1.1-1.5.7-.4.7 1.7.7-1.7.8.4zm8 0l-1.1 1.5 1.8-.2v.8l-1.8-.2 1.2 1.4-.8.4-.7-1.7-.8 1.7-.7-.4 1.1-1.5-1.8.3v-.8l1.8.2-1.1-1.5.7-.4.7 1.7.7-1.7.8.4zm8 0l-1.1 1.5 1.8-.2v.8l-1.8-.2 1.2 1.4-.8.4-.7-1.7-.8 1.7-.7-.4 1.1-1.5-1.8.3v-.8l1.8.2-1.1-1.5.7-.4.7 1.7.7-1.7.8.4z"/><path fill="#fff" d="M19.4 31.9h-6.8v-1.9c0-1.8 1.4-3.2 3.2-3.2h.4c1.8 0 3.2 1.4 3.2 3.2v1.9zm-8.3.2h9.4v6.8h-9.4z"/><path d="M21 31.5h-1v-1.4c0-2.3-1.8-4.1-4.1-4.1-2.1 0-3.9 1.6-4.1 3.7v1.8h-.8c-.1 0-.3 0-.4.1 0 0-.1.1-.1.2v7.4c0 .3.4.6.6.6h10c.1 0 .2 0 .2-.1.1-.1.1-.2.1-.4v-7.4c-.1-.1 0-.4-.4-.4zm-8.2-1.4c0-1.7 1.4-3.2 3.1-3.2s3.1 1.4 3.1 3.2v1.4h-6.3v-1.4zm-.4 0v-.3c.1.1 0 .2 0 .3zm-.9 2.4h8.9v6.3h-8.9v-6.3zm4.4 2.8c-.3 0-.5.2-.5.5v1.6c0 .3.2.5.5.5s.5-.2.5-.5v-1.6c0-.3-.2-.5-.5-.5z" fill="#286090"/></svg>