<svg xmlns="http://www.w3.org/2000/svg" viewBox="0 0 64 64"><defs><style>.cls-1,.cls-2,.cls-3{fill:none;}.cls-1{clip-rule:evenodd;}.cls-2{fill-rule:evenodd;}.cls-4{clip-path:url(#clip-path);}.cls-5{clip-path:url(#clip-path-3);}.cls-6{clip-path:url(#clip-path-4);}.cls-7{clip-path:url(#clip-path-5);}.cls-8{clip-path:url(#clip-path-6);}.cls-9{clip-path:url(#clip-path-7);}.cls-10{clip-path:url(#clip-path-8);}.cls-11{clip-path:url(#clip-path-9);}.cls-12{clip-path:url(#clip-path-10);}.cls-13{clip-path:url(#clip-path-11);}.cls-14{clip-path:url(#clip-path-12);}.cls-15{clip-path:url(#clip-path-13);}.cls-16{clip-path:url(#clip-path-14);}.cls-17{clip-path:url(#clip-path-15);}.cls-18{clip-path:url(#clip-path-16);}.cls-19{clip-path:url(#clip-path-17);}.cls-20{clip-path:url(#clip-path-18);}.cls-21{clip-path:url(#clip-path-19);}.cls-22{clip-path:url(#clip-path-20);}.cls-23{clip-path:url(#clip-path-21);}.cls-24{clip-path:url(#clip-path-22);}.cls-25{clip-path:url(#clip-path-23);}.cls-26{clip-path:url(#clip-path-24);}.cls-27{clip-path:url(#clip-path-25);}.cls-28{clip-path:url(#clip-path-26);}.cls-29{clip-path:url(#clip-path-27);}.cls-30{fill:#d2e9f7;}.cls-31{fill:#0686d8;}.cls-32{fill:#fff;}.cls-33{fill:#9ecfef;}.cls-34{fill:#5fb0e5;}</style><clipPath id="clip-path"><path class="cls-1" d="M198.18-45.13h-8l-3.76-7.31a.84.84 0 0 1 .75-1.22h2.78a.85.85 0 0 1 .62.27z"/></clipPath><clipPath id="clip-path-3"><path class="cls-1" d="M188-53.66h-.88a.84.84 0 0 0-.75 1.22l3.76 7.31h3.13l-5.17-8.18a.91.91 0 0 1-.09-.35"/></clipPath><clipPath id="clip-path-4"><path class="cls-1" d="M199.82-44.42h-10.12l-4-7.7a1.53 1.53 0 0 1 .06-1.52 1.55 1.55 0 0 1 1.33-.74h2.78a1.57 1.57 0 0 1 1.15.5zm-9.24-1.43h6l-6.58-7.06a.12.12 0 0 0-.09 0h-2.78a.12.12 0 0 0-.1.06.12.12 0 0 0 0 .12z"/></clipPath><clipPath id="clip-path-5"><path class="cls-1" d="M223.22-30.56a1.2 1.2 0 0 1-1.21 1.2 1.2 1.2 0 0 1-1.21-1.2 1.2 1.2 0 0 1 1.21-1.2 1.2 1.2 0 0 1 1.21 1.2"/></clipPath><clipPath id="clip-path-6"><path class="cls-1" d="M213.3-57.44a.6.6 0 0 1-.6.6.6.6 0 0 1-.6-.6.6.6 0 0 1 .6-.6.6.6 0 0 1 .6.6"/></clipPath><clipPath id="clip-path-7"><path class="cls-1" d="M212-33.77a.6.6 0 0 1-.6.6.6.6 0 0 1-.6-.6.6.6 0 0 1 .6-.6.6.6 0 0 1 .6.6"/></clipPath><clipPath id="clip-path-8"><path class="cls-1" d="M227.94-60.2a.79.79 0 0 1-.79.79.79.79 0 0 1-.79-.79.79.79 0 0 1 .79-.79.79.79 0 0 1 .79.79"/></clipPath><clipPath id="clip-path-9"><path class="cls-1" d="M218.27-64.27a1.13 1.13 0 0 1-1.14 1.13 1.13 1.13 0 0 1-1.13-1.13 1.13 1.13 0 0 1 1.14-1.13 1.13 1.13 0 0 1 1.14 1.13"/></clipPath><clipPath id="clip-path-10"><path class="cls-1" d="M226.24-49h-.09a3.36 3.36 0 0 0-3.23-2.41 3.37 3.37 0 0 0-1.81.53 4.59 4.59 0 0 0-4.54-3.87 4.6 4.6 0 0 0-4.4 3.22 3.16 3.16 0 0 0-.82-.11 3.15 3.15 0 0 0-3.13 2.64h-.52a2.36 2.36 0 0 0-2.36 2.35v.17a2.36 2.36 0 0 0 2.36 2.35h18.54a2.36 2.36 0 0 0 2.36-2.35v-.17a2.36 2.36 0 0 0-2.36-2.35"/></clipPath><clipPath id="clip-path-11"><path class="cls-1" d="M226.24-43.37v-1.43a1.64 1.64 0 0 0 1.64-1.63v-.17a1.64 1.64 0 0 0-1.64-1.63h-.54l-.24-.52a2.65 2.65 0 0 0-2.54-1.89 2.65 2.65 0 0 0-1.42.42l-.93.6-.17-1.09a3.85 3.85 0 0 0-3.84-3.29 3.87 3.87 0 0 0-3.71 2.71l-.21.66-.64-.17a2.44 2.44 0 0 0-3 2l-.1.6h-1.2a1.65 1.65 0 0 0-1.41.8l-1.24-.73a3.1 3.1 0 0 1 2.6-1.5 3.85 3.85 0 0 1 4-2.63 5.3 5.3 0 0 1 4.86-3.12 5.28 5.28 0 0 1 5 3.56 4.09 4.09 0 0 1 1.33-.22 4.11 4.11 0 0 1 3.75 2.45 3.07 3.07 0 0 1 2.66 3v.17a3.07 3.07 0 0 1-3.08 3.06"/></clipPath><clipPath id="clip-path-12"><path class="cls-1" d="M219-50.81a3.11 3.11 0 0 0-2.61-1.41 3.13 3.13 0 0 0-1.59.43l-.8-1.21a4.58 4.58 0 0 1 2.32-.63 4.54 4.54 0 0 1 3.82 2.06z"/></clipPath><clipPath id="clip-path-13"><path class="cls-1" d="M213.76-50h-1.44a.92.92 0 0 0-.92-.91v-1.43a2.35 2.35 0 0 1 2.36 2.34"/></clipPath><clipPath id="clip-path-14"><path class="cls-1" d="M206.09-30.2h-.09a2.75 2.75 0 0 0-2.65-2 2.76 2.76 0 0 0-1.49.43 3.76 3.76 0 0 0-3.72-3.17 3.77 3.77 0 0 0-3.6 2.63 2.61 2.61 0 0 0-.67-.09 2.58 2.58 0 0 0-2.56 2.17h-.42a1.93 1.93 0 0 0-1.89 1.95v.14a1.93 1.93 0 0 0 1.93 1.92h15.19a1.93 1.93 0 0 0 1.88-1.92v-.14a1.93 1.93 0 0 0-1.93-1.92"/></clipPath><clipPath id="clip-path-15"><path class="cls-1" d="M193.62-26.22h-2.71a1.93 1.93 0 0 1-1.91-1.92v-.14a1.93 1.93 0 0 1 1.93-1.92h.42a2.58 2.58 0 0 1 2.56-2.17 2.61 2.61 0 0 1 .67.09 3.77 3.77 0 0 1 3.6-2.63 3.76 3.76 0 0 1 3.72 3.17 2.75 2.75 0 0 1 1.49-.43 2.75 2.75 0 0 1 2.65 2h.08a1.93 1.93 0 0 1 1.88 1.89v.14a1.93 1.93 0 0 1-1.93 1.92h-12.45z"/></clipPath><clipPath id="clip-path-16"><path class="cls-3" d="M188.25-35.63h20.5v10.13h-20.5z"/></clipPath><clipPath id="clip-path-17"><path class="cls-1" d="M204.11-57.21a1.75 1.75 0 0 0-1.68-1.26 1.75 1.75 0 0 0-.95.28 2.39 2.39 0 0 0-2.37-2 2.4 2.4 0 0 0-2.29 1.68 1.67 1.67 0 0 0-.43-.06 1.64 1.64 0 0 0-1.63 1.38h-.27a1.23 1.23 0 0 0-1.27 1.19v.09a1.23 1.23 0 0 0 1.23 1.22h9.66a1.23 1.23 0 0 0 1.23-1.22v-.09a1.23 1.23 0 0 0-1.23-1.22"/></clipPath><clipPath id="clip-path-18"><path class="cls-1" d="M196.17-54.67h-1.73a1.23 1.23 0 0 1-1.23-1.22v-.11a1.23 1.23 0 0 1 1.23-1.22h.27a1.64 1.64 0 0 1 1.63-1.38 1.67 1.67 0 0 1 .43.06 2.4 2.4 0 0 1 2.29-1.68 2.39 2.39 0 0 1 2.37 2 1.75 1.75 0 0 1 .95-.28 1.75 1.75 0 0 1 1.68 1.26 1.23 1.23 0 0 1 1.28 1.24v.09a1.23 1.23 0 0 1-1.23 1.22h-7.94z"/></clipPath><clipPath id="clip-path-19"><path class="cls-1" d="M204.11-54h-9.66a2 2 0 0 1-2-1.94 2 2 0 0 1 1.68-2 2.35 2.35 0 0 1 2.14-1.4 3.11 3.11 0 0 1 2.74-1.62 3.1 3.1 0 0 1 2.83 1.79 2.53 2.53 0 0 1 2.68 1.27 1.94 1.94 0 0 1 1.54 1.9 2 2 0 0 1-1.95 2zm-9.66-2.54a.52.52 0 0 0-.51.51.54.54 0 0 0 .51.6h9.66a.52.52 0 0 0 .51-.51.54.54 0 0 0-.51-.6h-.54l-.2-.52a1.07 1.07 0 0 0-1.55-.58l-.93.6-.17-1.09a1.69 1.69 0 0 0-1.66-1.41 1.67 1.67 0 0 0-1.61 1.17l-.21.66-.67-.18a.91.91 0 0 0-1.16.74l-.1.6z"/></clipPath><clipPath id="clip-path-20"><path class="cls-1" d="M226.16-42.29h-.77a4.89 4.89 0 0 0-4.59-3.2h-32.8a8.17 8.17 0 0 0 8.19 8.14h30a2.25 2.25 0 0 0 2.26-2.24v-.41a2.25 2.25 0 0 0-2.26-2.24"/></clipPath><clipPath id="clip-path-21"><path class="cls-1" d="M226.16-39.26h-30a8.18 8.18 0 0 1-8-6.23h-.16a8.17 8.17 0 0 0 8.19 8.14h30a2.25 2.25 0 0 0 2.26-2.24v-.41a2.2 2.2 0 0 0-.13-.73 2.25 2.25 0 0 1-2.13 1.52"/></clipPath><clipPath id="clip-path-22"><path class="cls-1" d="M226.16-36.63h-30a8.9 8.9 0 0 1-8.91-8.85v-.72h33.51a5.64 5.64 0 0 1 5.07 3.2h.3a3 3 0 0 1 3 3v.45a3 3 0 0 1-2.97 2.92zm-37.4-8.14a7.47 7.47 0 0 0 7.44 6.71h30a1.54 1.54 0 0 0 1.54-1.53v-.41a1.54 1.54 0 0 0-1.54-1.53h-1.28l-.17-.47a4.19 4.19 0 0 0-3.91-2.73z"/></clipPath><clipPath id="clip-path-23"><path class="cls-1" d="M197.38-42.9h-9.46a1.12 1.12 0 0 1-1.13-1.1v-.35a1.12 1.12 0 0 1 1.13-1.12h9.46a1.12 1.12 0 0 1 1.13 1.12v.35a1.12 1.12 0 0 1-1.13 1.12"/></clipPath><clipPath id="clip-path-24"><path class="cls-1" d="M215.83-36.39h-11.61a1.12 1.12 0 0 1-1.13-1.12v-.83a1.12 1.12 0 0 1 1.13-1.12h11.61a1.12 1.12 0 0 1 1.17 1.12v.83a1.12 1.12 0 0 1-1.13 1.12"/></clipPath><clipPath id="clip-path-25"><path class="cls-1" d="M197.37-42.19h-9.46a1.84 1.84 0 0 1-1.84-1.81v-.35a1.84 1.84 0 0 1 1.85-1.83h9.46a1.84 1.84 0 0 1 1.84 1.83v.35a1.84 1.84 0 0 1-1.85 1.81zm-9.46-2.59a.4.4 0 0 0-.41.4v.38a.41.41 0 0 0 .41.4h9.46a.4.4 0 0 0 .4-.4v-.35a.4.4 0 0 0-.4-.4z"/></clipPath><clipPath id="clip-path-26"><path class="cls-1" d="M215.83-35.68h-11.61a1.84 1.84 0 0 1-1.85-1.83v-.83a1.84 1.84 0 0 1 1.85-1.83h11.61a1.84 1.84 0 0 1 1.85 1.83v.83a1.84 1.84 0 0 1-1.85 1.83zm-11.61-3.06a.4.4 0 0 0-.41.4v.83a.41.41 0 0 0 .41.4h11.61a.41.41 0 0 0 .41-.4v-.83a.4.4 0 0 0-.41-.4z"/></clipPath><clipPath id="clip-path-27"><path class="cls-3" d="M185.56-65.41h43.75v39.91h-43.75z"/></clipPath></defs><title>prepaid-recharge</title><g id="_Group_"><g id="_Group_2"><rect class="cls-30" x="11.47" y="22.32" width="35.46" height="18.66" rx="1.94" ry="1.94" transform="translate(27.29 74.66) rotate(-134.76)" id="_Group_3"/><path id="_Path_" class="cls-31" d="M43.14 43.85l-6.14 6.07a2.77 2.77 0 0 1-3.92 0l-22.08-22.33a2.77 2.77 0 0 1 0-3.92l10.38-10.29a2.77 2.77 0 0 1 3.92 0l12.47 12.62-1.06 1-12.48-12.55a1.27 1.27 0 0 0-1.8 0l-10.38 10.29a1.27 1.27 0 0 0 0 1.8l22.12 22.3a1.27 1.27 0 0 0 1.8 0l6.12-6.07z"/><circle class="cls-32" cx="29.09" cy="31.66" r="6.28" transform="translate(-13.81 28.81) rotate(-43.62)" id="_Group_5"/><circle class="cls-32" cx="22.07" cy="24.83" r="1.69" transform="translate(-11.04 22.08) rotate(-43.62)" id="_Group_6"/><circle class="cls-32" cx="36.14" cy="39.01" r="1.69" transform="translate(-16.94 35.7) rotate(-43.62)" id="_Group_7"/><path id="_Path_2" class="cls-31" d="M33.94 36.75a7 7 0 1 1-4.68-12.12v1.5a5.53 5.53 0 1 0 3.68 9.54z"/><g id="_Group_9"><path id="_Path_3" class="cls-31" d="M30 34.3a1.94 1.94 0 0 1-2.74 0l-2.16-2.22 1.06-1.08 2.19 2.21a.44.44 0 1 0 .62-.62l-.9-.91a1.94 1.94 0 1 1 2.76-2.68l2.25 2.27-1.08 1.03-2.23-2.3a.44.44 0 1 0-.62.62l.9.91a1.94 1.94 0 0 1-.05 2.77z"/><path id="_Path_4" class="cls-31" d="M25.473 34.182l6.17-6.118 1.056 1.065-6.17 6.118z"/></g><path id="_Path_5" class="cls-31" d="M28.47 20.86l-1.07 1.06-2-2a4.1 4.1 0 0 1-4.67 0l-3.36 3.33a4.1 4.1 0 0 1 0 4.67l1.63 1.61-1.07 1.06-1.93-1.93a1 1 0 0 1 0-1.4 2.61 2.61 0 0 0 0-3.4 1 1 0 0 1 .05-1.42l3.95-3.89a1 1 0 0 1 1.42 0 2.61 2.61 0 0 0 3.38 0 1.05 1.05 0 0 1 1.43.06z"/><path id="_Path_6" class="cls-31" d="M41.68 41.85l-3.93 3.9a1 1 0 0 1-1.42 0 2.61 2.61 0 0 0-3.4 0 1 1 0 0 1-1.4-.05l-1.91-1.92 1.07-1.06 1.61 1.62a4.1 4.1 0 0 1 4.67 0l3.64-3.61z"/></g><g id="_Group_14"><rect class="cls-32" x="30.62" y="13.9" width="22.75" height="36.21" rx="1.99" ry="1.99" id="_Group_15"/><path id="_Path_7" class="cls-31" d="M51.33 50.85h-18.68a2.79 2.79 0 0 1-2.79-2.79v-32.13a2.79 2.79 0 0 1 2.79-2.79h1.94v1.5h-1.94a1.29 1.29 0 0 0-1.29 1.29v32.14a1.29 1.29 0 0 0 1.29 1.29h18.68a1.29 1.29 0 0 0 1.29-1.29v-32.14a1.29 1.29 0 0 0-1.29-1.29h-9.41v-1.5h9.41a2.79 2.79 0 0 1 2.79 2.79v32.14a2.79 2.79 0 0 1-2.79 2.78z"/><path id="_Path_8" class="cls-31" d="M36.47 13.15h3.22v1.5h-3.22z"/><path id="_Path_9" class="cls-31" d="M38.63 15.87h6.73v1.5h-6.73z"/><path id="_Compound_Path_" class="cls-31" d="M42 49a1.84 1.84 0 1 1 1.84-1.84 1.84 1.84 0 0 1-1.84 1.84zm0-2.18a.34.34 0 1 0 .34.34.34.34 0 0 0-.34-.36z"/><path class="cls-33" d="M32.89 19.12h18.2v25.65h-18.2z" id="_Group_20"/></g><circle class="cls-34" cx="11.97" cy="36.84" r="1.6" id="_Group_21"/><circle class="cls-34" cx="20.24" cy="44.1" r=".87" id="_Group_22"/><circle class="cls-34" cx="14.84" cy="48.23" r="1.27" id="_Group_23"/><rect class="cls-32" x="20.6" y="45.88" width="13.23" height="4.18" rx=".39" ry=".39" id="_Group_24"/><path id="_Compound_Path_2" class="cls-31" d="M33.45 50.81h-12.45a1.14 1.14 0 0 1-1.14-1.14v-3.4a1.14 1.14 0 0 1 1.14-1.14h12.45a1.14 1.14 0 0 1 1.14 1.14v3.4a1.14 1.14 0 0 1-1.14 1.14zm-12.09-1.5h11.72v-2.68h-11.73z"/><rect class="cls-32" x="20.02" y="40.54" width="13.23" height="4.18" rx=".39" ry=".39" id="_Group_26"/><path id="_Compound_Path_3" class="cls-31" d="M32.86 45.47h-12.46a1.14 1.14 0 0 1-1.14-1.14v-3.4a1.14 1.14 0 0 1 1.14-1.14h12.46a1.14 1.14 0 0 1 1.14 1.14v3.4a1.14 1.14 0 0 1-1.14 1.14zm-12.09-1.47h11.73v-2.71h-11.73z"/></g></svg>