<svg xmlns="http://www.w3.org/2000/svg" viewBox="0 0 64 64" enable-background="new 0 0 64 64"><circle fill="#5FB0E5" cx="22.2" cy="10.1" r=".9"/><circle fill="#5FB0E5" cx="52.3" cy="17.8" r=".9"/><circle fill="#5FB0E5" cx="47.6" cy="11" r="1.4"/><circle fill="#5FB0E5" cx="43.8" cy="18.5" r=".7"/><circle fill="#5FB0E5" cx="10.3" cy="11" r="1.4"/><circle fill="#5FB0E5" cx="15.7" cy="17.1" r=".7"/><path fill="#0686D8" d="M32.9 24.7l-1-.5c-.7-.3-6.8-3.3-8-5.4-.7-1.1-.8-2.4-.5-3.7.3-1.3 1.1-2.3 2.3-3 1.1-.7 2.4-.8 3.7-.5 1.3.3 2.3 1.1 3 2.3.4.6.6 1.7.7 3.2.2 2.8-.1 6.2-.1 6.4l-.1 1.2zm-4.8-11.6c-.6 0-1.1.1-1.6.4-.8.4-1.3 1.1-1.5 2-.2.8-.1 1.7.3 2.5.6 1.1 3.8 3 6.2 4.2.1-1.2.1-3.2 0-4.9-.1-1.7-.4-2.3-.5-2.6-.4-.8-1.1-1.3-2-1.5-.3-.1-.6-.1-.9-.1zM33 24.2l-.7-1.4c2.4-1.2 6.5-3.5 7.3-4.7.4-.8.6-1.6.3-2.5-.2-.8-.8-1.6-1.5-2-1.2-.7-2.7-.6-3.8.4-.3.2-.5.5-.7.8l-1.4-.8c.3-.5.6-.9 1-1.2 1.6-1.4 3.8-1.6 5.6-.6 1.1.6 1.9 1.7 2.3 3 .3 1.3.2 2.6-.5 3.7-1.2 2-7.2 5-7.9 5.3z"/><path fill="#fff" d="M45.7 53.4h-26.5c-1 0-1.8-.8-1.8-1.8v-26.1h30.2v26.1c0 1-.9 1.8-1.9 1.8z"/><path fill="#0686D8" d="M45.6 54.2h-26.3c-1.5 0-2.7-1.2-2.7-2.7v-1.1h1.6v1.1c0 .6.5 1.1 1.1 1.1h26.4c.6 0 1.1-.5 1.1-1.1v-25.2h-28.7v15.9h-1.6v-17.5h31.8v26.8c0 1.5-1.2 2.7-2.7 2.7zM16.6 44.1h1.6v4.7h-1.6z"/><path fill="#D2E9F7" d="M48.1 28h-31.3c-.6 0-1.1-.5-1.1-1.1v-3.3c0-.6.5-1.1 1.1-1.1h31.4c.6 0 1.1.5 1.1 1.1v3.3c-.1.6-.6 1.1-1.2 1.1z"/><path fill="#0686D8" d="M48.1 28.8h-31.3c-1.1 0-1.9-.9-1.9-1.9v-3.2c0-1.1.9-1.9 1.9-1.9h31.2c1.1 0 1.9.9 1.9 1.9v3.2c.1 1-.8 1.9-1.8 1.9zm-31.3-5.5c-.2 0-.4.2-.4.4v3.2c0 .2.2.4.4.4h31.2c.2 0 .4-.2.4-.4v-3.2c0-.2-.2-.4-.4-.4h-31.2z"/><path fill="#5FB0E5" d="M29.2 22.5h7.2v30.9h-7.2z"/><path fill="#0686D8" d="M37.1 54.2h-8.8v-32.5h8.8v32.5zm-7.2-1.6h5.6v-29.3h-5.6v29.3zM28.923 26.575l6.582-3.8.8 1.386-6.582 3.8zM29.028 30.25l6.668-3.85.8 1.386-6.668 3.85zM29.032 34.033l6.668-3.85.8 1.386-6.668 3.85zM29.039 37.814l6.668-3.851.8 1.386-6.668 3.851zM28.989 41.512l6.668-3.85.8 1.386-6.668 3.85zM28.91 45.344l6.668-3.851.8 1.386-6.668 3.851zM28.914 49.126l6.668-3.851.8 1.386-6.668 3.851zM28.918 52.909l6.668-3.851.8 1.386-6.668 3.851z"/></svg>