<svg xmlns="http://www.w3.org/2000/svg" xmlns:xlink="http://www.w3.org/1999/xlink" viewBox="0 0 64 64" enable-background="new 0 0 64 64"><defs><path id="a" d="M23.2 32.9h-8l-3.8-7.3c-.3-.6.1-1.2.7-1.2h2.8c.2 0 .5.1.6.3l7.7 8.2z"/></defs><clipPath id="b"><use xlink:href="#a" overflow="visible"/></clipPath><g clip-path="url(#b)"><defs><path id="c" d="M-385.8-132h521.1v447.5h-521.1z"/></defs><clipPath id="d"><use xlink:href="#c" overflow="visible"/></clipPath><path clip-path="url(#d)" fill="#fff" d="M9.4 22.4h15.7v12.3h-15.7z"/></g><defs><path id="e" d="M23.2 32.9h-8l-3.8-7.3c-.3-.6.1-1.2.7-1.2h2.8c.2 0 .5.1.6.3l7.7 8.2z"/></defs><clipPath id="f"><use xlink:href="#e" overflow="visible"/></clipPath><g clip-path="url(#f)"><defs><path id="g" d="M-385.8-132h521.1v447.5h-521.1z"/></defs><clipPath id="h"><use xlink:href="#g" overflow="visible"/></clipPath><path clip-path="url(#h)" fill="#fff" d="M9.4 22.4h15.7v12.3h-15.7z"/></g><defs><path id="i" d="M13 24.3h-.9c-.6 0-1 .7-.7 1.2l3.8 7.3h3.1l-5.2-8.2c-.1 0-.1-.1-.1-.3"/></defs><clipPath id="j"><use xlink:href="#i" overflow="visible"/></clipPath><g clip-path="url(#j)"><defs><path id="k" d="M-385.8-132h521.1v447.5h-521.1z"/></defs><clipPath id="l"><use xlink:href="#k" overflow="visible"/></clipPath><path clip-path="url(#l)" fill="#5FB0E5" d="M9.4 22.4h10.8v12.3h-10.8z"/></g><defs><path id="m" d="M24.8 33.6h-10.1l-4-7.7c-.2-.5-.2-1.1.1-1.5.3-.5.8-.7 1.3-.7h2.8c.4 0 .9.2 1.1.5l8.8 9.4zm-9.2-1.4h6l-6.6-7.1h-2.9s-.1 0-.1.1v.1l3.6 6.9z"/></defs><clipPath id="n"><use xlink:href="#m" overflow="visible"/></clipPath><g clip-path="url(#n)"><defs><path id="o" d="M-385.8-132h521.1v447.5h-521.1z"/></defs><clipPath id="p"><use xlink:href="#o" overflow="visible"/></clipPath><path clip-path="url(#p)" fill="#0686D8" d="M8.7 21.7h18.1v13.8h-18.1z"/></g><defs><path id="q" d="M48.2 47.4c0 .7-.5 1.2-1.2 1.2s-1.2-.5-1.2-1.2.5-1.2 1.2-1.2 1.2.6 1.2 1.2"/></defs><clipPath id="r"><use xlink:href="#q" overflow="visible"/></clipPath><g clip-path="url(#r)"><defs><path id="s" d="M-385.8-132h521.1v447.5h-521.1z"/></defs><clipPath id="t"><use xlink:href="#s" overflow="visible"/></clipPath><path clip-path="url(#t)" fill="#5FB0E5" d="M43.9 44.3h6.2v6.2h-6.2z"/></g><defs><path id="u" d="M38.3 20.6c0 .3-.3.6-.6.6s-.6-.3-.6-.6.3-.6.6-.6.6.2.6.6"/></defs><clipPath id="v"><use xlink:href="#u" overflow="visible"/></clipPath><g clip-path="url(#v)"><defs><path id="w" d="M-385.8-132h521.1v447.5h-521.1z"/></defs><clipPath id="x"><use xlink:href="#w" overflow="visible"/></clipPath><path clip-path="url(#x)" fill="#5FB0E5" d="M35.2 18.1h5v5h-5z"/></g><defs><path id="y" d="M37 44.2c0 .3-.3.6-.6.6s-.6-.3-.6-.6.3-.6.6-.6.6.3.6.6"/></defs><clipPath id="z"><use xlink:href="#y" overflow="visible"/></clipPath><g clip-path="url(#z)"><defs><path id="A" d="M-385.8-132h521.1v447.5h-521.1z"/></defs><clipPath id="B"><use xlink:href="#A" overflow="visible"/></clipPath><path clip-path="url(#B)" fill="#5FB0E5" d="M33.9 41.7h5v5h-5z"/></g><defs><path id="C" d="M52.9 17.8c0 .4-.4.8-.8.8s-.8-.4-.8-.8.4-.8.8-.8c.5 0 .8.4.8.8"/></defs><clipPath id="D"><use xlink:href="#C" overflow="visible"/></clipPath><g clip-path="url(#D)"><defs><path id="E" d="M-385.8-132h521.1v447.5h-521.1z"/></defs><clipPath id="F"><use xlink:href="#E" overflow="visible"/></clipPath><path clip-path="url(#F)" fill="#5FB0E5" d="M49.5 15.1h5.4v5.4h-5.4z"/></g><defs><path id="G" d="M43.3 13.7c0 .6-.5 1.1-1.1 1.1-.6 0-1.1-.5-1.1-1.1 0-.6.5-1.1 1.1-1.1.6 0 1.1.5 1.1 1.1"/></defs><clipPath id="H"><use xlink:href="#G" overflow="visible"/></clipPath><g clip-path="url(#H)"><defs><path id="I" d="M-385.8-132h521.1v447.5h-521.1z"/></defs><clipPath id="J"><use xlink:href="#I" overflow="visible"/></clipPath><path clip-path="url(#J)" fill="#5FB0E5" d="M39.1 10.7h6.1v6.1h-6.1z"/></g><defs><path id="K" d="M51.2 29c-.5-1.4-1.8-2.4-3.3-2.4-.7 0-1.3.2-1.8.5-.3-2.2-2.2-3.9-4.5-3.9-2.1 0-3.8 1.4-4.4 3.2-.3-.1-.5-.1-.8-.1-1.6 0-2.9 1.1-3.1 2.6h-.5c-1.3 0-2.4 1.1-2.4 2.3v.2c0 1.3 1.1 2.3 2.4 2.3h18.5c1.3 0 2.4-1.1 2.4-2.3v-.2c-.1-1.1-1.2-2.2-2.5-2.2"/></defs><clipPath id="L"><use xlink:href="#K" overflow="visible"/></clipPath><g clip-path="url(#L)"><defs><path id="M" d="M-385.8-132h521.1v447.5h-521.1z"/></defs><clipPath id="N"><use xlink:href="#M" overflow="visible"/></clipPath><path clip-path="url(#N)" fill="#D2E9F7" d="M28.4 21.4h27.1v14.4h-27.1z"/></g><defs><path id="O" d="M51.2 34.6v-1.4c.9 0 1.6-.7 1.6-1.6v-.2c0-.9-.7-1.6-1.6-1.6h-.5l-.2-.5c-.3-1.1-1.4-1.9-2.5-1.9-.5 0-1 .1-1.4.4l-.9.6-.2-1.1c-.3-1.9-1.9-3.3-3.8-3.3-1.7 0-3.2 1.1-3.7 2.7l-.2.7-.8-.2c-1.4-.4-2.8.6-3 2l-.1.6h-1.1c-.6 0-1.1.3-1.4.8l-1.2-.7c.5-.9 1.5-1.5 2.6-1.5.5-1.7 2.2-2.8 4-2.6.8-1.9 2.7-3.1 4.9-3.1 2.3 0 4.3 1.5 5 3.6.4-.1.9-.2 1.3-.2 1.6 0 3.1 1 3.7 2.4 1.5.2 2.7 1.5 2.7 3v.2c-.1 1.6-1.5 2.9-3.2 2.9"/></defs><clipPath id="P"><use xlink:href="#O" overflow="visible"/></clipPath><g clip-path="url(#P)"><defs><path id="Q" d="M-385.8-132h521.1v447.5h-521.1z"/></defs><clipPath id="R"><use xlink:href="#Q" overflow="visible"/></clipPath><path clip-path="url(#R)" fill="#0686D8" d="M28.1 20.7h28.1v15.9h-28.1z"/></g><defs><path id="S" d="M44 27.2c-.6-.9-1.6-1.4-2.6-1.4-.6 0-1.1.1-1.6.4l-.8-1.2c.7-.4 1.5-.6 2.3-.6 1.5 0 3 .8 3.8 2.1l-1.1.7z"/></defs><clipPath id="T"><use xlink:href="#S" overflow="visible"/></clipPath><g clip-path="url(#T)"><defs><path id="U" d="M-385.8-132h521.1v447.5h-521.1z"/></defs><clipPath id="V"><use xlink:href="#U" overflow="visible"/></clipPath><path clip-path="url(#V)" fill="#0686D8" d="M37.1 22.4h10v6.7h-10z"/></g><defs><path id="W" d="M38.8 28h-1.4c0-.5-.4-.9-.9-.9v-1.4c1.2 0 2.3 1 2.3 2.3"/></defs><clipPath id="X"><use xlink:href="#W" overflow="visible"/></clipPath><g clip-path="url(#X)"><defs><path id="Y" d="M-385.8-132h521.1v447.5h-521.1z"/></defs><clipPath id="Z"><use xlink:href="#Y" overflow="visible"/></clipPath><path clip-path="url(#Z)" fill="#0686D8" d="M34.5 23.8h6.2v6.2h-6.2z"/></g><defs><path id="aa" d="M31.1 47.8c-.4-1.1-1.5-2-2.7-2-.5 0-1.1.2-1.5.4-.3-1.8-1.8-3.2-3.7-3.2-1.7 0-3.1 1.1-3.6 2.6-.2-.1-.4-.1-.7-.1-1.3 0-2.4.9-2.6 2.2h-.4c-1.1 0-1.9.9-1.9 1.9v.1c0 1.1.9 1.9 1.9 1.9h15.2c1.1 0 1.9-.9 1.9-1.9v-.1c0-.9-.8-1.8-1.9-1.8"/></defs><clipPath id="ab"><use xlink:href="#aa" overflow="visible"/></clipPath><g clip-path="url(#ab)"><defs><path id="ac" d="M-385.8-132h521.1v447.5h-521.1z"/></defs><clipPath id="ad"><use xlink:href="#ac" overflow="visible"/></clipPath><path clip-path="url(#ad)" fill="#D2E9F7" d="M12.1 41.2h22.9v12.5h-22.9z"/></g><defs><path id="ae" d="M18.6 51.8h-2.7c-1.1 0-1.9-.9-1.9-1.9v-.1c0-1.1.9-1.9 1.9-1.9h.4c.2-1.2 1.3-2.2 2.6-2.2.2 0 .5 0 .7.1.5-1.5 1.9-2.6 3.6-2.6 1.9 0 3.4 1.4 3.7 3.2.4-.3.9-.4 1.5-.4 1.3 0 2.3.8 2.6 2h.1c1.1 0 1.9.9 1.9 1.9v.1c0 1.1-.9 1.9-1.9 1.9h-12.5z"/></defs><clipPath id="af"><use xlink:href="#ae" overflow="visible"/></clipPath><g clip-path="url(#af)"><defs><path id="ag" d="M-385.8-132h521.1v447.5h-521.1z"/></defs><clipPath id="ah"><use xlink:href="#ag" overflow="visible"/></clipPath><path clip-path="url(#ah)" fill="#D2E9F7" d="M12.1 41.2h22.9v12.5h-22.9z"/></g><defs><path id="ai" d="M13.3 42.4h20.5v10.1h-20.5z"/></defs><clipPath id="aj"><use xlink:href="#ai" overflow="visible"/></clipPath><g clip-path="url(#aj)"><defs><path id="ak" d="M-385.8-132h521.1v447.5h-521.1z"/></defs><clipPath id="al"><use xlink:href="#ak" overflow="visible"/></clipPath><g clip-path="url(#al)" enable-background="new"><defs><path id="am" d="M13.2 42.4h20.6v10.3h-20.6z"/></defs><clipPath id="an"><use xlink:href="#am" overflow="visible"/></clipPath><g clip-path="url(#an)"><defs><path id="ao" d="M31.1 52.5h-15.2c-1.5 0-2.7-1.2-2.7-2.6v-.1c0-1.4 1.1-2.6 2.5-2.6.5-1.4 1.8-2.3 3.3-2.2.7-1.5 2.3-2.6 4.1-2.6 1.9 0 3.6 1.2 4.2 2.9.3-.1.7-.1 1-.1 1.4 0 2.6.8 3.2 2 1.3.2 2.2 1.3 2.2 2.6v.1c0 1.4-1.1 2.6-2.6 2.6zm-15.2-4c-.7 0-1.2.5-1.2 1.2v.1c0 .7.5 1.2 1.2 1.2h15.2c.7 0 1.2-.5 1.2-1.2v-.1c0-.7-.5-1.2-1.2-1.2h-.5l-.3-.5c-.3-.9-1.1-1.5-2-1.5-.4 0-.8.1-1.1.3l-.9.6-.2-1.1c-.2-1.5-1.5-2.6-3-2.6-1.3 0-2.5.9-2.9 2.1l-.2.8-.7-.2c-1.1-.3-2.2.4-2.3 1.5l-.1.6h-1z"/></defs><clipPath id="ap"><use xlink:href="#ao" overflow="visible"/></clipPath><g clip-path="url(#ap)"><defs><path id="aq" d="M13.2 42.4h20.6v10.3h-20.6z"/></defs><clipPath id="ar"><use xlink:href="#aq" overflow="visible"/></clipPath><path clip-path="url(#ar)" fill="#0686D8" d="M11.3 40.5h24.3v13.9h-24.3z"/></g></g></g></g><defs><path id="as" d="M29.1 20.8c-.3-.7-.9-1.3-1.7-1.3-.3 0-.7.1-.9.3-.2-1.1-1.2-2-2.4-2-1.1 0-2 .7-2.3 1.7l-.4-.1c-.8 0-1.5.6-1.6 1.4h-.3c-.7 0-1.2.6-1.2 1.2v.1c0 .7.6 1.2 1.2 1.2h9.7c.7 0 1.2-.6 1.2-1.2v-.1c-.1-.7-.6-1.2-1.3-1.2"/></defs><clipPath id="at"><use xlink:href="#as" overflow="visible"/></clipPath><g clip-path="url(#at)"><defs><path id="au" d="M-385.8-132h521.1v447.5h-521.1z"/></defs><clipPath id="av"><use xlink:href="#au" overflow="visible"/></clipPath><path clip-path="url(#av)" fill="#D2E9F7" d="M16.3 15.9h15.9v9.3h-15.9z"/></g><defs><path id="aw" d="M21.2 23.3h-1.7c-.7 0-1.2-.6-1.2-1.2v-.1c0-.7.6-1.2 1.2-1.2h.3c.1-.8.8-1.4 1.6-1.4.1 0 .3 0 .4.1.3-1 1.2-1.7 2.3-1.7 1.2 0 2.2.9 2.4 2 .3-.2.6-.3.9-.3.8 0 1.5.5 1.7 1.3.7 0 1.2.6 1.2 1.2v.1c0 .7-.6 1.2-1.2 1.2h-7.9z"/></defs><clipPath id="ax"><use xlink:href="#aw" overflow="visible"/></clipPath><g clip-path="url(#ax)"><defs><path id="ay" d="M-385.8-132h521.1v447.5h-521.1z"/></defs><clipPath id="az"><use xlink:href="#ay" overflow="visible"/></clipPath><path clip-path="url(#az)" fill="#D2E9F7" d="M16.3 15.9h15.9v9.3h-15.9z"/></g><defs><path id="aA" d="M29.1 24h-9.7c-1.1 0-2-.9-2-1.9 0-1.1.7-1.9 1.7-2 .4-.8 1.2-1.4 2.1-1.4.5-1 1.6-1.6 2.7-1.6 1.2 0 2.3.7 2.8 1.8 1.1-.2 2.2.3 2.7 1.3.9.2 1.5 1 1.5 1.9.2 1.1-.7 1.9-1.8 1.9zm-9.7-2.5c-.3 0-.5.2-.5.5 0 .4.2.6.5.6h9.7c.3 0 .5-.2.5-.5 0-.4-.2-.6-.5-.6h-.5l-.2-.5c-.2-.6-1-.9-1.5-.6l-1 .6-.2-1.1c-.1-.8-.8-1.4-1.7-1.4-.7 0-1.4.5-1.6 1.2l-.2.7-.7-.2c-.6-.2-1.1.2-1.2.7l-.1.6h-.8z"/></defs><clipPath id="aB"><use xlink:href="#aA" overflow="visible"/></clipPath><g clip-path="url(#aB)"><defs><path id="aC" d="M-385.8-132h521.1v447.5h-521.1z"/></defs><clipPath id="aD"><use xlink:href="#aC" overflow="visible"/></clipPath><path clip-path="url(#aD)" fill="#0686D8" d="M15.6 15.2h17.4v10.8h-17.4z"/></g><defs><path id="aE" d="M51.2 35.7h-.8c-.7-1.9-2.5-3.2-4.6-3.2h-32.8c0 4.5 3.7 8.1 8.2 8.1h30c1.2 0 2.3-1 2.3-2.2v-.4c-.1-1.3-1.1-2.3-2.3-2.3"/></defs><clipPath id="aF"><use xlink:href="#aE" overflow="visible"/></clipPath><g clip-path="url(#aF)"><defs><path id="aG" d="M-385.8-132h521.1v447.5h-521.1z"/></defs><clipPath id="aH"><use xlink:href="#aG" overflow="visible"/></clipPath><path clip-path="url(#aH)" fill="#fff" d="M11.1 30.6h44.2v12h-44.2z"/></g><defs><path id="aI" d="M51.2 38.7h-30c-3.9 0-7.1-2.7-8-6.2h-.2c0 4.5 3.7 8.1 8.2 8.1h30c1.2 0 2.3-1 2.3-2.2v-.4c0-.3-.1-.5-.1-.7-.4.8-1.3 1.4-2.2 1.4"/></defs><clipPath id="aJ"><use xlink:href="#aI" overflow="visible"/></clipPath><g clip-path="url(#aJ)"><defs><path id="aK" d="M-385.8-132h521.1v447.5h-521.1z"/></defs><clipPath id="aL"><use xlink:href="#aK" overflow="visible"/></clipPath><path clip-path="url(#aL)" fill="#9ECFEF" d="M11.1 30.6h44.2v12h-44.2z"/></g><defs><path id="aM" d="M51.2 41.4h-30c-4.9 0-8.9-4-8.9-8.9v-.7h33.5c2.2 0 4.1 1.3 5.1 3.2h.3c1.6 0 3 1.3 3 3v.5c-.1 1.5-1.4 2.9-3 2.9zm-37.4-8.2c.4 3.8 3.6 6.7 7.4 6.7h30c.8 0 1.5-.7 1.5-1.5v-.4c0-.8-.7-1.5-1.5-1.5h-1.3l-.2-.5c-.6-1.6-2.2-2.7-3.9-2.7h-32z"/></defs><clipPath id="aN"><use xlink:href="#aM" overflow="visible"/></clipPath><g clip-path="url(#aN)"><defs><path id="aO" d="M-385.8-132h521.1v447.5h-521.1z"/></defs><clipPath id="aP"><use xlink:href="#aO" overflow="visible"/></clipPath><path clip-path="url(#aP)" fill="#0686D8" d="M10.4 29.9h45.7v13.4h-45.7z"/></g><defs><path id="aQ" d="M22.4 35.1h-9.5c-.6 0-1.1-.5-1.1-1.1v-.4c0-.6.5-1.1 1.1-1.1h9.5c.6 0 1.1.5 1.1 1.1v.4c0 .6-.5 1.1-1.1 1.1"/></defs><clipPath id="aR"><use xlink:href="#aQ" overflow="visible"/></clipPath><g clip-path="url(#aR)"><defs><path id="aS" d="M-385.8-132h521.1v447.5h-521.1z"/></defs><clipPath id="aT"><use xlink:href="#aS" overflow="visible"/></clipPath><path clip-path="url(#aT)" fill="#D2E9F7" d="M9.9 30.6h15.5v6.4h-15.5z"/></g><defs><path id="aU" d="M40.8 41.6h-11.6c-.6 0-1.1-.5-1.1-1.1v-.8c0-.6.5-1.1 1.1-1.1h11.6c.6 0 1.1.5 1.1 1.1v.8c.1.6-.4 1.1-1.1 1.1"/></defs><clipPath id="aV"><use xlink:href="#aU" overflow="visible"/></clipPath><g clip-path="url(#aV)"><defs><path id="aW" d="M-385.8-132h521.1v447.5h-521.1z"/></defs><clipPath id="aX"><use xlink:href="#aW" overflow="visible"/></clipPath><path clip-path="url(#aX)" fill="#D2E9F7" d="M26.2 36.6h17.7v6.9h-17.7z"/></g><defs><path id="aY" d="M22.4 35.8h-9.5c-1 0-1.8-.8-1.8-1.8v-.4c0-1 .8-1.8 1.8-1.8h9.5c1 0 1.8.8 1.8 1.8v.4c0 1-.8 1.8-1.8 1.8zm-9.5-2.6c-.2 0-.4.2-.4.4v.4c0 .2.2.4.4.4h9.5c.2 0 .4-.2.4-.4v-.4c0-.2-.2-.4-.4-.4h-9.5z"/></defs><clipPath id="aZ"><use xlink:href="#aY" overflow="visible"/></clipPath><g clip-path="url(#aZ)"><defs><path id="ba" d="M-385.8-132h521.1v447.5h-521.1z"/></defs><clipPath id="bb"><use xlink:href="#ba" overflow="visible"/></clipPath><path clip-path="url(#bb)" fill="#0686D8" d="M9.2 29.9h17v7.8h-17z"/></g><defs><path id="bc" d="M40.8 42.3h-11.6c-1 0-1.8-.8-1.8-1.8v-.8c0-1 .8-1.8 1.8-1.8h11.6c1 0 1.8.8 1.8 1.8v.8c.1 1-.8 1.8-1.8 1.8zm-11.6-3c-.2 0-.4.2-.4.4v.8c0 .2.2.4.4.4h11.6c.2 0 .4-.2.4-.4v-.8c0-.2-.2-.4-.4-.4h-11.6z"/></defs><clipPath id="bd"><use xlink:href="#bc" overflow="visible"/></clipPath><g clip-path="url(#bd)"><defs><path id="be" d="M-385.8-132h521.1v447.5h-521.1z"/></defs><clipPath id="bf"><use xlink:href="#be" overflow="visible"/></clipPath><path clip-path="url(#bf)" fill="#0686D8" d="M25.5 35.9h19.1v8.3h-19.1z"/></g><defs><path id="bg" d="M10.6 12.6h43.8v39.9h-43.8z"/></defs><clipPath id="bh"><use xlink:href="#bg" overflow="visible"/></clipPath><g clip-path="url(#bh)"><defs><path id="bi" d="M-385.8-132h521.1v447.5h-521.1z"/></defs><clipPath id="bj"><use xlink:href="#bi" overflow="visible"/></clipPath><g clip-path="url(#bj)" enable-background="new"><defs><path id="bk" d="M25.4 34.3h22.5v1.5h-22.5z"/></defs><clipPath id="bl"><use xlink:href="#bk" overflow="visible"/></clipPath><g clip-path="url(#bl)"><defs><path id="bm" d="M43.8 34.4h4.1v1.4h-4.1z"/></defs><clipPath id="bn"><use xlink:href="#bm" overflow="visible"/></clipPath><g clip-path="url(#bn)"><defs><path id="bo" d="M10.6 12.6h43.9v40.1h-43.9z"/></defs><clipPath id="bp"><use xlink:href="#bo" overflow="visible"/></clipPath><path clip-path="url(#bp)" fill="#0686D8" d="M41.9 32.5h7.9v5.2h-7.9z"/></g></g><g clip-path="url(#bl)"><defs><path id="bq" d="M39 34.4h2.1v1.4h-2.1z"/></defs><clipPath id="br"><use xlink:href="#bq" overflow="visible"/></clipPath><g clip-path="url(#br)"><defs><path id="bs" d="M10.6 12.6h43.9v40.1h-43.9z"/></defs><clipPath id="bt"><use xlink:href="#bs" overflow="visible"/></clipPath><path clip-path="url(#bt)" fill="#0686D8" d="M37 32.5h5.9v5.2h-5.9z"/></g></g><g clip-path="url(#bl)"><defs><path id="bu" d="M35.6 34.4h2.1v1.4h-2.1z"/></defs><clipPath id="bv"><use xlink:href="#bu" overflow="visible"/></clipPath><g clip-path="url(#bv)"><defs><path id="bw" d="M10.6 12.6h43.9v40.1h-43.9z"/></defs><clipPath id="bx"><use xlink:href="#bw" overflow="visible"/></clipPath><path clip-path="url(#bx)" fill="#0686D8" d="M33.7 32.5h5.9v5.2h-5.9z"/></g></g><g clip-path="url(#bl)"><defs><path id="by" d="M32.3 34.4h2.1v1.4h-2.1z"/></defs><clipPath id="bz"><use xlink:href="#by" overflow="visible"/></clipPath><g clip-path="url(#bz)"><defs><path id="bA" d="M10.6 12.6h43.9v40.1h-43.9z"/></defs><clipPath id="bB"><use xlink:href="#bA" overflow="visible"/></clipPath><path clip-path="url(#bB)" fill="#0686D8" d="M30.4 32.5h5.9v5.2h-5.9z"/></g></g><g clip-path="url(#bl)"><defs><path id="bC" d="M29 34.4h2.1v1.4h-2.1z"/></defs><clipPath id="bD"><use xlink:href="#bC" overflow="visible"/></clipPath><g clip-path="url(#bD)"><defs><path id="bE" d="M10.6 12.6h43.9v40.1h-43.9z"/></defs><clipPath id="bF"><use xlink:href="#bE" overflow="visible"/></clipPath><path clip-path="url(#bF)" fill="#0686D8" d="M27.1 32.5h5.9v5.2h-5.9z"/></g></g><g clip-path="url(#bl)"><defs><path id="bG" d="M25.7 34.4h2.1v1.4h-2.1z"/></defs><clipPath id="bH"><use xlink:href="#bG" overflow="visible"/></clipPath><g clip-path="url(#bH)"><defs><path id="bI" d="M10.6 12.6h43.9v40.1h-43.9z"/></defs><clipPath id="bJ"><use xlink:href="#bI" overflow="visible"/></clipPath><path clip-path="url(#bJ)" fill="#0686D8" d="M23.8 32.5h5.9v5.2h-5.9z"/></g></g></g></g></svg>