<svg xmlns="http://www.w3.org/2000/svg" viewBox="0 0 64 64" enable-background="new 0 0 64 64"><circle fill="#5FB0E5" cx="52.2" cy="15" r=".9"/><circle fill="#5FB0E5" cx="46.3" cy="34.5" r=".8"/><circle fill="#5FB0E5" cx="51.8" cy="29.1" r="1.3"/><circle fill="#5FB0E5" cx="45.5" cy="21.3" r="1.1"/><path fill="#0686D8" d="M37.1 49.8h-5.6v-4.6h5.6v4.6zm-4.1-1.5h2.6v-1.6h-2.6v1.6zM19 49.8h-5.6v-4.6h5.6v4.6zm-4-1.5h2.6v-1.6h-2.6v1.6z"/><path fill="#9ECFEF" d="M39.8 47.4h-27.6c-1.1 0-1.9-.9-1.9-1.9v-27.6c0-1.1.9-1.9 1.9-1.9h27.6c1.1 0 1.9.9 1.9 1.9v27.6c0 1.1-.8 1.9-1.9 1.9z"/><path fill="#D2E9F7" d="M37.4 44.7h-22.9c-.9 0-1.6-.7-1.6-1.6v-22.9c0-.9.7-1.6 1.6-1.6h22.9c.9 0 1.6.7 1.6 1.6v22.9c.1.9-.7 1.6-1.6 1.6z"/><path fill="#0686D8" d="M27.1 45.5h-13.2c-1 0-1.8-.8-1.8-1.8v-24.1c0-1 .8-1.8 1.8-1.8h24.1c1 0 1.8.8 1.8 1.8v13.1h-1.5v-13.1c0-.2-.1-.3-.3-.3h-24.1c-.2 0-.3.1-.3.3v24.1c0 .2.1.3.3.3h13.1v1.5zM26.4 48.2h-14.2c-1.5 0-2.7-1.2-2.7-2.7v-27.6c0-1.5 1.2-2.7 2.7-2.7h27.6c1.5 0 2.7 1.2 2.7 2.7v14.9h-1.5v-14.9c0-.7-.5-1.2-1.2-1.2h-27.6c-.7 0-1.2.5-1.2 1.2v27.6c0 .7.5 1.2 1.2 1.2h14.2v1.5z"/><path fill="#5FB0E5" d="M13 26.6c-.5 0-.9-.4-.9-.9v-2.6c0-.5.4-.9.9-.9s.9.4.9.9v2.6c-.1.6-.4.9-.9.9z"/><path fill="#0686D8" d="M13 27.4c-1 0-1.7-.7-1.7-1.6v-2.6c0-.9.7-1.6 1.6-1.6 1 0 1.7.7 1.7 1.6v2.6c0 .9-.7 1.6-1.6 1.6zm0-4.3c-.1 0-.2 0-.2.1v2.6c0 .1 0 .1.1.1h.1c.1 0 .1 0 .1-.1v-2.6l-.1-.1z"/><path fill="#5FB0E5" d="M13 39.7c-.5 0-.9-.4-.9-.9v-2.6c0-.5.4-.9.9-.9s.9.4.9.9v2.6c-.1.5-.4.9-.9.9z"/><path fill="#0686D8" d="M13 40.4c-1 0-1.7-.7-1.7-1.6v-2.6c0-.9.7-1.6 1.6-1.6 1 0 1.7.7 1.7 1.6v2.6c0 .9-.7 1.6-1.6 1.6zm0-4.3c-.1 0-.2 0-.2.1v2.6c0 .1 0 .1.1.1h.1c.1 0 .1 0 .1-.1v-2.6l-.1-.1z"/><circle fill="#5FB0E5" cx="26" cy="31.7" r="3.7"/><path fill="#0686D8" d="M26 36.1c-2.4 0-4.4-2-4.4-4.4s2-4.4 4.4-4.4c2.4 0 4.4 2 4.4 4.4s-2 4.4-4.4 4.4zm0-7.4c-1.6 0-2.9 1.3-2.9 2.9 0 1.6 1.3 2.9 2.9 2.9 1.6 0 2.9-1.3 2.9-2.9 0-1.5-1.3-2.9-2.9-2.9zM26 33.5c-1 0-1.8-.8-1.8-1.8s.8-1.8 1.8-1.8 1.8.8 1.8 1.8-.8 1.8-1.8 1.8zm0-2.2c-.2 0-.3.1-.3.3s.1.4.3.4c.2 0 .3-.1.3-.3s-.1-.4-.3-.4z"/><path fill="#fff" d="M35.4 49.1h-7.1l.9-4.5c0-.2.2-.4.4-.4h4.4c.2 0 .4.1.4.4l1 4.5zM44.5 49.1h-7.1l.9-4.5c0-.2.2-.4.4-.4h4.4c.2 0 .4.1.4.4l1 4.5zM53.6 49.1h-7.1l.9-4.5c0-.2.2-.4.4-.4h4.4c.2 0 .4.1.4.4l1 4.5zM39.9 44.2h-7.1l.9-4.5c0-.2.2-.4.4-.4h4.4c.2 0 .4.1.4.4l1 4.5zM49 44.2h-7l.9-4.5c0-.2.2-.4.4-.4h4.4c.2 0 .4.1.4.4l.9 4.5zM44.5 39.4h-7.1l.9-4.5c0-.2.2-.4.4-.4h4.4c.2 0 .4.1.4.4l1 4.5z"/><path fill="#0686D8" d="M36.3 49.8h-8.9l1.1-5.4c.1-.6.6-1 1.2-1h4.3c.6 0 1.1.4 1.2 1l1.1 5.4zm-7.1-1.5h5.2l-.6-3.3h-3.9l-.7 3.3zM45.4 49.8h-8.9l1.1-5.4c.1-.6.6-1 1.2-1h4.4c.6 0 1.1.4 1.2 1l1 5.4zm-7.1-1.5h5.2l-.6-3.3h-3.9l-.7 3.3zM54.5 49.8h-8.9l1.1-5.4c.1-.6.6-1 1.2-1h4.4c.6 0 1.1.4 1.2 1l1 5.4zm-7-1.5h5.2l-.7-3.3h-3.9l-.6 3.3zM40.8 45h-8.9l1.1-5.4c.1-.6.6-1 1.2-1h4.4c.6 0 1.1.4 1.2 1l1 5.4zm-7-1.5h5.2l-.7-3.4h-3.9l-.6 3.4zM50 45h-8.9l1.1-5.4c.1-.6.6-1 1.2-1h4.4c.6 0 1.1.4 1.2 1l1 5.4zm-7.1-1.5h5.2l-.7-3.4h-3.9l-.6 3.4zM45.4 40.1h-8.9l1.1-5.4c.1-.6.6-1 1.2-1h4.4c.6 0 1.1.4 1.2 1l1 5.4zm-7.1-1.5h5.2l-.7-3.4h-3.8l-.7 3.4z"/></svg>