<svg xmlns="http://www.w3.org/2000/svg" viewBox="0 0 64 64" enable-background="new 0 0 64 64"><circle fill="#5FB0E5" cx="18.6" cy="25.5" r=".5"/><circle fill="#5FB0E5" cx="24.6" cy="13.2" r=".5"/><circle fill="#5FB0E5" cx="47.1" cy="24.5" r=".5"/><circle fill="#5FB0E5" cx="37.8" cy="15.2" r=".3"/><circle fill="#5FB0E5" cx="46.6" cy="13.8" r=".6"/><circle fill="#5FB0E5" cx="53.6" cy="20.2" r=".8"/><circle fill="#5FB0E5" cx="18.1" cy="16.2" r=".7"/><circle fill="#5FB0E5" cx="11" cy="19.1" r="1"/><path fill="#5FB0E5" d="M33.1 53.7h-1.3c-.5 0-1-.5-1-1v-3.1c0-.5.5-1 1-1h1.3c.5 0 1 .5 1 1v3.1c0 .6-.5 1-1 1z"/><path fill="#0686D8" d="M33.1 54.5h-1.3c-1 0-1.8-.8-1.8-1.8v-3.1c0-1 .8-1.8 1.8-1.8h1.3c1 0 1.8.8 1.8 1.8v3.1c-.1 1-.8 1.8-1.8 1.8zm-1.3-5.2c-.1 0-.2.1-.2.2v3.1c0 .1.1.2.2.2h1.3c.1 0 .2-.1.2-.2v-3.1c0-.1-.1-.2-.2-.2h-1.3z"/><path fill="#fff" d="M43.7 27.8c0-6.2-5-11.2-11.2-11.2-6.2 0-11.2 5-11.2 11.2 0 4.1 2.3 7.7 5.6 9.7v11l1.6 3h7.7l1.9-3v-11c3.3-1.9 5.6-5.6 5.6-9.7z"/><path fill="#D2E9F7" d="M26.9 37.5v11l1.6 3h7.7l1.9-3v-11z"/><path fill="#5FB0E5" d="M38.1 48.5l-1.9 3h-7.7l-1.6-3z"/><path fill="#0686D8" d="M36.6 52.2h-8.5l-1.9-3.6v-10.7c-3.5-2.2-5.6-6-5.6-10.1 0-2.8 1-5.5 2.8-7.7l1.1 1c-1.6 1.9-2.4 4.3-2.4 6.7 0 3.7 2 7.2 5.2 9l.4.2v11.3l1.3 2.4h6.8l1.5-2.5v-11.2l.4-.2c3.2-1.9 5.2-5.3 5.2-9 0-5.7-4.7-10.4-10.4-10.4-1.4 0-2.7.3-3.9.8l-.6-1.4c1.4-.6 2.9-.9 4.5-.9 6.6 0 11.9 5.3 11.9 11.9 0 4.1-2.1 7.9-5.6 10.1v10.8l-2.2 3.5zM25.6 20l-1.1-1c.7-.7 1.1-.9 1.8-1.3l.2-.1.7 1.3-.2.1c-.6.3-.8.4-1.4 1zM25.3 40.1h14.5v1.5h-14.5zM25.3 42.7h14.5v1.5h-14.5zM25.3 45.2h14.5v1.5h-14.5zM25.3 47.7h14.5v1.5h-14.5z"/><circle fill="#D2E9F7" cx="32.4" cy="27.5" r="7.9"/><path fill="#5FB0E5" d="M34.9 25.8c0-1.3-1.1-2.4-2.4-2.4-1.3 0-2.4 1.1-2.4 2.4 0 .6.3 1.2.7 1.7l-.7 4.1h4.6l-.7-4c.5-.5.9-1.1.9-1.8z"/><path fill="#0686D8" d="M35.6 32.3h-6.3l.8-4.7c-.4-.5-.6-1.2-.6-1.9 0-1.7 1.4-3.1 3.1-3.1 1.7 0 3.1 1.4 3.1 3.1 0 .8-.3 1.5-.8 2l.7 4.6zm-4.6-1.5h2.8l-.6-3.6.3-.3c.4-.3.6-.8.6-1.2 0-.9-.7-1.6-1.6-1.6-.9 0-1.6.7-1.6 1.6 0 .4.2.8.5 1.1l.3.3-.7 3.7z"/></svg>