<svg xmlns="http://www.w3.org/2000/svg" viewBox="0 0 64 64" enable-background="new 0 0 64 64"><g><circle fill="#5FB0E5" cx="36" cy="13.1" r="1"/><circle fill="#5FB0E5" cx="43.5" cy="16.1" r=".8"/><circle fill="#5FB0E5" cx="50.8" cy="14.6" r="1.5"/><circle fill="#5FB0E5" cx="16.8" cy="14.8" r=".9"/><g><path fill="#fff" d="M21.7 18.9l.3-1.3c.1-.9 1-1.6 1.9-1.5l19.8 2.6c.9.1 1.6 1 1.5 1.9l-3.6 28-22.5-6.9 2.6-22.8z"/><path fill="#0686D8" d="M42.3 48.7l-1.5-.2 3.6-28c.1-.5-.3-1-.8-1.1l-19.8-2.6c-.3 0-.5 0-.7.2-.2.2-.3.4-.4.6l-.3 1.4-1.5-.3.3-1.3c.1-.6.4-1.2.9-1.6.5-.4 1.2-.6 1.8-.5l19.8 2.6c1.3.2 2.3 1.4 2.1 2.8l-3.5 28z"/><g><path fill="#fff" d="M49.3 51.6h-1.9c-.1 0-.3-.1-.3-.3v-27.700000000000003l1-2.1c.1-.2.4-.2.5 0l1 2.1v27.700000000000003c0 .2-.2.3-.3.3z"/><path fill="#5FB0E5" d="M47.1 24.6h2.4v24.3h-2.4z"/><path fill="#0686D8" d="M50.3 52.4h-3.9v-28.9l1.1-2.5c.3-.6 1.3-.6 1.6 0l1.1 2.5v28.9zm-2.4-1.5h.9v-27l-.5-1-.5 1v27z"/><path fill="#0686D8" d="M47 23.9h2.5v1.5h-2.5z"/></g><path fill="#D2E9F7" d="M38 51.6h-19.7c-1 0-1.9-.8-1.9-1.9v-27.8c0-1 .8-1.9 1.9-1.9h19.7c1 0 1.9.8 1.9 1.9v27.8c0 1.1-.9 1.9-1.9 1.9z"/><path fill="#0686D8" d="M38 52.4h-19.7c-1.5 0-2.6-1.2-2.6-2.6v-27.9c0-1.5 1.2-2.6 2.6-2.6h19.7c1.5 0 2.6 1.2 2.6 2.6v27.8c0 1.5-1.2 2.7-2.6 2.7zm-19.7-31.7c-.6 0-1.1.5-1.1 1.1v27.8c0 .6.5 1.1 1.1 1.1h19.7c.6 0 1.1-.5 1.1-1.1v-27.7c0-.6-.5-1.1-1.1-1.1h-19.7z"/><path fill="#0686D8" d="M14.3 22.6h4.3v1.5h-4.3z"/><path fill="#0686D8" d="M14.3 25.6h4.3v1.5h-4.3z"/><path fill="#0686D8" d="M14.3 28.7h4.3v1.5h-4.3z"/><path fill="#0686D8" d="M14.3 31.8h4.3v1.5h-4.3z"/><path fill="#0686D8" d="M14.3 34.8h4.3v1.5h-4.3z"/><path fill="#0686D8" d="M14.3 37.9h4.3v1.5h-4.3z"/><path fill="#0686D8" d="M14.3 41.2h4.2v1.5h-4.2z"/><path fill="#0686D8" d="M14.3 44.2h4.2v1.5h-4.2z"/><path fill="#0686D8" d="M14.3 47.1h4.2v1.5h-4.2z"/><circle fill="#fff" cx="28.2" cy="32.5" r="5.1"/><path fill="#0686D8" d="M28.2 38.4c-3.2 0-5.9-2.6-5.9-5.9 0-3.2 2.6-5.9 5.9-5.9 3.2 0 5.9 2.6 5.9 5.9-.1 3.2-2.7 5.9-5.9 5.9zm0-10.3c-2.4 0-4.4 2-4.4 4.4 0 2.4 2 4.4 4.4 4.4 2.4 0 4.4-2 4.4-4.4-.1-2.4-2-4.4-4.4-4.4z"/></g></g></svg>