<?xml version="1.0" standalone="no"?>
<!DOCTYPE svg PUBLIC "-//W3C//DTD SVG 1.1//EN" "http://www.w3.org/Graphics/SVG/1.1/DTD/svg11.dtd">
<svg xmlns="http://www.w3.org/2000/svg">
<metadata>Generated by Fontastic.me</metadata>
<defs>
<font id="obdx" horiz-adv-x="512">
<font-face font-family="obdx" units-per-em="512" ascent="480" descent="-32"/>
<missing-glyph horiz-adv-x="512" />

<glyph glyph-name="account-access" unicode="&#57430;" d="M430 316l-32 0 0 42c0 76-60 134-135 134l-5 0c-76 0-135-58-135-134l0-42-40 0c-9 0-16-7-16-16l0-264c0-9 7-16 16-16l347 0c9 0 16 7 16 16l0 264c0 9-8 16-16 16z m-276 42c0 58 44 102 103 102l5 0c59 0 103-44 103-102l0-42-211 0z m260-306l-316 0 0 232 316 0z m-164 136c-8 0-16-7-16-16l0-72c0-9 8-16 16-16 9 0 16 7 16 16l0 72c0 9-7 16-16 16z"/>
<glyph glyph-name="account-holder" unicode="&#57431;" d="M395 278c-29 0-53-29-53-66 0-37 24-66 53-66 29 0 53 29 53 66 0 37-24 66-53 66z m0-18c10 0 19-6 25-14-10 0-13 4-13 4-1 4-5 7-9 6-4 0-8-4-8-8-1-10-4-14-10-17-6-4-13-3-18-3 5 19 19 32 33 32z m0-96c-18 0-33 21-34 46 12-1 21 0 29 6 6 4 11 10 14 16 6-4 14-5 24-4 2-5 2-10 2-16 0-26-16-48-35-48z m111-75l-16 42c-1 3-4 5-6 6l-47 13c-3 0-5 0-7-1l-35-19-36 20c-2 0-5 1-6 0l-47-14c-3-1-5-3-6-6l-15-42c-1-2-1-8 1-10 1-3 4-7 7-7l205 0c3 0 6 4 8 7 0 3 1 8 0 11z m-201-1l9 30 40 13 37-19c3-2 6-1 8 1l37 19 39-14 10-30z m-272 245l379 0 0-32 31 0 0 122c0 7-9 15-15 15l-411 0c-7 0-11-8-11-15l0-273c0-8 4-15 11-15l271 0 0 31-255 0z m0 73l379 0 0-42-379 0z m211-158l-171 0c-7 0-13-9-13-16 0-7 6-16 13-16l171 0c7 0 13 9 13 16 0 7-6 16-13 16z"/>
<glyph glyph-name="accounts" unicode="&#57432;" d="M208 191c26 0 50 14 68 39 7-4 19-8 30-8 50 0 91 52 91 116 0 62-40 111-92 111-22 0-48-14-67-34-10 4-20 7-30 7-50 0-91-52-91-116 0-63 41-115 91-115z m89 171c-7 16-16 29-28 40 12 10 25 16 36 16 34 0 61-35 61-80 0-46-28-85-60-85-3 0-6 1-10 1 14 41 14 77 1 108z m-149-56c0 46 28 85 61 85 33 0 61-38 61-85 0-46-29-84-62-84-33 0-60 38-60 84z m354-194l-28 78c-1 4-5 8-10 9l-84 24c-4 1-8 1-11-1l-67-34-20 6c-4 0-8 0-11-2l-63-34-65 35c-3 1-8 2-11 1l-86-25c-4-2-8-5-10-10l-26-75c-2-5-1-5 1-9 3-3 5-3 7-3 1 0 2 1 3 1 1 0 1 0 2 0l367 0c0 0 3 0 4 0 3 0 6 0 9 4 3 4 3 8 1 13l-2 8 86 0c6 0 10 0 13 4 2 3 3 5 1 10z m-456-16l16 46 72 21 66-36c5-2 10-2 14 0l66 35 34-10 38-14 4-8 13-34z m320 74l-21 5 33 17 70-22 18-51-74 0-8 19-7 20c-2 6-6 10-11 12z"/>
<glyph glyph-name="add" unicode="&#57433;" d="M256 504c-137 0-248-111-248-248 0-137 111-248 248-248 137 0 248 111 248 248 0 137-111 248-248 248z m0-464c-119 0-216 97-216 216 0 119 97 216 216 216 119 0 216-97 216-216 0-119-97-216-216-216z m133 232l-118 0 1 118c0 4-1 8-2 11l-2 2c-3 3-7 5-12 5-4 0-8-2-11-6-3-3-5-7-5-12l0-117-118 0c-4 0-8-2-11-5-3-3-5-8-5-12 0-8 8-17 17-17l117 0 0-116c0-9 7-16 16-16 5 0 10 3 11 5 3 3 5 8 5 11l0 117 117 0c5 0 8 2 11 6 2 2 5 6 5 11 0 8-7 15-16 15z"/>
<glyph glyph-name="add-occupation" unicode="&#61456;" d="M259 137l-198 0 0 142 26 0 0-17c0-8 7-9 14-9l59 0c7 0 16 2 16 9l0 17 134 0 0-17c0-8 6-9 12-9l60 0c7 0 16 2 16 9l0 17 18 0 0-29 26 0 0 29 7 0c7 0 11 8 11 15l0 121c0 7-4 17-11 17l-122 0 0 22c0 19-13 36-33 36l-113 0c-19 0-31-17-31-36l0-22-122 0c-7 0-12-10-12-17l0-121c0-8 5-15 12-15l6 0 0-156c0-7 4-13 12-13l214 0z m-83 321c0 5-1 9 5 9l113 0c6 0 7-1 7-6l0-29-125 0z m-134-52l392 0 0-100-36 0 0 23c0 7-9 12-16 12l-60 0c-7 0-12-6-12-12l0-23-134 0 0 23c0 7-10 12-16 12l-59 0c-7 0-14-6-14-12l0-23-45 0z m294-87l35 0 0-45-35 0z m-186 0l0-45-36 0 0 45z m236-82c-62 0-112-51-112-112 0-62 50-112 112-112 61 0 112 50 112 112 0 61-51 112-112 112z m0-199c-48 0-88 39-88 87 0 48 40 87 88 87 48 0 87-39 87-87-1-48-39-87-87-87z m56 98l-46 0 0 46c0 2-1 5-2 7l-1 2c-4 4-11 5-15 0-3-2-4-5-4-8l0-46-46-1c-3 0-6-1-8-3-2-2-3-3-3-7 0-5 5-9 11-9l45 0 0-49c0-6 5-10 12-10 3 0 5 1 7 3 2 2 3 5 3 7l0 49 47 0c3 0 7 1 9 3 2 2 3 5 3 7 0 6-6 9-12 9z"/>
<glyph glyph-name="add-on-card" unicode="&#57434;" d="M382 256c-62 0-112-50-112-112 0-62 50-112 112-112 61 0 112 50 112 112 0 62-51 112-112 112z m0-199c-48 0-88 39-88 87 0 48 40 87 88 87 48 0 87-39 87-87-1-48-39-87-87-87z m-328 255l402 0 0-59 32-1 0 166c0 9-11 14-21 14l-429 0c-10 0-14-5-14-14l0-284c0-9 4-14 14-14l200 0 0 32-184 0z m0 88l402 0 0-56-402 0z m160-210c0-9-7-16-16-16-8 0-15 7-15 16 0 8 7 15 15 15 9 0 16-7 16-15z m-51 0c0-9-7-16-15-16-8 0-15 7-15 16 0 8 7 15 15 15 8 0 15-7 15-15z m-50 0c0-9-7-16-15-16-9 0-16 7-16 16 0 8 7 15 16 15 8 0 15-7 15-15z m325-35l-46 0 0 46c0 2-1 5-2 7l-1 2c-4 4-11 5-15 0-3-2-4-4-4-8l0-46-46 0c-3 0-6-1-8-3-2-2-3-3-3-7 0-5 5-9 11-9l45 0 0-49c0-6 5-10 12-10 3 0 5 1 7 3 2 2 3 5 3 7l0 48 47 0c3 0 7 1 9 3 2 3 3 5 3 7 0 6-6 9-12 9z"/>
<glyph glyph-name="alert" unicode="&#57435;" d="M495 97l-228 369c-2 5-9 8-14 8-6 0-11-3-14-8l-229-369c-3-5-3-7 0-12 4-6 9-5 14-5l458 0c4 0 10-1 13 5 3 5 3 7 0 12z m-41 15l-402 0 201 318z m-202 87c12 0 12 11 12 18l0 128c0 6 0 17-12 17-12 0-12-11-12-17l0-127c0-7 0-19 12-19z m22-47c0-12-9-22-21-22-12 0-22 10-22 22 0 12 10 22 22 22 12 0 21-10 21-22z"/>
<glyph glyph-name="apply" unicode="&#57436;" d="M256 504c-137 0-248-111-248-248 0-137 111-248 248-248 137 0 248 111 248 248 0 137-111 248-248 248z m0-464c-119 0-216 97-216 216 0 119 97 216 216 216 119 0 216-97 216-216 0-119-97-216-216-216z m113 305l-133-132-81 73c-6 5-17 5-22-2-6-6-6-17 1-22l92-83c3-2 6-4 10-4l2 0c4 0 8 2 11 5l142 142c7 6 7 16 0 22-6 7-16 7-22 1z"/>
<glyph glyph-name="approvals" unicode="&#57437;" d="M256 504c-137 0-248-111-248-248 0-137 111-248 248-248 137 0 248 111 248 248 0 137-111 248-248 248z m0-464c-119 0-216 97-216 216 0 119 97 216 216 216 119 0 216-97 216-216 0-119-97-216-216-216z m113 305l-133-132-81 73c-6 5-17 5-22-2-6-6-6-17 1-22l92-83c3-2 6-4 10-4l2 0c4 0 8 2 11 5l142 142c7 6 7 16 0 22-6 7-16 7-22 1z"/>
<glyph glyph-name="arrow" unicode="&#57438;" d="M483 145l-405 0c-7 0-12 5-12 12l0 46-47 35c-3 2-5 5-5 8 0 4 2 8 4 10l48 41 0 65c0 7 5 12 12 12l405 0c7 0 12-5 12-12l0-206c0-6-5-11-12-11z m-390 28l373 0 0 174-373 0 0-56c0-3-2-6-4-9l-40-34 39-29c3-2 5-5 5-9z"/>
<glyph glyph-name="arrow-down" unicode="&#57439;" d="M253 124c-4 0-8 2-11 5l-228 227c-6 6-6 16 0 22 7 7 16 7 23 0l215-215 220 220c6 7 16 7 22 0 7-6 7-16 0-22l-230-232c-3-3-7-5-11-5z"/>
<glyph glyph-name="arrow-left" unicode="&#57441;" d="M370 11c-4 0-8 2-11 5l-231 231c-3 3-5 7-5 11 0 4 2 8 5 12l227 226c7 6 16 6 23 0 6-6 6-16 0-22l-216-216 220-220c6-6 6-16 0-22-3-3-8-5-12-5z"/>
<glyph glyph-name="arrow-right" unicode="&#57442;" d="M144 11c-4 0-8 2-11 5-7 6-7 16 0 22l215 216-220 220c-6 6-6 16 0 22 6 6 16 6 22 0l232-231c6-7 6-16 0-23l-227-226c-3-3-7-5-11-5z"/>
<glyph glyph-name="arrow-up" unicode="&#57443;" d="M26 124c-4 0-8 2-12 5-6 6-6 16 0 22l232 231c3 4 7 5 11 5 4 0 8-1 11-5l227-227c7-6 7-16 0-22-6-7-16-7-22 0l-215 216-220-220c-4-3-8-5-12-5z"/>
<glyph glyph-name="assets" unicode="&#57444;" d="M64 252c0-9 7-15 16-15 9 0 16 7 16 15l0 47c0 9-1 13-9 13l-21 0 189 150 188-150-21 0c-9 0-7-4-7-13l0-47c0-9 7-15 16-15 9 0 16 7 16 15l0 28 39 0c7 0 13 6 15 12 2 6 0 14-5 18l-232 187c-6 5-14 5-19 0l-233-186c-5-4-7-13-5-19 3-6 8-12 15-12l42 0z m426-58l-80 22-72 74c-3 3-7 5-11 5l-151 0c-4 0-8-2-11-5l-102-99c-3-3-7-7-7-12l0-69c0-8 12-14 20-14l36 0c6-32 34-56 67-56 34 0 62 24 67 56l76 0c5-32 33-59 67-59 29 0 55 19 65 43l31 0c9 0 19 12 19 20l0 79c0 7-6 14-14 15z m-311-126c-21 0-39 18-39 39 0 22 18 39 39 39 22 0 39-17 39-39 0-21-17-39-39-39z m210 0c-22 0-39 18-39 39 0 22 17 39 39 39 21 0 39-17 39-39 1-21-18-39-39-39z m83 44l-15 0c-4 40-33 59-68 59-31 0-58-11-66-51l-78 0c-8 40-35 50-66 50-31 0-57-10-65-50l-26 0 0 53 94 91 138 0 70-72c1-2 5-4 8-5l74-19z"/>
<glyph glyph-name="attachment" unicode="&#57445;" d="M456 301l-229-214c-23-21-53-34-82-35-30-1-57 10-76 30-36 39-33 102 7 148l227 212c15 15 35 24 55 24 20 1 38-6 51-20 12-13 18-31 17-50-2-20-12-39-28-54l-220-206c-20-18-48-20-64-3-8 8-12 19-10 31 2 12 7 24 17 33l186 174-21 23-187-173c-16-15-25-35-27-55-2-21 5-40 18-55 14-14 32-22 52-22 16 0 32 5 47 14l1-1 229 216c22 20 35 46 38 74 2 29-7 55-25 75-38 41-106 40-150-2l-30-28-1 1-188-176c-3-3-6-6-9-9l-3-3c-50-58-53-140-5-190 24-26 59-40 96-40 39 0 77 15 108 44l228 214z"/>
<glyph glyph-name="auto-pay" unicode="&#57446;" d="M500 140l-60 58 0 226c0 8-12 16-20 16l-331 0c-8 0-17-9-17-16l0-226-57-59c-4-4-5-8-2-13 2-5 8-6 13-6l462 0c6 0 13 2 14 6 2 6 2 10-2 14z m-396 268l304 0 0-200-304 0z m197-260c-2 6-7 12-14 12l-70 0c-7 0-12-6-14-12l-139-2 30 30 320 0 32-30z"/>
<glyph glyph-name="back-arrow" unicode="&#57447;" d="M463 218l-372 0c39-39 79-79 119-118 8-8 8-20 0-28-8-8-20-8-28 0-52 52-103 104-155 155-5 6-5 15 0 21 52 52 103 104 155 155 8 7 20 7 28 0 7-7 7-19 0-27-40-39-80-79-119-118 0 0 0 0 0-1l372 0c11 0 19-9 19-19 1-11-8-20-19-20z"/>
<glyph glyph-name="bank-details" unicode="&#57448;" d="M500 335l-227 151c-4 3-9 3-13 0l-234-151c-4-3-6-9-4-13 1-6 6-10 11-10l23 0 0-36c0-6 8-12 14-12l10 0 0-168 2 0c-14 0-26-11-26-26l0-27c0-7 6-11 12-11l386 0c7 0 10 4 10 11l0 27c0 14-8 26-24 27l0 167 14 0c7 0 10 6 10 12l0 36 30 0c5 0 9 4 11 9 1 5-1 11-5 14z m-234 126l188-125-380 0z m-82-197l0-112-6 0c-7 0-10-6-10-13l0-43-8 0 0 168z m24 0l24 0 0-112-24 0z m-16-168l0 32 144 0 0-32z m128 56l-24 0 0 112 24 0z m-48 0l-16 0 0 112 16 0z m-168 112l32 0 0-168-32 0z m336-208l-360 0 0 14c0 2 1 2 2 2l93 0c1 0 2 0 3 0l169 0c1 0 2 0 3 0l90 0c2 0 0 0 0-2z m-24 40l-24 0 0 168 24 0z m-48 0l-8 0 0 43c0 7-6 13-13 13l-3 0 0 112 24 0z m72 192l-360 0 0 24 360 0z m-178 142c-23 0-41-19-41-42 0-23 18-42 41-42 24 0 42 19 42 42 0 23-18 42-42 42z m0-60c-9 0-17 8-17 18 0 10 8 18 17 18 10 0 18-8 18-18 0-10-8-18-18-18z"/>
<glyph glyph-name="block-debit-card" unicode="&#57449;" d="M382 256c-31 0-60-13-81-34-22-22-33-48-33-79 0-62 51-111 114-111 30 0 59 12 80 33 22 21 33 46 33 77 0 62-51 114-113 114z m0-200c-48 0-88 40-88 88 0 22 8 42 24 58l108-133c-14-8-29-13-44-13z m68 34l-107 131c12 6 25 11 39 11 48 0 86-42 86-90 0-20-6-37-18-52z m-396 222l402 0 0-59 32-1 0 166c0 9-11 14-21 14l-429 0c-10 0-14-5-14-14l0-284c0-9 4-14 14-14l200 0 0 32-184 0z m0 88l402 0 0-56-402 0z m160-210c0-9-7-16-16-16-8 0-15 7-15 16 0 8 7 15 15 15 9 0 16-7 16-15z m-51 0c0-9-7-16-15-16-8 0-15 7-15 16 0 8 7 15 15 15 8 0 15-7 15-15z m-50 0c0-9-7-16-15-16-9 0-16 7-16 16 0 8 7 15 16 15 8 0 15-7 15-15z"/>
<glyph glyph-name="branch-details" unicode="&#57466;" d="M488 56l-16 0 0 222c0 6-6 10-10 10l-31 0 0 37c0 2-1 3-5 3l-103 0c-2 0-4-1-4-3l0-37-33 0c-8 0-14-4-14-10l0-222-16 0 0 414c0 6-6 10-12 10l-176 0c-6 0-12-4-12-10l0-414-32 0c-6 0-12-6-12-12 0-6 6-12 12-12l464 0c6 0 12 6 12 12 0 6-6 12-12 12z m-256 0l-152 0 0 56 152 0z m0 80l-152 0 0 64 152 0z m0 88l-152 0 0 64 152 0z m0 88l-152 0 0 64 152 0z m0 88l-152 0 0 56 152 0z m216-344l-152 0 0 48 152 0z m0 72l-152 0 0 56 152 0z m0 80l-152 0 0 56 152 0z"/>
<glyph glyph-name="calendar" unicode="&#57467;" d="M478 472l-94 0 0 18c0 9-7 16-16 16-9 0-16-7-16-16l0-18-192 0 0 18c0 9-7 16-16 16-9 0-16-7-16-16l0-18-95 0c-9 0-9-2-9-11l0-435c0-10 1-10 9-10l445 0c8 0 10 2 10 10l0 435c0 9-1 11-10 11z m-22-424l-400 0 0 296 400 0z m0 328l-400 0 0 64 72 0 0-37c0-9 7-16 16-16 9 0 16 7 16 16l0 37 192 0 0-37c0-9 7-16 16-16 9 0 16 7 16 16l0 37 72 0z m-280-84c0 6-6 12-12 12l-56 0c-6 0-12-6-12-12l0-56c0-6 6-12 12-12l56 0c6 0 12 6 12 12z m-56-12l32 0 0-32-32 0z m56-116c0 6-6 12-12 12l-56 0c-6 0-12-6-12-12l0-56c0-6 6-12 12-12l56 0c6 0 12 6 12 12z m-56-12l32 0 0-32-32 0z m181 140c0 6-6 12-12 12l-56 0c-7 0-12-6-12-12l0-56c0-6 5-12 12-12l56 0c6 0 12 6 12 12z m-56-12l32 0 0-32-32 0z m56-116c0 6-6 12-12 12l-56 0c-7 0-12-6-12-12l0-56c0-6 5-12 12-12l56 0c6 0 12 6 12 12z m-56-12l32 0 0-32-32 0z m179 140c0 6-6 12-12 12l-56 0c-6 0-12-6-12-12l0-56c0-6 6-12 12-12l56 0c6 0 12 6 12 12z m-56-12l32 0 0-32-32 0z m56-116c0 6-6 12-12 12l-56 0c-6 0-12-6-12-12l0-56c0-6 6-12 12-12l56 0c6 0 12 6 12 12z m-56-12l32 0 0-32-32 0z"/>
<glyph glyph-name="cancel" unicode="&#57468;" d="M256 504c-137 0-248-111-248-248 0-137 111-248 248-248 137 0 248 111 248 248 0 137-111 248-248 248z m0-464c-119 0-216 97-216 216 0 119 97 216 216 216 119 0 216-97 216-216 0-119-97-216-216-216z m91 307c-6 7-16 7-22 0l-69-69-69 69c-6 7-16 7-22 0-7-6-7-16 0-22l69-69-69-69c-7-6-7-16 0-22 3-3 7-5 11-5 4 0 8 2 11 5l69 69 69-69c3-3 7-5 11-5 4 0 8 2 11 5 7 6 7 16 0 22l-69 69 69 69c7 6 7 16 0 22z"/>
<glyph glyph-name="cancel-card" unicode="&#57469;" d="M382 256c-31 0-60-13-81-34-22-22-33-48-33-79 0-62 51-111 114-111 30 0 59 12 80 33 22 21 33 46 33 77 0 62-51 114-113 114z m0-200c-48 0-88 40-88 88 0 22 8 42 24 58l108-133c-14-8-29-13-44-13z m68 34l-107 131c12 6 25 11 39 11 48 0 86-42 86-90 0-20-6-37-18-52z m-396 222l402 0 0-59 32-1 0 166c0 9-11 14-21 14l-429 0c-10 0-14-5-14-14l0-284c0-9 4-14 14-14l200 0 0 32-184 0z m0 88l402 0 0-56-402 0z m160-210c0-9-7-16-16-16-8 0-15 7-15 16 0 8 7 15 15 15 9 0 16-7 16-15z m-51 0c0-9-7-16-15-16-8 0-15 7-15 16 0 8 7 15 15 15 8 0 15-7 15-15z m-50 0c0-9-7-16-15-16-9 0-16 7-16 16 0 8 7 15 16 15 8 0 15-7 15-15z"/>
<glyph glyph-name="card-preference" unicode="&#57470;" d="M487 464l-385 0c-9 0-22-2-22-11l0-141-48 0c-8 0-16-6-16-14l0-249c0-9 8-17 16-17l378 0c8 0 14 8 14 17l0 135 63 0c9 0 9 7 9 15l0 254c0 9 0 11-9 11z m-87-408l-360 0 0 144 360 0z m0 176l-360 0 0 48 360 0z m72-16l-48 0 0 82c0 8-5 14-14 14l-306 0 0 48 368 0z m0 168l-368 0 0 48 368 0z m-263-292c0-9-7-16-16-16-9 0-16 7-16 16 0 9 7 16 16 16 9 0 16-7 16-16z m-53 0c0-9-7-16-16-16-9 0-16 7-16 16 0 9 7 16 16 16 9 0 16-7 16-16z m-54 0c0-9-7-16-16-16-8 0-16 7-16 16 0 9 8 16 16 16 9 0 16-7 16-16z"/>
<glyph glyph-name="cc-mastercard" unicode="&#57471;" d="M162 249l-2 0c-6 0-9-3-9-7 0-3 2-4 4-4 3 0 4 1 6 4 1 1 1 4 1 7z m77 7l12 0c0 1 0 1 0 2 0 0 0 0 0 1 0 1 0 1 0 2 0 1-1 1-1 1 0 0 0 1-1 1-1 0-2 0-3 0-4 0-6-2-7-7z m105-7l-2 0c-7 0-10-3-10-7 0-3 2-4 4-4 2 0 4 1 6 4 1 1 2 4 2 7z m62 5c0 5-1 8-5 8-3 0-5-2-7-4-1-3-2-6-2-10 0-6 2-8 6-8 2 0 4 2 6 4 2 2 2 6 2 10z m-280 28l16 0-8-52-12 0 7 40-14-40-7 0-1 40-6-40-11 0 9 52 16 0 0-32z m48-21c0-1 0-3 0-8-3-13-4-21-4-22l-8 0 0 4c-3-3-7-5-12-5-3 0-5 1-7 4-1 2-3 4-3 8 0 4 2 8 5 12 3 2 8 4 14 4 2 0 3 0 5 0 0 0 0 0 0 0 0 0 0 1 0 1 0 0 0 1 0 1 0 2-2 4-7 4-4 0-7-1-11-2 0 1 0 4 1 10 5 2 10 2 13 2 10-1 14-5 14-13z m31 11l-2-10c-3 0-5 1-8 1-3 0-5-1-5-3 0-1 0-2 0-2 1-1 2-2 4-3 5-2 8-6 8-12 0-9-5-13-16-13-5 0-8 0-12 0 0 0 1 4 2 10 4-1 7-2 10-2 4 0 6 2 6 4 0 1 0 2-1 3-1 1-1 1-4 2-5 3-8 7-8 11 0 10 6 15 16 15 4 0 7-1 10-1z m17 0l5 0-1-10-6 0c0-3-1-5-2-8 0-4 0-6-1-8 0-1-1-3-1-3 0-2 2-3 4-3 1 0 2 0 3 0l-1-9c-3-1-6-1-8-1-6 0-9 3-9 8 0 2 1 5 1 12 0 2 3 12 5 28l11 0z m40-14c0-4-1-7-2-11l-22 0c0-3 0-5 2-6 2-2 4-3 7-3 4 0 8 1 11 3l-1-11c-4 0-7-1-11-1-12 0-19 6-19 18 0 7 2 13 6 18 3 5 8 7 13 7 5 0 8-2 11-4 3-2 5-6 5-10z m27 14c-2-3-3-7-4-12-3 0-5-2-7-5 0-3-2-12-4-25l-12 0 1 3c3 17 5 29 6 38l9 0 0-6c1 2 3 5 4 5 3 2 4 3 7 2z m36 8l-2-11c-4 1-7 2-9 2-4 0-8-1-10-5-2-4-4-8-4-14 0-4 1-7 2-9 2-1 4-3 8-3 2 0 5 1 9 2l-1-11c-4-1-8-1-10-1-6 0-10 1-14 5-3 4-4 10-4 16 0 9 2 17 7 23 5 5 10 8 17 8 2 0 6 0 11-2z m31-19c0-3 0-5-1-8-1-11-2-18-3-22l-9 0 0 4c-2-3-6-5-11-5-3 0-6 1-7 4-2 2-3 4-3 8 0 4 2 8 5 12 3 2 8 4 15 4 1 0 3 0 4 0 0 0 0 1 0 2 0 2-2 4-7 4-4 0-7-1-11-2 0 1 1 4 2 10 4 2 9 2 12 2 10-1 14-5 14-13z m28 11c-2-3-3-7-4-12-3 0-5-2-6-5-1-3-3-12-5-25l-11 0 0 3c3 13 4 26 6 38l10 0c0-1 0-3 0-6 1 2 4 5 4 5 2 2 4 3 6 2z m27 10l11 0-8-52-10 0 1 4c-3-3-7-4-11-4-4 0-7 1-9 4-3 4-3 8-3 13 0 7 1 13 5 18 4 5 8 7 13 7 4 0 7-2 10-6z m22-26c0 19-5 37-15 53-9 16-22 29-38 38-16 10-34 15-53 15-23 0-45-8-64-22 17-15 27-34 34-55l-10 0c-5 19-16 36-30 49-15-14-25-30-31-49l-9 0c5 21 17 40 33 55-19 14-40 22-64 22-19 0-36-5-52-15-16-9-29-22-39-38-9-16-16-34-16-53 0-19 5-37 15-53 9-16 22-29 38-38 16-10 34-15 53-15 23 0 45 8 64 22-15 14-27 31-32 51l9 0c6-17 16-33 30-45 14 12 23 27 30 45l9 0c-5-20-17-37-32-51 19-14 40-22 64-22 19 0 37 5 53 15 16 9 29 22 38 38 10 16 15 34 15 53z m52 150c-5 5-14 10-28 10l-398 0c-11 0-22-2-29-10-9-9-14-17-14-28l0-248c0-15 9-21 13-25 9-10 21-9 30-9l399 0c8 0 18-1 28 9 8 8 11 13 11 25l0 248c-1 5-1 16-12 28z m-21-276c0-4 0-4-2-5 0-1 0 1 0 1 0 0-1 2-4 2l-399 0c-5 0-7-1-7-1-3 3-4 2-4 3l0 248c0 2 2 3 4 5 2 2 5 1 7 1l399 0c0 0 2 2 4-1 1-1 2 0 2-5z"/>
<glyph glyph-name="cc-visa" unicode="&#57456;" d="M485 406c-5 5-14 10-28 10l-398 0c-11 0-22-2-29-10-9-9-14-17-14-28l0-248c0-15 9-21 13-25 9-10 21-9 30-9l399 0c8 0 18-1 28 9 8 8 11 13 11 25l0 248c-1 5-1 16-12 28z m-21-276c0-4 0-4-2-5 0-1 0 1 0 1 0 0-1 2-4 2l-399 0c-5 0-7-1-7-1-3 3-4 2-4 3l0 248c0 2 2 3 4 5 2 2 5 1 7 1l399 0c0 0 2 2 4-1 1-1 2 0 2-5z m-64 190c-8 0-14 2-17-4l-49-116 32 0 9 16 40 0c1 0 4-8 6-16l29 0-26 120z m-15-72c1 0 5 13 13 30l0 0c1 2 1 3 2 4 1 3 2 4 2 5l2-7 7-32z m-214 64l-30-82-3 18c0 0 0 1 0 1l-12 54c-1 7-6 9-14 9l-50 0 0-2c36-9 61-28 73-57-3 6-8 13-13 19-8 7-16 17-25 20l25-92 33 0 50 112z m47 0l-20-120 32 0 19 120z m94-46c-6 3-10 5-14 8-2 2-4 4-4 7 0 2 2 5 5 7 3 2 7 3 14 3 9 0 17-1 23-5l3-1 4 26c-9 3-18 5-28 5-15 0-28-4-37-11-10-7-16-17-16-29 0-13 9-24 28-33 6-3 10-5 12-8 3-2 4-5 4-7 0-4-2-6-6-9-4-2-8-3-13-3-11 0-21 2-29 6l-4 3-4-27c9-4 20-7 35-7 16 0 29 3 39 11 10 8 15 18 15 31-1 13-9 24-27 33z"/>
<glyph glyph-name="change" unicode="&#57457;" d="M472 336c-9 0-16-7-16-16l0-264-400 0 0 400 232 0c9 0 16 7 16 16 0 9-7 16-16 16l-248 0c-9 0-16-7-16-16l0-432c0-9 7-16 16-16l432 0c9 0 16 7 16 16l0 280c0 9-7 16-16 16z m-279-72c-5-2-9-6-11-10l-24-76-4-4c-6-6-6-16 0-22 4-3 8-5 12-5 4 0 8 2 11 5l3 3 80 26c6 1 10 6 10 12 0 0 0 1 0 1l176 176 39 38c6 6 6 16 0 22l-52 52c-7 7-16 7-23 0l-38-38-179-180c0 1 0 0 0 0z m229 184l29-30-16-16-29 30z m-39-38l30-30-157-156-30 30z m-178-190l19-18-28-8z"/>
<glyph glyph-name="check" unicode="&#57458;" d="M28 282c0-7 3-13 8-17l162-147c5-4 11-6 16-6l4 0c6 0 12 2 17 7l254 251c5 5 7 11 7 18 0 6-2 14-7 19-4 5-11 9-17 9-6 0-13-4-18-9l0-1-238-236-147 132c-5 4-11 6-16 6-1 0-1 0-2 0-6 0-13-3-17-8-4-6-7-12-6-18z"/>
<glyph glyph-name="check-box" unicode="&#57459;" d="M472 488c0 0-1 0 0 0-1 0-2 0-2 0l-430 0c-9 0-16-7-16-16l0-432c0-9 7-16 16-16l432 0c9 0 16 7 16 16l0 432c0 9-7 16-16 16z m-16-432l-400 0 0 400 400 0z m-239 107c3-3 8-3 13-3l2 0c5 0 10 1 14 4l174 172c8 7 8 19 0 27-7 8-20 7-28 0l-162-161-99 89c-8 7-20 7-27-1-7-8-6-20 2-28z"/>
<glyph glyph-name="cheque-status-enquiry" unicode="&#57460;" d="M256 475c-121 0-219-98-219-219 0-121 98-219 219-219 121 0 219 98 219 219 0 121-98 219-219 219z m0-403c-102 0-184 82-184 184 0 102 82 184 184 184 102 0 184-82 184-184 0-102-82-184-184-184z m40 154c3 6 3 12 3 19 0 17-11 33-27 41l0 107c0 9-6 17-16 17-10 0-16-8-16-17l0-107c-16-8-28-24-28-41 0-25 19-44 44-44 5 0 10 1 14 2l54-54c3-3 8-5 12-5 5 0 9 2 12 5 3 3 5 8 5 12 0 5-2 9-5 12z m-40 9c-6 0-10 4-10 10 0 5 4 9 10 9 6 0 10-4 10-9 0-6-4-10-10-10z"/>
<glyph glyph-name="claim-money" unicode="&#57461;" d="M380 23l68 61 0 384c0 9-5 13-10 17-5 4-12 3-18 3l-350 0c-12 0-22 2-22-14l0-438c0-5 0-8 2-10 4-4 8-4 14-4 1 0 2 0 2 0l314 1m38 74l-42-38 0 39z m-338-41l0 400 336 0 0-336-46 0c-16 0-26-6-26-18l0-46z m75 304l186 0c11 0 21 8 21 20 0 12-10 20-21 20l-186 0c-11 0-21-8-21-20 0-12 10-20 21-20z m0-80l186 0c11 0 21 8 21 20 0 12-10 20-21 20l-186 0c-11 0-21-8-21-20 0-12 10-20 21-20z m207-60c0 12-10 20-21 20l-186 0c-11 0-21-8-21-20 0-12 10-20 21-20l186 0c11 0 21 8 21 20z m-114-60l-93 0c-12 0-21-6-21-16 0-10 9-16 21-16l93 0c12 0 21 6 21 16 0 10-9 16-21 16z"/>
<glyph glyph-name="close" unicode="&#57462;" d="M287 256l175 175c4 4 7 10 7 16 0 6-3 11-7 16-8 8-23 8-31 0l-175-176-175 177c-4 4-10 8-16 8-6 0-11-4-16-8-3-4-6-10-6-17 0-5 3-12 7-16l175-175-175-175c-4-4-7-10-7-16 0-6 3-11 7-16 8-8 23-8 31 0l175 176 175-175c8-8 23-8 31 0 4 4 7 9 7 16 0 5-3 11-7 16z"/>
<glyph glyph-name="comments" unicode="&#57463;" d="M167 257c0-21-17-38-37-38-21 0-38 17-38 38 0 21 17 37 38 37 20 0 37-16 37-37z m120 0c0-21-17-38-37-38-21 0-38 17-38 38 0 21 17 37 38 37 20 0 37-16 37-37z m120 0c0-21-17-38-37-38-21 0-38 17-38 38 0 21 17 37 38 37 20 0 37-16 37-37z m-154 247c-137 0-248-111-248-248 0-137 111-248 248-248 137 0 248 111 248 248 0 137-111 248-248 248z m0-464c-119 0-216 97-216 216 0 119 97 216 216 216 119 0 216-97 216-216 0-119-97-216-216-216z"/>
<glyph glyph-name="compress" unicode="&#57464;" d="M246 251c-48-2-97-5-146-7-7 0-13-6-12-14 0-7 6-12 14-12 36 1 74 4 112 5l-168-185c-5-6-5-14 0-19 6-5 14-5 19 1l167 186c0 0 0 0 1 0 1-38 4-76 5-112 0-8 7-13 14-12 7 0 13 6 12 13-2 49-5 98-8 147 0 5-4 9-10 9z m222 237c-6 5-14 5-18-1l-168-185c0 0 0 0 0 0-2 37-4 75-6 112 0 7-6 12-14 12-7 0-12-7-12-14 3-49 5-98 8-147 0-6 5-10 11-10 49 3 97 5 146 7 7 0 13 7 12 14 0 7-6 13-13 13-37-2-75-4-112-6l167 186c5 5 5 13-1 19z"/>
<glyph glyph-name="confirm" unicode="&#57465;" d="M256 504c-137 0-248-111-248-248 0-137 111-248 248-248 137 0 248 111 248 248 0 137-111 248-248 248z m0-464c-119 0-216 97-216 216 0 119 97 216 216 216 119 0 216-97 216-216 0-119-97-216-216-216z m113 305l-133-132-81 73c-6 5-17 5-22-2-6-6-6-17 1-22l92-83c3-2 6-4 10-4l2 0c4 0 8 2 11 5l142 142c7 6 7 16 0 22-6 7-16 7-22 1z"/>
<glyph glyph-name="contact-info" unicode="&#57482;" d="M484 391c7 0 12 7 12 14l0 45c0 8-3 14-10 14l-46 0 0 21c0 8-2 11-10 11l-367 0c-7 0-23-3-23-11l0-69-10 0c-8 0-14-5-14-12 0-7 6-12 14-12l10 0 0-64-10 0c-8 0-14-5-14-12 0-7 6-12 14-12l10 0 0-64-10 0c-8 0-14-5-14-12 0-7 6-12 14-12l10 0 0-88-10 0c-8 0-14-5-14-12 0-7 6-12 14-12l10 0 0-80c0-7 16-8 23-8l367 0c8 0 10 1 10 8l0 160 46 0c7 0 10 1 10 8l0 166c0 8-3 18-10 18l-46 0 0 48 32 0 0-19c0-7 5-14 12-14z m-76 51l0-402-328 0 0 64 282 0c7 0 13 5 13 12 0 7-6 12-13 12l-282 0 0 88 17 0c7 0 13 5 13 12 0 7-6 12-13 12l-17 0 0 64 17 0c7 0 13 5 13 12 0 7-6 12-13 12l-17 0 0 64 17 0c7 0 13 5 13 12 0 7-6 12-13 12l-17 0 0 56 328 0z m64-234l-32 0 0 24 32 0z m0 48l-32 0 0 40 32 0z m0 88l0-24-32 0 0 24z m-154-174c4 0 9 0 14 0 6 1 11 3 18 5 6 3 12 6 17 10 1 0 1 1 1 1l5 4c7 8 11 17 11 27 0 10-4 20-11 26l-26 26c-14 14-38 14-53 0l-5-5c-10 6-21 13-32 24-12 12-19 23-25 33l6 5c14 15 14 39 0 54l-25 25c-7 7-17 11-27 11-10 0-19-4-26-11l-5-5c0 0-1-1-1-1-4-5-7-11-9-17-3-6-4-12-5-18-1-6-5-62 63-130 43-45 79-64 115-64z m-152 190c0 4 1 7 2 11 2 3 3 7 6 11l4 6c3 2 5 5 8 5 3 0 5-3 7-5l25-26c4-4 4-11 0-15l-13-13c-4-4-5-11-3-16l2-4c6-11 15-27 32-44 17-17 34-27 45-32 1-1 1-1 3-2 6-3 12-2 16 2l12 13c4 4 11 4 15 0l26-25c2-3 3-5 3-8 0-4-1-6-3-8l-5-4c-3-2-6-4-10-5-4-2-7-3-11-3-33-4-64 12-107 56-58 58-54 105-54 106z"/>
<glyph glyph-name="copy" unicode="&#57483;" d="M356 246c0 8-6 14-14 14l-197 0c-8 0-15-6-15-14 0-8 7-15 15-15l197 0c7 0 14 7 14 15z m0-66c0 8-6 14-14 14l-197 0c-8 0-15-6-15-14 0-8 7-14 15-14l197 0c7 0 14 6 14 14z m-22-66c0 8-7 15-15 15l-153 0c-8 0-14-7-14-15 0-8 6-14 14-14l153 0c8 0 15 6 15 14z m142 268l-118 120c-5 4-12 6-17 4-2-1-3-2-4-2l-206 0c-8 0-11-8-11-17l0-39-34 0c-8 0-14-10-14-18l0-400c0-8 6-14 14-14l320 0c8 0 18 6 18 14l0 18 44 0c9 0 20 4 20 13l0 306c0 7-6 12-12 15z m-116 67l67-66-67-1z m-208 23l184 0 0-60-34 31c-4 4-11 7-16 5-1-1-4 0-4 0l-130 0z m152-74l65-63-65 0z m-176-350l264 0-288 0 0 368 176 0 0-95c0-4-1-8 1-11 2-4 5-5 9-5l102 1 0-258m64 32l-32 0 0 241c0 6-6 12-11 13l-17 17 60 2z"/>
<glyph glyph-name="create" unicode="&#57484;" d="M256 504c-137 0-248-111-248-248 0-137 111-248 248-248 137 0 248 111 248 248 0 137-111 248-248 248z m0-464c-119 0-216 97-216 216 0 119 97 216 216 216 119 0 216-97 216-216 0-119-97-216-216-216z m133 232l-118 0 1 118c0 4-1 8-2 11l-2 2c-3 3-7 5-12 5-4 0-8-2-11-6-3-3-5-7-5-12l0-117-118 0c-4 0-8-2-11-5-3-3-5-8-5-12 0-8 8-17 17-17l117 0 0-116c0-9 7-16 16-16 5 0 10 3 11 5 3 3 5 8 5 11l0 117 117 0c5 0 8 2 11 6 2 2 5 6 5 11 0 8-7 15-16 15z"/>
<glyph glyph-name="cross" unicode="&#57485;" d="M287 256l175 175c4 4 7 10 7 16 0 6-3 11-7 16-8 8-23 8-31 0l-175-176-175 177c-4 4-10 8-16 8-6 0-11-4-16-8-3-4-6-10-6-17 0-5 3-12 7-16l175-175-175-175c-4-4-7-10-7-16 0-6 3-11 7-16 8-8 23-8 31 0l175 176 175-175c8-8 23-8 31 0 4 4 7 9 7 16 0 5-3 11-7 16z"/>
<glyph glyph-name="current-assets" unicode="&#57486;" d="M391 248c-63 0-115-51-115-115 0-63 51-115 115-115 64 0 115 51 115 115 0 63-52 115-115 115z m0-207c-50 0-92 41-92 92 0 50 41 92 92 92 51 0 92-41 92-92 0-51-41-92-92-92z m19 84c2 5 0 9-1 13-2 4-9 7-9 8l0 45c0 7-6 12-12 12-6 0-12-5-12-12l0-45c-8-4-8-14-8-20 0-11 10-17 22-17 0 0 1 0 1 0l23-23c3-2 6-3 8-3 4 0 7 2 9 3 3 3 4 6 3 9 0 3-1 7-3 8z m-19-4c-5 0-8 4-8 8 0 4 4 8 8 8 5 0 8-4 8-8 0-4-4-8-8-8z m-335 142c0-7 5-13 12-13 7 0 12 6 12 13l0 39c0 7-1 10-8 10l-17 0 155 124 155-124-18 0c-7 0-11-3-11-10l0-39c0-7 5-13 12-13 7 0 12 6 12 13l0 25 42 0c5 0 10 4 12 9 1 5 0 11-4 14l-192 154c-4 4-11 4-16 0l-192-153c-4-3-5-10-4-14 2-6 7-10 12-10l38 0z m92-62c-26 0-47-17-54-41l-14 0 0 38 70 74 114 0 32-33 22 16-40 43c-2 2-5 7-9 7l-123 0c-4 0-7-5-9-7l-83-84c-3-2-6-7-6-11l0-57c0-6 9-10 16-10l29 0c5-32 28-46 55-46 27 0 50 14 55 46l61 0 0 24-62 0c-7 24-28 41-54 41z m0-89c-18 0-33 14-33 33 0 17 15 33 33 33 18 0 33-15 33-33 0-19-15-33-33-33z"/>
<glyph glyph-name="current-liabilities" unicode="&#57487;" d="M282 302c11-16 31-24 57-24 1 0 1 0 2 0 16 0 39 8 53 26 9 10 18 28 12 54-7 28-42 91-54 112l14 4c6 3 10 10 8 16-3 7-10 11-16 8l-117-39c-7 9-18 15-31 15-20 0-38-16-38-38l-138-47c-6-3-10-10-8-16 2-6 7-9 12-9 2 0 3 0 4 1l15 5c-13-25-31-60-37-80-5-16-10-46 7-68 11-16 31-24 58-25 1 0 1 0 1 0 16 0 40 9 54 26 9 11 18 28 11 54-6 26-37 83-51 107l80 28c4-6 15-10 15-12l0-274c0-4-4-12-5-12l-111 0c-3 0-7 0-9-3l-21-32c-2-2-2-7 0-10 1-3 5-6 8-6l209 0 0 16-192 0 12 19 170 0 0 16-18 0c-3 0-12 11-12 16l0 270c10 6 24 19 24 35l66 23c-13-24-34-65-40-88-6-15-11-45 6-68z m-162-61c-10-12-26-20-34-20-19 1-32 8-38 17-3 4-5 10-6 18l85 0c-1-8-4-11-7-15z m4 47l-80 0c0 0 1 0 1 1 5 19 25 56 37 80 15-26 35-73 42-81z m87 135c-7 0-13 6-13 13 0 7 6 13 13 13 7 0 13-6 13-13 0-7-6-13-13-13z m87-60c6 19 25 59 38 83 14-26 34-70 42-86l-80 0c0 0 0 2 0 3z m83-27c-1-8-3-10-7-14-9-12-26-20-34-20-18 1-31 8-38 16-4 5-5 10-6 18z m7-93c-62 0-113-50-113-113 0-62 51-112 113-112 62 0 113 50 113 112 0 63-51 113-113 113z m0-202c-50 0-90 40-90 89 0 50 40 90 90 90 50 0 90-40 90-90 0-49-40-89-90-89z m18 81c2 4 2 9 1 12-1 5-7 8-7 10l0 44c0 6-6 12-12 12-6 0-12-6-12-12l0-45c-8-4-9-13-9-19 0-11 10-17 21-17 1 0 1 0 1 0l22-22c3-3 5-3 8-3 3 0 7 1 8 3 3 2 3 5 3 9 0 3-1 5-3 8z m-18-3c-5 0-8 4-8 8 0 5 4 8 8 8 5 0 8-4 8-8 0-4-4-8-8-8z"/>
<glyph glyph-name="dashboard" unicode="&#57472;" d="M48 208l56 0 0-168-56 0z m120 96l56 0 0-264-56 0z m120-32l56 0 0-232-56 0z m112 88l56 0 0-320-56 0z m-209 34l107-58c7-4 15-3 21 2l127 99c9 7 11 19 4 28-7 9-20 10-28 3l-117-91-109 59c-8 5-18 2-25-4l-136-154c-7-8-6-20 2-28 4-3 9-4 13-4 6 0 12 2 16 6z"/>
<glyph glyph-name="debit-card" unicode="&#57473;" d="M477 456l-365 0c-8 0-16-4-16-12l0-132-50 0c-8 0-14-7-14-15l0-236c0-8 6-14 14-14l359 0c8 0 11 6 11 14l0 131 61 0c8 0 11 4 11 12l0 240c0 8-3 12-11 12z m-85-384l-336 0 0 136 336 0z m0 160l-336 0 0 48 336 0z m72-16l-48 0 0 81c0 8-4 15-11 15l-285 0 0 40 344 0z m0 160l-344 0 0 48 344 0z m-250-274c0-8-7-15-16-15-8 0-15 7-15 15 0 9 7 16 15 16 9 0 16-7 16-16z m-51 0c0-8-7-15-15-15-8 0-15 7-15 15 0 9 7 16 15 16 8 0 15-7 15-16z m-50 0c0-8-7-15-15-15-9 0-16 7-16 15 0 9 7 16 16 16 8 0 15-7 15-16z"/>
<glyph glyph-name="delete" unicode="&#57474;" d="M454 440l-126 0 0 42c0 7-5 14-19 14l-102 0c-13 0-23-6-23-14l0-42-126 0c-10 0-19-9-19-20 0-11 9-20 19-20l30 0 0-363c0-15 18-21 24-21l280 0c8 0 24 7 24 21l0 363 38 0c10 0 19 9 19 20 0 11-9 20-19 20z m-230-16l0 40 64 0 0-40z m156-24l0-344-252 0 0 344z m-176-316c11 0 20 9 20 19l0 249c0 10-9 19-20 19-11 0-20-8-20-19l0-248c0-11 9-20 20-20z m104 0c11 0 20 9 20 19l0 249c0 10-9 19-20 19-11 0-20-8-20-19l0-248c0-11 9-20 20-20z"/>
<glyph glyph-name="delivery-preferences" unicode="&#57475;" d="M504 260c0 0-1 1-1 1-1 54-43 99-97 99l-38 0 0 11c0 7-4 13-11 13l-208 0c-7 0-13-6-13-13l0-221c0-8 6-14 13-14l43 0c5-16 22-35 45-35 22 0 40 19 45 35l100 0c4-16 22-35 44-35 22 0 40 19 45 35l25 0c7 0 10 9 10 15l0 109z m-267-132c-11 0-21 10-21 21 0 11 10 21 21 21 11 0 21-10 21-21 0-11-10-21-21-21z m107 218l0-178-65 0c-6 16-23 30-42 30-19 0-36-14-43-30l-26 0 0 192 176 0z m24-10l38 0c37 0 67-32 73-64l-111 0z m58-208c-12 0-21 10-21 21 0 11 9 21 21 21 11 0 20-10 20-21 0-11-9-21-20-21z m54 40l-12 0c-6 16-23 30-42 30-20 0-36-14-43-30l-15 0 0 80 112 0z m-375 104l-80 0c-7 0-12-5-12-12 0-7 5-12 12-12l79 0c7 0 12 5 12 12 1 7-5 12-11 12z m0-48l-63 0c-7 0-12-5-12-12 0-7 6-12 12-12l62 0c7 0 12 5 12 12 0 7-5 12-11 12z m0-40l-45 0c-6 0-12-5-12-12 0-7 6-12 12-12l44 0c7 0 12 5 12 12 0 7-5 12-11 12z"/>
<glyph glyph-name="disbursement-detail" unicode="&#57476;" d="M436 480l-307 0c-19 0-33-13-33-32l0-16-21 0c-19 0-35-16-35-35l0-336c0-19 16-37 35-37l361 0c19 0 36 18 36 37l0 387c0 19-17 32-36 32z m-316-392l0 352c0 3 5 11 9 11l303 0c8 0 8-8 8-11l0-380c0-3 0-5-4-5l-361 0c-3 1-3 2-3 6l0 336c0 3 0 3 3 3l21 0 0-312z m152 304l-104 0 0-112 104 0z m-80-88l0 66 56 0 0-66z m-24-48l232 0 0-24-232 0z m136 64l96 0 0-24-96 0z m0 48l96 0 0-24-96 0z m-136-168l232 0 0-24-232 0z m0-56l232 0 0-24-232 0z"/>
<glyph glyph-name="download" unicode="&#57477;" d="M77 108c0-8 7-20 16-20l313 0c8 0 16 12 16 20 0 8-8 20-16 20l-313 0c-9 0-16-12-16-20z m-61 324l0-398c0-4 6-18 16-18l441 0c5 0 15 6 15 14l0 401c0 7-9 17-16 17l-146 0c-8 0-15-7-15-15 0-9 7-17 15-17l130 0 0-368-408 0 0 368 120 0c9 0 16 9 16 18 0 8-6 14-16 14l-139 0c0 0-13-2-13-16z m219-248c4-4 11-4 15 0 35 34 69 69 104 102 5 5 6 14 0 19-4 5-13 5-18 0-26-27-54-52-80-79l2 250c0 7-5 13-12 14-8 0-13-6-14-13l-2-250c0 0 0 0-1 0-27 27-52 54-79 80-4 5-12 5-18 0-5-5-5-13 0-18 35-35 69-70 103-105z"/>
<glyph glyph-name="drop-down" unicode="&#57478;" d="M256 504c-137 0-248-111-248-248 0-137 111-248 248-248 137 0 248 111 248 248 0 137-111 248-248 248z m0-464c-119 0-216 97-216 216 0 119 97 216 216 216 119 0 216-97 216-216 0-119-97-216-216-216z m96 266l-98-98-96 96c-6 6-16 6-22 0-6-6-6-16 0-22l107-108c3-3 7-4 11-4 4 0 8 1 12 4l108 109c7 7 7 16 0 23-6 6-16 6-22 0z"/>
<glyph glyph-name="drop-left" unicode="&#57479;" d="M256 504c-137 0-248-111-248-248 0-137 111-248 248-248 137 0 248 111 248 248 0 137-111 248-248 248z m0-464c-119 0-216 97-216 216 0 119 97 216 216 216 119 0 216-97 216-216 0-119-97-216-216-216z m-48 218l96 96c6 6 6 16 0 22-6 6-16 6-22 0l-108-106c-6-7-6-16 0-23l109-109c3-3 7-4 11-4 4 0 8 1 12 4 6 7 6 16 0 23z"/>
<glyph glyph-name="drop-right" unicode="&#57480;" d="M256 504c-137 0-248-111-248-248 0-137 111-248 248-248 137 0 248 111 248 248 0 137-111 248-248 248z m0-464c-119 0-216 97-216 216 0 119 97 216 216 216 119 0 216-97 216-216 0-119-97-216-216-216z m-27 334c-7 7-16 7-23 0-6-6-6-16 0-22l98-98-96-96c-6-6-6-16 0-22 3-3 7-5 11-5 4 0 8 2 11 5l108 107c3 3 4 7 4 11 0 4-1 8-4 12z"/>
<glyph glyph-name="drop-up" unicode="&#57481;" d="M256 504c-137 0-248-111-248-248 0-137 111-248 248-248 137 0 248 111 248 248 0 137-111 248-248 248z m0-464c-119 0-216 97-216 216 0 119 97 216 216 216 119 0 216-97 216-216 0-119-97-216-216-216z m14 298c-7 6-16 6-23 0l-109-109c-7-7-7-16 0-23 3-3 7-4 11-4 4 0 8 1 11 4l98 98 96-96c6-6 16-6 22 0 6 6 6 16 0 22z"/>
<glyph glyph-name="edit" unicode="&#57498;" d="M472 336c-9 0-16-7-16-16l0-264-400 0 0 400 232 0c9 0 16 7 16 16 0 9-7 16-16 16l-248 0c-9 0-16-7-16-16l0-432c0-9 7-16 16-16l432 0c9 0 16 7 16 16l0 280c0 9-7 16-16 16z m-279-72c-5-2-9-6-11-10l-24-76-4-4c-6-6-6-16 0-22 4-3 8-5 12-5 4 0 8 2 11 5l3 3 80 26c6 1 10 6 10 12 0 0 0 1 0 1l176 176 39 38c6 6 6 16 0 22l-52 52c-7 7-16 7-23 0l-38-38-179-180c0 1 0 0 0 0z m229 184l29-30-16-16-29 30z m-39-38l30-30-157-156-30 30z m-178-190l19-18-28-8z"/>
<glyph glyph-name="eligibility" unicode="&#57499;" d="M474 485c0 6-5 11-12 11l-420 0c-7 0-12-5-12-11l0-466c0-6 5-11 12-11l421 0c7 0 11 5 11 11l0 466z m-23-455l-398 0 0 444 399 0 0-444z m11-24l-420 0c-8 0-14 5-14 13l0 466c0 7 6 13 14 13l421 0c7 0 14-5 14-13l0-466c-1-7-7-13-15-13z m-420 488c-5 0-9-4-9-9l0-466c0-5 4-9 9-9l421 0c5 0 9 4 9 9l0 466c0 5-4 9-9 9z m412-466l-404 0 0 448 404 0 0-448z m-400 5l395 0 0 438-395 0z m376 408c0 6-5 11-12 11l-332 0c-7 0-12-5-12-11l0-111c0-7 5-12 12-12l332 0c7 0 12 5 12 12z m-333-11l310 0 0-89-310 0z m321-114l-332 0c-8 0-14 6-14 14l0 111c0 7 6 13 14 13l332 0c8 0 14-6 14-13l0-111c0-8-6-14-14-14z m-332 134c-5 0-9-4-9-9l0-111c0-5 4-9 9-9l332 0c5 0 9 4 9 9l0 111c0 5-4 9-9 9z m324-112l-316 0 0 94 316 0z m-311 5l306 0 0 84-306 0z m87-57c0 6-5 11-12 11l-88 0c-7 0-12-5-12-11l0-89c0-7 5-11 12-11l88 0c7 0 12 4 12 11z m-89-12l66 0 0-66-66 0z m77-91l-88 0c-8 0-14 6-14 14l0 89c0 7 6 13 14 13l88 0c8 0 14-5 14-13l0-89c0-8-6-14-14-14z m-88 111c-5 0-9-4-9-8l0-89c0-5 4-9 9-9l88 0c5 0 9 4 9 9l0 89c0 4-4 8-9 8z m80-88l-72 0 0 71 72 0z m-67 4l62 0 0 62-62 0z m219 76c0 6-4 11-11 11l-89 0c-6 0-11-5-11-11l0-89c0-7 5-11 11-11l89 0c7 0 11 4 11 11z m-22-78l-66 0 0 66 66 0z m11-25l-89 0c-7 0-13 6-13 14l0 89c0 7 5 13 13 13l89 0c7 0 14-5 14-13l0-89c0-8-6-14-14-14z m-89 111c-4 0-8-4-8-8l0-89c0-5 4-9 8-9l89 0c5 0 9 4 9 9l0 89c0 4-4 8-9 8z m80-88l-71 0 0 71 71 0z m-66 4l62 0 0 62-62 0z m-46-58c0 6-5 11-12 11l-88 0c-7 0-12-5-12-11l0-89c0-6 5-11 12-11l88 0c7 0 12 5 12 11z m-89-11l66 0 0-67-66 0z m77-91l-88 0c-8 0-14 6-14 13l0 89c0 7 6 14 14 14l88 0c8 0 14-6 14-14l0-89c0-7-6-13-14-13z m-88 111c-5 0-9-4-9-9l0-89c0-5 4-9 9-9l88 0c5 0 9 4 9 9l0 89c0 5-4 9-9 9z m80-89l-72 0 0 71 72 0z m-67 5l62 0 0 61-62 0z m219 75c0 6-4 11-11 11l-89 0c-6 0-11-5-11-11l0-89c0-6 5-11 11-11l89 0c7 0 11 5 11 11z m-22-78l-66 0 0 67 66 0z m11-24l-89 0c-7 0-13 6-13 14l0 88c0 7 5 14 13 14l89 0c7 0 14-6 14-14l0-89c0-7-6-13-14-13z m-89 111c-4 0-8-4-8-9l0-89c0-5 4-9 8-9l89 0c5 0 9 4 9 9l0 89c0 5-4 9-9 9z m80-89l-71 0 0 71 71 0z m-66 5l62 0 0 61-62 0z m184-28l-66 0c-7 0-12 5-12 11l0 227c0 7 5 11 12 11l66 0c6 0 11-4 11-11l0-227c1-6-5-11-11-11z m-55 22l44 0 0 205-44 0z"/>
<glyph glyph-name="employment" unicode="&#57500;" d="M488 404l-134 0 0 23c0 22-15 41-36 41l-116 0c-22 0-44-19-44-41l0-23-133 0c-7 0-13-11-13-18l0-152c0-7 6-16 13-16l6 0 0-170c0-7 4-14 12-14l424 0c7 0 14 7 14 14l0 170 7 0c7 0 12 8 12 16l0 152c0 7-5 18-12 18z m-300 23c0 7 8 15 14 15l116 0c6 0 6-9 6-15l0-23-136 0z m-146-53l429 0 0-127-39 0 0 26c0 7-10 13-18 13l-65 0c-7 0-15-5-15-13l0-26-146 0 0 26c0 7-10 13-18 13l-64 0c-8 0-15-5-15-13l0-26-49 0z m321-112l39 0 0-48-39 0z m-205 0l0-48-39 0 0 48z m293-200l-390 0 0 156 29 0 0-19c0-7 8-9 15-9l65 0c7 0 17 2 17 9l0 19 147 0 0-19c0-7 6-9 14-9l65 0c7 0 18 2 18 9l0 19 19 0 0-156z"/>
<glyph glyph-name="exchange" unicode="&#57501;" d="M75 372l315 0c-34 34-68 66-100 100-7 6-7 17 0 23 6 7 16 7 23 0 44-43 87-87 131-131 5-5 5-13 0-18-44-43-88-87-131-131-7-6-17-6-23 0-7 7-7 17 0 23 33 34 66 67 100 100 0 0 0 0 0 1l-315 0c-9 0-17 7-17 17 0 9 8 16 17 16z m356-225l-314 0c33-33 66-66 100-100 6-6 6-17 0-23-7-6-17-6-23 0-44 43-88 87-131 130-5 5-5 13 0 18 44 44 87 87 131 131 7 7 17 7 24 0 6-6 6-17 0-23-34-34-67-66-100-100 0 0 0 0 0-1l314 0c9 0 17-7 17-17-2-8-9-15-18-15z"/>
<glyph glyph-name="expand" unicode="&#57502;" d="M457 482c0 5-5 9-11 9-48-2-97-5-146-7-7 0-13-6-12-14 0-7 6-12 14-12 36 1 74 4 112 5l-168-185c-5-6-5-14 0-19 6-5 14-5 19 1l167 186c0 0 0 0 1 0 1-38 4-76 5-112 0-8 7-13 14-12 7 0 13 6 12 13-2 48-5 98-7 147z m-237-235l-167-185c0 0 0 0-1 0-2 37-4 75-6 112 0 7-6 12-13 12-7 0-13-7-12-14 2-49 5-98 8-147 0-6 5-10 10-10 49 3 98 5 147 7 7 0 12 7 12 14 0 7-7 13-14 13-37-2-74-4-112-6l167 185c5 6 5 14-1 18-5 7-13 6-18 1z"/>
<glyph glyph-name="expense" unicode="&#57503;" d="M460 328l-38 0 13 10c6 3 7 11 4 16l-61 98c-3 6-10 7-16 4l-38-21-55 55c-5 4-12 4-16-1l-183-161-21 0c-7 0-9-3-9-10l0-288c0-6 2-14 9-14l411 0c6 0 12 8 12 14l0 288c0 7-6 10-12 10z m-96 101l49-78-33-21c-1 0-1-2-2-2l-198 0z m-104 35l42-42-172-94-24 0z m-196-424l0 264 384 0 0-72-151 0c-7 0-9-6-9-13l0-89c0-6 2-10 9-10l151 0 0-80c0 0-384 0-384 0z m384 104l-136 0 0 64 136 0z m-80 31c0-11-9-20-20-20-11 0-20 9-20 20 0 11 9 20 20 20 11 0 20-9 20-20z"/>
<glyph glyph-name="eye" unicode="&#57488;" d="M498 275c-11 18-24 35-40 51-16 17-33 32-51 44-35 30-102 43-102 43-17 3-33 5-49 5-50 0-95-13-137-39-41-25-77-60-105-104-4-5-5-12-5-19 0-7 1-14 5-19 16-26 36-49 58-69 22-20 46-36 71-48 0 0 67-30 113-26 41 0 79 9 116 27 36 17 68 42 96 74 13 15 23 29 30 41 4 6 6 13 6 19-1 7-3 14-6 20z m-301 77c17 17 36 25 59 25 4 0 7-2 10-4 2-3 4-6 4-10 0-4-2-7-4-9-3-3-6-4-10-4-16 0-30-6-41-17-11-11-17-25-17-41 0-4-1-7-4-10-2-2-5-4-9-4-4 0-7 2-9 4-2 3-4 6-4 10 0 23 9 43 25 60z m188-182c-33-22-70-35-108-38-76-8-116 20-116 20-47 22-87 56-117 104 28 44 63 77 105 99-11-19-17-41-17-63 0-20 5-39 14-57 8-17 20-32 36-44 0 0 60-36 118-17 24 10 43 25 58 47 14 21 21 45 21 71 0 7 0 15-2 23-3 11-18 43-18 43 40-21 87-69 108-102-21-35-49-64-82-86z"/>
<glyph glyph-name="eye-slash" unicode="&#57489;" d="M358 220c15 22 22 46 22 71 0 7-1 15-2 24l-78-141c24 9 43 24 58 46z m140 54c-10 18-24 36-40 52-16 17-32 32-50 44l-18-32c32-21 57-48 79-82-23-35-51-64-83-86-34-23-70-36-109-39l-21-37c41 0 80 8 116 26 37 18 69 43 96 75 13 15 23 29 30 41 4 6 6 13 6 19 0 7-2 13-6 19z m-155 168c-9 5-21 2-25-7l-12-22c-17 3-34 5-50 5-50 0-95-13-138-39-41-25-76-60-104-104-4-6-6-13-6-20 0-7 2-13 6-19 16-26 35-49 57-69 22-20 46-36 71-48l-9-17c-5-8-2-20 7-25 3-2 6-3 9-3 6 0 13 4 17 10l184 332c5 10 2 22-7 26z m-146-90c17 17 36 25 59 25 4 0 7-2 10-4 2-3 4-6 4-10 0-4-2-7-4-9-3-3-6-4-10-4-16 0-30-6-41-17-11-11-17-26-17-42 0-4-1-7-4-9-2-3-5-4-9-4-4 0-7 1-10 4-2 2-4 5-4 9 1 23 9 44 26 61z m-37-202c-47 22-86 57-117 105 28 44 63 78 106 99-11-19-17-40-17-63 0-20 5-39 14-57 8-17 20-32 36-44z"/>
<glyph glyph-name="facebook" unicode="&#57490;" d="M283 365c0 0 3 2 17 2l36 0c7 0 15 8 15 15l0 61c0 7-5 12-12 13-13 2-31 3-54 3-30 0-56-9-75-27-18-18-29-43-29-75l0-35-43 0c-7 0-10-8-10-15l0-67c0-7 3-16 10-16l43 0 0-157c0-7 9-13 16-13l69 0c8 0 13 6 13 13l0 156 46 0c6 0 12 7 13 13l8 68c1 4 0 9-3 11-2 3-6 6-9 6l-55 0 0 29c0 10 3 13 4 15z m-17-70l52 0-5-45-47 0c-7 0-13-4-13-11l0-160-46 0 0 160c0 7-3 11-10 11l-43 0 0 45 43 0c7 0 10 4 10 11l0 50c0 25 8 43 22 57 13 13 33 20 56 20 15 0 28-1 41-2l0-37-25 0c-18 0-30-4-37-12-6-8-10-18-10-32l0-44c-1-6 5-11 12-11z"/>
<glyph glyph-name="fees-charges" unicode="&#57491;" d="M230 226l0 17c0-1 7-2 10-4 1-1 1-1 2-1 2 0 4 3 4 5 0 3 0 3 0 4-4 3-12 4-12 5l0 2c0 2-2 4-4 4-3 0-4-2-4-4l0-2c-16-1-20-8-20-18 0-9 2-13 18-16l0-18c-8 1-8 3-12 6-1 0-3 0-4 0-2 0-6-2-6-4 0-2 3-4 4-4 6-4 12-7 20-7l0-5c0-3 1-4 4-4 2 0 4 1 4 4l0 5c8 1 16 7 16 17-2 9-12 15-20 18z m-8 2c-7 2-8 5-8 8 0 4 2 6 8 7z m8-28l0 16c7-2 8-5 8-8 0-5-2-7-8-8z m178 122c0 8-6 14-14 14l-364 0c-8 0-14-6-14-14l0-212c0-8 6-14 14-14l364 0c8 0 14 6 14 14z m-330-18c-1-24-22-38-30-38l0 38z m-30-176l0 30c0 0-4 4-4 4 14 0 31-18 34-34z m328 0l-34 0c2 8 18 26 34 30z m0 57c-32-4-59-33-61-57l-209 0c-3 24-34 58-58 58l0 52c24 0 56 33 58 65l209 0c1-32 29-61 61-65z m0 81c-16 4-33 14-34 38l34 0z m67 118l-408 0c-7 0-13-9-13-16 0-7 6-16 13-16l397 0 0-238c0-8 5-14 12-14 7 0 12 6 12 14l0 255c0 7-6 15-13 15z m48 48l-408 0c-7 0-13-9-13-16 0-7 6-16 13-16l389 0 0-238c0-8 9-14 16-14 7 0 16 6 16 14l0 254c0 7-6 16-13 16z"/>
<glyph glyph-name="file-pdf" unicode="&#57492;" d="M436 370l-122 119c-5 5-12 5-18 2-2-1-2-3-3-3l-215 0c-9 0-14-5-14-14l0-440c0-8 5-18 14-18l352 0c8 0 18 10 18 18l0 320c0 8-6 13-12 16z m-116 69l70-69-70 0z m96-391l-320 0 0 408 192 0 0-102c0-4 1-9 3-12 3-4 6-6 11-6l114 3z m-165 237c6 33 9 61 2 80-1 3-5 3-9 3l-6 0c-5 0-9-2-11-10-2-8-3-19-1-33 0-14 4-27 8-43-7-22-16-45-28-69-10-20-20-38-29-52 0 0 0 1-1 1-2 2-4 3-6 1-16-8-27-17-36-25-8-9-13-18-15-24-1-5 0-8 2-10 1-1 1-1 1-2l7-3c2-1 5-1 7-1 16 0 38 23 64 69 30 11 65 18 104 23 11-6 22-11 34-15 12-3 20-5 28-5 11 0 19 4 21 11 3 5 4 9 1 13-6 9-21 13-47 13-11 0-21-1-31-1-9 5-17 10-23 15-13 14-25 35-36 64z m-114-172c2 5 6 12 13 20 6 8 14 15 23 22-15-25-27-38-36-42z m103 244c0 1 2 1 2 1 2-3 2-8 3-12 0-8-1-12-1-13-1-7-3-11-3-12-3 17-1 29-1 36z m-30-175c2 4 6 12 12 22 9 20 17 37 22 52 9-19 20-35 34-47 0-1 2-3 4-3 1-2 3-3 3-3-27-5-51-12-75-21z m172 4c0 0 0-1 0 0 0-1-2-1-4-1-9 0-20 2-33 7 20 0 32-2 37-6z"/>
<glyph glyph-name="file-text" unicode="&#57493;" d="M374 272c0 9-8 16-16 16l-216 0c-9 0-16-7-16-16 0-9 7-16 16-16l216 0c8 0 16 7 16 16z m0-72c0 9-8 16-16 16l-216 0c-9 0-16-7-16-16 0-9 7-16 16-16l216 0c8 0 16 7 16 16z m-24-72c0 9-8 16-16 16l-168 0c-9 0-16-7-16-16 0-9 7-16 16-16l168 0c8 0 16 7 16 16z m86 242l-122 119c-5 5-12 5-18 2-2-1-2-3-3-3l-215 0c-9 0-14-5-14-14l0-440c0-8 5-18 14-18l352 0c8 0 18 10 18 18l0 320c0 8-6 13-12 16z m-116 69l70-69-70 0z m-224 17l192 0 0-102c0-4 1-9 3-12 3-4 6-6 11-6l114 3 0-291-320 0z"/>
<glyph glyph-name="file-upload" unicode="&#57494;" d="M280 272c0 9-7 16-16 16l-160 0c-9 0-16-7-16-16 0-9 7-16 16-16l160 0c9 0 16 7 16 16z m-56-72c0 9-7 16-16 16l-104 0c-9 0-16-7-16-16 0-9 7-16 16-16l104 0c9 0 16 7 16 16z m-120-56c-9 0-16-7-16-16 0-9 7-16 16-16l88 0c9 0 16 7 16 16 0 9-7 16-16 16z m128-96l-176 0 0 408 192 0 0-104c0-4 2-8 5-11 3-3 7-5 11-5l112 1 0-33c0-9 7-16 16-16 9 0 16 7 16 16l0 48c0 7-5 13-10 15l-123 119c-5 5-11 6-17 4-1 0-2-1-3-2l-215 0c-9 0-16-7-16-16l0-440c0-9 7-16 16-16l192 0c9 0 16 7 16 16 0 9-7 16-16 16z m48 389l70-69-70 0z m102-181c-31 0-60-13-81-34-22-22-33-48-33-79 0-62 51-111 114-111 30 0 59 12 80 33 22 21 33 46 33 77 0 62-51 114-113 114z m61-172c-17-17-38-26-61-26-48 0-88 39-88 87 0 23 9 41 26 57 16 17 38 27 62 27 48 0 87-40 87-88-1-23-10-40-26-57z m-51 117c-5 5-12 5-17 0l-38-37c-5-5-5-12 0-17 2-2 5-4 9-4 3 0 4 1 6 3l17 16 0-68c0-7 5-12 12-12 6 0 11 6 11 12l0 70 16-17c5-5 14-5 18 0 4 5 5 12 0 17z"/>
<glyph glyph-name="filter" unicode="&#57495;" d="M223 8c-2 0-5 1-7 2-3 3-5 6-5 10l0 215-166 227c-3 4-3 8-1 12 2 4 6 7 10 7l404 0c5 0 9-3 11-7 2-4 1-8-1-12l-166-227 0-193c0-5-4-10-8-12l-67-21c-1-1-2-1-4-1z m-145 449l156-211c1-3 2-5 2-8l0-202 42 14 0 189c0 3 1 5 3 7l154 211z"/>
<glyph glyph-name="foreign-exchange" unicode="&#57496;" d="M341 334c-4 78-70 140-150 140-83 0-150-66-150-148 0-82 56-144 131-148 5-79 70-140 150-140 82 0 150 66 150 148 0 76-58 138-131 148z m-282-8c0 72 59 130 132 130 70 0 127-54 131-122 0 0 0 0 0 0-80 0-145-61-150-139-66 5-113 59-113 131z m263-271c-73 0-132 59-132 131 0 72 59 130 132 130 72 0 132-58 132-130 0-72-60-131-132-131z m0-21c-80 0-148 61-154 140-76 6-131 69-131 152 0 84 69 152 154 152 81 0 147-61 153-141 75-11 131-75 131-151 1-84-69-152-153-152z m-132 436c-80 0-146-64-146-144 0-80 54-140 127-144l3 0 0-4c5-76 69-136 146-136 81 0 146 65 146 145 0 73-55 135-128 143l-3 1 0 3c-2 76-66 136-145 136z m132-419c-76 0-136 60-136 135 0 74 60 134 136 134 75 0 136-60 136-134 0-74-61-135-136-135z m0 262c-71 0-128-57-128-127 0-69 57-126 128-126 70 0 128 57 128 126 0 70-58 127-128 127z m-146-122l-4 0c-69 5-117 60-117 135 0 74 61 134 136 134 71 0 131-55 135-126l0-4-4 0c-77 0-141-59-146-135z m14 262c-70 0-128-57-128-127 0-68 44-120 106-125 7 77 72 137 150 139-7 63-62 113-128 113z m230-36c5 0 9 4 9 9 0 4-4 8-9 8-5 0-9-4-9-8 0-5 4-9 9-9z m0-4c-7 0-13 5-13 13 0 7 6 12 13 12 7 0 13-5 13-12 0-8-6-13-13-13z m0 18c-3 0-5-2-5-5 0-2 3-4 5-4 3 0 5 2 5 4 0 3-2 5-5 5z m-37-14c5 0 9 4 9 9 0 4-4 8-9 8-5 0-9-4-9-8 0-5 4-9 9-9z m0-4c-7 0-13 5-13 13 0 7 6 12 13 12 7 0 13-5 13-12 0-8-5-13-13-13z m0 18c-3 0-5-2-5-5 0-2 3-4 5-4 3 0 5 2 5 4 0 3-2 5-5 5z m-36-14c5 0 9 4 9 9 0 4-4 8-9 8-5 0-9-4-9-8 0-5 4-9 9-9z m0-4c-7 0-13 5-13 13 0 7 5 12 13 12 7 0 13-5 13-12 0-8-6-13-13-13z m0 18c-3 0-5-2-5-5 0-2 2-4 5-4 3 0 5 2 5 4 0 3-2 5-5 5z m87-55c-5 0-9-4-9-9 0-5 4-9 9-9 4 0 8 4 8 9 0 4-4 9-8 9z m0-22c-8 0-13 5-13 12 0 8 6 13 13 13 7 0 12-5 12-13 0-7-5-12-12-12z m0 18c-3 0-5-2-5-5 0-3 2-5 5-5 3 0 4 3 4 5 0 3-1 5-4 5z m-9 31c0-5 4-9 9-9 4 0 8 4 8 9 0 5-4 9-8 9-5 0-9-4-9-9z m9-13c-8 0-13 5-13 12 0 8 6 13 13 13 7 0 12-5 12-13 0-6-5-12-12-12z m0 18c-3 0-5-2-5-5 0-3 2-5 5-5 3 0 4 3 4 5 0 3-1 5-4 5z m-7-98c2-2 4-3 7-3 2 0 4 1 6 3l29 28c3 4 3 10 0 13-3 3-10 3-13 0l-22-22-23 22c-3 3-9 3-13 0-3-3-3-9 0-13z m7-7c-4 0-7 2-10 4l-29 29c-2 2-4 6-4 10 0 3 2 7 4 9 5 5 14 5 19 0l20-20 19 19c5 5 13 5 18 0 5-4 5-13 0-18l-29-29c-1-3-4-4-8-4z m-4 10c2-2 6-2 8 0l28 29c2 1 2 5 0 7-1 1-5 1-7 0l-25-25-26 26c-2 1-6 1-7 0-1-2-1-4-1-5 0-2 1-3 2-4z m-247-211c-5 0-9-4-9-8 0-5 4-9 9-9 5 0 9 4 9 9 0 4-4 8-9 8z m0-22c-7 0-13 6-13 13 0 7 6 13 13 13 7 0 13-6 13-13 0-7-6-13-13-13z m0 18c-3 0-5-2-5-4 0-3 3-5 5-5 3 0 5 2 5 5 0 2-2 4-5 4z m-105 9c-4 0-8-4-8-9 0-4 4-8 8-8 5 0 9 4 9 8 0 5-4 9-9 9z m0-22c-7 0-12 5-12 13 0 7 5 12 12 12 8 0 13-5 13-12 0-8-5-13-13-13z m0 18c-3 0-4-2-4-5 0-3 2-4 4-4 3 0 5 2 5 4 0 3-1 5-5 5z m68-1c-4 0-8-4-8-8 0-5 4-9 8-9 5 0 9 4 9 9 1 4-4 8-9 8z m0-22c-7 0-12 6-12 13 0 7 5 13 12 13 8 0 13-6 13-13 0-7-5-13-13-13z m0 18c-3 0-4-2-4-4 0-3 2-6 4-6 4 0 5 2 5 5 0 2-1 5-5 5z m-36 4c-4 0-8-4-8-8 0-5 4-9 8-9 5 0 9 4 9 9 0 4-4 8-9 8z m0-22c-7 0-12 6-12 13 0 7 5 13 12 13 8 0 13-6 13-13 0-7-5-13-13-13z m0 18c-3 0-4-2-4-4 0-3 2-5 4-5 4 0 5 2 5 5 0 2-2 4-5 4z m-32 45c-4 0-8-4-8-9 0-4 4-8 8-8 5 0 9 4 9 8 0 5-4 9-9 9z m0-22c-7 0-12 5-12 13 0 7 5 12 12 12 8 0 13-5 13-12 0-8-5-13-13-13z m0 18c-3 0-4-2-4-5 0-2 2-4 4-4 4 0 5 2 5 4 0 3-1 5-5 5z m36 10c3 3 3 9 0 13l-29 28c-3 4-10 4-13 0l-29-28c-3-4-3-10 0-13 3-3 10-3 13 0l15 15c2-2 4-3 7-3 4 0 5 1 8 3l15-16c1-2 4-2 6-2 3 0 5 1 7 3z m-7-7c-3 0-6 2-9 4l-13 13c-4-2-10-2-14 0l-13-13c-4-4-13-4-18 0-2 3-4 6-4 10 0 4 2 6 4 10l29 28c2 3 5 4 9 4 4 0 7-1 10-4l29-28c5-5 5-14 0-19-3-3-7-5-10-5z m-22 28l18-18c2-2 6-2 7 0 2 2 2 6 0 7l-28 29c-1 1-3 2-4 2-2 0-3-1-4-2l-29-29c-1-1-2-2-2-4 0-1 1-2 2-4 1-1 5-1 7 0l20 19 3-3c1-1 2-1 4-1 3 0 3 0 4 1z m94 236c11 0 20-3 30-8l-5-11c-8 4-17 7-24 7-6 0-12-2-15-5-3-3-5-9-5-17l0-24 34 0 0-10-34 0 0-18c0-6-1-10-2-14-2-3-5-6-9-8l65 0 0-13-86 0 0 11c11 2 17 10 17 24l0 18-16 0 0 11 16 0 0 25c0 10 3 18 9 24 6 5 15 8 25 8z m37-125l-92 0 0 18 3 1c10 2 14 9 14 20l0 14-16 0 0 19 16 0 0 21c0 12 3 20 10 26 7 6 16 10 27 10 12 0 22-3 32-8l3-1-8-19-4 2c-8 4-15 6-23 6-5 0-9-2-12-4-2-3-4-8-4-14l0-20 35 0 0-18-35 0 0-14c0-6 0-11-3-15-1-1-1-3-2-3l59 0z m-84 8l76 0 0 5-75 0 1 0c0 0-1 0-1-1l0-4z m1 53l16 0 0-22c0-11-4-18-9-22l5 3c3 2 5 5 7 7 2 3 2 7 2 12l0 22 35 0 0 3-35 0 0 28c0 9 3 15 7 19 8 8 25 8 40 2l1 3c-8 3-16 5-24 5-9 0-16-3-21-8-6-4-8-11-8-20l0-29-16 0z m230-186c0-9-3-16-10-22-7-6-16-10-28-12l0-23-13 0 0 22c-7 0-14 1-22 1-7 1-12 3-16 5l0 17c5-2 12-5 19-6 7-1 13-2 19-2l0 43c-14 4-23 10-28 15-6 6-8 13-8 22 0 9 3 16 10 21 6 5 15 9 26 10l0 18 13 0 0-18c12 0 24-2 35-7l-5-13c-9 4-20 7-29 7l0-42c10-3 17-6 23-10 5-3 9-6 11-10 2-6 3-10 3-16z m-71 60c0-5 2-9 5-12 3-3 8-6 15-9l0 39c-6-1-11-4-14-7-4-3-6-7-6-11z m54-61c0 5-1 9-4 11-3 4-8 6-16 9l0-38c13 1 20 8 20 18z m-17-59l-21 0 0 22c-6 0-12 0-18 1-7 1-13 3-17 5l-3 1 0 24 6-3c5-2 11-4 18-5 5-1 11-2 15-3l0 38c-13 4-22 10-27 15-7 7-10 15-10 25 0 10 4 18 11 24 7 6 15 9 25 10l0 19 21 0 0-18c11-1 22-3 32-7l4-2-8-20-4 2c-8 3-16 6-24 6l0-35c9-3 16-6 21-9 5-3 9-7 12-12 3-4 4-10 4-16 0-11-4-19-11-25-6-6-15-10-26-11z m-13 8l5 0 0 22 3 1c11 2 20 5 26 11 5 4 8 11 8 19 0 5 0 9-3 13-2 3-5 6-9 9-5 3-12 7-23 9l-2 1 0 49 4 0c9 0 18-2 27-5l2 5c-9 4-19 6-29 6l-4 0 0 18-5 0 0-18-3 0c-11-1-19-4-24-9-7-6-9-12-9-19 0-8 2-14 7-19 5-5 14-10 27-14l2-1 0-50-4 0c-6 0-13 1-20 2-5 1-10 3-14 4l0-6c4-2 8-2 14-3 6-1 14-2 21-2l4 0 0-23z m5 28l0 49 5-2c9-3 16-6 19-9 4-4 5-9 5-15 0-9-4-19-24-22z m8 38l0-28c12 2 13 8 13 13 0 4 0 7-3 9-1 1-5 3-10 6z m-13 20l-6 1c-8 3-13 7-16 10-4 4-6 9-6 15 0 6 2 10 6 14 4 4 10 6 17 8l5 0z m-8 39c-3-1-6-3-8-4-2-3-4-5-4-8 0-4 1-7 3-9 2-2 5-4 9-6z"/>
<glyph glyph-name="forward-arrow" unicode="&#61450;" d="M42 258l372 0c-39 39-79 79-118 118-8 8-8 20 0 28 8 8 20 8 28 0 51-51 103-103 154-154 6-6 6-16 0-21-51-53-103-105-155-156-7-7-20-7-27 0-7 7-7 19 0 27 39 39 79 79 118 118 0 0 0 0 0 1l-372 0c-10 0-19 9-19 19 0 11 9 20 19 20z"/>
<glyph glyph-name="funds" unicode="&#61451;" d="M333 408c17 16 30 35 31 35 5 7 3 16-4 21-3 2-7 3-11 2-5 0-6-4-7-6 0 0-15-16-23-30 0 6 7 25 16 40 4 7 2 16-5 20-28 22-62 11-76 4-35 20-68 5-80-6-5-5-7-13-3-19 3-7 9-19 13-29-9 10-15 19-15 19-5 7-15 9-22 5-3-2-5-6-6-10-1-4 0-8 2-11 2-2 11-19 27-34-59-16-104-68-104-125l0-178c0-39 50-98 92-98l255 0c10 0 9 19 9 26l0 244c0 62-34 113-89 130z m-47 27l-72 0 0 4c-3 7-7 19-11 27 14 6 27 4 39-4 4-4 12-4 17 0 0 0 20 8 39 4-4-8-8-15-12-31z m104-157l0-238-232 0c-24 0-60 43-60 66l0 177c0 52 46 91 88 98l120 1c50-6 84-49 84-104z m-105 127l-71 0 0 13 71 0z m-36-63c-66 0-119-53-119-120 0-66 53-120 119-120 65 0 119 54 119 120 0 67-54 120-119 120z m0-208c-49 0-89 40-89 88 0 50 40 90 89 90 49 0 89-40 89-89 0-49-40-89-89-89z m-19 72c0-5 1-9 4-12 3-4 6-6 11-7l0 31c-1 0-1 0-2 0-1 0-1 1-2 1-4 1-7 3-11 3-3 2-6 4-9 6-3 2-5 5-7 8-1 3-2 7-2 12 0 5 1 10 3 13 2 4 5 7 7 9 4 3 7 5 12 6 4 2 8 2 12 2l0 12 9 0 0-10c4-1 9-2 12-3 3-2 7-3 11-6 3-2 5-5 7-9 1-4 3-8 3-13l-21 0c0 4-1 7-4 9-2 3-5 4-9 4l0-25c1 0 3-1 4-1 1 0 2-1 4-1 7-1 12-4 16-7 4-3 7-6 9-9 2-3 3-6 3-9 0-4 1-6 1-8 0-3-1-5-1-8-1-4-4-7-6-10-2-3-6-6-11-8-5-2-11-4-18-4l0-13-9 0 0 13c-11 1-19 4-25 10-7 6-10 15-11 27l20 0z m16 56c-2 0-4 0-5 0-2-1-3-2-4-3-2-1-3-2-3-4-1-1-1-3-1-5 0-4 1-6 3-8 2-1 6-3 10-4l0 24z m8-75c2 0 4 1 6 2 2 1 4 1 5 2 1 1 2 3 4 4 1 2 1 4 1 7 0 4 0 6-3 8-2 2-6 4-12 5l0-28z"/>
<glyph glyph-name="goals" unicode="&#61452;" d="M480 426c0 5-6 9-10 11l-36 9-12 34c-1 6-6 10-12 10-5 2-12 0-16-4l-40-45c-32 16-68 25-102 25-122 0-222-100-222-223 0-122 100-222 222-222 122 0 222 100 222 222 0 44-12 87-36 123l39 44c4 4 3 10 3 16z m-103-41l-6 26 29 32 5-14c1-5 5-9 11-11l18-4-29-32z m-125-190c-26 0-48 22-48 48 0 27 22 48 48 48 6 0 11-1 17-3l-29-34c-6-7-5-17 2-23 7-5 17-5 23 2l29 34c4-7 7-15 7-24 0-26-22-48-49-48z m0-73c-67 0-122 54-122 121 0 67 55 122 122 122 23 0 46-7 66-19l-28-32c-12 6-25 10-38 10-45 0-81-36-81-81 0-45 37-81 81-81 45 0 81 36 81 81 0 18-7 35-18 50l27 32c20-23 32-51 32-82 0-67-54-121-122-121z m88 248c-26 19-56 28-88 28-86 0-154-69-154-155 0-85 69-155 155-155 85 0 155 70 155 155 0 40-15 78-42 107l2 3 43-7c1 0 1 0 2 0 20-30 30-66 30-103 0-105-85-189-189-189-105 0-190 84-190 189 0 107 82 190 186 190 26 0 41-3 68-13 2-1 6-2 9-3 4-1 7-3 10-3l3-2 6-34z"/>
<glyph glyph-name="google-plus" unicode="&#61453;" d="M493 288l-29 0 0 31c0 7-6 9-13 9l-42 0c-7 0-9-2-9-9l0-31-33 0c-7 0-15-4-15-11l0-43c0-6 8-11 15-11l33 0 0-31c0-6 2-9 9-9l42 0c7 0 13 3 13 9l0 32 29 0c6 0 11 4 11 11l0 43c0 6-5 10-11 10z m-13-40l-29 0c-6 0-11-6-11-13l0-27-16 0 0 27c0 7-9 13-15 13l-33 0 0 16 33 0c6 0 15 6 15 13l0 27 16 0 0-27c0-7 4-13 11-13l29 0z m-163 40l-139 0c-7 0-10-4-10-11l0-51c0-6 3-10 10-10l67 0c-2-8-4-9-7-13-4-5-8-9-14-13-5-4-11-8-19-10-8-2-17-4-27-4-15 0-28 3-40 10-12 8-21 17-28 30-8 13-11 26-11 41 0 15 3 28 11 41 7 12 16 22 28 29 12 7 25 11 40 11 20 0 36-7 50-20 5-4 12-4 17 0l40 39c2 2 4 5 4 9 0 3-2 6-4 8-30 28-66 42-107 42-22 0-43-4-62-13-19-8-37-20-50-33-15-15-26-32-34-51-8-20-13-41-13-61 0-21 4-43 13-62 8-19 20-37 34-50 14-15 31-26 50-34 20-8 41-13 62-13 29 0 56 7 80 20 23 14 41 32 54 56 13 23 19 51 19 80 0 9-1 17-2 27-2 3-7 6-12 6z m-27-104c-10-20-25-35-44-46-20-12-43-17-68-17-19 0-36 3-53 10-17 7-31 17-43 29-12 12-22 26-29 43-7 17-11 35-11 53 0 18 4 36 11 53 7 17 17 31 29 43 12 12 26 22 43 29 17 7 34 10 53 10 31 0 57-9 80-27l-22-22c-16 12-36 19-58 19-19 0-36-5-52-15-16-9-28-22-38-38-9-16-14-34-14-53 0-19 5-37 14-53 9-16 22-28 38-38 16-10 33-14 52-14 12 0 24 1 34 5 10 3 19 8 26 14 8 5 13 11 19 18 5 7 9 14 11 19 2 6 4 12 5 18 1 3 0 8-3 10-2 3-5 5-8 5l-70 0 0 24 114 0c1 0 1-8 1-12 0-25-5-47-17-67z"/>
<glyph glyph-name="heart" unicode="&#61454;" d="M150 480c-75 0-136-61-136-136 0-39 17-77 47-102l181-217c4-4 8-7 14-7 6 0 10 3 14 7l199 237c1 2 3 4 4 5l2 3c1 1 2 2 3 4 14 22 16 50 16 69 0 75-60 136-136 136-38 1-76-16-101-45l-2-2-1 2c-27 29-64 46-104 46z m105-98c7 0 13 4 16 10 18 33 51 53 89 53 55 0 101-45 101-101 0-22-5-42-14-54l-191-226-2 2-191 228c-9 16-13 32-13 50 0 55 44 101 100 101 37 0 72-20 89-53 3-6 9-10 16-10z"/>
<glyph glyph-name="heart-fill" unicode="&#61455;" d="M150 480c-75 0-136-61-136-136 0-39 17-77 47-102l181-217c4-4 8-7 14-7 6 0 10 3 14 7l199 237c1 2 3 4 4 5l2 3c1 1 2 2 3 4 14 22 16 50 16 69 0 75-60 136-136 136-38 1-76-16-101-45l-2-2-1 2c-27 29-64 46-104 46z"/>
<glyph glyph-name="help" unicode="&#61440;" d="M268 240c3 4 7 7 13 11l3 3c2 0 3 2 5 3 1 1 4 3 5 4l3 1c5 4 11 10 15 16 5 5 9 12 12 20 3 7 5 16 5 27 0 10-2 20-6 28-4 8-9 15-16 21-6 5-15 10-24 13-9 3-19 5-30 5-8 0-16-1-23-2-8-2-14-4-20-7-7-2-12-5-17-9-5-4-10-8-15-12l10-15c2-3 5-5 8-5 2 0 4 1 6 4 3 2 7 4 11 7 4 2 9 5 15 7 6 2 14 3 22 3 6 0 12-1 17-2 6-2 11-5 15-8 4-3 7-7 9-12 3-5 3-11 3-16 0-9-1-16-4-23-4-6-8-12-12-16-5-5-11-10-16-13-6-4-11-8-16-12-4-4-8-9-11-13-3-5-4-12-3-18l2-36 26 0 4 34c-2 2 0 8 4 12z m-12 264c-137 0-248-111-248-248 0-137 111-248 248-248 137 0 248 111 248 248 0 137-111 248-248 248z m0-464c-119 0-216 97-216 216 0 119 97 216 216 216 119 0 216-97 216-216 0-119-97-216-216-216z m14 100c0-14-12-26-26-26-14 0-26 12-26 26 0 14 12 26 26 26 14 0 26-12 26-26z"/>
<glyph glyph-name="high-priority" unicode="&#61441;" d="M488 269l-224 224c-6 6-17 6-22 0l-224-224c-7-7-7-16 0-23l224-224c3-3 7-4 11-4 4 0 8 1 11 4l224 224c3 4 5 8 5 12 0 4-3 8-5 11z m-235-213l-202 202 202 200 201-201z m-1 140c15 0 12 14 12 22l0 159c0 8 3 22-12 22-15 0-12-15-12-22l0-159c0-8-3-22 12-22z m28-59c0-15-12-27-27-27-15 0-27 12-27 27 0 15 12 27 27 27 15 0 27-12 27-27z"/>
<glyph glyph-name="history" unicode="&#61442;" d="M250 60l-181 0 0 407 355 0 0-217c0-5 7-11 13-11 5 0 13 5 13 11l0 228c0 6-5 15-12 15l-381 0c-6 0-15-8-15-15l0-433c0-6 8-11 15-11l193 0c6 0 12 7 12 12 0 7-6 14-12 14z m135 208l-271 0c-6 0-12-7-12-13 0-5 5-13 12-13l271 0c5 0 11 8 11 13 0 6-5 13-11 13z m-130-70l-141 0c-6 0-12-7-12-12 0-6 5-13 12-13l141 0c6 0 11 7 11 13 0 5-5 12-11 12z m0-60l-141 0c-6 0-12-8-12-13 0-6 5-13 12-13l141 0c6 0 11 7 11 13 0 5-5 13-11 13z m130 199l-271 0c-6 0-12-7-12-13 0-6 5-13 12-13l271 0c5 0 11 7 11 13 0 6-5 13-11 13z m0 69l-271 0c-6 0-12-7-12-12 0-6 5-13 12-13l271 0c5 0 11 7 11 13 0 5-5 12-11 12z m0-196c-53 0-96-43-96-96 0-52 43-96 96-96 53 0 96 44 96 96 1 53-43 96-96 96z m0-173c-43 0-77 34-77 77 0 42 34 76 77 76 42 0 77-34 77-76 0-43-35-77-77-77z m45 49l-30 24c1 1 0 3 0 4 0 8-2 13-11 16l0 26c0 3-1 6-5 6-3 0-4-3-4-6l0-28c-9-2-9-10-9-15 0-9 6-15 15-15 2 0 4 1 6 2l30-23c1-1 3-2 4-2 2 0 4 1 5 3 3 3 3 7-1 8z m-45 25c-2 0-3 2-3 3 0 2 1 4 3 4 1 0 3-2 3-4 0-2-2-3-3-3z"/>
<glyph glyph-name="home" unicode="&#61443;" d="M495 232l-1 2c0 2-4 6-6 8l-22 20c-22 23-45 45-68 68-4 4-6 8-6 13 0 23 0 46 0 68l0 7c0 12-5 17-18 17-15 0-31 0-46 0-11 0-16-5-17-17 0-1 0-2 0-4l-43 45c-4 8-8 13-13 13-5 0-9-5-14-10l-131-132c-30-30-60-60-89-90-4-4-8-12-6-18 1-1 3-6 15-9 8-3 16-2 24-2 3 0 5 1 8 1l18 0 0-7c0-25 1-48 2-71 0-24 1-50 1-76 0-4 2-6 3-8 4-3 9-2 12-2l315 0c3 0 6-1 9 2 2 2 2 6 2 10 0 23 0 45 0 67 0 26 0 47 0 74l0 10 8 0c8 0 16 0 23-1 9 0 19 0 28 0 5 0 12 3 15 8 1 4 0 8-3 14z m-394 8l-28 0c29 30 59 59 89 90 32 31 64 63 95 94 7-7 15-15 23-23 9-9 18-18 26-27 1 0 1 0 2-1 2-2 3-3 6-5 4-2 8-3 12-2 4 2 8 8 8 12 0 4 0 8 0 11 0 3 0 7 0 10 0 1 1 2 1 2 7 1 13 0 20 0l4 0c0-2 0-4 0-6l0-14c0-16 0-33 0-49 0-8 3-14 8-20 15-14 29-29 44-44 10-10 19-18 28-28 0 0 1-1 2-1l-32 0c-15 0-20-3-20-19 0-23 0-46-1-70 0-23-1-46-1-68l-266 0c0 22-1 45-1 67 0 23-2 48-2 72 0 15-1 19-17 19z m364-6z"/>
<glyph glyph-name="host" unicode="&#61444;" d="M102 265c0-7-6-13-13-13-7 0-13 6-13 13 0 7 6 13 13 13 7 0 13-6 13-13z m51 0c0-7-6-13-13-13-7 0-13 6-13 13 0 7 6 13 13 13 7 0 13-6 13-13z m52 0c0-7-6-13-13-13-7 0-13 6-13 13 0 7 6 13 13 13 7 0 13-6 13-13z m261 87c6 0 14 5 14 11l0 86c0 6-7 15-14 15l-418 0c-6 0-16-9-16-15l0-86c0-6 10-11 16-11l208 0 0-32-208 0c-6 0-16-6-16-13l0-85c0-7 10-14 16-14l208 0 0-152-72 0c-6 0-12-6-12-12 0-6 6-12 12-12l160 0c6 0 12 6 12 12 0 6-6 12-12 12l-64 0 0 152 186 0c6 0 14 7 14 14l0 85c0 7-7 13-14 13l-186 0 0 32z m-10-120l-400 0 0 64 400 0z m-400 208l400 0 0-64-400 0z m46-34c0-7-6-12-13-12-7 0-13 5-13 12 0 7 6 13 13 13 7 0 13-6 13-13z m51 0c0-7-6-12-13-12-7 0-13 5-13 12 0 7 6 13 13 13 7 0 13-6 13-13z m52 0c0-7-6-12-13-12-7 0-13 5-13 12 0 7 6 13 13 13 7 0 13-6 13-13z"/>
<glyph glyph-name="income" unicode="&#61445;" d="M282 252c47 0 84 38 84 85 0 46-38 85-84 85-47 0-85-38-85-85 0-47 37-85 85-85z m0 145c32 0 60-27 60-60 0-33-28-60-60-60-33 0-60 27-60 60 0 33 27 60 60 60z m161-60c0-11-9-20-20-20-11 0-20 9-20 20 0 11 9 20 20 20 11 0 20-9 20-20z m-297 0c0-11-9-20-20-20-11 0-20 9-20 20 0 11 9 20 20 20 11 0 20-9 20-20z m-57-41l0 148 383 0 0-208-113 0 0-19 120 0c8 0 15 6 15 14l0 220c0 8-7 15-15 15l-398 0c-8 0-15-7-15-15l0-155z m181 30c0-3 1-5 3-8 1-1 4-3 6-4l0 19c0 0-1 0-1 0 0 0 0 0-1 0-3 1-4 1-7 2-2 1-4 2-5 3-2 2-3 4-4 5-1 2-2 4-2 7 0 4 1 6 2 8 1 3 2 4 5 6 1 2 4 2 6 3 2 1 5 2 7 2l0 6 5 0 0-6c2 0 5-1 7-2 3-1 4-1 7-3 1-2 3-3 4-6 0-2 1-4 1-8l-12 0c0 3-1 4-2 6-2 2-3 2-5 2l0-14c1 0 2 0 2-1 1 0 2 0 3-1 4 0 7-2 9-4 3-1 4-3 5-5 1-2 2-4 2-6 0-1 0-3 0-5 0-1 0-3-1-4-1-2-2-4-3-6-2-2-4-3-7-5-2-1-6-2-10-2l0-7-4 0 0 7c-6 1-11 2-15 6-4 3-6 9-7 15z m10 34c-1 0-2 0-3-1-1 0-2-1-3-1 0-1-1-2-1-3-1-1-1-1-1-3 0-2 1-3 2-5 1-1 3-1 5-2l0 15z m5-45c1 0 2 0 3 1 1 0 2 1 3 2 1 0 2 1 3 2 0 1 0 2 0 4 0 2 0 4-2 5-2 1-4 2-7 3z m-143-37c-71 0-126-33-126-75 0-2 1-5 1-7l-1-22c0-2 0-4 1-7l-1-21c0-3 0-5 1-8l-1-21c0-42 54-75 126-75 71 0 125 33 125 75l0 87c0 41-54 74-125 74z m0-18c59 0 109-26 109-57 0-30-49-57-109-57-59 0-108 27-108 57 0 31 50 57 108 57z m0-161c45 0 84 13 106 33-12-25-55-43-106-43-50 0-93 19-105 44 23-20 61-34 105-34z m-105 63c22-20 61-33 106-33 45 0 83 13 106 33-11-25-55-44-106-44-52 0-96 19-106 44z m105-101c-50 0-93 19-105 44 22-20 61-33 105-33 45 0 84 13 106 33-12-26-55-44-106-44z"/>
<glyph glyph-name="information" unicode="&#61446;" d="M256 8c137 0 248 111 248 248 0 137-111 248-248 248-137 0-248-111-248-248 0-137 111-248 248-248z m0 464c119 0 216-97 216-216 0-119-97-216-216-216-119 0-216 97-216 216 0 119 97 216 216 216z m4-163c-12 0-12-11-12-18l0-148c0-6 0-17 12-17 12 0 12 11 12 17l0 148c0 7 0 18-12 18z m22 48c0-12-10-22-22-22-12 0-22 10-22 22 0 12 10 21 22 21 12 0 22-9 22-21z"/>
<glyph glyph-name="insurance" unicode="&#61447;" d="M258 154c-40 0-71-31-71-69 0-39 32-70 71-70 38 0 70 31 70 70 1 38-31 69-70 69z m49-70c0-26-22-49-49-49-26 0-48 22-48 49 0 27 22 49 48 49 27 0 49-22 49-49z m-43 377l0 31c0 7-5 13-12 13-7 0-12-6-12-13l0-31c-120-7-218-86-218-208 0-7 6-13 13-13 1 0 1 0 2 0 1 0 1 0 1 0 8 0 13 6 13 13 0 23 19 41 42 41 23 0 41-18 41-41 0-7 6-13 13-13 7 0 13 6 13 13 0 23 18 41 40 41 21 0 39-15 39-32l0-84c0-8 6-13 12-13 7 0 12 5 12 13l0 75c0 22 23 41 46 41 23 0 43-18 43-41 0-7 6-13 14-13 7 0 13 6 13 13 0 23 19 41 43 41 23 0 41-18 41-41 0-7 6-13 13-13 1 0 1 0 2 0 0 0 0 0 1 0 7 0 10 5 10 13 1 125-97 202-225 208z m195-152c-11 7-23 11-37 11-21 0-42-10-54-28-13 18-33 28-54 28-22 0-43-10-55-28-13 18-33 28-54 28-22 0-43-10-55-28-12 18-32 28-54 28-14 0-26-4-37-11 23 89 106 126 199 126 92 0 176-37 201-126z m-421-65z m224-193l-3 0 0 7c-5 1-8 2-10 4-4 2-7 7-7 14l10 0c0-3 1-5 2-6 0-2 2-3 5-4l0 16-3 0c-5 2-8 4-10 6-1 2-3 6-3 9 0 2 0 4 1 6 1 2 2 3 3 5 2 2 4 3 6 3 1 1 3 1 5 1l0 5 4 0 0-5c4 0 7-2 9-3 4-3 7-7 7-13l-10 0c0 2-1 4-1 5-1 1-2 2-5 3l0-14c6-1 10-4 12-5 3-3 4-7 4-11 0-6-2-10-6-13-2-2-6-3-10-3z m-4 53c-2 0-4-1-4-2-1 0-2-2-2-4 0-2 1-4 2-4 1-1 3-2 4-2z m4-38c2 0 4 1 4 2 2 1 3 3 3 6 0 2-1 4-3 4 0 1-2 2-4 3z"/>
<glyph glyph-name="interest-certificate" unicode="&#61448;" d="M250 56l-178 0 0 400 352 0 0-125c0-5 6-10 12-10 6 0 12 5 12 10l0 139c0 6-6 18-18 18l-372 0c-8-1-18-12-18-18l0-431c0-6 8-15 18-15l192 0c6 0 11 10 11 16 0 6-4 16-11 16z m5 136l-141 0c-5 0-10-6-10-12 0-6 5-12 10-12l141 0c6 0 11 6 11 12 0 6-5 12-11 12z m0-64l-141 0c-5 0-10-6-10-12 0-6 5-12 10-12l141 0c6 0 11 6 11 12 0 6-5 12-11 12z m-141 200c-5 0-10-6-10-12 0-6 5-12 10-12l166 0c6 0 10 6 10 12 0 6-4 12-10 12z m0-72c-6 0-10-6-10-12 0-6 4-12 10-12l146 0c6 0 10 6 10 12 0 6-5 12-10 12z m281 132c0 6-5 12-10 12l-271 0c-5 0-10-6-10-12 0-6 5-12 10-12l270 0c6 0 11 6 11 12z m46-180c0-31-26-57-57-57-31 0-57 26-57 57 0 31 26 57 57 57 31 0 57-26 57-57z m46-134l-33 64c20 18 32 44 32 73 0 56-45 102-101 102-56 0-102-46-102-102 0-28 11-53 30-71l-31-59c-2-5-1-11 2-15 3-4 9-6 14-4l28 6 12-27c3-5 7-8 12-8 0 0 0 0 1 0 5 0 10 3 12 7l20 38 25-45c2-5 7-7 12-7 0 0 1 0 1 0 5 0 9 3 12 8l12 27 29-6c4-1 10 1 13 5 2 4 3 10 0 14z m-137-23l-10 25c-2 6-9 10-15 8l-27-6 27 52c16-12 35-19 56-20z m-48 160c0 45 37 82 82 82 45 0 82-37 82-82 0-45-37-81-82-81-45 0-82 36-82 81z m143-134c-7 1-13-3-15-8l-11-25-28 50 9 17c15 3 30 8 42 16l28-56z"/>
<glyph glyph-name="issue" unicode="&#61449;" d="M472 336c-9 0-16-7-16-16l0-264-400 0 0 400 232 0c9 0 16 7 16 16 0 9-7 16-16 16l-248 0c-9 0-16-7-16-16l0-432c0-9 7-16 16-16l432 0c9 0 16 7 16 16l0 280c0 9-7 16-16 16z m-392 80l208 0 0-31-208 0z m0-291l360 0 0-31-360 0z m0 227l136 0 0-32-136 0z m280-80l80 0 0-32-80 0z m-64-72l144 0 0-32-144 0z m-103 64c-5-2-9-6-11-10l-24-76-4-4c-6-6-6-16 0-22 4-3 8-5 12-5 4 0 8 2 11 5l3 3 80 26c6 1 10 6 10 12 0 0 0 1 0 1l176 176 39 38c6 6 6 16 0 22l-52 52c-7 7-16 7-23 0l-38-38-179-180c0 1 0 0 0 0z m229 184l29-30-16-16-29 30z m-39-38l30-30-157-156-30 30z m-178-190l19-18-28-8z"/>
<glyph glyph-name="liabilities" unicode="&#61466;" d="M382 256c-61 0-112-50-112-112 0-62 51-112 112-112 62 0 112 50 112 112 0 62-50 112-112 112z m0-202c-49 0-89 40-89 90 0 50 40 90 89 90 50 0 90-40 90-90 0-50-40-90-90-90z m-20 72c0-6 1-11 4-14 4-3 8-6 12-6l0 31c-1 0-1 1-3 1-1 0-1 0-2 0-4 1-7 3-11 4-4 1-7 3-10 5-3 3-5 5-6 8-2 3-3 7-3 13 0 5 1 10 3 14 2 4 5 7 8 9 4 3 8 5 12 7 4 1 8 2 12 2l0 11 9 0 0-11c5-1 9-2 13-3 4-2 7-3 10-6 4-2 6-5 8-9 1-4 3-8 3-14l-22 0c0 4-1 7-4 10-2 3-5 4-9 4l0-26c1 0 3-1 4-1 2 0 3-1 4-1 8-1 13-4 17-7 4-3 7-6 9-9 2-3 3-6 3-9 0-3 1-7 1-9 0-2-1-5-2-8 0-3-3-6-5-10-3-3-7-6-11-8-5-3-12-4-19-5l0-13-9 0 0 13c-11 1-20 4-26 10-6 7-10 15-11 27z m16 57c-2 0-4 0-5-1-2 0-3-1-4-2-2-1-3-2-3-4-1-2-1-3-1-6 0-3 1-5 3-8 2-1 6-3 10-4l0 25z m8-77c2 0 4 1 6 2 2 1 4 2 6 2 1 1 3 3 4 5 0 2 1 4 1 7 0 4-1 7-4 8-2 2-6 4-13 6z m-332 206l402 0 0-59 32-1 0 166c0 9-11 14-21 14l-429 0c-10 0-14-5-14-14l0-284c0-9 4-14 14-14l200 0 0 32-184 0z m0 88l402 0 0-56-402 0z m160-210c0-9-7-16-16-16-8 0-15 7-15 16 0 8 7 15 15 15 9 0 16-7 16-15z m-51 0c0-9-7-16-15-16-8 0-15 7-15 16 0 8 7 15 15 15 8 0 15-7 15-15z m-50 0c0-9-7-16-15-16-9 0-16 7-16 16 0 8 7 15 16 15 8 0 15-7 15-15z"/>
<glyph glyph-name="limit" unicode="&#61467;" d="M496 414c0 10-8 18-18 18l-444 0c-10 0-18-8-18-18l0-292c0-10 8-18 18-18l444 0c10 0 18 8 18 18z m-448-78l0 56 416 0 0-56z m0-200l0 168 416 0 0-168z m150 40c0-8-7-15-16-15-8 0-15 7-15 15 0 8 7 15 15 15 9 0 16-7 16-15z m-51 0c0-8-7-15-15-15-8 0-15 7-15 15 0 8 7 15 15 15 8 0 15-7 15-15z m-50 0c0-8-7-15-15-15-9 0-16 7-16 15 0 8 7 15 16 15 8 0 15-7 15-15z"/>
<glyph glyph-name="linkedin" unicode="&#61468;" d="M184 316c0 6-6 12-12 12l-80 0c-6 0-12-6-12-12l0-240c0-6 6-12 12-12l80 0c6 0 12 6 12 12z m-24-220l-56 0 0 208 56 0z m-29 347c-16 0-29-5-40-15-10-10-16-23-16-38 0-15 6-27 15-37 11-11 24-15 40-15 17 0 31 4 41 15 11 10 16 23 16 37 0 16-5 28-16 38-9 10-23 15-40 15z m29-53c0-8-1-15-6-20-6-6-13-8-24-8-10 0-17 2-23 8-5 5-8 12-8 20 0 9 3 16 9 21 6 6 14 8 24 8 10 0 16-2 22-8 4-5 6-13 6-21z m277-86c-19 21-43 31-75 31-11 0-21-1-30-4-10-3-18-7-25-13-1 0-3-1-3-2l0 2c0 6-5 11-12 11l-78 0c-4 0-7-1-9-3-3-3-3-5-3-8l0-12c0-8 0-32 0-70 0-39 0-91-1-154 0-4 1-5 3-8 2-2 6-1 9-1l78 0c7 0 12 2 12 9l0 131c0 8 1 13 2 14 2 7 6 11 12 16 5 4 10 6 17 6 13 0 16-5 19-9 5-7 6-18 6-33l0-126c0-7 8-9 15-9l79 0c6 0 10 2 10 9l0 135c1 38-8 67-26 88z m3-208l-56 0 0 111c0 19-2 35-10 46-7 9-17 19-40 19-12 0-23-4-32-11-8-7-14-15-18-26-2-6-3-13-3-23l0-116-55 0c0 56 1 103 1 140 0 38 0 60 0 68l53 0 0-18c0-4 0-7 2-9 2-4 6-7 10-7 6 0 10 4 11 8 3 4 5 7 7 9 4 3 8 7 12 11 5 4 11 7 17 8 7 3 15 4 24 4 24 0 42-8 56-24 15-16 21-40 21-71z"/>
<glyph glyph-name="loans" unicode="&#61469;" d="M146 136c3-2 7-2 11-2l335 0c4 0 2 0 4 2 1 1-1 2-1 6l0 208c0 6 3 10-5 10l-177 0c-1 0-1-1-2-1 0 0-1 0-1 0l0 0-60 54c-3 2-6 3-9 3l-84 0c-1 0-2-1-3-1 0 0 0-2 0-2l-41-21-56 0 0 19c0 2 0 4-1 5-2 2-6 3-10 3l-29 0c-7 0-13-6-13-13 0-8 6-14 14-14l14 0 0-120-14 0c-8 0-13-5-13-12 0-7 5-12 13-12l28 0c4 0 10 5 10 14l0 10 17 0c1 0 2-2 4-4 1-1 2-3 5-6 17-9 43-20 60-20l1-1 0-101c1-2 3-3 3-4z m326 24l-304 0 0 138 16-11 0-107c0-5 2-4 3-4l285 0z m0 176l0-136-264 0 0 59 6-4c3-2 7-3 10-4 21-2 37 3 46 18 9 15 2 32 1 34l-1 3c-1 3-2 6-3 6l-18 24z m-330-69c-28 0-61 23-68 28 0 0-4 5-7 7-2 1-8 1-9 0l-3 0 0 66 61 0 6 3 37 21 77 0 40-32-52 0-12 7c-3 3-6 3-10 3-4-1-7-3-9-5-3-3-5-7-5-11 0-4 1-7 3-8l14-16 40-40c1-2 1-5 0-8-3-4-6-8-15-5l-1 0-45 46c-2 3-6 4-10 4 0 0-40-3-73 31-3 2-6 4-9 4-4 0-7-2-10-4-2-3-4-6-4-9-1-3 0-7 2-10 18-18 34-31 62-36l1 0 0-35c1-1 0-1-1-1z"/>
<glyph glyph-name="location-arrow" unicode="&#61470;" d="M292 482c0 0-31 7-54 4-59-8-100-40-125-96-17-39-15-80 5-128 33-80 80-155 124-223l10-14 13 0 8 15c46 69 81 130 109 189 13 27 25 54 29 84 10 77-42 152-119 169z m75-203c-25-63-59-120-98-182-3-4-6-9-9-14l-4-5-19 34c-17 29-35 59-52 89-15 27-35 63-46 103-8 30-2 65 17 94 20 29 50 48 84 53 5 1 10 1 15 1 59 0 111-42 122-100 5-28-3-54-10-73z m-111 124c-41 0-74-33-74-74 0-41 33-75 74-75 41 0 74 34 74 75 0 41-33 74-74 74z m0-117c-23 0-42 20-42 43 0 23 19 42 42 42 23 0 42-19 42-42 0-23-19-43-42-43z"/>
<glyph glyph-name="login" unicode="&#61471;" d="M66 20l398 0c6 0 18 6 18 16l0 441c0 5-6 15-14 15l-401 0c-6 0-17-9-17-16l0-146c0-8 8-15 16-15 8 0 16 7 16 15l0 130 368 0 0-408-368 0 0 120c0 9-8 16-17 16-8 0-15-6-15-16l0-139c0 0 2-13 16-13z m261 224c4 4 4 10 0 14-34 36-69 70-102 105-5 5-14 6-19 0-4-5-5-13 0-18 27-27 52-54 79-80l-250 3c-7 0-13-6-13-13 0-7 5-13 12-13l250-3c0 0 0 0 0-1-26-26-54-52-80-78-5-5-5-13 0-18 5-5 13-5 18 0 35 34 70 68 105 102z"/>
<glyph glyph-name="logout" unicode="&#61472;" d="M334 426l-9 4-3-41 5-3c63-28 103-91 103-160 0-96-78-175-175-175-97 0-175 79-175 175 0 69 41 132 103 160l4 2 0 42-9-4c-83-32-136-111-136-200 0-117 96-213 213-213 118 0 214 96 214 213 0 89-53 167-135 200z m-86-160c9 0 16 8 16 17l0 191c0 9-7 16-16 16-9 0-16-7-16-16l0-190c0-10 7-18 16-18z"/>
<glyph glyph-name="mailbox-view" unicode="&#61474;" d="M483 296c-1 11-17 18-17 18l-66 23 0 139c0 10-2 12-11 12l-280 0c-11 0-13-2-13-12l0-143-59-21c0 0-11-2-11-12l-1-265c0-9 5-19 16-19l426 0c10 0 16 12 16 21z m-401-4l11 4 0-10z m321-6l0 14 15-6z m-283-20l0 190 256 0 0-192-122-76z m328 2l0-220-392 0 0 218 194-113c2-2 5-3 8-3 3 0 4 1 5 2 0 0 3 1 3 1z m-109 92l-181 0c-10 0-16-3-16-12 0-9 7-12 16-12l182 0c10 0 17 3 17 12 0 9-7 12-18 12z m0 56l-76 0c-9 0-17-4-17-12 0-8 8-12 17-12l76 0c10 0 17 4 17 12 0 8-7 12-17 12z m0-112l-181 0c-10 0-16-3-16-12 0-9 7-12 16-12l182 0c10 0 17 3 17 12 0 9-7 12-18 12z"/>
<glyph glyph-name="maintenance" unicode="&#61475;" d="M280 272c0 9-7 16-16 16l-160 0c-9 0-16-7-16-16 0-9 7-16 16-16l160 0c9 0 16 7 16 16z m-56-72c0 9-7 16-16 16l-104 0c-9 0-16-7-16-16 0-9 7-16 16-16l104 0c9 0 16 7 16 16z m-120-56c-9 0-16-7-16-16 0-9 7-16 16-16l88 0c9 0 16 7 16 16 0 9-7 16-16 16z m369 2c0 12 7 20 20 25-3 12-7 23-14 34-12-6-24-5-33 5-4 4-7 10-8 16 0 5 1 11 4 16-11 7-22 12-34 14-5-14-14-21-29-20-13 1-20 8-25 20-12-3-23-7-33-14 5-12 5-24-6-33-9-9-20-9-32-4-6-11-11-22-13-34 12-5 20-13 20-27 0-13-8-21-20-26 3-12 8-22 14-32 13 5 25 4 34-7 8-9 8-20 4-30 5-3 11-7 17-9 4-2 9-3 14-5 1 0 1-1 1-1 4 16 14 20 25 20 13 0 23-6 27-18 0 0 0-1 0-1 12 3 24 7 34 14-6 12-4 23 6 33 8 8 20 9 32 4 6 11 11 22 13 33-11 4-18 13-18 27z m-91-56c-30 0-55 24-55 55 0 30 24 54 55 54 30 0 54-24 54-54 0-30-25-55-54-55z m-150-42l-176 0 0 408 192 0 0-104c0-4 2-8 5-11 3-3 7-5 11-5l112 1 0-33c0-9 7-16 16-16 9 0 16 7 16 16l0 48c0 7-5 13-10 15l-123 119c-5 5-11 6-17 4-1 0-2-1-3-2l-215 0c-9 0-16-7-16-16l0-440c0-9 7-16 16-16l192 0c9 0 16 7 16 16 0 9-7 16-16 16z m48 320l0 69 70-69z"/>
<glyph glyph-name="medium-priority" unicode="&#61476;" d="M488 269l-224 224c-6 6-17 6-22 0l-224-224c-7-7-7-16 0-23l224-224c3-3 7-4 11-4 4 0 8 1 11 4l224 224c3 4 5 8 5 12 0 4-3 8-5 11z m-235-213l-202 202 202 200 201-201z m10 318l0-206c22 22 44 44 66 66 4 4 11 4 15 0 4-4 4-12 0-16-29-28-57-56-86-85-3-3-8-3-12 0-28 29-57 57-86 86-4 4-4 11 0 15 4 4 11 4 15 0 22-21 44-44 66-65l0 205c0 6 5 12 11 12 6-1 11-6 11-12z"/>
<glyph glyph-name="menu-bar" unicode="&#57344;" d="M40 360l432 0c11 0 20 9 20 20 0 11-9 20-20 20l-432 0c-11 0-20-9-20-20 0-11 9-20 20-20z m432-88l-432 0c-11 0-20-9-20-20 0-11 9-20 20-20l432 0c11 0 20 9 20 20 0 11-9 20-20 20z m0-120l-432 0c-11 0-20-9-20-20 0-11 9-20 20-20l432 0c11 0 20 9 20 20 0 11-9 20-20 20z"/>
<glyph glyph-name="minus-circle" unicode="&#57345;" d="M256 504c-137 0-248-111-248-248 0-137 111-248 248-248 137 0 248 111 248 248 0 137-111 248-248 248z m0-464c-119 0-216 97-216 216 0 119 97 216 216 216 119 0 216-97 216-216 0-119-97-216-216-216z m131 232l-254 0c-11 0-18-6-18-16 0-10 7-16 18-16l255 0c10 0 18 6 18 16 0 10-8 16-19 16z"/>
<glyph glyph-name="module" unicode="&#57346;" d="M48 232l0-109c0-4 2-8 6-10l99-63c1-1 1-1 2-1 0 0 1 0 1 0 1 0 2-1 3-1 1 0 3 0 3 1 0 0 1 0 1 0 1 0 2 1 3 1l95 64 99-64c1 0 2 0 2 0 0 0 1 0 1 0 1 0 2-1 3-1 1 0 3 0 4 1 0 0 0 0 0 0 1 0 2 0 3 1l96 66c3 2 2 5 2 10l0 105c0 0 1 8-6 13-25 15-98 57-98 57-2 2-1 2-9 2l0 104c0 0-1 6-3 7 0 0-2 2-2 2-23 15-95 59-95 59-4 2-9 2-13 0 0 0-72-41-99-60-2-2-2-8-2-8l0-110c0 0-74-40-94-57-2-3-2-6-2-9m393 1l-77-51-77 51 77 46z m-285-51l-77 51 75 45 76-48z m84 152l0-78-72 46 0 81z m98-37l-74-43 0 80 72 49z m-87 155l77-46-77-51-77 51z m-179-242l72-49 0-81-72 48z m96-129l0 81 72 49 0-80z m112 129l72-49 0-81-72 48z m96-129l0 81 72 49 0-80z"/>
<glyph glyph-name="more" unicode="&#57347;" d="M138 257c0-32-26-58-58-58-32 0-58 26-58 58 0 32 26 57 58 57 32 0 58-25 58-57z m175 0c0-32-26-58-58-58-32 0-57 26-57 58 0 32 25 57 57 57 32 0 58-25 58-57z m175 0c0-32-26-58-58-58-31 0-57 26-57 58 0 32 26 57 57 57 32 0 58-25 58-57z"/>
<glyph glyph-name="more-vertical" unicode="&#57348;" d="M314 431c0-32-26-57-58-57-32 0-58 25-58 57 0 32 26 58 58 58 32 0 58-26 58-58z m0-175c0-32-26-58-58-58-32 0-58 26-58 58 0 32 26 58 58 58 32 0 58-26 58-58z m0-175c0-32-26-58-58-58-32 0-58 26-58 58 0 32 26 57 58 57 32 0 58-25 58-57z"/>
<glyph glyph-name="move" unicode="&#57349;" d="M118 317c0-25-20-46-45-46-25 0-46 21-46 46 0 25 21 45 46 45 25 0 45-20 45-45z m123 0c0-25-21-46-46-46-25 0-45 21-45 46 0 25 20 45 45 45 25 0 46-20 46-45z m121 0c0-25-20-46-45-46-25 0-46 21-46 46 0 25 21 45 46 45 25 0 45-20 45-45z m123 0c0-25-21-46-46-46-25 0-45 21-45 46 0 25 20 45 45 45 25 0 46-20 46-45z m-367-122c0-25-20-45-45-45-25 0-46 20-46 45 0 25 21 46 46 46 25 0 45-21 45-46z m123 0c0-25-21-45-46-45-25 0-45 20-45 45 0 25 20 46 45 46 25 0 46-21 46-46z m121 0c0-25-20-45-45-45-25 0-46 20-46 45 0 25 21 46 46 46 25 0 45-21 45-46z m123 0c0-25-21-45-46-45-25 0-45 20-45 45 0 25 20 46 45 46 25 0 46-21 46-46z"/>
<glyph glyph-name="no" unicode="&#57350;" d="M256 504c-137 0-248-111-248-248 0-137 111-248 248-248 137 0 248 111 248 248 0 137-111 248-248 248z m0-464c-119 0-216 97-216 216 0 119 97 216 216 216 119 0 216-97 216-216 0-119-97-216-216-216z m91 307c-6 7-16 7-22 0l-69-69-69 69c-6 7-16 7-22 0-7-6-7-16 0-22l69-69-69-69c-7-6-7-16 0-22 3-3 7-5 11-5 4 0 8 2 11 5l69 69 69-69c3-3 7-5 11-5 4 0 8 2 11 5 7 6 7 16 0 22l-69 69 69 69c7 6 7 16 0 22z"/>
<glyph glyph-name="offers" unicode="&#57351;" d="M277 301l-17 5-93-86 18-5z m-35-106c8-2 15-1 21 3 7 4 11 12 15 22 3 10 4 19 1 26-2 8-8 12-16 15-17 5-28-3-35-25-3-10-4-19-2-26 3-8 8-12 16-15z m4 35c1 7 4 11 5 13 3 3 4 3 7 3 4-2 4-8 0-20-4-12-8-18-12-16-3 0-4 3-4 6 0 3 1 8 4 14z m-43 33c7 4 11 12 15 23 3 10 4 19 1 26-2 7-8 12-16 14-17 6-28-3-35-24-3-11-4-20-2-27 3-7 8-12 16-14 8-3 15-3 21 2z m-17 33c1 6 4 10 6 13 2 2 4 3 6 2 5-1 5-8 1-20-4-12-8-17-13-16-2 1-4 3-4 7 0 3 1 8 4 14z m243 160c-34 0-62-22-72-52l-5 5c-6 5-14 5-20 0-6-6-6-15 0-20l31-31c3-3 7-4 10-4 3 0 7 1 9 4 6 5 6 14 0 20l-2 2c0 0 0 0 0 1 0 26 22 47 47 47 26 0 47-22 47-47 0-24-20-45-46-47l8 36c1 4 0 8-3 12l-10 11c-5 5-13 6-20 1-5-4-6-13-1-20l4-6-22-103-194-179-142 156 200 182 102 8c8 1 13 7 12 15 0 8-7 14-15 13l-106-8c-3 0-7-2-8-4l-214-195c-2-3-4-6-5-10 0-4 1-7 4-10l161-176c3-3 7-5 11-5 3 0 6 2 9 4l211 192c2 2 4 5 4 7l11 50c0 0 1 0 1 0 42 0 80 35 80 75-1 42-36 76-77 76z"/>
<glyph glyph-name="ok" unicode="&#57352;" d="M256 504c-137 0-248-111-248-248 0-137 111-248 248-248 137 0 248 111 248 248 0 137-111 248-248 248z m0-464c-119 0-216 97-216 216 0 119 97 216 216 216 119 0 216-97 216-216 0-119-97-216-216-216z m113 305l-133-132-81 73c-6 5-17 5-22-2-6-6-6-17 1-22l92-83c3-2 6-4 10-4l2 0c4 0 8 2 11 5l142 142c7 6 7 16 0 22-6 7-16 7-22 1z"/>
<glyph glyph-name="on-screen-alerts" unicode="&#57353;" d="M261 489c1 0 3-1 5-1 15-4 25-14 30-30 1-3 2-4 6-5 54-21 87-60 95-118 3-21 1-42 1-64 0-32 0-63 0-95 0-26 16-48 42-56 3-1 7-2 10-5 5-4 7-10 4-16-2-5-7-9-14-9-28 0-56 0-85 0-14 0-29 0-43 0-1-20-9-36-24-47-11-8-23-11-37-10-25 1-52 20-53 57-2 0-4 0-5 0-40 0-80 0-120 0-2 0-3 0-4 0-6 0-11 3-13 8-2 6-2 12 3 16 3 3 8 5 12 7 25 8 41 29 41 55 0 48 0 95 0 143 0 60 38 114 94 134 4 1 8 3 8 8 5 15 16 24 32 28 0 0 2 1 3 1 5-1 8-1 12-1z m-20-58c-2 0-3-1-5-1-54-8-95-56-95-111 0-48 0-95 0-143 0-21-7-39-19-55-1-1-2-2-3-3 91 0 181 0 271 0-17 24-21 35-21 65 0 35 0 71 0 107 0 13 1 26-1 40-5 46-38 84-82 97-6 2-12 3-17 4 0 5 0 10 0 14 0 9-7 15-15 15-8 0-14-6-14-15 1-4 1-9 1-14z m-15-342c0-16 14-29 30-29 15 1 29 14 27 29-18 0-37 0-57 0z"/>
<glyph glyph-name="onboarding" unicode="&#57354;" d="M258 141l-198 0 0 142 26 0 0-17c0-8 7-9 14-9l59 0c7 0 16 2 16 9l0 17 134 0 0-17c0-8 6-9 13-9l59 0c7 0 17 2 17 9l0 17 18 0 0-29 26 0 0 29 7 0c7 0 11 8 11 15l0 122c0 7-4 17-11 17l-123 0 0 21c0 19-13 36-32 36l-114 0c-19 0-31-17-31-36l0-22-122 0c-7 0-12-10-12-17l0-121c0-8 5-15 12-15l7 0 0-155c0-7 4-14 11-14l214 0z m-83 321c0 6-1 10 5 10l114 0c5 0 6-1 6-6l0-30-125 0z m-133-52l392 0 0-100-36 0 0 23c0 7-9 12-16 12l-60 0c-7 0-12-6-12-12l0-23-135 0 0 23c0 7-9 12-16 12l-59 0c-7 0-14-6-14-12l0-23-44 0z m294-87l35 0 0-45-35 0z m-187 0l0-45-35 0 0 45z m236-82c-62 0-112-51-112-112 0-62 50-112 112-112 61 0 112 50 112 112 0 62-51 112-112 112z m0-199c-48 0-87 40-87 88 0 48 39 87 87 87 48 0 87-39 87-87 0-49-39-88-87-88z m57 98l-47 0 0 46c0 2-1 5-1 7l-2 2c-4 4-11 5-15 0-3-2-3-5-3-8l0-46-47 0c-3 0-5-1-8-3-1-2-3-4-3-7 0-5 5-9 11-9l45 0 0-50c0-6 6-10 12-10 3 0 6 1 7 3 2 2 3 5 3 7l0 49 48 0c2 0 6 1 8 3 3 2 3 5 3 7 0 7-5 9-11 9z"/>
<glyph glyph-name="others" unicode="&#57355;" d="M170 257c0-21-17-38-38-38-21 0-38 17-38 38 0 21 17 37 38 37 21 0 38-16 38-37z m120 0c0-21-17-38-38-38-21 0-38 17-38 38 0 21 17 37 38 37 21 0 38-16 38-37z m120 0c0-21-17-38-38-38-21 0-38 17-38 38 0 21 17 37 38 37 21 0 38-16 38-37z m-154 247c-137 0-248-111-248-248 0-137 111-248 248-248 137 0 248 111 248 248 0 137-111 248-248 248z m0-464c-119 0-216 97-216 216 0 119 97 216 216 216 119 0 216-97 216-216 0-119-97-216-216-216z"/>
<glyph glyph-name="password" unicode="&#57356;" d="M432 312l-32 0 0 42c0 76-59 134-134 134l-6 0c-76 0-135-58-135-134l0-42-40 0c-9 0-16-7-16-16l0-264c0-9 7-16 16-16l347 0c9 0 16 7 16 16l0 264c0 9-7 16-16 16z m-275 42c0 58 44 102 103 102l6 0c58 0 102-44 102-102l0-42-211 0z m259-306l-315 0 0 232 315 0z m-163 136c-9 0-16-7-16-16l0-72c0-9 7-16 16-16 9 0 16 7 16 16l0 72c0 9-7 16-16 16z"/>
<glyph glyph-name="pay" unicode="&#57357;" d="M370 504l-234 0c-7 0-8-6-8-13l0-226c0 0-7-2-10-3l-49-46c-3-2-5-6-5-10l0-157c0 0 0-1 1-1-6-2-9-6-9-12l0-22c0-7 5-12 12-12 7 0 12 6 12 13l0 9 184 0 0-9c0-7 5-13 12-13 7 0 12 6 12 13l0 22c0 7-6 12-14 12l-26 0 19 20c3 2 5 6 5 9l0 32c0 0 0 3 0 3l98 0c8 0 14 3 14 10l0 368c0 7-7 13-14 13z m-130-394l0-27-30-33c0 0 3-1 3-1l-125 0c0 0 0 1 0 1l0 152 40 32 0-72c0-2-2-4-2-5 0-4 0-7 3-11 5-4 13-4 17 1l73 78c4 0 11-1 15-5 5-4 8-11 9-22l-46-49c-3-3-3-6-3-9l0-30-26 0c-7 0-13-4-13-11 0-7 6-10 13-10l38-3c8 0 13 6 13 13l0 13 21 0c0 0 0-2 0-2z m112 26l-133 0 21 22 60 0c5 0 10 2 11 7l17 37c1 1 0 3 0 5l0 196c0 3 0 6-2 8l-22 30c-2 3-5 7-9 7l-81 0c-5 0-9-4-12-8l-24-42c-2-3-2-6-2-8l0-126c0-7 5-13 12-13 7 0 12 6 12 13l0 122 21 30 69 0 14-17 0-189-13-28-28 0 2 2c2 2 4 6 3 9-1 21-7 36-19 45-17 14-38 11-40 10-3-1-3-2-6-4l-51-57 0 293 200 0z m-95 128c24 0 43 19 43 43 0 24-19 43-43 43-24 0-43-19-43-43 0-24 19-43 43-43z m0 60c9 0 17-8 17-17 0-9-8-17-17-17-10 0-18 8-18 17 0 9 8 17 18 17z"/>
<glyph glyph-name="payments" unicode="&#57358;" d="M258 102c53 0 97 44 97 98 0 54-43 98-97 98-55 0-98-44-98-98 0-54 44-98 98-98z m0 167c37 0 68-31 68-69 0-38-31-69-68-69-38 0-69 31-69 69 0 38 31 69 69 69z m185-69c0-13-10-23-23-23-13 0-23 10-23 23 0 13 10 23 23 23 13 0 23-10 23-23z m-341 0c0-13-10-23-23-23-13 0-23 10-23 23 0 13 10 23 23 23 13 0 23-10 23-23z m400 131c0 10-7 17-16 17l-459 0c-9 0-17-7-17-17l0-253c0-9 8-16 17-16l459 0c9 0 16 7 16 16z m-25-248l-440 0 0 240 440 0z m-446 283l446 0c9 0 17 8 17 16 0 9-8 17-17 17l-446 0c-9 0-17-8-17-17 0-8 8-16 17-16z m43 50l360 0c10 0 17 8 17 17 0 9-8 17-17 17l-360 0c-10 0-17-8-17-17 0-9 7-17 17-17z m172-228c0-4 0-7 3-9 2-1 5-3 8-4l0 21c0 0-1 0-2 1-1 0-1 0-1 1-3 0-5 1-8 2-2 1-4 2-6 3-2 2-3 3-5 6-1 2-1 5-1 8 0 3 0 6 1 9 2 2 3 4 5 6 2 2 5 3 7 4 3 1 6 2 9 2l0 8 6 0 0-8c3 0 5-1 8-2 3-1 5-2 8-4 2-2 4-4 4-6 2-3 3-6 3-9l-15 0c0 2 0 5-2 6-2 2-3 3-6 3l0-17c1 0 2 0 3-1 1 0 1-1 2-1 5-1 9-3 11-5 3-1 5-4 6-6 2-2 2-4 2-6 0-3 0-4 0-6 0-2 0-3 0-6-1-2-3-4-4-6-2-2-5-4-8-6-4-1-8-2-12-3l0-9-6 0 0 9c-7 1-14 3-18 7-4 4-6 11-7 18z m10 38c-1 0-2 0-3 0-1 0-3-1-3-2-1-1-2-2-3-2-1-1-1-3-1-4 0-3 1-4 3-5 1-1 4-3 7-3z m6-51c0 0 2 1 4 1 1 1 2 1 3 2 1 0 1 1 2 3 1 1 1 2 1 4 0 2-1 5-2 5-2 2-5 3-8 4z"/>
<glyph glyph-name="pfm" unicode="&#57359;" d="M360 222c21 2 38 16 48 34 26 46-16 91-56 91l0-62-62 0c0-36 32-66 70-63z m-24 82l0 51c-48-5-50-51-50-51z m-119 64l-107 0c-7 0-12-6-12-12 0-6 5-12 12-12l107 0c6 0 12 6 12 12 0 6-5 12-12 12z m0-48l-107 0c-7 0-12-6-12-12 0-6 5-12 12-12l107 0c6 0 12 6 12 12 0 6-5 12-12 12z m0-48l-107 0c-7 0-12-6-12-12 0-6 5-12 12-12l107 0c6 0 12 6 12 12 0 6-5 12-12 12z m0-48l-107 0c-7 0-12-6-12-12 0-6 5-12 12-12l107 0c6 0 12 6 12 12 0 6-5 12-12 12z m239 192l-144 0 0 35c0 7-3 13-10 13l-93 0c-7 0-9-6-9-13l0-35-176 0 0-24 24 0 0-227c0-7 5-13 11-13l117 0-55-93c-3-5-2-13 5-15 1-1 4-2 5-2 4 0 8 2 11 6l62 104 44 0 0-102c0-6 6-11 12-11 6 0 12 5 12 11l0 102 46 0 62-104c2-4 6-6 10-6 3 0 4 1 6 2 6 3 8 10 5 15l-55 93 116 0c7 0 10 6 10 13l0 227 16 0 0 24z m-232 24l64 0 0-24-64 0z m224-264l-376 0 0 216 136 0c0 0 0 0 1 0l93 0c0 0 0 0 1 0l145 0z"/>
<glyph glyph-name="phone" unicode="&#57360;" d="M489 139c-3 8-12 15-31 25-4 2-10 6-17 10-7 4-14 8-20 11-6 3-11 6-16 9-2 0-4 2-8 5-5 3-10 7-14 8-13 7-27 5-42-9-7-7-14-14-19-22-5-6-10-13-16-18-1-1-3-3-4-4 0 0 0 0 0 0-3 1-4 2-5 2-2 1-3 2-7 4-4 2-6 4-6 4-27 15-51 33-70 52-20 19-37 43-52 70 0 1-2 4-4 8-2 3-4 4-4 6-1 1-2 2-3 5 0 0 0 0 0 1 1 0 2 2 4 4 6 5 11 10 18 15 8 5 15 12 21 19 9 10 14 18 14 27 0 6-2 11-4 16-2 4-5 8-8 14-2 4-4 6-6 8-3 5-6 10-8 16-4 5-8 13-12 20-4 7-7 13-9 17-10 19-17 27-25 30-8 3-20 2-38-2-11-2-19-4-24-7-15-5-28-21-42-45-12-23-18-44-18-67 0-6 0-13 1-18 1-7 3-13 4-20 3-7 4-12 5-16 1-3 3-10 6-18 4-8 5-13 6-15 8-22 17-42 28-58 18-28 41-57 70-87 30-29 59-53 87-70 17-11 37-20 58-28 2-1 7-3 15-6 9-3 15-5 18-6 4-2 9-3 16-5 7-2 14-3 20-5 6-1 12-1 18-1 22 0 44 6 67 18 25 14 40 27 45 41 3 6 6 14 8 25 2 10 3 19 3 25 1 5 1 9 0 12z m-33-30c-2-8-4-15-6-19-1-4-7-12-31-26-17-10-34-14-51-14-5 0-10 0-14 0-5 1-11 2-16 4-7 1-12 3-14 4-3 0-9 3-18 6-8 3-14 6-16 6-19 7-36 15-52 24-25 16-52 39-80 66-28 27-50 55-66 81-10 15-18 33-25 52-1 1-2 7-5 16-4 8-6 14-7 17-1 4-2 8-4 14-1 6-3 11-3 16-1 5-1 10-1 14 0 17 5 34 15 52 13 24 22 30 25 32 4 1 11 4 19 5 9 3 15 3 18 3 2-3 5-7 10-16l0-1c3-4 6-10 10-17 4-7 8-14 11-20 3-6 7-12 11-18l0-1c1-1 3-3 5-7 3-5 5-8 6-9 0-1 0-1 1-2-1-1-2-2-5-5-6-6-11-12-18-16-8-5-14-12-21-18-6-6-14-15-14-26 0-4 1-8 2-12 2-4 3-7 4-8 0-2 2-5 4-9 2-3 4-5 4-6 16-29 36-56 57-77 22-22 48-41 78-58 1 0 2-2 5-3 4-3 8-4 9-5 2-1 5-2 8-3 5-2 9-3 13-3 11 0 20 8 26 14 6 6 12 14 18 22 5 6 10 12 15 17 3 3 5 4 6 5 0 0 1 0 1-1 1-1 4-2 8-5 4-4 7-5 8-5l1-1c6-3 11-6 18-10 6-4 13-8 20-12 7-4 13-7 17-9l0-1c10-5 15-8 16-10 0-2 0-8-2-17z"/>
<glyph glyph-name="plus" unicode="&#57361;" d="M273 239l201 0c4 0 9 2 12 5 4 3 6 6 6 11 0 10-8 16-18 16l-200 0 1 203c0 4-1 11-4 14-3 3-9 5-13 5-5 0-10-3-13-6-3-3-6-8-6-13l0-200-200 0c-5 0-9-1-13-5-3-3-5-7-5-12 0-10 9-18 19-18l202 0 0-201c0-9 7-17 16-17 5 0 8 1 12 5 3 4 4 8 4 13l0 200z"/>
<glyph glyph-name="plus-circle" unicode="&#57362;" d="M256 504c-137 0-248-111-248-248 0-137 111-248 248-248 137 0 248 111 248 248 0 137-111 248-248 248z m0-464c-119 0-216 97-216 216 0 119 97 216 216 216 119 0 216-97 216-216 0-119-97-216-216-216z m133 232l-118 0 1 118c0 4-1 8-2 11l-2 2c-3 3-7 5-12 5-4 0-8-2-11-6-3-3-5-7-5-12l0-117-118 0c-4 0-8-2-11-5-3-3-5-8-5-12 0-8 8-17 17-17l117 0 0-116c0-9 7-16 16-16 5 0 10 3 11 5 3 3 5 8 5 11l0 117 117 0c5 0 8 2 11 6 2 2 5 6 5 11 0 8-7 15-16 15z"/>
<glyph glyph-name="pre-processed" unicode="&#57363;" d="M162 240c1 0 2 0 3 1l44 53c1 0 1 2 1 4-1 1-2 2-4 2l-28 0c13 33 45 55 80 55 32 0 62-17 77-46l1-2 29 15-1 2c-21 39-61 63-105 63-53 0-100-37-114-89l-24-2c-2 0-3 1-3 0-1-2-1-2 0-3l40-52c1-1 3-1 4-1z m192 31c-1 1-2 2-4 2-1 0-2-1-3-2l-43-53c-1 0-1-2-1-4 0-1 2-2 3-2l24 0c-13-33-45-55-80-55-36 0-68 22-81 56l-1 1-30-11 0-1c18-46 62-77 112-77 53 0 100 36 114 87l27 0c2 0 3 1 3 2 1 2 1 4 0 4z m-98 233c-137 0-248-111-248-248 0-137 111-248 248-248 137 0 248 111 248 248 0 137-111 248-248 248z m0-464c-119 0-216 97-216 216 0 119 97 216 216 216 119 0 216-97 216-216 0-119-97-216-216-216z"/>
<glyph glyph-name="primary-info" unicode="&#57364;" d="M494 142l-62 57 0 223c0 8-6 18-14 18l-328 0c-8 0-10-10-10-18l0-223-58-58c-4-4-6-9-4-14 2-5 6-7 12-7l455 0c5 0 10 2 13 7 2 6 0 11-4 15z m-390 266l304 0 0-200-304 0z m196-259c-2 6-7 11-14 11l-69 0c-7 0-12-5-14-11l-137 2 30 33 317 0 30-34z"/>
<glyph glyph-name="print" unicode="&#57365;" d="M456 360l-64 0 0 112c0 9-7 16-16 16l-232 0c-9 0-16-7-16-16l0-112-64 0c-9 0-16-7-16-16l0-144c0-9 7-16 16-16l64 0 0-152c0-9 7-16 16-16l232 0c9 0 16 7 16 16l0 152 64 0c9 0 16 7 16 16l0 144c0 9-7 16-16 16z m-296 96l200 0 0-96-200 0z m200-408l-200 0 0 192 200 0z m80 168l-48 0 0 40c0 9-7 16-16 16l-232 0c-9 0-16-7-16-16l0-40-48 0 0 112 360 0z m-240-32l128 0c9 0 16 7 16 16 0 9-7 16-16 16l-128 0c-9 0-16-7-16-16 0-9 7-16 16-16z m0-56l128 0c9 0 16 7 16 16 0 9-7 16-16 16l-128 0c-9 0-16-7-16-16 0-9 7-16 16-16z m0-56l128 0c9 0 16 7 16 16 0 9-7 16-16 16l-128 0c-9 0-16-7-16-16 0-9 7-16 16-16z m226 237c0-5-4-9-9-9-5 0-9 4-9 9 0 5 4 9 9 9 5 0 9-4 9-9z m-29 0c0-5-4-9-9-9-5 0-9 4-9 9 0 5 4 9 9 9 5 0 9-4 9-9z"/>
<glyph glyph-name="proof-of-identity" unicode="&#57366;" d="M485 416l-124 0c-5 24-26 42-51 44-7 22-28 39-52 39-25 0-46-16-53-39-26-2-47-20-52-44l-124 0c-7 0-13-6-13-14l0-334c0-7 6-12 13-12l455 0c7 0 19 5 19 12l0 334c1 8-11 14-18 14z m-278 18c2 0 3 0 6-1 4-1 7 0 10 2 3 3 5 6 5 10 2 15 14 27 30 27 15 0 28-12 28-27 0-4 3-7 5-10 3-2 7-3 11-2 1 0 3 1 4 1 16 0 30-13 30-29 0-16-14-29-30-29l-99 0c-16 0-29 13-29 29 0 16 13 29 29 29z m-137-354l10 32 42 15 40-20c3-1 7-1 11 1l39 21 42-18 9-32-193 0z m402 0l-182 0c0 0 0 4-1 5l-17 47c-2 3-4 6-8 7l-51 15c-3 0-6 0-9-1l-38-20-38 21c-2 1-6 1-9 0l-52-15c-3-1-5-4-7-7l-12-38 0 290 106 0c6-16 28-40 53-40l99 0c26 0 48 24 54 40l112 0z m-305 211c-31 0-57-32-57-72 0-40 26-72 57-72 31 0 57 32 57 72 0 40-26 72-57 72z m0-18c11 0 21-7 28-18-9 0-13 2-13 3 0 4-4 7-9 7-5 0-8-4-9-8-1-10-5-12-10-15l-3-2c-6-4-15-4-21-3 6 21 20 36 37 36z m0-107c-21 0-37 24-38 52 13-1 24 0 33 6 6 4 11 10 14 18 7-4 16-6 27-5 2-6 3-12 3-19 0-28-18-52-39-52z m182 62c0-7 5-12 13-12l67 0c7 0 13 5 13 12 0 7-6 12-14 12l-66 0c-8 0-13-5-13-12z m79-68l-66 0c-8 0-14-9-14-16 0-7 6-16 14-16l66 0c7 0 14 9 14 16 0 7-6 16-14 16z"/>
<glyph glyph-name="push-notifications" unicode="&#57367;" d="M472 368l-120 0 0 96c0 18-14 32-32 32l-248 0c-18 0-32-14-32-32l0-416c0-18 14-32 32-32l248 0c18 0 32 14 32 32l0 96 120 0c9 0 16 7 16 16l0 192c0 9-7 16-16 16z m-400 96l248 0 0-40-248 0z m248-416l-248 0 0 48 248 0z m0 80l-248 0 0 264 248 0 0-24-64 0c-9 0-16-7-16-16l0-47-57-35c-5-4-7-8-7-14 0-6 3-10 7-14l57-35 0-47c0-9 7-16 16-16l64 0z m136 48l-184 0 0 40c0 6-3 10-7 14l-43 26 43 26c5 4 7 8 7 14l0 40 184 0z m-51 50c-1 0-2 0-3 0-5 2-8 7-8 12 0 7 0 14 0 20 0 5 0 9 0 14-2 12-9 20-20 25-1 0-1 1-1 1-1 3-3 5-7 6l-4 0c-3-1-5-2-6-6 0 0-1-1-2-1-12-4-20-15-20-28 0-11 0-20 0-31 0-5-3-9-8-11-1 0-2-1-3-1-1-1-1-3-1-4 1-1 2-1 3-1l27 0c1-8 6-12 11-12 3 0 6 1 8 2 3 3 5 6 5 10l26 0c2 0 3 1 4 2 0 0 0 2-1 3z m-237-138l56 0 0-32-56 0z"/>
<glyph glyph-name="qr-code" unicode="&#57368;" d="M16 16c56 0 112 0 176 0 0 56 0 112 0 168-64 0-120 0-176 0 0-56 0-112 0-168z m32 136c40 0 72 0 104 0 0-32 0-72 0-104-32 0-64 0-104 0 0 32 0 72 0 104z m280 344c0-56 0-112 0-176 56 0 112 0 168 0 0 64 0 120 0 176-56 0-112 0-168 0z m136-136c-32 0-72 0-104 0 0 32 0 64 0 104 32 0 72 0 104 0 0-40 0-72 0-104z m-272 136c-64 0-120 0-176 0 0-56 0-112 0-176 56 0 112 0 176 0 0 64 0 120 0 176z m-40-136c-32 0-64 0-104 0 0 32 0 64 0 104 40 0 72 0 104 0 0-40 0-72 0-104z m312-104c-8 0-24 0-32 0 0-24 0-48 0-72 0 0-5 0-6 0-32 0-66 1-99 1 0-11 0-25 0-33-11 0-23 0-34 0 0 8-1 23-1 34-11 0-19 0-35 0 0 24 0 46 0 70 16 0 24 0 40 0 0 8 0 24 0 32-16 0-24 0-40 0 0 16 0 24 0 32 16 0 24 0 40 0 0 40 0 72 0 104-16 0-24 0-40 0 0 16 0 24 0 40 16 0 24 0 40 0 0 8 0 24 0 32-24 0-48 0-72 0 0-32 0-72 0-104 8 0 24 0 32 0 0-8 0-24 0-32-8 0-24 0-32 0 0-24 0-48 0-72 8 0 24 0 32 0 0-8 0-24 0-32-32 0-64 0-104 0 0 8 0 24 0 32-24 0-40 0-64 0 0-8 0-24 0-32-16 0-24 0-40 0 0 8 0 24 0 32-8 0-16 0-32 0 0-8 0-22 0-33 16 0 24 0 32 0-1-12-1-23-1-31 16 0 24 0 40 0 0 8 0 16 0 32 8 0 24 0 32 0 0-16 0-24 0-32 32 0 72 0 104 0 0-16 0-24 0-40 8 0 22 0 34 0 0-8 1-22 1-33 11 0 20 1 36 1 0-11 0-24 0-32-16 0-24 0-40 0 0 8 0 24 0 32-8 0-24 0-32 0 0-32 0-72 0-104 8 0 24 0 32 0 0 16 0 24 0 32 16 0 24 0 40 0 0 16 0 24 0 40 8 0 16 0 32 0 0-16 0-24 0-40 8 0 24 0 32 0 0-8 0-16 0-32-32 0-68 0-102 0 0-8 0-24 0-32 45 0 92 0 137 0 0 24 0 45 0 68-12 0-19-1-35-1 0 11 0 21 0 37-8 0-24 0-32 0 0 8 0 24 0 32 24 0 48 0 64 0 0-24 0-48 0-72 24 0 48 0 72 0 0 16 0 24 0 40-8 0-24 0-32 0 0 8 0 24 0 32 8 0 24 0 32 0 0 24 0 48 0 72 8 0 24 0 32 0 0 16 0 40 0 64-8 0-24 0-32 0 1-8 1-24 1-32z m32-207c0 11 0 23 0 34-8 0-24 0-32 0 0-11 0-23 0-34 8 0 24 0 32 0z m-64-33c8 0 21 0 32 0 0 8 0 24 0 32-11 0-24 0-32 0 0-8 0-24 0-32z m64 102c0 11 0 23 0 34-8 0-24 0-32 0 0-11 0-23 0-34 8 0 24 0 32 0z m-104 106c0 16 0 40 0 64-16 0-40 0-64 0 0-8 0-24 0-32 8 0 24 0 32 0 0-16 0-24 0-32 16 0 24 0 32 0z m-64 0c-16 0-24 0-32 0 0-16 0-24 0-40 8 0 16 0 32 0 0 16 0 24 0 40z m104 200c-16 0-15 0-31 0 0-8 0-24 0-32 16 0 15 0 31 0 0 16 0 24 0 32z m-312 0c-8 0-24 0-32 0 0-8 0-24 0-32 8 0 24 0 32 0 0 16 0 24 0 32z m-4-306c-8 0-24 0-32 0 0-8 0-24 0-32 8 0 24 0 32 0 0 16 0 24 0 32z"/>
<glyph glyph-name="quick-access" unicode="&#57369;" d="M258 13c-1 0-3 0-4 1l-3 0c-6 2-10 8-10 14l0 147-155 0c-5 0-10 3-13 7-3 5-3 11 0 15l169 295c3 6 9 8 16 7l2-1c7-1 12-8 12-14l0-150 155 0c5 0 10-3 13-8 2-4 2-10 0-14l-170-292c-2-4-7-7-12-7z m-148 192l144 0c8 0 15-7 15-15l0-114 132 229-144 0c-8 0-15 6-15 14l0 115z"/>
<glyph glyph-name="radio" unicode="&#57370;" d="M256 504c-137 0-248-111-248-248 0-137 111-248 248-248 137 0 248 111 248 248 0 137-111 248-248 248z m0-464c-119 0-216 97-216 216 0 119 97 216 216 216 119 0 216-97 216-216 0-119-97-216-216-216z m3 312c-54 0-98-43-98-97 0-54 44-97 98-97 53 0 97 43 97 97 0 53-44 97-97 97z"/>
<glyph glyph-name="radius" unicode="&#57371;" d="M256 504c-137 0-248-111-248-248 0-137 111-248 248-248 137 0 248 111 248 248 0 137-111 248-248 248z m0-464c-119 0-216 97-216 216 0 119 97 216 216 216 119 0 216-97 216-216 0-119-97-216-216-216z m190 225c-44 44-30 30-73 73-7 7-17 7-23 0-7-6-7-17 0-24 33-33 9-11 42-43l-272 0c34 32 10 10 42 43 7 7 7 17 0 24-6 6-16 6-23 0-43-44-30-30-73-74-5-5-5-13 0-18 44-44 30-30 73-73 7-7 17-7 23 0 7 6 7 17 0 23-33 34-9 10-42 43 0 0 0 1 0 1l272 0c0 0 0-1 0-1-34-33-10-9-42-43-7-6-7-17 0-23 6-7 16-7 23 0 44 44 30 30 73 73 5 6 5 14 0 19z"/>
<glyph glyph-name="re-centre" unicode="&#57372;" d="M337 256c0-45-36-81-81-81-45 0-81 36-81 81 0 45 36 81 81 81 45 0 81-36 81-81z m155 8l-49 0c-5 96-83 174-179 179l0 49c0 6-6 12-12 12-6 0-12-6-12-12l0-49c-88-5-166-83-171-179l-49 0c-6 0-12-6-12-12 0-6 6-12 12-12l49 0c5-88 83-166 171-171l0-49c0-6 6-12 12-12 6 0 12 6 12 12l0 49c96 5 174 83 179 171l49 0c6 0 12 6 12 12 0 6-6 12-12 12z m-236-164c-86 0-156 70-156 156 0 86 70 156 156 156 86 0 156-70 156-156 0-86-70-156-156-156z"/>
<glyph glyph-name="received" unicode="&#57373;" d="M256 504c-137 0-248-111-248-248 0-137 111-248 248-248 137 0 248 111 248 248 0 137-111 248-248 248z m0-464c-119 0-216 97-216 216 0 119 97 216 216 216 119 0 216-97 216-216 0-119-97-216-216-216z m39 195c3 7 6 14 6 21 0 22-16 40-36 43l0 77c0 9-7 16-16 16-9 0-16-7-16-16l0-83c-12-8-20-22-20-37 0-24 20-44 44-44 5 0 9 1 14 2l72-72c3-3 7-4 11-4 4 0 8 1 12 4 6 7 6 16 0 23z m-51 21c0 6 6 12 12 12 6 0 12-6 12-12 0-6-6-12-12-12-6 0-12 6-12 12z"/>
<glyph glyph-name="redeem" unicode="&#57374;" d="M258 102c53 0 97 44 97 98 0 54-43 98-97 98-55 0-98-44-98-98 0-54 44-98 98-98z m0 167c37 0 68-31 68-69 0-38-31-69-68-69-38 0-69 31-69 69 0 38 31 69 69 69z m185-69c0-13-10-23-23-23-13 0-23 10-23 23 0 13 10 23 23 23 13 0 23-10 23-23z m-341 0c0-13-10-23-23-23-13 0-23 10-23 23 0 13 10 23 23 23 13 0 23-10 23-23z m400 131c0 10-7 17-16 17l-459 0c-9 0-17-7-17-17l0-253c0-9 8-16 17-16l459 0c9 0 16 7 16 16z m-25-248l-440 0 0 240 440 0z m-446 283l446 0c9 0 17 8 17 16 0 9-8 17-17 17l-446 0c-9 0-17-8-17-17 0-8 8-16 17-16z m43 50l360 0c10 0 17 8 17 17 0 9-8 17-17 17l-360 0c-10 0-17-8-17-17 0-9 7-17 17-17z m172-228c0-4 0-7 3-9 2-1 5-3 8-4l0 21c0 0-1 0-2 1-1 0-1 0-1 1-3 0-5 1-8 2-2 1-4 2-6 3-2 2-3 3-5 6-1 2-1 5-1 8 0 3 0 6 1 9 2 2 3 4 5 6 2 2 5 3 7 4 3 1 6 2 9 2l0 8 6 0 0-8c3 0 5-1 8-2 3-1 5-2 8-4 2-2 4-4 4-6 2-3 3-6 3-9l-15 0c0 2 0 5-2 6-2 2-3 3-6 3l0-17c1 0 2 0 3-1 1 0 1-1 2-1 5-1 9-3 11-5 3-1 5-4 6-6 2-2 2-4 2-6 0-3 0-4 0-6 0-2 0-3 0-6-1-2-3-4-4-6-2-2-5-4-8-6-4-1-8-2-12-3l0-9-6 0 0 9c-7 1-14 3-18 7-4 4-6 11-7 18z m10 38c-1 0-2 0-3 0-1 0-3-1-3-2-1-1-2-2-3-2-1-1-1-3-1-4 0-3 1-4 3-5 1-1 4-3 7-3z m6-51c0 0 2 1 4 1 1 1 2 1 3 2 1 0 1 1 2 3 1 1 1 2 1 4 0 2-1 5-2 5-2 2-5 3-8 4z"/>
<glyph glyph-name="refresh" unicode="&#57375;" d="M70 177c-12-5-17-19-11-31 37-67 107-109 184-109 95 0 179 66 203 159 1 2 3 5 4 5l35-2c7 0 11 8 6 14l-53 67c-4 6-15 6-20 0l-58-70c-4-5-1-13 6-13l31 0c1 0 2-1 3-2 1-1 1-2 1-4-24-66-87-111-158-111-61 0-117 34-145 86-6 11-17 15-28 11z m360 166c12 5 17 19 11 31-37 67-107 109-185 109-95 0-179-66-203-159 0-2-2-4-3-4l-35 2c-7 0-11-8-6-14l53-69c5-6 16-6 20 0l58 70c4 5 1 13-6 13l-31 0c-1 0-2 1-3 2-1 1-1 2-1 4 24 66 87 111 157 111 61 0 117-34 146-86 5-10 17-14 28-10z"/>
<glyph glyph-name="reject" unicode="&#57376;" d="M256 504c-137 0-248-111-248-248 0-137 111-248 248-248 137 0 248 111 248 248 0 137-111 248-248 248z m0-464c-119 0-216 97-216 216 0 119 97 216 216 216 119 0 216-97 216-216 0-119-97-216-216-216z m0 348c-73 0-132-59-132-132 0-73 59-132 132-132 73 0 132 59 132 132 0 73-59 132-132 132z m-100-132c0 55 45 100 100 100 14 0 28-3 40-9l-108-165c-19 19-32 45-32 74z m100-100c-14 0-29 3-42 9l108 165c20-19 33-45 33-75 1-54-44-99-99-99z"/>
<glyph glyph-name="remarks" unicode="&#57377;" d="M489 425l-72 72c-7 6-16 6-23 0l-52-53c0 0 0 0-1-1l-248-248c-1-1-3-2-3-4-3-1-5-5-6-8l-34-101-12-12c-7-7-7-16 0-23 3-3 7-5 11-5 4 0 8 2 11 5l13 13 103 31c4 2 7 4 10 8 0 1 0 1 1 2l248 248c0 0 0 0 1 0l54 53c4 6 4 16-1 23z m-399-327l16 50 36-34z m85 36l-49 50 226 225 50-50z m249 248l-50 50 32 31 49-49z"/>
<glyph glyph-name="repay" unicode="&#57378;" d="M460 328l-38 0 13 10c6 3 7 11 4 16l-61 98c-3 6-10 7-16 4l-38-21-55 55c-5 4-12 4-16-1l-183-161-21 0c-7 0-9-3-9-10l0-288c0-6 2-14 9-14l411 0c6 0 12 8 12 14l0 288c0 7-6 10-12 10z m-96 101l49-78-33-21c-1 0-1-2-2-2l-198 0z m-104 35l42-42-172-94-24 0z m-196-424l0 264 384 0 0-72-151 0c-7 0-9-6-9-13l0-89c0-6 2-10 9-10l151 0 0-80z m384 104l-136 0 0 64 136 0z m-80 31c0-11-9-20-20-20-11 0-20 9-20 20 0 11 9 20 20 20 11 0 20-9 20-20z"/>
<glyph glyph-name="repayment" unicode="&#57379;" d="M460 328l-38 0 13 10c6 3 7 11 4 16l-61 98c-3 6-10 7-16 4l-38-21-55 55c-5 4-12 4-16-1l-183-161-21 0c-7 0-9-3-9-10l0-288c0-6 2-14 9-14l411 0c6 0 12 8 12 14l0 288c0 7-6 10-12 10z m-96 101l49-78-33-21c-1 0-1-2-2-2l-198 0z m-104 35l42-42-172-94-24 0z m-196-424l0 264 384 0 0-72-151 0c-7 0-9-6-9-13l0-89c0-6 2-10 9-10l151 0 0-80c0 0-384 0-384 0z m384 104l-136 0 0 64 136 0z m-80 31c0-11-9-20-20-20-11 0-20 9-20 20 0 11 9 20 20 20 11 0 20-9 20-20z"/>
<glyph glyph-name="reply" unicode="&#57380;" d="M181 212l27 26 54-47c2-2 5-3 9-3 3 0 7 2 10 4l55 46 96-92-111 0c-6 0-10-4-10-10l0-9c0-4 3-7 7-7l152 0c10 0 17 7 17 17l0 257c0 5-3 8-5 10-4 3-8 4-12 4l-397 0c-10 0-17-7-17-17l0-197c0-4 3-8 8-8l14 0c2 0 5 1 7 3 1 1 4 3 4 5l0 152 98-87-27-25c-2-1-2-4 0-6l15-15c1-3 4-3 6-1z m277 172z m-11-5l-177-149-180 149z m9-30l0-185-98 97z m-152-295c10 0 17 8 15 17-6 52-41 99-90 119-62 24-133 3-172-50-1-2-3-4-4-3l-22 9c-5 2-9-2-8-6l17-58c2-5 8-8 13-5l55 30c4 3 4 9-1 11l-19 8c-1 0-2 0-2 2 0 1 0 2 1 2 32 37 85 50 130 32 39-16 66-52 72-94 1-9 8-14 15-14z"/>
<glyph glyph-name="reports" unicode="&#57381;" d="M388 24l68 61 0 384c0 9-5 13-10 17-5 4-12 3-19 3l-349 0c-12 0-22 2-22-14l0-438c0-5 0-8 2-11 4-3 8-3 14-3 1 0 2 0 2 0l314 1m38 74l-42-38 0 38z m-338-41l0 400 336 0 0-336-46 0c-16 0-26-7-26-19l0-45z m75 304l186 0c11 0 21 8 21 20 0 12-10 20-21 20l-186 0c-11 0-21-8-21-20 0-12 10-20 21-20z m0-80l186 0c11 0 21 8 21 20 0 12-10 20-21 20l-186 0c-11 0-21-8-21-20 0-12 10-20 21-20z m207-60c0 12-10 20-21 20l-186 0c-11 0-21-8-21-20 0-12 10-20 21-20l186 0c11 0 21 9 21 20z m-114-60l-93 0c-12 0-21-6-21-16 0-11 9-16 21-16l93 0c12 0 21 5 21 16 0 10-9 16-21 16z"/>
<glyph glyph-name="request" unicode="&#57382;" d="M479 392l-446 0c-9 0-17-7-17-16l0-230c0-8 8-18 17-18l63 0 0-50c0-6 4-12 10-14 2-1 4-2 6-2 4 0 8 0 11 4l67 62 288 0c9 0 17 10 17 19l0 229c1 9-7 16-16 16z m-15-232l-281 0c-4 0-8 0-11-3l-44-41 0 31c0 9-7 13-16 13l-64 0 0 200 416 0z m-277 97c0-18-14-33-33-33-18 0-32 15-32 33 0 18 14 33 32 33 19 0 33-15 33-33z m101 0c0-18-15-33-33-33-18 0-33 15-33 33 0 18 15 33 33 33 18 0 33-15 33-33z m100 0c0-18-15-33-33-33-18 0-33 15-33 33 0 18 15 33 33 33 18 0 33-15 33-33z"/>
<glyph glyph-name="request-chequebook" unicode="&#57383;" d="M424 224l-90 0c-9 0-16-7-16-16 0-9 7-16 16-16l90 0c9 0 16 7 16 16 0 9-7 16-16 16z m0-56l-146 0c-9 0-16-7-16-16 0-9 7-16 16-16l146 0c9 0 16 7 16 16 0 9-7 16-16 16z m-240 96c-5-2-9-6-10-10l-25-76-3-4c-7-6-7-16 0-22 3-3 7-5 11-5 4 0 8 2 11 5l3 3 80 26c6 1 10 6 11 12 0 0 0 1 0 1l214 214c6 6 6 16 0 22l-52 52c-6 7-16 7-22 0l-39-38-179-180c0 1 0 0 0 0z m229 184l29-30-16-16-29 30z m-39-38l30-30-157-156-29 30z m-178-190l19-18-28-8z m292 110c0 8-7 14-16 14l-32 0c-9 0-16-7-16-16 0-9 7-16 16-16l16 0 0-192-400 0 0 192 136 0c9 0 16 7 16 16 0 9-7 16-16 16l-152 0c-9 0-16-7-16-16l0-224c0-9 7-16 16-16l432 0c9 0 16 7 16 16l0 224c0 1 0 0 0 1 0 1 0 1 0 1z"/>
<glyph glyph-name="request-money" unicode="&#57384;" d="M333 408c17 16 30 35 31 35 5 7 3 16-4 21-3 2-7 3-11 2-5 0-6-4-7-6 0 0-15-16-23-30 0 6 7 25 16 40 4 7 2 16-5 20-28 22-62 11-76 4-35 20-68 5-80-6-5-5-7-13-3-19 3-7 9-19 13-29-9 10-15 19-15 19-5 7-15 9-22 5-3-2-5-6-6-10-1-4 0-8 2-11 2-2 11-19 27-34-59-16-104-68-104-125l0-178c0-39 50-98 92-98l255 0c10 0 9 19 9 26l0 244c0 62-34 113-89 130z m-47 27l-72 0 0 4c-3 7-7 19-11 27 14 6 27 4 39-4 4-4 12-4 17 0 0 0 20 8 39 4-4-8-8-15-12-31z m104-157l0-238-232 0c-24 0-60 43-60 66l0 177c0 52 46 91 88 98l120 1c50-6 84-49 84-104z m-105 127l-71 0 0 13 71 0z m-36-63c-66 0-119-53-119-120 0-66 53-120 119-120 65 0 119 54 119 120 0 67-54 120-119 120z m0-208c-49 0-89 40-89 88 0 50 40 90 89 90 49 0 89-40 89-89 0-49-40-89-89-89z m-19 72c0-5 1-9 4-12 3-4 6-6 11-7l0 31c-1 0-1 0-2 0-1 0-1 1-2 1-4 1-7 3-11 3-3 2-6 4-9 6-3 2-5 5-7 8-1 3-2 7-2 12 0 5 1 10 3 13 2 4 5 7 7 9 4 3 7 5 12 6 4 2 8 2 12 2l0 12 9 0 0-10c4-1 9-2 12-3 3-2 7-3 11-6 3-2 5-5 7-9 1-4 3-8 3-13l-21 0c0 4-1 7-4 9-2 3-5 4-9 4l0-25c1 0 3-1 4-1 1 0 2-1 4-1 7-1 12-4 16-7 4-3 7-6 9-9 2-3 3-6 3-9 0-4 1-6 1-8 0-3-1-5-1-8-1-4-4-7-6-10-2-3-6-6-11-8-5-2-11-4-18-4l0-13-9 0 0 13c-11 1-19 4-25 10-7 6-10 15-11 27l20 0z m16 56c-2 0-4 0-5 0-2-1-3-2-4-3-2-1-3-2-3-4-1-1-1-3-1-5 0-4 1-6 3-8 2-1 6-3 10-4l0 24z m8-75c2 0 4 1 6 2 2 1 4 1 5 2 1 1 2 3 4 4 1 2 1 4 1 7 0 4 0 6-3 8-2 2-6 4-12 5l0-28z"/>
<glyph glyph-name="request-parameters" unicode="&#57385;" d="M120 24c-9 0-16 7-16 16l0 432c0 9 7 16 16 16 9 0 16-7 16-16l0-432c0-9-7-16-16-16z m52 328c0-29-23-52-52-52-29 0-52 23-52 52 0 29 23 52 52 52 29 0 52-23 52-52z m280-48c0-29-23-52-52-52-29 0-52 23-52 52 0 29 23 52 52 52 29 0 52-23 52-52z m-136-168c0-29-23-52-52-52-29 0-52 23-52 52 0 29 23 52 52 52 29 0 52-23 52-52z m-52-112c-9 0-16 7-16 16l0 432c0 9 7 16 16 16 9 0 16-7 16-16l0-432c0-9-7-16-16-16z m136 0c-9 0-16 7-16 16l0 432c0 9 7 16 16 16 9 0 16-7 16-16l0-432c0-9-7-16-16-16z"/>
<glyph glyph-name="request-pin" unicode="&#57386;" d="M479 392l-446 0c-9 0-17-7-17-16l0-230c0-8 8-18 17-18l63 0 0-50c0-6 4-12 10-14 2-1 4-2 6-2 4 0 8 0 11 4l67 62 288 0c9 0 17 10 17 19l0 229c1 9-7 16-16 16z m-15-232l-281 0c-4 0-8 0-11-3l-44-41 0 31c0 9-7 13-16 13l-64 0 0 200 416 0z m-277 97c0-18-14-33-33-33-18 0-32 15-32 33 0 18 14 33 32 33 19 0 33-15 33-33z m101 0c0-18-15-33-33-33-18 0-33 15-33 33 0 18 15 33 33 33 18 0 33-15 33-33z m100 0c0-18-15-33-33-33-18 0-33 15-33 33 0 18 15 33 33 33 18 0 33-15 33-33z"/>
<glyph glyph-name="review" unicode="&#57387;" d="M250 62l-180 0 0 404 352 0 0-215c0-5 8-10 13-10 6 0 13 5 13 10l0 227c0 6-5 14-10 14l-380 0c-6 0-14-8-14-14l0-431c0-5 8-11 14-11l192 0c6 0 11 7 11 13 0 5-4 13-11 13z m134 155c-56 0-102-46-102-102 0-56 46-101 102-101 56 0 102 45 102 101 0 56-46 102-102 102z m82-102c0-45-37-81-82-81-45 0-82 36-82 81 0 45 37 82 82 82 45 0 82-37 82-82z m-82 153l-270 0c-5 0-10-7-10-13 0-5 5-13 10-13l270 0c6 0 10 8 10 13 1 7-4 13-10 13z m-129-69l-141 0c-5 0-10-7-10-13 0-5 5-12 10-12l141 0c6 0 11 7 11 12 0 6-5 13-11 13z m0-60l-141 0c-5 0-10-7-10-13 0-5 5-12 10-12l141 0c6 0 11 7 11 12 0 6-5 13-11 13z m129 198l-270 0c-5 0-10-7-10-13 0-6 5-13 10-13l270 0c6 0 10 7 10 13 1 6-4 13-10 13z m0 69l-270 0c-5 0-10-8-10-13 0-6 5-13 10-13l270 0c6 0 10 7 10 13 1 6-4 13-10 13z m42-254l-58-58-30 30c-4 4-11 4-16 0-2-2-3-5-3-8 0-3 1-6 3-8l38-38c2-1 5-3 7-3 3 0 6 1 8 3l65 65c4 4 4 11 0 16-2 6-10 6-14 1z"/>
<glyph glyph-name="save" unicode="&#57388;" d="M470 429l-66 59-24 0-7-1c-2 1-3 1-5 1l-224 0c-1 0-1-1-2-1l-76 0c0 0-1 0-2 0-6 0-10-1-14-3-2-2-2-6-2-10l0-439c0-16 10-11 22-11l374 0c7 0 13-2 18 2 6 4 11 7 11 16l0 380c-1 2-2 5-3 7z m-310 27l128 0 0-80-128 0z m160 0l32 0 0-80-32 0z m40-400l-216 0 0 144 216 0z m80 6c0-4-3-6-8-6l-40 0 0 159c0 9-7 17-16 17l-248 0c-9 0-16-8-16-17l0-159-24 0c-4 0-8 1-8 6l0 384c0 4 3 10 8 10l40 0 0-97c0-9 7-15 16-15l224 0c9 0 16 6 16 15l0 97 4 0c2 0 4-2 6-3l44-43c1-1 2-4 2-6z"/>
<glyph glyph-name="schedule" unicode="&#57389;" d="M478 472l-94 0 0 18c0 9-7 16-16 16-9 0-16-7-16-16l0-18-192 0 0 18c0 9-7 16-16 16-9 0-16-7-16-16l0-18-95 0c-9 0-9-2-9-11l0-435c0-10 1-10 9-10l445 0c8 0 10 2 10 10l0 435c0 9-1 11-10 11z m-22-424l-400 0 0 296 400 0z m0 328l-400 0 0 64 72 0 0-37c0-9 7-16 16-16 9 0 16 7 16 16l0 37 192 0 0-37c0-9 7-16 16-16 9 0 16 7 16 16l0 37 72 0z m-280-84c0 6-6 12-12 12l-56 0c-6 0-12-6-12-12l0-56c0-6 6-12 12-12l56 0c6 0 12 6 12 12z m-56-12l32 0 0-32-32 0z m56-116c0 6-6 12-12 12l-56 0c-6 0-12-6-12-12l0-56c0-6 6-12 12-12l56 0c6 0 12 6 12 12z m-56-12l32 0 0-32-32 0z m181 140c0 6-6 12-12 12l-56 0c-7 0-12-6-12-12l0-56c0-6 5-12 12-12l56 0c6 0 12 6 12 12z m-56-12l32 0 0-32-32 0z m56-116c0 6-6 12-12 12l-56 0c-7 0-12-6-12-12l0-56c0-6 5-12 12-12l56 0c6 0 12 6 12 12z m-56-12l32 0 0-32-32 0z m179 140c0 6-6 12-12 12l-56 0c-6 0-12-6-12-12l0-56c0-6 6-12 12-12l56 0c6 0 12 6 12 12z m-56-12l32 0 0-32-32 0z m56-116c0 6-6 12-12 12l-56 0c-6 0-12-6-12-12l0-56c0-6 6-12 12-12l56 0c6 0 12 6 12 12z m-56-12l32 0 0-32-32 0z"/>
<glyph glyph-name="search" unicode="&#57390;" d="M490 92l-139 138c-6 7-18 7-25 0l-10-10-20 22c22 26 34 60 34 94 0 83-68 150-151 150-83 0-150-68-150-150 0-82 67-150 150-150 33 0 66 11 92 31l21-21-8-8c-6-6-6-18 0-25l138-141c4-3 8-7 12-7 5 0 9 3 12 7l44 44c3 4 4 8 4 13 0 5-1 10-4 13z m-37-12l-19-18-113 113 18 19z m-159 256c0-64-52-115-115-115-63 0-116 51-116 115 0 64 52 115 116 115 64 0 115-52 115-115z"/>
<glyph glyph-name="security-question" unicode="&#57391;" d="M446 453l-186 52c-3 1-6 1-9 0l-176-52c-7-3-11-9-11-16l0-255c0-56 35-107 88-127l98-46c2-1 4-2 6-2 2 0 4 1 6 2l106 46c54 19 88 71 88 127l0 255c0 7-4 13-10 16z m-22-271c0-43-26-82-67-96l-101-44-92 43c-1 0 0 0-1 1-41 14-67 53-67 96l0 243 160 48 168-48z m-163-4c-14 0-23-9-23-24 0-14 9-24 23-24 13 0 23 10 23 24 0 15-10 24-23 24z m-75 138l32 0c1 25 16 38 40 38 22 0 37-12 37-32 0-45-51-41-51-105l32 0c0 48 58 53 58 111 0 40-29 62-73 62-45-1-74-28-75-74z"/>
<glyph glyph-name="sent-mail" unicode="&#57392;" d="M491 483c0 2 0 3-1 6 0 1 0 1 0 2-1 2-2 4-4 6 0 0 0 1 0 1-2 1-4 3-6 4-1 0-2 0-2 0-1 1-3 1-5 1-1 0-2 0-3 0-1 0-4 0-5-1-1 0-2 0-2 0 0 0 0 0-1 0l-435-189c-8-3-13-11-13-20 0-9 6-16 14-19l160-63 76-169c3-8 11-10 19-10 8 0 16 2 19 10l188 433c0 0 0-1 0-1 0 3 1 5 1 8 0 0 0 0 0 1z m-49-18l-246-221-122 50z m-154-378l-68 135 233 231z"/>
</font>
</defs>
</svg>
