<svg xmlns="http://www.w3.org/2000/svg" viewBox="0 0 24 24" enable-background="new 0 0 24 24"><style type="text/css">.st0{fill:#9ECFEF;} .st1{fill:#FFFFFF;} .st2{fill:#595959;} .st3{fill:#595959;stroke:#FFFFFF;stroke-width:0.25;stroke-miterlimit:10;} .st4{fill:#FFFFFF;stroke:#333333;stroke-width:0.25;stroke-miterlimit:10;} .st5{fill:#97C9E8;} .st6{fill:#595959;stroke:#595959;stroke-width:0.25;stroke-miterlimit:10;} .st7{fill:#9ECFEF;stroke:#595959;stroke-width:0.75;stroke-miterlimit:10;} .st8{fill:none;} .st9{fill:none;stroke:#9ECFEF;stroke-miterlimit:10;} .st10{fill:none;stroke:#595959;stroke-width:0.75;stroke-miterlimit:10;} .st11{fill:none;stroke:#595959;stroke-miterlimit:10;} .st12{fill:#595959;stroke:#FFFFFF;stroke-width:0.1916;stroke-miterlimit:10;} .st13{fill:#9ECFEF;stroke:#595959;stroke-width:0.75;stroke-linejoin:round;stroke-miterlimit:10;} .st14{fill:none;stroke:#2C3251;stroke-width:0.75;stroke-miterlimit:10;} .st15{fill:none;stroke:#595959;stroke-width:0.5;stroke-miterlimit:10;} .st16{fill:#595959;stroke:#595959;stroke-width:0.2196;stroke-miterlimit:10;} .st17{fill:#FFFFFF;stroke:#595959;stroke-width:0.2196;stroke-miterlimit:10;} .st18{fill:#9ECFEF;stroke:#595959;stroke-width:0.25;stroke-miterlimit:10;} .st19{fill:#CA589D;} .st20{opacity:0.2;fill:#CA589D;} .st21{fill:#3CAF85;} .st22{fill:#FFFFFF;stroke:#595959;stroke-width:0.75;stroke-linejoin:round;stroke-miterlimit:10;} .st23{fill:#595959;stroke:#FFFFFF;stroke-width:0.2467;stroke-miterlimit:10;} .st24{fill:none;stroke:#595959;stroke-width:0.9433;stroke-miterlimit:10;} .st25{fill:none;stroke:#595959;stroke-width:0.9157;stroke-miterlimit:10;} .st26{fill:none;stroke:#595959;stroke-width:0.901;stroke-miterlimit:10;} .st27{fill:none;stroke:#595959;stroke-width:0.74;stroke-miterlimit:10;} .st28{fill:none;stroke:#595959;stroke-width:0.7385;stroke-miterlimit:10;} .st29{fill:none;stroke:#595959;stroke-width:0.9561;stroke-miterlimit:10;} .st30{fill:none;stroke:#595959;stroke-width:0.75;stroke-linecap:square;stroke-miterlimit:10;} .st31{fill:none;stroke:#595959;stroke-width:0.7172;stroke-linecap:square;stroke-miterlimit:10;} .st32{fill:none;stroke:#595959;stroke-width:0.7318;stroke-linecap:square;stroke-miterlimit:10;} .st33{fill:#FFFFFF;stroke:#595959;stroke-width:0.9565;stroke-miterlimit:10;} .st34{fill:none;stroke:#595959;stroke-width:0.9565;stroke-miterlimit:10;} .st35{fill:none;stroke:#595959;stroke-width:0.9565;stroke-miterlimit:10;stroke-dasharray:2.3998,1.4399;} .st36{fill:#9ECFEF;stroke:#595959;stroke-width:0.5;stroke-miterlimit:10;} .st37{fill:#595959;stroke:#FFFFFF;stroke-width:0.4959;stroke-miterlimit:10;} .st38{fill:none;stroke:#595959;stroke-width:0.8165;stroke-miterlimit:10;} .st39{fill:#595959;stroke:#595959;stroke-width:0.2246;stroke-miterlimit:10;} .st40{fill:#FFFFFF;stroke:#595959;stroke-width:0.8165;stroke-miterlimit:10;} .st41{fill:#9ECFEF;stroke:#595959;stroke-width:0.8504;stroke-miterlimit:10;} .st42{fill:none;stroke:#595959;stroke-width:0.7572;stroke-miterlimit:10;} .st43{fill:#595959;stroke:#595959;stroke-width:0.5;stroke-miterlimit:10;} .st44{fill:#595959;stroke:#595959;stroke-width:0.2986;stroke-miterlimit:10;} .st45{fill:#FFFFFF;stroke:#595959;stroke-width:0.75;stroke-miterlimit:10;} .st46{fill:#9ECEEE;stroke:#9ECEEE;stroke-width:0.75;stroke-miterlimit:10;}</style><path class="st10" d="M3.57 4.99c-.25 0-.45.2-.45.45v16.86c0 .25.2.45.45.45h12.64v-17.76h-12.64zm6.56 10.28h-3.74v-4.67l1.87-.94 1.87.94v4.67zm-4.206-8.411v-1.87c0-2.065 1.674-3.739 3.739-3.739s3.739 1.674 3.739 3.739v1.87"/><path class="st46" d="M4.989 7.326h1.87m5.608 0h1.87"/><path class="st10" d="M13.259 1.3c.199-.033.402-.05.61-.05 2.065 0 3.739 1.674 3.739 3.739m-7.478 0c0-1.285.648-2.419 1.635-3.092M20.426 22.75h-4.22v-17.761h4.22c.251 0 .454.203.454.454v16.852c0 .252-.203.455-.454.455zm.454 0l-2.337-1.87-2.336 1.87m2.336-1.87v-14.489"/><path class="st0" d="M9.365 11.064v3.509h-2.268v-3.509l1.134-.707z"/><path class="st10" d="M8.261 9.663v-4.674"/></svg>