<svg xmlns="http://www.w3.org/2000/svg" viewBox="0 0 24 24"><defs><style>.cls-1{fill:#9ecfef;}.cls-2{fill:#595959;}.cls-3{fill:#fff;}</style></defs><title>add-nominee</title><path class="cls-1" d="M15.05 16.56l4.83 1.81a1.88 1.88 0 0 1 1.22 1.76v2.37h-18.2v-2.37a1.88 1.88 0 0 1 1.22-1.76l4.83-1.81 3.05 1.5z"/><path class="cls-2" d="M21.48 22.88h-19v-2.75a2.26 2.26 0 0 1 1.52-2.13l5-1.87 3 1.49 3-1.49 5 1.87a2.26 2.26 0 0 1 1.46 2.11zm-18.21-.75h17.46v-2a1.51 1.51 0 0 0-1-1.41l-4.66-1.72-3.07 1.48-3.07-1.48-4.68 1.73a1.51 1.51 0 0 0-1 1.41z"/><path class="cls-1" d="M16.34 6.44a8.15 8.15 0 0 1-4.44-1.07 6.45 6.45 0 0 1-4.22 1.08c.07-3.87 1.99-4.95 4.32-4.95s4.27 1.08 4.34 4.94z"/><path class="cls-2" d="M8.22 6.84h-.9199999999999999v-.4c.07-3.53 1.7-5.31 4.7-5.31s4.64 1.78 4.71 5.3v.36h-.36a8.54 8.54 0 0 1-4.44-1 6.9 6.9 0 0 1-3.69 1.05zm-.15-.75a6.23 6.23 0 0 0 3.59-1l.2-.16.22.12a7.82 7.82 0 0 0 3.86 1c-.15-2.86-1.41-4.2-3.95-4.2s-3.78 1.37-3.92 4.24zM12 14.44c-1.66 0-3.2-1.44-4-3.78a1.6 1.6 0 0 1-.62-3v-1a2.88 2.88 0 0 1 0-.29v-.36h.37a6.14 6.14 0 0 0 4-1l.2-.15.22.12a7.85 7.85 0 0 0 4.24 1h.36v1.65a1.6 1.6 0 0 1 .77 1.72 1.59 1.59 0 0 1-1.39 1.26c-.92 2.39-2.46 3.83-4.15 3.83zm-3.52-4.55l.09.28c.72 2.17 2 3.52 3.43 3.52s2.72-1.35 3.44-3.52l.09-.28h.29a.82.82 0 0 0 .89-.67.85.85 0 0 0-.56-1l-.29-.1v-.3a9.68 9.68 0 0 0 .06-1 8.54 8.54 0 0 1-4-1 7.1 7.1 0 0 1-3.92 1.02c0 .37 0 .71.06 1v.3l-.29.1a.85.85 0 0 0-.56 1 .82.82 0 0 0 .9.67zM8.22 6.84h-.9199999999999999v-.4c.07-3.53 1.7-5.31 4.7-5.31s4.64 1.78 4.71 5.3v.36h-.36a8.54 8.54 0 0 1-4.44-1 6.9 6.9 0 0 1-3.69 1.05zm-.15-.75a6.23 6.23 0 0 0 3.59-1l.2-.16.22.12a7.82 7.82 0 0 0 3.86 1c-.15-2.86-1.41-4.2-3.95-4.2s-3.78 1.37-3.92 4.24zM15.81 10.66h-.2l.11-.74zM8.22 10.66v-.75l.23.72zM16.35 6.81h-.01v-.75l.01.75zM11.71 5.7a6.51 6.51 0 0 1-1.27-.9l.56-.54a5.93 5.93 0 0 0 1.08.74zM7.68 6.82h-.01v-.75l.01.75zM9.9 13.63h.75v2.17h-.75zM13.37 13.63h.75v2.17h-.75z"/><path class="cls-1" d="M11.86 17.1l-1.73 2.6-.42.67-.45-.67a3.42 3.42 0 0 1-.26-3.14 4.15 4.15 0 0 1 1.13-1.56 2.21 2.21 0 0 0 1.73 2.1z"/><path class="cls-2" d="M9.72 21.06l-.77-1.15a3.77 3.77 0 0 1-.34-3.5 4.54 4.54 0 0 1 1.28-1.68l.62-.53v.8a1.83 1.83 0 0 0 1.49 1.74l.52.13zm.17-5.28a3.4 3.4 0 0 0-.6.93 3 3 0 0 0 .27 2.78l.13.2.11-.18 1.47-2.2a2.53 2.53 0 0 1-1.38-1.53z"/><path class="cls-1" d="M14.77 19.7l-.41.67-.46-.67-1.74-2.6a2.21 2.21 0 0 0 1.74-2.1 4.26 4.26 0 0 1 1.18 1.55 3.4 3.4 0 0 1-.31 3.15z"/><path class="cls-2" d="M14.38 21.06l-2.83-4.2.52-.13a1.81 1.81 0 0 0 1.46-1.73v-.8l.62.54a4.64 4.64 0 0 1 1.28 1.69 3.76 3.76 0 0 1-.34 3.48zm-1.64-3.76l1.6 2.38.12-.2a3 3 0 0 0 .27-2.77 3.48 3.48 0 0 0-.6-.94 2.54 2.54 0 0 1-1.39 1.53z"/><path class="cls-3" d="M13.73 19.65l-1.73.97-1.73-.97 1.73-2.56 1.73 2.56z"/><path class="cls-2" d="M12 21a.37.37 0 0 1-.18 0l-1.73-1a.37.37 0 0 1-.13-.54l1.73-2.56a.39.39 0 0 1 .62 0l1.69 2.54a.37.37 0 0 1-.13.54l-1.73 1a.37.37 0 0 1-.14.02zm-1.2-1.47l1.2.67 1.2-.67-1.2-1.78zM19 15a4 4 0 1 0 4 4 4 4 0 0 0-4-4zm0 7.27a3.27 3.27 0 1 1 3.23-3.27 3.28 3.28 0 0 1-3.23 3.24z"/><path class="cls-3" d="M19 15.7a3.27 3.27 0 1 0 3.23 3.3 3.28 3.28 0 0 0-3.23-3.3z"/><path class="cls-2" d="M18.59 17.17h.75v4.19h-.75zM16.86 19.64v-.75h4.19v.75z"/></svg>